<?xml version="1.0" standalone="no"?>
 <!DOCTYPE svg PUBLIC "-//W3C//DTD SVG 1.1//EN" 
 "http://www.w3.org/Graphics/SVG/1.1/DTD/svg11.dtd"> 
<svg
  xmlns:svg="http://www.w3.org/2000/svg"
  xmlns="http://www.w3.org/2000/svg"
  xmlns:xlink="http://www.w3.org/1999/xlink"
  version="1.1"
  width="29.700220cm" height="21.000720cm" viewBox="0 0 297002 210007">
<title>SVG Picture created as jantor-Edge_Cuts.svg date 2022/08/21 16:18:29 </title>
  <desc>Picture generated by PCBNEW </desc>
<g style="fill:#000000; fill-opacity:1.000000;stroke:#000000; stroke-opacity:1.000000;
stroke-linecap:round; stroke-linejoin:round;"
 transform="translate(0 0) scale(1 1)">
</g>
<g style="fill:#000000; fill-opacity:0.0; 
stroke:#000000; stroke-width:0.000000; stroke-opacity:1; 
stroke-linecap:round; stroke-linejoin:round;">
</g>
<g style="fill:#000000; fill-opacity:0.0; 
stroke:#000000; stroke-width:100.000000; stroke-opacity:1; 
stroke-linecap:round; stroke-linejoin:round;">
<path d="M47500 -21375
L47500 30875
" />
<path d="M48687 32062
L61156 32062
" />
<path d="M47500.000000 30875.000000 A1187.500000 1187.500000 0.0 0 0 48687.500000 32062.500000" />
<path d="M62343 40375
L62343 33250
" />
<path d="M63531 41562
L73625 41562
" />
<path d="M62343.750000 40375.000000 A1187.500000 1187.500000 0.0 0 0 63531.250000 41562.500000" />
<path d="M62343.750000 33250.000000 A1187.500000 1187.500000 0.0 0 0 61156.250000 32062.500000" />
<path d="M48411 67555
L-2375 53437
" />
<path d="M-65312 41562
L-29687 41562
" />
<path d="M28500.000002 -23156.250000 A593.700000 593.700000 0.0 0 0 29093.750000 -22562.500002" />
<path d="M-85500 5937
L-85500 22562
" />
<path d="M-27312 34437
L-10687 34437
" />
<path d="M48411.786410 67555.098199 A6486.938000 6486.938000 0.0 0 0 54624.999889 65906.249887" />
<path d="M-65312.500000 -15437.500000 A1187.500000 1187.500000 0.0 0 0 -66500.000000 -14250.000000" />
<path d="M8312 -28500
L-8312 -28500
" />
<path d="M-66500 24937
L-66500 40375
" />
<path d="M-27312.500000 -22562.500000 A1187.500000 1187.500000 0.0 0 0 -28500.000000 -21375.000000" />
<path d="M-10687 -22562
L-27312 -22562
" />
<path d="M-66500.000000 24937.500000 A1187.500000 1187.500000 0.0 0 0 -67687.500000 23750.000000" />
<path d="M-84312 23750
L-67687 23750
" />
<path d="M-66500 3562
L-66500 -14250
" />
<path d="M-9500 -23750
L-9500 -27312
" />
<path d="M47500.000000 -21375.000000 A1187.500000 1187.500000 0.0 0 0 46312.500000 -22562.500000" />
<path d="M-8312.500000 -28500.000000 A1187.500000 1187.500000 0.0 0 0 -9500.000000 -27312.500000" />
<path d="M-8403.920541 35655.473181 A1781.300000 1781.300000 0.0 0 0 -10093.750000 34437.500001" />
<path d="M-85500.000000 22562.500000 A1187.500000 1187.500000 0.0 0 0 -84312.500000 23750.000000" />
<path d="M-84312.500000 4750.000000 A1187.500000 1187.500000 0.0 0 0 -85500.000000 5937.500000" />
<path d="M-29687 -15437
L-65312 -15437
" />
<path d="M-27312.500000 34437.500000 A1187.500000 1187.500000 0.0 0 0 -28500.000000 35625.000000" />
<path d="M-8403 35655
L-4030 51593
" />
<path d="M-10687 34437
L-10093 34437
" />
<path d="M-28500 -16625
L-28500 -21375
" />
<path d="M-66500.000000 40375.000000 A1187.500000 1187.500000 0.0 0 0 -65312.500000 41562.500000" />
<path d="M-28500 35625
L-28500 40375
" />
<path d="M27312 -23750
L10687 -23750
" />
<path d="M46312 -22562
L29687 -22562
" />
<path d="M74290.772434 42749.992782 A776.432000 776.432000 0.0 0 0 73625.000004 41562.500463" />
<path d="M29687 -22562
L29093 -22562
" />
<path d="M-29687.500000 41562.500000 A1187.500000 1187.500000 0.0 0 0 -28500.000000 40375.000000" />
<path d="M-67687.500000 4750.000000 A1187.500000 1187.500000 0.0 0 0 -66500.000000 3562.500000" />
<path d="M-10687.500000 -22562.500000 A1187.500000 1187.500000 0.0 0 0 -9500.000000 -23750.000000" />
<path d="M9500.000000 -27312.500000 A1187.500000 1187.500000 0.0 0 0 8312.500000 -28500.000000" />
<path d="M27312 -23750
L27906 -23750
" />
<path d="M-29687.500000 -15437.500000 A1187.500000 1187.500000 0.0 0 0 -28500.000000 -16625.000000" />
<path d="M-4030.904597 51593.572825 A2919.073000 2919.073000 0.0 0 0 -2374.999901 53437.499766" />
<path d="M9500.000000 -24937.500000 A1187.500000 1187.500000 0.0 0 0 10687.500000 -23750.000000" />
<path d="M28499.999998 -23156.250000 A593.700000 593.700000 0.0 0 0 27906.250000 -23749.999998" />
<path d="M-67687 4750
L-84312 4750
" />
<path d="M54625 65906
L74290 42750
" />
<path d="M9500 -24937
L9500 -27312
" />
</g>
<g style="fill:#000000; fill-opacity:0.0; 
stroke:#000000; stroke-width:120.000000; stroke-opacity:1; 
stroke-linecap:round; stroke-linejoin:round;">
<path d="M40312 53030
L47312 40906
" />
<path d="M47312 40906
L59437 47906
" />
<path d="M59437 47906
L52437 60030
" />
<path d="M52437 60030
L40312 53030
" />
<path d="M22362 36551
L35885 40175
" />
<path d="M35885 40175
L32262 53698
" />
<path d="M32262 53698
L18739 50074
" />
<path d="M18739 50074
L22362 36551
" />
<path d="M-1062 35750
L12937 35750
" />
<path d="M12937 35750
L12937 49750
" />
<path d="M12937 49750
L-1062 49750
" />
<path d="M-1062 49750
L-1062 35750
" />
<path d="M31000 17937
L45000 17937
" />
<path d="M45000 17937
L45000 31937
" />
<path d="M45000 31937
L31000 31937
" />
<path d="M31000 31937
L31000 17937
" />
<path d="M12000 16750
L26000 16750
" />
<path d="M26000 16750
L26000 30750
" />
<path d="M26000 30750
L12000 30750
" />
<path d="M12000 30750
L12000 16750
" />
<path d="M-7000 12000
L7000 12000
" />
<path d="M7000 12000
L7000 26000
" />
<path d="M7000 26000
L-7000 26000
" />
<path d="M-7000 26000
L-7000 12000
" />
<path d="M-26000 17937
L-12000 17937
" />
<path d="M-12000 17937
L-12000 31937
" />
<path d="M-12000 31937
L-26000 31937
" />
<path d="M-26000 31937
L-26000 17937
" />
<path d="M-45000 25062
L-31000 25062
" />
<path d="M-31000 25062
L-31000 39062
" />
<path d="M-31000 39062
L-45000 39062
" />
<path d="M-45000 39062
L-45000 25062
" />
<path d="M-64000 25062
L-50000 25062
" />
<path d="M-50000 25062
L-50000 39062
" />
<path d="M-50000 39062
L-64000 39062
" />
<path d="M-64000 39062
L-64000 25062
" />
<path d="M31000 -1062
L45000 -1062
" />
<path d="M45000 -1062
L45000 12937
" />
<path d="M45000 12937
L31000 12937
" />
<path d="M31000 12937
L31000 -1062
" />
<path d="M12000 -2250
L26000 -2250
" />
<path d="M26000 -2250
L26000 11750
" />
<path d="M26000 11750
L12000 11750
" />
<path d="M12000 11750
L12000 -2250
" />
<path d="M-7000 -7000
L7000 -7000
" />
<path d="M7000 -7000
L7000 7000
" />
<path d="M7000 7000
L-7000 7000
" />
<path d="M-7000 7000
L-7000 -7000
" />
<path d="M-26000 -1062
L-12000 -1062
" />
<path d="M-12000 -1062
L-12000 12937
" />
<path d="M-12000 12937
L-26000 12937
" />
<path d="M-26000 12937
L-26000 -1062
" />
<path d="M-45000 6062
L-31000 6062
" />
<path d="M-31000 6062
L-31000 20062
" />
<path d="M-31000 20062
L-45000 20062
" />
<path d="M-45000 20062
L-45000 6062
" />
<path d="M-64000 6062
L-50000 6062
" />
<path d="M-50000 6062
L-50000 20062
" />
<path d="M-50000 20062
L-64000 20062
" />
<path d="M-64000 20062
L-64000 6062
" />
<path d="M-83000 7250
L-69000 7250
" />
<path d="M-69000 7250
L-69000 21250
" />
<path d="M-69000 21250
L-83000 21250
" />
<path d="M-83000 21250
L-83000 7250
" />
<path d="M31000 -20062
L45000 -20062
" />
<path d="M45000 -20062
L45000 -6062
" />
<path d="M45000 -6062
L31000 -6062
" />
<path d="M31000 -6062
L31000 -20062
" />
<path d="M12000 -21250
L26000 -21250
" />
<path d="M26000 -21250
L26000 -7250
" />
<path d="M26000 -7250
L12000 -7250
" />
<path d="M12000 -7250
L12000 -21250
" />
<path d="M-7000 -26000
L7000 -26000
" />
<path d="M7000 -26000
L7000 -12000
" />
<path d="M7000 -12000
L-7000 -12000
" />
<path d="M-7000 -12000
L-7000 -26000
" />
<path d="M-26000 -20062
L-12000 -20062
" />
<path d="M-12000 -20062
L-12000 -6062
" />
<path d="M-12000 -6062
L-26000 -6062
" />
<path d="M-26000 -6062
L-26000 -20062
" />
<path d="M-45000 -12937
L-31000 -12937
" />
<path d="M-31000 -12937
L-31000 1062
" />
<path d="M-31000 1062
L-45000 1062
" />
<path d="M-45000 1062
L-45000 -12937
" />
<path d="M-64000 -12937
L-50000 -12937
" />
<path d="M-50000 -12937
L-50000 1062
" />
<path d="M-50000 1062
L-64000 1062
" />
<path d="M-64000 1062
L-64000 -12937
" />
<circle cx="-28500.000000" cy="3562.500000" r="1150.000000" /> 
<circle cx="-47500.000000" cy="3562.500000" r="1150.000000" /> 
<circle cx="40375.000000" cy="42156.250000" r="1150.000000" /> 
<circle cx="28500.000000" cy="-1187.500000" r="1150.000000" /> 
<circle cx="-47500.000000" cy="22562.500000" r="1150.000000" /> 
<circle cx="-28500.000000" cy="22562.500000" r="1150.000000" /> 
<g >
</g>
<g >
</g>
<g >
</g>
<g >
</g>
<g >
</g>
<g >
</g>
<g >
</g>
<g >
</g>
<g >
</g>
<g >
</g>
<g >
</g>
<g >
</g>
<g >
</g>
<g >
</g>
<g >
</g>
<g >
</g>
<g >
</g>
<g >
</g>
<g >
</g>
<g >
</g>
<g >
</g>
<g >
</g>
<g >
</g>
<g >
</g>
<g >
</g>
<g >
</g>
<g >
</g>
<g >
</g>
<g >
</g>
<g >
</g>
<g >
</g>
</g> 
</svg>
