  0
SECTION
  2
HEADER
  9
$ANGBASE
  50
0.0
  9
$ANGDIR
  70
1
  9
$MEASUREMENT
  70
1
  0
ENDSEC
  0
SECTION
  2
TABLES
  0
TABLE
  2
LTYPE
  70
4
  0
LTYPE
  5
40F
  2
CONTINUOUS
  70
0
  3
Solid line
  72
65
  73
0
  40
0.0
  0
LTYPE
  5
410
  2
DASHDOT
 70
0
  3
Dash Dot ____ _ ____ _
 72
65
 73
4
 40
2.0
 49
1.25
 49
-0.25
 49
0.25
 49
-0.25
  0
LTYPE
  5
411
  2
DASHED
 70
0
  3
Dashed __ __ __ __ __
 72
65
 73
2
 40
0.75
 49
0.5
 49
-0.25
  0
LTYPE
  5
43B
  2
DOTTED
 70
0
  3
Dotted .  .  .  .
 72
65
 73
2
 40
0.2
 49
0.0
 49
-0.2
  0
ENDTAB
  0
TABLE
  2
STYLE
  70
4
  0
STYLE
  2
KICAD
  70
0
  40
0
  41
1
  42
1
  50
0
  71
0
  3
isocp.shx
  0
STYLE
  2
KICADB
  70
0
  40
0
  41
1
  42
1
  50
0
  71
0
  3
isocp.shx
  0
STYLE
  2
KICADI
  70
0
  40
0
  41
1
  42
1
  50
15
  71
0
  3
isocp.shx
  0
STYLE
  2
KICADBI
  70
0
  40
0
  41
1
  42
1
  50
15
  71
0
  3
isocp.shx
  0
ENDTAB
  0
TABLE
  2
LAYER
  70
1
  0
LAYER
  2
BLACK
  70
0
  62
7
  6
CONTINUOUS
  0
ENDTAB
  0
ENDSEC
  0
SECTION
  2
ENTITIES
0
LINE
8
BLACK
6
CONTINUOUS
10
219.094
20
-36.7625
11
219.237
21
-36.7786
0
LINE
8
BLACK
6
CONTINUOUS
10
219.237
20
-36.7786
11
219.373
21
-36.8262
0
LINE
8
BLACK
6
CONTINUOUS
10
219.373
20
-36.8262
11
219.495
21
-36.9029
0
LINE
8
BLACK
6
CONTINUOUS
10
219.495
20
-36.9029
11
219.597
21
-37.0049
0
LINE
8
BLACK
6
CONTINUOUS
10
219.597
20
-37.0049
11
219.674
21
-37.1269
0
LINE
8
BLACK
6
CONTINUOUS
10
219.674
20
-37.1269
11
219.721
21
-37.263
0
LINE
8
BLACK
6
CONTINUOUS
10
219.721
20
-37.263
11
219.737
21
-37.4063
0
LINE
8
BLACK
6
CONTINUOUS
10
219.737
20
-37.4063
11
219.735
21
-37.4128
0
LINE
8
BLACK
6
CONTINUOUS
10
219.735
20
-37.4128
11
219.748
21
-37.528
0
LINE
8
BLACK
6
CONTINUOUS
10
219.748
20
-37.528
11
219.788
21
-37.6437
0
LINE
8
BLACK
6
CONTINUOUS
10
219.788
20
-37.6437
11
219.853
21
-37.7474
0
LINE
8
BLACK
6
CONTINUOUS
10
219.853
20
-37.7474
11
219.94
21
-37.8341
0
LINE
8
BLACK
6
CONTINUOUS
10
219.94
20
-37.8341
11
220.044
21
-37.8993
0
LINE
8
BLACK
6
CONTINUOUS
10
220.044
20
-37.8993
11
220.159
21
-37.9397
0
LINE
8
BLACK
6
CONTINUOUS
10
220.159
20
-37.9397
11
220.275
21
-37.9527
0
LINE
8
BLACK
6
CONTINUOUS
10
220.275
20
-37.9527
11
220.281
21
-37.95
0
LINE
8
BLACK
6
CONTINUOUS
10
220.281
20
-37.95
11
220.281
21
-37.95
0
LINE
8
BLACK
6
CONTINUOUS
10
220.281
20
-37.95
11
220.281
21
-37.95
0
LINE
8
BLACK
6
CONTINUOUS
10
220.281
20
-37.95
11
237.5
21
-37.95
0
LINE
8
BLACK
6
CONTINUOUS
10
237.5
20
-37.95
11
237.694
21
-37.9652
0
LINE
8
BLACK
6
CONTINUOUS
10
237.694
20
-37.9652
11
237.882
21
-38.0106
0
LINE
8
BLACK
6
CONTINUOUS
10
237.882
20
-38.0106
11
238.062
21
-38.0849
0
LINE
8
BLACK
6
CONTINUOUS
10
238.062
20
-38.0849
11
238.227
21
-38.1863
0
LINE
8
BLACK
6
CONTINUOUS
10
238.227
20
-38.1863
11
238.375
21
-38.3125
0
LINE
8
BLACK
6
CONTINUOUS
10
238.375
20
-38.3125
11
238.501
21
-38.4601
0
LINE
8
BLACK
6
CONTINUOUS
10
238.501
20
-38.4601
11
238.603
21
-38.6257
0
LINE
8
BLACK
6
CONTINUOUS
10
238.603
20
-38.6257
11
238.677
21
-38.8051
0
LINE
8
BLACK
6
CONTINUOUS
10
238.677
20
-38.8051
11
238.722
21
-38.9939
0
LINE
8
BLACK
6
CONTINUOUS
10
238.722
20
-38.9939
11
238.737
21
-39.1875
0
LINE
8
BLACK
6
CONTINUOUS
10
238.737
20
-39.1875
11
238.737
21
-91.4375
0
LINE
8
BLACK
6
CONTINUOUS
10
238.737
20
-91.4375
11
238.734
21
-91.4462
0
LINE
8
BLACK
6
CONTINUOUS
10
238.734
20
-91.4462
11
238.751
21
-91.6358
0
LINE
8
BLACK
6
CONTINUOUS
10
238.751
20
-91.6358
11
238.802
21
-91.828
0
LINE
8
BLACK
6
CONTINUOUS
10
238.802
20
-91.828
11
238.886
21
-92.0084
0
LINE
8
BLACK
6
CONTINUOUS
10
238.886
20
-92.0084
11
239
21
-92.1715
0
LINE
8
BLACK
6
CONTINUOUS
10
239
20
-92.1715
11
239.141
21
-92.3122
0
LINE
8
BLACK
6
CONTINUOUS
10
239.141
20
-92.3122
11
239.304
21
-92.4264
0
LINE
8
BLACK
6
CONTINUOUS
10
239.304
20
-92.4264
11
239.484
21
-92.5105
0
LINE
8
BLACK
6
CONTINUOUS
10
239.484
20
-92.5105
11
239.677
21
-92.562
0
LINE
8
BLACK
6
CONTINUOUS
10
239.677
20
-92.562
11
239.866
21
-92.5786
0
LINE
8
BLACK
6
CONTINUOUS
10
239.866
20
-92.5786
11
239.875
21
-92.575
0
LINE
8
BLACK
6
CONTINUOUS
10
239.875
20
-92.575
11
252.344
21
-92.575
0
LINE
8
BLACK
6
CONTINUOUS
10
252.344
20
-92.575
11
252.537
21
-92.5902
0
LINE
8
BLACK
6
CONTINUOUS
10
252.537
20
-92.5902
11
252.726
21
-92.6356
0
LINE
8
BLACK
6
CONTINUOUS
10
252.726
20
-92.6356
11
252.906
21
-92.7099
0
LINE
8
BLACK
6
CONTINUOUS
10
252.906
20
-92.7099
11
253.071
21
-92.8114
0
LINE
8
BLACK
6
CONTINUOUS
10
253.071
20
-92.8114
11
253.219
21
-92.9375
0
LINE
8
BLACK
6
CONTINUOUS
10
253.219
20
-92.9375
11
253.345
21
-93.0851
0
LINE
8
BLACK
6
CONTINUOUS
10
253.345
20
-93.0851
11
253.446
21
-93.2507
0
LINE
8
BLACK
6
CONTINUOUS
10
253.446
20
-93.2507
11
253.521
21
-93.4301
0
LINE
8
BLACK
6
CONTINUOUS
10
253.521
20
-93.4301
11
253.566
21
-93.6189
0
LINE
8
BLACK
6
CONTINUOUS
10
253.566
20
-93.6189
11
253.581
21
-93.8123
0
LINE
8
BLACK
6
CONTINUOUS
10
253.581
20
-93.8123
11
253.581
21
-93.8125
0
LINE
8
BLACK
6
CONTINUOUS
10
253.581
20
-93.8125
11
253.581
21
-100.938
0
LINE
8
BLACK
6
CONTINUOUS
10
253.581
20
-100.938
11
253.578
21
-100.946
0
LINE
8
BLACK
6
CONTINUOUS
10
253.578
20
-100.946
11
253.594
21
-101.136
0
LINE
8
BLACK
6
CONTINUOUS
10
253.594
20
-101.136
11
253.646
21
-101.328
0
LINE
8
BLACK
6
CONTINUOUS
10
253.646
20
-101.328
11
253.73
21
-101.508
0
LINE
8
BLACK
6
CONTINUOUS
10
253.73
20
-101.508
11
253.844
21
-101.671
0
LINE
8
BLACK
6
CONTINUOUS
10
253.844
20
-101.671
11
253.985
21
-101.812
0
LINE
8
BLACK
6
CONTINUOUS
10
253.985
20
-101.812
11
254.148
21
-101.926
0
LINE
8
BLACK
6
CONTINUOUS
10
254.148
20
-101.926
11
254.328
21
-102.01
0
LINE
8
BLACK
6
CONTINUOUS
10
254.328
20
-102.01
11
254.52
21
-102.062
0
LINE
8
BLACK
6
CONTINUOUS
10
254.52
20
-102.062
11
254.71
21
-102.079
0
LINE
8
BLACK
6
CONTINUOUS
10
254.71
20
-102.079
11
254.719
21
-102.075
0
LINE
8
BLACK
6
CONTINUOUS
10
254.719
20
-102.075
11
264.812
21
-102.075
0
LINE
8
BLACK
6
CONTINUOUS
10
264.812
20
-102.075
11
264.813
21
-102.075
0
LINE
8
BLACK
6
CONTINUOUS
10
264.813
20
-102.075
11
264.972
21
-102.089
0
LINE
8
BLACK
6
CONTINUOUS
10
264.972
20
-102.089
11
265.126
21
-102.134
0
LINE
8
BLACK
6
CONTINUOUS
10
265.126
20
-102.134
11
265.268
21
-102.207
0
LINE
8
BLACK
6
CONTINUOUS
10
265.268
20
-102.207
11
265.394
21
-102.307
0
LINE
8
BLACK
6
CONTINUOUS
10
265.394
20
-102.307
11
265.498
21
-102.429
0
LINE
8
BLACK
6
CONTINUOUS
10
265.498
20
-102.429
11
265.576
21
-102.569
0
LINE
8
BLACK
6
CONTINUOUS
10
265.576
20
-102.569
11
265.626
21
-102.721
0
LINE
8
BLACK
6
CONTINUOUS
10
265.626
20
-102.721
11
265.646
21
-102.881
0
LINE
8
BLACK
6
CONTINUOUS
10
265.646
20
-102.881
11
265.634
21
-103.041
0
LINE
8
BLACK
6
CONTINUOUS
10
265.634
20
-103.041
11
265.592
21
-103.195
0
LINE
8
BLACK
6
CONTINUOUS
10
265.592
20
-103.195
11
265.521
21
-103.339
0
LINE
8
BLACK
6
CONTINUOUS
10
265.521
20
-103.339
11
265.521
21
-103.339
0
LINE
8
BLACK
6
CONTINUOUS
10
265.521
20
-103.339
11
265.518
21
-103.341
0
LINE
8
BLACK
6
CONTINUOUS
10
265.518
20
-103.341
11
265.516
21
-103.345
0
LINE
8
BLACK
6
CONTINUOUS
10
265.516
20
-103.345
11
245.851
21
-126.501
0
LINE
8
BLACK
6
CONTINUOUS
10
245.851
20
-126.501
11
245.849
21
-126.502
0
LINE
8
BLACK
6
CONTINUOUS
10
245.849
20
-126.502
11
245.848
21
-126.504
0
LINE
8
BLACK
6
CONTINUOUS
10
245.848
20
-126.504
11
245.848
21
-126.504
0
LINE
8
BLACK
6
CONTINUOUS
10
245.848
20
-126.504
11
245.49
21
-126.831
0
LINE
8
BLACK
6
CONTINUOUS
10
245.49
20
-126.831
11
245.11
21
-127.13
0
LINE
8
BLACK
6
CONTINUOUS
10
245.11
20
-127.13
11
244.709
21
-127.401
0
LINE
8
BLACK
6
CONTINUOUS
10
244.709
20
-127.401
11
244.288
21
-127.641
0
LINE
8
BLACK
6
CONTINUOUS
10
244.288
20
-127.641
11
243.851
21
-127.849
0
LINE
8
BLACK
6
CONTINUOUS
10
243.851
20
-127.849
11
243.4
21
-128.024
0
LINE
8
BLACK
6
CONTINUOUS
10
243.4
20
-128.024
11
242.937
21
-128.165
0
LINE
8
BLACK
6
CONTINUOUS
10
242.937
20
-128.165
11
242.465
21
-128.272
0
LINE
8
BLACK
6
CONTINUOUS
10
242.465
20
-128.272
11
241.987
21
-128.343
0
LINE
8
BLACK
6
CONTINUOUS
10
241.987
20
-128.343
11
241.504
21
-128.379
0
LINE
8
BLACK
6
CONTINUOUS
10
241.504
20
-128.379
11
241.02
21
-128.38
0
LINE
8
BLACK
6
CONTINUOUS
10
241.02
20
-128.38
11
240.537
21
-128.344
0
LINE
8
BLACK
6
CONTINUOUS
10
240.537
20
-128.344
11
240.059
21
-128.272
0
LINE
8
BLACK
6
CONTINUOUS
10
240.059
20
-128.272
11
239.586
21
-128.166
0
LINE
8
BLACK
6
CONTINUOUS
10
239.586
20
-128.166
11
239.586
21
-128.166
0
LINE
8
BLACK
6
CONTINUOUS
10
239.586
20
-128.166
11
239.586
21
-128.166
0
LINE
8
BLACK
6
CONTINUOUS
10
239.586
20
-128.166
11
239.586
21
-128.166
0
LINE
8
BLACK
6
CONTINUOUS
10
239.586
20
-128.166
11
188.799
21
-114.048
0
LINE
8
BLACK
6
CONTINUOUS
10
188.799
20
-114.048
11
188.796
21
-114.046
0
LINE
8
BLACK
6
CONTINUOUS
10
188.796
20
-114.046
11
188.793
21
-114.046
0
LINE
8
BLACK
6
CONTINUOUS
10
188.793
20
-114.046
11
188.533
21
-113.92
0
LINE
8
BLACK
6
CONTINUOUS
10
188.533
20
-113.92
11
188.286
21
-113.77
0
LINE
8
BLACK
6
CONTINUOUS
10
188.286
20
-113.77
11
188.054
21
-113.596
0
LINE
8
BLACK
6
CONTINUOUS
10
188.054
20
-113.596
11
187.841
21
-113.401
0
LINE
8
BLACK
6
CONTINUOUS
10
187.841
20
-113.401
11
187.648
21
-113.186
0
LINE
8
BLACK
6
CONTINUOUS
10
187.648
20
-113.186
11
187.477
21
-112.953
0
LINE
8
BLACK
6
CONTINUOUS
10
187.477
20
-112.953
11
187.329
21
-112.705
0
LINE
8
BLACK
6
CONTINUOUS
10
187.329
20
-112.705
11
187.206
21
-112.443
0
LINE
8
BLACK
6
CONTINUOUS
10
187.206
20
-112.443
11
187.109
21
-112.171
0
LINE
8
BLACK
6
CONTINUOUS
10
187.109
20
-112.171
11
187.109
21
-112.171
0
LINE
8
BLACK
6
CONTINUOUS
10
187.109
20
-112.171
11
187.109
21
-112.17
0
LINE
8
BLACK
6
CONTINUOUS
10
187.109
20
-112.17
11
187.108
21
-112.169
0
LINE
8
BLACK
6
CONTINUOUS
10
187.108
20
-112.169
11
182.735
21
-96.2312
0
LINE
8
BLACK
6
CONTINUOUS
10
182.735
20
-96.2312
11
182.736
21
-96.2233
0
LINE
8
BLACK
6
CONTINUOUS
10
182.736
20
-96.2233
11
182.648
21
-96.01
0
LINE
8
BLACK
6
CONTINUOUS
10
182.648
20
-96.01
11
182.527
21
-95.8023
0
LINE
8
BLACK
6
CONTINUOUS
10
182.527
20
-95.8023
11
182.378
21
-95.6135
0
LINE
8
BLACK
6
CONTINUOUS
10
182.378
20
-95.6135
11
182.204
21
-95.4471
0
LINE
8
BLACK
6
CONTINUOUS
10
182.204
20
-95.4471
11
182.008
21
-95.3064
0
LINE
8
BLACK
6
CONTINUOUS
10
182.008
20
-95.3064
11
181.796
21
-95.194
0
LINE
8
BLACK
6
CONTINUOUS
10
181.796
20
-95.194
11
181.569
21
-95.1122
0
LINE
8
BLACK
6
CONTINUOUS
10
181.569
20
-95.1122
11
181.334
21
-95.0625
0
LINE
8
BLACK
6
CONTINUOUS
10
181.334
20
-95.0625
11
181.102
21
-95.0464
0
LINE
8
BLACK
6
CONTINUOUS
10
181.102
20
-95.0464
11
181.094
21
-95.05
0
LINE
8
BLACK
6
CONTINUOUS
10
181.094
20
-95.05
11
163.875
21
-95.05
0
LINE
8
BLACK
6
CONTINUOUS
10
163.875
20
-95.05
11
163.866
21
-95.0464
0
LINE
8
BLACK
6
CONTINUOUS
10
163.866
20
-95.0464
11
163.677
21
-95.063
0
LINE
8
BLACK
6
CONTINUOUS
10
163.677
20
-95.063
11
163.484
21
-95.1145
0
LINE
8
BLACK
6
CONTINUOUS
10
163.484
20
-95.1145
11
163.304
21
-95.1986
0
LINE
8
BLACK
6
CONTINUOUS
10
163.304
20
-95.1986
11
163.141
21
-95.3128
0
LINE
8
BLACK
6
CONTINUOUS
10
163.141
20
-95.3128
11
163
21
-95.4535
0
LINE
8
BLACK
6
CONTINUOUS
10
163
20
-95.4535
11
162.886
21
-95.6166
0
LINE
8
BLACK
6
CONTINUOUS
10
162.886
20
-95.6166
11
162.802
21
-95.797
0
LINE
8
BLACK
6
CONTINUOUS
10
162.802
20
-95.797
11
162.751
21
-95.9892
0
LINE
8
BLACK
6
CONTINUOUS
10
162.751
20
-95.9892
11
162.734
21
-96.1788
0
LINE
8
BLACK
6
CONTINUOUS
10
162.734
20
-96.1788
11
162.737
21
-96.1875
0
LINE
8
BLACK
6
CONTINUOUS
10
162.737
20
-96.1875
11
162.737
21
-100.938
0
LINE
8
BLACK
6
CONTINUOUS
10
162.737
20
-100.938
11
162.722
21
-101.131
0
LINE
8
BLACK
6
CONTINUOUS
10
162.722
20
-101.131
11
162.677
21
-101.32
0
LINE
8
BLACK
6
CONTINUOUS
10
162.677
20
-101.32
11
162.603
21
-101.499
0
LINE
8
BLACK
6
CONTINUOUS
10
162.603
20
-101.499
11
162.501
21
-101.665
0
LINE
8
BLACK
6
CONTINUOUS
10
162.501
20
-101.665
11
162.375
21
-101.813
0
LINE
8
BLACK
6
CONTINUOUS
10
162.375
20
-101.813
11
162.227
21
-101.939
0
LINE
8
BLACK
6
CONTINUOUS
10
162.227
20
-101.939
11
162.062
21
-102.04
0
LINE
8
BLACK
6
CONTINUOUS
10
162.062
20
-102.04
11
161.882
21
-102.114
0
LINE
8
BLACK
6
CONTINUOUS
10
161.882
20
-102.114
11
161.694
21
-102.16
0
LINE
8
BLACK
6
CONTINUOUS
10
161.694
20
-102.16
11
161.5
21
-102.175
0
LINE
8
BLACK
6
CONTINUOUS
10
161.5
20
-102.175
11
125.875
21
-102.175
0
LINE
8
BLACK
6
CONTINUOUS
10
125.875
20
-102.175
11
125.681
21
-102.16
0
LINE
8
BLACK
6
CONTINUOUS
10
125.681
20
-102.16
11
125.493
21
-102.114
0
LINE
8
BLACK
6
CONTINUOUS
10
125.493
20
-102.114
11
125.313
21
-102.04
0
LINE
8
BLACK
6
CONTINUOUS
10
125.313
20
-102.04
11
125.148
21
-101.939
0
LINE
8
BLACK
6
CONTINUOUS
10
125.148
20
-101.939
11
125
21
-101.813
0
LINE
8
BLACK
6
CONTINUOUS
10
125
20
-101.813
11
124.874
21
-101.665
0
LINE
8
BLACK
6
CONTINUOUS
10
124.874
20
-101.665
11
124.772
21
-101.499
0
LINE
8
BLACK
6
CONTINUOUS
10
124.772
20
-101.499
11
124.698
21
-101.32
0
LINE
8
BLACK
6
CONTINUOUS
10
124.698
20
-101.32
11
124.653
21
-101.131
0
LINE
8
BLACK
6
CONTINUOUS
10
124.653
20
-101.131
11
124.637
21
-100.938
0
LINE
8
BLACK
6
CONTINUOUS
10
124.637
20
-100.938
11
124.637
21
-85.5
0
LINE
8
BLACK
6
CONTINUOUS
10
124.637
20
-85.5
11
124.641
21
-85.4913
0
LINE
8
BLACK
6
CONTINUOUS
10
124.641
20
-85.4913
11
124.624
21
-85.3017
0
LINE
8
BLACK
6
CONTINUOUS
10
124.624
20
-85.3017
11
124.573
21
-85.1095
0
LINE
8
BLACK
6
CONTINUOUS
10
124.573
20
-85.1095
11
124.489
21
-84.9291
0
LINE
8
BLACK
6
CONTINUOUS
10
124.489
20
-84.9291
11
124.375
21
-84.766
0
LINE
8
BLACK
6
CONTINUOUS
10
124.375
20
-84.766
11
124.234
21
-84.6253
0
LINE
8
BLACK
6
CONTINUOUS
10
124.234
20
-84.6253
11
124.071
21
-84.5111
0
LINE
8
BLACK
6
CONTINUOUS
10
124.071
20
-84.5111
11
123.891
21
-84.427
0
LINE
8
BLACK
6
CONTINUOUS
10
123.891
20
-84.427
11
123.698
21
-84.3755
0
LINE
8
BLACK
6
CONTINUOUS
10
123.698
20
-84.3755
11
123.509
21
-84.3589
0
LINE
8
BLACK
6
CONTINUOUS
10
123.509
20
-84.3589
11
123.5
21
-84.3625
0
LINE
8
BLACK
6
CONTINUOUS
10
123.5
20
-84.3625
11
106.875
21
-84.3625
0
LINE
8
BLACK
6
CONTINUOUS
10
106.875
20
-84.3625
11
106.681
21
-84.3473
0
LINE
8
BLACK
6
CONTINUOUS
10
106.681
20
-84.3473
11
106.493
21
-84.3019
0
LINE
8
BLACK
6
CONTINUOUS
10
106.493
20
-84.3019
11
106.313
21
-84.2276
0
LINE
8
BLACK
6
CONTINUOUS
10
106.313
20
-84.2276
11
106.148
21
-84.1262
0
LINE
8
BLACK
6
CONTINUOUS
10
106.148
20
-84.1262
11
106
21
-84
0
LINE
8
BLACK
6
CONTINUOUS
10
106
20
-84
11
105.874
21
-83.8524
0
LINE
8
BLACK
6
CONTINUOUS
10
105.874
20
-83.8524
11
105.772
21
-83.6868
0
LINE
8
BLACK
6
CONTINUOUS
10
105.772
20
-83.6868
11
105.698
21
-83.5074
0
LINE
8
BLACK
6
CONTINUOUS
10
105.698
20
-83.5074
11
105.653
21
-83.3186
0
LINE
8
BLACK
6
CONTINUOUS
10
105.653
20
-83.3186
11
105.637
21
-83.125
0
LINE
8
BLACK
6
CONTINUOUS
10
105.637
20
-83.125
11
105.637
21
-66.5
0
LINE
8
BLACK
6
CONTINUOUS
10
105.637
20
-66.5
11
105.653
21
-66.3064
0
LINE
8
BLACK
6
CONTINUOUS
10
105.653
20
-66.3064
11
105.698
21
-66.1176
0
LINE
8
BLACK
6
CONTINUOUS
10
105.698
20
-66.1176
11
105.772
21
-65.9382
0
LINE
8
BLACK
6
CONTINUOUS
10
105.772
20
-65.9382
11
105.874
21
-65.7726
0
LINE
8
BLACK
6
CONTINUOUS
10
105.874
20
-65.7726
11
106
21
-65.625
0
LINE
8
BLACK
6
CONTINUOUS
10
106
20
-65.625
11
106.148
21
-65.4988
0
LINE
8
BLACK
6
CONTINUOUS
10
106.148
20
-65.4988
11
106.313
21
-65.3974
0
LINE
8
BLACK
6
CONTINUOUS
10
106.313
20
-65.3974
11
106.493
21
-65.3231
0
LINE
8
BLACK
6
CONTINUOUS
10
106.493
20
-65.3231
11
106.681
21
-65.2777
0
LINE
8
BLACK
6
CONTINUOUS
10
106.681
20
-65.2777
11
106.875
21
-65.2625
0
LINE
8
BLACK
6
CONTINUOUS
10
106.875
20
-65.2625
11
123.5
21
-65.2625
0
LINE
8
BLACK
6
CONTINUOUS
10
123.5
20
-65.2625
11
123.509
21
-65.2661
0
LINE
8
BLACK
6
CONTINUOUS
10
123.509
20
-65.2661
11
123.698
21
-65.2495
0
LINE
8
BLACK
6
CONTINUOUS
10
123.698
20
-65.2495
11
123.891
21
-65.198
0
LINE
8
BLACK
6
CONTINUOUS
10
123.891
20
-65.198
11
124.071
21
-65.1139
0
LINE
8
BLACK
6
CONTINUOUS
10
124.071
20
-65.1139
11
124.234
21
-64.9997
0
LINE
8
BLACK
6
CONTINUOUS
10
124.234
20
-64.9997
11
124.375
21
-64.859
0
LINE
8
BLACK
6
CONTINUOUS
10
124.375
20
-64.859
11
124.489
21
-64.6959
0
LINE
8
BLACK
6
CONTINUOUS
10
124.489
20
-64.6959
11
124.573
21
-64.5155
0
LINE
8
BLACK
6
CONTINUOUS
10
124.573
20
-64.5155
11
124.624
21
-64.3233
0
LINE
8
BLACK
6
CONTINUOUS
10
124.624
20
-64.3233
11
124.641
21
-64.1337
0
LINE
8
BLACK
6
CONTINUOUS
10
124.641
20
-64.1337
11
124.637
21
-64.125
0
LINE
8
BLACK
6
CONTINUOUS
10
124.637
20
-64.125
11
124.637
21
-46.3125
0
LINE
8
BLACK
6
CONTINUOUS
10
124.637
20
-46.3125
11
124.653
21
-46.1189
0
LINE
8
BLACK
6
CONTINUOUS
10
124.653
20
-46.1189
11
124.698
21
-45.9301
0
LINE
8
BLACK
6
CONTINUOUS
10
124.698
20
-45.9301
11
124.772
21
-45.7507
0
LINE
8
BLACK
6
CONTINUOUS
10
124.772
20
-45.7507
11
124.874
21
-45.5851
0
LINE
8
BLACK
6
CONTINUOUS
10
124.874
20
-45.5851
11
125
21
-45.4375
0
LINE
8
BLACK
6
CONTINUOUS
10
125
20
-45.4375
11
125.148
21
-45.3113
0
LINE
8
BLACK
6
CONTINUOUS
10
125.148
20
-45.3113
11
125.313
21
-45.2099
0
LINE
8
BLACK
6
CONTINUOUS
10
125.313
20
-45.2099
11
125.493
21
-45.1356
0
LINE
8
BLACK
6
CONTINUOUS
10
125.493
20
-45.1356
11
125.681
21
-45.0902
0
LINE
8
BLACK
6
CONTINUOUS
10
125.681
20
-45.0902
11
125.875
21
-45.075
0
LINE
8
BLACK
6
CONTINUOUS
10
125.875
20
-45.075
11
161.5
21
-45.075
0
LINE
8
BLACK
6
CONTINUOUS
10
161.5
20
-45.075
11
161.509
21
-45.0786
0
LINE
8
BLACK
6
CONTINUOUS
10
161.509
20
-45.0786
11
161.698
21
-45.062
0
LINE
8
BLACK
6
CONTINUOUS
10
161.698
20
-45.062
11
161.891
21
-45.0105
0
LINE
8
BLACK
6
CONTINUOUS
10
161.891
20
-45.0105
11
162.071
21
-44.9264
0
LINE
8
BLACK
6
CONTINUOUS
10
162.071
20
-44.9264
11
162.234
21
-44.8122
0
LINE
8
BLACK
6
CONTINUOUS
10
162.234
20
-44.8122
11
162.375
21
-44.6715
0
LINE
8
BLACK
6
CONTINUOUS
10
162.375
20
-44.6715
11
162.489
21
-44.5084
0
LINE
8
BLACK
6
CONTINUOUS
10
162.489
20
-44.5084
11
162.573
21
-44.328
0
LINE
8
BLACK
6
CONTINUOUS
10
162.573
20
-44.328
11
162.624
21
-44.1358
0
LINE
8
BLACK
6
CONTINUOUS
10
162.624
20
-44.1358
11
162.641
21
-43.9462
0
LINE
8
BLACK
6
CONTINUOUS
10
162.641
20
-43.9462
11
162.637
21
-43.9375
0
LINE
8
BLACK
6
CONTINUOUS
10
162.637
20
-43.9375
11
162.637
21
-39.1875
0
LINE
8
BLACK
6
CONTINUOUS
10
162.637
20
-39.1875
11
162.653
21
-38.9939
0
LINE
8
BLACK
6
CONTINUOUS
10
162.653
20
-38.9939
11
162.698
21
-38.8051
0
LINE
8
BLACK
6
CONTINUOUS
10
162.698
20
-38.8051
11
162.772
21
-38.6257
0
LINE
8
BLACK
6
CONTINUOUS
10
162.772
20
-38.6257
11
162.874
21
-38.4601
0
LINE
8
BLACK
6
CONTINUOUS
10
162.874
20
-38.4601
11
163
21
-38.3125
0
LINE
8
BLACK
6
CONTINUOUS
10
163
20
-38.3125
11
163.148
21
-38.1863
0
LINE
8
BLACK
6
CONTINUOUS
10
163.148
20
-38.1863
11
163.313
21
-38.0849
0
LINE
8
BLACK
6
CONTINUOUS
10
163.313
20
-38.0849
11
163.493
21
-38.0106
0
LINE
8
BLACK
6
CONTINUOUS
10
163.493
20
-38.0106
11
163.681
21
-37.9652
0
LINE
8
BLACK
6
CONTINUOUS
10
163.681
20
-37.9652
11
163.875
21
-37.95
0
LINE
8
BLACK
6
CONTINUOUS
10
163.875
20
-37.95
11
180.5
21
-37.95
0
LINE
8
BLACK
6
CONTINUOUS
10
180.5
20
-37.95
11
180.509
21
-37.9536
0
LINE
8
BLACK
6
CONTINUOUS
10
180.509
20
-37.9536
11
180.698
21
-37.937
0
LINE
8
BLACK
6
CONTINUOUS
10
180.698
20
-37.937
11
180.891
21
-37.8855
0
LINE
8
BLACK
6
CONTINUOUS
10
180.891
20
-37.8855
11
181.071
21
-37.8014
0
LINE
8
BLACK
6
CONTINUOUS
10
181.071
20
-37.8014
11
181.234
21
-37.6872
0
LINE
8
BLACK
6
CONTINUOUS
10
181.234
20
-37.6872
11
181.375
21
-37.5465
0
LINE
8
BLACK
6
CONTINUOUS
10
181.375
20
-37.5465
11
181.489
21
-37.3834
0
LINE
8
BLACK
6
CONTINUOUS
10
181.489
20
-37.3834
11
181.573
21
-37.203
0
LINE
8
BLACK
6
CONTINUOUS
10
181.573
20
-37.203
11
181.624
21
-37.0108
0
LINE
8
BLACK
6
CONTINUOUS
10
181.624
20
-37.0108
11
181.641
21
-36.8212
0
LINE
8
BLACK
6
CONTINUOUS
10
181.641
20
-36.8212
11
181.637
21
-36.8125
0
LINE
8
BLACK
6
CONTINUOUS
10
181.637
20
-36.8125
11
181.637
21
-33.25
0
LINE
8
BLACK
6
CONTINUOUS
10
181.637
20
-33.25
11
181.653
21
-33.0564
0
LINE
8
BLACK
6
CONTINUOUS
10
181.653
20
-33.0564
11
181.698
21
-32.8676
0
LINE
8
BLACK
6
CONTINUOUS
10
181.698
20
-32.8676
11
181.772
21
-32.6882
0
LINE
8
BLACK
6
CONTINUOUS
10
181.772
20
-32.6882
11
181.874
21
-32.5226
0
LINE
8
BLACK
6
CONTINUOUS
10
181.874
20
-32.5226
11
182
21
-32.375
0
LINE
8
BLACK
6
CONTINUOUS
10
182
20
-32.375
11
182.148
21
-32.2488
0
LINE
8
BLACK
6
CONTINUOUS
10
182.148
20
-32.2488
11
182.313
21
-32.1474
0
LINE
8
BLACK
6
CONTINUOUS
10
182.313
20
-32.1474
11
182.493
21
-32.0731
0
LINE
8
BLACK
6
CONTINUOUS
10
182.493
20
-32.0731
11
182.681
21
-32.0277
0
LINE
8
BLACK
6
CONTINUOUS
10
182.681
20
-32.0277
11
182.875
21
-32.0125
0
LINE
8
BLACK
6
CONTINUOUS
10
182.875
20
-32.0125
11
199.5
21
-32.0125
0
LINE
8
BLACK
6
CONTINUOUS
10
199.5
20
-32.0125
11
199.694
21
-32.0277
0
LINE
8
BLACK
6
CONTINUOUS
10
199.694
20
-32.0277
11
199.882
21
-32.0731
0
LINE
8
BLACK
6
CONTINUOUS
10
199.882
20
-32.0731
11
200.062
21
-32.1474
0
LINE
8
BLACK
6
CONTINUOUS
10
200.062
20
-32.1474
11
200.227
21
-32.2488
0
LINE
8
BLACK
6
CONTINUOUS
10
200.227
20
-32.2488
11
200.375
21
-32.375
0
LINE
8
BLACK
6
CONTINUOUS
10
200.375
20
-32.375
11
200.501
21
-32.5226
0
LINE
8
BLACK
6
CONTINUOUS
10
200.501
20
-32.5226
11
200.603
21
-32.6882
0
LINE
8
BLACK
6
CONTINUOUS
10
200.603
20
-32.6882
11
200.677
21
-32.8676
0
LINE
8
BLACK
6
CONTINUOUS
10
200.677
20
-32.8676
11
200.722
21
-33.0564
0
LINE
8
BLACK
6
CONTINUOUS
10
200.722
20
-33.0564
11
200.737
21
-33.25
0
LINE
8
BLACK
6
CONTINUOUS
10
200.737
20
-33.25
11
200.737
21
-35.625
0
LINE
8
BLACK
6
CONTINUOUS
10
200.737
20
-35.625
11
200.734
21
-35.6337
0
LINE
8
BLACK
6
CONTINUOUS
10
200.734
20
-35.6337
11
200.751
21
-35.8233
0
LINE
8
BLACK
6
CONTINUOUS
10
200.751
20
-35.8233
11
200.802
21
-36.0155
0
LINE
8
BLACK
6
CONTINUOUS
10
200.802
20
-36.0155
11
200.886
21
-36.1959
0
LINE
8
BLACK
6
CONTINUOUS
10
200.886
20
-36.1959
11
201
21
-36.359
0
LINE
8
BLACK
6
CONTINUOUS
10
201
20
-36.359
11
201.141
21
-36.4997
0
LINE
8
BLACK
6
CONTINUOUS
10
201.141
20
-36.4997
11
201.304
21
-36.6139
0
LINE
8
BLACK
6
CONTINUOUS
10
201.304
20
-36.6139
11
201.484
21
-36.698
0
LINE
8
BLACK
6
CONTINUOUS
10
201.484
20
-36.698
11
201.677
21
-36.7495
0
LINE
8
BLACK
6
CONTINUOUS
10
201.677
20
-36.7495
11
201.866
21
-36.7661
0
LINE
8
BLACK
6
CONTINUOUS
10
201.866
20
-36.7661
11
201.875
21
-36.7625
0
LINE
8
BLACK
6
CONTINUOUS
10
201.875
20
-36.7625
11
219.094
21
-36.7625
0
LINE
8
BLACK
6
CONTINUOUS
10
219.094
20
-36.7625
11
219.094
21
-36.7625
0
LINE
8
BLACK
6
CONTINUOUS
10
182.866
20
-32.1089
11
182.677
21
-32.1255
0
LINE
8
BLACK
6
CONTINUOUS
10
182.677
20
-32.1255
11
182.484
21
-32.177
0
LINE
8
BLACK
6
CONTINUOUS
10
182.484
20
-32.177
11
182.304
21
-32.2611
0
LINE
8
BLACK
6
CONTINUOUS
10
182.304
20
-32.2611
11
182.141
21
-32.3753
0
LINE
8
BLACK
6
CONTINUOUS
10
182.141
20
-32.3753
11
182
21
-32.516
0
LINE
8
BLACK
6
CONTINUOUS
10
182
20
-32.516
11
181.886
21
-32.6791
0
LINE
8
BLACK
6
CONTINUOUS
10
181.886
20
-32.6791
11
181.802
21
-32.8595
0
LINE
8
BLACK
6
CONTINUOUS
10
181.802
20
-32.8595
11
181.751
21
-33.0517
0
LINE
8
BLACK
6
CONTINUOUS
10
181.751
20
-33.0517
11
181.734
21
-33.2413
0
LINE
8
BLACK
6
CONTINUOUS
10
181.734
20
-33.2413
11
181.737
21
-33.25
0
LINE
8
BLACK
6
CONTINUOUS
10
181.737
20
-33.25
11
181.737
21
-36.8125
0
LINE
8
BLACK
6
CONTINUOUS
10
181.737
20
-36.8125
11
181.722
21
-37.0061
0
LINE
8
BLACK
6
CONTINUOUS
10
181.722
20
-37.0061
11
181.677
21
-37.1949
0
LINE
8
BLACK
6
CONTINUOUS
10
181.677
20
-37.1949
11
181.603
21
-37.3743
0
LINE
8
BLACK
6
CONTINUOUS
10
181.603
20
-37.3743
11
181.501
21
-37.5399
0
LINE
8
BLACK
6
CONTINUOUS
10
181.501
20
-37.5399
11
181.375
21
-37.6875
0
LINE
8
BLACK
6
CONTINUOUS
10
181.375
20
-37.6875
11
181.227
21
-37.8137
0
LINE
8
BLACK
6
CONTINUOUS
10
181.227
20
-37.8137
11
181.062
21
-37.9151
0
LINE
8
BLACK
6
CONTINUOUS
10
181.062
20
-37.9151
11
180.882
21
-37.9894
0
LINE
8
BLACK
6
CONTINUOUS
10
180.882
20
-37.9894
11
180.694
21
-38.0348
0
LINE
8
BLACK
6
CONTINUOUS
10
180.694
20
-38.0348
11
180.5
21
-38.05
0
LINE
8
BLACK
6
CONTINUOUS
10
180.5
20
-38.05
11
163.875
21
-38.05
0
LINE
8
BLACK
6
CONTINUOUS
10
163.875
20
-38.05
11
163.866
21
-38.0464
0
LINE
8
BLACK
6
CONTINUOUS
10
163.866
20
-38.0464
11
163.677
21
-38.063
0
LINE
8
BLACK
6
CONTINUOUS
10
163.677
20
-38.063
11
163.484
21
-38.1145
0
LINE
8
BLACK
6
CONTINUOUS
10
163.484
20
-38.1145
11
163.304
21
-38.1986
0
LINE
8
BLACK
6
CONTINUOUS
10
163.304
20
-38.1986
11
163.141
21
-38.3128
0
LINE
8
BLACK
6
CONTINUOUS
10
163.141
20
-38.3128
11
163
21
-38.4535
0
LINE
8
BLACK
6
CONTINUOUS
10
163
20
-38.4535
11
162.886
21
-38.6166
0
LINE
8
BLACK
6
CONTINUOUS
10
162.886
20
-38.6166
11
162.802
21
-38.797
0
LINE
8
BLACK
6
CONTINUOUS
10
162.802
20
-38.797
11
162.751
21
-38.9892
0
LINE
8
BLACK
6
CONTINUOUS
10
162.751
20
-38.9892
11
162.734
21
-39.1788
0
LINE
8
BLACK
6
CONTINUOUS
10
162.734
20
-39.1788
11
162.737
21
-39.1875
0
LINE
8
BLACK
6
CONTINUOUS
10
162.737
20
-39.1875
11
162.737
21
-43.9375
0
LINE
8
BLACK
6
CONTINUOUS
10
162.737
20
-43.9375
11
162.722
21
-44.1311
0
LINE
8
BLACK
6
CONTINUOUS
10
162.722
20
-44.1311
11
162.677
21
-44.3199
0
LINE
8
BLACK
6
CONTINUOUS
10
162.677
20
-44.3199
11
162.603
21
-44.4993
0
LINE
8
BLACK
6
CONTINUOUS
10
162.603
20
-44.4993
11
162.501
21
-44.6649
0
LINE
8
BLACK
6
CONTINUOUS
10
162.501
20
-44.6649
11
162.375
21
-44.8125
0
LINE
8
BLACK
6
CONTINUOUS
10
162.375
20
-44.8125
11
162.227
21
-44.9387
0
LINE
8
BLACK
6
CONTINUOUS
10
162.227
20
-44.9387
11
162.062
21
-45.0401
0
LINE
8
BLACK
6
CONTINUOUS
10
162.062
20
-45.0401
11
161.882
21
-45.1144
0
LINE
8
BLACK
6
CONTINUOUS
10
161.882
20
-45.1144
11
161.694
21
-45.1598
0
LINE
8
BLACK
6
CONTINUOUS
10
161.694
20
-45.1598
11
161.5
21
-45.175
0
LINE
8
BLACK
6
CONTINUOUS
10
161.5
20
-45.175
11
125.875
21
-45.175
0
LINE
8
BLACK
6
CONTINUOUS
10
125.875
20
-45.175
11
125.866
21
-45.1714
0
LINE
8
BLACK
6
CONTINUOUS
10
125.866
20
-45.1714
11
125.677
21
-45.188
0
LINE
8
BLACK
6
CONTINUOUS
10
125.677
20
-45.188
11
125.484
21
-45.2395
0
LINE
8
BLACK
6
CONTINUOUS
10
125.484
20
-45.2395
11
125.304
21
-45.3236
0
LINE
8
BLACK
6
CONTINUOUS
10
125.304
20
-45.3236
11
125.141
21
-45.4378
0
LINE
8
BLACK
6
CONTINUOUS
10
125.141
20
-45.4378
11
125
21
-45.5785
0
LINE
8
BLACK
6
CONTINUOUS
10
125
20
-45.5785
11
124.886
21
-45.7416
0
LINE
8
BLACK
6
CONTINUOUS
10
124.886
20
-45.7416
11
124.802
21
-45.922
0
LINE
8
BLACK
6
CONTINUOUS
10
124.802
20
-45.922
11
124.751
21
-46.1142
0
LINE
8
BLACK
6
CONTINUOUS
10
124.751
20
-46.1142
11
124.734
21
-46.3038
0
LINE
8
BLACK
6
CONTINUOUS
10
124.734
20
-46.3038
11
124.737
21
-46.3125
0
LINE
8
BLACK
6
CONTINUOUS
10
124.737
20
-46.3125
11
124.737
21
-64.125
0
LINE
8
BLACK
6
CONTINUOUS
10
124.737
20
-64.125
11
124.722
21
-64.3186
0
LINE
8
BLACK
6
CONTINUOUS
10
124.722
20
-64.3186
11
124.677
21
-64.5074
0
LINE
8
BLACK
6
CONTINUOUS
10
124.677
20
-64.5074
11
124.603
21
-64.6868
0
LINE
8
BLACK
6
CONTINUOUS
10
124.603
20
-64.6868
11
124.501
21
-64.8524
0
LINE
8
BLACK
6
CONTINUOUS
10
124.501
20
-64.8524
11
124.375
21
-65
0
LINE
8
BLACK
6
CONTINUOUS
10
124.375
20
-65
11
124.227
21
-65.1262
0
LINE
8
BLACK
6
CONTINUOUS
10
124.227
20
-65.1262
11
124.062
21
-65.2276
0
LINE
8
BLACK
6
CONTINUOUS
10
124.062
20
-65.2276
11
123.882
21
-65.3019
0
LINE
8
BLACK
6
CONTINUOUS
10
123.882
20
-65.3019
11
123.694
21
-65.3473
0
LINE
8
BLACK
6
CONTINUOUS
10
123.694
20
-65.3473
11
123.5
21
-65.3625
0
LINE
8
BLACK
6
CONTINUOUS
10
123.5
20
-65.3625
11
106.875
21
-65.3625
0
LINE
8
BLACK
6
CONTINUOUS
10
106.875
20
-65.3625
11
106.866
21
-65.3589
0
LINE
8
BLACK
6
CONTINUOUS
10
106.866
20
-65.3589
11
106.677
21
-65.3755
0
LINE
8
BLACK
6
CONTINUOUS
10
106.677
20
-65.3755
11
106.484
21
-65.427
0
LINE
8
BLACK
6
CONTINUOUS
10
106.484
20
-65.427
11
106.304
21
-65.5111
0
LINE
8
BLACK
6
CONTINUOUS
10
106.304
20
-65.5111
11
106.141
21
-65.6253
0
LINE
8
BLACK
6
CONTINUOUS
10
106.141
20
-65.6253
11
106
21
-65.766
0
LINE
8
BLACK
6
CONTINUOUS
10
106
20
-65.766
11
105.886
21
-65.9291
0
LINE
8
BLACK
6
CONTINUOUS
10
105.886
20
-65.9291
11
105.802
21
-66.1095
0
LINE
8
BLACK
6
CONTINUOUS
10
105.802
20
-66.1095
11
105.751
21
-66.3017
0
LINE
8
BLACK
6
CONTINUOUS
10
105.751
20
-66.3017
11
105.734
21
-66.4913
0
LINE
8
BLACK
6
CONTINUOUS
10
105.734
20
-66.4913
11
105.737
21
-66.5
0
LINE
8
BLACK
6
CONTINUOUS
10
105.737
20
-66.5
11
105.737
21
-83.125
0
LINE
8
BLACK
6
CONTINUOUS
10
105.737
20
-83.125
11
105.734
21
-83.1337
0
LINE
8
BLACK
6
CONTINUOUS
10
105.734
20
-83.1337
11
105.751
21
-83.3233
0
LINE
8
BLACK
6
CONTINUOUS
10
105.751
20
-83.3233
11
105.802
21
-83.5155
0
LINE
8
BLACK
6
CONTINUOUS
10
105.802
20
-83.5155
11
105.886
21
-83.6959
0
LINE
8
BLACK
6
CONTINUOUS
10
105.886
20
-83.6959
11
106
21
-83.859
0
LINE
8
BLACK
6
CONTINUOUS
10
106
20
-83.859
11
106.141
21
-83.9997
0
LINE
8
BLACK
6
CONTINUOUS
10
106.141
20
-83.9997
11
106.304
21
-84.1139
0
LINE
8
BLACK
6
CONTINUOUS
10
106.304
20
-84.1139
11
106.484
21
-84.198
0
LINE
8
BLACK
6
CONTINUOUS
10
106.484
20
-84.198
11
106.677
21
-84.2495
0
LINE
8
BLACK
6
CONTINUOUS
10
106.677
20
-84.2495
11
106.866
21
-84.2661
0
LINE
8
BLACK
6
CONTINUOUS
10
106.866
20
-84.2661
11
106.875
21
-84.2625
0
LINE
8
BLACK
6
CONTINUOUS
10
106.875
20
-84.2625
11
123.5
21
-84.2625
0
LINE
8
BLACK
6
CONTINUOUS
10
123.5
20
-84.2625
11
123.694
21
-84.2777
0
LINE
8
BLACK
6
CONTINUOUS
10
123.694
20
-84.2777
11
123.882
21
-84.3231
0
LINE
8
BLACK
6
CONTINUOUS
10
123.882
20
-84.3231
11
124.062
21
-84.3974
0
LINE
8
BLACK
6
CONTINUOUS
10
124.062
20
-84.3974
11
124.227
21
-84.4988
0
LINE
8
BLACK
6
CONTINUOUS
10
124.227
20
-84.4988
11
124.375
21
-84.625
0
LINE
8
BLACK
6
CONTINUOUS
10
124.375
20
-84.625
11
124.501
21
-84.7726
0
LINE
8
BLACK
6
CONTINUOUS
10
124.501
20
-84.7726
11
124.603
21
-84.9382
0
LINE
8
BLACK
6
CONTINUOUS
10
124.603
20
-84.9382
11
124.677
21
-85.1176
0
LINE
8
BLACK
6
CONTINUOUS
10
124.677
20
-85.1176
11
124.722
21
-85.3064
0
LINE
8
BLACK
6
CONTINUOUS
10
124.722
20
-85.3064
11
124.737
21
-85.5
0
LINE
8
BLACK
6
CONTINUOUS
10
124.737
20
-85.5
11
124.737
21
-100.938
0
LINE
8
BLACK
6
CONTINUOUS
10
124.737
20
-100.938
11
124.734
21
-100.946
0
LINE
8
BLACK
6
CONTINUOUS
10
124.734
20
-100.946
11
124.751
21
-101.136
0
LINE
8
BLACK
6
CONTINUOUS
10
124.751
20
-101.136
11
124.802
21
-101.328
0
LINE
8
BLACK
6
CONTINUOUS
10
124.802
20
-101.328
11
124.886
21
-101.508
0
LINE
8
BLACK
6
CONTINUOUS
10
124.886
20
-101.508
11
125
21
-101.671
0
LINE
8
BLACK
6
CONTINUOUS
10
125
20
-101.671
11
125.141
21
-101.812
0
LINE
8
BLACK
6
CONTINUOUS
10
125.141
20
-101.812
11
125.304
21
-101.926
0
LINE
8
BLACK
6
CONTINUOUS
10
125.304
20
-101.926
11
125.484
21
-102.01
0
LINE
8
BLACK
6
CONTINUOUS
10
125.484
20
-102.01
11
125.677
21
-102.062
0
LINE
8
BLACK
6
CONTINUOUS
10
125.677
20
-102.062
11
125.866
21
-102.079
0
LINE
8
BLACK
6
CONTINUOUS
10
125.866
20
-102.079
11
125.875
21
-102.075
0
LINE
8
BLACK
6
CONTINUOUS
10
125.875
20
-102.075
11
161.5
21
-102.075
0
LINE
8
BLACK
6
CONTINUOUS
10
161.5
20
-102.075
11
161.509
21
-102.079
0
LINE
8
BLACK
6
CONTINUOUS
10
161.509
20
-102.079
11
161.698
21
-102.062
0
LINE
8
BLACK
6
CONTINUOUS
10
161.698
20
-102.062
11
161.891
21
-102.01
0
LINE
8
BLACK
6
CONTINUOUS
10
161.891
20
-102.01
11
162.071
21
-101.926
0
LINE
8
BLACK
6
CONTINUOUS
10
162.071
20
-101.926
11
162.234
21
-101.812
0
LINE
8
BLACK
6
CONTINUOUS
10
162.234
20
-101.812
11
162.375
21
-101.671
0
LINE
8
BLACK
6
CONTINUOUS
10
162.375
20
-101.671
11
162.489
21
-101.508
0
LINE
8
BLACK
6
CONTINUOUS
10
162.489
20
-101.508
11
162.573
21
-101.328
0
LINE
8
BLACK
6
CONTINUOUS
10
162.573
20
-101.328
11
162.624
21
-101.136
0
LINE
8
BLACK
6
CONTINUOUS
10
162.624
20
-101.136
11
162.641
21
-100.946
0
LINE
8
BLACK
6
CONTINUOUS
10
162.641
20
-100.946
11
162.637
21
-100.938
0
LINE
8
BLACK
6
CONTINUOUS
10
162.637
20
-100.938
11
162.637
21
-96.1875
0
LINE
8
BLACK
6
CONTINUOUS
10
162.637
20
-96.1875
11
162.653
21
-95.9939
0
LINE
8
BLACK
6
CONTINUOUS
10
162.653
20
-95.9939
11
162.698
21
-95.8051
0
LINE
8
BLACK
6
CONTINUOUS
10
162.698
20
-95.8051
11
162.772
21
-95.6257
0
LINE
8
BLACK
6
CONTINUOUS
10
162.772
20
-95.6257
11
162.874
21
-95.4601
0
LINE
8
BLACK
6
CONTINUOUS
10
162.874
20
-95.4601
11
163
21
-95.3125
0
LINE
8
BLACK
6
CONTINUOUS
10
163
20
-95.3125
11
163.148
21
-95.1863
0
LINE
8
BLACK
6
CONTINUOUS
10
163.148
20
-95.1863
11
163.313
21
-95.0849
0
LINE
8
BLACK
6
CONTINUOUS
10
163.313
20
-95.0849
11
163.493
21
-95.0106
0
LINE
8
BLACK
6
CONTINUOUS
10
163.493
20
-95.0106
11
163.681
21
-94.9652
0
LINE
8
BLACK
6
CONTINUOUS
10
163.681
20
-94.9652
11
163.875
21
-94.95
0
LINE
8
BLACK
6
CONTINUOUS
10
163.875
20
-94.95
11
181.094
21
-94.95
0
LINE
8
BLACK
6
CONTINUOUS
10
181.094
20
-94.95
11
181.347
21
-94.9676
0
LINE
8
BLACK
6
CONTINUOUS
10
181.347
20
-94.9676
11
181.596
21
-95.0201
0
LINE
8
BLACK
6
CONTINUOUS
10
181.596
20
-95.0201
11
181.834
21
-95.1065
0
LINE
8
BLACK
6
CONTINUOUS
10
181.834
20
-95.1065
11
182.059
21
-95.225
0
LINE
8
BLACK
6
CONTINUOUS
10
182.059
20
-95.225
11
182.265
21
-95.3735
0
LINE
8
BLACK
6
CONTINUOUS
10
182.265
20
-95.3735
11
182.448
21
-95.549
0
LINE
8
BLACK
6
CONTINUOUS
10
182.448
20
-95.549
11
182.606
21
-95.7483
0
LINE
8
BLACK
6
CONTINUOUS
10
182.606
20
-95.7483
11
182.734
21
-95.9674
0
LINE
8
BLACK
6
CONTINUOUS
10
182.734
20
-95.9674
11
182.831
21
-96.2021
0
LINE
8
BLACK
6
CONTINUOUS
10
182.831
20
-96.2021
11
182.831
21
-96.2022
0
LINE
8
BLACK
6
CONTINUOUS
10
182.831
20
-96.2022
11
182.831
21
-96.2036
0
LINE
8
BLACK
6
CONTINUOUS
10
182.831
20
-96.2036
11
182.832
21
-96.2047
0
LINE
8
BLACK
6
CONTINUOUS
10
182.832
20
-96.2047
11
187.205
21
-112.143
0
LINE
8
BLACK
6
CONTINUOUS
10
187.205
20
-112.143
11
187.204
21
-112.152
0
LINE
8
BLACK
6
CONTINUOUS
10
187.204
20
-112.152
11
187.308
21
-112.439
0
LINE
8
BLACK
6
CONTINUOUS
10
187.308
20
-112.439
11
187.447
21
-112.721
0
LINE
8
BLACK
6
CONTINUOUS
10
187.447
20
-112.721
11
187.616
21
-112.987
0
LINE
8
BLACK
6
CONTINUOUS
10
187.616
20
-112.987
11
187.813
21
-113.232
0
LINE
8
BLACK
6
CONTINUOUS
10
187.813
20
-113.232
11
188.036
21
-113.454
0
LINE
8
BLACK
6
CONTINUOUS
10
188.036
20
-113.454
11
188.282
21
-113.651
0
LINE
8
BLACK
6
CONTINUOUS
10
188.282
20
-113.651
11
188.548
21
-113.82
0
LINE
8
BLACK
6
CONTINUOUS
10
188.548
20
-113.82
11
188.819
21
-113.953
0
LINE
8
BLACK
6
CONTINUOUS
10
188.819
20
-113.953
11
188.826
21
-113.952
0
LINE
8
BLACK
6
CONTINUOUS
10
188.826
20
-113.952
11
239.613
21
-128.069
0
LINE
8
BLACK
6
CONTINUOUS
10
239.613
20
-128.069
11
239.621
21
-128.076
0
LINE
8
BLACK
6
CONTINUOUS
10
239.621
20
-128.076
11
240.076
21
-128.179
0
LINE
8
BLACK
6
CONTINUOUS
10
240.076
20
-128.179
11
240.548
21
-128.249
0
LINE
8
BLACK
6
CONTINUOUS
10
240.548
20
-128.249
11
241.023
21
-128.284
0
LINE
8
BLACK
6
CONTINUOUS
10
241.023
20
-128.284
11
241.5
21
-128.284
0
LINE
8
BLACK
6
CONTINUOUS
10
241.5
20
-128.284
11
241.976
21
-128.248
0
LINE
8
BLACK
6
CONTINUOUS
10
241.976
20
-128.248
11
242.448
21
-128.178
0
LINE
8
BLACK
6
CONTINUOUS
10
242.448
20
-128.178
11
242.913
21
-128.073
0
LINE
8
BLACK
6
CONTINUOUS
10
242.913
20
-128.073
11
243.369
21
-127.934
0
LINE
8
BLACK
6
CONTINUOUS
10
243.369
20
-127.934
11
243.813
21
-127.761
0
LINE
8
BLACK
6
CONTINUOUS
10
243.813
20
-127.761
11
244.244
21
-127.556
0
LINE
8
BLACK
6
CONTINUOUS
10
244.244
20
-127.556
11
244.658
21
-127.319
0
LINE
8
BLACK
6
CONTINUOUS
10
244.658
20
-127.319
11
245.054
21
-127.053
0
LINE
8
BLACK
6
CONTINUOUS
10
245.054
20
-127.053
11
245.429
21
-126.758
0
LINE
8
BLACK
6
CONTINUOUS
10
245.429
20
-126.758
11
245.772
21
-126.444
0
LINE
8
BLACK
6
CONTINUOUS
10
245.772
20
-126.444
11
245.774
21
-126.436
0
LINE
8
BLACK
6
CONTINUOUS
10
245.774
20
-126.436
11
265.44
21
-103.28
0
LINE
8
BLACK
6
CONTINUOUS
10
265.44
20
-103.28
11
265.445
21
-103.278
0
LINE
8
BLACK
6
CONTINUOUS
10
265.445
20
-103.278
11
265.507
21
-103.148
0
LINE
8
BLACK
6
CONTINUOUS
10
265.507
20
-103.148
11
265.544
21
-102.996
0
LINE
8
BLACK
6
CONTINUOUS
10
265.544
20
-102.996
11
265.548
21
-102.841
0
LINE
8
BLACK
6
CONTINUOUS
10
265.548
20
-102.841
11
265.518
21
-102.687
0
LINE
8
BLACK
6
CONTINUOUS
10
265.518
20
-102.687
11
265.457
21
-102.544
0
LINE
8
BLACK
6
CONTINUOUS
10
265.457
20
-102.544
11
265.367
21
-102.417
0
LINE
8
BLACK
6
CONTINUOUS
10
265.367
20
-102.417
11
265.251
21
-102.312
0
LINE
8
BLACK
6
CONTINUOUS
10
265.251
20
-102.312
11
265.117
21
-102.234
0
LINE
8
BLACK
6
CONTINUOUS
10
265.117
20
-102.234
11
264.968
21
-102.186
0
LINE
8
BLACK
6
CONTINUOUS
10
264.968
20
-102.186
11
264.821
21
-102.172
0
LINE
8
BLACK
6
CONTINUOUS
10
264.821
20
-102.172
11
264.813
21
-102.175
0
LINE
8
BLACK
6
CONTINUOUS
10
264.813
20
-102.175
11
264.813
21
-102.175
0
LINE
8
BLACK
6
CONTINUOUS
10
264.813
20
-102.175
11
264.812
21
-102.175
0
LINE
8
BLACK
6
CONTINUOUS
10
264.812
20
-102.175
11
254.719
21
-102.175
0
LINE
8
BLACK
6
CONTINUOUS
10
254.719
20
-102.175
11
254.525
21
-102.16
0
LINE
8
BLACK
6
CONTINUOUS
10
254.525
20
-102.16
11
254.336
21
-102.114
0
LINE
8
BLACK
6
CONTINUOUS
10
254.336
20
-102.114
11
254.157
21
-102.04
0
LINE
8
BLACK
6
CONTINUOUS
10
254.157
20
-102.04
11
253.991
21
-101.939
0
LINE
8
BLACK
6
CONTINUOUS
10
253.991
20
-101.939
11
253.844
21
-101.813
0
LINE
8
BLACK
6
CONTINUOUS
10
253.844
20
-101.813
11
253.718
21
-101.665
0
LINE
8
BLACK
6
CONTINUOUS
10
253.718
20
-101.665
11
253.616
21
-101.499
0
LINE
8
BLACK
6
CONTINUOUS
10
253.616
20
-101.499
11
253.542
21
-101.32
0
LINE
8
BLACK
6
CONTINUOUS
10
253.542
20
-101.32
11
253.497
21
-101.131
0
LINE
8
BLACK
6
CONTINUOUS
10
253.497
20
-101.131
11
253.481
21
-100.938
0
LINE
8
BLACK
6
CONTINUOUS
10
253.481
20
-100.938
11
253.481
21
-100.938
0
LINE
8
BLACK
6
CONTINUOUS
10
253.481
20
-100.938
11
253.481
21
-93.8125
0
LINE
8
BLACK
6
CONTINUOUS
10
253.481
20
-93.8125
11
253.485
21
-93.8039
0
LINE
8
BLACK
6
CONTINUOUS
10
253.485
20
-93.8039
11
253.468
21
-93.6142
0
LINE
8
BLACK
6
CONTINUOUS
10
253.468
20
-93.6142
11
253.417
21
-93.422
0
LINE
8
BLACK
6
CONTINUOUS
10
253.417
20
-93.422
11
253.333
21
-93.2416
0
LINE
8
BLACK
6
CONTINUOUS
10
253.333
20
-93.2416
11
253.218
21
-93.0786
0
LINE
8
BLACK
6
CONTINUOUS
10
253.218
20
-93.0786
11
253.078
21
-92.9378
0
LINE
8
BLACK
6
CONTINUOUS
10
253.078
20
-92.9378
11
252.915
21
-92.8236
0
LINE
8
BLACK
6
CONTINUOUS
10
252.915
20
-92.8236
11
252.734
21
-92.7395
0
LINE
8
BLACK
6
CONTINUOUS
10
252.734
20
-92.7395
11
252.542
21
-92.688
0
LINE
8
BLACK
6
CONTINUOUS
10
252.542
20
-92.688
11
252.352
21
-92.6714
0
LINE
8
BLACK
6
CONTINUOUS
10
252.352
20
-92.6714
11
252.344
21
-92.675
0
LINE
8
BLACK
6
CONTINUOUS
10
252.344
20
-92.675
11
239.875
21
-92.675
0
LINE
8
BLACK
6
CONTINUOUS
10
239.875
20
-92.675
11
239.681
21
-92.6598
0
LINE
8
BLACK
6
CONTINUOUS
10
239.681
20
-92.6598
11
239.493
21
-92.6144
0
LINE
8
BLACK
6
CONTINUOUS
10
239.493
20
-92.6144
11
239.313
21
-92.5401
0
LINE
8
BLACK
6
CONTINUOUS
10
239.313
20
-92.5401
11
239.148
21
-92.4387
0
LINE
8
BLACK
6
CONTINUOUS
10
239.148
20
-92.4387
11
239
21
-92.3125
0
LINE
8
BLACK
6
CONTINUOUS
10
239
20
-92.3125
11
238.874
21
-92.1649
0
LINE
8
BLACK
6
CONTINUOUS
10
238.874
20
-92.1649
11
238.772
21
-91.9993
0
LINE
8
BLACK
6
CONTINUOUS
10
238.772
20
-91.9993
11
238.698
21
-91.8199
0
LINE
8
BLACK
6
CONTINUOUS
10
238.698
20
-91.8199
11
238.653
21
-91.6311
0
LINE
8
BLACK
6
CONTINUOUS
10
238.653
20
-91.6311
11
238.637
21
-91.4375
0
LINE
8
BLACK
6
CONTINUOUS
10
238.637
20
-91.4375
11
238.637
21
-39.1875
0
LINE
8
BLACK
6
CONTINUOUS
10
238.637
20
-39.1875
11
238.641
21
-39.1788
0
LINE
8
BLACK
6
CONTINUOUS
10
238.641
20
-39.1788
11
238.624
21
-38.9892
0
LINE
8
BLACK
6
CONTINUOUS
10
238.624
20
-38.9892
11
238.573
21
-38.797
0
LINE
8
BLACK
6
CONTINUOUS
10
238.573
20
-38.797
11
238.489
21
-38.6166
0
LINE
8
BLACK
6
CONTINUOUS
10
238.489
20
-38.6166
11
238.375
21
-38.4535
0
LINE
8
BLACK
6
CONTINUOUS
10
238.375
20
-38.4535
11
238.234
21
-38.3128
0
LINE
8
BLACK
6
CONTINUOUS
10
238.234
20
-38.3128
11
238.071
21
-38.1986
0
LINE
8
BLACK
6
CONTINUOUS
10
238.071
20
-38.1986
11
237.891
21
-38.1145
0
LINE
8
BLACK
6
CONTINUOUS
10
237.891
20
-38.1145
11
237.698
21
-38.063
0
LINE
8
BLACK
6
CONTINUOUS
10
237.698
20
-38.063
11
237.509
21
-38.0464
0
LINE
8
BLACK
6
CONTINUOUS
10
237.509
20
-38.0464
11
237.5
21
-38.05
0
LINE
8
BLACK
6
CONTINUOUS
10
237.5
20
-38.05
11
220.281
21
-38.05
0
LINE
8
BLACK
6
CONTINUOUS
10
220.281
20
-38.05
11
220.281
21
-38.05
0
LINE
8
BLACK
6
CONTINUOUS
10
220.281
20
-38.05
11
220.138
21
-38.0339
0
LINE
8
BLACK
6
CONTINUOUS
10
220.138
20
-38.0339
11
220.002
21
-37.9863
0
LINE
8
BLACK
6
CONTINUOUS
10
220.002
20
-37.9863
11
219.88
21
-37.9096
0
LINE
8
BLACK
6
CONTINUOUS
10
219.88
20
-37.9096
11
219.778
21
-37.8076
0
LINE
8
BLACK
6
CONTINUOUS
10
219.778
20
-37.8076
11
219.701
21
-37.6856
0
LINE
8
BLACK
6
CONTINUOUS
10
219.701
20
-37.6856
11
219.654
21
-37.5495
0
LINE
8
BLACK
6
CONTINUOUS
10
219.654
20
-37.5495
11
219.637
21
-37.4062
0
LINE
8
BLACK
6
CONTINUOUS
10
219.637
20
-37.4062
11
219.64
21
-37.3997
0
LINE
8
BLACK
6
CONTINUOUS
10
219.64
20
-37.3997
11
219.627
21
-37.2845
0
LINE
8
BLACK
6
CONTINUOUS
10
219.627
20
-37.2845
11
219.587
21
-37.1688
0
LINE
8
BLACK
6
CONTINUOUS
10
219.587
20
-37.1688
11
219.522
21
-37.0651
0
LINE
8
BLACK
6
CONTINUOUS
10
219.522
20
-37.0651
11
219.435
21
-36.9784
0
LINE
8
BLACK
6
CONTINUOUS
10
219.435
20
-36.9784
11
219.331
21
-36.9132
0
LINE
8
BLACK
6
CONTINUOUS
10
219.331
20
-36.9132
11
219.216
21
-36.8728
0
LINE
8
BLACK
6
CONTINUOUS
10
219.216
20
-36.8728
11
219.1
21
-36.8598
0
LINE
8
BLACK
6
CONTINUOUS
10
219.1
20
-36.8598
11
219.094
21
-36.8625
0
LINE
8
BLACK
6
CONTINUOUS
10
219.094
20
-36.8625
11
219.094
21
-36.8625
0
LINE
8
BLACK
6
CONTINUOUS
10
219.094
20
-36.8625
11
219.094
21
-36.8625
0
LINE
8
BLACK
6
CONTINUOUS
10
219.094
20
-36.8625
11
201.875
21
-36.8625
0
LINE
8
BLACK
6
CONTINUOUS
10
201.875
20
-36.8625
11
201.681
21
-36.8473
0
LINE
8
BLACK
6
CONTINUOUS
10
201.681
20
-36.8473
11
201.493
21
-36.8019
0
LINE
8
BLACK
6
CONTINUOUS
10
201.493
20
-36.8019
11
201.313
21
-36.7276
0
LINE
8
BLACK
6
CONTINUOUS
10
201.313
20
-36.7276
11
201.148
21
-36.6262
0
LINE
8
BLACK
6
CONTINUOUS
10
201.148
20
-36.6262
11
201
21
-36.5
0
LINE
8
BLACK
6
CONTINUOUS
10
201
20
-36.5
11
200.874
21
-36.3524
0
LINE
8
BLACK
6
CONTINUOUS
10
200.874
20
-36.3524
11
200.772
21
-36.1868
0
LINE
8
BLACK
6
CONTINUOUS
10
200.772
20
-36.1868
11
200.698
21
-36.0074
0
LINE
8
BLACK
6
CONTINUOUS
10
200.698
20
-36.0074
11
200.653
21
-35.8186
0
LINE
8
BLACK
6
CONTINUOUS
10
200.653
20
-35.8186
11
200.637
21
-35.625
0
LINE
8
BLACK
6
CONTINUOUS
10
200.637
20
-35.625
11
200.637
21
-33.25
0
LINE
8
BLACK
6
CONTINUOUS
10
200.637
20
-33.25
11
200.641
21
-33.2413
0
LINE
8
BLACK
6
CONTINUOUS
10
200.641
20
-33.2413
11
200.624
21
-33.0517
0
LINE
8
BLACK
6
CONTINUOUS
10
200.624
20
-33.0517
11
200.573
21
-32.8595
0
LINE
8
BLACK
6
CONTINUOUS
10
200.573
20
-32.8595
11
200.489
21
-32.6791
0
LINE
8
BLACK
6
CONTINUOUS
10
200.489
20
-32.6791
11
200.375
21
-32.516
0
LINE
8
BLACK
6
CONTINUOUS
10
200.375
20
-32.516
11
200.234
21
-32.3753
0
LINE
8
BLACK
6
CONTINUOUS
10
200.234
20
-32.3753
11
200.071
21
-32.2611
0
LINE
8
BLACK
6
CONTINUOUS
10
200.071
20
-32.2611
11
199.891
21
-32.177
0
LINE
8
BLACK
6
CONTINUOUS
10
199.891
20
-32.177
11
199.698
21
-32.1255
0
LINE
8
BLACK
6
CONTINUOUS
10
199.698
20
-32.1255
11
199.509
21
-32.1089
0
LINE
8
BLACK
6
CONTINUOUS
10
199.509
20
-32.1089
11
199.5
21
-32.1125
0
LINE
8
BLACK
6
CONTINUOUS
10
199.5
20
-32.1125
11
182.875
21
-32.1125
0
LINE
8
BLACK
6
CONTINUOUS
10
182.875
20
-32.1125
11
182.866
21
-32.1089
0
LINE
8
BLACK
6
CONTINUOUS
10
238.53
20
-101.417
11
250.655
21
-108.417
0
LINE
8
BLACK
6
CONTINUOUS
10
250.655
20
-108.417
11
250.672
21
-108.439
0
LINE
8
BLACK
6
CONTINUOUS
10
250.672
20
-108.439
11
250.683
21
-108.454
0
LINE
8
BLACK
6
CONTINUOUS
10
250.683
20
-108.454
11
250.677
21
-108.499
0
LINE
8
BLACK
6
CONTINUOUS
10
250.677
20
-108.499
11
243.677
21
-120.623
0
LINE
8
BLACK
6
CONTINUOUS
10
243.677
20
-120.623
11
243.64
21
-120.651
0
LINE
8
BLACK
6
CONTINUOUS
10
243.64
20
-120.651
11
243.595
21
-120.645
0
LINE
8
BLACK
6
CONTINUOUS
10
243.595
20
-120.645
11
243.595
21
-120.645
0
LINE
8
BLACK
6
CONTINUOUS
10
243.595
20
-120.645
11
231.47
21
-113.645
0
LINE
8
BLACK
6
CONTINUOUS
10
231.47
20
-113.645
11
231.442
21
-113.609
0
LINE
8
BLACK
6
CONTINUOUS
10
231.442
20
-113.609
11
231.448
21
-113.563
0
LINE
8
BLACK
6
CONTINUOUS
10
231.448
20
-113.563
11
238.448
21
-101.439
0
LINE
8
BLACK
6
CONTINUOUS
10
238.448
20
-101.439
11
238.485
21
-101.411
0
LINE
8
BLACK
6
CONTINUOUS
10
238.485
20
-101.411
11
238.53
21
-101.417
0
LINE
8
BLACK
6
CONTINUOUS
10
231.582
20
-113.571
11
243.603
21
-120.511
0
LINE
8
BLACK
6
CONTINUOUS
10
243.603
20
-120.511
11
250.543
21
-108.491
0
LINE
8
BLACK
6
CONTINUOUS
10
250.543
20
-108.491
11
238.522
21
-101.551
0
LINE
8
BLACK
6
CONTINUOUS
10
238.522
20
-101.551
11
231.582
21
-113.571
0
LINE
8
BLACK
6
CONTINUOUS
10
209.875
20
-110.667
11
209.869
21
-110.622
0
LINE
8
BLACK
6
CONTINUOUS
10
209.869
20
-110.622
11
213.492
21
-97.0988
0
LINE
8
BLACK
6
CONTINUOUS
10
213.492
20
-97.0988
11
213.492
21
-97.0988
0
LINE
8
BLACK
6
CONTINUOUS
10
213.492
20
-97.0988
11
213.52
21
-97.0623
0
LINE
8
BLACK
6
CONTINUOUS
10
213.52
20
-97.0623
11
213.566
21
-97.0563
0
LINE
8
BLACK
6
CONTINUOUS
10
213.566
20
-97.0563
11
227.089
21
-100.68
0
LINE
8
BLACK
6
CONTINUOUS
10
227.089
20
-100.68
11
227.089
21
-100.68
0
LINE
8
BLACK
6
CONTINUOUS
10
227.089
20
-100.68
11
227.125
21
-100.708
0
LINE
8
BLACK
6
CONTINUOUS
10
227.125
20
-100.708
11
227.131
21
-100.753
0
LINE
8
BLACK
6
CONTINUOUS
10
227.131
20
-100.753
11
223.508
21
-114.276
0
LINE
8
BLACK
6
CONTINUOUS
10
223.508
20
-114.276
11
223.48
21
-114.313
0
LINE
8
BLACK
6
CONTINUOUS
10
223.48
20
-114.313
11
223.434
21
-114.319
0
LINE
8
BLACK
6
CONTINUOUS
10
223.434
20
-114.319
11
209.911
21
-110.695
0
LINE
8
BLACK
6
CONTINUOUS
10
209.911
20
-110.695
11
209.875
21
-110.667
0
LINE
8
BLACK
6
CONTINUOUS
10
210
20
-110.595
11
223.407
21
-114.187
0
LINE
8
BLACK
6
CONTINUOUS
10
223.407
20
-114.187
11
227
21
-100.78
0
LINE
8
BLACK
6
CONTINUOUS
10
227
20
-100.78
11
213.593
21
-97.1878
0
LINE
8
BLACK
6
CONTINUOUS
10
213.593
20
-97.1878
11
210
21
-110.595
0
LINE
8
BLACK
6
CONTINUOUS
10
190.083
20
-110.355
11
190.065
21
-110.312
0
LINE
8
BLACK
6
CONTINUOUS
10
190.065
20
-110.312
11
190.065
21
-96.3125
0
LINE
8
BLACK
6
CONTINUOUS
10
190.065
20
-96.3125
11
190.083
21
-96.2701
0
LINE
8
BLACK
6
CONTINUOUS
10
190.083
20
-96.2701
11
190.125
21
-96.2525
0
LINE
8
BLACK
6
CONTINUOUS
10
190.125
20
-96.2525
11
204.125
21
-96.2525
0
LINE
8
BLACK
6
CONTINUOUS
10
204.125
20
-96.2525
11
204.167
21
-96.2701
0
LINE
8
BLACK
6
CONTINUOUS
10
204.167
20
-96.2701
11
204.185
21
-96.3125
0
LINE
8
BLACK
6
CONTINUOUS
10
204.185
20
-96.3125
11
204.185
21
-110.312
0
LINE
8
BLACK
6
CONTINUOUS
10
204.185
20
-110.312
11
204.167
21
-110.355
0
LINE
8
BLACK
6
CONTINUOUS
10
204.167
20
-110.355
11
204.125
21
-110.372
0
LINE
8
BLACK
6
CONTINUOUS
10
204.125
20
-110.372
11
190.125
21
-110.372
0
LINE
8
BLACK
6
CONTINUOUS
10
190.125
20
-110.372
11
190.083
21
-110.355
0
LINE
8
BLACK
6
CONTINUOUS
10
190.185
20
-96.3725
11
190.185
21
-110.252
0
LINE
8
BLACK
6
CONTINUOUS
10
190.185
20
-110.252
11
204.065
21
-110.252
0
LINE
8
BLACK
6
CONTINUOUS
10
204.065
20
-110.252
11
204.065
21
-96.3725
0
LINE
8
BLACK
6
CONTINUOUS
10
204.065
20
-96.3725
11
190.185
21
-96.3725
0
LINE
8
BLACK
6
CONTINUOUS
10
146.145
20
-99.6674
11
146.127
21
-99.625
0
LINE
8
BLACK
6
CONTINUOUS
10
146.127
20
-99.625
11
146.127
21
-85.625
0
LINE
8
BLACK
6
CONTINUOUS
10
146.127
20
-85.625
11
146.145
21
-85.5826
0
LINE
8
BLACK
6
CONTINUOUS
10
146.145
20
-85.5826
11
146.188
21
-85.565
0
LINE
8
BLACK
6
CONTINUOUS
10
146.188
20
-85.565
11
160.188
21
-85.565
0
LINE
8
BLACK
6
CONTINUOUS
10
160.188
20
-85.565
11
160.23
21
-85.5826
0
LINE
8
BLACK
6
CONTINUOUS
10
160.23
20
-85.5826
11
160.248
21
-85.625
0
LINE
8
BLACK
6
CONTINUOUS
10
160.248
20
-85.625
11
160.248
21
-99.625
0
LINE
8
BLACK
6
CONTINUOUS
10
160.248
20
-99.625
11
160.23
21
-99.6674
0
LINE
8
BLACK
6
CONTINUOUS
10
160.23
20
-99.6674
11
160.188
21
-99.685
0
LINE
8
BLACK
6
CONTINUOUS
10
160.188
20
-99.685
11
146.188
21
-99.685
0
LINE
8
BLACK
6
CONTINUOUS
10
146.188
20
-99.685
11
146.145
21
-99.6674
0
LINE
8
BLACK
6
CONTINUOUS
10
146.248
20
-85.685
11
146.248
21
-99.565
0
LINE
8
BLACK
6
CONTINUOUS
10
146.248
20
-99.565
11
160.127
21
-99.565
0
LINE
8
BLACK
6
CONTINUOUS
10
160.127
20
-99.565
11
160.127
21
-85.685
0
LINE
8
BLACK
6
CONTINUOUS
10
160.127
20
-85.685
11
146.248
21
-85.685
0
LINE
8
BLACK
6
CONTINUOUS
10
127.145
20
-99.6674
11
127.127
21
-99.625
0
LINE
8
BLACK
6
CONTINUOUS
10
127.127
20
-99.625
11
127.127
21
-85.625
0
LINE
8
BLACK
6
CONTINUOUS
10
127.127
20
-85.625
11
127.145
21
-85.5826
0
LINE
8
BLACK
6
CONTINUOUS
10
127.145
20
-85.5826
11
127.188
21
-85.565
0
LINE
8
BLACK
6
CONTINUOUS
10
127.188
20
-85.565
11
141.188
21
-85.565
0
LINE
8
BLACK
6
CONTINUOUS
10
141.188
20
-85.565
11
141.23
21
-85.5826
0
LINE
8
BLACK
6
CONTINUOUS
10
141.23
20
-85.5826
11
141.248
21
-85.625
0
LINE
8
BLACK
6
CONTINUOUS
10
141.248
20
-85.625
11
141.248
21
-99.625
0
LINE
8
BLACK
6
CONTINUOUS
10
141.248
20
-99.625
11
141.23
21
-99.6674
0
LINE
8
BLACK
6
CONTINUOUS
10
141.23
20
-99.6674
11
141.188
21
-99.685
0
LINE
8
BLACK
6
CONTINUOUS
10
141.188
20
-99.685
11
127.188
21
-99.685
0
LINE
8
BLACK
6
CONTINUOUS
10
127.188
20
-99.685
11
127.145
21
-99.6674
0
LINE
8
BLACK
6
CONTINUOUS
10
127.247
20
-85.685
11
127.247
21
-99.565
0
LINE
8
BLACK
6
CONTINUOUS
10
127.247
20
-99.565
11
141.127
21
-99.565
0
LINE
8
BLACK
6
CONTINUOUS
10
141.127
20
-99.565
11
141.127
21
-85.685
0
LINE
8
BLACK
6
CONTINUOUS
10
141.127
20
-85.685
11
127.247
21
-85.685
0
LINE
8
BLACK
6
CONTINUOUS
10
222.145
20
-92.5424
11
222.127
21
-92.5
0
LINE
8
BLACK
6
CONTINUOUS
10
222.127
20
-92.5
11
222.127
21
-78.5
0
LINE
8
BLACK
6
CONTINUOUS
10
222.127
20
-78.5
11
222.145
21
-78.4576
0
LINE
8
BLACK
6
CONTINUOUS
10
222.145
20
-78.4576
11
222.188
21
-78.44
0
LINE
8
BLACK
6
CONTINUOUS
10
222.188
20
-78.44
11
236.188
21
-78.44
0
LINE
8
BLACK
6
CONTINUOUS
10
236.188
20
-78.44
11
236.23
21
-78.4576
0
LINE
8
BLACK
6
CONTINUOUS
10
236.23
20
-78.4576
11
236.248
21
-78.5
0
LINE
8
BLACK
6
CONTINUOUS
10
236.248
20
-78.5
11
236.248
21
-92.5
0
LINE
8
BLACK
6
CONTINUOUS
10
236.248
20
-92.5
11
236.23
21
-92.5424
0
LINE
8
BLACK
6
CONTINUOUS
10
236.23
20
-92.5424
11
236.188
21
-92.56
0
LINE
8
BLACK
6
CONTINUOUS
10
236.188
20
-92.56
11
222.188
21
-92.56
0
LINE
8
BLACK
6
CONTINUOUS
10
222.188
20
-92.56
11
222.145
21
-92.5424
0
LINE
8
BLACK
6
CONTINUOUS
10
222.248
20
-78.56
11
222.248
21
-92.44
0
LINE
8
BLACK
6
CONTINUOUS
10
222.248
20
-92.44
11
236.127
21
-92.44
0
LINE
8
BLACK
6
CONTINUOUS
10
236.127
20
-92.44
11
236.127
21
-78.56
0
LINE
8
BLACK
6
CONTINUOUS
10
236.127
20
-78.56
11
222.248
21
-78.56
0
LINE
8
BLACK
6
CONTINUOUS
10
165.145
20
-92.5424
11
165.127
21
-92.5
0
LINE
8
BLACK
6
CONTINUOUS
10
165.127
20
-92.5
11
165.127
21
-78.5
0
LINE
8
BLACK
6
CONTINUOUS
10
165.127
20
-78.5
11
165.145
21
-78.4576
0
LINE
8
BLACK
6
CONTINUOUS
10
165.145
20
-78.4576
11
165.188
21
-78.44
0
LINE
8
BLACK
6
CONTINUOUS
10
165.188
20
-78.44
11
179.188
21
-78.44
0
LINE
8
BLACK
6
CONTINUOUS
10
179.188
20
-78.44
11
179.23
21
-78.4576
0
LINE
8
BLACK
6
CONTINUOUS
10
179.23
20
-78.4576
11
179.248
21
-78.5
0
LINE
8
BLACK
6
CONTINUOUS
10
179.248
20
-78.5
11
179.248
21
-92.5
0
LINE
8
BLACK
6
CONTINUOUS
10
179.248
20
-92.5
11
179.23
21
-92.5424
0
LINE
8
BLACK
6
CONTINUOUS
10
179.23
20
-92.5424
11
179.188
21
-92.56
0
LINE
8
BLACK
6
CONTINUOUS
10
179.188
20
-92.56
11
165.188
21
-92.56
0
LINE
8
BLACK
6
CONTINUOUS
10
165.188
20
-92.56
11
165.145
21
-92.5424
0
LINE
8
BLACK
6
CONTINUOUS
10
165.248
20
-78.56
11
165.248
21
-92.44
0
LINE
8
BLACK
6
CONTINUOUS
10
165.248
20
-92.44
11
179.127
21
-92.44
0
LINE
8
BLACK
6
CONTINUOUS
10
179.127
20
-92.44
11
179.127
21
-78.56
0
LINE
8
BLACK
6
CONTINUOUS
10
179.127
20
-78.56
11
165.248
21
-78.56
0
LINE
8
BLACK
6
CONTINUOUS
10
203.145
20
-91.3549
11
203.127
21
-91.3125
0
LINE
8
BLACK
6
CONTINUOUS
10
203.127
20
-91.3125
11
203.127
21
-77.3125
0
LINE
8
BLACK
6
CONTINUOUS
10
203.127
20
-77.3125
11
203.145
21
-77.2701
0
LINE
8
BLACK
6
CONTINUOUS
10
203.145
20
-77.2701
11
203.188
21
-77.2525
0
LINE
8
BLACK
6
CONTINUOUS
10
203.188
20
-77.2525
11
217.188
21
-77.2525
0
LINE
8
BLACK
6
CONTINUOUS
10
217.188
20
-77.2525
11
217.23
21
-77.2701
0
LINE
8
BLACK
6
CONTINUOUS
10
217.23
20
-77.2701
11
217.248
21
-77.3125
0
LINE
8
BLACK
6
CONTINUOUS
10
217.248
20
-77.3125
11
217.248
21
-91.3125
0
LINE
8
BLACK
6
CONTINUOUS
10
217.248
20
-91.3125
11
217.23
21
-91.3549
0
LINE
8
BLACK
6
CONTINUOUS
10
217.23
20
-91.3549
11
217.188
21
-91.3725
0
LINE
8
BLACK
6
CONTINUOUS
10
217.188
20
-91.3725
11
203.188
21
-91.3725
0
LINE
8
BLACK
6
CONTINUOUS
10
203.188
20
-91.3725
11
203.145
21
-91.3549
0
LINE
8
BLACK
6
CONTINUOUS
10
203.248
20
-77.3725
11
203.248
21
-91.2525
0
LINE
8
BLACK
6
CONTINUOUS
10
203.248
20
-91.2525
11
217.127
21
-91.2525
0
LINE
8
BLACK
6
CONTINUOUS
10
217.127
20
-91.2525
11
217.127
21
-77.3725
0
LINE
8
BLACK
6
CONTINUOUS
10
217.127
20
-77.3725
11
203.248
21
-77.3725
0
LINE
8
BLACK
6
CONTINUOUS
10
184.145
20
-86.6049
11
184.127
21
-86.5625
0
LINE
8
BLACK
6
CONTINUOUS
10
184.127
20
-86.5625
11
184.127
21
-72.5625
0
LINE
8
BLACK
6
CONTINUOUS
10
184.127
20
-72.5625
11
184.145
21
-72.5201
0
LINE
8
BLACK
6
CONTINUOUS
10
184.145
20
-72.5201
11
184.188
21
-72.5025
0
LINE
8
BLACK
6
CONTINUOUS
10
184.188
20
-72.5025
11
198.188
21
-72.5025
0
LINE
8
BLACK
6
CONTINUOUS
10
198.188
20
-72.5025
11
198.23
21
-72.5201
0
LINE
8
BLACK
6
CONTINUOUS
10
198.23
20
-72.5201
11
198.248
21
-72.5625
0
LINE
8
BLACK
6
CONTINUOUS
10
198.248
20
-72.5625
11
198.248
21
-86.5625
0
LINE
8
BLACK
6
CONTINUOUS
10
198.248
20
-86.5625
11
198.23
21
-86.6049
0
LINE
8
BLACK
6
CONTINUOUS
10
198.23
20
-86.6049
11
198.188
21
-86.6225
0
LINE
8
BLACK
6
CONTINUOUS
10
198.188
20
-86.6225
11
184.188
21
-86.6225
0
LINE
8
BLACK
6
CONTINUOUS
10
184.188
20
-86.6225
11
184.145
21
-86.6049
0
LINE
8
BLACK
6
CONTINUOUS
10
184.248
20
-72.6225
11
184.248
21
-86.5025
0
LINE
8
BLACK
6
CONTINUOUS
10
184.248
20
-86.5025
11
198.127
21
-86.5025
0
LINE
8
BLACK
6
CONTINUOUS
10
198.127
20
-86.5025
11
198.127
21
-72.6225
0
LINE
8
BLACK
6
CONTINUOUS
10
198.127
20
-72.6225
11
184.248
21
-72.6225
0
LINE
8
BLACK
6
CONTINUOUS
10
108.145
20
-81.8549
11
108.127
21
-81.8125
0
LINE
8
BLACK
6
CONTINUOUS
10
108.127
20
-81.8125
11
108.127
21
-67.8125
0
LINE
8
BLACK
6
CONTINUOUS
10
108.127
20
-67.8125
11
108.145
21
-67.7701
0
LINE
8
BLACK
6
CONTINUOUS
10
108.145
20
-67.7701
11
108.188
21
-67.7525
0
LINE
8
BLACK
6
CONTINUOUS
10
108.188
20
-67.7525
11
122.188
21
-67.7525
0
LINE
8
BLACK
6
CONTINUOUS
10
122.188
20
-67.7525
11
122.23
21
-67.7701
0
LINE
8
BLACK
6
CONTINUOUS
10
122.23
20
-67.7701
11
122.247
21
-67.8125
0
LINE
8
BLACK
6
CONTINUOUS
10
122.247
20
-67.8125
11
122.247
21
-81.8125
0
LINE
8
BLACK
6
CONTINUOUS
10
122.247
20
-81.8125
11
122.23
21
-81.8549
0
LINE
8
BLACK
6
CONTINUOUS
10
122.23
20
-81.8549
11
122.188
21
-81.8725
0
LINE
8
BLACK
6
CONTINUOUS
10
122.188
20
-81.8725
11
108.188
21
-81.8725
0
LINE
8
BLACK
6
CONTINUOUS
10
108.188
20
-81.8725
11
108.145
21
-81.8549
0
LINE
8
BLACK
6
CONTINUOUS
10
108.247
20
-67.8725
11
108.247
21
-81.7525
0
LINE
8
BLACK
6
CONTINUOUS
10
108.247
20
-81.7525
11
122.127
21
-81.7525
0
LINE
8
BLACK
6
CONTINUOUS
10
122.127
20
-81.7525
11
122.127
21
-67.8725
0
LINE
8
BLACK
6
CONTINUOUS
10
122.127
20
-67.8725
11
108.247
21
-67.8725
0
LINE
8
BLACK
6
CONTINUOUS
10
127.145
20
-80.6674
11
127.127
21
-80.625
0
LINE
8
BLACK
6
CONTINUOUS
10
127.127
20
-80.625
11
127.127
21
-66.625
0
LINE
8
BLACK
6
CONTINUOUS
10
127.127
20
-66.625
11
127.145
21
-66.5826
0
LINE
8
BLACK
6
CONTINUOUS
10
127.145
20
-66.5826
11
127.188
21
-66.565
0
LINE
8
BLACK
6
CONTINUOUS
10
127.188
20
-66.565
11
141.188
21
-66.565
0
LINE
8
BLACK
6
CONTINUOUS
10
141.188
20
-66.565
11
141.23
21
-66.5826
0
LINE
8
BLACK
6
CONTINUOUS
10
141.23
20
-66.5826
11
141.248
21
-66.625
0
LINE
8
BLACK
6
CONTINUOUS
10
141.248
20
-66.625
11
141.248
21
-80.625
0
LINE
8
BLACK
6
CONTINUOUS
10
141.248
20
-80.625
11
141.23
21
-80.6674
0
LINE
8
BLACK
6
CONTINUOUS
10
141.23
20
-80.6674
11
141.188
21
-80.685
0
LINE
8
BLACK
6
CONTINUOUS
10
141.188
20
-80.685
11
127.188
21
-80.685
0
LINE
8
BLACK
6
CONTINUOUS
10
127.188
20
-80.685
11
127.145
21
-80.6674
0
LINE
8
BLACK
6
CONTINUOUS
10
127.247
20
-66.685
11
127.247
21
-80.565
0
LINE
8
BLACK
6
CONTINUOUS
10
127.247
20
-80.565
11
141.127
21
-80.565
0
LINE
8
BLACK
6
CONTINUOUS
10
141.127
20
-80.565
11
141.127
21
-66.685
0
LINE
8
BLACK
6
CONTINUOUS
10
141.127
20
-66.685
11
127.247
21
-66.685
0
LINE
8
BLACK
6
CONTINUOUS
10
146.145
20
-80.6674
11
146.127
21
-80.625
0
LINE
8
BLACK
6
CONTINUOUS
10
146.127
20
-80.625
11
146.127
21
-66.625
0
LINE
8
BLACK
6
CONTINUOUS
10
146.127
20
-66.625
11
146.145
21
-66.5826
0
LINE
8
BLACK
6
CONTINUOUS
10
146.145
20
-66.5826
11
146.188
21
-66.565
0
LINE
8
BLACK
6
CONTINUOUS
10
146.188
20
-66.565
11
160.188
21
-66.565
0
LINE
8
BLACK
6
CONTINUOUS
10
160.188
20
-66.565
11
160.23
21
-66.5826
0
LINE
8
BLACK
6
CONTINUOUS
10
160.23
20
-66.5826
11
160.248
21
-66.625
0
LINE
8
BLACK
6
CONTINUOUS
10
160.248
20
-66.625
11
160.248
21
-80.625
0
LINE
8
BLACK
6
CONTINUOUS
10
160.248
20
-80.625
11
160.23
21
-80.6674
0
LINE
8
BLACK
6
CONTINUOUS
10
160.23
20
-80.6674
11
160.188
21
-80.685
0
LINE
8
BLACK
6
CONTINUOUS
10
160.188
20
-80.685
11
146.188
21
-80.685
0
LINE
8
BLACK
6
CONTINUOUS
10
146.188
20
-80.685
11
146.145
21
-80.6674
0
LINE
8
BLACK
6
CONTINUOUS
10
146.248
20
-66.685
11
146.248
21
-80.565
0
LINE
8
BLACK
6
CONTINUOUS
10
146.248
20
-80.565
11
160.127
21
-80.565
0
LINE
8
BLACK
6
CONTINUOUS
10
160.127
20
-80.565
11
160.127
21
-66.685
0
LINE
8
BLACK
6
CONTINUOUS
10
160.127
20
-66.685
11
146.248
21
-66.685
0
LINE
8
BLACK
6
CONTINUOUS
10
165.145
20
-73.5424
11
165.127
21
-73.5
0
LINE
8
BLACK
6
CONTINUOUS
10
165.127
20
-73.5
11
165.127
21
-59.5
0
LINE
8
BLACK
6
CONTINUOUS
10
165.127
20
-59.5
11
165.145
21
-59.4576
0
LINE
8
BLACK
6
CONTINUOUS
10
165.145
20
-59.4576
11
165.188
21
-59.44
0
LINE
8
BLACK
6
CONTINUOUS
10
165.188
20
-59.44
11
179.188
21
-59.44
0
LINE
8
BLACK
6
CONTINUOUS
10
179.188
20
-59.44
11
179.23
21
-59.4576
0
LINE
8
BLACK
6
CONTINUOUS
10
179.23
20
-59.4576
11
179.248
21
-59.5
0
LINE
8
BLACK
6
CONTINUOUS
10
179.248
20
-59.5
11
179.248
21
-73.5
0
LINE
8
BLACK
6
CONTINUOUS
10
179.248
20
-73.5
11
179.23
21
-73.5424
0
LINE
8
BLACK
6
CONTINUOUS
10
179.23
20
-73.5424
11
179.188
21
-73.56
0
LINE
8
BLACK
6
CONTINUOUS
10
179.188
20
-73.56
11
165.188
21
-73.56
0
LINE
8
BLACK
6
CONTINUOUS
10
165.188
20
-73.56
11
165.145
21
-73.5424
0
LINE
8
BLACK
6
CONTINUOUS
10
165.248
20
-59.56
11
165.248
21
-73.44
0
LINE
8
BLACK
6
CONTINUOUS
10
165.248
20
-73.44
11
179.127
21
-73.44
0
LINE
8
BLACK
6
CONTINUOUS
10
179.127
20
-73.44
11
179.127
21
-59.56
0
LINE
8
BLACK
6
CONTINUOUS
10
179.127
20
-59.56
11
165.248
21
-59.56
0
LINE
8
BLACK
6
CONTINUOUS
10
222.145
20
-73.5424
11
222.127
21
-73.5
0
LINE
8
BLACK
6
CONTINUOUS
10
222.127
20
-73.5
11
222.127
21
-59.5
0
LINE
8
BLACK
6
CONTINUOUS
10
222.127
20
-59.5
11
222.145
21
-59.4576
0
LINE
8
BLACK
6
CONTINUOUS
10
222.145
20
-59.4576
11
222.188
21
-59.44
0
LINE
8
BLACK
6
CONTINUOUS
10
222.188
20
-59.44
11
236.188
21
-59.44
0
LINE
8
BLACK
6
CONTINUOUS
10
236.188
20
-59.44
11
236.23
21
-59.4576
0
LINE
8
BLACK
6
CONTINUOUS
10
236.23
20
-59.4576
11
236.248
21
-59.5
0
LINE
8
BLACK
6
CONTINUOUS
10
236.248
20
-59.5
11
236.248
21
-73.5
0
LINE
8
BLACK
6
CONTINUOUS
10
236.248
20
-73.5
11
236.23
21
-73.5424
0
LINE
8
BLACK
6
CONTINUOUS
10
236.23
20
-73.5424
11
236.188
21
-73.56
0
LINE
8
BLACK
6
CONTINUOUS
10
236.188
20
-73.56
11
222.188
21
-73.56
0
LINE
8
BLACK
6
CONTINUOUS
10
222.188
20
-73.56
11
222.145
21
-73.5424
0
LINE
8
BLACK
6
CONTINUOUS
10
222.248
20
-59.56
11
222.248
21
-73.44
0
LINE
8
BLACK
6
CONTINUOUS
10
222.248
20
-73.44
11
236.127
21
-73.44
0
LINE
8
BLACK
6
CONTINUOUS
10
236.127
20
-73.44
11
236.127
21
-59.56
0
LINE
8
BLACK
6
CONTINUOUS
10
236.127
20
-59.56
11
222.248
21
-59.56
0
LINE
8
BLACK
6
CONTINUOUS
10
203.145
20
-72.3549
11
203.127
21
-72.3125
0
LINE
8
BLACK
6
CONTINUOUS
10
203.127
20
-72.3125
11
203.127
21
-58.3125
0
LINE
8
BLACK
6
CONTINUOUS
10
203.127
20
-58.3125
11
203.145
21
-58.2701
0
LINE
8
BLACK
6
CONTINUOUS
10
203.145
20
-58.2701
11
203.188
21
-58.2525
0
LINE
8
BLACK
6
CONTINUOUS
10
203.188
20
-58.2525
11
217.188
21
-58.2525
0
LINE
8
BLACK
6
CONTINUOUS
10
217.188
20
-58.2525
11
217.23
21
-58.2701
0
LINE
8
BLACK
6
CONTINUOUS
10
217.23
20
-58.2701
11
217.248
21
-58.3125
0
LINE
8
BLACK
6
CONTINUOUS
10
217.248
20
-58.3125
11
217.248
21
-72.3125
0
LINE
8
BLACK
6
CONTINUOUS
10
217.248
20
-72.3125
11
217.23
21
-72.3549
0
LINE
8
BLACK
6
CONTINUOUS
10
217.23
20
-72.3549
11
217.188
21
-72.3725
0
LINE
8
BLACK
6
CONTINUOUS
10
217.188
20
-72.3725
11
203.188
21
-72.3725
0
LINE
8
BLACK
6
CONTINUOUS
10
203.188
20
-72.3725
11
203.145
21
-72.3549
0
LINE
8
BLACK
6
CONTINUOUS
10
203.248
20
-58.3725
11
203.248
21
-72.2525
0
LINE
8
BLACK
6
CONTINUOUS
10
203.248
20
-72.2525
11
217.127
21
-72.2525
0
LINE
8
BLACK
6
CONTINUOUS
10
217.127
20
-72.2525
11
217.127
21
-58.3725
0
LINE
8
BLACK
6
CONTINUOUS
10
217.127
20
-58.3725
11
203.248
21
-58.3725
0
LINE
8
BLACK
6
CONTINUOUS
10
184.145
20
-67.6049
11
184.127
21
-67.5625
0
LINE
8
BLACK
6
CONTINUOUS
10
184.127
20
-67.5625
11
184.127
21
-53.5625
0
LINE
8
BLACK
6
CONTINUOUS
10
184.127
20
-53.5625
11
184.145
21
-53.5201
0
LINE
8
BLACK
6
CONTINUOUS
10
184.145
20
-53.5201
11
184.188
21
-53.5025
0
LINE
8
BLACK
6
CONTINUOUS
10
184.188
20
-53.5025
11
198.188
21
-53.5025
0
LINE
8
BLACK
6
CONTINUOUS
10
198.188
20
-53.5025
11
198.23
21
-53.5201
0
LINE
8
BLACK
6
CONTINUOUS
10
198.23
20
-53.5201
11
198.248
21
-53.5625
0
LINE
8
BLACK
6
CONTINUOUS
10
198.248
20
-53.5625
11
198.248
21
-67.5625
0
LINE
8
BLACK
6
CONTINUOUS
10
198.248
20
-67.5625
11
198.23
21
-67.6049
0
LINE
8
BLACK
6
CONTINUOUS
10
198.23
20
-67.6049
11
198.188
21
-67.6225
0
LINE
8
BLACK
6
CONTINUOUS
10
198.188
20
-67.6225
11
184.188
21
-67.6225
0
LINE
8
BLACK
6
CONTINUOUS
10
184.188
20
-67.6225
11
184.145
21
-67.6049
0
LINE
8
BLACK
6
CONTINUOUS
10
184.248
20
-53.6225
11
184.248
21
-67.5025
0
LINE
8
BLACK
6
CONTINUOUS
10
184.248
20
-67.5025
11
198.127
21
-67.5025
0
LINE
8
BLACK
6
CONTINUOUS
10
198.127
20
-67.5025
11
198.127
21
-53.6225
0
LINE
8
BLACK
6
CONTINUOUS
10
198.127
20
-53.6225
11
184.248
21
-53.6225
0
LINE
8
BLACK
6
CONTINUOUS
10
127.145
20
-61.6674
11
127.127
21
-61.625
0
LINE
8
BLACK
6
CONTINUOUS
10
127.127
20
-61.625
11
127.127
21
-47.625
0
LINE
8
BLACK
6
CONTINUOUS
10
127.127
20
-47.625
11
127.145
21
-47.5826
0
LINE
8
BLACK
6
CONTINUOUS
10
127.145
20
-47.5826
11
127.188
21
-47.565
0
LINE
8
BLACK
6
CONTINUOUS
10
127.188
20
-47.565
11
141.188
21
-47.565
0
LINE
8
BLACK
6
CONTINUOUS
10
141.188
20
-47.565
11
141.23
21
-47.5826
0
LINE
8
BLACK
6
CONTINUOUS
10
141.23
20
-47.5826
11
141.248
21
-47.625
0
LINE
8
BLACK
6
CONTINUOUS
10
141.248
20
-47.625
11
141.248
21
-61.625
0
LINE
8
BLACK
6
CONTINUOUS
10
141.248
20
-61.625
11
141.23
21
-61.6674
0
LINE
8
BLACK
6
CONTINUOUS
10
141.23
20
-61.6674
11
141.188
21
-61.685
0
LINE
8
BLACK
6
CONTINUOUS
10
141.188
20
-61.685
11
127.188
21
-61.685
0
LINE
8
BLACK
6
CONTINUOUS
10
127.188
20
-61.685
11
127.145
21
-61.6674
0
LINE
8
BLACK
6
CONTINUOUS
10
127.247
20
-47.685
11
127.247
21
-61.565
0
LINE
8
BLACK
6
CONTINUOUS
10
127.247
20
-61.565
11
141.127
21
-61.565
0
LINE
8
BLACK
6
CONTINUOUS
10
141.127
20
-61.565
11
141.127
21
-47.685
0
LINE
8
BLACK
6
CONTINUOUS
10
141.127
20
-47.685
11
127.247
21
-47.685
0
LINE
8
BLACK
6
CONTINUOUS
10
146.145
20
-61.6674
11
146.127
21
-61.625
0
LINE
8
BLACK
6
CONTINUOUS
10
146.127
20
-61.625
11
146.127
21
-47.625
0
LINE
8
BLACK
6
CONTINUOUS
10
146.127
20
-47.625
11
146.145
21
-47.5826
0
LINE
8
BLACK
6
CONTINUOUS
10
146.145
20
-47.5826
11
146.188
21
-47.565
0
LINE
8
BLACK
6
CONTINUOUS
10
146.188
20
-47.565
11
160.188
21
-47.565
0
LINE
8
BLACK
6
CONTINUOUS
10
160.188
20
-47.565
11
160.23
21
-47.5826
0
LINE
8
BLACK
6
CONTINUOUS
10
160.23
20
-47.5826
11
160.248
21
-47.625
0
LINE
8
BLACK
6
CONTINUOUS
10
160.248
20
-47.625
11
160.248
21
-61.625
0
LINE
8
BLACK
6
CONTINUOUS
10
160.248
20
-61.625
11
160.23
21
-61.6674
0
LINE
8
BLACK
6
CONTINUOUS
10
160.23
20
-61.6674
11
160.188
21
-61.685
0
LINE
8
BLACK
6
CONTINUOUS
10
160.188
20
-61.685
11
146.188
21
-61.685
0
LINE
8
BLACK
6
CONTINUOUS
10
146.188
20
-61.685
11
146.145
21
-61.6674
0
LINE
8
BLACK
6
CONTINUOUS
10
146.248
20
-47.685
11
146.248
21
-61.565
0
LINE
8
BLACK
6
CONTINUOUS
10
146.248
20
-61.565
11
160.127
21
-61.565
0
LINE
8
BLACK
6
CONTINUOUS
10
160.127
20
-61.565
11
160.127
21
-47.685
0
LINE
8
BLACK
6
CONTINUOUS
10
160.127
20
-47.685
11
146.248
21
-47.685
0
LINE
8
BLACK
6
CONTINUOUS
10
222.145
20
-54.5424
11
222.127
21
-54.5
0
LINE
8
BLACK
6
CONTINUOUS
10
222.127
20
-54.5
11
222.127
21
-40.5
0
LINE
8
BLACK
6
CONTINUOUS
10
222.127
20
-40.5
11
222.145
21
-40.4576
0
LINE
8
BLACK
6
CONTINUOUS
10
222.145
20
-40.4576
11
222.188
21
-40.44
0
LINE
8
BLACK
6
CONTINUOUS
10
222.188
20
-40.44
11
236.188
21
-40.44
0
LINE
8
BLACK
6
CONTINUOUS
10
236.188
20
-40.44
11
236.23
21
-40.4576
0
LINE
8
BLACK
6
CONTINUOUS
10
236.23
20
-40.4576
11
236.248
21
-40.5
0
LINE
8
BLACK
6
CONTINUOUS
10
236.248
20
-40.5
11
236.248
21
-54.5
0
LINE
8
BLACK
6
CONTINUOUS
10
236.248
20
-54.5
11
236.23
21
-54.5424
0
LINE
8
BLACK
6
CONTINUOUS
10
236.23
20
-54.5424
11
236.188
21
-54.56
0
LINE
8
BLACK
6
CONTINUOUS
10
236.188
20
-54.56
11
222.188
21
-54.56
0
LINE
8
BLACK
6
CONTINUOUS
10
222.188
20
-54.56
11
222.145
21
-54.5424
0
LINE
8
BLACK
6
CONTINUOUS
10
222.248
20
-40.56
11
222.248
21
-54.44
0
LINE
8
BLACK
6
CONTINUOUS
10
222.248
20
-54.44
11
236.127
21
-54.44
0
LINE
8
BLACK
6
CONTINUOUS
10
236.127
20
-54.44
11
236.127
21
-40.56
0
LINE
8
BLACK
6
CONTINUOUS
10
236.127
20
-40.56
11
222.248
21
-40.56
0
LINE
8
BLACK
6
CONTINUOUS
10
165.145
20
-54.5424
11
165.127
21
-54.5
0
LINE
8
BLACK
6
CONTINUOUS
10
165.127
20
-54.5
11
165.127
21
-40.5
0
LINE
8
BLACK
6
CONTINUOUS
10
165.127
20
-40.5
11
165.145
21
-40.4576
0
LINE
8
BLACK
6
CONTINUOUS
10
165.145
20
-40.4576
11
165.188
21
-40.44
0
LINE
8
BLACK
6
CONTINUOUS
10
165.188
20
-40.44
11
179.188
21
-40.44
0
LINE
8
BLACK
6
CONTINUOUS
10
179.188
20
-40.44
11
179.23
21
-40.4576
0
LINE
8
BLACK
6
CONTINUOUS
10
179.23
20
-40.4576
11
179.248
21
-40.5
0
LINE
8
BLACK
6
CONTINUOUS
10
179.248
20
-40.5
11
179.248
21
-54.5
0
LINE
8
BLACK
6
CONTINUOUS
10
179.248
20
-54.5
11
179.23
21
-54.5424
0
LINE
8
BLACK
6
CONTINUOUS
10
179.23
20
-54.5424
11
179.188
21
-54.56
0
LINE
8
BLACK
6
CONTINUOUS
10
179.188
20
-54.56
11
165.188
21
-54.56
0
LINE
8
BLACK
6
CONTINUOUS
10
165.188
20
-54.56
11
165.145
21
-54.5424
0
LINE
8
BLACK
6
CONTINUOUS
10
165.248
20
-40.56
11
165.248
21
-54.44
0
LINE
8
BLACK
6
CONTINUOUS
10
165.248
20
-54.44
11
179.127
21
-54.44
0
LINE
8
BLACK
6
CONTINUOUS
10
179.127
20
-54.44
11
179.127
21
-40.56
0
LINE
8
BLACK
6
CONTINUOUS
10
179.127
20
-40.56
11
165.248
21
-40.56
0
LINE
8
BLACK
6
CONTINUOUS
10
203.145
20
-53.3549
11
203.127
21
-53.3125
0
LINE
8
BLACK
6
CONTINUOUS
10
203.127
20
-53.3125
11
203.127
21
-39.3125
0
LINE
8
BLACK
6
CONTINUOUS
10
203.127
20
-39.3125
11
203.145
21
-39.2701
0
LINE
8
BLACK
6
CONTINUOUS
10
203.145
20
-39.2701
11
203.188
21
-39.2525
0
LINE
8
BLACK
6
CONTINUOUS
10
203.188
20
-39.2525
11
217.188
21
-39.2525
0
LINE
8
BLACK
6
CONTINUOUS
10
217.188
20
-39.2525
11
217.23
21
-39.2701
0
LINE
8
BLACK
6
CONTINUOUS
10
217.23
20
-39.2701
11
217.248
21
-39.3125
0
LINE
8
BLACK
6
CONTINUOUS
10
217.248
20
-39.3125
11
217.248
21
-53.3125
0
LINE
8
BLACK
6
CONTINUOUS
10
217.248
20
-53.3125
11
217.23
21
-53.3549
0
LINE
8
BLACK
6
CONTINUOUS
10
217.23
20
-53.3549
11
217.188
21
-53.3725
0
LINE
8
BLACK
6
CONTINUOUS
10
217.188
20
-53.3725
11
203.188
21
-53.3725
0
LINE
8
BLACK
6
CONTINUOUS
10
203.188
20
-53.3725
11
203.145
21
-53.3549
0
LINE
8
BLACK
6
CONTINUOUS
10
203.248
20
-39.3725
11
203.248
21
-53.2525
0
LINE
8
BLACK
6
CONTINUOUS
10
203.248
20
-53.2525
11
217.127
21
-53.2525
0
LINE
8
BLACK
6
CONTINUOUS
10
217.127
20
-53.2525
11
217.127
21
-39.3725
0
LINE
8
BLACK
6
CONTINUOUS
10
217.127
20
-39.3725
11
203.248
21
-39.3725
0
LINE
8
BLACK
6
CONTINUOUS
10
184.145
20
-48.6049
11
184.127
21
-48.5625
0
LINE
8
BLACK
6
CONTINUOUS
10
184.127
20
-48.5625
11
184.127
21
-34.5625
0
LINE
8
BLACK
6
CONTINUOUS
10
184.127
20
-34.5625
11
184.145
21
-34.5201
0
LINE
8
BLACK
6
CONTINUOUS
10
184.145
20
-34.5201
11
184.188
21
-34.5025
0
LINE
8
BLACK
6
CONTINUOUS
10
184.188
20
-34.5025
11
198.188
21
-34.5025
0
LINE
8
BLACK
6
CONTINUOUS
10
198.188
20
-34.5025
11
198.23
21
-34.5201
0
LINE
8
BLACK
6
CONTINUOUS
10
198.23
20
-34.5201
11
198.248
21
-34.5625
0
LINE
8
BLACK
6
CONTINUOUS
10
198.248
20
-34.5625
11
198.248
21
-48.5625
0
LINE
8
BLACK
6
CONTINUOUS
10
198.248
20
-48.5625
11
198.23
21
-48.6049
0
LINE
8
BLACK
6
CONTINUOUS
10
198.23
20
-48.6049
11
198.188
21
-48.6225
0
LINE
8
BLACK
6
CONTINUOUS
10
198.188
20
-48.6225
11
184.188
21
-48.6225
0
LINE
8
BLACK
6
CONTINUOUS
10
184.188
20
-48.6225
11
184.145
21
-48.6049
0
LINE
8
BLACK
6
CONTINUOUS
10
184.248
20
-34.6225
11
184.248
21
-48.5025
0
LINE
8
BLACK
6
CONTINUOUS
10
184.248
20
-48.5025
11
198.127
21
-48.5025
0
LINE
8
BLACK
6
CONTINUOUS
10
198.127
20
-48.5025
11
198.127
21
-34.6225
0
LINE
8
BLACK
6
CONTINUOUS
10
198.127
20
-34.6225
11
184.248
21
-34.6225
0
LINE
8
BLACK
6
CONTINUOUS
10
230.425
20
-102.305
11
230.515
21
-102.114
0
LINE
8
BLACK
6
CONTINUOUS
10
230.515
20
-102.114
11
230.636
21
-101.941
0
LINE
8
BLACK
6
CONTINUOUS
10
230.636
20
-101.941
11
230.785
21
-101.792
0
LINE
8
BLACK
6
CONTINUOUS
10
230.785
20
-101.792
11
230.957
21
-101.671
0
LINE
8
BLACK
6
CONTINUOUS
10
230.957
20
-101.671
11
231.149
21
-101.582
0
LINE
8
BLACK
6
CONTINUOUS
10
231.149
20
-101.582
11
231.352
21
-101.527
0
LINE
8
BLACK
6
CONTINUOUS
10
231.352
20
-101.527
11
231.562
21
-101.509
0
LINE
8
BLACK
6
CONTINUOUS
10
231.562
20
-101.509
11
231.773
21
-101.527
0
LINE
8
BLACK
6
CONTINUOUS
10
231.773
20
-101.527
11
231.976
21
-101.582
0
LINE
8
BLACK
6
CONTINUOUS
10
231.976
20
-101.582
11
232.167
21
-101.671
0
LINE
8
BLACK
6
CONTINUOUS
10
232.167
20
-101.671
11
232.34
21
-101.792
0
LINE
8
BLACK
6
CONTINUOUS
10
232.34
20
-101.792
11
232.489
21
-101.941
0
LINE
8
BLACK
6
CONTINUOUS
10
232.489
20
-101.941
11
232.61
21
-102.114
0
LINE
8
BLACK
6
CONTINUOUS
10
232.61
20
-102.114
11
232.7
21
-102.305
0
LINE
8
BLACK
6
CONTINUOUS
10
232.7
20
-102.305
11
232.754
21
-102.509
0
LINE
8
BLACK
6
CONTINUOUS
10
232.754
20
-102.509
11
232.772
21
-102.719
0
LINE
8
BLACK
6
CONTINUOUS
10
232.772
20
-102.719
11
232.754
21
-102.929
0
LINE
8
BLACK
6
CONTINUOUS
10
232.754
20
-102.929
11
232.7
21
-103.133
0
LINE
8
BLACK
6
CONTINUOUS
10
232.7
20
-103.133
11
232.61
21
-103.324
0
LINE
8
BLACK
6
CONTINUOUS
10
232.61
20
-103.324
11
232.489
21
-103.497
0
LINE
8
BLACK
6
CONTINUOUS
10
232.489
20
-103.497
11
232.34
21
-103.646
0
LINE
8
BLACK
6
CONTINUOUS
10
232.34
20
-103.646
11
232.167
21
-103.767
0
LINE
8
BLACK
6
CONTINUOUS
10
232.167
20
-103.767
11
231.976
21
-103.856
0
LINE
8
BLACK
6
CONTINUOUS
10
231.976
20
-103.856
11
231.773
21
-103.91
0
LINE
8
BLACK
6
CONTINUOUS
10
231.773
20
-103.91
11
231.562
21
-103.929
0
LINE
8
BLACK
6
CONTINUOUS
10
231.562
20
-103.929
11
231.352
21
-103.91
0
LINE
8
BLACK
6
CONTINUOUS
10
231.352
20
-103.91
11
231.149
21
-103.856
0
LINE
8
BLACK
6
CONTINUOUS
10
231.149
20
-103.856
11
230.957
21
-103.767
0
LINE
8
BLACK
6
CONTINUOUS
10
230.957
20
-103.767
11
230.785
21
-103.646
0
LINE
8
BLACK
6
CONTINUOUS
10
230.785
20
-103.646
11
230.636
21
-103.497
0
LINE
8
BLACK
6
CONTINUOUS
10
230.636
20
-103.497
11
230.515
21
-103.324
0
LINE
8
BLACK
6
CONTINUOUS
10
230.515
20
-103.324
11
230.425
21
-103.133
0
LINE
8
BLACK
6
CONTINUOUS
10
230.425
20
-103.133
11
230.371
21
-102.929
0
LINE
8
BLACK
6
CONTINUOUS
10
230.371
20
-102.929
11
230.352
21
-102.719
0
LINE
8
BLACK
6
CONTINUOUS
10
230.352
20
-102.719
11
230.355
21
-102.69
0
LINE
8
BLACK
6
CONTINUOUS
10
230.355
20
-102.69
11
230.371
21
-102.509
0
LINE
8
BLACK
6
CONTINUOUS
10
230.371
20
-102.509
11
230.425
21
-102.305
0
LINE
8
BLACK
6
CONTINUOUS
10
230.531
20
-103.084
11
230.614
21
-103.266
0
LINE
8
BLACK
6
CONTINUOUS
10
230.614
20
-103.266
11
230.73
21
-103.43
0
LINE
8
BLACK
6
CONTINUOUS
10
230.73
20
-103.43
11
230.874
21
-103.569
0
LINE
8
BLACK
6
CONTINUOUS
10
230.874
20
-103.569
11
231.04
21
-103.681
0
LINE
8
BLACK
6
CONTINUOUS
10
231.04
20
-103.681
11
231.224
21
-103.76
0
LINE
8
BLACK
6
CONTINUOUS
10
231.224
20
-103.76
11
231.42
21
-103.804
0
LINE
8
BLACK
6
CONTINUOUS
10
231.42
20
-103.804
11
231.62
21
-103.812
0
LINE
8
BLACK
6
CONTINUOUS
10
231.62
20
-103.812
11
231.818
21
-103.783
0
LINE
8
BLACK
6
CONTINUOUS
10
231.818
20
-103.783
11
232.008
21
-103.719
0
LINE
8
BLACK
6
CONTINUOUS
10
232.008
20
-103.719
11
232.183
21
-103.621
0
LINE
8
BLACK
6
CONTINUOUS
10
232.183
20
-103.621
11
232.337
21
-103.493
0
LINE
8
BLACK
6
CONTINUOUS
10
232.337
20
-103.493
11
232.465
21
-103.339
0
LINE
8
BLACK
6
CONTINUOUS
10
232.465
20
-103.339
11
232.563
21
-103.164
0
LINE
8
BLACK
6
CONTINUOUS
10
232.563
20
-103.164
11
232.627
21
-102.974
0
LINE
8
BLACK
6
CONTINUOUS
10
232.627
20
-102.974
11
232.656
21
-102.776
0
LINE
8
BLACK
6
CONTINUOUS
10
232.656
20
-102.776
11
232.657
21
-102.719
0
LINE
8
BLACK
6
CONTINUOUS
10
232.657
20
-102.719
11
232.639
21
-102.519
0
LINE
8
BLACK
6
CONTINUOUS
10
232.639
20
-102.519
11
232.584
21
-102.326
0
LINE
8
BLACK
6
CONTINUOUS
10
232.584
20
-102.326
11
232.496
21
-102.147
0
LINE
8
BLACK
6
CONTINUOUS
10
232.496
20
-102.147
11
232.376
21
-101.986
0
LINE
8
BLACK
6
CONTINUOUS
10
232.376
20
-101.986
11
232.229
21
-101.85
0
LINE
8
BLACK
6
CONTINUOUS
10
232.229
20
-101.85
11
232.059
21
-101.743
0
LINE
8
BLACK
6
CONTINUOUS
10
232.059
20
-101.743
11
231.873
21
-101.669
0
LINE
8
BLACK
6
CONTINUOUS
10
231.873
20
-101.669
11
231.677
21
-101.63
0
LINE
8
BLACK
6
CONTINUOUS
10
231.677
20
-101.63
11
231.477
21
-101.627
0
LINE
8
BLACK
6
CONTINUOUS
10
231.477
20
-101.627
11
231.279
21
-101.661
0
LINE
8
BLACK
6
CONTINUOUS
10
231.279
20
-101.661
11
231.091
21
-101.731
0
LINE
8
BLACK
6
CONTINUOUS
10
231.091
20
-101.731
11
230.919
21
-101.833
0
LINE
8
BLACK
6
CONTINUOUS
10
230.919
20
-101.833
11
230.768
21
-101.965
0
LINE
8
BLACK
6
CONTINUOUS
10
230.768
20
-101.965
11
230.644
21
-102.123
0
LINE
8
BLACK
6
CONTINUOUS
10
230.644
20
-102.123
11
230.551
21
-102.3
0
LINE
8
BLACK
6
CONTINUOUS
10
230.551
20
-102.3
11
230.492
21
-102.491
0
LINE
8
BLACK
6
CONTINUOUS
10
230.492
20
-102.491
11
230.468
21
-102.69
0
LINE
8
BLACK
6
CONTINUOUS
10
230.468
20
-102.69
11
230.481
21
-102.89
0
LINE
8
BLACK
6
CONTINUOUS
10
230.481
20
-102.89
11
230.531
21
-103.084
0
LINE
8
BLACK
6
CONTINUOUS
10
161.55
20
-82.7112
11
161.64
21
-82.52
0
LINE
8
BLACK
6
CONTINUOUS
10
161.64
20
-82.52
11
161.761
21
-82.3472
0
LINE
8
BLACK
6
CONTINUOUS
10
161.761
20
-82.3472
11
161.91
21
-82.1981
0
LINE
8
BLACK
6
CONTINUOUS
10
161.91
20
-82.1981
11
162.082
21
-82.0771
0
LINE
8
BLACK
6
CONTINUOUS
10
162.082
20
-82.0771
11
162.274
21
-81.988
0
LINE
8
BLACK
6
CONTINUOUS
10
162.274
20
-81.988
11
162.477
21
-81.9334
0
LINE
8
BLACK
6
CONTINUOUS
10
162.477
20
-81.9334
11
162.688
21
-81.915
0
LINE
8
BLACK
6
CONTINUOUS
10
162.688
20
-81.915
11
162.898
21
-81.9334
0
LINE
8
BLACK
6
CONTINUOUS
10
162.898
20
-81.9334
11
163.101
21
-81.988
0
LINE
8
BLACK
6
CONTINUOUS
10
163.101
20
-81.988
11
163.292
21
-82.0771
0
LINE
8
BLACK
6
CONTINUOUS
10
163.292
20
-82.0771
11
163.465
21
-82.1981
0
LINE
8
BLACK
6
CONTINUOUS
10
163.465
20
-82.1981
11
163.614
21
-82.3472
0
LINE
8
BLACK
6
CONTINUOUS
10
163.614
20
-82.3472
11
163.735
21
-82.52
0
LINE
8
BLACK
6
CONTINUOUS
10
163.735
20
-82.52
11
163.825
21
-82.7112
0
LINE
8
BLACK
6
CONTINUOUS
10
163.825
20
-82.7112
11
163.879
21
-82.9149
0
LINE
8
BLACK
6
CONTINUOUS
10
163.879
20
-82.9149
11
163.897
21
-83.125
0
LINE
8
BLACK
6
CONTINUOUS
10
163.897
20
-83.125
11
163.879
21
-83.3351
0
LINE
8
BLACK
6
CONTINUOUS
10
163.879
20
-83.3351
11
163.825
21
-83.5388
0
LINE
8
BLACK
6
CONTINUOUS
10
163.825
20
-83.5388
11
163.735
21
-83.73
0
LINE
8
BLACK
6
CONTINUOUS
10
163.735
20
-83.73
11
163.614
21
-83.9028
0
LINE
8
BLACK
6
CONTINUOUS
10
163.614
20
-83.9028
11
163.465
21
-84.0519
0
LINE
8
BLACK
6
CONTINUOUS
10
163.465
20
-84.0519
11
163.292
21
-84.1729
0
LINE
8
BLACK
6
CONTINUOUS
10
163.292
20
-84.1729
11
163.101
21
-84.262
0
LINE
8
BLACK
6
CONTINUOUS
10
163.101
20
-84.262
11
162.898
21
-84.3166
0
LINE
8
BLACK
6
CONTINUOUS
10
162.898
20
-84.3166
11
162.688
21
-84.335
0
LINE
8
BLACK
6
CONTINUOUS
10
162.688
20
-84.335
11
162.477
21
-84.3166
0
LINE
8
BLACK
6
CONTINUOUS
10
162.477
20
-84.3166
11
162.274
21
-84.262
0
LINE
8
BLACK
6
CONTINUOUS
10
162.274
20
-84.262
11
162.082
21
-84.1729
0
LINE
8
BLACK
6
CONTINUOUS
10
162.082
20
-84.1729
11
161.91
21
-84.0519
0
LINE
8
BLACK
6
CONTINUOUS
10
161.91
20
-84.0519
11
161.761
21
-83.9028
0
LINE
8
BLACK
6
CONTINUOUS
10
161.761
20
-83.9028
11
161.64
21
-83.73
0
LINE
8
BLACK
6
CONTINUOUS
10
161.64
20
-83.73
11
161.55
21
-83.5388
0
LINE
8
BLACK
6
CONTINUOUS
10
161.55
20
-83.5388
11
161.496
21
-83.3351
0
LINE
8
BLACK
6
CONTINUOUS
10
161.496
20
-83.3351
11
161.477
21
-83.125
0
LINE
8
BLACK
6
CONTINUOUS
10
161.477
20
-83.125
11
161.48
21
-83.0963
0
LINE
8
BLACK
6
CONTINUOUS
10
161.48
20
-83.0963
11
161.496
21
-82.9149
0
LINE
8
BLACK
6
CONTINUOUS
10
161.496
20
-82.9149
11
161.55
21
-82.7112
0
LINE
8
BLACK
6
CONTINUOUS
10
161.656
20
-83.4904
11
161.739
21
-83.6723
0
LINE
8
BLACK
6
CONTINUOUS
10
161.739
20
-83.6723
11
161.855
21
-83.8359
0
LINE
8
BLACK
6
CONTINUOUS
10
161.855
20
-83.8359
11
161.999
21
-83.9757
0
LINE
8
BLACK
6
CONTINUOUS
10
161.999
20
-83.9757
11
162.165
21
-84.087
0
LINE
8
BLACK
6
CONTINUOUS
10
162.165
20
-84.087
11
162.349
21
-84.1661
0
LINE
8
BLACK
6
CONTINUOUS
10
162.349
20
-84.1661
11
162.545
21
-84.2103
0
LINE
8
BLACK
6
CONTINUOUS
10
162.545
20
-84.2103
11
162.745
21
-84.2182
0
LINE
8
BLACK
6
CONTINUOUS
10
162.745
20
-84.2182
11
162.943
21
-84.1894
0
LINE
8
BLACK
6
CONTINUOUS
10
162.943
20
-84.1894
11
163.133
21
-84.125
0
LINE
8
BLACK
6
CONTINUOUS
10
163.133
20
-84.125
11
163.308
21
-84.0271
0
LINE
8
BLACK
6
CONTINUOUS
10
163.308
20
-84.0271
11
163.462
21
-83.899
0
LINE
8
BLACK
6
CONTINUOUS
10
163.462
20
-83.899
11
163.59
21
-83.745
0
LINE
8
BLACK
6
CONTINUOUS
10
163.59
20
-83.745
11
163.688
21
-83.5702
0
LINE
8
BLACK
6
CONTINUOUS
10
163.688
20
-83.5702
11
163.752
21
-83.3805
0
LINE
8
BLACK
6
CONTINUOUS
10
163.752
20
-83.3805
11
163.781
21
-83.1823
0
LINE
8
BLACK
6
CONTINUOUS
10
163.781
20
-83.1823
11
163.782
21
-83.125
0
LINE
8
BLACK
6
CONTINUOUS
10
163.782
20
-83.125
11
163.764
21
-82.9255
0
LINE
8
BLACK
6
CONTINUOUS
10
163.764
20
-82.9255
11
163.709
21
-82.7327
0
LINE
8
BLACK
6
CONTINUOUS
10
163.709
20
-82.7327
11
163.621
21
-82.553
0
LINE
8
BLACK
6
CONTINUOUS
10
163.621
20
-82.553
11
163.501
21
-82.3925
0
LINE
8
BLACK
6
CONTINUOUS
10
163.501
20
-82.3925
11
163.354
21
-82.2565
0
LINE
8
BLACK
6
CONTINUOUS
10
163.354
20
-82.2565
11
163.184
21
-82.1496
0
LINE
8
BLACK
6
CONTINUOUS
10
163.184
20
-82.1496
11
162.998
21
-82.0754
0
LINE
8
BLACK
6
CONTINUOUS
10
162.998
20
-82.0754
11
162.802
21
-82.0363
0
LINE
8
BLACK
6
CONTINUOUS
10
162.802
20
-82.0363
11
162.602
21
-82.0337
0
LINE
8
BLACK
6
CONTINUOUS
10
162.602
20
-82.0337
11
162.404
21
-82.0676
0
LINE
8
BLACK
6
CONTINUOUS
10
162.404
20
-82.0676
11
162.216
21
-82.137
0
LINE
8
BLACK
6
CONTINUOUS
10
162.216
20
-82.137
11
162.044
21
-82.2394
0
LINE
8
BLACK
6
CONTINUOUS
10
162.044
20
-82.2394
11
161.893
21
-82.3715
0
LINE
8
BLACK
6
CONTINUOUS
10
161.893
20
-82.3715
11
161.769
21
-82.5288
0
LINE
8
BLACK
6
CONTINUOUS
10
161.769
20
-82.5288
11
161.676
21
-82.7061
0
LINE
8
BLACK
6
CONTINUOUS
10
161.676
20
-82.7061
11
161.617
21
-82.8974
0
LINE
8
BLACK
6
CONTINUOUS
10
161.617
20
-82.8974
11
161.593
21
-83.0963
0
LINE
8
BLACK
6
CONTINUOUS
10
161.593
20
-83.0963
11
161.606
21
-83.2962
0
LINE
8
BLACK
6
CONTINUOUS
10
161.606
20
-83.2962
11
161.656
21
-83.4904
0
LINE
8
BLACK
6
CONTINUOUS
10
142.55
20
-82.7112
11
142.64
21
-82.52
0
LINE
8
BLACK
6
CONTINUOUS
10
142.64
20
-82.52
11
142.761
21
-82.3472
0
LINE
8
BLACK
6
CONTINUOUS
10
142.761
20
-82.3472
11
142.91
21
-82.1981
0
LINE
8
BLACK
6
CONTINUOUS
10
142.91
20
-82.1981
11
143.082
21
-82.0771
0
LINE
8
BLACK
6
CONTINUOUS
10
143.082
20
-82.0771
11
143.274
21
-81.988
0
LINE
8
BLACK
6
CONTINUOUS
10
143.274
20
-81.988
11
143.477
21
-81.9334
0
LINE
8
BLACK
6
CONTINUOUS
10
143.477
20
-81.9334
11
143.688
21
-81.915
0
LINE
8
BLACK
6
CONTINUOUS
10
143.688
20
-81.915
11
143.898
21
-81.9334
0
LINE
8
BLACK
6
CONTINUOUS
10
143.898
20
-81.9334
11
144.101
21
-81.988
0
LINE
8
BLACK
6
CONTINUOUS
10
144.101
20
-81.988
11
144.292
21
-82.0771
0
LINE
8
BLACK
6
CONTINUOUS
10
144.292
20
-82.0771
11
144.465
21
-82.1981
0
LINE
8
BLACK
6
CONTINUOUS
10
144.465
20
-82.1981
11
144.614
21
-82.3472
0
LINE
8
BLACK
6
CONTINUOUS
10
144.614
20
-82.3472
11
144.735
21
-82.52
0
LINE
8
BLACK
6
CONTINUOUS
10
144.735
20
-82.52
11
144.825
21
-82.7112
0
LINE
8
BLACK
6
CONTINUOUS
10
144.825
20
-82.7112
11
144.879
21
-82.9149
0
LINE
8
BLACK
6
CONTINUOUS
10
144.879
20
-82.9149
11
144.897
21
-83.125
0
LINE
8
BLACK
6
CONTINUOUS
10
144.897
20
-83.125
11
144.879
21
-83.3351
0
LINE
8
BLACK
6
CONTINUOUS
10
144.879
20
-83.3351
11
144.825
21
-83.5388
0
LINE
8
BLACK
6
CONTINUOUS
10
144.825
20
-83.5388
11
144.735
21
-83.73
0
LINE
8
BLACK
6
CONTINUOUS
10
144.735
20
-83.73
11
144.614
21
-83.9028
0
LINE
8
BLACK
6
CONTINUOUS
10
144.614
20
-83.9028
11
144.465
21
-84.0519
0
LINE
8
BLACK
6
CONTINUOUS
10
144.465
20
-84.0519
11
144.292
21
-84.1729
0
LINE
8
BLACK
6
CONTINUOUS
10
144.292
20
-84.1729
11
144.101
21
-84.262
0
LINE
8
BLACK
6
CONTINUOUS
10
144.101
20
-84.262
11
143.898
21
-84.3166
0
LINE
8
BLACK
6
CONTINUOUS
10
143.898
20
-84.3166
11
143.688
21
-84.335
0
LINE
8
BLACK
6
CONTINUOUS
10
143.688
20
-84.335
11
143.477
21
-84.3166
0
LINE
8
BLACK
6
CONTINUOUS
10
143.477
20
-84.3166
11
143.274
21
-84.262
0
LINE
8
BLACK
6
CONTINUOUS
10
143.274
20
-84.262
11
143.082
21
-84.1729
0
LINE
8
BLACK
6
CONTINUOUS
10
143.082
20
-84.1729
11
142.91
21
-84.0519
0
LINE
8
BLACK
6
CONTINUOUS
10
142.91
20
-84.0519
11
142.761
21
-83.9028
0
LINE
8
BLACK
6
CONTINUOUS
10
142.761
20
-83.9028
11
142.64
21
-83.73
0
LINE
8
BLACK
6
CONTINUOUS
10
142.64
20
-83.73
11
142.55
21
-83.5388
0
LINE
8
BLACK
6
CONTINUOUS
10
142.55
20
-83.5388
11
142.496
21
-83.3351
0
LINE
8
BLACK
6
CONTINUOUS
10
142.496
20
-83.3351
11
142.477
21
-83.125
0
LINE
8
BLACK
6
CONTINUOUS
10
142.477
20
-83.125
11
142.48
21
-83.0963
0
LINE
8
BLACK
6
CONTINUOUS
10
142.48
20
-83.0963
11
142.496
21
-82.9149
0
LINE
8
BLACK
6
CONTINUOUS
10
142.496
20
-82.9149
11
142.55
21
-82.7112
0
LINE
8
BLACK
6
CONTINUOUS
10
142.656
20
-83.4904
11
142.739
21
-83.6723
0
LINE
8
BLACK
6
CONTINUOUS
10
142.739
20
-83.6723
11
142.855
21
-83.8359
0
LINE
8
BLACK
6
CONTINUOUS
10
142.855
20
-83.8359
11
142.999
21
-83.9757
0
LINE
8
BLACK
6
CONTINUOUS
10
142.999
20
-83.9757
11
143.165
21
-84.087
0
LINE
8
BLACK
6
CONTINUOUS
10
143.165
20
-84.087
11
143.349
21
-84.1661
0
LINE
8
BLACK
6
CONTINUOUS
10
143.349
20
-84.1661
11
143.545
21
-84.2103
0
LINE
8
BLACK
6
CONTINUOUS
10
143.545
20
-84.2103
11
143.745
21
-84.2182
0
LINE
8
BLACK
6
CONTINUOUS
10
143.745
20
-84.2182
11
143.943
21
-84.1894
0
LINE
8
BLACK
6
CONTINUOUS
10
143.943
20
-84.1894
11
144.133
21
-84.125
0
LINE
8
BLACK
6
CONTINUOUS
10
144.133
20
-84.125
11
144.308
21
-84.0271
0
LINE
8
BLACK
6
CONTINUOUS
10
144.308
20
-84.0271
11
144.462
21
-83.899
0
LINE
8
BLACK
6
CONTINUOUS
10
144.462
20
-83.899
11
144.59
21
-83.745
0
LINE
8
BLACK
6
CONTINUOUS
10
144.59
20
-83.745
11
144.688
21
-83.5702
0
LINE
8
BLACK
6
CONTINUOUS
10
144.688
20
-83.5702
11
144.752
21
-83.3805
0
LINE
8
BLACK
6
CONTINUOUS
10
144.752
20
-83.3805
11
144.781
21
-83.1823
0
LINE
8
BLACK
6
CONTINUOUS
10
144.781
20
-83.1823
11
144.782
21
-83.125
0
LINE
8
BLACK
6
CONTINUOUS
10
144.782
20
-83.125
11
144.764
21
-82.9255
0
LINE
8
BLACK
6
CONTINUOUS
10
144.764
20
-82.9255
11
144.709
21
-82.7327
0
LINE
8
BLACK
6
CONTINUOUS
10
144.709
20
-82.7327
11
144.621
21
-82.553
0
LINE
8
BLACK
6
CONTINUOUS
10
144.621
20
-82.553
11
144.501
21
-82.3925
0
LINE
8
BLACK
6
CONTINUOUS
10
144.501
20
-82.3925
11
144.354
21
-82.2565
0
LINE
8
BLACK
6
CONTINUOUS
10
144.354
20
-82.2565
11
144.184
21
-82.1496
0
LINE
8
BLACK
6
CONTINUOUS
10
144.184
20
-82.1496
11
143.998
21
-82.0754
0
LINE
8
BLACK
6
CONTINUOUS
10
143.998
20
-82.0754
11
143.802
21
-82.0363
0
LINE
8
BLACK
6
CONTINUOUS
10
143.802
20
-82.0363
11
143.602
21
-82.0337
0
LINE
8
BLACK
6
CONTINUOUS
10
143.602
20
-82.0337
11
143.404
21
-82.0676
0
LINE
8
BLACK
6
CONTINUOUS
10
143.404
20
-82.0676
11
143.216
21
-82.137
0
LINE
8
BLACK
6
CONTINUOUS
10
143.216
20
-82.137
11
143.044
21
-82.2394
0
LINE
8
BLACK
6
CONTINUOUS
10
143.044
20
-82.2394
11
142.893
21
-82.3715
0
LINE
8
BLACK
6
CONTINUOUS
10
142.893
20
-82.3715
11
142.769
21
-82.5288
0
LINE
8
BLACK
6
CONTINUOUS
10
142.769
20
-82.5288
11
142.676
21
-82.7061
0
LINE
8
BLACK
6
CONTINUOUS
10
142.676
20
-82.7061
11
142.617
21
-82.8974
0
LINE
8
BLACK
6
CONTINUOUS
10
142.617
20
-82.8974
11
142.593
21
-83.0963
0
LINE
8
BLACK
6
CONTINUOUS
10
142.593
20
-83.0963
11
142.606
21
-83.2962
0
LINE
8
BLACK
6
CONTINUOUS
10
142.606
20
-83.2962
11
142.656
21
-83.4904
0
LINE
8
BLACK
6
CONTINUOUS
10
142.55
20
-63.7112
11
142.64
21
-63.52
0
LINE
8
BLACK
6
CONTINUOUS
10
142.64
20
-63.52
11
142.761
21
-63.3472
0
LINE
8
BLACK
6
CONTINUOUS
10
142.761
20
-63.3472
11
142.91
21
-63.1981
0
LINE
8
BLACK
6
CONTINUOUS
10
142.91
20
-63.1981
11
143.082
21
-63.0771
0
LINE
8
BLACK
6
CONTINUOUS
10
143.082
20
-63.0771
11
143.274
21
-62.988
0
LINE
8
BLACK
6
CONTINUOUS
10
143.274
20
-62.988
11
143.477
21
-62.9334
0
LINE
8
BLACK
6
CONTINUOUS
10
143.477
20
-62.9334
11
143.688
21
-62.915
0
LINE
8
BLACK
6
CONTINUOUS
10
143.688
20
-62.915
11
143.898
21
-62.9334
0
LINE
8
BLACK
6
CONTINUOUS
10
143.898
20
-62.9334
11
144.101
21
-62.988
0
LINE
8
BLACK
6
CONTINUOUS
10
144.101
20
-62.988
11
144.292
21
-63.0771
0
LINE
8
BLACK
6
CONTINUOUS
10
144.292
20
-63.0771
11
144.465
21
-63.1981
0
LINE
8
BLACK
6
CONTINUOUS
10
144.465
20
-63.1981
11
144.614
21
-63.3472
0
LINE
8
BLACK
6
CONTINUOUS
10
144.614
20
-63.3472
11
144.735
21
-63.52
0
LINE
8
BLACK
6
CONTINUOUS
10
144.735
20
-63.52
11
144.825
21
-63.7112
0
LINE
8
BLACK
6
CONTINUOUS
10
144.825
20
-63.7112
11
144.879
21
-63.9149
0
LINE
8
BLACK
6
CONTINUOUS
10
144.879
20
-63.9149
11
144.897
21
-64.125
0
LINE
8
BLACK
6
CONTINUOUS
10
144.897
20
-64.125
11
144.879
21
-64.3351
0
LINE
8
BLACK
6
CONTINUOUS
10
144.879
20
-64.3351
11
144.825
21
-64.5388
0
LINE
8
BLACK
6
CONTINUOUS
10
144.825
20
-64.5388
11
144.735
21
-64.73
0
LINE
8
BLACK
6
CONTINUOUS
10
144.735
20
-64.73
11
144.614
21
-64.9028
0
LINE
8
BLACK
6
CONTINUOUS
10
144.614
20
-64.9028
11
144.465
21
-65.0519
0
LINE
8
BLACK
6
CONTINUOUS
10
144.465
20
-65.0519
11
144.292
21
-65.1729
0
LINE
8
BLACK
6
CONTINUOUS
10
144.292
20
-65.1729
11
144.101
21
-65.262
0
LINE
8
BLACK
6
CONTINUOUS
10
144.101
20
-65.262
11
143.898
21
-65.3166
0
LINE
8
BLACK
6
CONTINUOUS
10
143.898
20
-65.3166
11
143.688
21
-65.335
0
LINE
8
BLACK
6
CONTINUOUS
10
143.688
20
-65.335
11
143.477
21
-65.3166
0
LINE
8
BLACK
6
CONTINUOUS
10
143.477
20
-65.3166
11
143.274
21
-65.262
0
LINE
8
BLACK
6
CONTINUOUS
10
143.274
20
-65.262
11
143.082
21
-65.1729
0
LINE
8
BLACK
6
CONTINUOUS
10
143.082
20
-65.1729
11
142.91
21
-65.0519
0
LINE
8
BLACK
6
CONTINUOUS
10
142.91
20
-65.0519
11
142.761
21
-64.9028
0
LINE
8
BLACK
6
CONTINUOUS
10
142.761
20
-64.9028
11
142.64
21
-64.73
0
LINE
8
BLACK
6
CONTINUOUS
10
142.64
20
-64.73
11
142.55
21
-64.5388
0
LINE
8
BLACK
6
CONTINUOUS
10
142.55
20
-64.5388
11
142.496
21
-64.3351
0
LINE
8
BLACK
6
CONTINUOUS
10
142.496
20
-64.3351
11
142.477
21
-64.125
0
LINE
8
BLACK
6
CONTINUOUS
10
142.477
20
-64.125
11
142.48
21
-64.0963
0
LINE
8
BLACK
6
CONTINUOUS
10
142.48
20
-64.0963
11
142.496
21
-63.9149
0
LINE
8
BLACK
6
CONTINUOUS
10
142.496
20
-63.9149
11
142.55
21
-63.7112
0
LINE
8
BLACK
6
CONTINUOUS
10
142.656
20
-64.4904
11
142.739
21
-64.6723
0
LINE
8
BLACK
6
CONTINUOUS
10
142.739
20
-64.6723
11
142.855
21
-64.8359
0
LINE
8
BLACK
6
CONTINUOUS
10
142.855
20
-64.8359
11
142.999
21
-64.9757
0
LINE
8
BLACK
6
CONTINUOUS
10
142.999
20
-64.9757
11
143.165
21
-65.087
0
LINE
8
BLACK
6
CONTINUOUS
10
143.165
20
-65.087
11
143.349
21
-65.1661
0
LINE
8
BLACK
6
CONTINUOUS
10
143.349
20
-65.1661
11
143.545
21
-65.2103
0
LINE
8
BLACK
6
CONTINUOUS
10
143.545
20
-65.2103
11
143.745
21
-65.2182
0
LINE
8
BLACK
6
CONTINUOUS
10
143.745
20
-65.2182
11
143.943
21
-65.1894
0
LINE
8
BLACK
6
CONTINUOUS
10
143.943
20
-65.1894
11
144.133
21
-65.125
0
LINE
8
BLACK
6
CONTINUOUS
10
144.133
20
-65.125
11
144.308
21
-65.0271
0
LINE
8
BLACK
6
CONTINUOUS
10
144.308
20
-65.0271
11
144.462
21
-64.899
0
LINE
8
BLACK
6
CONTINUOUS
10
144.462
20
-64.899
11
144.59
21
-64.745
0
LINE
8
BLACK
6
CONTINUOUS
10
144.59
20
-64.745
11
144.688
21
-64.5702
0
LINE
8
BLACK
6
CONTINUOUS
10
144.688
20
-64.5702
11
144.752
21
-64.3805
0
LINE
8
BLACK
6
CONTINUOUS
10
144.752
20
-64.3805
11
144.781
21
-64.1823
0
LINE
8
BLACK
6
CONTINUOUS
10
144.781
20
-64.1823
11
144.782
21
-64.125
0
LINE
8
BLACK
6
CONTINUOUS
10
144.782
20
-64.125
11
144.764
21
-63.9255
0
LINE
8
BLACK
6
CONTINUOUS
10
144.764
20
-63.9255
11
144.709
21
-63.7327
0
LINE
8
BLACK
6
CONTINUOUS
10
144.709
20
-63.7327
11
144.621
21
-63.553
0
LINE
8
BLACK
6
CONTINUOUS
10
144.621
20
-63.553
11
144.501
21
-63.3925
0
LINE
8
BLACK
6
CONTINUOUS
10
144.501
20
-63.3925
11
144.354
21
-63.2565
0
LINE
8
BLACK
6
CONTINUOUS
10
144.354
20
-63.2565
11
144.184
21
-63.1496
0
LINE
8
BLACK
6
CONTINUOUS
10
144.184
20
-63.1496
11
143.998
21
-63.0754
0
LINE
8
BLACK
6
CONTINUOUS
10
143.998
20
-63.0754
11
143.802
21
-63.0363
0
LINE
8
BLACK
6
CONTINUOUS
10
143.802
20
-63.0363
11
143.602
21
-63.0337
0
LINE
8
BLACK
6
CONTINUOUS
10
143.602
20
-63.0337
11
143.404
21
-63.0676
0
LINE
8
BLACK
6
CONTINUOUS
10
143.404
20
-63.0676
11
143.216
21
-63.137
0
LINE
8
BLACK
6
CONTINUOUS
10
143.216
20
-63.137
11
143.044
21
-63.2394
0
LINE
8
BLACK
6
CONTINUOUS
10
143.044
20
-63.2394
11
142.893
21
-63.3715
0
LINE
8
BLACK
6
CONTINUOUS
10
142.893
20
-63.3715
11
142.769
21
-63.5288
0
LINE
8
BLACK
6
CONTINUOUS
10
142.769
20
-63.5288
11
142.676
21
-63.7061
0
LINE
8
BLACK
6
CONTINUOUS
10
142.676
20
-63.7061
11
142.617
21
-63.8974
0
LINE
8
BLACK
6
CONTINUOUS
10
142.617
20
-63.8974
11
142.593
21
-64.0963
0
LINE
8
BLACK
6
CONTINUOUS
10
142.593
20
-64.0963
11
142.606
21
-64.2962
0
LINE
8
BLACK
6
CONTINUOUS
10
142.606
20
-64.2962
11
142.656
21
-64.4904
0
LINE
8
BLACK
6
CONTINUOUS
10
161.55
20
-63.7112
11
161.64
21
-63.52
0
LINE
8
BLACK
6
CONTINUOUS
10
161.64
20
-63.52
11
161.761
21
-63.3472
0
LINE
8
BLACK
6
CONTINUOUS
10
161.761
20
-63.3472
11
161.91
21
-63.1981
0
LINE
8
BLACK
6
CONTINUOUS
10
161.91
20
-63.1981
11
162.082
21
-63.0771
0
LINE
8
BLACK
6
CONTINUOUS
10
162.082
20
-63.0771
11
162.274
21
-62.988
0
LINE
8
BLACK
6
CONTINUOUS
10
162.274
20
-62.988
11
162.477
21
-62.9334
0
LINE
8
BLACK
6
CONTINUOUS
10
162.477
20
-62.9334
11
162.688
21
-62.915
0
LINE
8
BLACK
6
CONTINUOUS
10
162.688
20
-62.915
11
162.898
21
-62.9334
0
LINE
8
BLACK
6
CONTINUOUS
10
162.898
20
-62.9334
11
163.101
21
-62.988
0
LINE
8
BLACK
6
CONTINUOUS
10
163.101
20
-62.988
11
163.292
21
-63.0771
0
LINE
8
BLACK
6
CONTINUOUS
10
163.292
20
-63.0771
11
163.465
21
-63.1981
0
LINE
8
BLACK
6
CONTINUOUS
10
163.465
20
-63.1981
11
163.614
21
-63.3472
0
LINE
8
BLACK
6
CONTINUOUS
10
163.614
20
-63.3472
11
163.735
21
-63.52
0
LINE
8
BLACK
6
CONTINUOUS
10
163.735
20
-63.52
11
163.825
21
-63.7112
0
LINE
8
BLACK
6
CONTINUOUS
10
163.825
20
-63.7112
11
163.879
21
-63.9149
0
LINE
8
BLACK
6
CONTINUOUS
10
163.879
20
-63.9149
11
163.897
21
-64.125
0
LINE
8
BLACK
6
CONTINUOUS
10
163.897
20
-64.125
11
163.879
21
-64.3351
0
LINE
8
BLACK
6
CONTINUOUS
10
163.879
20
-64.3351
11
163.825
21
-64.5388
0
LINE
8
BLACK
6
CONTINUOUS
10
163.825
20
-64.5388
11
163.735
21
-64.73
0
LINE
8
BLACK
6
CONTINUOUS
10
163.735
20
-64.73
11
163.614
21
-64.9028
0
LINE
8
BLACK
6
CONTINUOUS
10
163.614
20
-64.9028
11
163.465
21
-65.0519
0
LINE
8
BLACK
6
CONTINUOUS
10
163.465
20
-65.0519
11
163.292
21
-65.1729
0
LINE
8
BLACK
6
CONTINUOUS
10
163.292
20
-65.1729
11
163.101
21
-65.262
0
LINE
8
BLACK
6
CONTINUOUS
10
163.101
20
-65.262
11
162.898
21
-65.3166
0
LINE
8
BLACK
6
CONTINUOUS
10
162.898
20
-65.3166
11
162.688
21
-65.335
0
LINE
8
BLACK
6
CONTINUOUS
10
162.688
20
-65.335
11
162.477
21
-65.3166
0
LINE
8
BLACK
6
CONTINUOUS
10
162.477
20
-65.3166
11
162.274
21
-65.262
0
LINE
8
BLACK
6
CONTINUOUS
10
162.274
20
-65.262
11
162.082
21
-65.1729
0
LINE
8
BLACK
6
CONTINUOUS
10
162.082
20
-65.1729
11
161.91
21
-65.0519
0
LINE
8
BLACK
6
CONTINUOUS
10
161.91
20
-65.0519
11
161.761
21
-64.9028
0
LINE
8
BLACK
6
CONTINUOUS
10
161.761
20
-64.9028
11
161.64
21
-64.73
0
LINE
8
BLACK
6
CONTINUOUS
10
161.64
20
-64.73
11
161.55
21
-64.5388
0
LINE
8
BLACK
6
CONTINUOUS
10
161.55
20
-64.5388
11
161.496
21
-64.3351
0
LINE
8
BLACK
6
CONTINUOUS
10
161.496
20
-64.3351
11
161.477
21
-64.125
0
LINE
8
BLACK
6
CONTINUOUS
10
161.477
20
-64.125
11
161.48
21
-64.0963
0
LINE
8
BLACK
6
CONTINUOUS
10
161.48
20
-64.0963
11
161.496
21
-63.9149
0
LINE
8
BLACK
6
CONTINUOUS
10
161.496
20
-63.9149
11
161.55
21
-63.7112
0
LINE
8
BLACK
6
CONTINUOUS
10
161.656
20
-64.4904
11
161.739
21
-64.6723
0
LINE
8
BLACK
6
CONTINUOUS
10
161.739
20
-64.6723
11
161.855
21
-64.8359
0
LINE
8
BLACK
6
CONTINUOUS
10
161.855
20
-64.8359
11
161.999
21
-64.9757
0
LINE
8
BLACK
6
CONTINUOUS
10
161.999
20
-64.9757
11
162.165
21
-65.087
0
LINE
8
BLACK
6
CONTINUOUS
10
162.165
20
-65.087
11
162.349
21
-65.1661
0
LINE
8
BLACK
6
CONTINUOUS
10
162.349
20
-65.1661
11
162.545
21
-65.2103
0
LINE
8
BLACK
6
CONTINUOUS
10
162.545
20
-65.2103
11
162.745
21
-65.2182
0
LINE
8
BLACK
6
CONTINUOUS
10
162.745
20
-65.2182
11
162.943
21
-65.1894
0
LINE
8
BLACK
6
CONTINUOUS
10
162.943
20
-65.1894
11
163.133
21
-65.125
0
LINE
8
BLACK
6
CONTINUOUS
10
163.133
20
-65.125
11
163.308
21
-65.0271
0
LINE
8
BLACK
6
CONTINUOUS
10
163.308
20
-65.0271
11
163.462
21
-64.899
0
LINE
8
BLACK
6
CONTINUOUS
10
163.462
20
-64.899
11
163.59
21
-64.745
0
LINE
8
BLACK
6
CONTINUOUS
10
163.59
20
-64.745
11
163.688
21
-64.5702
0
LINE
8
BLACK
6
CONTINUOUS
10
163.688
20
-64.5702
11
163.752
21
-64.3805
0
LINE
8
BLACK
6
CONTINUOUS
10
163.752
20
-64.3805
11
163.781
21
-64.1823
0
LINE
8
BLACK
6
CONTINUOUS
10
163.781
20
-64.1823
11
163.782
21
-64.125
0
LINE
8
BLACK
6
CONTINUOUS
10
163.782
20
-64.125
11
163.764
21
-63.9255
0
LINE
8
BLACK
6
CONTINUOUS
10
163.764
20
-63.9255
11
163.709
21
-63.7327
0
LINE
8
BLACK
6
CONTINUOUS
10
163.709
20
-63.7327
11
163.621
21
-63.553
0
LINE
8
BLACK
6
CONTINUOUS
10
163.621
20
-63.553
11
163.501
21
-63.3925
0
LINE
8
BLACK
6
CONTINUOUS
10
163.501
20
-63.3925
11
163.354
21
-63.2565
0
LINE
8
BLACK
6
CONTINUOUS
10
163.354
20
-63.2565
11
163.184
21
-63.1496
0
LINE
8
BLACK
6
CONTINUOUS
10
163.184
20
-63.1496
11
162.998
21
-63.0754
0
LINE
8
BLACK
6
CONTINUOUS
10
162.998
20
-63.0754
11
162.802
21
-63.0363
0
LINE
8
BLACK
6
CONTINUOUS
10
162.802
20
-63.0363
11
162.602
21
-63.0337
0
LINE
8
BLACK
6
CONTINUOUS
10
162.602
20
-63.0337
11
162.404
21
-63.0676
0
LINE
8
BLACK
6
CONTINUOUS
10
162.404
20
-63.0676
11
162.216
21
-63.137
0
LINE
8
BLACK
6
CONTINUOUS
10
162.216
20
-63.137
11
162.044
21
-63.2394
0
LINE
8
BLACK
6
CONTINUOUS
10
162.044
20
-63.2394
11
161.893
21
-63.3715
0
LINE
8
BLACK
6
CONTINUOUS
10
161.893
20
-63.3715
11
161.769
21
-63.5288
0
LINE
8
BLACK
6
CONTINUOUS
10
161.769
20
-63.5288
11
161.676
21
-63.7061
0
LINE
8
BLACK
6
CONTINUOUS
10
161.676
20
-63.7061
11
161.617
21
-63.8974
0
LINE
8
BLACK
6
CONTINUOUS
10
161.617
20
-63.8974
11
161.593
21
-64.0963
0
LINE
8
BLACK
6
CONTINUOUS
10
161.593
20
-64.0963
11
161.606
21
-64.2962
0
LINE
8
BLACK
6
CONTINUOUS
10
161.606
20
-64.2962
11
161.656
21
-64.4904
0
LINE
8
BLACK
6
CONTINUOUS
10
218.55
20
-58.9612
11
218.64
21
-58.77
0
LINE
8
BLACK
6
CONTINUOUS
10
218.64
20
-58.77
11
218.761
21
-58.5972
0
LINE
8
BLACK
6
CONTINUOUS
10
218.761
20
-58.5972
11
218.91
21
-58.4481
0
LINE
8
BLACK
6
CONTINUOUS
10
218.91
20
-58.4481
11
219.082
21
-58.3271
0
LINE
8
BLACK
6
CONTINUOUS
10
219.082
20
-58.3271
11
219.274
21
-58.238
0
LINE
8
BLACK
6
CONTINUOUS
10
219.274
20
-58.238
11
219.477
21
-58.1834
0
LINE
8
BLACK
6
CONTINUOUS
10
219.477
20
-58.1834
11
219.688
21
-58.165
0
LINE
8
BLACK
6
CONTINUOUS
10
219.688
20
-58.165
11
219.898
21
-58.1834
0
LINE
8
BLACK
6
CONTINUOUS
10
219.898
20
-58.1834
11
220.101
21
-58.238
0
LINE
8
BLACK
6
CONTINUOUS
10
220.101
20
-58.238
11
220.292
21
-58.3271
0
LINE
8
BLACK
6
CONTINUOUS
10
220.292
20
-58.3271
11
220.465
21
-58.4481
0
LINE
8
BLACK
6
CONTINUOUS
10
220.465
20
-58.4481
11
220.614
21
-58.5972
0
LINE
8
BLACK
6
CONTINUOUS
10
220.614
20
-58.5972
11
220.735
21
-58.77
0
LINE
8
BLACK
6
CONTINUOUS
10
220.735
20
-58.77
11
220.825
21
-58.9612
0
LINE
8
BLACK
6
CONTINUOUS
10
220.825
20
-58.9612
11
220.879
21
-59.1649
0
LINE
8
BLACK
6
CONTINUOUS
10
220.879
20
-59.1649
11
220.897
21
-59.375
0
LINE
8
BLACK
6
CONTINUOUS
10
220.897
20
-59.375
11
220.879
21
-59.5851
0
LINE
8
BLACK
6
CONTINUOUS
10
220.879
20
-59.5851
11
220.825
21
-59.7888
0
LINE
8
BLACK
6
CONTINUOUS
10
220.825
20
-59.7888
11
220.735
21
-59.98
0
LINE
8
BLACK
6
CONTINUOUS
10
220.735
20
-59.98
11
220.614
21
-60.1528
0
LINE
8
BLACK
6
CONTINUOUS
10
220.614
20
-60.1528
11
220.465
21
-60.3019
0
LINE
8
BLACK
6
CONTINUOUS
10
220.465
20
-60.3019
11
220.292
21
-60.4229
0
LINE
8
BLACK
6
CONTINUOUS
10
220.292
20
-60.4229
11
220.101
21
-60.512
0
LINE
8
BLACK
6
CONTINUOUS
10
220.101
20
-60.512
11
219.898
21
-60.5666
0
LINE
8
BLACK
6
CONTINUOUS
10
219.898
20
-60.5666
11
219.688
21
-60.585
0
LINE
8
BLACK
6
CONTINUOUS
10
219.688
20
-60.585
11
219.477
21
-60.5666
0
LINE
8
BLACK
6
CONTINUOUS
10
219.477
20
-60.5666
11
219.274
21
-60.512
0
LINE
8
BLACK
6
CONTINUOUS
10
219.274
20
-60.512
11
219.082
21
-60.4229
0
LINE
8
BLACK
6
CONTINUOUS
10
219.082
20
-60.4229
11
218.91
21
-60.3019
0
LINE
8
BLACK
6
CONTINUOUS
10
218.91
20
-60.3019
11
218.761
21
-60.1528
0
LINE
8
BLACK
6
CONTINUOUS
10
218.761
20
-60.1528
11
218.64
21
-59.98
0
LINE
8
BLACK
6
CONTINUOUS
10
218.64
20
-59.98
11
218.55
21
-59.7888
0
LINE
8
BLACK
6
CONTINUOUS
10
218.55
20
-59.7888
11
218.496
21
-59.5851
0
LINE
8
BLACK
6
CONTINUOUS
10
218.496
20
-59.5851
11
218.477
21
-59.375
0
LINE
8
BLACK
6
CONTINUOUS
10
218.477
20
-59.375
11
218.48
21
-59.3463
0
LINE
8
BLACK
6
CONTINUOUS
10
218.48
20
-59.3463
11
218.496
21
-59.1649
0
LINE
8
BLACK
6
CONTINUOUS
10
218.496
20
-59.1649
11
218.55
21
-58.9612
0
LINE
8
BLACK
6
CONTINUOUS
10
218.656
20
-59.7404
11
218.739
21
-59.9223
0
LINE
8
BLACK
6
CONTINUOUS
10
218.739
20
-59.9223
11
218.855
21
-60.0859
0
LINE
8
BLACK
6
CONTINUOUS
10
218.855
20
-60.0859
11
218.999
21
-60.2257
0
LINE
8
BLACK
6
CONTINUOUS
10
218.999
20
-60.2257
11
219.165
21
-60.337
0
LINE
8
BLACK
6
CONTINUOUS
10
219.165
20
-60.337
11
219.349
21
-60.4161
0
LINE
8
BLACK
6
CONTINUOUS
10
219.349
20
-60.4161
11
219.545
21
-60.4603
0
LINE
8
BLACK
6
CONTINUOUS
10
219.545
20
-60.4603
11
219.745
21
-60.4682
0
LINE
8
BLACK
6
CONTINUOUS
10
219.745
20
-60.4682
11
219.943
21
-60.4394
0
LINE
8
BLACK
6
CONTINUOUS
10
219.943
20
-60.4394
11
220.133
21
-60.375
0
LINE
8
BLACK
6
CONTINUOUS
10
220.133
20
-60.375
11
220.308
21
-60.2771
0
LINE
8
BLACK
6
CONTINUOUS
10
220.308
20
-60.2771
11
220.462
21
-60.149
0
LINE
8
BLACK
6
CONTINUOUS
10
220.462
20
-60.149
11
220.59
21
-59.995
0
LINE
8
BLACK
6
CONTINUOUS
10
220.59
20
-59.995
11
220.688
21
-59.8202
0
LINE
8
BLACK
6
CONTINUOUS
10
220.688
20
-59.8202
11
220.752
21
-59.6305
0
LINE
8
BLACK
6
CONTINUOUS
10
220.752
20
-59.6305
11
220.781
21
-59.4323
0
LINE
8
BLACK
6
CONTINUOUS
10
220.781
20
-59.4323
11
220.782
21
-59.375
0
LINE
8
BLACK
6
CONTINUOUS
10
220.782
20
-59.375
11
220.764
21
-59.1755
0
LINE
8
BLACK
6
CONTINUOUS
10
220.764
20
-59.1755
11
220.709
21
-58.9827
0
LINE
8
BLACK
6
CONTINUOUS
10
220.709
20
-58.9827
11
220.621
21
-58.803
0
LINE
8
BLACK
6
CONTINUOUS
10
220.621
20
-58.803
11
220.501
21
-58.6425
0
LINE
8
BLACK
6
CONTINUOUS
10
220.501
20
-58.6425
11
220.354
21
-58.5065
0
LINE
8
BLACK
6
CONTINUOUS
10
220.354
20
-58.5065
11
220.184
21
-58.3996
0
LINE
8
BLACK
6
CONTINUOUS
10
220.184
20
-58.3996
11
219.998
21
-58.3254
0
LINE
8
BLACK
6
CONTINUOUS
10
219.998
20
-58.3254
11
219.802
21
-58.2863
0
LINE
8
BLACK
6
CONTINUOUS
10
219.802
20
-58.2863
11
219.602
21
-58.2837
0
LINE
8
BLACK
6
CONTINUOUS
10
219.602
20
-58.2837
11
219.404
21
-58.3176
0
LINE
8
BLACK
6
CONTINUOUS
10
219.404
20
-58.3176
11
219.216
21
-58.387
0
LINE
8
BLACK
6
CONTINUOUS
10
219.216
20
-58.387
11
219.044
21
-58.4894
0
LINE
8
BLACK
6
CONTINUOUS
10
219.044
20
-58.4894
11
218.893
21
-58.6215
0
LINE
8
BLACK
6
CONTINUOUS
10
218.893
20
-58.6215
11
218.769
21
-58.7788
0
LINE
8
BLACK
6
CONTINUOUS
10
218.769
20
-58.7788
11
218.676
21
-58.9561
0
LINE
8
BLACK
6
CONTINUOUS
10
218.676
20
-58.9561
11
218.617
21
-59.1474
0
LINE
8
BLACK
6
CONTINUOUS
10
218.617
20
-59.1474
11
218.593
21
-59.3463
0
LINE
8
BLACK
6
CONTINUOUS
10
218.593
20
-59.3463
11
218.606
21
-59.5462
0
LINE
8
BLACK
6
CONTINUOUS
10
218.606
20
-59.5462
11
218.656
21
-59.7404
  0
ENDSEC
  0
EOF
