<?xml version="1.0" standalone="no"?>
 <!DOCTYPE svg PUBLIC "-//W3C//DTD SVG 1.1//EN" 
 "http://www.w3.org/Graphics/SVG/1.1/DTD/svg11.dtd"> 
<svg
  xmlns:svg="http://www.w3.org/2000/svg"
  xmlns="http://www.w3.org/2000/svg"
  xmlns:xlink="http://www.w3.org/1999/xlink"
  version="1.1"
  width="29.700220cm" height="21.000720cm" viewBox="0 0 297002200 210007200">
<title>SVG Picture created as jantor-Edge_Cuts.svg date 2023/01/01 15:08:23 </title>
  <desc>Picture generated by PCBNEW </desc>
<g style="fill:#000000; fill-opacity:1.000000;stroke:#000000; stroke-opacity:1.000000;
stroke-linecap:round; stroke-linejoin:round;"
 transform="translate(0 0) scale(1 1)">
</g>
<g style="fill:#000000; fill-opacity:0.0; 
stroke:#000000; stroke-width:0.000000; stroke-opacity:1; 
stroke-linecap:round; stroke-linejoin:round;">
</g>
<g style="fill:#000000; fill-opacity:0.0; 
stroke:#000000; stroke-width:100000.000000; stroke-opacity:1; 
stroke-linecap:round; stroke-linejoin:round;">
<path d="M-56499985 81621359
L-60499984 81621355
" />
<path d="M-63499984 100621356
L-66499982 100621362
" />
<path d="M-33499985.998819 23121337.001976 A1499923.000000 1499923.000000 0.0 0 0 -34999985.996733 24621359.000000" />
<path d="M18000024.000000 130121358.000000 A2500115.000000 2500115.000000 0.0 0 0 18263942.963941 131239393.018029" />
<path d="M-11999985 23121358
L-33499986 23121360
" />
<path d="M18000037.999997 106621360.000048 A1499999.000000 1499999.000000 0.0 0 0 16500013.000000 105121358.000225" />
<path d="M-66499987 124621361
L-65999984 124621359
" />
<path d="M-67999988 102121359
L-67999986 105121356
" />
<path d="M-10499953.000016 24621354.999851 A1500004.000000 1500004.000000 0.0 0 0 -11999985.000000 23121358.000261" />
<path d="M30500009.321979 166621361.321966 A2121301.000000 2121301.000000 0.0 0 0 30897380.694663 164172675.152671" />
<path d="M18000014 130121358
L18000014 106621360
" />
<path d="M-53499985.000068 42121362.003401 A1499897.000000 1499897.000000 0.0 0 0 -54999982.996599 43621360.000000" />
<path d="M-67999986 105121356
L-67999990 123121355
" />
<path d="M-61999988 83121358
L-61999985 99121359
" />
<path d="M-10499984 40621363
L-10499985 24621355
" />
<path d="M2500011.079487 188621393.593986 A7867158.000000 7867158.000000 0.0 0 0 7500012.877291 186621358.862835" />
<path d="M-67999989.999493 123121355.000000 A1500045.000000 1500045.000000 0.0 0 0 -66499987.000000 124621360.999412" />
<path d="M-64499995 187121358
L-64499985 126121360
" />
<path d="M5500014 42121356
L-8999985 42121361
" />
<path d="M7000011 103621361
L7000014 43621358
" />
<path d="M-36499986 42121362
L-53499985 42121361
" />
<path d="M-60499984.000416 81621361.003606 A1499900.000000 1499900.000000 0.0 0 0 -61999987.996863 83121358.000000" />
<path d="M-54999983 43621360
L-54999987 80121357
" />
<path d="M-36499986.001584 42121328.998272 A1500071.000000 1500071.000000 0.0 0 0 -34999987.003201 40621356.000000" />
<path d="M16500013 105121358
L8500015 105121358
" />
<path d="M-63499983.999446 100621363.996395 A1500103.000000 1500103.000000 0.0 0 0 -61999985.003201 99121359.000000" />
<path d="M7000038.000005 103621360.999928 A1500001.000000 1500001.000000 0.0 0 0 8500015.000000 105121357.999808" />
<path d="M-10499961.999997 40621362.999956 A1500001.000000 1500001.000000 0.0 0 0 -8999985.000000 42121360.999808" />
<path d="M30500010 166621362
L7500013 186621359
" />
<path d="M-64499989.000768 126121359.999872 A1499953.000000 1499953.000000 0.0 0 0 -65999984.000000 124621359.000588" />
<path d="M-34999986 24621359
L-34999987 40621356
" />
<path d="M-64499994.995358 187121358.000000 A1499884.000000 1499884.000000 0.0 0 0 -62999987.000000 188621359.994874" />
<path d="M30897381 164172675
L18263943 131239393
" />
<path d="M-66499981.999720 100621358.003675 A1499901.000000 1499901.000000 0.0 0 0 -67999987.996666 102121359.000000" />
<path d="M-56499985.000065 81621357.996864 A1500095.000000 1500095.000000 0.0 0 0 -54999987.002945 80121357.000000" />
<path d="M7000040.999999 43621357.999964 A1500004.000000 1500004.000000 0.0 0 0 5500014.000000 42121356.000176" />
<path d="M2500010 188621359
L-62999987 188621360
" />
<path d="M291939341 116060660
L294939338 116060661
" />
<path d="M261939339.002054 193560739.999493 A1500039.000000 1500039.000000 0.0 0 0 263439338.999493 192060662.000000" />
<path d="M210439339.999971 86560662.999995 A2500106.000000 2500106.000000 0.0 0 0 210175411.986575 85442624.006712" />
<path d="M240439337 193560662
L261939339 193560661
" />
<path d="M210439340.000001 110060659.000000 A1499999.000000 1499999.000000 0.0 0 0 211939339.000000 111560660.000000" />
<path d="M294939340 92060661
L294439340 92060661
" />
<path d="M296439340 114560660
L296439342 111560660
" />
<path d="M238939339.000001 192060663.999997 A1500000.000000 1500000.000000 0.0 0 0 240439337.000000 193560661.999999" />
<path d="M197939339.071360 50060661.071360 A2121316.000000 2121316.000000 0.0 0 0 197541976.088905 52509344.955547" />
<path d="M210439339 86560663
L210439340 110060659
" />
<path d="M281939340.002323 174560740.999440 A1500039.000000 1500039.000000 0.0 0 0 283439337.999412 173060660.000000" />
<path d="M296439342 111560660
L296439341 93560661
" />
<path d="M290439342 133560662
L290439341 117560660
" />
<path d="M238939336 176060657
L238939337 192060664
" />
<path d="M284939339 135060659
L288939341 135060660
" />
<path d="M284939338.997731 135060742.000560 A1499958.000000 1499958.000000 0.0 0 0 283439340.000533 136560660.000000" />
<path d="M221439336.000001 173060662.000009 A1500000.000000 1500000.000000 0.0 0 0 222939339.000000 174560659.999997" />
<path d="M225939341 28060661
L291439339 28060658
" />
<path d="M263439339 192060662
L263439342 176060661
" />
<path d="M197939338 50060660
L220939344 30060661
" />
<path d="M292939336.000560 90560656.999891 A1499963.000000 1499963.000000 0.0 0 0 294439340.000000 92060660.999440" />
<path d="M292939436.999568 29560661.997840 A1500040.000000 1500040.000000 0.0 0 0 291439339.000000 28060658.001121" />
<path d="M264939339.997731 174560743.000560 A1499957.000000 1499957.000000 0.0 0 0 263439342.000507 176060661.000000" />
<path d="M211939339 111560660
L219939337 111560663
" />
<path d="M291939340.997621 116060743.000616 A1499957.000000 1499957.000000 0.0 0 0 290439341.000533 117560660.000000" />
<path d="M225939341.146657 28060665.700907 A7867121.000000 7867121.000000 0.0 0 0 220939344.107180 30060661.119808" />
<path d="M296439336.999493 93560661.000104 A1500039.000000 1500039.000000 0.0 0 0 294939340.000000 92060661.000588" />
<path d="M292939347 29560662
L292939340 90560657
" />
<path d="M222939339 174560660
L237439341 174560658
" />
<path d="M221439340 113060658
L221439343 173060662
" />
<path d="M264939340 174560660
L281939340 174560656
" />
<path d="M288939341.002552 135060746.999355 A1500045.000000 1500045.000000 0.0 0 0 290439341.999467 133560662.000000" />
<path d="M283439338 173060660
L283439340 136560660
" />
<path d="M221439338.999999 113060658.000001 A1499997.000000 1499997.000000 0.0 0 0 219939337.000000 111560663.000008" />
<path d="M238939329.999997 176060657.000012 A1500002.000000 1500002.000000 0.0 0 0 237439341.000000 174560658.000056" />
<path d="M197541976 52509345
L210175412 85442624
" />
<path d="M294939338.002160 116060741.999467 A1500042.000000 1500042.000000 0.0 0 0 296439339.999467 114560660.000000" />
<path d="M202500000.000000 104000001.000000 A1499999.000000 1499999.000000 0.0 0 0 201000000.000000 102500001.000000" />
<path d="M143500001 44000002
L128999999 44000000
" />
<path d="M116236071 133118035
L103602635 166051316
" />
<path d="M143500000.999995 43999997.999999 A1499999.000000 1499999.000000 0.0 0 0 144999997.999995 42500003.000000" />
<path d="M125999996.999998 106999997.999997 A1499999.000000 1499999.000000 0.0 0 0 127499999.000000 105500000.000000" />
<path d="M189500001 82000000
L189499998 45500000
" />
<path d="M196500001.999999 84999999.000000 A1500002.000000 1500002.000000 0.0 0 0 194999999.000000 83499999.000000" />
<path d="M188000000 44000004
L171000002 44000002
" />
<path d="M37999999.000005 170000000.000003 A1500003.000000 1500003.000000 0.0 0 0 39499999.000000 171499998.999997" />
<path d="M127500000 45499999
L127499999 105500000
" />
<path d="M111263932 82381966
L123897367 49448683
" />
<path d="M126999998.587664 188500002.696556 A7867150.000000 7867150.000000 0.0 0 0 132000002.996215 190500000.121322" />
<path d="M196500000.000000 101000000.000000 A1500000.000000 1500000.000000 0.0 0 0 198000001.000000 102500000.000000" />
<path d="M125999997 106999997
L117999999 107000000
" />
<path d="M25000003.000000 111500000.000001 A1499998.000000 1499998.000000 0.0 0 0 26500000.000000 112999999.000000" />
<path d="M24999999 90500000
L25000000 108499999
" />
<path d="M100500000 27000001
L123500002 47000000
" />
<path d="M199000000 128000003
L199000007 188999998
" />
<path d="M200999999.999999 126500001.000000 A1500000.000000 1500000.000000 0.0 0 0 202500000.999999 124999999.000000" />
<path d="M169500000.000000 42499999.999999 A1500001.000000 1500001.000000 0.0 0 0 171000002.000000 44000002.000000" />
<path d="M101499999.999999 108499999.000000 A1500001.000000 1500001.000000 0.0 0 0 100000000.000000 110000000.000000" />
<path d="M197500001.000010 190499999.999925 A1499991.000000 1499991.000000 0.0 0 0 199000006.999960 188999998.000000" />
<path d="M200499999.999999 126499999.000000 A1500001.000000 1500001.000000 0.0 0 0 199000000.000003 128000003.000000" />
<path d="M127000001 188500000
L104000000 168500001
" />
<path d="M84000000.999999 171500001.000000 A1500000.000000 1500000.000000 0.0 0 0 82500000.000001 172999999.000000" />
<path d="M26999999 89000001
L26500000 88999999
" />
<path d="M111263930.633646 82381965.316824 A2500002.000000 2500002.000000 0.0 0 0 110999999.000000 83499999.000000" />
<path d="M100000000 170000000
L100000000 110000000
" />
<path d="M39499999 171499999
L56499999 171500000
" />
<path d="M169500001 42500000
L169499999 26500000
" />
<path d="M197500001 190500001
L132000003 190500000
" />
<path d="M128999999.000000 44000000.000000 A1500000.000000 1500000.000000 0.0 0 0 127500000.000000 45499999.000000" />
<path d="M189500001.000000 82000000.000000 A1499999.000000 1499999.000000 0.0 0 0 191000000.000000 83499999.000000" />
<path d="M29999999.000000 25000001.000000 A1499999.000000 1499999.000000 0.0 0 0 28500001.000000 26500000.000000" />
<path d="M111000000 107000001
L110999999 83499999
" />
<path d="M59500000 190500000
L81000000 190499999
" />
<path d="M194999999 83499999
L191000000 83499999
" />
<path d="M38000000 133500000
L38000000 170000000
" />
<path d="M144999997 26499996
L144999998 42500003
" />
<path d="M196500001 101000000
L196500002 84999999
" />
<path d="M98499999.999999 171500000.000000 A1500001.000000 1500001.000000 0.0 0 0 100000000.000000 170000000.000000" />
<path d="M31000000.000000 114500000.000000 A1500000.000000 1500000.000000 0.0 0 0 29500000.000000 113000000.000000" />
<path d="M202500001 124999999
L202500002 106999999
" />
<path d="M189499994.000000 45499999.999997 A1499995.000000 1499995.000000 0.0 0 0 188000000.000000 44000004.000000" />
<path d="M58000000 173000000
L57999999 189000000
" />
<path d="M31000000 114500000
L31000000 130500001
" />
<path d="M116500000 108500001
L116499999 131999999
" />
<path d="M38000002.000000 133499999.999999 A1500002.000000 1500002.000000 0.0 0 0 36500001.000000 131999999.000000" />
<path d="M25000000 108499999
L25000001 111500000
" />
<path d="M81000000.000000 190499999.000000 A1500001.000000 1500001.000000 0.0 0 0 82500001.000000 188999999.000000" />
<path d="M103602633.911190 166051315.455593 A2121320.000000 2121320.000000 0.0 0 0 103999999.742934 168500001.257067" />
<path d="M146499996.999998 24999997.000003 A1500003.000000 1500003.000000 0.0 0 0 144999997.000005 26499996.000000" />
<path d="M202500002 106999999
L202500000 104000001
" />
<path d="M109500000.000001 108499998.000000 A1499999.000000 1499999.000000 0.0 0 0 110999999.999999 107000001.000000" />
<path d="M26500000.000000 88999998.000000 A1500001.000000 1500001.000000 0.0 0 0 24999999.000000 90500000.000000" />
<path d="M30999999.000000 130500001.000001 A1500001.000000 1500001.000000 0.0 0 0 32499999.000000 132000001.000000" />
<path d="M200500000 126500000
L201000000 126499999
" />
<path d="M82500001 188999999
L82500000 172999999
" />
<path d="M57999999.000003 189000000.000000 A1500003.000000 1500003.000000 0.0 0 0 59500000.000000 190499999.999999" />
<path d="M26500000 112999999
L29500000 113000000
" />
<path d="M26999999.000001 88999999.000000 A1500000.000000 1500000.000000 0.0 0 0 28500000.000000 87500000.000000" />
<path d="M117999998.999999 106999999.000000 A1500000.000000 1500000.000000 0.0 0 0 116500000.000001 108500001.000000" />
<path d="M167999999 24999999
L146499997 24999998
" />
<path d="M116236066.883073 133118032.941536 A2499999.000000 2499999.000000 0.0 0 0 116499999.000000 131999999.000000" />
<path d="M101500000 108500000
L109500000 108500000
" />
<path d="M123897367.477666 49448683.238833 A2121322.000000 2121322.000000 0.0 0 0 123500001.671279 47000000.328720" />
<path d="M32499999 132000001
L36500001 131999999
" />
<path d="M100500009.280236 26999990.626369 A7867125.000000 7867125.000000 0.0 0 0 95500000.993630 25000000.204192" />
<path d="M57999999.999999 173000000.000000 A1499998.000000 1499998.000000 0.0 0 0 56499999.000000 171500000.000003" />
<path d="M84000001 171500000
L98500000 171500001
" />
<path d="M169500001.000000 26500000.000000 A1500001.000000 1500001.000000 0.0 0 0 167999999.000000 24999999.000000" />
<path d="M28500000 87500000
L28500001 26500000
" />
<path d="M29999999 25000001
L95500001 25000000
" />
<path d="M201000000 102500001
L198000001 102500000
" />
<g >
</g>
<g >
</g>
<g >
</g>
</g> 
</svg>
