<?xml version="1.0" standalone="no"?>
 <!DOCTYPE svg PUBLIC "-//W3C//DTD SVG 1.1//EN" 
 "http://www.w3.org/Graphics/SVG/1.1/DTD/svg11.dtd"> 
<svg
  xmlns:svg="http://www.w3.org/2000/svg"
  xmlns="http://www.w3.org/2000/svg"
  xmlns:xlink="http://www.w3.org/1999/xlink"
  version="1.1"
  width="29.700220cm" height="21.000720cm" viewBox="0 0 297002200 210007200">
<title>SVG Picture created as jantor-Edge_Cuts.svg date 2023/01/01 13:51:43 </title>
  <desc>Picture generated by PCBNEW </desc>
<g style="fill:#000000; fill-opacity:1.000000;stroke:#000000; stroke-opacity:1.000000;
stroke-linecap:round; stroke-linejoin:round;"
 transform="translate(0 0) scale(1 1)">
</g>
<g style="fill:#000000; fill-opacity:0.0; 
stroke:#000000; stroke-width:0.000000; stroke-opacity:1; 
stroke-linecap:round; stroke-linejoin:round;">
</g>
<g style="fill:#000000; fill-opacity:0.0; 
stroke:#000000; stroke-width:100000.000000; stroke-opacity:1; 
stroke-linecap:round; stroke-linejoin:round;">
<path d="M-32500000 147500001
L-32499998 82000003
" />
<path d="M29999998 149000000
L-30999998 149000007
" />
<path d="M113999998 93500002
L113999999 78999999
" />
<path d="M115500000.000000 119499998.000000 A1500002.000000 1500002.000000 0.0 0 0 113999998.000000 121000001.000000" />
<path d="M-30499989.788847 77000011.029649 A7867023.000000 7867023.000000 0.0 0 0 -32499997.839732 82000003.005000" />
<path d="M74500000 144999999
L74500000 141000000
" />
<path d="M-8051316.408380 53602632.816761 A2121321.000000 2121321.000000 0.0 0 0 -10500000.964173 54000000.035827" />
<path d="M51000002 75999997
L51000000 68000000
" />
<path d="M31500000.999999 150499999.999999 A1500002.000000 1500002.000000 0.0 0 0 29999998.000000 149000000.000000" />
<path d="M55500000 151000000
L55500000 148000000
" />
<path d="M131500000.000000 119500000.000000 A1500000.000000 1500000.000000 0.0 0 0 133000000.000000 118000000.000000" />
<path d="M131500002 94999997
L115499997 94999998
" />
<path d="M73000000.000001 146500002.000000 A1500001.000000 1500001.000000 0.0 0 0 74499999.999999 144999999.000000" />
<path d="M31499999.000000 151000000.000001 A1500001.000000 1500001.000000 0.0 0 0 33000000.000000 152500000.000000" />
<path d="M51000001.999995 67999999.999995 A1500004.000000 1500004.000000 0.0 0 0 49500000.000000 66500000.000001" />
<path d="M133000002.999997 96499996.999998 A1500003.000000 1500003.000000 0.0 0 0 131500002.000000 94999997.000001" />
<path d="M51000001 152500002
L54000000 152500000
" />
<path d="M76000000.000000 139500000.000000 A1500000.000000 1500000.000000 0.0 0 0 74500000.000000 141000000.000000" />
<path d="M56999999 146500000
L73000000 146500000
" />
<path d="M115500000 119500000
L131500000 119500000
" />
<path d="M56999999.000000 146500002.000000 A1499999.000000 1499999.000000 0.0 0 0 55500000.000000 148000000.000000" />
<path d="M113999997.000000 78999998.999999 A1499998.000000 1499998.000000 0.0 0 0 112500000.000000 77500000.000000" />
<path d="M76000000 139500000
L112500001 139499998
" />
<path d="M133000000 118000000
L133000002 96499997
" />
<path d="M49500000 66500000
L26000002 66499999
" />
<path d="M-32500010.999997 147500001.000022 A1500009.000000 1500009.000000 0.0 0 0 -30999998.000000 149000006.999995" />
<path d="M113999996 138000000
L113999998 121000001
" />
<path d="M112500000 77500000
L52500000 77500000
" />
<path d="M24881967.258463 66236067.483072 A2499999.000000 2499999.000000 0.0 0 0 26000002.000000 66499998.999999" />
<path d="M31500000 150500000
L31500000 151000000
" />
<path d="M114000003.000001 93500001.999993 A1499998.000000 1499998.000000 0.0 0 0 115499997.000000 94999997.999995" />
<path d="M51000000.000003 75999996.999996 A1500000.000000 1500000.000000 0.0 0 0 52500000.000000 77500000.000000" />
<path d="M-30500001 77000001
L-10500001 54000000
" />
<path d="M33000000 152500000
L51000001 152500002
" />
<path d="M54000000.000008 152500005.999999 A1500002.000000 1500002.000000 0.0 0 0 55499999.999995 151000000.000000" />
<path d="M112500001.000003 139499994.000000 A1499994.000000 1499994.000000 0.0 0 0 113999996.000000 138000000.000000" />
<path d="M24881966 66236070
L-8051317 53602634
" />
<path d="M-12000000.000000 -11999999.999999 A1500002.000000 1500002.000000 0.0 0 0 -13499999.999999 -10500000.000000" />
<path d="M75618034 61263932
L108551317 73897366
" />
<path d="M46500000.000000 -25000000.000000 A1500000.000000 1500000.000000 0.0 0 0 45000000.000000 -23500000.000000" />
<path d="M67500000 -25000000
L49500000 -25000000
" />
<path d="M131000000 50500000
L111000000 73500000
" />
<path d="M49500000.000000 51500000.000000 A1500000.000000 1500000.000000 0.0 0 0 48000000.000000 50000000.000000" />
<path d="M-13500000.000000 34000000.000000 A1500001.000000 1500001.000000 0.0 0 0 -15000000.000000 32500000.000000" />
<path d="M69000000 -23000000
L69000000 -23500000
" />
<path d="M75618033.988750 61263932.022500 A2500000.000000 2500000.000000 0.0 0 0 74500000.000000 61000000.000000" />
<path d="M-12000000 50000000
L48000000 50000000
" />
<path d="M-13500000 -10500000
L-13500000 6500000
" />
<path d="M133000000.000000 -20000000.000000 A1500000.000000 1500000.000000 0.0 0 0 131500000.000000 -21500000.000000" />
<path d="M51000000 61000000
L74500000 61000000
" />
<path d="M-32500000 9500000
L-32500000 31000000
" />
<path d="M24500000 -12000000
L-12000000 -12000000
" />
<path d="M-13500000.000000 48500000.000000 A1500001.000000 1500001.000000 0.0 0 0 -12000000.000000 50000000.000000" />
<path d="M43500000.000000 -19000000.000000 A1500000.000000 1500000.000000 0.0 0 0 45000000.000000 -20500000.000000" />
<path d="M-15000000 8000000
L-31000000 8000000
" />
<path d="M43500000 -19000000
L27500000 -19000000
" />
<path d="M24500000.000000 -12000000.000000 A1500000.000000 1500000.000000 0.0 0 0 26000000.000000 -13500000.000000" />
<path d="M49500000 -25000000
L46500000 -25000000
" />
<path d="M-32500000.000000 31000000.000000 A1500001.000000 1500001.000000 0.0 0 0 -31000000.000000 32500000.000000" />
<path d="M49500000.000000 59500000.000000 A1500000.000000 1500000.000000 0.0 0 0 51000000.000000 61000000.000000" />
<path d="M69000000.000000 -23500000.000000 A1500000.000000 1500000.000000 0.0 0 0 67500000.000000 -25000000.000000" />
<path d="M27500000.000000 -19000000.000000 A1500000.000000 1500000.000000 0.0 0 0 26000000.000000 -17500000.000000" />
<path d="M-31000000 32500000
L-15000000 32500000
" />
<path d="M-31000000.000000 8000000.000001 A1500002.000000 1500002.000000 0.0 0 0 -32499999.999999 9500000.000000" />
<path d="M45000000 -23500000
L45000000 -20500000
" />
<path d="M69000000.000000 -23000000.000000 A1500000.000000 1500000.000000 0.0 0 0 70500000.000000 -21500000.000000" />
<path d="M49500000 51500000
L49500000 59500000
" />
<path d="M108551316.855594 73897366.288812 A2121320.000000 2121320.000000 0.0 0 0 110999999.757067 73499999.757067" />
<path d="M26000000 -17500000
L26000000 -13500000
" />
<path d="M131000009.321256 50500008.338782 A7867125.000000 7867125.000000 0.0 0 0 132999999.795808 45499999.993630" />
<path d="M-15000000.000000 7999999.999997 A1499997.000000 1499997.000000 0.0 0 0 -13500000.000003 6500000.000000" />
<path d="M-13500000 34000000
L-13500000 48500000
" />
<path d="M70500000 -21500000
L131500000 -21500000
" />
<path d="M133000000 -20000000
L133000000 45500000
" />
<g >
</g>
<g >
</g>
<g >
</g>
</g> 
</svg>
