<?xml version="1.0" standalone="no"?>
 <!DOCTYPE svg PUBLIC "-//W3C//DTD SVG 1.1//EN" 
 "http://www.w3.org/Graphics/SVG/1.1/DTD/svg11.dtd"> 
<svg
  xmlns:svg="http://www.w3.org/2000/svg"
  xmlns="http://www.w3.org/2000/svg"
  xmlns:xlink="http://www.w3.org/1999/xlink"
  version="1.1"
  width="29.700220cm" height="21.000720cm" viewBox="0 0 297002200 210007200">
<title>SVG Picture created as jantor-Edge_Cuts.svg date 2023/01/01 14:28:34 </title>
  <desc>Picture generated by PCBNEW </desc>
<g style="fill:#000000; fill-opacity:1.000000;stroke:#000000; stroke-opacity:1.000000;
stroke-linecap:round; stroke-linejoin:round;"
 transform="translate(0 0) scale(1 1)">
</g>
<g style="fill:#000000; fill-opacity:0.0; 
stroke:#000000; stroke-width:0.000000; stroke-opacity:1; 
stroke-linecap:round; stroke-linejoin:round;">
</g>
<g style="fill:#000000; fill-opacity:0.0; 
stroke:#000000; stroke-width:100000.000000; stroke-opacity:1; 
stroke-linecap:round; stroke-linejoin:round;">
<path d="M64158287 67810465
L60002037 71372962
" />
<path d="M225345789 107529214
L220455163 112044839
" />
<path d="M225502038 79451087
L225502038 91001087
" />
<path d="M143861411.000071 143126086.000371 A593727.000000 593727.000000 0.0 0 0 143267663.000485 143719837.000000" />
<path d="M201611414 88204212
L201611413 104829214
" />
<path d="M202205159 87610464
L220017661 87610462
" />
<path d="M165392662.999340 98891713.000047 A593724.000000 593724.000000 0.0 0 0 164798911.000000 98297961.000660" />
<path d="M225345786 119079211
L225345789 107529214
" />
<path d="M118502040 121001089
L142002037 121001088
" />
<path d="M220455163 115219836
L220455163 112044839
" />
<path d="M59845788.000000 148579212.000000 A1500001.000000 1500001.000000 0.0 0 0 61345788.000000 150079212.000000" />
<path d="M201455163 116407335
L201455164 135407337
" />
<path d="M64002038 144610462
L64002038 119169838
" />
<path d="M118189536 116110464
L83752036 126797959
" />
<path d="M206345789 139079213
L206345789 122079214
" />
<path d="M138080163.000000 116110460.999340 A593776.000000 593776.000000 0.0 0 0 138673910.999431 115516711.000000" />
<path d="M145002038 110001090
L205002039 110001086
" />
<path d="M118502040.000005 121001086.000003 A2499996.000000 2499996.000000 0.0 0 0 117384002.200105 121265018.400209" />
<path d="M161673913 143126088
L143861411 143126088
" />
<path d="M128423915.000660 148469838.999811 A593776.000000 593776.000000 0.0 0 0 129017664.000000 149063586.999386" />
<path d="M200861414.000000 136001087.000000 A593750.000000 593750.000000 0.0 0 0 201455164.000000 135407337.000000" />
<path d="M162267665 136594837
L162267664 142532337
" />
<path d="M165392662 98891713
L165392663 104829212
" />
<path d="M123845788 151579212
L123845788 152079212
" />
<path d="M208002039.000020 92501086.000012 A1499995.000000 1499995.000000 0.0 0 0 206502038.000005 94001085.000000" />
<path d="M145002038.000000 110001086.000000 A1500000.000000 1500000.000000 0.0 0 0 143502038.000000 111501087.000000" />
<path d="M219861413 115813589
L202048912 115813584
" />
<path d="M64158290.002022 106610461.999835 A593796.000000 593796.000000 0.0 0 0 64752038.000000 107204208.998060" />
<path d="M82002038 133501087
L62002041 110501088
" />
<path d="M125345788 153579210
L143345788 153579212
" />
<path d="M146345788.000003 153579213.999999 A1500002.000000 1500002.000000 0.0 0 0 147845788.000000 152079212.000000" />
<path d="M128423911 148469839
L128423913 145797962
" />
<path d="M142673912 149063588
L129017664 149063587
" />
<path d="M143267663 143719837
L143267663 148469837
" />
<path d="M128423914.999946 145797962.000027 A593744.000000 593744.000000 0.0 0 0 127830163.000000 145204210.000054" />
<path d="M72470787 107204215
L64752038 107204209
" />
<path d="M84450717 133898453
L117384002 121265018
" />
<path d="M204845788.000001 140579213.000000 A1500002.000000 1500002.000000 0.0 0 0 206345788.999999 139079213.000000" />
<path d="M220017660.999998 87610462.999999 A593753.000000 593753.000000 0.0 0 0 220611414.999999 87016709.000000" />
<path d="M138080163 116110461
L118189536 116110464
" />
<path d="M83752036 126797959
L72470787 107204215
" />
<path d="M162861412.999958 136001089.000526 A593723.000000 593723.000000 0.0 0 0 162267665.000526 136594837.000000" />
<path d="M64002040.015809 144610462.000465 A593614.000000 593614.000000 0.0 0 0 64595788.999997 145204212.984649" />
<path d="M220611415 74935464
L225502038 79451087
" />
<path d="M220611415 74935464
L220611415 87016709
" />
<path d="M60002037 71372962
L60002037 105501090
" />
<path d="M64158288 106610462
L64158287 67810465
" />
<path d="M59845787 115607339
L64002038 119169838
" />
<path d="M64595789 145204213
L127830163 145204210
" />
<path d="M200861414 136001087
L162861413 136001088
" />
<path d="M59845788 148579212
L59845787 115607339
" />
<path d="M201017663.999973 105422963.999987 A593745.000000 593745.000000 0.0 0 0 201611412.999979 104829214.000000" />
<path d="M165986411 105422961
L196564538 105422961
" />
<path d="M122345789 150079211
L61345788 150079212
" />
<path d="M206502040 108501088
L206502038 94001085
" />
<path d="M207845787.000003 120579211.000001 A1499996.000000 1499996.000000 0.0 0 0 206345789.000016 122079214.000000" />
<path d="M219861413.000003 115813586.999999 A593749.000000 593749.000000 0.0 0 0 220455162.999997 115219836.000000" />
<path d="M60002038.242463 105501089.961231 A7867230.000000 7867230.000000 0.0 0 0 62002041.268586 110501087.759724" />
<path d="M166845789 146079212
L166845788 142079212
" />
<path d="M82002039.242933 133501085.757065 A2121320.000000 2121320.000000 0.0 0 0 84450717.144403 133898453.288808" />
<path d="M143502037 119501090
L143502038 111501087
" />
<path d="M123845788.000000 151579212.000000 A1500002.000000 1500002.000000 0.0 0 0 122345789.000000 150079211.000003" />
<path d="M147845788 152079212
L147845788 149079212
" />
<path d="M223845788.000004 120579213.999997 A1500001.000000 1500001.000000 0.0 0 0 225345785.999999 119079211.000000" />
<path d="M208002039 92501091
L224002037 92501088
" />
<path d="M165345790.000000 147579212.999999 A1500001.000000 1500001.000000 0.0 0 0 166845789.000000 146079212.000000" />
<path d="M123845790.000000 152079211.999999 A1499999.000000 1499999.000000 0.0 0 0 125345788.000000 153579210.000000" />
<path d="M142002037.000001 121001088.999999 A1500002.000000 1500002.000000 0.0 0 0 143502036.999997 119501090.000000" />
<path d="M202205158.999997 87610463.000003 A593747.000000 593747.000000 0.0 0 0 201611414.000003 88204212.000000" />
<path d="M139267663.999889 98297965.000917 A593720.000000 593720.000000 0.0 0 0 138673911.000526 98891710.000000" />
<path d="M224002037.000002 92501086.999997 A1499998.000000 1499998.000000 0.0 0 0 225502037.999999 91001087.000000" />
<path d="M143345788 153579212
L146345788 153579212
" />
<path d="M168345787.999998 140579211.000003 A1500003.000000 1500003.000000 0.0 0 0 166845788.000001 142079212.000000" />
<path d="M149345789 147579213
L165345790 147579213
" />
<path d="M207845787 120579213
L223845788 120579212
" />
<path d="M142673912.000088 149063589.999431 A593777.000000 593777.000000 0.0 0 0 143267662.999515 148469837.000000" />
<path d="M149345788.999999 147579214.000001 A1499999.000000 1499999.000000 0.0 0 0 147845788.000000 149079212.000000" />
<path d="M165392664.000569 104829211.999956 A593775.000000 593775.000000 0.0 0 0 165986411.000000 105422960.999340" />
<path d="M205002039.000000 110001088.000000 A1500001.000000 1500001.000000 0.0 0 0 206502040.000000 108501088.000000" />
<path d="M138673911 98891710
L138673911 115516711
" />
<path d="M202048911.999980 115813590.000003 A593747.000000 593747.000000 0.0 0 0 201455163.000003 116407335.000000" />
<path d="M196564538 105422961
L201017664 105422960
" />
<path d="M164798911 98297961
L139267664 98297963
" />
<path d="M168345788 140579212
L204845788 140579212
" />
<path d="M161673912.999919 143126085.999515 A593775.000000 593775.000000 0.0 0 0 162267663.999431 142532337.000000" />
<path d="M84189537 114626086
L79298913 110110462
" />
<path d="M240642663 121751085
L244798913 118188587
" />
<path d="M84189537 114626086
L84189537 102544838
" />
<path d="M79298913 110110462
L79298913 98560462
" />
<path d="M79455163 82032337
L84345788 77516712
" />
<path d="M240642663 82951087
L240642663 121751085
" />
<path d="M244798913 118188587
L244798913 84060460
" />
<path d="M244955163 73954212
L240798913 70391712
" />
<path d="M240798962.997894 44951087.004211 A593700.000000 593700.000000 0.0 0 0 240205163.000001 44357337.008422" />
<path d="M84783288.000000 101951087.000000 A593751.000000 593751.000000 0.0 0 0 84189537.000000 102544838.000000" />
<path d="M141939538.000000 53560461.999474 A593725.000000 593725.000000 0.0 0 0 142533287.999474 52966712.000000" />
<path d="M221048915 62763588
L232330163 82357335
" />
<path d="M166720788 73451088
L186611415 73451086
" />
<path d="M99955163.000000 48982337.000001 A1500002.000000 1500002.000000 0.0 0 0 98455163.000001 50482337.000000" />
<path d="M220350232 55663096
L187416948 68296530
" />
<path d="M232330163 82357335
L240048912 82357338
" />
<path d="M176377063.002105 43763587.002106 A593700.000000 593700.000000 0.0 0 0 176970788.000000 44357336.999474" />
<path d="M161533288 45841712
L161533288 41091712
" />
<path d="M162127038 40497962
L175783288 40497962
" />
<path d="M176377038 41091712
L176377038 43763587
" />
<path d="M158455163.000000 35982337.000000 A1500000.000000 1500000.000000 0.0 0 0 156955163.000000 37482337.000000" />
<path d="M179455163 35982337
L161455163 35982337
" />
<path d="M222798913 56060462
L242798911 79060462
" />
<path d="M240642736.974212 82951086.978201 A593924.000000 593924.000000 0.0 0 0 240048911.999999 82357338.008251" />
<path d="M84939538 73747962
L102752038 73747962
" />
<path d="M159798913.000000 79560462.000000 A1500001.000000 1500001.000000 0.0 0 0 161298913.000000 78060462.000000" />
<path d="M96798913.000003 97060464.000000 A1500001.000000 1500001.000000 0.0 0 0 98298913.000000 95560462.000000" />
<path d="M180955163 37982337
L180955163 37482337
" />
<path d="M139408288 90669837
L139408288 84732337
" />
<path d="M142533288 52966712
L142533288 47029212
" />
<path d="M103939538.000000 53560462.000001 A593749.000000 593749.000000 0.0 0 0 103345788.000001 54154212.000000" />
<path d="M176377037.999474 41091712.000000 A593775.000000 593775.000000 0.0 0 0 175783288.000000 40497962.000526" />
<path d="M143127038 46435462
L160939538 46435462
" />
<path d="M186298910.999999 68560462.999999 A2499999.000000 2499999.000000 0.0 0 0 187416948.141536 68296530.283072" />
<path d="M159798913 79560462
L99798912 79560461
" />
<path d="M166720788.000084 73451090.000526 A593773.000000 593773.000000 0.0 0 0 166127040.000526 74044838.000000" />
<path d="M98455163 50482337
L98455163 67482337
" />
<path d="M186611415 73451086
L221048915 62763588
" />
<path d="M240798913 44951087
L240798913 70391712
" />
<path d="M103345788 73154212
L103345788 54154212
" />
<path d="M244955163.000000 40982337.000000 A1500000.000000 1500000.000000 0.0 0 0 243455163.000000 39482337.000000" />
<path d="M186298911 68560462
L162798913 68560462
" />
<path d="M79455163 70482337
L79455163 82032337
" />
<path d="M139408287.000526 90669836.999958 A593726.000000 593726.000000 0.0 0 0 140002040.000000 91263587.999386" />
<path d="M102595790 101951086
L84783288 101951087
" />
<path d="M103189537 101357337
L103189538 84732335
" />
<path d="M160939538.000000 46435461.999474 A593725.000000 593725.000000 0.0 0 0 161533287.999474 45841712.000000" />
<path d="M143127038.000000 46435462.000526 A593775.000000 593775.000000 0.0 0 0 142533288.000526 47029212.000000" />
<path d="M136455163 48982337
L99955163 48982337
" />
<path d="M140002040 91263588
L165533289 91263585
" />
<path d="M108236413 84138588
L103783288 84138587
" />
<path d="M102752038.000000 73747961.999999 A593749.000000 593749.000000 0.0 0 0 103345787.999999 73154212.000000" />
<path d="M166127039 90669837
L166127040 74044838
" />
<path d="M99798911.999995 79560459.000005 A1500004.000000 1500004.000000 0.0 0 0 98298912.000003 81060460.000000" />
<path d="M139408285.999555 84732337.000077 A593773.000000 593773.000000 0.0 0 0 138814539.000000 84138587.000569" />
<path d="M155455163.000000 41982337.000000 A1500000.000000 1500000.000000 0.0 0 0 156955163.000000 40482337.000000" />
<path d="M162127038.000000 40497962.000526 A593775.000000 593775.000000 0.0 0 0 161533288.000526 41091712.000000" />
<path d="M96955163 68982337
L80955163 68982337
" />
<path d="M155455163 41982337
L139455163 41982337
" />
<path d="M136455163.000000 48982337.000000 A1500000.000000 1500000.000000 0.0 0 0 137955163.000000 47482337.000000" />
<path d="M161455163 35982337
L158455163 35982337
" />
<path d="M80798914.000000 97060460.000000 A1500001.000000 1500001.000000 0.0 0 0 79298913.000000 98560462.000000" />
<path d="M165533288.999956 91263585.999431 A593724.000000 593724.000000 0.0 0 0 166127038.999474 90669837.000000" />
<path d="M102595790.000000 101951086.000000 A593747.000000 593747.000000 0.0 0 0 103189536.999997 101357337.000000" />
<path d="M162798913.000001 68560463.000000 A1500001.000000 1500001.000000 0.0 0 0 161298913.000005 70060460.000000" />
<path d="M180955163.000000 37482337.000000 A1500000.000000 1500000.000000 0.0 0 0 179455163.000000 35982337.000000" />
<path d="M139455163.000000 41982337.000000 A1500000.000000 1500000.000000 0.0 0 0 137955163.000000 43482337.000000" />
<path d="M96798913 97060460
L80798914 97060461
" />
<path d="M80955163.000000 68982337.000001 A1500002.000000 1500002.000000 0.0 0 0 79455163.000001 70482337.000000" />
<path d="M156955163 37482337
L156955163 40482337
" />
<path d="M180955163.000000 37982337.000000 A1500000.000000 1500000.000000 0.0 0 0 182455163.000000 39482337.000000" />
<path d="M161298913 70060460
L161298913 78060462
" />
<path d="M222798912.964173 56060462.035827 A2121321.000000 2121321.000000 0.0 0 0 220350232.008381 55663096.016762" />
<path d="M84345788 74341712
L84345788 77516712
" />
<path d="M137955163 43482337
L137955163 47482337
" />
<path d="M244798898.740284 84060460.444843 A7867111.000000 7867111.000000 0.0 0 0 242798910.998082 79060462.001715" />
<path d="M84939538.000000 73747962.000001 A593749.000000 593749.000000 0.0 0 0 84345788.000001 74341712.000000" />
<path d="M96955163.000000 68982336.999997 A1499997.000000 1499997.000000 0.0 0 0 98455162.999997 67482337.000000" />
<path d="M98298912 81060460
L98298913 95560462
" />
<path d="M182455163 39482337
L243455163 39482337
" />
<path d="M138814539 84138587
L108236413 84138588
" />
<path d="M103783288.000003 84138586.000003 A593748.000000 593748.000000 0.0 0 0 103189538.000001 84732335.000000" />
<path d="M244955163 40982337
L244955163 73954212
" />
<path d="M103939538 53560462
L141939538 53560462
" />
<path d="M240205163 44357337
L176970788 44357337
" />
<g >
</g>
<g >
</g>
<g >
</g>
</g> 
</svg>
