<?xml version="1.0" standalone="no"?>
 <!DOCTYPE svg PUBLIC "-//W3C//DTD SVG 1.1//EN" 
 "http://www.w3.org/Graphics/SVG/1.1/DTD/svg11.dtd"> 
<svg
  xmlns:svg="http://www.w3.org/2000/svg"
  xmlns="http://www.w3.org/2000/svg"
  xmlns:xlink="http://www.w3.org/1999/xlink"
  version="1.1"
  width="29.700220cm" height="21.000720cm" viewBox="0 0 297002200 210007200">
<title>SVG Picture created as jantor-Edge_Cuts.svg date 2023/01/01 16:24:35 </title>
  <desc>Picture generated by PCBNEW </desc>
<g style="fill:#000000; fill-opacity:1.000000;stroke:#000000; stroke-opacity:1.000000;
stroke-linecap:round; stroke-linejoin:round;"
 transform="translate(0 0) scale(1 1)">
</g>
<g style="fill:#000000; fill-opacity:0.0; 
stroke:#000000; stroke-width:0.000000; stroke-opacity:1; 
stroke-linecap:round; stroke-linejoin:round;">
</g>
<g style="fill:#000000; fill-opacity:0.0; 
stroke:#000000; stroke-width:100000.000000; stroke-opacity:1; 
stroke-linecap:round; stroke-linejoin:round;">
<path d="M130921875 128734376
L134921877 128734375
" />
<path d="M203550003 148500003
L214237497 182937503
" />
<path d="M179940630 58687500
L179940628 42687501
" />
<path d="M16796877 26484377
L16796877 89718751
" />
<path d="M26000001 162750000
L26000001 124750001
" />
<path d="M226518752 60343750
L209518752 60343750
" />
<path d="M175050004 64484379
L175050000 46671878
" />
<path d="M128531252.000000 90312501.001860 A593704.000000 593704.000000 0.0 0 0 127937501.001705 90906250.000000" />
<path d="M13421876 21734377
L46393751 21734377
" />
<path d="M124921876 109734376
L127921876 109734377
" />
<path d="M56578126.005943 162906250.000001 A593667.000000 593667.000000 0.0 0 0 57171872.999999 163500000.994610" />
<path d="M221337991 182238822
L208704557 149305537
" />
<path d="M56578126 127874998
L56578128 158453126
" />
<path d="M223440624.996332 65828124.000000 A593814.000000 593814.000000 0.0 0 0 222846876.000000 65234376.003558" />
<path d="M11921876 84234376
L11921876 23234377
" />
<path d="M161187501 181750000
L161187500 163937500
" />
<path d="M233518750 99843749
L229518751 99843751
" />
<path d="M189390625.993627 164093749.000001 A593834.000000 593834.000000 0.0 0 0 188796875.999999 163500002.005941" />
<path d="M53499999 168390627
L68000001 168390626
" />
<path d="M55390626 26046877
L94190624 26046876
" />
<path d="M192268752.000001 101296876.992558 A593655.000000 593655.000000 0.0 0 0 192862500.992715 100703129.000001" />
<path d="M120909379 138265628
L118237501 138265626
" />
<path d="M208018751 58843752
L208018751 42843751
" />
<path d="M171578126 127874998
L171578128 158453126
" />
<path d="M47375004 46078125
L59456248 46078124
" />
<path d="M41421874.999680 169734376.000000 A1500030.000000 1500030.000000 0.0 0 0 39921876.000000 168234377.000320" />
<path d="M93018750.999355 42843751.000000 A1500042.000000 1500042.000000 0.0 0 0 91518750.000000 41343753.000560" />
<path d="M126921876 84234376
L126921876 23234377
" />
<path d="M235909379 138265628
L233237501 138265626
" />
<path d="M115565628 105015627
L115565627 122828128
" />
<path d="M175643751 65078125
L192268752 65078126
" />
<path d="M162375004 46078125
L166890626 41187501
" />
<path d="M88253128 46828125
L88253122 64640627
" />
<path d="M133875001 123562501
L133875001 105750001
" />
<path d="M239018752.000000 142843752.000867 A1499951.000000 1499951.000000 0.0 0 0 237518750.000736 144343750.000000" />
<path d="M46393751 21734377
L42831249 25890626
" />
<path d="M46187501.007440 181749999.999999 A593844.000000 593844.000000 0.0 0 0 46781252.000001 182343749.992718" />
<path d="M56499999.001566 21890625.050151 A7867553.000000 7867553.000000 0.0 0 0 51500000.857004 23890627.840151" />
<path d="M124018752.000000 142843752.000867 A1499951.000000 1499951.000000 0.0 0 0 122518750.000736 144343750.000000" />
<path d="M15921875 128734376
L19921877 128734375
" />
<path d="M143102635 46339306
L155736067 79272591
" />
<path d="M79050000.999998 202531250.991068 A593850.000000 593850.000000 0.0 0 0 79643747.991580 201937500.999999" />
<path d="M46781252 182343750
L49956250 182343752
" />
<path d="M28500001.473614 43890625.473633 A2121372.000000 2121372.000000 0.0 0 0 28102634.601297 46339306.199342" />
<path d="M42499997 105390626
L50500000 105390627
" />
<path d="M189390626 164093749
L189390625 181906252
" />
<path d="M236503126.996332 124015627.000000 A593817.000000 593817.000000 0.0 0 0 235909376.000000 123421876.003668" />
<path d="M156421874.996600 169734376.000000 A1500100.000000 1500100.000000 0.0 0 0 154921876.000000 168234377.003400" />
<path d="M10421875.000000 85734375.999493 A1500040.000000 1500040.000000 0.0 0 0 11921875.999467 84234376.000000" />
<path d="M9921876 109734376
L12921876 109734377
" />
<path d="M197550002 187390626
L186000001 187390625
" />
<path d="M209190624 26046876
L205628126 21890625
" />
<path d="M71331251 101296877
L77268752 101296877
" />
<path d="M41421876.000385 185734376.000000 A1499968.000000 1499968.000000 0.0 0 0 42921876.000000 187234377.999659" />
<path d="M160593751 163343751
L141593750 163343750
" />
<path d="M120018752.000616 117343750.000000 A1499958.000000 1499958.000000 0.0 0 0 121518751.000000 118843750.999440" />
<path d="M192862498.997359 65671875.000000 A593805.000000 593805.000000 0.0 0 0 192268752.000000 65078126.002833" />
<path d="M194968752 41343750
L199484377 46234375
" />
<path d="M88846875 65234375
L107846876 65234376
" />
<path d="M236018750.000000 206843751.999295 A1500048.000000 1500048.000000 0.0 0 0 237518751.999295 205343750.000000" />
<path d="M69499999 169890626
L69500000 185890625
" />
<path d="M128421876.000000 21734377.001776 A1499927.000000 1499927.000000 0.0 0 0 126921876.001776 23234377.000000" />
<path d="M241018749 141343751
L241018752 123343750
" />
<path d="M14421875.000261 127234376.000000 A1499972.000000 1499972.000000 0.0 0 0 15921875.000000 128734375.999739" />
<path d="M51890626 41187501
L63440627 41187501
" />
<path d="M87065626 182500003
L74984376 182500001
" />
<path d="M91518750 41343753
L79968752 41343750
" />
<path d="M9921876.000000 85734376.000588 A1499958.000000 1499958.000000 0.0 0 0 8421876.000560 87234375.000000" />
<path d="M41000001.002821 103890625.000000 A1500093.000000 1500093.000000 0.0 0 0 42499997.000000 105390625.996864" />
<path d="M74390625.993627 164093749.000001 A593834.000000 593834.000000 0.0 0 0 73796875.999999 163500002.005941" />
<path d="M203253128 46828125
L203253122 64640627
" />
<path d="M203046878 206843753
L206609376 202687501
" />
<path d="M232050000 202687501
L206609376 202687501
" />
<path d="M131203126.000000 90312500.996658 A593814.000000 593814.000000 0.0 0 0 131796876.996551 89718751.000000" />
<path d="M175049999.997810 46671878.000000 A593805.000000 593805.000000 0.0 0 0 174456248.000000 46078124.002365" />
<path d="M111518752 60343750
L94518752 60343750
" />
<path d="M195940628 60187498
L181440624 60187501
" />
<path d="M91940629 123187502
L83940626 123187502
" />
<path d="M157921876 187234378
L169471876 187234378
" />
<path d="M77862501 100703129
L77862500 70125001
" />
<path d="M63703121.987049 101156249.999997 A593626.000000 593626.000000 0.0 0 0 63109376.000002 100562500.012129" />
<path d="M185737502.001153 127421875.000000 A593790.000000 593790.000000 0.0 0 0 186331249.000000 128015627.998443" />
<path d="M123421876.000261 108234376.000000 A1499972.000000 1499972.000000 0.0 0 0 124921876.000000 109734375.999739" />
<path d="M133281252 105156252
L128531251 105156251
" />
<path d="M88253127.995874 46828125.000000 A593819.000000 593819.000000 0.0 0 0 87659375.000000 46234376.003668" />
<path d="M94190624 26046876
L90628126 21890625
" />
<path d="M125421875.000000 85734375.998367 A1500071.000000 1500071.000000 0.0 0 0 126921875.998320 84234376.000000" />
<path d="M230565628 105015627
L230565627 122828128
" />
<path d="M133875000.995008 105750001.000001 A593826.000000 593826.000000 0.0 0 0 133281251.999999 105156252.004992" />
<path d="M99237497 182937503
L79643754 194218752
" />
<path d="M69500000.002945 185890625.000000 A1500094.000000 1500094.000000 0.0 0 0 71000001.000000 187390624.997117" />
<path d="M8421876 105234375
L8421876 108234376
" />
<path d="M93018751 58843752
L93018751 42843751
" />
<path d="M21421875.999739 130234375.000000 A1500028.000000 1500028.000000 0.0 0 0 19921877.000000 128734375.000280" />
<path d="M214237497 182937503
L194643754 194218752
" />
<path d="M14421876 111234376
L14421875 127234376
" />
<path d="M90628126 21890625
L56499999 21890625
" />
<path d="M236503127 124015627
L236503126 137671875
" />
<path d="M82550002 187390626
L71000001 187390625
" />
<path d="M41421875 169734376
L41421876 185734376
" />
<path d="M156000001.002821 103890625.000000 A1500093.000000 1500093.000000 0.0 0 0 157499997.000000 105390625.996864" />
<path d="M12937502.000021 104562502.000000 A593744.000000 593744.000000 0.0 0 0 13531251.000000 105156250.999979" />
<path d="M170390626.000000 26046877.000371 A593728.000000 593728.000000 0.0 0 0 169796877.000408 26640627.000000" />
<path d="M202065626 182500003
L197550002 187390626
" />
<path d="M115565627.996443 105015627.000000 A593817.000000 593817.000000 0.0 0 0 114971876.000000 104421875.003557" />
<path d="M161393751 21734377
L157831249 25890626
" />
<path d="M88550003 148500003
L99237497 182937503
" />
<path d="M118518750 99843749
L114518751 99843751
" />
<path d="M126018751.999412 120343751.000000 A1500042.000000 1500042.000000 0.0 0 0 124518751.000000 118843751.000560" />
<path d="M105940627.508254 184687500.508264 A2121285.000000 2121285.000000 0.0 0 0 106337991.183736 182238821.908129" />
<path d="M93440628.994279 124687502.000000 A1499869.000000 1499869.000000 0.0 0 0 91940629.000001 123187502.005721" />
<path d="M129421875.000261 127234376.000000 A1499972.000000 1499972.000000 0.0 0 0 130921875.000000 128734375.999739" />
<path d="M161781252 182343750
L164956250 182343752
" />
<path d="M206518750 41343753
L194968752 41343750
" />
<path d="M128531252 90312501
L131203126 90312501
" />
<path d="M150203127 45640624
L169796873 34359377
" />
<path d="M70737500 101890628
L70737502 127421875
" />
<path d="M14421875.999659 111234376.000000 A1500031.000000 1500031.000000 0.0 0 0 12921876.000000 109734377.000320" />
<path d="M126018752 123343750
L126018752 120343751
" />
<path d="M57171876.000000 127281251.000142 A593737.000000 593737.000000 0.0 0 0 56578126.000084 127874998.000000" />
<path d="M232050000.000001 202687500.992871 A593660.000000 593660.000000 0.0 0 0 232643751.993025 202093750.000001" />
<path d="M203253127.995874 46828125.000000 A593819.000000 593819.000000 0.0 0 0 202659375.000000 46234376.003668" />
<path d="M51999999.002883 166890626.000000 A1500094.000000 1500094.000000 0.0 0 0 53499999.000000 168390626.997055" />
<path d="M77862498.997359 65671875.000000 A593805.000000 593805.000000 0.0 0 0 77268752.000000 65078126.002833" />
<path d="M108440625 65828124
L108440627 103828126
" />
<path d="M178109376 100562500
L161484377 100562499
" />
<path d="M63109376 100562500
L46484377 100562499
" />
<path d="M127937502.000021 104562502.000000 A593744.000000 593744.000000 0.0 0 0 128531251.000000 105156250.999979" />
<path d="M117643752 202093750
L117643749 138859376
" />
<path d="M88253122.002641 64640627.000000 A593692.000000 593692.000000 0.0 0 0 88846875.000000 65234374.996866" />
<path d="M194050000.999998 202531250.991068 A593850.000000 593850.000000 0.0 0 0 194643747.991580 201937500.999999" />
<path d="M235018752 117343750
L235018752 101343750
" />
<path d="M202659375 46234376
L199484377 46234375
" />
<path d="M46187499.992238 163937499.999999 A593653.000000 593653.000000 0.0 0 0 45593751.000001 163343751.007762" />
<path d="M125421875 85734376
L124921876 85734376
" />
<path d="M56578128 158453126
L56578126 162906250
" />
<path d="M140406250 124156251
L134468751 124156250
" />
<path d="M136421875.996667 130234375.000000 A1500100.000000 1500100.000000 0.0 0 0 134921877.000000 128734375.003400" />
<path d="M237518750 144343750
L237518752 205343750
" />
<path d="M63703128 126687498
L63703122 101156250
" />
<path d="M189390625.005390 181906252.000001 A593669.000000 593669.000000 0.0 0 0 189984375.999999 182500000.994337" />
<path d="M93440628.000218 148187499.000000 A2499901.000000 2499901.000000 0.0 0 0 93704557.170843 149305536.914577" />
<path d="M21421876 130234375
L21421875 166734377
" />
<path d="M124518751 118843751
L121518751 118843751
" />
<path d="M18875001.000013 123562501.000000 A593745.000000 593745.000000 0.0 0 0 19468751.000000 124156249.999979" />
<path d="M113018751 98343751
L113018751 61843751
" />
<path d="M235018752.000616 117343750.000000 A1499958.000000 1499958.000000 0.0 0 0 236518751.000000 118843750.999440" />
<path d="M18875000.999959 105750001.000000 A593756.000000 593756.000000 0.0 0 0 18281252.000000 105156252.000041" />
<path d="M129421876 111234376
L129421875 127234376
" />
<path d="M220940627 184687500
L197940628 204687497
" />
<path d="M117050000.000000 202687500.999663 A593732.000000 593732.000000 0.0 0 0 117643751.999696 202093750.000000" />
<path d="M73796876 163500002
L57171873 163500001
" />
<path d="M77862500 70125001
L77862499 65671875
" />
<path d="M82440629 121687501
L82440624 61687499
" />
<path d="M64940630.005547 58687500.000000 A1500130.000000 1500130.000000 0.0 0 0 66440624.000001 60187500.993835" />
<path d="M74390626 164093749
L74390625 181906252
" />
<path d="M197440623.998272 61687499.000000 A1499929.000000 1499929.000000 0.0 0 0 195940628.000000 60187498.001496" />
<path d="M63109376.000000 127281251.999879 A593764.000000 593764.000000 0.0 0 0 63703127.999916 126687498.000000" />
<path d="M156421875 169734376
L156421876 185734376
" />
<path d="M42921876 187234378
L54471876 187234378
" />
<path d="M41000001 80390628
L41000001 103890625
" />
<path d="M124921876.000000 85734376.001680 A1499929.000000 1499929.000000 0.0 0 0 123421876.001633 87234375.000000" />
<path d="M106337991 182238822
L93704557 149305537
" />
<path d="M13421876.000000 21734377.000645 A1499956.000000 1499956.000000 0.0 0 0 11921876.000645 23234377.000000" />
<path d="M160890626.012124 99968750.999998 A593868.000000 593868.000000 0.0 0 0 161484377.000002 100562498.988475" />
<path d="M157499997 105390626
L165500000 105390627
" />
<path d="M124518751.000000 142843750.999167 A1500048.000000 1500048.000000 0.0 0 0 126018748.999232 141343751.000000" />
<path d="M118237501.000000 138265626.002641 A593696.000000 593696.000000 0.0 0 0 117643749.002456 138859376.000000" />
<path d="M45593751 163343751
L26593750 163343750
" />
<path d="M17390626 25890626
L42831249 25890626
" />
<path d="M71331249 128015628
L87956250 128015628
" />
<path d="M80940628 60187498
L66440624 60187501
" />
<path d="M239018752 142843752
L239518751 142843751
" />
<path d="M224034375 104421874
L229971876 104421875
" />
<path d="M93440628 148187499
L93440629 124687502
" />
<path d="M141000001 162750000
L141000001 124750001
" />
<path d="M82440623.998272 61687499.000000 A1499929.000000 1499929.000000 0.0 0 0 80940628.000000 60187498.001496" />
<path d="M45890625 80078124
L35203127 45640624
" />
<path d="M137921875 168234375
L154921876 168234377
" />
<path d="M241018752 123343750
L241018752 120343751
" />
<path d="M223440627.003450 103828126.000000 A593684.000000 593684.000000 0.0 0 0 224034375.000000 104421873.996550" />
<path d="M172171876.000000 127281251.000142 A593737.000000 593737.000000 0.0 0 0 171578126.000084 127874998.000000" />
<path d="M141000001.000021 162750000.000000 A593745.000000 593745.000000 0.0 0 0 141593750.000000 163343749.999987" />
<path d="M194643754 194218752
L194643748 201937501
" />
<path d="M116159376 123421876
L120909376 123421876
" />
<path d="M108440624.996332 65828124.000000 A593814.000000 593814.000000 0.0 0 0 107846876.000000 65234376.003558" />
<path d="M136421876 130234375
L136421875 166734377
" />
<path d="M22921875 168234375
L39921876 168234377
" />
<path d="M113018750.999544 61843751.000000 A1500038.000000 1500038.000000 0.0 0 0 111518752.000000 60343750.000507" />
<path d="M179940630.017631 58687499.999997 A1500231.000000 1500231.000000 0.0 0 0 181440624.000003 60187500.981280" />
<path d="M121503127 124015627
L121503126 137671875
" />
<path d="M45890626.012124 99968750.999998 A593868.000000 593868.000000 0.0 0 0 46484377.000002 100562498.988475" />
<path d="M47375004 46078125
L51890626 41187501
" />
<path d="M108440627.003450 103828126.000000 A593684.000000 593684.000000 0.0 0 0 109034375.000000 104421873.996550" />
<path d="M109034375 104421874
L114971876 104421875
" />
<path d="M52000000 106890626
L51999999 166890626
" />
<path d="M115565627.003669 122828128.000000 A593682.000000 593682.000000 0.0 0 0 116159376.000000 123421875.996219" />
<path d="M208018750.999355 42843751.000000 A1500042.000000 1500042.000000 0.0 0 0 206518750.000000 41343753.000560" />
<path d="M236018750 206843752
L203046878 206843753
" />
<path d="M41000000.998156 80390628.000000 A2499589.000000 2499589.000000 0.0 0 0 40736066.966081 79272591.016961" />
<path d="M121018750 206843752
L88046878 206843753
" />
<path d="M156421876.003606 185734376.000000 A1499898.000000 1499898.000000 0.0 0 0 157921876.000000 187234377.996532" />
<path d="M230565627.996442 105015627.000000 A593817.000000 593817.000000 0.0 0 0 229971876.000000 104421875.003557" />
<path d="M82440629.005720 121687500.999999 A1500132.000000 1500132.000000 0.0 0 0 83940626.000001 123187501.993926" />
<path d="M166999999.997178 106890626.000000 A1499907.000000 1499907.000000 0.0 0 0 165500000.000000 105390627.002883" />
<path d="M178109376.000000 127281251.999879 A593764.000000 593764.000000 0.0 0 0 178703127.999916 126687498.000000" />
<path d="M143500001.814008 43890625.814007 A2121310.000000 2121310.000000 0.0 0 0 143102634.855465 46339306.072268" />
<path d="M121503126.996332 124015627.000000 A593817.000000 593817.000000 0.0 0 0 120909376.000000 123421876.003668" />
<path d="M124018752 142843752
L124518751 142843751
" />
<path d="M18875001 123562501
L18875001 105750001
" />
<path d="M70737502.001153 127421875.000000 A593790.000000 593790.000000 0.0 0 0 71331249.000000 128015627.998443" />
<path d="M171578128 158453126
L171578126 162906250
" />
<path d="M206940629 123187502
L198940626 123187502
" />
<path d="M171578126.005943 162906250.000001 A593667.000000 593667.000000 0.0 0 0 172171872.999999 163500000.994610" />
<path d="M13531252.000000 90312501.000273 A593733.000000 593733.000000 0.0 0 0 12937501.000216 90906250.000000" />
<path d="M88549999.998653 128609376.000000 A593708.000000 593708.000000 0.0 0 0 87956250.000000 128015628.001486" />
<path d="M235018751.999440 101343750.000000 A1500042.000000 1500042.000000 0.0 0 0 233518750.000000 99843749.000533" />
<path d="M26000001.004737 162750000.000001 A593675.000000 593675.000000 0.0 0 0 26593749.999999 163343749.995388" />
<path d="M25406250 124156251
L19468751 124156250
" />
<path d="M64940627.994014 42687500.999999 A1499866.000000 1499866.000000 0.0 0 0 63440627.000001 41187501.006076" />
<path d="M161187499.999515 163937500.000000 A593725.000000 593725.000000 0.0 0 0 160593751.000000 163343751.000485" />
<path d="M239518751.000000 142843750.999167 A1500048.000000 1500048.000000 0.0 0 0 241018748.999232 141343751.000000" />
<path d="M120909378.999999 138265627.994745 A593826.000000 593826.000000 0.0 0 0 121503125.995513 137671874.999999" />
<path d="M93018751.000456 58843752.000000 A1499961.000000 1499961.000000 0.0 0 0 94518752.000000 60343749.999467" />
<path d="M63109376 127281252
L57171876 127281251
" />
<path d="M10421875 85734376
L9921876 85734376
" />
<path d="M208440628 148187499
L208440629 124687502
" />
<path d="M69499998.996863 169890626.000000 A1499903.000000 1499903.000000 0.0 0 0 68000001.000000 168390626.003009" />
<path d="M40250004 202531252
L43812501 206687501
" />
<path d="M203846875 65234375
L222846876 65234376
" />
<path d="M228018751.000533 98343751.000000 A1499960.000000 1499960.000000 0.0 0 0 229518751.000000 99843750.999467" />
<path d="M235909378.999999 138265627.994745 A593826.000000 593826.000000 0.0 0 0 236503125.995513 137671874.999999" />
<path d="M143500002 43890626
L166500001 23890628
" />
<path d="M178703121.987049 101156249.999997 A593626.000000 593626.000000 0.0 0 0 178109376.000002 100562500.012129" />
<path d="M228018751 98343751
L228018751 61843751
" />
<path d="M129421875.999659 111234376.000000 A1500031.000000 1500031.000000 0.0 0 0 127921876.000000 109734377.000320" />
<path d="M185737500 101890628
L185737502 127421875
" />
<path d="M43812501 206687501
L77940628 206687502
" />
<path d="M133875001.004612 123562501.000001 A593675.000000 593675.000000 0.0 0 0 134468750.999999 124156249.995263" />
<path d="M51999999.997178 106890626.000000 A1499907.000000 1499907.000000 0.0 0 0 50500000.000000 105390627.002883" />
<path d="M105940627 184687500
L82940628 204687497
" />
<path d="M239518751 118843751
L236518751 118843751
" />
<path d="M188796876 163500002
L172171873 163500001
" />
<path d="M87065626 182500003
L82550002 187390626
" />
<path d="M60050004 64484379
L60050000 46671878
" />
<path d="M202065626 182500003
L189984376 182500001
" />
<path d="M186331249 128015628
L202956250 128015628
" />
<path d="M46187501 181750000
L46187500 163937500
" />
<path d="M168499999 168390627
L183000001 168390626
" />
<path d="M161187501.000485 181750000.000000 A593774.000000 593774.000000 0.0 0 0 161781252.000000 182343749.999555" />
<path d="M55390626.000000 26046877.000371 A593728.000000 593728.000000 0.0 0 0 54796877.000408 26640627.000000" />
<path d="M156000001 80390628
L156000001 103890625
" />
<path d="M126018749 141343751
L126018752 123343750
" />
<path d="M28500002 43890626
L51500001 23890628
" />
<path d="M123421876 87234375
L123421876 105234375
" />
<path d="M8421876 87234375
L8421876 105234375
" />
<path d="M8421876.002883 108234376.000000 A1499907.000000 1499907.000000 0.0 0 0 9921876.000000 109734375.997117" />
<path d="M79050001 202531251
L40250004 202531252
" />
<path d="M203549999.998653 128609376.000000 A593708.000000 593708.000000 0.0 0 0 202956250.000000 128015628.001486" />
<path d="M13531252 90312501
L16203126 90312501
" />
<path d="M12937502 104562502
L12937501 90906250
" />
<path d="M87659375 46234376
L84484377 46234375
" />
<path d="M166999999.002883 166890626.000000 A1500094.000000 1500094.000000 0.0 0 0 168499999.000000 168390626.997055" />
<path d="M231159376 123421876
L235909376 123421876
" />
<path d="M162375004 46078125
L174456248 46078124
" />
<path d="M197440629 121687501
L197440624 61687499
" />
<path d="M121018750.000000 206843751.999295 A1500048.000000 1500048.000000 0.0 0 0 122518751.999295 205343750.000000" />
<path d="M127937502 104562502
L127937501 90906250
" />
<path d="M123421876 105234375
L123421876 108234376
" />
<path d="M203253122.002641 64640627.000000 A593692.000000 593692.000000 0.0 0 0 203846875.000000 65234374.996866" />
<path d="M60049999.997810 46671878.000000 A593805.000000 593805.000000 0.0 0 0 59456248.000000 46078124.002365" />
<path d="M197440629.017939 121687500.999997 A1500233.000000 1500233.000000 0.0 0 0 198940626.000003 123187501.981438" />
<path d="M132390625.999988 25890626.034714 A593546.000000 593546.000000 0.0 0 0 131796877.035402 26484376.999988" />
<path d="M205628126 21890625
L171499999 21890625
" />
<path d="M131796877 26484377
L131796877 89718751
" />
<path d="M128421876 21734377
L161393751 21734377
" />
<path d="M192940627.986584 206687501.569733 A7866740.000000 7866740.000000 0.0 0 0 197940627.909153 204687496.898454" />
<path d="M79643754 194218752
L79643748 201937501
" />
<path d="M175050004.002932 64484379.000000 A593687.000000 593687.000000 0.0 0 0 175643751.000000 65078124.996968" />
<path d="M241018751.999412 120343751.000000 A1500042.000000 1500042.000000 0.0 0 0 239518751.000000 118843751.000560" />
<path d="M192862500 70125001
L192862499 65671875
" />
<path d="M208440628.981901 124687501.999997 A1499767.000000 1499767.000000 0.0 0 0 206940629.000003 123187502.018099" />
<path d="M192862501 100703129
L192862500 70125001
" />
<path d="M155250004 202531252
L158812501 206687501
" />
<path d="M18281252 105156252
L13531251 105156251
" />
<path d="M160890625 80078124
L150203127 45640624
" />
<path d="M16203126.000000 90312500.996658 A593814.000000 593814.000000 0.0 0 0 16796876.996551 89718751.000000" />
<path d="M186331251 101296877
L192268752 101296877
" />
<path d="M54796873 34359377
L54796877 26640627
" />
<path d="M184500000.002945 185890625.000000 A1500094.000000 1500094.000000 0.0 0 0 186000001.000000 187390624.997117" />
<path d="M167000000 106890626
L166999999 166890626
" />
<path d="M184499999 169890626
L184500000 185890625
" />
<path d="M54471876 187234378
L49956250 182343752
" />
<path d="M28102635 46339306
L40736067 79272591
" />
<path d="M169796873 34359377
L169796877 26640627
" />
<path d="M228018750.999544 61843751.000000 A1500038.000000 1500038.000000 0.0 0 0 226518752.000000 60343750.000507" />
<path d="M160890626 99968751
L160890625 80078124
" />
<path d="M77940628.007811 206687502.250467 A7866850.000000 7866850.000000 0.0 0 0 82940628.024279 204687497.027139" />
<path d="M21421875.000225 166734377.000000 A1499972.000000 1499972.000000 0.0 0 0 22921875.000000 168234374.999739" />
<path d="M179940627.981901 42687500.999997 A1499767.000000 1499767.000000 0.0 0 0 178440627.000003 41187501.018255" />
<path d="M113018751.000533 98343751.000000 A1499960.000000 1499960.000000 0.0 0 0 114518751.000000 99843750.999467" />
<path d="M171499998.998515 21890624.952417 A7867374.000000 7867374.000000 0.0 0 0 166500001.130847 23890628.146266" />
<path d="M223440625 65828124
L223440627 103828126
" />
<path d="M60050004.002932 64484379.000000 A593687.000000 593687.000000 0.0 0 0 60643751.000000 65078124.996968" />
<path d="M88046878 206843753
L91609376 202687501
" />
<path d="M170390626 26046877
L209190624 26046876
" />
<path d="M156000000.999711 80390628.000000 A2499836.000000 2499836.000000 0.0 0 0 155736067.091110 79272590.954443" />
<path d="M169471876 187234378
L164956250 182343752
" />
<path d="M88550000 128609376
L88550003 148500003
" />
<path d="M122518750 144343750
L122518752 205343750
" />
<path d="M186331250.999992 101296877.026689 A593573.000000 593573.000000 0.0 0 0 185737500.026689 101890627.999992" />
<path d="M136421875.003072 166734377.000000 A1499902.000000 1499902.000000 0.0 0 0 137921875.000000 168234374.996798" />
<path d="M45890626 99968751
L45890625 80078124
" />
<path d="M79968752 41343750
L84484377 46234375
" />
<path d="M132390626 25890626
L157831249 25890626
" />
<path d="M158812501 206687501
L192940628 206687502
" />
<path d="M35203127 45640624
L54796873 34359377
" />
<path d="M117050000 202687501
L91609376 202687501
" />
<path d="M178109376 127281252
L172171876 127281251
" />
<path d="M184499998.996863 169890626.000000 A1499903.000000 1499903.000000 0.0 0 0 183000001.000000 168390626.003009" />
<path d="M230565627.003669 122828128.000000 A593682.000000 593682.000000 0.0 0 0 231159376.000000 123421875.996219" />
<path d="M233237501.000000 138265626.002641 A593696.000000 593696.000000 0.0 0 0 232643749.002456 138859376.000000" />
<path d="M141000000.995137 124750001.000001 A593826.000000 593826.000000 0.0 0 0 140406249.999999 124156251.004736" />
<path d="M71331250.999999 101296877.004993 A593674.000000 593674.000000 0.0 0 0 70737500.004993 101890627.999999" />
<path d="M26000000.999970 124750001.000000 A593756.000000 593756.000000 0.0 0 0 25406250.000000 124156251.000021" />
<path d="M220940627.508254 184687500.508264 A2121285.000000 2121285.000000 0.0 0 0 221337991.183736 182238821.908129" />
<path d="M208018751.000456 58843752.000000 A1499961.000000 1499961.000000 0.0 0 0 209518752.000000 60343749.999467" />
<path d="M194050001 202531251
L155250004 202531252
" />
<path d="M60643751 65078125
L77268752 65078126
" />
<path d="M203550000 128609376
L203550003 148500003
" />
<path d="M166890626 41187501
L178440627 41187501
" />
<path d="M208440628.002081 148187499.000000 A2499610.000000 2499610.000000 0.0 0 0 208704557.050409 149305536.974793" />
<path d="M120018751.999440 101343750.000000 A1500042.000000 1500042.000000 0.0 0 0 118518750.000000 99843749.000533" />
<path d="M17390625.999997 25890626.014899 A593616.000000 593616.000000 0.0 0 0 16796877.015351 26484376.999997" />
<path d="M120018752 117343750
L120018752 101343750
" />
<path d="M77268752.000001 101296876.992558 A593655.000000 593655.000000 0.0 0 0 77862500.992715 100703129.000001" />
<path d="M178703128 126687498
L178703122 101156250
" />
<path d="M64940630 58687500
L64940628 42687501
" />
<path d="M232643752 202093750
L232643749 138859376
" />
<path d="M74390625.005390 181906252.000001 A593669.000000 593669.000000 0.0 0 0 74984375.999999 182500000.994337" />
<g >
</g>
<g >
</g>
<g >
</g>
</g> 
</svg>
