<?xml version="1.0" standalone="no"?>
 <!DOCTYPE svg PUBLIC "-//W3C//DTD SVG 1.1//EN" 
 "http://www.w3.org/Graphics/SVG/1.1/DTD/svg11.dtd"> 
<svg
  xmlns:svg="http://www.w3.org/2000/svg"
  xmlns="http://www.w3.org/2000/svg"
  xmlns:xlink="http://www.w3.org/1999/xlink"
  version="1.1"
  width="29.700220cm" height="21.000720cm" viewBox="0 0 297002200 210007200">
<title>SVG Picture created as jantor-Edge_Cuts.svg date 2023/01/03 21:05:26 </title>
  <desc>Picture generated by PCBNEW </desc>
<g style="fill:#000000; fill-opacity:1.000000;stroke:#000000; stroke-opacity:1.000000;
stroke-linecap:round; stroke-linejoin:round;"
 transform="translate(0 0) scale(1 1)">
</g>
<g style="fill:#000000; fill-opacity:0.0; 
stroke:#000000; stroke-width:0.000000; stroke-opacity:1; 
stroke-linecap:round; stroke-linejoin:round;">
</g>
<g style="fill:#000000; fill-opacity:0.0; 
stroke:#000000; stroke-width:100000.000000; stroke-opacity:1; 
stroke-linecap:round; stroke-linejoin:round;">
<path d="M116156587 647534769
L95429870 618993432
" />
<path d="M14161401.796019 635470675.054643 A1499902.000000 1499902.000000 0.0 0 0 12324287.880284 634410016.553328" />
<path d="M94885561 617981807
L88803313 595282549
" />
<path d="M22702430.508518 667346226.863704 A1500104.000000 1500104.000000 0.0 0 0 24539543.980114 668406884.925764" />
<path d="M93276359 666068047
L95080006 672799341
" />
<path d="M100297862 672954134
L96917124 673860003
" />
<path d="M81762605.988372 659803308.539155 A1500097.000000 1500097.000000 0.0 0 0 83599724.065672 660863967.245153" />
<path d="M86966192 594221889
L79238787 596292442
" />
<path d="M40051260.271745 523452976.195129 A1499988.000000 1499988.000000 0.0 0 0 38214146.034876 522392315.130155" />
<path d="M89878241 659181645
L83599724 660863967
" />
<path d="M61872528.897638 537276231.027428 A1500002.000000 1500002.000000 0.0 0 0 60035413.125503 536215571.468389" />
<path d="M91715349.251523 660242308.879244 A1499897.000000 1499897.000000 0.0 0 0 89878240.973410 659181644.900788" />
<path d="M80468519.388895 654973678.752727 A1499912.000000 1499912.000000 0.0 0 0 78631391.944090 653913021.791397" />
<path d="M5345464 616092096
L10004205 633478763
" />
<path d="M4569004 613194322
L5345464 616092096
" />
<path d="M10004204.324075 633478763.181163 A1500102.000000 1500102.000000 0.0 0 0 11841323.060654 634539422.226425" />
<path d="M3045785.902271 551485896.635273 A1500001.000000 1500001.000000 0.0 0 0 1985126.068285 553323013.981703" />
<path d="M78631392 653913022
L24539544 668406885
" />
<path d="M17446739.893764 527956924.603528 A1500004.000000 1500004.000000 0.0 0 0 16386079.335592 529794037.910080" />
<path d="M8527445 610580747
L5629662 611357205
" />
<path d="M77401669 595231777
L61872529 537276231
" />
<path d="M93276359 666068047
L91715360 660242306
" />
<path d="M116406546.559050 650002875.180042 A2121233.000000 2121233.000000 0.0 0 0 116156586.801230 647534769.176274" />
<path d="M95079979.409406 672799348.126620 A1500091.000000 1500091.000000 0.0 0 0 96917124.003601 673860003.013442" />
<path d="M16386079 529794038
L20527184 545248854
" />
<path d="M44192365.786542 538907789.789244 A1500004.000000 1500004.000000 0.0 0 0 46029482.892135 539968448.597436" />
<path d="M94885562.349140 617981806.638428 A2500505.000000 2500505.000000 0.0 0 0 95429869.924358 618993432.067069" />
<path d="M1985126 553323014
L11432026 588579305
" />
<path d="M8527444.942892 610580746.786845 A1499957.000000 1499957.000000 0.0 0 0 9588103.630117 608743632.099121" />
<path d="M88803314.760801 595282548.528315 A1499905.000000 1499905.000000 0.0 0 0 86966192.005870 594221889.021901" />
<path d="M6507658.084973 591451699.317128 A1499999.000000 1499999.000000 0.0 0 0 5446994.884112 593288815.031052" />
<path d="M22702430 667346227
L14161402 635470675
" />
<path d="M10371362.240829 590416425.898796 A1500000.000000 1500000.000000 0.0 0 0 11432026.081812 588579304.978078" />
<path d="M5446995 593288815
L9588104 608743632
" />
<path d="M44192365 538907790
L40051261 523452976
" />
<path d="M10371362 590416425
L6507658 591451699
" />
</g>
<g style="fill:#000000; fill-opacity:1.0; 
stroke:#000000; stroke-width:1.000000; stroke-opacity:1; 
stroke-linecap:round; stroke-linejoin:round;">
<circle cx="96917124.000000" cy="673860003.000000" r="50000.000000" /> 
</g>
<g style="fill:#000000; fill-opacity:0.0; 
stroke:#000000; stroke-width:100000.000000; stroke-opacity:1; 
stroke-linecap:round; stroke-linejoin:round;">
<path d="M19466525.763415 547085972.117049 A1499997.000000 1499997.000000 0.0 0 0 20527183.733069 545248854.071525" />
<path d="M19466526 547085973
L3045786 551485897
" />
<path d="M11841323 634539422
L12324288 634410017
" />
<path d="M100297859.076583 672954123.089303 A2499993.000000 2499993.000000 0.0 0 0 101617341.357554 672082945.280667" />
<path d="M116406522 650002861
L101617341 672082945
" />
<path d="M5629662.024200 611357205.090306 A1500042.000000 1500042.000000 0.0 0 0 4569003.866524 613194322.035761" />
<path d="M77401658.886386 595231779.710760 A1500119.000000 1500119.000000 0.0 0 0 79238786.978389 596292441.919325" />
<path d="M60035413 536215571
L46029483 539968449
" />
<path d="M81762608 659803308
L80468511 654973681
" />
<path d="M38214146 522392315
L17446740 527956925
" />
<path d="M121236068 537915323
L121236066 521915323
" />
<path d="M177798568 603243450
L177798566 616899699
" />
<path d="M178814191 623571573
L178814189 684571574
" />
<path d="M162236063.046993 663915321.047083 A2121389.000000 2121389.000000 0.0 0 0 162633433.003629 661466642.998185" />
<path d="M169314192 577571574
L169314193 541071574
" />
<path d="M144342316 686071572
L147904816 681915322
" />
<path d="M164736068 545055951
L164736066 583055949
" />
<path d="M135345441.000000 681759071.998060 A593698.000000 593698.000000 0.0 0 0 135939186.997895 681165324.000000" />
<path d="M173345442 681915325
L147904816 681915322
" />
<path d="M127626694 607243450
L144251687 607243449
" />
<path d="M135345441 681759072
L96545442 681759074
" />
<path d="M134236065.990970 685915321.710653 A7867325.000000 7867325.000000 0.0 0 0 139236064.889397 683915319.876364" />
<path d="M182314196 620571573
L182314191 602571572
" />
<path d="M173345442.020765 681915246.978978 A593590.000000 593590.000000 0.0 0 0 173939189.993914 681321572.000001" />
<path d="M174532942.000000 617493446.002833 A593811.000000 593811.000000 0.0 0 0 173939189.003133 618087196.000000" />
<path d="M169314183.004563 577571574.000702 A1500117.000000 1500117.000000 0.0 0 0 170814190.000000 579071573.995967" />
<path d="M162633433 661466643
L150000000 628533357
" />
<path d="M164736060.999970 545055951.000071 A593761.000000 593761.000000 0.0 0 0 164142318.000000 544462196.000273" />
<path d="M169314182.999904 541071573.999887 A1499983.000000 1499983.000000 0.0 0 0 167814192.000000 539571574.000021" />
<path d="M165329817 583649698
L171267316 583649700
" />
<path d="M172454817 602649697
L177204815 602649696
" />
<path d="M149736066.001155 627415321.000030 A2499674.000000 2499674.000000 0.0 0 0 149999999.606930 628533357.196551" />
<path d="M143954815 525462199
L140779817 525462198
" />
<path d="M100107942 685915324
L134236066 685915322
" />
<path d="M176314188 596571572
L176314192 580571573
" />
<path d="M135939194 673446571
L135939187 681165324
" />
<path d="M121236066.000000 521915323.000000 A1500001.000000 1500001.000000 0.0 0 0 119736067.000000 520415322.000001" />
<path d="M103670440 525305946
L108186068 520415323
" />
<path d="M171861067 584243451
L171861068 602055950
" />
<path d="M127032944.002548 606649697.000000 A593698.000000 593698.000000 0.0 0 0 127626694.000000 607243449.997723" />
<path d="M149314192 538071574
L149314192 522071573
" />
<path d="M133564191.000000 580524697.999431 A593776.000000 593776.000000 0.0 0 0 134157940.999138 579930954.000000" />
<path d="M144845437.998140 607837199.000000 A593797.000000 593797.000000 0.0 0 0 144251687.000000 607243449.001782" />
<path d="M127626691 580524697
L133564191 580524698
" />
<path d="M177798560.992716 603243449.998902 A593661.000000 593661.000000 0.0 0 0 177204815.000001 602649696.006085" />
<path d="M155532940 662165323
L135939194 673446571
" />
<path d="M144845438 607837199
L144845442 627727824
" />
<path d="M182314191 602571572
L182314192 599571574
" />
<path d="M148236072 602415324
L140236068 602415322
" />
<path d="M173939190 681321572
L173939189 618087196
" />
<path d="M134157941 579930954
L134157939 549352823
" />
<path d="M180814193 598071572
L177814189 598071570
" />
<path d="M177314192 686071572
L144342316 686071572
" />
<path d="M108186068 520415323
L119736067 520415322
" />
<path d="M116345440.027885 543712199.999991 A593930.000000 593930.000000 0.0 0 0 116939190.000008 544305947.972724" />
<path d="M121236068.000000 537915323.000000 A1499999.000000 1499999.000000 0.0 0 0 122736064.000000 539415322.999997" />
<path d="M167814192 539571574
L150814191 539571573
" />
<path d="M96545442 681759074
L100107942 685915324
" />
<path d="M177204814 617493447
L174532942 617493446
" />
<path d="M176314187.000075 596571572.000010 A1500013.000000 1500013.000000 0.0 0 0 177814189.000000 598071569.999960" />
<path d="M144548567.990717 526055950.000002 A593856.000000 593856.000000 0.0 0 0 143954814.999998 525462199.008932" />
<path d="M180814192.000000 622071572.998879 A1499946.000000 1499946.000000 0.0 0 0 182314195.999028 620571573.000000" />
<path d="M164736059.000054 583055948.999906 A593741.000000 593741.000000 0.0 0 0 165329817.000000 583649697.999757" />
<path d="M149314191.997054 522071573.000000 A1499907.000000 1499907.000000 0.0 0 0 147814192.000000 520571572.002883" />
<path d="M116939190 544305948
L133564193 544305946
" />
<path d="M174814193 579071573
L170814190 579071574
" />
<path d="M149736065 627415321
L149736068 603915327
" />
<path d="M103670440 525305946
L115751690 525305948
" />
<path d="M127032936 581118451
L127032944 606649697
" />
<path d="M138736067 600915323
L138736069 540915323
" />
<path d="M138736068.999992 540915323.000000 A1500004.000000 1500004.000000 0.0 0 0 137236070.000000 539415324.000008" />
<path d="M177314191.999899 686071575.999519 A1499959.000000 1499959.000000 0.0 0 0 178814188.999384 684571574.000000" />
<path d="M137236070 539415324
L122736064 539415323
" />
<path d="M116345437.972403 525899693.999992 A593565.000000 593565.000000 0.0 0 0 115751690.000009 525305948.028210" />
<path d="M145142321 544462199
L164142318 544462196
" />
<path d="M134157942.972708 544899700.999992 A593575.000000 593575.000000 0.0 0 0 133564193.000008 544305946.025797" />
<path d="M162236065 663915323
L139236065 683915320
" />
<path d="M171861056.999970 584243451.000101 A593757.000000 593757.000000 0.0 0 0 171267316.000000 583649700.000216" />
<path d="M144548568.000758 543868454.000000 A593715.000000 593715.000000 0.0 0 0 145142321.000000 544462198.998784" />
<path d="M149736067.999637 603915327.000000 A1500036.000000 1500036.000000 0.0 0 0 148236072.000000 602415324.000533" />
<path d="M144548568 526055950
L144548568 543868454
" />
<path d="M116345440 543712200
L116345438 525899694
" />
<path d="M182314184.999904 599571573.999921 A1499985.000000 1499985.000000 0.0 0 0 180814193.000000 598071572.000016" />
<path d="M180314190.999935 622071568.000800 A1500049.000000 1500049.000000 0.0 0 0 178814191.000645 623571573.000000" />
<path d="M136264194 520571570
L140779817 525462198
" />
<path d="M171861060.007282 602055950.001252 A593840.000000 593840.000000 0.0 0 0 172454817.000001 602649696.994200" />
<path d="M134157939 549352823
L134157943 544899701
" />
<path d="M176314183.995514 580571572.999381 A1499884.000000 1499884.000000 0.0 0 0 174814193.000000 579071573.003817" />
<path d="M180314191 622071570
L180814192 622071573
" />
<path d="M149314192.003136 538071574.000000 A1500096.000000 1500096.000000 0.0 0 0 150814191.000000 539571572.996864" />
<path d="M144845442 627727824
L155532940 662165323
" />
<path d="M147814192 520571572
L136264194 520571570
" />
<path d="M177204814.001792 617493522.999835 A593766.000000 593766.000000 0.0 0 0 177798565.997167 616899699.000000" />
<path d="M138736067.000280 600915323.000000 A1499970.000000 1499970.000000 0.0 0 0 140236068.000000 602415321.999680" />
<path d="M127626691.000000 580524697.001032 A593720.000000 593720.000000 0.0 0 0 127032936.000974 581118451.000000" />
<path d="M142588816 415990132
L109655533 428623562
" />
<path d="M154568750 442887501
L161537499 442887498
" />
<path d="M79037500.999384 510387497.000000 A1499957.000000 1499957.000000 0.0 0 0 77537503.000000 508887497.000560" />
<path d="M61537498 508887500
L77537503 508887497
" />
<path d="M145537498.000066 452387497.996733 A1500098.000000 1500098.000000 0.0 0 0 147037496.996864 450887497.000000" />
<path d="M148537499.000000 442887497.003468 A1499899.000000 1499899.000000 0.0 0 0 147037498.003606 444387500.000000" />
<path d="M163037497 437887499
L163037501 441387499
" />
<path d="M161537499.000126 442887499.996992 A1500097.000000 1500097.000000 0.0 0 0 163037500.996928 441387499.000000" />
<path d="M3037501.000008 457387500.000048 A1499989.000000 1499989.000000 0.0 0 0 1537500.000033 458887499.000000" />
<path d="M1537502.000003 480387498.999998 A1500003.000000 1500003.000000 0.0 0 0 3037496.000000 481887498.999973" />
<path d="M22037500.000000 439887497.000003 A1500002.000000 1500002.000000 0.0 0 0 20537501.000003 441387496.000000" />
<path d="M83537498 514887495
L101537499 514887497
" />
<path d="M104537499.999936 511387499.003072 A1499901.000000 1499901.000000 0.0 0 0 103037503.003009 512887495.000000" />
<path d="M80537500 514887499
L83537498 514887495
" />
<path d="M79037501 510387497
L79037500 513387501
" />
<path d="M60037503.999995 503387498.000005 A1500001.000000 1500001.000000 0.0 0 0 58537501.000000 501887493.000001" />
<path d="M139037502 453887500
L139037497 509887502
" />
<path d="M147037498 444387500
L147037497 450887497
" />
<path d="M108537501 428887497
L85037501 428887497
" />
<path d="M20537502.000001 500387500.000000 A1500000.000000 1500000.000000 0.0 0 0 22037500.000000 501887497.999999" />
<path d="M145537498 452387497
L140537500 452387498
" />
<path d="M82037496 439887498
L22037500 439887497
" />
<path d="M154568750 442887501
L148537499 442887497
" />
<path d="M145037498 416387502
L162537500 436387501
" />
<path d="M145037484.352027 416387515.646800 A2121207.000000 2121207.000000 0.0 0 0 142588815.791070 415990131.582168" />
<path d="M3037496 481887499
L19037499 481887500
" />
<path d="M19037502.000000 457387500.999988 A1500004.000000 1500004.000000 0.0 0 0 20537499.999997 455887500.000000" />
</g>
<g style="fill:#000000; fill-opacity:1.0; 
stroke:#000000; stroke-width:1.000000; stroke-opacity:1; 
stroke-linecap:round; stroke-linejoin:round;">
<circle cx="163037501.000000" cy="441387499.000000" r="50000.000000" /> 
</g>
<g style="fill:#000000; fill-opacity:1.0; 
stroke:#000000; stroke-width:100000.000000; stroke-opacity:1; 
stroke-linecap:round; stroke-linejoin:round;">
</g>
<g style="fill:#000000; fill-opacity:0.0; 
stroke:#000000; stroke-width:100000.000000; stroke-opacity:1; 
stroke-linecap:round; stroke-linejoin:round;">
<path d="M103037499 513387496
L103037503 512887495
" />
<path d="M140537499.999876 452387500.002883 A1499905.000000 1499905.000000 0.0 0 0 139037502.003009 453887500.000000" />
<path d="M20537497.999999 483387497.999996 A1499996.000000 1499996.000000 0.0 0 0 19037499.000000 481887500.000003" />
<path d="M108537500.999320 428887471.999075 A2500467.000000 2500467.000000 0.0 0 0 109655533.035215 428623562.070441" />
<path d="M22037500 501887498
L58537501 501887493
" />
<path d="M85037501.000062 428887496.002946 A1499908.000000 1499908.000000 0.0 0 0 83537499.003202 430387502.000000" />
<path d="M83537499 430387502
L83537500 438387499
" />
<path d="M137537500 511387499
L104537500 511387498
" />
<path d="M60037501.000005 507387498.000000 A1499998.000000 1499998.000000 0.0 0 0 61537498.000000 508887500.000000" />
<path d="M101537499.000136 514887498.996532 A1500102.000000 1500102.000000 0.0 0 0 103037498.996733 513387496.000000" />
<path d="M19037502 457387501
L3037501 457387501
" />
<path d="M60037502 503387498
L60037501 507387498
" />
<path d="M20537501 483387498
L20537502 500387500
" />
<path d="M163037469.999795 437887498.999654 A2500017.000000 2500017.000000 0.0 0 0 162537499.839506 436387501.120365" />
<path d="M79037501.000645 513387500.999971 A1500042.000000 1500042.000000 0.0 0 0 80537500.000000 514887498.999384" />
<path d="M20537501 441387496
L20537500 455887500
" />
<path d="M137537500.000072 511387499.996112 A1500105.000000 1500105.000000 0.0 0 0 139037496.996184 509887502.000000" />
<path d="M82037495.999940 439887496.997300 A1500094.000000 1500094.000000 0.0 0 0 83537499.996928 438387499.000000" />
<path d="M1537500 458887499
L1537501 480387499
" />
<path d="M25500016 421249534
L9500018 421249534
" />
<path d="M151500016 380249537
L171500014 403249537
" />
<path d="M111156266 363671411
L172156266 363671412
" />
<path d="M65156269 373171408
L28656268 373171408
" />
<path d="M169343766 407140159
L169343766 445940159
" />
<path d="M173656267 398143284
L169500015 394580786
" />
<path d="M90828145 364687033
L104484394 364687035
" />
<path d="M32640645 377749533
L70640642 377749533
" />
<path d="M169500018 369140158
L169500015 394580786
" />
<path d="M94828143 414858906
L94828143 398233914
" />
<path d="M91500019.999979 392749532.000320 A1500033.000000 1500033.000000 0.0 0 0 90000018.000432 394249529.000000" />
<path d="M108156267 360171405
L90156266 360171409
" />
<path d="M161031265 406546407
L168750018 406546414
" />
<path d="M65156269.004522 373171460.994539 A1500127.000000 1500127.000000 0.0 0 0 66656267.998075 371671410.000000" />
<path d="M13046892 398530787
L13046892 401705783
" />
<path d="M149051337 379852168
L116118050 392485600
" />
<path d="M71234392 377155784
L71234394 371218284
" />
<path d="M115000014.000125 392749531.998783 A2499677.000000 2499677.000000 0.0 0 0 116118049.938232 392485599.876473" />
<path d="M173500018 442377659
L173500016 408249535
" />
<path d="M84156265 366171413
L68156267 366171409
" />
<path d="M90234393 370030784
L90234391 365280786
" />
<path d="M9500018.000000 421249534.000000 A1500002.000000 1500002.000000 0.0 0 0 8000016.000001 422749534.000000" />
<path d="M71828144 370624535
L89640644 370624533
" />
<path d="M94234391.000000 415452656.997452 A593697.000000 593697.000000 0.0 0 0 94828142.997544 414858906.000000" />
<path d="M27000017 405249531
L27000017 419749537
" />
<path d="M95421894.000000 397640162.001782 A593797.000000 593797.000000 0.0 0 0 94828143.001705 398233914.000000" />
<path d="M68109391 414858910
L68109392 408921410
" />
<path d="M12890640 438815161
L12890641 426733911
" />
<path d="M173656264.999355 365171408.999941 A1499953.000000 1499953.000000 0.0 0 0 172156266.000000 363671412.000705" />
<path d="M149750016 386952661
L161031265 406546407
" />
<path d="M28656267.999046 373171461.000243 A1499973.000000 1499973.000000 0.0 0 0 27156268.000208 374671409.000000" />
<path d="M28500016.999990 403749530.000008 A1500005.000000 1500005.000000 0.0 0 0 27000017.000005 405249531.000000" />
<path d="M95421894 397640162
L115312518 397640160
" />
<path d="M13640644 397937032
L31453148 397937034
" />
<path d="M90156266 360171409
L87156267 360171409
" />
<path d="M71828143.999727 370624589.000008 A593747.000000 593747.000000 0.0 0 0 71234394.002277 371218284.000000" />
<path d="M68156266.995715 366171460.005292 A1499875.000000 1499875.000000 0.0 0 0 66656266.001825 367671409.000000" />
<path d="M90000018 394249529
L90000016 402249533
" />
<path d="M31296893.998766 426140157.972115 A593928.000000 593928.000000 0.0 0 0 31890639.972420 425546410.999992" />
<path d="M173500014.742317 408249535.039249 A7867324.000000 7867324.000000 0.0 0 0 171500014.124894 403249536.888272" />
<path d="M168906266 368546412
L105671890 368546412
" />
<path d="M32640644.999752 377749582.000008 A593753.000000 593753.000000 0.0 0 0 32046889.002365 378343282.000000" />
<path d="M67515649 408327659
L36937517 408327662
" />
<path d="M85656266 361671408
L85656263 364671412
" />
<path d="M173656267 365171409
L173656267 398143284
" />
<path d="M27156268 374671409
L27156267 391671410
" />
<path d="M84156264.999067 366171356.999792 A1500023.000000 1500023.000000 0.0 0 0 85656262.997972 364671412.000000" />
<path d="M169500063.987255 369140158.009529 A593623.000000 593623.000000 0.0 0 0 168906266.000008 368546412.025795" />
<path d="M13640644.000177 397937033.009107 A593856.000000 593856.000000 0.0 0 0 13046892.008760 398530787.000001" />
<path d="M109656273.998224 361671410.000389 A1499932.000000 1499932.000000 0.0 0 0 108156267.000000 360171405.001875" />
<path d="M66656266 367671409
L66656268 371671410
" />
<path d="M169343766 445940159
L173500018 442377659
" />
<path d="M70640642.000089 377749585.999999 A593751.000000 593751.000000 0.0 0 0 71234391.997810 377155784.000000" />
<path d="M9656265.999872 393171411.003072 A1499905.000000 1499905.000000 0.0 0 0 8156265.002883 394671409.000000" />
<path d="M89640644.009539 370624587.991066 A593852.000000 593852.000000 0.0 0 0 90234392.998060 370030784.000000" />
<path d="M8156265 394671409
L8156264 406221407
" />
<path d="M31890640 425546411
L31890640 408921407
" />
<path d="M105078142 365280787
L105078140 367952659
" />
<path d="M105078164.000485 367952658.999030 A593777.000000 593777.000000 0.0 0 0 105671890.000000 368546411.997810" />
<path d="M32046893 397343280
L32046889 378343282
" />
<path d="M151500014.461264 380249538.538808 A2121391.000000 2121391.000000 0.0 0 0 149051337.103779 379852168.207573" />
<path d="M68703144 415452666
L94234391 415452657
" />
<path d="M88500016 403749535
L28500017 403749533
" />
<path d="M36937517 408327662
L32484395 408327659
" />
<path d="M68109389.001032 414858909.999882 A593721.000000 593721.000000 0.0 0 0 68703144.000000 415452665.999026" />
<path d="M13484389.000298 426140162.027903 A593566.000000 593566.000000 0.0 0 0 12890641.028210 426733910.999991" />
<path d="M115000014 392749536
L91500020 392749533
" />
<path d="M90828144.990889 364687085.009108 A593650.000000 593650.000000 0.0 0 0 90234391.002191 365280786.000000" />
<path d="M32484394.999992 408327659.027596 A593574.000000 593574.000000 0.0 0 0 31890640.025503 408921406.999993" />
<path d="M68109392.999431 408921409.999956 A593777.000000 593777.000000 0.0 0 0 67515649.000000 408327659.000917" />
<path d="M8000017 434299533
L8000016 422749534
" />
<path d="M31296894 426140162
L13484389 426140163
" />
<path d="M31453148.000000 397937033.999242 A593715.000000 593715.000000 0.0 0 0 32046892.998719 397343280.000000" />
<path d="M25656268 393171410
L9656266 393171409
" />
<path d="M109656266.001925 362171410.999899 A1500076.000000 1500076.000000 0.0 0 0 111156266.000000 363671410.998075" />
<path d="M12890640 438815161
L8000017 434299533
" />
<path d="M8156264 406221407
L13046892 401705783
" />
<path d="M87156267.000833 360171359.000208 A1499976.000000 1499976.000000 0.0 0 0 85656266.001776 361671408.000000" />
<path d="M109656264 362171411
L109656266 361671410
" />
<path d="M169343764.998140 407140158.999921 A593698.000000 593698.000000 0.0 0 0 168750018.000000 406546414.002022" />
<path d="M25656268.000064 393171410.996864 A1500096.000000 1500096.000000 0.0 0 0 27156266.996992 391671410.000000" />
<path d="M115312518 397640160
L149750016 386952661
" />
<path d="M25500016.000001 421249532.999999 A1499999.000000 1499999.000000 0.0 0 0 27000016.999997 419749537.000000" />
<path d="M105078141.997809 365280787.000000 A593701.000000 593701.000000 0.0 0 0 104484394.000000 364687035.001860" />
<path d="M88500015.999981 403749535.999720 A1499971.000000 1499971.000000 0.0 0 0 90000015.999659 402249533.000000" />
<path d="M170474118 348595799
L137502242 348595799
" />
<path d="M169474114 259095799
L169474118 243095800
" />
<path d="M131895992.000000 203439550.000000 A1499999.000000 1499999.000000 0.0 0 0 130395996.000000 201939551.000003" />
<path d="M109505370.975941 188423921.001986 A593577.000000 593577.000000 0.0 0 0 108911616.000008 187830175.026689" />
<path d="M138005368 290252051
L148692866 324689550
" />
<path d="M170364740.000000 280017673.999242 A593722.000000 593722.000000 0.0 0 0 170958491.999431 279423926.000000" />
<path d="M148692866 324689550
L129099120 335970798
" />
<path d="M127395992.072221 348439551.314091 A7867349.000000 7867349.000000 0.0 0 0 132395990.676867 346439546.638790" />
<path d="M130395996 201939551
L115895990 201939550
" />
<path d="M93267868 348439551
L127395992 348439549
" />
<path d="M169474143.999232 243095800.000832 A1499952.000000 1499952.000000 0.0 0 0 167974119.000000 241595800.001776" />
<path d="M166505368.000660 344439548.985765 A593618.000000 593618.000000 0.0 0 0 167099115.985324 343845799.000003" />
<path d="M114395994.000001 200439550.000000 A1499998.000000 1499998.000000 0.0 0 0 115895990.000000 201939549.999999" />
<path d="M157895994 207580178
L157895992 245580176
" />
<path d="M142895991 289939548
L142895994 266439554
" />
<path d="M158489743 246173925
L164427242 246173927
" />
<path d="M138302247 206986426
L157302244 206986423
" />
<path d="M170364740 280017674
L167692868 280017673
" />
<path d="M127317865 211877050
L127317869 207423928
" />
<path d="M175474129.999519 262095801.000304 A1499964.000000 1499964.000000 0.0 0 0 173974119.000000 260595799.000736" />
<path d="M137114741 187986426
L133939743 187986425
" />
<path d="M157896023.995263 207580177.996211 A593830.000000 593830.000000 0.0 0 0 157302244.000000 206986423.002105" />
<path d="M110099116 206830175
L126724119 206830173
" />
<path d="M167692868.000052 280017674.000809 A593784.000000 593784.000000 0.0 0 0 167099115.001032 280611423.000000" />
<path d="M101345994 182939550
L112895993 182939549
" />
<path d="M170958494 265767677
L170958492 279423926
" />
<path d="M137708494 188580177
L137708494 206392681
" />
<path d="M129099120 335970798
L129099113 343689551
" />
<path d="M173474117.000192 284595805.000432 A1500036.000000 1500036.000000 0.0 0 0 171974117.000560 286095800.000000" />
<path d="M141395998 264939551
L133395994 264939549
" />
<path d="M165614743 265173924
L170364741 265173923
" />
<path d="M165020915.986204 246767677.983396 A593623.000000 593623.000000 0.0 0 0 164427242.000000 246173927.002191" />
<path d="M142895991.000952 289939548.000000 A2499689.000000 2499689.000000 0.0 0 0 143159926.190513 291057583.904736" />
<path d="M142474146.000833 200595800.999067 A1500049.000000 1500049.000000 0.0 0 0 143974117.000000 202095799.997972" />
<path d="M126724116.999960 243048923.999515 A593774.000000 593774.000000 0.0 0 0 127317866.999191 242455181.000000" />
<path d="M120192870.002641 269173924.000000 A593697.000000 593697.000000 0.0 0 0 120786620.000000 269767676.997634" />
<path d="M120786617.000259 243048917.000408 A593733.000000 593733.000000 0.0 0 0 120192862.000660 243642678.000000" />
<path d="M162474140.000901 240095800.999237 A1500052.000000 1500052.000000 0.0 0 0 163974116.000000 241595800.998075" />
<path d="M157895916.013583 245580176.016252 A593876.000000 593876.000000 0.0 0 0 158489743.000000 246173924.997979" />
<path d="M162474039.992197 203595800.991941 A1499847.000000 1499847.000000 0.0 0 0 160974118.000000 202095801.001875" />
<path d="M138005364 270361426
L138005368 290252051
" />
<path d="M140974118 183095799
L129424120 183095797
" />
<path d="M165020993.004365 264580177.000121 A593819.000000 593819.000000 0.0 0 0 165614743.000000 265173923.995991" />
<path d="M89705368 344283301
L93267868 348439551
" />
<path d="M142895986.999867 266439554.000093 A1500023.000000 1500023.000000 0.0 0 0 141395998.000000 264939551.000385" />
<path d="M175474117 265095799
L175474118 262095801
" />
<path d="M170958493.993625 265767676.999999 A593667.000000 593667.000000 0.0 0 0 170364741.000001 265173923.006229" />
<path d="M173974117.999749 284595807.999264 A1499957.000000 1499957.000000 0.0 0 0 175474121.999133 283095800.000000" />
<path d="M165020993 246767678
L165020994 264580177
" />
<path d="M167974119 241595800
L163974116 241595801
" />
<path d="M127317867 242455181
L127317865 211877050
" />
<path d="M175474122 283095800
L175474117 265095799
" />
<path d="M128505367 344283299
L89705368 344283301
" />
<path d="M173974119 260595799
L170974115 260595797
" />
<path d="M155395988.183117 326439547.183230 A2121380.000000 2121380.000000 0.0 0 0 155793358.553900 323990870.223037" />
<path d="M120192862 243642678
L120192870 269173924
" />
<path d="M155395991 326439550
L132395991 346439547
" />
<path d="M155793359 323990870
L143159926 291057584
" />
<path d="M167099116 343845799
L167099115 280611423
" />
<path d="M96830366 187830173
L101345994 182939550
" />
<path d="M137708415.999340 188580176.996322 A593723.000000 593723.000000 0.0 0 0 137114741.000000 187986426.001940" />
<path d="M137502242 348595799
L141064742 344439549
" />
<path d="M170474118.000030 348595797.999325 A1499952.000000 1499952.000000 0.0 0 0 171974114.999325 347095801.000000" />
<path d="M128505367.000000 344283298.997978 A593697.000000 593697.000000 0.0 0 0 129099112.997809 343689551.000000" />
<path d="M127317871.973907 207423928.000882 A593579.000000 593579.000000 0.0 0 0 126724119.000007 206830173.025503" />
<path d="M129424120 183095797
L133939743 187986425
" />
<path d="M160974118 202095801
L143974117 202095800
" />
<path d="M173474117 284595797
L173974118 284595800
" />
<path d="M162474118 240095801
L162474119 203595801
" />
<path d="M131895993 263439550
L131895995 203439550
" />
<path d="M171974117 286095800
L171974115 347095801
" />
<path d="M96830366 187830173
L108911616 187830175
" />
<path d="M142474118 200595801
L142474118 184595800
" />
<path d="M114395994 200439550
L114395992 184439550
" />
<path d="M138005370.997069 270361425.999305 A593809.000000 593809.000000 0.0 0 0 137411613.000000 269767676.002190" />
<path d="M120786620 269767677
L137411613 269767676
" />
<path d="M114395992.000000 184439550.000000 A1500000.000000 1500000.000000 0.0 0 0 112895993.000000 182939549.000000" />
<path d="M169474116.000533 259095798.999947 A1500038.000000 1500038.000000 0.0 0 0 170974115.000000 260595796.999493" />
<path d="M109505366 206236427
L109505364 188423921
" />
<path d="M120786617 243048924
L126724117 243048925
" />
<path d="M166505368 344439552
L141064742 344439549
" />
<path d="M131895993.000280 263439550.000000 A1499970.000000 1499970.000000 0.0 0 0 133395994.000000 264939548.999680" />
<path d="M142474143.999167 184595800.000867 A1499951.000000 1499951.000000 0.0 0 0 140974118.000000 183095799.001875" />
<path d="M109505368.026374 206236426.999396 A593925.000000 593925.000000 0.0 0 0 110099116.000008 206830174.973625" />
<path d="M137708517.004009 206392681.002674 A593676.000000 593676.000000 0.0 0 0 138302247.000000 206986425.997544" />
<path d="M27674202.483981 330632827.262175 A1500094.000000 1500094.000000 0.0 0 0 29511310.074981 331693487.279910" />
<path d="M98248125 329354649
L100051772 336085943
" />
<path d="M86734374 323089910
L85440277 318260283
" />
<path d="M82373434.069860 258518379.249291 A1500096.000000 1500096.000000 0.0 0 0 84210553.056859 259579044.212255" />
<path d="M66844293.715789 200562833.344103 A1500000.000000 1500000.000000 0.0 0 0 65007178.893143 199502172.601200" />
<path d="M99857327 281268409
L93775079 258569151
" />
<path d="M11479423.701311 254738299.885273 A1500001.000000 1500001.000000 0.0 0 0 10418760.818286 256575417.048690" />
<path d="M85440277.110819 318260282.970314 A1499906.000000 1499906.000000 0.0 0 0 83603157.979021 317199623.921725" />
<path d="M15343128.824840 253703030.078329 A1500006.000000 1500006.000000 0.0 0 0 16403791.846280 251865907.041189" />
</g>
<g style="fill:#000000; fill-opacity:1.0; 
stroke:#000000; stroke-width:1.000000; stroke-opacity:1; 
stroke-linecap:round; stroke-linejoin:round;">
<circle cx="101888890.000000" cy="337146605.000000" r="50000.000000" /> 
</g>
<g style="fill:#000000; fill-opacity:1.0; 
stroke:#000000; stroke-width:100000.000000; stroke-opacity:1; 
stroke-linecap:round; stroke-linejoin:round;">
</g>
<g style="fill:#000000; fill-opacity:0.0; 
stroke:#000000; stroke-width:100000.000000; stroke-opacity:1; 
stroke-linecap:round; stroke-linejoin:round;">
<path d="M83603158 317199624
L29511310 331693487
" />
<path d="M100051772.318751 336085942.914570 A1500094.000000 1500094.000000 0.0 0 0 101888889.972278 337146604.896514" />
<path d="M45023028.918394 186739577.485978 A1499993.000000 1499993.000000 0.0 0 0 43185911.923788 185678916.715579" />
<path d="M10317230 279378698
L14975971 296765365
" />
<path d="M24438292 210372575
L8017552 214772499
" />
<path d="M82373435 258518379
L66844295 200562833
" />
<path d="M49164131 202194392
L45023027 186739578
" />
<path d="M93775078.926669 258569151.019644 A1499908.000000 1499908.000000 0.0 0 0 91937957.961370 257508490.855868" />
<path d="M65007179 199502173
L51001249 203255051
" />
<path d="M96687126.047821 323528907.987190 A1499898.000000 1499898.000000 0.0 0 0 94850006.884613 322468246.569488" />
<path d="M86734371.458118 323089910.681283 A1500102.000000 1500102.000000 0.0 0 0 88571490.060654 324150569.226425" />
<path d="M121128353 310821371
L100401636 282280034
" />
<path d="M121378290.690024 313289464.553241 A2121196.000000 2121196.000000 0.0 0 0 121128353.202578 310821370.820348" />
<path d="M43185912 185678917
L22418506 191243527
" />
<path d="M8017552.094103 214772499.351198 A1500000.000000 1500000.000000 0.0 0 0 6956892.101198 216609615.972884" />
<path d="M94850007 322468247
L88571490 324150569
" />
<path d="M6956892 216609616
L16403792 251865907
" />
<path d="M121378288 313289463
L106589107 335369547
" />
<path d="M24438291.888570 210372574.584134 A1499996.000000 1499996.000000 0.0 0 0 25498950.383163 208535455.897330" />
<path d="M13499211.460194 273867350.717639 A1499961.000000 1499961.000000 0.0 0 0 14559870.011818 272030233.996833" />
<path d="M99857326.369306 281268409.169026 A2500474.000000 2500474.000000 0.0 0 0 100401635.807299 282280034.170863" />
<path d="M10418761 256575417
L14559870 272030234
" />
<path d="M91937958 257508491
L84210553 259579044
" />
<path d="M22418506.661092 191243529.467224 A1500000.000000 1500000.000000 0.0 0 0 21357845.467240 193080639.874806" />
<path d="M9540770 276480924
L10317230 279378698
" />
<path d="M21357845 193080640
L25498950 208535456
" />
<path d="M105269628.524541 336240737.957520 A2500086.000000 2500086.000000 0.0 0 0 106589106.733801 335369546.791043" />
<path d="M15343128 253703027
L11479424 254738301
" />
<path d="M14975975.335037 296765363.838133 A1500095.000000 1500095.000000 0.0 0 0 16813088.998967 297826023.996145" />
<path d="M98248125 329354649
L96687126 323528908
" />
<path d="M105269628 336240736
L101888890 337146605
" />
<path d="M13499211 273867349
L10601428 274643807
" />
<path d="M19133166.581068 298757277.380102 A1499899.000000 1499899.000000 0.0 0 0 17296053.973780 297696618.902170" />
<path d="M49164133.467224 202194391.338908 A1500000.000000 1500000.000000 0.0 0 0 51001249.039871 203255051.148801" />
<path d="M27674196 330632829
L19133168 298757277
" />
<path d="M16813089 297826024
L17296054 297696619
" />
<path d="M10601428.541553 274643809.020884 A1500038.000000 1500038.000000 0.0 0 0 9540770.248126 276480923.933522" />
<path d="M3859381 59393752
L3859381 26421876
" />
<path d="M150515655.998075 66500000.998683 A1500077.000000 1500077.000000 0.0 0 0 149015630.000000 65000000.000867" />
<path d="M109359380 27421876
L93359380 27421877
" />
<path d="M27765628 48203128
L62203129 58890626
" />
<path d="M8609381.000438 29796876.014455 A593620.000000 593620.000000 0.0 0 0 8015630.014235 30390625.999997" />
<path d="M83281254 76703123
L108812502 76703129
" />
<path d="M164625029.991407 87984378.004422 A593650.000000 593650.000000 0.0 0 0 164031256.000003 87390627.012950" />
<path d="M16484382 67796874
L27765628 48203128
" />
<path d="M6015629.553539 64499999.916864 A7867390.000000 7867390.000000 0.0 0 0 4015628.975814 69499999.999245" />
<path d="M150515630 81000003
L150515630 66500001
" />
<path d="M4015629 69500000
L4015630 103628125
" />
<path d="M150515655.001776 81000003.001217 A1499924.000000 1499924.000000 0.0 0 0 152015630.000000 82499999.999133" />
<path d="M106281253 32468752
L106281255 38406251
" />
<path d="M145031254 69578127
L140578130 69578129
" />
<path d="M91859380.999412 22921877.000000 A1499959.000000 1499959.000000 0.0 0 0 90359379.000000 21421876.000616" />
<path d="M61397595 53736067
L28464310 41102635
" />
<path d="M67859380 22921876
L67859380 23421875
" />
<path d="M87281253.004992 31281253.000388 A593826.000000 593826.000000 0.0 0 0 87875004.000001 31875001.995264" />
<path d="M145625005 70171875
L145625006 86796877
" />
<path d="M109406255 70171877
L109406256 76109377
" />
<path d="M110859379.999739 28921875.000000 A1499971.000000 1499971.000000 0.0 0 0 109359380.000000 27421876.000280" />
<path d="M71843756.003241 29796902.995007 A593826.000000 593826.000000 0.0 0 0 72437504.997895 29203127.000000" />
<path d="M73031254 25937502
L86687504 25937502
" />
<path d="M164468755 62956251
L164468755 59781253
" />
<path d="M5359381.000000 24921878.000736 A1499953.000000 1499953.000000 0.0 0 0 3859381.000675 26421876.000000" />
<path d="M72437505 29203127
L72437505 26531253
" />
<path d="M71843756 29796878
L8609381 29796878
" />
<path d="M8765631 67796879
L16484382 67796874
" />
<path d="M66359379.999953 24921874.999592 A1500035.000000 1500035.000000 0.0 0 0 67859379.999592 23421875.000000" />
<path d="M169515630 95550002
L164625008 100065626
" />
<path d="M146062503 59187501
L163875005 59187501
" />
<path d="M110859381.000320 32921877.999959 A1500030.000000 1500030.000000 0.0 0 0 112359379.000000 34421876.999659" />
<path d="M145625031.008251 86796876.995831 A593849.000000 593849.000000 0.0 0 0 146218753.000003 87390626.986420" />
<path d="M106281253.995135 32468752.000127 A593673.000000 593673.000000 0.0 0 0 105687504.000001 31875003.004993" />
<path d="M148859381 34421876
L112359379 34421877
" />
<path d="M150359380.003468 52921878.000068 A1500100.000000 1500100.000000 0.0 0 0 151859381.000000 54421875.996733" />
<path d="M145468754 39593751
L145468755 58593751
" />
<path d="M145468753.999474 39593751.000000 A593774.000000 593774.000000 0.0 0 0 144875004.000000 39000002.000485" />
<path d="M82687533.008422 76109376.004886 A593647.000000 593647.000000 0.0 0 0 83281253.999999 76703122.995388" />
<path d="M87281255 26531252
L87281256 31281253
" />
<path d="M168015630 82500000
L152015630 82500000
" />
<path d="M4015630 103628125
L8171880 107190625
" />
<path d="M82687503 59484379
L82687504 76109376
" />
<path d="M140578130 69578129
L110000000 69578127
" />
<path d="M106281255.004611 38406250.999999 A593825.000000 593825.000000 0.0 0 0 106875005.000001 39000001.995264" />
<path d="M150359380.996733 35921875.000132 A1499900.000000 1499900.000000 0.0 0 0 148859381.000000 34421876.003334" />
<path d="M169359383 67471877
L169359382 55921877
" />
<path d="M86015628 54000002
L62515631 54000003
" />
<path d="M87515658.001925 63500001.001368 A1499924.000000 1499924.000000 0.0 0 0 89015630.000000 65000000.999232" />
<path d="M87875004 31875002
L105687504 31875003
" />
<path d="M8015630 55831251
L3859381 59393752
" />
<path d="M87359379 21421878
L69359379 21421877
" />
<path d="M149015630 65000000
L89015630 65000001
" />
<path d="M164468755.999515 59781252.999960 A593776.000000 593776.000000 0.0 0 0 163875005.000000 59187501.000526" />
<path d="M91859382 25921877
L91859381 22921877
" />
<path d="M6015633 64500003
L26015630 41500003
" />
<path d="M8171880 107190625
L8171881 68390628
" />
<path d="M169515657.998125 84000001.998550 A1500077.000000 1500077.000000 0.0 0 0 168015630.000000 82500000.000800" />
<path d="M108812502.000889 76703152.999592 A593776.000000 593776.000000 0.0 0 0 109406256.000000 76109377.000000" />
<path d="M61397591.826439 53736073.346894 A2499826.000000 2499826.000000 0.0 0 0 62515631.000000 54000002.999480" />
<path d="M109999999.999158 69578152.000337 A593725.000000 593725.000000 0.0 0 0 109406255.000000 70171877.000000" />
<path d="M87515656.997920 55499997.998578 A1500075.000000 1500075.000000 0.0 0 0 86015628.000000 54000002.000705" />
<path d="M164468755 62956251
L169359383 67471877
" />
<path d="M150359381 52921878
L150359379 35921875
" />
<path d="M164031256 87390627
L146218753 87390627
" />
<path d="M167859380 54421876
L151859381 54421876
" />
<path d="M169515629 84000002
L169515630 95550002
" />
<path d="M110859379 32921878
L110859380 28921875
" />
<path d="M8765631.000000 67796879.002191 A593699.000000 593699.000000 0.0 0 0 8171881.002105 68390628.000000" />
<path d="M87515631 63500001
L87515630 55499998
" />
<path d="M169359380.996666 55921876.999933 A1499901.000000 1499901.000000 0.0 0 0 167859380.000000 54421876.003334" />
<path d="M69359379.000060 21421875.000675 A1499954.000000 1499954.000000 0.0 0 0 67859380.000736 22921876.000000" />
<path d="M8015630 55831251
L8015630 30390626
" />
<path d="M90359379 21421876
L87359379 21421878
" />
<path d="M82687527.992077 59484378.995918 A593849.000000 593849.000000 0.0 0 0 82093755.999999 58890627.004992" />
<path d="M28464309.377021 41102636.246026 A2121380.000000 2121380.000000 0.0 0 0 26015630.316851 41500003.316864" />
<path d="M91859381.000533 25921877.000027 A1500040.000000 1500040.000000 0.0 0 0 93359380.000000 27421876.999440" />
<path d="M145468754.000526 58593750.999958 A593725.000000 593725.000000 0.0 0 0 146062503.000000 59187500.999515" />
<path d="M73031254.000040 25937501.000485 A593725.000000 593725.000000 0.0 0 0 72437505.000614 26531253.000000" />
<path d="M106875005 39000002
L144875004 39000002
" />
<path d="M5359381 24921878
L66359380 24921877
" />
<path d="M87281253.993771 26531251.999854 A593664.000000 593664.000000 0.0 0 0 86687504.000001 25937502.006229" />
<path d="M145625030.991910 70171875.004291 A593650.000000 593650.000000 0.0 0 0 145031254.000003 69578127.013585" />
<path d="M164625004 87984378
L164625008 100065626
" />
<path d="M62203129 58890626
L82093756 58890627
" />
<path d="M78649914.000560 176500000.002323 A1500043.000000 1500043.000000 0.0 0 0 80149999.000000 178000001.999412" />
<path d="M34649916.000481 114000001.002153 A1500039.000000 1500039.000000 0.0 0 0 36149999.000000 115500001.999355" />
<path d="M101149997.999973 178000000.999440 A1500040.000000 1500040.000000 0.0 0 0 102649996.999355 176500005.000000" />
<path d="M180149998 143500004
L180149997 122000002
" />
<path d="M42650001 173000004
L42649994 117000004
" />
</g>
<g style="fill:#000000; fill-opacity:1.0; 
stroke:#000000; stroke-width:1.000000; stroke-opacity:1; 
stroke-linecap:round; stroke-linejoin:round;">
<circle cx="18649997.000000" cy="104500003.000000" r="50000.000000" /> 
</g>
<g style="fill:#000000; fill-opacity:0.0; 
stroke:#000000; stroke-width:100000.000000; stroke-opacity:1; 
stroke-linecap:round; stroke-linejoin:round;">
<path d="M78649918.999493 176000001.998024 A1499962.000000 1499962.000000 0.0 0 0 77149996.000000 174500001.000507" />
<path d="M41149998 115500003
L36149999 115500002
" />
<path d="M77149996 174500001
L44149997 174500002
" />
<path d="M159649998 103000001
L99649998 103000002
" />
<path d="M162649996.999992 145000007.000005 A1499994.000000 1499994.000000 0.0 0 0 161149999.000000 146500001.000000" />
<path d="M161149996.000003 119000003.000000 A1500002.000000 1500002.000000 0.0 0 0 162649997.000000 120500002.000000" />
<path d="M120149998.000008 172000004.999997 A1500002.000000 1500002.000000 0.0 0 0 121649997.000000 170500002.000000" />
<path d="M121649997 170500002
L121649996 166500002
" />
<path d="M161149996 119000003
L161149997 104500000
" />
<path d="M34649912.999355 107500001.997507 A1499957.000000 1499957.000000 0.0 0 0 33149997.000000 106000001.000560" />
<path d="M80149999 178000002
L98149997 177999999
" />
<path d="M34650001 114000001
L34649998 107500002
" />
<path d="M33149997 106000001
L27118747 106000002
" />
<path d="M98149997 177999999
L101149998 178000002
" />
<path d="M96649999 92000001
L73149995 92000001
" />
<path d="M159649996.999999 165000002.000000 A1499998.000000 1499998.000000 0.0 0 0 161149995.999997 163500001.000000" />
<path d="M104149997 172000001
L120149998 172000001
" />
<path d="M98149919.999544 93500001.998076 A1499964.000000 1499964.000000 0.0 0 0 96649999.000000 92000001.000616" />
<path d="M19149997 99500004
L36649998 79500004
" />
<path d="M18649918.000588 104500003.002212 A1500041.000000 1500041.000000 0.0 0 0 20149996.000000 106000001.999544" />
<path d="M39098661.510312 79102672.976978 A2121260.000000 2121260.000000 0.0 0 0 36649998.169340 79500004.169340" />
<path d="M18649997 104500003
L18649998 101000004
" />
<path d="M180149992.000000 122000002.000000 A1499999.000000 1499999.000000 0.0 0 0 178649996.000000 120500003.000003" />
<path d="M178649996 120500003
L162649997 120500002
" />
<path d="M20149996 106000002
L27118747 106000002
" />
<path d="M162649997 145000004
L178649999 145000004
" />
<path d="M42649915.999412 117000003.997816 A1499959.000000 1499959.000000 0.0 0 0 41149998.000000 115500003.000560" />
<path d="M123149997 164999999
L159649997 165000001
" />
<path d="M98149997 101500001
L98149998 93500002
" />
<path d="M42649918.000588 173000004.002324 A1500040.000000 1500040.000000 0.0 0 0 44149997.000000 174500001.999493" />
<path d="M123149996.999999 165000001.000000 A1500000.000000 1500000.000000 0.0 0 0 121649996.000000 166500002.000000" />
<path d="M72031962 91736067
L39098680 79102636
" />
<path d="M161149996 163500001
L161149999 146500001
" />
<path d="M72031951.523382 91736087.954323 A2500040.000000 2500040.000000 0.0 0 0 73149995.000000 92000000.999711" />
<path d="M78649995 176000002
L78649999 176500000
" />
<path d="M161149999.000000 104499999.999999 A1500000.000000 1500000.000000 0.0 0 0 159649998.000000 103000001.000000" />
<path d="M98149919.000507 101500001.002028 A1500040.000000 1500040.000000 0.0 0 0 99649998.000000 103000001.999493" />
<path d="M104149997.000027 172000000.000533 A1499961.000000 1499961.000000 0.0 0 0 102649996.000456 173499998.000000" />
<path d="M102649997 176500005
L102649996 173499998
" />
<path d="M178649999.000000 145000003.999997 A1500002.000000 1500002.000000 0.0 0 0 180149997.999999 143500004.000000" />
<path d="M19149985.959985 99499995.720033 A2499959.000000 2499959.000000 0.0 0 0 18649998.000289 101000004.000000" />
</g>
<g style="fill:#000000; fill-opacity:0.0; 
stroke:#000000; stroke-width:120000.000000; stroke-opacity:1; 
stroke-linecap:round; stroke-linejoin:round;">
<path d="M31807662 570541069
L35249955 583387882
" />
<path d="M35249955 583387882
L48096768 579945589
" />
<path d="M48096768 579945589
L44654475 567098776
" />
<path d="M44654475 567098776
L31807662 570541069
" />
<path d="M10672793 615544631
L14115086 628391444
" />
<path d="M14115086 628391444
L26961899 624949151
" />
<path d="M26961899 624949151
L23519606 612102338
" />
<path d="M23519606 612102338
L10672793 615544631
" />
<path d="M38531088 627750271
L41973381 640597084
" />
<path d="M41973381 640597084
L54820194 637154791
" />
<path d="M54820194 637154791
L51377901 624307978
" />
<path d="M51377901 624307978
L38531088 627750271
" />
<path d="M26890101 552188474
L30332394 565035287
" />
<path d="M30332394 565035287
L43179207 561592994
" />
<path d="M43179207 561592994
L39736914 548746181
" />
<path d="M39736914 548746181
L26890101 552188474
" />
<path d="M62948280 640877950
L66390573 653724763
" />
<path d="M66390573 653724763
L79237386 650282470
" />
<path d="M79237386 650282470
L75795093 637435657
" />
<path d="M75795093 637435657
L62948280 640877950
" />
<path d="M44595689 645795515
L48037982 658642328
" />
<path d="M48037982 658642328
L60884795 655200035
" />
<path d="M60884795 655200035
L57442502 642353222
" />
<path d="M57442502 642353222
L44595689 645795515
" />
<path d="M8537513 557106035
L11979806 569952848
" />
<path d="M11979806 569952848
L24826619 566510555
" />
<path d="M24826619 566510555
L21384326 553663742
" />
<path d="M21384326 553663742
L8537513 557106035
" />
<path d="M78742264 627597899
L85392264 639116037
" />
<path d="M85392264 639116037
L96910402 632466037
" />
<path d="M96910402 632466037
L90260402 620947899
" />
<path d="M90260402 620947899
L78742264 627597899
" />
<path d="M98827603 641038086
L89423083 650442606
" />
<path d="M89423083 650442606
L98827603 659847126
" />
<path d="M98827603 659847126
L108232123 650442606
" />
<path d="M108232123 650442606
L98827603 641038086
" />
<path d="M26243101 650713072
L29685394 663559885
" />
<path d="M29685394 663559885
L42532207 660117592
" />
<path d="M42532207 660117592
L39089914 647270779
" />
<path d="M39089914 647270779
L26243101 650713072
" />
<path d="M20178497 632667832
L23620790 645514645
" />
<path d="M23620790 645514645
L36467603 642072352
" />
<path d="M36467603 642072352
L33025310 629225539
" />
<path d="M33025310 629225539
L20178497 632667832
" />
<path d="M71855447 605297740
L75297740 618144553
" />
<path d="M75297740 618144553
L88144553 614702260
" />
<path d="M88144553 614702260
L84702260 601855447
" />
<path d="M84702260 601855447
L71855447 605297740
" />
<path d="M45242692 547270911
L48684985 560117724
" />
<path d="M48684985 560117724
L61531798 556675431
" />
<path d="M61531798 556675431
L58089505 543828618
" />
<path d="M58089505 543828618
L45242692 547270911
" />
<path d="M13455072 575458626
L16897365 588305439
" />
<path d="M16897365 588305439
L29744178 584863146
" />
<path d="M29744178 584863146
L26301885 572016333
" />
<path d="M26301885 572016333
L13455072 575458626
" />
<path d="M48195595 585820178
L51637888 598666991
" />
<path d="M51637888 598666991
L64484701 595224698
" />
<path d="M64484701 595224698
L61042408 582377885
" />
<path d="M61042408 582377885
L48195595 585820178
" />
<path d="M11490416 595655301
L14932709 608502114
" />
<path d="M14932709 608502114
L27779522 605059821
" />
<path d="M27779522 605059821
L24337229 592213008
" />
<path d="M24337229 592213008
L11490416 595655301
" />
<path d="M47377972 605709509
L50820265 618556322
" />
<path d="M50820265 618556322
L63667078 615114029
" />
<path d="M63667078 615114029
L60224785 602267216
" />
<path d="M60224785 602267216
L47377972 605709509
" />
<path d="M56883681 622832704
L60325974 635679517
" />
<path d="M60325974 635679517
L73172787 632237224
" />
<path d="M73172787 632237224
L69730494 619390411
" />
<path d="M69730494 619390411
L56883681 622832704
" />
<path d="M50160251 565623503
L53602544 578470316
" />
<path d="M53602544 578470316
L66449357 575028023
" />
<path d="M66449357 575028023
L63007064 562181210
" />
<path d="M63007064 562181210
L50160251 565623503
" />
<path d="M23119580 533528532
L26561873 546375345
" />
<path d="M26561873 546375345
L39408686 542933052
" />
<path d="M39408686 542933052
L35966393 530086239
" />
<path d="M35966393 530086239
L23119580 533528532
" />
<path d="M29843004 590737740
L33285297 603584553
" />
<path d="M33285297 603584553
L46132110 600142260
" />
<path d="M46132110 600142260
L42689817 587295447
" />
<path d="M42689817 587295447
L29843004 590737740
" />
<path d="M29025380 610627068
L32467673 623473881
" />
<path d="M32467673 623473881
L45314486 620031588
" />
<path d="M45314486 620031588
L41872193 607184775
" />
<path d="M41872193 607184775
L29025380 610627068
" />
<path d="M46387506 477537503
L59687506 477537503
" />
<path d="M59687506 477537503
L59687506 464237503
" />
<path d="M59687506 464237503
L46387506 464237503
" />
<path d="M46387506 464237503
L46387506 477537503
" />
<path d="M84387502 509599997
L97687502 509599997
" />
<path d="M97687502 509599997
L97687502 496299997
" />
<path d="M97687502 496299997
L84387502 496299997
" />
<path d="M84387502 496299997
L84387502 509599997
" />
<path d="M103387501 485850002
L116687501 485850002
" />
<path d="M116687501 485850002
L116687501 472550002
" />
<path d="M116687501 472550002
L103387501 472550002
" />
<path d="M103387501 472550002
L103387501 485850002
" />
<path d="M27387501 477537501
L40687501 477537501
" />
<path d="M40687501 477537501
L40687501 464237501
" />
<path d="M40687501 464237501
L27387501 464237501
" />
<path d="M27387501 464237501
L27387501 477537501
" />
<path d="M103387497 466849999
L116687497 466849999
" />
<path d="M116687497 466849999
L116687497 453549999
" />
<path d="M116687497 453549999
L103387497 453549999
" />
<path d="M103387497 453549999
L103387497 466849999
" />
<path d="M122387500 465662499
L135687500 465662499
" />
<path d="M135687500 465662499
L135687500 452362499
" />
<path d="M135687500 452362499
L122387500 452362499
" />
<path d="M122387500 452362499
L122387500 465662499
" />
<path d="M27387499 458537500
L40687499 458537500
" />
<path d="M40687499 458537500
L40687499 445237500
" />
<path d="M40687499 445237500
L27387499 445237500
" />
<path d="M27387499 445237500
L27387499 458537500
" />
<path d="M27387501 496537497
L40687501 496537497
" />
<path d="M40687501 496537497
L40687501 483237497
" />
<path d="M40687501 483237497
L27387501 483237497
" />
<path d="M27387501 483237497
L27387501 496537497
" />
<path d="M113647740 446969551
L126494553 443527258
" />
<path d="M126494553 443527258
L123052260 430680445
" />
<path d="M123052260 430680445
L110205447 434122738
" />
<path d="M110205447 434122738
L113647740 446969551
" />
<path d="M131828433 431047180
L138478433 442565318
" />
<path d="M138478433 442565318
L149996571 435915318
" />
<path d="M149996571 435915318
L143346571 424397180
" />
<path d="M143346571 424397180
L131828433 431047180
" />
<path d="M103387500 504850002
L116687500 504850002
" />
<path d="M116687500 504850002
L116687500 491550002
" />
<path d="M116687500 491550002
L103387500 491550002
" />
<path d="M103387500 491550002
L103387500 504850002
" />
<path d="M65387500 503662496
L78687500 503662496
" />
<path d="M78687500 503662496
L78687500 490362496
" />
<path d="M78687500 490362496
L65387500 490362496
" />
<path d="M65387500 490362496
L65387500 503662496
" />
<path d="M122387503 484662500
L135687503 484662500
" />
<path d="M135687503 484662500
L135687503 471362500
" />
<path d="M135687503 471362500
L122387503 471362500
" />
<path d="M122387503 471362500
L122387503 484662500
" />
<path d="M90325001 447850000
L103625001 447850000
" />
<path d="M103625001 447850000
L103625001 434550000
" />
<path d="M103625001 434550000
L90325001 434550000
" />
<path d="M90325001 434550000
L90325001 447850000
" />
<path d="M46387501 496537499
L59687501 496537499
" />
<path d="M59687501 496537499
L59687501 483237499
" />
<path d="M59687501 483237499
L46387501 483237499
" />
<path d="M46387501 483237499
L46387501 496537499
" />
<path d="M65387499 484662499
L78687499 484662499
" />
<path d="M78687499 484662499
L78687499 471362499
" />
<path d="M78687499 471362499
L65387499 471362499
" />
<path d="M65387499 471362499
L65387499 484662499
" />
<path d="M122387499 503662496
L135687499 503662496
" />
<path d="M135687499 503662496
L135687499 490362496
" />
<path d="M135687499 490362496
L122387499 490362496
" />
<path d="M122387499 490362496
L122387499 503662496
" />
<path d="M84387500 490599999
L97687500 490599999
" />
<path d="M97687500 490599999
L97687500 477299999
" />
<path d="M97687500 477299999
L84387500 477299999
" />
<path d="M84387500 477299999
L84387500 490599999
" />
<path d="M65387500 465662498
L78687500 465662498
" />
<path d="M78687500 465662498
L78687500 452362498
" />
<path d="M78687500 452362498
L65387500 452362498
" />
<path d="M65387500 452362498
L65387500 465662498
" />
<path d="M84387503 471600000
L97687503 471600000
" />
<path d="M97687503 471600000
L97687503 458300000
" />
<path d="M97687503 458300000
L84387503 458300000
" />
<path d="M84387503 458300000
L84387503 471600000
" />
<path d="M46387502 458537503
L59687502 458537503
" />
<path d="M59687502 458537503
L59687502 445237503
" />
<path d="M59687502 445237503
L46387502 445237503
" />
<path d="M46387502 445237503
L46387502 458537503
" />
<path d="M8387499 476349996
L21687499 476349996
" />
<path d="M21687499 476349996
L21687499 463049996
" />
<path d="M21687499 463049996
L8387499 463049996
" />
<path d="M8387499 463049996
L8387499 476349996
" />
<path d="M34814770 254024342
L38257063 266871155
" />
<path d="M38257063 266871155
L51103876 263428862
" />
<path d="M51103876 263428862
L47661583 250582049
" />
<path d="M47661583 250582049
L34814770 254024342
" />
<path d="M33997146 273913670
L37439439 286760483
" />
<path d="M37439439 286760483
L50286252 283318190
" />
<path d="M50286252 283318190
L46843959 270471377
" />
<path d="M46843959 270471377
L33997146 273913670
" />
<path d="M52349738 268996111
L55792031 281842924
" />
<path d="M55792031 281842924
L68638844 278400631
" />
<path d="M68638844 278400631
L65196551 265553818
" />
<path d="M65196551 265553818
L52349738 268996111
" />
<path d="M15644559 278831233
L19086852 291678046
" />
<path d="M19086852 291678046
L31933665 288235753
" />
<path d="M31933665 288235753
L28491372 275388940
" />
<path d="M28491372 275388940
L15644559 278831233
" />
<path d="M61855447 286119306
L65297740 298966119
" />
<path d="M65297740 298966119
L78144553 295523826
" />
<path d="M78144553 295523826
L74702260 282677013
" />
<path d="M74702260 282677013
L61855447 286119306
" />
<path d="M16462182 258941903
L19904475 271788716
" />
<path d="M19904475 271788716
L32751288 268346423
" />
<path d="M32751288 268346423
L29308995 255499610
" />
<path d="M29308995 255499610
L16462182 258941903
" />
<path d="M36779428 233827671
L40221721 246674484
" />
<path d="M40221721 246674484
L53068534 243232191
" />
<path d="M53068534 243232191
L49626241 230385378
" />
<path d="M49626241 230385378
L36779428 233827671
" />
<path d="M31861867 215475076
L35304160 228321889
" />
<path d="M35304160 228321889
L48150973 224879596
" />
<path d="M48150973 224879596
L44708680 212032783
" />
<path d="M44708680 212032783
L31861867 215475076
" />
<path d="M31214867 313999674
L34657160 326846487
" />
<path d="M34657160 326846487
L47503973 323404194
" />
<path d="M47503973 323404194
L44061680 310557381
" />
<path d="M44061680 310557381
L31214867 313999674
" />
<path d="M76827213 268584342
L80269506 281431155
" />
<path d="M80269506 281431155
L93116319 277988862
" />
<path d="M93116319 277988862
L89674026 265142049
" />
<path d="M89674026 265142049
L76827213 268584342
" />
<path d="M55132017 228910105
L58574310 241756918
" />
<path d="M58574310 241756918
L71421123 238314625
" />
<path d="M71421123 238314625
L67978830 225467812
" />
<path d="M67978830 225467812
L55132017 228910105
" />
<path d="M103799369 304324688
L94394849 313729208
" />
<path d="M94394849 313729208
L103799369 323133728
" />
<path d="M103799369 323133728
L113203889 313729208
" />
<path d="M113203889 313729208
L103799369 304324688
" />
<path d="M43502854 291036873
L46945147 303883686
" />
<path d="M46945147 303883686
L59791960 300441393
" />
<path d="M59791960 300441393
L56349667 287594580
" />
<path d="M56349667 287594580
L43502854 291036873
" />
<path d="M28091346 196815134
L31533639 209661947
" />
<path d="M31533639 209661947
L44380452 206219654
" />
<path d="M44380452 206219654
L40938159 193372841
" />
<path d="M40938159 193372841
L28091346 196815134
" />
<path d="M49567455 309082117
L53009748 321928930
" />
<path d="M53009748 321928930
L65856561 318486637
" />
<path d="M65856561 318486637
L62414268 305639824
" />
<path d="M62414268 305639824
L49567455 309082117
" />
<path d="M67920046 304164552
L71362339 317011365
" />
<path d="M71362339 317011365
L84209152 313569072
" />
<path d="M84209152 313569072
L80766859 300722259
" />
<path d="M80766859 300722259
L67920046 304164552
" />
<path d="M50214458 210557513
L53656751 223404326
" />
<path d="M53656751 223404326
L66503564 219962033
" />
<path d="M66503564 219962033
L63061271 207115220
" />
<path d="M63061271 207115220
L50214458 210557513
" />
<path d="M13509279 220392637
L16951572 233239450
" />
<path d="M16951572 233239450
L29798385 229797157
" />
<path d="M29798385 229797157
L26356092 216950344
" />
<path d="M26356092 216950344
L13509279 220392637
" />
<path d="M83714030 290884501
L90364030 302402639
" />
<path d="M90364030 302402639
L101882168 295752639
" />
<path d="M101882168 295752639
L95232168 284234501
" />
<path d="M95232168 284234501
L83714030 290884501
" />
<path d="M53167361 249106780
L56609654 261953593
" />
<path d="M56609654 261953593
L69456467 258511300
" />
<path d="M69456467 258511300
L66014174 245664487
" />
<path d="M66014174 245664487
L53167361 249106780
" />
<path d="M25150263 295954434
L28592556 308801247
" />
<path d="M28592556 308801247
L41439369 305358954
" />
<path d="M41439369 305358954
L37997076 292512141
" />
<path d="M37997076 292512141
L25150263 295954434
" />
<path d="M18426838 238745228
L21869131 251592041
" />
<path d="M21869131 251592041
L34715944 248149748
" />
<path d="M34715944 248149748
L31273651 235302935
" />
<path d="M31273651 235302935
L18426838 238745228
" />
<path d="M78299998 167962505
L64999998 167962505
" />
<path d="M64999998 167962505
L64999998 154662505
" />
<path d="M64999998 154662505
L78299998 154662505
" />
<path d="M78299998 154662505
L78299998 167962505
" />
<path d="M59299996 128775003
L45999996 128775003
" />
<path d="M45999996 128775003
L45999996 115475003
" />
<path d="M45999996 115475003
L59299996 115475003
" />
<path d="M59299996 115475003
L59299996 128775003
" />
<path d="M154299995 159650002
L140999995 159650002
" />
<path d="M140999995 159650002
L140999995 146350002
" />
<path d="M140999995 146350002
L154299995 146350002
" />
<path d="M154299995 146350002
L154299995 159650002
" />
<path d="M116299997 128775002
L102999997 128775002
" />
<path d="M102999997 128775002
L102999997 115475002
" />
<path d="M102999997 115475002
L116299997 115475002
" />
<path d="M116299997 115475002
L116299997 128775002
" />
<path d="M78299996 148962503
L64999996 148962503
" />
<path d="M64999996 148962503
L64999996 135662503
" />
<path d="M64999996 135662503
L78299996 135662503
" />
<path d="M78299996 135662503
L78299996 148962503
" />
<path d="M49859066 94159682
L43209066 105677820
" />
<path d="M43209066 105677820
L31690928 99027820
" />
<path d="M31690928 99027820
L38340928 87509682
" />
<path d="M38340928 87509682
L49859066 94159682
" />
<path d="M78300000 129962502
L65000000 129962502
" />
<path d="M65000000 129962502
L65000000 116662502
" />
<path d="M65000000 116662502
L78300000 116662502
" />
<path d="M78300000 116662502
L78300000 129962502
" />
<path d="M154299997 121650003
L140999997 121650003
" />
<path d="M140999997 121650003
L140999997 108350003
" />
<path d="M140999997 108350003
L154299997 108350003
" />
<path d="M154299997 108350003
L154299997 121650003
" />
<path d="M116299998 147775002
L102999998 147775002
" />
<path d="M102999998 147775002
L102999998 134475002
" />
<path d="M102999998 134475002
L116299998 134475002
" />
<path d="M116299998 134475002
L116299998 147775002
" />
<path d="M135299999 121650004
L121999999 121650004
" />
<path d="M121999999 121650004
L121999999 108350004
" />
<path d="M121999999 108350004
L135299999 108350004
" />
<path d="M135299999 108350004
L135299999 121650004
" />
<path d="M135299998 159650003
L121999998 159650003
" />
<path d="M121999998 159650003
L121999998 146350003
" />
<path d="M121999998 146350003
L135299998 146350003
" />
<path d="M135299998 146350003
L135299998 159650003
" />
<path d="M91362499 110962505
L78062499 110962505
" />
<path d="M78062499 110962505
L78062499 97662505
" />
<path d="M78062499 97662505
L91362499 97662505
" />
<path d="M91362499 97662505
L91362499 110962505
" />
<path d="M59299995 147775001
L45999995 147775001
" />
<path d="M45999995 147775001
L45999995 134475001
" />
<path d="M45999995 134475001
L59299995 134475001
" />
<path d="M59299995 134475001
L59299995 147775001
" />
<path d="M173299999 139462499
L159999999 139462499
" />
<path d="M159999999 139462499
L159999999 126162499
" />
<path d="M159999999 126162499
L173299999 126162499
" />
<path d="M173299999 126162499
L173299999 139462499
" />
<path d="M59299998 166775002
L45999998 166775002
" />
<path d="M45999998 166775002
L45999998 153475002
" />
<path d="M45999998 153475002
L59299998 153475002
" />
<path d="M59299998 153475002
L59299998 166775002
" />
<path d="M97299997 172712503
L83999997 172712503
" />
<path d="M83999997 172712503
L83999997 159412503
" />
<path d="M83999997 159412503
L97299997 159412503
" />
<path d="M97299997 159412503
L97299997 172712503
" />
<path d="M97299996 153712503
L83999996 153712503
" />
<path d="M83999996 153712503
L83999996 140412503
" />
<path d="M83999996 140412503
L97299996 140412503
" />
<path d="M97299996 140412503
L97299996 153712503
" />
<path d="M116299998 166775002
L102999998 166775002
" />
<path d="M102999998 166775002
L102999998 153475002
" />
<path d="M102999998 153475002
L116299998 153475002
" />
<path d="M116299998 153475002
L116299998 166775002
" />
<path d="M68039757 110082056
L55192944 106639763
" />
<path d="M55192944 106639763
L58635237 93792950
" />
<path d="M58635237 93792950
L71482050 97235243
" />
<path d="M71482050 97235243
L68039757 110082056
" />
<path d="M154299997 140650002
L140999997 140650002
" />
<path d="M140999997 140650002
L140999997 127350002
" />
<path d="M140999997 127350002
L154299997 127350002
" />
<path d="M154299997 127350002
L154299997 140650002
" />
<path d="M97299994 134712503
L83999994 134712503
" />
<path d="M83999994 134712503
L83999994 121412503
" />
<path d="M83999994 121412503
L97299994 121412503
" />
<path d="M97299994 121412503
L97299994 134712503
" />
<path d="M135299993 140650003
L121999993 140650003
" />
<path d="M121999993 140650003
L121999993 127350003
" />
<path d="M121999993 127350003
L135299993 127350003
" />
<path d="M135299993 127350003
L135299993 140650003
" />
<g >
</g>
<g >
</g>
<g >
</g>
<g >
</g>
<g >
</g>
<g >
</g>
<g >
</g>
<g >
</g>
<g >
</g>
<g >
</g>
<g >
</g>
<g >
</g>
<g >
</g>
<g >
</g>
<g >
</g>
<g >
</g>
<g >
</g>
<g >
</g>
<g >
</g>
<g >
</g>
<g >
</g>
<g >
</g>
<g >
</g>
<g >
</g>
<g >
</g>
<g >
</g>
<g >
</g>
<g >
</g>
<g >
</g>
<g >
</g>
<g >
</g>
<g >
</g>
<g >
</g>
<g >
</g>
<g >
</g>
<g >
</g>
<g >
</g>
<g >
</g>
<g >
</g>
<g >
</g>
<g >
</g>
<g >
</g>
<g >
</g>
<g >
</g>
<g >
</g>
<g >
</g>
<g >
</g>
<g >
</g>
<g >
</g>
<g >
</g>
<g >
</g>
<g >
</g>
<g >
</g>
<g >
</g>
<g >
</g>
<g >
</g>
<g >
</g>
<g >
</g>
<g >
</g>
<g >
</g>
<g >
</g>
<g >
</g>
<g >
</g>
<g >
</g>
<g >
</g>
<g >
</g>
<g >
</g>
<g >
</g>
<g >
</g>
<g >
</g>
<g >
</g>
<g >
</g>
<g >
</g>
<g >
</g>
<g >
</g>
<g >
</g>
<g >
</g>
<g >
</g>
<g >
</g>
<g >
</g>
<g >
</g>
<g >
</g>
<g >
</g>
<g >
</g>
<g >
</g>
<g >
</g>
<g >
</g>
<g >
</g>
<g >
</g>
<g >
</g>
<g >
</g>
</g> 
</svg>
