<?xml version="1.0" standalone="no"?>
 <!DOCTYPE svg PUBLIC "-//W3C//DTD SVG 1.1//EN" 
 "http://www.w3.org/Graphics/SVG/1.1/DTD/svg11.dtd"> 
<svg
  xmlns:svg="http://www.w3.org/2000/svg"
  xmlns="http://www.w3.org/2000/svg"
  xmlns:xlink="http://www.w3.org/1999/xlink"
  version="1.1"
  width="29.700220cm" height="21.000720cm" viewBox="0 0 297002200 210007200">
<title>SVG Picture created as jantor-Edge_Cuts.svg date 2023/01/01 15:11:30 </title>
  <desc>Picture generated by PCBNEW </desc>
<g style="fill:#000000; fill-opacity:1.000000;stroke:#000000; stroke-opacity:1.000000;
stroke-linecap:round; stroke-linejoin:round;"
 transform="translate(0 0) scale(1 1)">
</g>
<g style="fill:#000000; fill-opacity:0.0; 
stroke:#000000; stroke-width:0.000000; stroke-opacity:1; 
stroke-linecap:round; stroke-linejoin:round;">
</g>
<g style="fill:#000000; fill-opacity:0.0; 
stroke:#000000; stroke-width:100000.000000; stroke-opacity:1; 
stroke-linecap:round; stroke-linejoin:round;">
<path d="M62579425 -155486205
L62579423 -171486204
" />
<path d="M583157545.999939 -71329956.000705 A1500044.000000 1500044.000000 0.0 0 0 584657543.999295 -72829954.000000" />
<path d="M176341923 -87486207
L176341917 -113017455
" />
<path d="M305501295 -144048704
L305501294 -148501830
" />
<path d="M413138794 -44283079
L413138795 -28283080
" />
<path d="M523579425 -155486205
L523579423 -171486204
" />
<path d="M74907546.997858 -112876804.002366 A593696.000000 593696.000000 0.0 0 0 75501295.995136 -113470575.999999" />
<path d="M515216904.002548 -51267455.001575 A593696.000000 593696.000000 0.0 0 0 515810668.000000 -50673704.003894" />
<path d="M117657547 -96829955
L117657547 -112829955
" />
<path d="M15029420.980996 -188283027.958862 A593528.000000 593528.000000 0.0 0 0 14435672.024922 -187689328.000007" />
<path d="M580141922 -90158078
L580141921 -76501830
" />
<path d="M117657555.998992 -112829955.000330 A1500056.000000 1500056.000000 0.0 0 0 116157545.000000 -114329955.999325" />
<path d="M206079408.000007 -65986206.000036 A2499892.000000 2499892.000000 0.0 0 0 206343351.821120 -64868167.910555" />
<path d="M164529421 -172986204
L176079422 -172986204
" />
<path d="M201188795 -85564329
L201188798 -65673702
" />
<path d="M541079406.997055 -152486206.000752 A1499907.000000 1499907.000000 0.0 0 0 539579423.000000 -153986206.998024" />
<path d="M72029404.002366 -32267453.001428 A593696.000000 593696.000000 0.0 0 0 72623170.999999 -31673704.004245" />
<path d="M230282547 -12079955
L230282544 -75314329
" />
<path d="M316188798 -65673702
L326876292 -31236202
" />
<path d="M500060627.999720 -44439328.999188 A1500028.000000 1500028.000000 0.0 0 0 498560671.000000 -45939327.998320" />
<path d="M533029421 -50079956
L533029420 -32267453
" />
<path d="M58282546 -149095580
L74907547 -149095579
" />
<path d="M499638796 -133783077
L499638796 -110283080
" />
<path d="M316485670 -148939330
L335485671 -148939329
" />
<path d="M467657547.000063 -71329954.999264 A1499955.000000 1499955.000000 0.0 0 0 466157545.000675 -69829955.000000" />
<path d="M191688796 -11642454
L152888799 -11642453
" />
<path d="M477513796 -90611204
L477513796 -108423704
" />
<path d="M576282547 -12079955
L576282544 -75314329
" />
<path d="M333579422 -29486205
L310579423 -9486208
" />
<path d="M362513796 -90611204
L362513796 -108423704
" />
<path d="M400216921 -86298707
L400216923 -55720579
" />
<path d="M487138766.825183 -170283109.172323 A2121421.000000 2121421.000000 0.0 0 0 486741429.774235 -167834398.887122" />
<path d="M238060670 -128439329
L237560671 -128439329
" />
<path d="M218579412.345169 -29486214.655301 A2121248.000000 2121248.000000 0.0 0 0 218976785.889785 -31934882.944890" />
<path d="M466157545 -69829955
L466157547 -8829955
" />
<path d="M459798171 -90751829
L464548171 -90751829
" />
<path d="M23638853.990892 -89423704.010157 A593854.000000 593854.000000 0.0 0 0 23045045.000000 -90017453.998295" />
<path d="M68970045.992997 -112876904.997544 A593805.000000 593805.000000 0.0 0 0 68376295.000445 -112283077.000000" />
<path d="M413138780.004800 -28283079.998800 A1500120.000000 1500120.000000 0.0 0 0 414638796.000000 -26783080.003605" />
<path d="M499638779.004800 -110283079.998640 A1500121.000000 1500121.000000 0.0 0 0 501138792.000000 -108783079.003888" />
<path d="M432188798 -65673702
L442876292 -31236202
" />
<path d="M510638795 -107283079
L510638794 -47283079
" />
<path d="M284216921 -86298707
L284216923 -55720579
" />
<path d="M138638753.999987 -89423703.999717 A593754.000000 593754.000000 0.0 0 0 138045045.000000 -90017453.998295" />
<path d="M230876295.996280 -75908055.992239 A593656.000000 593656.000000 0.0 0 0 230282544.004246 -75314329.000001" />
<path d="M579657545.000000 -7329953.000675 A1500047.000000 1500047.000000 0.0 0 0 581157546.999325 -8829955.000000" />
<path d="M228204429.004993 -91345576.999091 A593671.000000 593671.000000 0.0 0 0 228798170.999999 -90751829.004246" />
<path d="M584657544 -72829954
L584657547 -90829955
" />
<path d="M421501295 -144048704
L421501294 -148501830
" />
<path d="M369638855.009284 -51423704.989564 A593645.000000 593645.000000 0.0 0 0 370232545.000000 -50829955.001706" />
<path d="M182138778.995119 -44283079.001210 A1499879.000000 1499879.000000 0.0 0 0 180638796.000000 -45783078.996394" />
<path d="M407341923 -87486207
L407341917 -113017455
" />
<path d="M175748171 -86892453
L169810671 -86892454
" />
<path d="M347657555.998992 -112829955.000330 A1500056.000000 1500056.000000 0.0 0 0 346157545.000000 -114329955.999325" />
<path d="M349141922 -90158078
L349141921 -76501830
" />
<path d="M114688795 -11486204
L89248171 -11486204
" />
<path d="M564976786 -31934883
L552343352 -64868168
" />
<path d="M465141922 -90158078
L465141921 -76501830
" />
<path d="M32841922 -168533081
L52435668 -179814328
" />
<path d="M442876292 -31236202
L423282549 -19954953
" />
<path d="M403688799 -149689326
L403688795 -167501827
" />
<path d="M362513752.999987 -108423703.999710 A593753.000000 593753.000000 0.0 0 0 361920047.000000 -109017452.998140" />
<path d="M529970046 -112876828
L535907547 -112876828
" />
<path d="M205657555.000936 -155329952.999682 A1499945.000000 1499945.000000 0.0 0 0 207157547.000000 -153829955.000736" />
<path d="M571657554.000972 -115829953.999712 A1499946.000000 1499946.000000 0.0 0 0 573157546.000000 -114329954.000705" />
<path d="M156451296 -7486204
L190579423 -7486203
" />
<path d="M130029421 -188283079
L155470044 -188283079
" />
<path d="M528138794 -44283079
L528138795 -28283080
" />
<path d="M77607547 -172829955
L82123172 -167939330
" />
<path d="M43529421 -114204954
L43529420 -134095581
" />
<path d="M352157546 -95329954
L349157546 -95329954
" />
<path d="M579657545 -7329953
L546685673 -7329952
" />
<path d="M298376295 -112283077
L298376297 -86751830
" />
<path d="M134060630.000261 -47439328.000747 A1499970.000000 1499970.000000 0.0 0 0 135560670.000000 -45939330.001633" />
<path d="M541188797 -26783079
L529638796 -26783080
" />
<path d="M480060671 -83939330
L480060670 -47439328
" />
<path d="M183970046.005967 -112876904.998218 A593705.000000 593705.000000 0.0 0 0 183376295.012741 -112283077.000003" />
<path d="M120157545 -69829955
L120157547 -8829955
" />
<path d="M580141928.994877 -90158078.000919 A593829.000000 593829.000000 0.0 0 0 579548171.000000 -90751828.995756" />
<path d="M86188795 -85564329
L86188798 -65673702
" />
<path d="M431298170 -167939329
L428123172 -167939330
" />
<path d="M574204429.994877 -109158078.000919 A593830.000000 593830.000000 0.0 0 0 573610671.000000 -109751829.995756" />
<path d="M461282547 -12079955
L461282544 -75314329
" />
<path d="M575688794.999570 -11486153.000021 A593747.000000 593747.000000 0.0 0 0 576282546.997453 -12079955.000000" />
<path d="M167110671 -26939327
L162595045 -31829953
" />
<path d="M153638782.996974 -133783077.000640 A2499583.000000 2499583.000000 0.0 0 0 153374861.800378 -134901113.900182" />
<path d="M333579412.345169 -29486214.655301 A2121248.000000 2121248.000000 0.0 0 0 333976785.889785 -31934882.944890" />
<path d="M538282549 -19954953
L538282543 -12236204
" />
<path d="M168029421 -188126828
L206829419 -188126829
" />
<path d="M85685673 -7329952
L89248171 -11486204
" />
<path d="M504529420 -134095581
L493841922 -168533081
" />
<path d="M539579423 -153986207
L525079419 -153986204
" />
<path d="M358060727.994453 -102939329.004901 A1500128.000000 1500128.000000 0.0 0 0 356560671.000000 -104439327.998320" />
<path d="M57688780.000569 -149689326.000832 A593720.000000 593720.000000 0.0 0 0 58282546.000000 -149095580.001782" />
<path d="M221079420 -148345581
L221079422 -110345579
" />
<path d="M545704421 -31673702
L533623171 -31673704
" />
<path d="M546891928.994611 -167345580.000808 A593829.000000 593829.000000 0.0 0 0 546298170.000000 -167939328.995874" />
<path d="M169138793.452198 -192283097.546373 A7867529.000000 7867529.000000 0.0 0 0 164138796.322389 -190283076.639618" />
<path d="M551657555.000936 -155329952.999682 A1499945.000000 1499945.000000 0.0 0 0 553157547.000000 -153829955.000736" />
<path d="M246513755.000013 -90611204.000276 A593745.000000 593745.000000 0.0 0 0 247107546.000000 -90017455.001782" />
<path d="M361920047 -109017453
L357170046 -109017454
" />
<path d="M110657554.000972 -115829953.999712 A1499946.000000 1499946.000000 0.0 0 0 112157546.000000 -114329954.000705" />
<path d="M500060670 -44439329
L500060671 -28439329
" />
<path d="M473060729.005547 -86939328.994925 A1499871.000000 1499871.000000 0.0 0 0 474560670.000000 -85439329.001633" />
<path d="M452079420 -148345581
L452079422 -110345579
" />
<path d="M499638782.996974 -133783077.000640 A2499583.000000 2499583.000000 0.0 0 0 499374861.800378 -134901113.900182" />
<path d="M177579503.996927 -171486203.994816 A1499904.000000 1499904.000000 0.0 0 0 176079422.000001 -172986203.989438" />
<path d="M19060730.005461 -47439327.994879 A1499870.000000 1499870.000000 0.0 0 0 20560670.000000 -45939330.001633" />
<path d="M75579423.749296 -7486178.983251 A7867047.000000 7867047.000000 0.0 0 0 80579422.775281 -9486208.251189" />
<path d="M385060627.999720 -44439328.999188 A1500028.000000 1500028.000000 0.0 0 0 383560671.000000 -45939327.998320" />
<path d="M262841922 -168533081
L282435668 -179814328
" />
<path d="M158529421 -114204954
L158529420 -134095581
" />
<path d="M245029421.009986 -188283127.987666 A593628.000000 593628.000000 0.0 0 0 244435672.024918 -187689328.000007" />
<path d="M225657554.999028 -152329954.000324 A1500055.000000 1500055.000000 0.0 0 0 224157547.000000 -153829954.999264" />
<path d="M351657547.000063 -71329954.999264 A1499955.000000 1499955.000000 0.0 0 0 350157545.000675 -69829955.000000" />
<path d="M400810670.998779 -86892478.999292 A593779.000000 593779.000000 0.0 0 0 400216921.000041 -86298707.000000" />
<path d="M281138794 -45783078
L295638796 -45783079
" />
<path d="M414970046.005967 -112876904.998218 A593705.000000 593705.000000 0.0 0 0 414376295.012741 -112283077.000003" />
<path d="M167435668 -179814328
L167435672 -187533078
" />
<path d="M336079431.005256 -110345578.998802 A593669.000000 593669.000000 0.0 0 0 336673170.000000 -109751831.004127" />
<path d="M528138778.995119 -44283079.001210 A1499879.000000 1499879.000000 0.0 0 0 526638796.000000 -45783078.996394" />
<path d="M395638795 -107283079
L395638794 -47283079
" />
<path d="M315891928.994611 -167345580.000808 A593829.000000 593829.000000 0.0 0 0 315298170.000000 -167939328.995874" />
<path d="M350157545 -69829955
L350157547 -8829955
" />
<path d="M25741430 -167834399
L38374862 -134901114
" />
<path d="M52110671 -26939327
L47595045 -31829953
" />
<path d="M298970046.005967 -112876904.998218 A593705.000000 593705.000000 0.0 0 0 298376295.012741 -112283077.000003" />
<path d="M182138794 -44283079
L182138795 -28283080
" />
<path d="M164638795 -107283079
L164638794 -47283079
" />
<path d="M578657555.998992 -112829955.000330 A1500056.000000 1500056.000000 0.0 0 0 577157545.000000 -114329955.999325" />
<path d="M413138778.995119 -44283079.001210 A1499879.000000 1499879.000000 0.0 0 0 411638796.000000 -45783078.996394" />
<path d="M321079408.000007 -65986206.000036 A2499892.000000 2499892.000000 0.0 0 0 321343351.821120 -64868167.910555" />
<path d="M182138780.004800 -28283079.998800 A1500120.000000 1500120.000000 0.0 0 0 183638796.000000 -26783080.003605" />
<path d="M52435668 -179814328
L52435672 -187533078
" />
<path d="M310079424 -92486204
L310079419 -152486206
" />
<path d="M310079406.997055 -152486206.000752 A1499907.000000 1499907.000000 0.0 0 0 308579423.000000 -153986206.998024" />
<path d="M290748171.001172 -86892477.000708 A593723.000000 593723.000000 0.0 0 0 291341922.999959 -87486207.000000" />
<path d="M515810670.998779 -86892478.999292 A593779.000000 593779.000000 0.0 0 0 515216921.000041 -86298707.000000" />
<path d="M183970046 -112876828
L189907547 -112876828
" />
<path d="M452673170 -109751831
L458610671 -109751830
" />
<path d="M13841920.999151 -123861228.000371 A593772.000000 593772.000000 0.0 0 0 14435671.998218 -124454954.000000" />
<path d="M287688780.000569 -149689326.000832 A593720.000000 593720.000000 0.0 0 0 288282546.000000 -149095580.001782" />
<path d="M237560671 -104439329
L240560671 -104439328
" />
<path d="M484638796 -51423705
L484638796 -89423704
" />
<path d="M249060671 -83939330
L249060670 -47439328
" />
<path d="M158529420 -134095581
L147841922 -168533081
" />
<path d="M15920047 -109017453
L11170046 -109017454
" />
<path d="M365060629.999700 -83939329.999180 A1500030.000000 1500030.000000 0.0 0 0 363560672.000000 -85439329.998272" />
<path d="M152888799 -11642453
L156451296 -7486204
" />
<path d="M297138778.995119 -44283079.001210 A1499879.000000 1499879.000000 0.0 0 0 295638796.000000 -45783078.996394" />
<path d="M408579425 -155486205
L408579423 -171486204
" />
<path d="M190501296 -113470576
L190501295 -144048704
" />
<path d="M270138792 -108783079
L278138795 -108783078
" />
<path d="M206079502.996863 -89486202.994891 A1499903.000000 1499903.000000 0.0 0 0 204579424.000001 -90986202.989674" />
<path d="M430704421 -31673702
L418623171 -31673704
" />
<path d="M358060671 -102939329
L358060670 -86939329
" />
<path d="M268638779.004800 -110283079.998640 A1500121.000000 1500121.000000 0.0 0 0 270138792.000000 -108783079.003888" />
<path d="M190501295 -144048704
L190501294 -148501830
" />
<path d="M238657553.999028 -93829954.000252 A1500054.000000 1500054.000000 0.0 0 0 237157546.000000 -95329953.999295" />
<path d="M456657554.000972 -115829953.999712 A1499946.000000 1499946.000000 0.0 0 0 458157546.000000 -114329954.000705" />
<path d="M172688780.000569 -149689326.000832 A593720.000000 593720.000000 0.0 0 0 173282546.000000 -149095580.001782" />
<path d="M284216904.002548 -51267455.001575 A593696.000000 593696.000000 0.0 0 0 284810668.000000 -50673704.003894" />
<path d="M400216904.002548 -51267455.001575 A593696.000000 593696.000000 0.0 0 0 400810668.000000 -50673704.003894" />
<path d="M417435671 -50673703
L400810668 -50673704
" />
<path d="M77282549 -19954953
L77282543 -12236204
" />
<path d="M190579423.375589 -7486190.956874 A7866832.000000 7866832.000000 0.0 0 0 195579423.262928 -9486207.706105" />
<path d="M126060671 -192439328
L159032546 -192439328
" />
<path d="M129435672 -187689328
L129435672 -124454954
" />
<path d="M546685673 -7329952
L550248171 -11486204
" />
<path d="M319579424 -90986203
L311579421 -90986203
" />
<path d="M472060671.000047 -192439328.998320 A1499929.000000 1499929.000000 0.0 0 0 470560671.001728 -190939328.000000" />
<path d="M238060670.000000 -128439329.001633 A1500071.000000 1500071.000000 0.0 0 0 239560670.998320 -129939329.000000" />
<path d="M529970044 -86158077
L546595045 -86158077
" />
<path d="M476029421.009986 -188283127.987666 A593628.000000 593628.000000 0.0 0 0 475435672.024918 -187689328.000007" />
<path d="M284138793.452198 -192283097.546373 A7867529.000000 7867529.000000 0.0 0 0 279138796.322389 -190283076.639618" />
<path d="M255741430 -167834399
L268374862 -134901114
" />
<path d="M203266921 -192283080
L169138794 -192283080
" />
<path d="M349141928.994877 -90158078.000919 A593829.000000 593829.000000 0.0 0 0 348548170.999999 -90751828.995756" />
<path d="M346157545 -114329956
L342157546 -114329954
" />
<path d="M515138793.452198 -192283097.546373 A7867529.000000 7867529.000000 0.0 0 0 510138796.322389 -190283076.639618" />
<path d="M130029421.009986 -188283127.987666 A593628.000000 593628.000000 0.0 0 0 129435672.024918 -187689328.000007" />
<path d="M195079503.003071 -92486204.005056 A1500097.000000 1500097.000000 0.0 0 0 196579421.000001 -90986203.010680" />
<path d="M461876295.996280 -75908055.992239 A593656.000000 593656.000000 0.0 0 0 461282544.004246 -75314329.000001" />
<path d="M57688780.999386 -167501826.999363 A593781.000000 593781.000000 0.0 0 0 57095043.000000 -168095580.998443" />
<path d="M267888799 -11642453
L271451296 -7486204
" />
<path d="M361029421 -188283079
L386470044 -188283079
" />
<path d="M200891930.005124 -149533077.998291 A593670.000000 593670.000000 0.0 0 0 201485670.000000 -148939330.004127" />
<path d="M423607547 -172829955
L428123172 -167939330
" />
<path d="M121060671 -108939330
L121060671 -105939329
" />
<path d="M125576297 -109611203
L125576296 -123267455
" />
<path d="M118657545.000000 -7329953.000675 A1500047.000000 1500047.000000 0.0 0 0 120157546.999325 -8829955.000000" />
<path d="M195079424 -92486204
L195079419 -152486206
" />
<path d="M274420047 -31829955
L277595045 -31829953
" />
<path d="M160013799 -168095580
L172095043 -168095581
" />
<path d="M414376277.004126 -86751829.997643 A593823.000000 593823.000000 0.0 0 0 414970044.000000 -86158077.002641" />
<path d="M523579504.003008 -155486205.005003 A1500096.000000 1500096.000000 0.0 0 0 525079419.000001 -153986204.010920" />
<path d="M471576354.008934 -109611202.990110 A593646.000000 593646.000000 0.0 0 0 472170046.000000 -109017454.001782" />
<path d="M408579503.996927 -171486203.994816 A1499904.000000 1499904.000000 0.0 0 0 407079422.000001 -172986203.989438" />
<path d="M386138792 -108783079
L394138795 -108783078
" />
<path d="M228798171 -90751829
L233548171 -90751829
" />
<path d="M164638778.004880 -47283078.998710 A1500122.000000 1500122.000000 0.0 0 0 166138794.000000 -45783078.003745" />
<path d="M369045045 -90017454
L363107546 -90017455
" />
<path d="M397138794 -45783078
L411638796 -45783079
" />
<path d="M85298170 -167939329
L82123172 -167939330
" />
<path d="M403688780.999386 -167501826.999363 A593781.000000 593781.000000 0.0 0 0 403095043.000000 -168095580.998443" />
<path d="M389826255.007600 -32423704.993442 A593845.000000 593845.000000 0.0 0 0 390420047.000000 -31829955.002365" />
<path d="M10576297 -109611203
L10576296 -123267455
" />
<path d="M11170047 -123861204
L13841921 -123861204
" />
<path d="M518688780.000569 -149689326.000832 A593720.000000 593720.000000 0.0 0 0 519282546.000000 -149095580.001782" />
<path d="M357060671.000047 -192439328.998320 A1499929.000000 1499929.000000 0.0 0 0 355560671.001728 -190939328.000000" />
<path d="M315685673 -7329952
L319248171 -11486204
" />
<path d="M456657554.999028 -152329954.000324 A1500055.000000 1500055.000000 0.0 0 0 455157547.000000 -153829954.999264" />
<path d="M371741430 -167834399
L384374862 -134901114
" />
<path d="M546891923 -167345580
L546891917 -149533078
" />
<path d="M201188776.995755 -85564329.002153 A593677.000000 593677.000000 0.0 0 0 200595045.000000 -86158076.997452" />
<path d="M279638778.004880 -47283078.998710 A1500122.000000 1500122.000000 0.0 0 0 281138794.000000 -45783078.003745" />
<path d="M430704421 -31673702
L426188797 -26783079
" />
<path d="M76688796 -11642454
L37888799 -11642453
" />
<path d="M6060669.002640 -105939329.000119 A1499911.000000 1499911.000000 0.0 0 0 7560671.000000 -104439329.002760" />
<path d="M246513796 -90611204
L246513796 -108423704
" />
<path d="M480060630.000261 -47439328.000747 A1499970.000000 1499970.000000 0.0 0 0 481560670.000000 -45939330.001633" />
<path d="M468157545.999939 -71329956.000705 A1500044.000000 1500044.000000 0.0 0 0 469657543.999295 -72829954.000000" />
<path d="M6060671 -126939330
L6060671 -108939330
" />
<path d="M121060671 -126939330
L121060671 -108939330
" />
<path d="M435157545 -172829952
L423607547 -172829955
" />
<path d="M395638777.995119 -107283079.001372 A1499878.000000 1499878.000000 0.0 0 0 394138795.000000 -108783077.996325" />
<path d="M537688796 -11642454
L498888799 -11642453
" />
<path d="M498888799 -11642453
L502451296 -7486204
" />
<path d="M314704421 -31673702
L302623171 -31673704
" />
<path d="M26138797 -170283079
L49138796 -190283077
" />
<path d="M123657544 -72829954
L123657547 -90829955
" />
<path d="M153638796 -133783077
L153638796 -110283080
" />
<path d="M398110671 -26939327
L393595045 -31829953
" />
<path d="M53029421.000000 -188126827.999629 A593728.000000 593728.000000 0.0 0 0 52435672.000408 -187533078.000000" />
<path d="M158826255.007600 -32423704.993442 A593845.000000 593845.000000 0.0 0 0 159420047.000000 -31829955.002365" />
<path d="M515216923 -55720579
L515216921 -51267455
" />
<path d="M166138794 -45783078
L180638796 -45783079
" />
<path d="M43826296 -32423705
L43826295 -50236205
" />
<path d="M183970044 -86158077
L200595045 -86158077
" />
<path d="M391013799 -168095580
L395529421 -172986204
" />
<path d="M243841920.999151 -123861228.000371 A593772.000000 593772.000000 0.0 0 0 244435671.998218 -124454954.000000" />
<path d="M414970044 -86158077
L431595045 -86158077
" />
<path d="M199704421 -31673702
L187623171 -31673704
" />
<path d="M57688799 -149689326
L57688795 -167501827
" />
<path d="M84704421 -31673702
L80188797 -26783079
" />
<path d="M431891930.005124 -149533077.998291 A593670.000000 593670.000000 0.0 0 0 432485670.000000 -148939330.004127" />
<path d="M301435671 -50673703
L284810668 -50673704
" />
<path d="M384638782.996974 -133783077.000640 A2499583.000000 2499583.000000 0.0 0 0 384374861.800378 -134901113.900182" />
<path d="M186435671 -50673703
L169810668 -50673704
" />
<path d="M506013799 -168095580
L510529421 -172986204
" />
<path d="M241060671 -192439328
L274032546 -192439328
" />
<path d="M237157546 -95329954
L234157546 -95329954
" />
<path d="M574204429.004993 -91345576.999091 A593671.000000 593671.000000 0.0 0 0 574798171.000000 -90751829.004246" />
<path d="M418029402.997360 -50079955.998302 A593803.000000 593803.000000 0.0 0 0 417435670.999999 -50673702.995755" />
<path d="M103579422 -29486205
L80579423 -9486208
" />
<path d="M241060671.000047 -192439328.998320 A1499929.000000 1499929.000000 0.0 0 0 239560671.001728 -190939328.000000" />
<path d="M408579504.003008 -155486205.005003 A1500096.000000 1500096.000000 0.0 0 0 410079419.000001 -153986204.010920" />
<path d="M521748171.001172 -86892477.000708 A593723.000000 593723.000000 0.0 0 0 522341922.999959 -87486207.000000" />
<path d="M399029421.000000 -188126827.999629 A593728.000000 593728.000000 0.0 0 0 398435672.000408 -187533078.000000" />
<path d="M49638777.995119 -107283079.001372 A1499878.000000 1499878.000000 0.0 0 0 48138795.000000 -108783077.996325" />
<path d="M288282546 -149095580
L304907547 -149095579
" />
<path d="M131513755.000013 -90611204.000276 A593745.000000 593745.000000 0.0 0 0 132107546.000000 -90017455.001782" />
<path d="M359560670 -85439329
L363560672 -85439330
" />
<path d="M41451296 -7486204
L75579423 -7486203
" />
<path d="M183376295 -112283077
L183376297 -86751830
" />
<path d="M279638795 -107283079
L279638794 -47283079
" />
<path d="M270560671 -26939327
L282110671 -26939327
" />
<path d="M386560671 -26939327
L398110671 -26939327
" />
<path d="M127060727.994453 -102939329.004901 A1500128.000000 1500128.000000 0.0 0 0 125560671.000000 -104439327.998320" />
<path d="M225657546 -115829954
L225657546 -152329954
" />
<path d="M283029421 -188126828
L321829419 -188126829
" />
<path d="M176341904.982291 -113017455.002936 A593605.000000 593605.000000 0.0 0 0 175748171.000003 -113611204.985983" />
<path d="M549266921 -192283080
L515138794 -192283080
" />
<path d="M369638753.999987 -89423703.999717 A593754.000000 593754.000000 0.0 0 0 369045045.000000 -90017453.998295" />
<path d="M352157545.999939 -71329956.000705 A1500044.000000 1500044.000000 0.0 0 0 353657543.999295 -72829954.000000" />
<path d="M141138797 -170283079
L164138796 -190283077
" />
<path d="M455157547 -153829955
L438157547 -153829955
" />
<path d="M233548173.999750 -75908079.004611 A593821.000000 593821.000000 0.0 0 0 234141920.995874 -76501830.000000" />
<path d="M225657554.000972 -115829953.999712 A1499946.000000 1499946.000000 0.0 0 0 227157546.000000 -114329954.000705" />
<path d="M201485670 -148939330
L220485671 -148939329
" />
<path d="M474560670 -85439329
L478560672 -85439330
" />
<path d="M471576297 -109611203
L471576296 -123267455
" />
<path d="M340657554.999028 -152329954.000324 A1500055.000000 1500055.000000 0.0 0 0 339157547.000000 -153829954.999264" />
<path d="M37888799 -11642453
L41451296 -7486204
" />
<path d="M467657547 -71329953
L468157546 -71329954
" />
<path d="M459204423 -109158078
L459204422 -91345577
" />
<path d="M356576297 -109611203
L356576296 -123267455
" />
<path d="M452079431.005256 -110345578.998802 A593669.000000 593669.000000 0.0 0 0 452673170.000000 -109751831.004127" />
<path d="M432485670 -148939330
L451485671 -148939329
" />
<path d="M67138778.995119 -44283079.001210 A1499879.000000 1499879.000000 0.0 0 0 65638796.000000 -45783078.996394" />
<path d="M206079423 -65986206
L206079424 -89486203
" />
<path d="M8060670 -128439329
L7560671 -128439329
" />
<path d="M60748171 -86892453
L54810671 -86892454
" />
<path d="M481560670 -45939330
L498560671 -45939328
" />
<path d="M464657545.000000 -7329953.000675 A1500047.000000 1500047.000000 0.0 0 0 466157546.999325 -8829955.000000" />
<path d="M357170047.000000 -123861203.998140 A593704.000000 593704.000000 0.0 0 0 356576296.001705 -123267455.000000" />
<path d="M90657555.000936 -155329952.999682 A1499945.000000 1499945.000000 0.0 0 0 92157547.000000 -153829955.000736" />
<path d="M118548173.999750 -75908079.004611 A593821.000000 593821.000000 0.0 0 0 119141920.995874 -76501830.000000" />
<path d="M550157545 -172829952
L538607547 -172829955
" />
<path d="M362513755.000013 -90611204.000276 A593745.000000 593745.000000 0.0 0 0 363107546.000000 -90017455.001782" />
<path d="M237157545.999939 -71329956.000705 A1500044.000000 1500044.000000 0.0 0 0 238657543.999295 -72829954.000000" />
<path d="M472170047.000000 -123861203.998140 A593704.000000 593704.000000 0.0 0 0 471576296.001705 -123267455.000000" />
<path d="M158826253.992400 -50236205.006562 A593654.000000 593654.000000 0.0 0 0 158232546.000000 -50829953.997544" />
<path d="M426079424 -92486204
L426079419 -152486206
" />
<path d="M348548173.999750 -75908079.004611 A593821.000000 593821.000000 0.0 0 0 349141920.995874 -76501830.000000" />
<path d="M273826253.992400 -50236205.006562 A593654.000000 593654.000000 0.0 0 0 273232546.000000 -50829953.997544" />
<path d="M62579503.999995 -171486204.000216 A1500004.000000 1500004.000000 0.0 0 0 61079422.000000 -172986203.997972" />
<path d="M406748171 -86892453
L400810671 -86892454
" />
<path d="M23045045 -90017454
L17107546 -90017455
" />
<path d="M435579424 -90986203
L427579421 -90986203
" />
<path d="M23638755.000021 -51423705.000345 A593745.000000 593745.000000 0.0 0 0 24232545.000000 -50829955.001705" />
<path d="M550579424 -90986203
L542579421 -90986203
" />
<path d="M232657555.998992 -112829955.000330 A1500056.000000 1500056.000000 0.0 0 0 231157545.000000 -114329955.999325" />
<path d="M86188776.995755 -85564329.002153 A593677.000000 593677.000000 0.0 0 0 85595045.000000 -86158076.997452" />
<path d="M11170047.000000 -123861203.999757 A593734.000000 593734.000000 0.0 0 0 10576296.000189 -123267455.000000" />
<path d="M557876292 -31236202
L538282549 -19954953
" />
<path d="M354060670 -128439329
L353560671 -128439329
" />
<path d="M169216904.002548 -51267455.001575 A593696.000000 593696.000000 0.0 0 0 169810668.000000 -50673704.003894" />
<path d="M204579424 -90986203
L196579421 -90986203
" />
<path d="M570157547 -153829955
L553157547 -153829955
" />
<path d="M169216923 -55720579
L169216921 -51267455
" />
<path d="M422688795.999514 -11642457.007760 A593843.000000 593843.000000 0.0 0 0 423282542.992240 -12236204.000001" />
<path d="M510638778.004880 -47283078.998710 A1500122.000000 1500122.000000 0.0 0 0 512138794.000000 -45783078.003745" />
<path d="M68376277.004126 -86751829.997643 A593823.000000 593823.000000 0.0 0 0 68970044.000000 -86158077.002641" />
<path d="M463657547 -96829955
L463657547 -112829955
" />
<path d="M535907546.997858 -112876804.002366 A593696.000000 593696.000000 0.0 0 0 536501295.995136 -113470575.999999" />
<path d="M437079502.996863 -89486202.994891 A1499903.000000 1499903.000000 0.0 0 0 435579424.000001 -90986202.989674" />
<path d="M385060670 -44439329
L385060671 -28439329
" />
<path d="M510638777.995119 -107283079.001372 A1499878.000000 1499878.000000 0.0 0 0 509138795.000000 -108783077.996325" />
<path d="M436657555.000936 -155329952.999682 A1499945.000000 1499945.000000 0.0 0 0 438157547.000000 -153829955.000736" />
<path d="M354060670.000000 -128439329.001633 A1500071.000000 1500071.000000 0.0 0 0 355560670.998320 -129939329.000000" />
<path d="M16513796 -90611204
L16513796 -108423704
" />
<path d="M121657547 -71329953
L122157546 -71329954
" />
<path d="M119141928.994877 -90158078.000919 A593829.000000 593829.000000 0.0 0 0 118548170.999999 -90751828.995756" />
<path d="M141138766.825183 -170283109.172323 A2121421.000000 2121421.000000 0.0 0 0 140741429.774235 -167834398.887122" />
<path d="M273529420 -134095581
L262841922 -168533081
" />
<path d="M472060671 -192439328
L505032546 -192439328
" />
<path d="M175748171.001172 -86892477.000708 A593723.000000 593723.000000 0.0 0 0 176341922.999959 -87486207.000000" />
<path d="M164638777.995119 -107283079.001372 A1499878.000000 1499878.000000 0.0 0 0 163138795.000000 -108783077.996325" />
<path d="M305501278.999242 -148501829.999242 A593779.000000 593779.000000 0.0 0 0 304907547.000000 -149095578.998140" />
<path d="M240576354.008934 -109611202.990110 A593646.000000 593646.000000 0.0 0 0 241170046.000000 -109017454.001782" />
<path d="M552079408.000007 -65986206.000036 A2499892.000000 2499892.000000 0.0 0 0 552343351.821120 -64868167.910555" />
<path d="M348548174 -75908077
L345876296 -75908079
" />
<path d="M80079503.000005 -92486203.999789 A1499997.000000 1499997.000000 0.0 0 0 81579421.000000 -90986203.002080" />
<path d="M582657547 -71329953
L583157546 -71329954
" />
<path d="M504529421 -114204954
L504529420 -134095581
" />
<path d="M228204429.994877 -109158078.000919 A593830.000000 593830.000000 0.0 0 0 227610670.999999 -109751829.995756" />
<path d="M449976786 -31934883
L437343352 -64868168
" />
<path d="M154060627.000280 -28439329.000851 A1499973.000000 1499973.000000 0.0 0 0 155560671.000000 -26939327.001680" />
<path d="M274032546 -192439328
L270470044 -188283079
" />
<path d="M118657545 -7329953
L85685673 -7329952
" />
<path d="M475435672 -187689328
L475435672 -124454954
" />
<path d="M38638806.999894 -133783076.999899 A2499807.000000 2499807.000000 0.0 0 0 38374862.152064 -134901114.076037" />
<path d="M233657545 -7329953
L200685673 -7329952
" />
<path d="M205657551.999028 -171329954.000216 A1500052.000000 1500052.000000 0.0 0 0 204157545.000000 -172829951.999325" />
<path d="M449579412.345169 -29486214.655301 A2121248.000000 2121248.000000 0.0 0 0 449976785.889785 -31934882.944890" />
<path d="M515216921 -86298707
L515216923 -55720579
" />
<path d="M352060729.005547 -105939328.995011 A1499871.000000 1499871.000000 0.0 0 0 353560671.000000 -104439329.001680" />
<path d="M366560670 -45939330
L383560671 -45939328
" />
<path d="M546891930.005124 -149533077.998291 A593670.000000 593670.000000 0.0 0 0 547485670.000000 -148939330.004127" />
<path d="M113204429.004993 -91345576.999091 A593671.000000 593671.000000 0.0 0 0 113798170.999999 -90751829.004246" />
<path d="M574798171 -90751829
L579548171 -90751829
" />
<path d="M348657545 -7329953
L315685673 -7329952
" />
<path d="M576876295.996280 -75908055.992239 A593656.000000 593656.000000 0.0 0 0 576282544.004246 -75314329.000001" />
<path d="M49638795 -107283079
L49638794 -47283079
" />
<path d="M106673170 -109751831
L112610671 -109751830
" />
<path d="M106079431.005256 -110345578.998802 A593669.000000 593669.000000 0.0 0 0 106673170.000000 -109751831.004127" />
<path d="M532435671 -50673703
L515810668 -50673704
" />
<path d="M45013799 -168095580
L49529421 -172986204
" />
<path d="M43529406.017947 -114204953.996317 A593894.000000 593894.000000 0.0 0 0 44123172.000003 -113611206.013794" />
<path d="M284216923 -55720579
L284216921 -51267455
" />
<path d="M119141922 -90158078
L119141921 -76501830
" />
<path d="M459204429.004993 -91345576.999091 A593671.000000 593671.000000 0.0 0 0 459798170.999999 -90751829.004246" />
<path d="M398435668 -179814328
L398435672 -187533078
" />
<path d="M177579504.003008 -155486205.005003 A1500096.000000 1500096.000000 0.0 0 0 179079419.000001 -153986204.010920" />
<path d="M421501278.999242 -148501829.999242 A593779.000000 593779.000000 0.0 0 0 420907547.000000 -149095578.998140" />
<path d="M513110671 -26939327
L508595045 -31829953
" />
<path d="M110657554.999028 -152329954.000324 A1500055.000000 1500055.000000 0.0 0 0 109157547.000000 -153829954.999264" />
<path d="M20560670 -45939330
L37560671 -45939328
" />
<path d="M134060671 -83939330
L134060670 -47439328
" />
<path d="M106079428.994476 -148345581.001227 A593829.000000 593829.000000 0.0 0 0 105485670.999999 -148939328.995756" />
<path d="M378841922 -168533081
L398435668 -179814328
" />
<path d="M424579423 -153986207
L410079419 -153986204
" />
<path d="M113798171 -90751829
L118548171 -90751829
" />
<path d="M298970044 -86158077
L315595045 -86158077
" />
<path d="M192282549 -19954953
L192282543 -12236204
" />
<path d="M138638855.009284 -51423704.989564 A593645.000000 593645.000000 0.0 0 0 139232545.000000 -50829955.001706" />
<path d="M169810670.998779 -86892478.999292 A593779.000000 593779.000000 0.0 0 0 169216921.000041 -86298707.000000" />
<path d="M343204429.994877 -109158078.000919 A593830.000000 593830.000000 0.0 0 0 342610670.999999 -109751829.995756" />
<path d="M240576297 -109611203
L240576296 -123267455
" />
<path d="M518688780.999386 -167501826.999363 A593781.000000 593781.000000 0.0 0 0 518095043.000000 -168095580.998443" />
<path d="M567673170 -109751831
L573610671 -109751830
" />
<path d="M536501295 -144048704
L536501294 -148501830
" />
<path d="M221079431.005256 -110345578.998802 A593669.000000 593669.000000 0.0 0 0 221673170.000000 -109751831.004127" />
<path d="M238657547 -90829955
L238657547 -93829954
" />
<path d="M135560670 -45939330
L152560671 -45939328
" />
<path d="M476029421 -188283079
L501470044 -188283079
" />
<path d="M43529420 -134095581
L32841922 -168533081
" />
<path d="M467060671 -108939330
L467060671 -105939329
" />
<path d="M514029421 -188126828
L552829419 -188126829
" />
<path d="M476920047 -109017453
L472170046 -109017454
" />
<path d="M353657553.999028 -93829954.000252 A1500054.000000 1500054.000000 0.0 0 0 352157546.000000 -95329953.999295" />
<path d="M504529406.017947 -114204953.996317 A593894.000000 593894.000000 0.0 0 0 505123172.000003 -113611206.013794" />
<path d="M80079406.997055 -152486206.000752 A1499907.000000 1499907.000000 0.0 0 0 78579423.000000 -153986206.998024" />
<path d="M138638796 -51423705
L138638796 -89423704
" />
<path d="M91079423 -65986206
L91079424 -89486203
" />
<path d="M221673170 -109751831
L227610671 -109751830
" />
<path d="M236657547 -71329953
L237157546 -71329954
" />
<path d="M78579423 -153986207
L64079419 -153986204
" />
<path d="M68970044 -86158077
L85595045 -86158077
" />
<path d="M304907546.997858 -112876804.002366 A593696.000000 593696.000000 0.0 0 0 305501295.995136 -113470575.999999" />
<path d="M15029421 -188283079
L40470044 -188283079
" />
<path d="M431685673 -7329952
L435248171 -11486204
" />
<path d="M519282546 -149095580
L535907547 -149095579
" />
<path d="M353560671.000000 -128439328.998320 A1499929.000000 1499929.000000 0.0 0 0 352060671.001633 -126939330.000000" />
<path d="M43232546 -50829954
L24232545 -50829955
" />
<path d="M115876295.996280 -75908055.992239 A593656.000000 593656.000000 0.0 0 0 115282544.004246 -75314329.000001" />
<path d="M237560671.000000 -128439328.998320 A1499929.000000 1499929.000000 0.0 0 0 236060671.001633 -126939330.000000" />
<path d="M567079420 -148345581
L567079422 -110345579
" />
<path d="M122157545.999939 -71329956.000705 A1500044.000000 1500044.000000 0.0 0 0 123657543.999295 -72829954.000000" />
<path d="M418029421 -50079956
L418029420 -32267453
" />
<path d="M389826253.992400 -50236205.006562 A593654.000000 593654.000000 0.0 0 0 389232546.000000 -50829953.997544" />
<path d="M426079503.003071 -92486204.005056 A1500097.000000 1500097.000000 0.0 0 0 427579421.000001 -90986203.010680" />
<path d="M579548174 -75908077
L576876296 -75908079
" />
<path d="M462157545 -114329956
L458157546 -114329954
" />
<path d="M155138792 -108783079
L163138795 -108783078
" />
<path d="M437079408.000007 -65986206.000036 A2499892.000000 2499892.000000 0.0 0 0 437343351.821120 -64868167.910555" />
<path d="M305501296 -113470576
L305501295 -144048704
" />
<path d="M345282547 -12079955
L345282544 -75314329
" />
<path d="M158529406.017947 -114204953.996317 A593894.000000 593894.000000 0.0 0 0 159123172.000003 -113611206.013794" />
<path d="M474841920.999151 -123861228.000371 A593772.000000 593772.000000 0.0 0 0 475435671.998218 -124454954.000000" />
<path d="M584657547 -90829955
L584657547 -93829954
" />
<path d="M11060671.000027 -192439328.999440 A1499959.000000 1499959.000000 0.0 0 0 9560671.000588 -190939328.000000" />
<path d="M521748171 -86892453
L515810671 -86892454
" />
<path d="M528138780.004800 -28283079.998800 A1500120.000000 1500120.000000 0.0 0 0 529638796.000000 -26783080.003605" />
<path d="M365060671 -83939330
L365060670 -47439328
" />
<path d="M468560671 -104439329
L471560671 -104439328
" />
<path d="M103976786 -31934883
L91343352 -64868168
" />
<path d="M422688796 -11642454
L383888799 -11642453
" />
<path d="M355560671 -129939329
L355560671 -190939328
" />
<path d="M339157547 -153829955
L322157547 -153829955
" />
<path d="M420907546.997858 -112876804.002366 A593696.000000 593696.000000 0.0 0 0 421501295.995136 -113470575.999999" />
<path d="M269060627.999720 -44439328.999188 A1500028.000000 1500028.000000 0.0 0 0 267560671.000000 -45939327.998320" />
<path d="M361029421.009986 -188283127.987666 A593628.000000 593628.000000 0.0 0 0 360435672.024918 -187689328.000007" />
<path d="M242060729.005547 -86939328.994925 A1499871.000000 1499871.000000 0.0 0 0 243560670.000000 -85439329.001633" />
<path d="M536579423.375589 -7486190.956874 A7866832.000000 7866832.000000 0.0 0 0 541579423.262928 -9486207.706105" />
<path d="M321829419 -188126829
L318266921 -192283080
" />
<path d="M122560671.000000 -128439328.998320 A1499929.000000 1499929.000000 0.0 0 0 121060671.001633 -126939330.000000" />
<path d="M268638796 -133783077
L268638796 -110283080
" />
<path d="M38638796 -133783077
L38638796 -110283080
" />
<path d="M40560671 -26939327
L52110671 -26939327
" />
<path d="M154060670 -44439329
L154060671 -28439329
" />
<path d="M60748171.001172 -86892477.000708 A593723.000000 593723.000000 0.0 0 0 61341922.999959 -87486207.000000" />
<path d="M195079406.997055 -152486206.000752 A1499907.000000 1499907.000000 0.0 0 0 193579423.000000 -153986206.998024" />
<path d="M72029421 -50079956
L72029420 -32267453
" />
<path d="M547188798 -65673702
L557876292 -31236202
" />
<path d="M518688799 -149689326
L518688795 -167501827
" />
<path d="M249060630.000261 -47439328.000747 A1499970.000000 1499970.000000 0.0 0 0 250560670.000000 -45939330.001633" />
<path d="M62579504.000008 -155486204.999737 A1499996.000000 1499996.000000 0.0 0 0 64079419.000000 -153986204.002187" />
<path d="M80079424 -92486204
L80079419 -152486206
" />
<path d="M574204423 -109158078
L574204422 -91345577
" />
<path d="M75501295 -144048704
L75501294 -148501830
" />
<path d="M71435671 -50673703
L54810668 -50673704
" />
<path d="M504826255.007600 -32423704.993442 A593845.000000 593845.000000 0.0 0 0 505420047.000000 -31829955.002365" />
<path d="M242060727.994453 -102939329.004901 A1500128.000000 1500128.000000 0.0 0 0 240560671.000000 -104439327.998320" />
<path d="M114688795.008668 -11486253.009284 A593647.000000 593647.000000 0.0 0 0 115282546.997452 -12079955.000000" />
<path d="M302029404.002366 -32267453.001428 A593696.000000 593696.000000 0.0 0 0 302623170.999999 -31673704.004245" />
<path d="M218579422 -29486205
L195579423 -9486208
" />
<path d="M418029404.002366 -32267453.001428 A593696.000000 593696.000000 0.0 0 0 418623170.999999 -31673704.004245" />
<path d="M545704421 -31673702
L541188797 -26783079
" />
<path d="M127060671 -102939329
L127060670 -86939329
" />
<path d="M16513852.990892 -108423704.009982 A593853.000000 593853.000000 0.0 0 0 15920047.000000 -109017452.998140" />
<path d="M343204423 -109158078
L343204422 -91345577
" />
<path d="M232657554.001008 -96829954.999743 A1499946.000000 1499946.000000 0.0 0 0 234157546.000000 -95329954.000705" />
<path d="M110657546 -115829954
L110657546 -152329954
" />
<path d="M469657547 -90829955
L469657547 -93829954
" />
<path d="M308579423 -153986207
L294079419 -153986204
" />
<path d="M290748171 -86892453
L284810671 -86892454
" />
<path d="M244435672 -187689328
L244435672 -124454954
" />
<path d="M16513855.009108 -90611203.989663 A593645.000000 593645.000000 0.0 0 0 17107546.000000 -90017455.001782" />
<path d="M400216923 -55720579
L400216921 -51267455
" />
<path d="M122157546 -95329954
L119157546 -95329954
" />
<path d="M298970046 -112876828
L304907547 -112876828
" />
<path d="M279638777.995119 -107283079.001372 A1499878.000000 1499878.000000 0.0 0 0 278138795.000000 -108783077.996325" />
<path d="M256138797 -170283079
L279138796 -190283077
" />
<path d="M19060671 -83939330
L19060670 -47439328
" />
<path d="M91079419.000007 -65986206.000010 A2499981.000000 2499981.000000 0.0 0 0 91343352.216626 -64868168.108314" />
<path d="M505032546 -192439328
L501470044 -188283079
" />
<path d="M253638855.009284 -51423704.989564 A593645.000000 593645.000000 0.0 0 0 254232545.000000 -50829955.001706" />
<path d="M187029404.002366 -32267453.001428 A593696.000000 593696.000000 0.0 0 0 187623170.999999 -31673704.004245" />
<path d="M61341923 -87486207
L61341917 -113017455
" />
<path d="M245029421 -188283079
L270470044 -188283079
" />
<path d="M269060670 -44439329
L269060671 -28439329
" />
<path d="M292579504.003008 -155486205.005003 A1500096.000000 1500096.000000 0.0 0 0 294079419.000001 -153986204.010920" />
<path d="M521748171 -113611205
L505123172 -113611206
" />
<path d="M297138794 -44283079
L297138795 -28283080
" />
<path d="M431891928.994611 -167345580.000808 A593829.000000 593829.000000 0.0 0 0 431298170.000000 -167939328.995874" />
<path d="M326876292 -31236202
L307282549 -19954953
" />
<path d="M241170047.000000 -123861203.998140 A593704.000000 593704.000000 0.0 0 0 240576296.001705 -123267455.000000" />
<path d="M235157545 -69829955
L235157547 -8829955
" />
<path d="M571657546 -115829954
L571657546 -152329954
" />
<path d="M292579425 -155486205
L292579423 -171486204
" />
<path d="M134060629.999700 -83939329.999180 A1500030.000000 1500030.000000 0.0 0 0 132560672.000000 -85439329.998272" />
<path d="M470560671 -129939329
L470560671 -190939328
" />
<path d="M138045045 -90017454
L132107546 -90017455
" />
<path d="M318266921 -192283080
L284138794 -192283080
" />
<path d="M357060671 -192439328
L390032546 -192439328
" />
<path d="M54216923 -55720579
L54216921 -51267455
" />
<path d="M123060670 -128439329
L122560671 -128439329
" />
<path d="M43826353.999979 -50236205.000497 A593754.000000 593754.000000 0.0 0 0 43232546.000000 -50829953.997544" />
<path d="M307607547 -172829955
L312123172 -167939330
" />
<path d="M513435668 -179814328
L513435672 -187533078
" />
<path d="M414970046 -112876828
L420907547 -112876828
" />
<path d="M501560671 -26939327
L513110671 -26939327
" />
<path d="M529376295 -112283077
L529376297 -86751830
" />
<path d="M333976786 -31934883
L321343352 -64868168
" />
<path d="M200298170 -167939329
L197123172 -167939330
" />
<path d="M232657547 -96829955
L232657547 -112829955
" />
<path d="M473060727.994453 -102939329.004901 A1500128.000000 1500128.000000 0.0 0 0 471560671.000000 -104439327.998320" />
<path d="M191688795.999514 -11642457.007760 A593843.000000 593843.000000 0.0 0 0 192282542.992240 -12236204.000001" />
<path d="M85891930.005124 -149533077.998291 A593670.000000 593670.000000 0.0 0 0 86485670.000000 -148939330.004127" />
<path d="M486741430 -167834399
L499374862 -134901114
" />
<path d="M115282547 -12079955
L115282544 -75314329
" />
<path d="M282435668 -179814328
L282435672 -187533078
" />
<path d="M414376295 -112283077
L414376297 -86751830
" />
<path d="M125576354.008934 -109611202.990110 A593646.000000 593646.000000 0.0 0 0 126170046.000000 -109017454.001782" />
<path d="M473060671 -102939329
L473060670 -86939329
" />
<path d="M552829419 -188126829
L549266921 -192283080
" />
<path d="M407341904.982291 -113017455.002936 A593605.000000 593605.000000 0.0 0 0 406748171.000003 -113611204.985983" />
<path d="M315298170 -167939329
L312123172 -167939330
" />
<path d="M552079502.996863 -89486202.994891 A1499903.000000 1499903.000000 0.0 0 0 550579424.000001 -90986202.989674" />
<path d="M472170047 -123861204
L474841921 -123861204
" />
<path d="M60748171 -113611205
L44123172 -113611206
" />
<path d="M253638753.999987 -89423703.999717 A593754.000000 593754.000000 0.0 0 0 253045045.000000 -90017453.998295" />
<path d="M484045045 -90017454
L478107546 -90017455
" />
<path d="M175748171 -113611205
L159123172 -113611206
" />
<path d="M106079420 -148345581
L106079422 -110345579
" />
<path d="M404282546 -149095580
L420907547 -149095579
" />
<path d="M75501278.999242 -148501829.999242 A593779.000000 593779.000000 0.0 0 0 74907547.000000 -149095578.998140" />
<path d="M49638778.004880 -47283078.998710 A1500122.000000 1500122.000000 0.0 0 0 51138794.000000 -45783078.003745" />
<path d="M200891928.994611 -167345580.000808 A593829.000000 593829.000000 0.0 0 0 200298170.000000 -167939328.995874" />
<path d="M421579423.375589 -7486190.956874 A7866832.000000 7866832.000000 0.0 0 0 426579423.262928 -9486207.706105" />
<path d="M229688794.999570 -11486153.000021 A593747.000000 593747.000000 0.0 0 0 230282546.997453 -12079955.000000" />
<path d="M347657554.001008 -96829954.999743 A1499946.000000 1499946.000000 0.0 0 0 349157546.000000 -95329954.000705" />
<path d="M567079428.994475 -148345581.001227 A593829.000000 593829.000000 0.0 0 0 566485671.000000 -148939328.995756" />
<path d="M434266921 -192283080
L400138794 -192283080
" />
<path d="M464548174 -75908077
L461876296 -75908079
" />
<path d="M54810670.998779 -86892478.999292 A593779.000000 593779.000000 0.0 0 0 54216921.000041 -86298707.000000" />
<path d="M123657547 -90829955
L123657547 -93829954
" />
<path d="M316188795 -85564329
L316188798 -65673702
" />
<path d="M12060727.994453 -102939329.004901 A1500128.000000 1500128.000000 0.0 0 0 10560671.000000 -104439327.998320" />
<path d="M541079503.003071 -92486204.005056 A1500097.000000 1500097.000000 0.0 0 0 542579421.000001 -90986203.010680" />
<path d="M523579503.996927 -171486203.994816 A1499904.000000 1499904.000000 0.0 0 0 522079422.000001 -172986203.989438" />
<path d="M538607547 -172829955
L543123172 -167939330
" />
<path d="M68376295 -112283077
L68376297 -86751830
" />
<path d="M147841922 -168533081
L167435668 -179814328
" />
<path d="M126170047 -123861204
L128841921 -123861204
" />
<path d="M284810670.998779 -86892478.999292 A593779.000000 593779.000000 0.0 0 0 284216921.000041 -86298707.000000" />
<path d="M340657546 -115829954
L340657546 -152329954
" />
<path d="M204157545 -172829952
L192607547 -172829955
" />
<path d="M159420047 -31829955
L162595045 -31829953
" />
<path d="M127060729.005547 -86939328.994925 A1499871.000000 1499871.000000 0.0 0 0 128560670.000000 -85439329.001633" />
<path d="M91079502.999997 -89486203.000158 A1500003.000000 1500003.000000 0.0 0 0 89579424.000000 -90986202.998075" />
<path d="M384638779.004800 -110283079.998640 A1500121.000000 1500121.000000 0.0 0 0 386138792.000000 -108783079.003888" />
<path d="M273826255.007600 -32423704.993442 A593845.000000 593845.000000 0.0 0 0 274420047.000000 -31829955.002365" />
<path d="M241170047 -123861204
L243841921 -123861204
" />
<path d="M103579412.345169 -29486214.655301 A2121248.000000 2121248.000000 0.0 0 0 103976785.889785 -31934882.944890" />
<path d="M487138797 -170283079
L510138796 -190283077
" />
<path d="M464548173.999750 -75908079.004611 A593821.000000 593821.000000 0.0 0 0 465141920.995874 -76501830.000000" />
<path d="M306688795.999514 -11642457.007760 A593843.000000 593843.000000 0.0 0 0 307282542.992240 -12236204.000001" />
<path d="M123657553.999028 -93829954.000252 A1500054.000000 1500054.000000 0.0 0 0 122157546.000000 -95329953.999295" />
<path d="M552079423 -65986206
L552079424 -89486203
" />
<path d="M320657551.999028 -171329954.000216 A1500052.000000 1500052.000000 0.0 0 0 319157545.000000 -172829951.999325" />
<path d="M116157545 -114329956
L112157546 -114329954
" />
<path d="M431891923 -167345580
L431891917 -149533078
" />
<path d="M344688794.999570 -11486153.000021 A593747.000000 593747.000000 0.0 0 0 345282546.997453 -12079955.000000" />
<path d="M493841922 -168533081
L513435668 -179814328
" />
<path d="M578657547 -96829955
L578657547 -112829955
" />
<path d="M86188798 -65673702
L96876292 -31236202
" />
<path d="M159032546 -192439328
L155470044 -188283079
" />
<path d="M113204429.994877 -109158078.000919 A593830.000000 593830.000000 0.0 0 0 112610670.999999 -109751829.995756" />
<path d="M199704421 -31673702
L195188797 -26783079
" />
<path d="M307282549 -19954953
L307282543 -12236204
" />
<path d="M302029402.997360 -50079955.998302 A593803.000000 593803.000000 0.0 0 0 301435670.999999 -50673702.995755" />
<path d="M168029421.000000 -188126827.999629 A593728.000000 593728.000000 0.0 0 0 167435672.000408 -187533078.000000" />
<path d="M273232546 -50829954
L254232545 -50829955
" />
<path d="M10576354.008934 -109611202.990110 A593646.000000 593646.000000 0.0 0 0 11170046.000000 -109017454.001782" />
<path d="M153638779.004800 -110283079.998640 A1500121.000000 1500121.000000 0.0 0 0 155138792.000000 -108783079.003888" />
<path d="M39060670 -44439329
L39060671 -28439329
" />
<path d="M80188797 -26783079
L68638796 -26783080
" />
<path d="M484638855.009284 -51423704.989564 A593645.000000 593645.000000 0.0 0 0 485232545.000000 -50829955.001706" />
<path d="M234141922 -90158078
L234141921 -76501830
" />
<path d="M88266921 -192283080
L54138794 -192283080
" />
<path d="M12060671 -102939329
L12060670 -86939329
" />
<path d="M239560671 -129939329
L239560671 -190939328
" />
<path d="M211876292 -31236202
L192282549 -19954953
" />
<path d="M533029404.002366 -32267453.001428 A593696.000000 593696.000000 0.0 0 0 533623170.999999 -31673704.004245" />
<path d="M577157545 -114329956
L573157546 -114329954
" />
<path d="M19060729.994367 -83939330.005113 A1500130.000000 1500130.000000 0.0 0 0 17560672.000000 -85439329.998272" />
<path d="M529970046.005967 -112876904.998218 A593705.000000 593705.000000 0.0 0 0 529376295.012741 -112283077.000003" />
<path d="M271451296 -7486204
L305579423 -7486203
" />
<path d="M275013799 -168095580
L287095043 -168095581
" />
<path d="M90657546 -155329953
L90657546 -171329954
" />
<path d="M6060671 -108939330
L6060671 -105939329
" />
<path d="M426188797 -26783079
L414638796 -26783080
" />
<path d="M283029421.000000 -188126827.999629 A593728.000000 593728.000000 0.0 0 0 282435672.000408 -187533078.000000" />
<path d="M67138780.004800 -28283079.998800 A1500120.000000 1500120.000000 0.0 0 0 68638796.000000 -26783080.003605" />
<path d="M96876292 -31236202
L77282549 -19954953
" />
<path d="M395529421 -172986204
L407079422 -172986204
" />
<path d="M310188797 -26783079
L298638796 -26783080
" />
<path d="M131513752.999987 -108423703.999710 A593753.000000 593753.000000 0.0 0 0 130920047.000000 -109017452.998140" />
<path d="M383888799 -11642453
L387451296 -7486204
" />
<path d="M421501296 -113470576
L421501295 -144048704
" />
<path d="M347657547 -96829955
L347657547 -112829955
" />
<path d="M321079502.996863 -89486202.994891 A1499903.000000 1499903.000000 0.0 0 0 319579424.000001 -90986202.989674" />
<path d="M469060670.000000 -128439329.001633 A1500071.000000 1500071.000000 0.0 0 0 470560670.998320 -129939329.000000" />
<path d="M287688799 -149689326
L287688795 -167501827
" />
<path d="M389529420 -134095581
L378841922 -168533081
" />
<path d="M228204423 -109158078
L228204422 -91345577
" />
<path d="M432188776.995755 -85564329.002153 A593677.000000 593677.000000 0.0 0 0 431595045.000000 -86158076.997452" />
<path d="M464657545 -7329953
L431685673 -7329952
" />
<path d="M582657547.000063 -71329954.999264 A1499955.000000 1499955.000000 0.0 0 0 581157545.000675 -69829955.000000" />
<path d="M291341904.982291 -113017455.002936 A593605.000000 593605.000000 0.0 0 0 290748171.000003 -113611204.985983" />
<path d="M123060670.000000 -128439329.001633 A1500071.000000 1500071.000000 0.0 0 0 124560670.998320 -129939329.000000" />
<path d="M243560670 -85439329
L247560672 -85439330
" />
<path d="M91829419 -188126829
L88266921 -192283080
" />
<path d="M359841920.999151 -123861228.000371 A593772.000000 593772.000000 0.0 0 0 360435671.998218 -124454954.000000" />
<path d="M236060729.005547 -105939328.995011 A1499871.000000 1499871.000000 0.0 0 0 237560671.000000 -104439329.001680" />
<path d="M353657547 -90829955
L353657547 -93829954
" />
<path d="M372138766.825183 -170283109.172323 A2121421.000000 2121421.000000 0.0 0 0 371741429.774235 -167834398.887122" />
<path d="M85891928.994611 -167345580.000808 A593829.000000 593829.000000 0.0 0 0 85298170.000000 -167939328.995874" />
<path d="M130920047 -109017453
L126170046 -109017454
" />
<path d="M423282549 -19954953
L423282543 -12236204
" />
<path d="M387451296 -7486204
L421579423 -7486203
" />
<path d="M537688795.999514 -11642457.007760 A593843.000000 593843.000000 0.0 0 0 538282542.992240 -12236204.000001" />
<path d="M320657555.000936 -155329952.999682 A1499945.000000 1499945.000000 0.0 0 0 322157547.000000 -153829955.000736" />
<path d="M121060729.005547 -105939328.995011 A1499871.000000 1499871.000000 0.0 0 0 122560671.000000 -104439329.001680" />
<path d="M183376277.004126 -86751829.997643 A593823.000000 593823.000000 0.0 0 0 183970044.000000 -86158077.002641" />
<path d="M514029421.000000 -188126827.999629 A593728.000000 593728.000000 0.0 0 0 513435672.000408 -187533078.000000" />
<path d="M581157545 -69829955
L581157547 -8829955
" />
<path d="M61341904.982291 -113017455.002936 A593605.000000 593605.000000 0.0 0 0 60748171.000003 -113611204.985983" />
<path d="M75501296 -113470576
L75501295 -144048704
" />
<path d="M385060627.000280 -28439329.000851 A1499973.000000 1499973.000000 0.0 0 0 386560671.000000 -26939327.001680" />
<path d="M391013799 -168095580
L403095043 -168095581
" />
<path d="M155560671 -26939327
L167110671 -26939327
" />
<path d="M579548173.999750 -75908079.004611 A593821.000000 593821.000000 0.0 0 0 580141920.995874 -76501830.000000" />
<path d="M89579424 -90986203
L81579421 -90986203
" />
<path d="M360435672 -187689328
L360435672 -124454954
" />
<path d="M320657546 -155329953
L320657546 -171329954
" />
<path d="M390032546 -192439328
L386470044 -188283079
" />
<path d="M463657555.998992 -112829955.000330 A1500056.000000 1500056.000000 0.0 0 0 462157545.000000 -114329955.999325" />
<path d="M437829419 -188126829
L434266921 -192283080
" />
<path d="M193579423 -153986207
L179079419 -153986204
" />
<path d="M109157547 -153829955
L92157547 -153829955
" />
<path d="M172688780.999386 -167501826.999363 A593781.000000 593781.000000 0.0 0 0 172095043.000000 -168095580.998443" />
<path d="M395638778.004880 -47283078.998710 A1500122.000000 1500122.000000 0.0 0 0 397138794.000000 -45783078.003745" />
<path d="M437079423 -65986206
L437079424 -89486203
" />
<path d="M536501296 -113470576
L536501295 -144048704
" />
<path d="M128841920.999151 -123861228.000371 A593772.000000 593772.000000 0.0 0 0 129435671.998218 -124454954.000000" />
<path d="M229688795 -11486204
L204248171 -11486204
" />
<path d="M200685673 -7329952
L204248171 -11486204
" />
<path d="M292579503.996927 -171486203.994816 A1499904.000000 1499904.000000 0.0 0 0 291079422.000001 -172986203.989438" />
<path d="M406748171 -113611205
L390123172 -113611206
" />
<path d="M200891923 -167345580
L200891917 -149533078
" />
<path d="M384638796 -133783077
L384638796 -110283080
" />
<path d="M72029402.997360 -50079955.998302 A593803.000000 593803.000000 0.0 0 0 71435670.999999 -50673702.995755" />
<path d="M38638779.004800 -110283079.998640 A1500121.000000 1500121.000000 0.0 0 0 40138792.000000 -108783079.003888" />
<path d="M7560671.000000 -128439328.999440 A1499959.000000 1499959.000000 0.0 0 0 6060671.000533 -126939330.000000" />
<path d="M459204429.994877 -109158078.000919 A593830.000000 593830.000000 0.0 0 0 458610670.999999 -109751829.995756" />
<path d="M89157545 -172829952
L77607547 -172829955
" />
<path d="M510529421 -172986204
L522079422 -172986204
" />
<path d="M273826296 -32423705
L273826295 -50236205
" />
<path d="M546298170 -167939329
L543123172 -167939330
" />
<path d="M275013799 -168095580
L279529421 -172986204
" />
<path d="M500060627.000280 -28439329.000851 A1499973.000000 1499973.000000 0.0 0 0 501560671.000000 -26939327.001680" />
<path d="M336079420 -148345581
L336079422 -110345579
" />
<path d="M236060671 -126939330
L236060671 -108939330
" />
<path d="M547188776.995755 -85564329.002153 A593677.000000 593677.000000 0.0 0 0 546595045.000000 -86158076.997452" />
<path d="M372138797 -170283079
L395138796 -190283077
" />
<path d="M84704421 -31673702
L72623171 -31673704
" />
<path d="M49529421 -172986204
L61079422 -172986204
" />
<path d="M356576354.008934 -109611202.990110 A593646.000000 593646.000000 0.0 0 0 357170046.000000 -109017454.001782" />
<path d="M358060729.005547 -86939328.994925 A1499871.000000 1499871.000000 0.0 0 0 359560670.000000 -85439329.001633" />
<path d="M469060670 -128439329
L468560671 -128439329
" />
<path d="M575688795 -11486204
L550248171 -11486204
" />
<path d="M504826253.992400 -50236205.006562 A593654.000000 593654.000000 0.0 0 0 504232546.000000 -50829953.997544" />
<path d="M12060729.005547 -86939328.994925 A1499871.000000 1499871.000000 0.0 0 0 13560670.000000 -85439329.001633" />
<path d="M369638796 -51423705
L369638796 -89423704
" />
<path d="M389529421 -114204954
L389529420 -134095581
" />
<path d="M246513752.999987 -108423703.999710 A593753.000000 593753.000000 0.0 0 0 245920047.000000 -109017452.998140" />
<path d="M238657544 -72829954
L238657547 -90829955
" />
<path d="M126060671.000047 -192439328.998320 A1499929.000000 1499929.000000 0.0 0 0 124560671.001728 -190939328.000000" />
<path d="M403688780.000569 -149689326.000832 A593720.000000 593720.000000 0.0 0 0 404282546.000000 -149095580.001782" />
<path d="M406748171.001172 -86892477.000708 A593723.000000 593723.000000 0.0 0 0 407341922.999959 -87486207.000000" />
<path d="M315891923 -167345580
L315891917 -149533078
" />
<path d="M67138794 -44283079
L67138795 -28283080
" />
<path d="M233657545.000000 -7329953.000675 A1500047.000000 1500047.000000 0.0 0 0 235157546.999325 -8829955.000000" />
<path d="M484638753.999987 -89423703.999717 A593754.000000 593754.000000 0.0 0 0 484045045.000000 -90017453.998295" />
<path d="M344688795 -11486204
L319248171 -11486204
" />
<path d="M343204429.004993 -91345576.999091 A593671.000000 593671.000000 0.0 0 0 343798170.999999 -90751829.004246" />
<path d="M86485670 -148939330
L105485671 -148939329
" />
<path d="M319157545 -172829952
L307607547 -172829955
" />
<path d="M353560671 -104439329
L356560671 -104439328
" />
<path d="M316188776.995755 -85564329.002153 A593677.000000 593677.000000 0.0 0 0 315595045.000000 -86158076.997452" />
<path d="M192607547 -172829955
L197123172 -167939330
" />
<path d="M584657553.999028 -93829954.000252 A1500054.000000 1500054.000000 0.0 0 0 583157546.000000 -95329953.999295" />
<path d="M190501278.999242 -148501829.999242 A593779.000000 593779.000000 0.0 0 0 189907547.000000 -149095578.998140" />
<path d="M117657554.001008 -96829954.999743 A1499946.000000 1499946.000000 0.0 0 0 119157546.000000 -95329954.000705" />
<path d="M400138793.452198 -192283097.546373 A7867529.000000 7867529.000000 0.0 0 0 395138796.322389 -190283076.639618" />
<path d="M158232546 -50829954
L139232545 -50829955
" />
<path d="M426079406.997055 -152486206.000752 A1499907.000000 1499907.000000 0.0 0 0 424579423.000000 -153986206.998024" />
<path d="M39060727.005547 -28439328.995183 A1499873.000000 1499873.000000 0.0 0 0 40560671.000000 -26939327.001680" />
<path d="M436657546 -155329953
L436657546 -171329954
" />
<path d="M480060629.999700 -83939329.999180 A1500030.000000 1500030.000000 0.0 0 0 478560672.000000 -85439329.998272" />
<path d="M68970046 -112876828
L74907547 -112876828
" />
<path d="M432188795 -85564329
L432188798 -65673702
" />
<path d="M206829419 -188126829
L203266921 -192283080
" />
<path d="M195188797 -26783079
L183638796 -26783080
" />
<path d="M282110671 -26939327
L277595045 -31829953
" />
<path d="M7560671 -104439329
L10560671 -104439328
" />
<path d="M253045045 -90017454
L247107546 -90017455
" />
<path d="M504232546 -50829954
L485232545 -50829955
" />
<path d="M8060670.000000 -128439329.000533 A1500041.000000 1500041.000000 0.0 0 0 9560670.999440 -129939329.000000" />
<path d="M389826296 -32423705
L389826295 -50236205
" />
<path d="M273529406.017947 -114204953.996317 A593894.000000 593894.000000 0.0 0 0 274123172.000003 -113611206.013794" />
<path d="M321079423 -65986206
L321079424 -89486203
" />
<path d="M154060627.999720 -44439328.999188 A1500028.000000 1500028.000000 0.0 0 0 152560671.000000 -45939327.998320" />
<path d="M343798171 -90751829
L348548171 -90751829
" />
<path d="M452079428.994476 -148345581.001227 A593829.000000 593829.000000 0.0 0 0 451485670.999999 -148939328.995756" />
<path d="M245920047 -109017453
L241170046 -109017454
" />
<path d="M467060729.005547 -105939328.995011 A1499871.000000 1499871.000000 0.0 0 0 468560671.000000 -104439329.001680" />
<path d="M506013799 -168095580
L518095043 -168095581
" />
<path d="M352060671 -108939330
L352060671 -105939329
" />
<path d="M345876295.996280 -75908055.992239 A593656.000000 593656.000000 0.0 0 0 345282544.004246 -75314329.000001" />
<path d="M351657547 -71329953
L352157546 -71329954
" />
<path d="M512138794 -45783078
L526638796 -45783079
" />
<path d="M389529406.017947 -114204953.996317 A593894.000000 593894.000000 0.0 0 0 390123172.000003 -113611206.013794" />
<path d="M234141928.994877 -90158078.000919 A593829.000000 593829.000000 0.0 0 0 233548170.999999 -90751828.995756" />
<path d="M187029421 -50079956
L187029420 -32267453
" />
<path d="M467060671 -126939330
L467060671 -108939330
" />
<path d="M399029421 -188126828
L437829419 -188126829
" />
<path d="M269060627.000280 -28439329.000851 A1499973.000000 1499973.000000 0.0 0 0 270560671.000000 -26939327.001680" />
<path d="M40138792 -108783079
L48138795 -108783078
" />
<path d="M26138796.473614 -170283079.526367 A2121372.000000 2121372.000000 0.0 0 0 25741429.601297 -167834398.800658" />
<path d="M44420047 -31829955
L47595045 -31829953
" />
<path d="M522341923 -87486207
L522341917 -113017455
" />
<path d="M571657554.999028 -152329954.000324 A1500055.000000 1500055.000000 0.0 0 0 570157547.000000 -153829954.999264" />
<path d="M353657544 -72829954
L353657547 -90829955
" />
<path d="M357170047 -123861204
L359841921 -123861204
" />
<path d="M529376277.004126 -86751829.997643 A593823.000000 593823.000000 0.0 0 0 529970044.000000 -86158077.002641" />
<path d="M76688795.999514 -11642457.007760 A593843.000000 593843.000000 0.0 0 0 77282542.992240 -12236204.000001" />
<path d="M469657544 -72829954
L469657547 -90829955
" />
<path d="M140741430 -167834399
L153374862 -134901114
" />
<path d="M348657545.000000 -7329953.000675 A1500047.000000 1500047.000000 0.0 0 0 350157546.999325 -8829955.000000" />
<path d="M256138766.825183 -170283109.172323 A2121421.000000 2121421.000000 0.0 0 0 255741429.774235 -167834398.887122" />
<path d="M13560670 -85439329
L17560672 -85439330
" />
<path d="M389232546 -50829954
L370232545 -50829955
" />
<path d="M468560671.000000 -128439328.998320 A1499929.000000 1499929.000000 0.0 0 0 467060671.001633 -126939330.000000" />
<path d="M290748171 -113611205
L274123172 -113611206
" />
<path d="M567079431.005256 -110345578.998802 A593669.000000 593669.000000 0.0 0 0 567673170.000000 -109751831.004127" />
<path d="M460688794.999570 -11486153.000021 A593747.000000 593747.000000 0.0 0 0 461282546.997453 -12079955.000000" />
<path d="M121657547.000063 -71329954.999264 A1499955.000000 1499955.000000 0.0 0 0 120157545.000675 -69829955.000000" />
<path d="M583157546 -95329954
L580157546 -95329954
" />
<path d="M297138780.004800 -28283079.998800 A1500120.000000 1500120.000000 0.0 0 0 298638796.000000 -26783080.003605" />
<path d="M547188795 -85564329
L547188798 -65673702
" />
<path d="M336673170 -109751831
L342610671 -109751830
" />
<path d="M249060629.999700 -83939329.999180 A1500030.000000 1500030.000000 0.0 0 0 247560672.000000 -85439329.998272" />
<path d="M314704421 -31673702
L310188797 -26783079
" />
<path d="M54138794.635517 -192283059.636044 A7867388.000000 7867388.000000 0.0 0 0 49138796.187102 -190283076.790848" />
<path d="M43826355.000021 -32423704.999503 A593745.000000 593745.000000 0.0 0 0 44420047.000000 -31829955.002365" />
<path d="M44032546 -192439328
L40470044 -188283079
" />
<path d="M460688795 -11486204
L435248171 -11486204
" />
<path d="M236657547.000063 -71329954.999264 A1499955.000000 1499955.000000 0.0 0 0 235157545.000675 -69829955.000000" />
<path d="M306688796 -11642454
L267888799 -11642453
" />
<path d="M449579422 -29486205
L426579423 -9486208
" />
<path d="M131513796 -90611204
L131513796 -108423704
" />
<path d="M85891923 -167345580
L85891917 -149533078
" />
<path d="M160013799 -168095580
L164529421 -172986204
" />
<path d="M173282546 -149095580
L189907547 -149095579
" />
<path d="M113204423 -109158078
L113204422 -91345577
" />
<path d="M502451296 -7486204
L536579423 -7486203
" />
<path d="M305579423.375589 -7486190.956874 A7866832.000000 7866832.000000 0.0 0 0 310579423.262928 -9486207.706105" />
<path d="M468157546 -95329954
L465157546 -95329954
" />
<path d="M315891930.005124 -149533077.998291 A593670.000000 593670.000000 0.0 0 0 316485670.000000 -148939330.004127" />
<path d="M551657551.999028 -171329954.000216 A1500052.000000 1500052.000000 0.0 0 0 550157545.000000 -172829951.999325" />
<path d="M233548174 -75908077
L230876296 -75908079
" />
<path d="M236060671 -108939330
L236060671 -105939329
" />
<path d="M124560671 -129939329
L124560671 -190939328
" />
<path d="M279529421 -172986204
L291079422 -172986204
" />
<path d="M90657551.999028 -171329954.000216 A1500052.000000 1500052.000000 0.0 0 0 89157545.000000 -172829951.999325" />
<path d="M39060727.994453 -44439329.004987 A1500128.000000 1500128.000000 0.0 0 0 37560671.000000 -45939327.998320" />
<path d="M45013799 -168095580
L57095043 -168095581
" />
<path d="M268638782.996974 -133783077.000640 A2499583.000000 2499583.000000 0.0 0 0 268374861.800378 -134901113.900182" />
<path d="M169216921 -86298707
L169216923 -55720579
" />
<path d="M547485670 -148939330
L566485671 -148939329
" />
<path d="M205657546 -155329953
L205657546 -171329954
" />
<path d="M436657551.999028 -171329954.000216 A1500052.000000 1500052.000000 0.0 0 0 435157545.000000 -172829951.999325" />
<path d="M273529421 -114204954
L273529420 -134095581
" />
<path d="M340657554.000972 -115829953.999712 A1499946.000000 1499946.000000 0.0 0 0 342157546.000000 -114329954.000705" />
<path d="M118548174 -75908077
L115876296 -75908079
" />
<path d="M189907546.997858 -112876804.002366 A593696.000000 593696.000000 0.0 0 0 190501295.995136 -113470575.999999" />
<path d="M53029421 -188126828
L91829419 -188126829
" />
<path d="M51138794 -45783078
L65638796 -45783079
" />
<path d="M477513755.000013 -90611204.000276 A593745.000000 593745.000000 0.0 0 0 478107546.000000 -90017455.001782" />
<path d="M456657546 -115829954
L456657546 -152329954
" />
<path d="M187029402.997360 -50079955.998302 A593803.000000 593803.000000 0.0 0 0 186435670.999999 -50673702.995755" />
<path d="M336079428.994476 -148345581.001227 A593829.000000 593829.000000 0.0 0 0 335485670.999999 -148939328.995756" />
<path d="M465141928.994877 -90158078.000919 A593829.000000 593829.000000 0.0 0 0 464548170.999999 -90751828.995756" />
<path d="M541079424 -92486204
L541079419 -152486206
" />
<path d="M390420047 -31829955
L393595045 -31829953
" />
<path d="M551657546 -155329953
L551657546 -171329954
" />
<path d="M504826296 -32423705
L504826295 -50236205
" />
<path d="M298376277.004126 -86751829.997643 A593823.000000 593823.000000 0.0 0 0 298970044.000000 -86158077.002641" />
<path d="M522341904.982291 -113017455.002936 A593605.000000 593605.000000 0.0 0 0 521748171.000003 -113611204.985983" />
<path d="M231157545 -114329956
L227157546 -114329954
" />
<path d="M158826296 -32423705
L158826295 -50236205
" />
<path d="M9560671 -129939329
L9560671 -190939328
" />
<path d="M221079428.994476 -148345581.001227 A593829.000000 593829.000000 0.0 0 0 220485670.999999 -148939328.995756" />
<path d="M463657554.001008 -96829954.999743 A1499946.000000 1499946.000000 0.0 0 0 465157546.000000 -95329954.000705" />
<path d="M242060671 -102939329
L242060670 -86939329
" />
<path d="M54216921 -86298707
L54216923 -55720579
" />
<path d="M218976786 -31934883
L206343352 -64868168
" />
<path d="M578657554.001008 -96829954.999743 A1499946.000000 1499946.000000 0.0 0 0 580157546.000000 -95329954.000705" />
<path d="M310079503.003071 -92486204.005056 A1500097.000000 1500097.000000 0.0 0 0 311579421.000001 -90986203.010680" />
<path d="M469657553.999028 -93829954.000252 A1500054.000000 1500054.000000 0.0 0 0 468157546.000000 -95329953.999295" />
<path d="M505420047 -31829955
L508595045 -31829953
" />
<path d="M250560670 -45939330
L267560671 -45939328
" />
<path d="M291341923 -87486207
L291341917 -113017455
" />
<path d="M54216904.002548 -51267455.001575 A593696.000000 593696.000000 0.0 0 0 54810668.000000 -50673704.003894" />
<path d="M122560671 -104439329
L125560671 -104439328
" />
<path d="M302029421 -50079956
L302029420 -32267453
" />
<path d="M11060671 -192439328
L44032546 -192439328
" />
<path d="M126170047.000000 -123861203.998140 A593704.000000 593704.000000 0.0 0 0 125576296.001705 -123267455.000000" />
<path d="M172688799 -149689326
L172688795 -167501827
" />
<path d="M253638796 -51423705
L253638796 -89423704
" />
<path d="M224157547 -153829955
L207157547 -153829955
" />
<path d="M533029402.997360 -50079955.998302 A593803.000000 593803.000000 0.0 0 0 532435670.999999 -50673702.995755" />
<path d="M564579422 -29486205
L541579423 -9486208
" />
<path d="M23638796 -51423705
L23638796 -89423704
" />
<path d="M365060630.000261 -47439328.000747 A1499970.000000 1499970.000000 0.0 0 0 366560670.000000 -45939330.001633" />
<path d="M14435672 -187689328
L14435672 -124454954
" />
<path d="M177579425 -155486205
L177579423 -171486204
" />
<path d="M564579412.345169 -29486214.655301 A2121248.000000 2121248.000000 0.0 0 0 564976785.889785 -31934882.944890" />
<path d="M477513752.999987 -108423703.999710 A593753.000000 593753.000000 0.0 0 0 476920047.000000 -109017452.998140" />
<path d="M201188798 -65673702
L211876292 -31236202
" />
<path d="M536501278.999242 -148501829.999242 A593779.000000 593779.000000 0.0 0 0 535907547.000000 -149095578.998140" />
<path d="M128560670 -85439329
L132560672 -85439330
" />
<path d="M501138792 -108783079
L509138795 -108783078
" />
<path d="M287688780.999386 -167501826.999363 A593781.000000 593781.000000 0.0 0 0 287095043.000000 -168095580.998443" />
<path d="M352060671 -126939330
L352060671 -108939330
" />
<g >
</g>
<g >
</g>
<g >
</g>
</g> 
</svg>
