<?xml version="1.0" standalone="no"?>
 <!DOCTYPE svg PUBLIC "-//W3C//DTD SVG 1.1//EN" 
 "http://www.w3.org/Graphics/SVG/1.1/DTD/svg11.dtd"> 
<svg
  xmlns:svg="http://www.w3.org/2000/svg"
  xmlns="http://www.w3.org/2000/svg"
  xmlns:xlink="http://www.w3.org/1999/xlink"
  version="1.1"
  width="29.700220cm" height="21.000720cm" viewBox="0 0 297002 210007">
<title>SVG Picture created as jantor-Edge_Cuts.svg date 2023/01/01 16:02:29 </title>
  <desc>Picture generated by PCBNEW </desc>
<g style="fill:#000000; fill-opacity:1.000000;stroke:#000000; stroke-opacity:1.000000;
stroke-linecap:round; stroke-linejoin:round;"
 transform="translate(0 0) scale(1 1)">
</g>
<g style="fill:#000000; fill-opacity:0.0; 
stroke:#000000; stroke-width:0.000000; stroke-opacity:1; 
stroke-linecap:round; stroke-linejoin:round;">
</g>
<g style="fill:#000000; fill-opacity:0.0; 
stroke:#000000; stroke-width:100.000000; stroke-opacity:1; 
stroke-linecap:round; stroke-linejoin:round;">
<path d="M168246.975982 377397.468933 A1499.999000 1499.999000 0.0 0 0 169307.637982 375560.345005" />
<path d="M202114 364699
L170238 373240
" />
<path d="M170238.893969 373240.268885 A1500.001000 1500.001000 0.0 0 0 169178.235068 375077.385982" />
<path d="M73675.993669 343209.271173 A1499.974000 1499.974000 0.0 0 0 74736.665994 341372.187002" />
<path d="M169307 375560
L169178 375077
" />
<path d="M130000 310000
L72044 325529
" />
<path d="M146125.422568 381772.007848 A1500.001000 1500.001000 0.0 0 0 147962.539049 382832.668182" />
<path d="M145348 378874
L146125 381772
" />
<path d="M128057 381954
L143511 377813
" />
<path d="M147962 382832
L150860 382056
" />
<path d="M207722 287103
L208628 290484
" />
<path d="M81854 367935
L86254 384355
" />
</g>
<g style="fill:#000000; fill-opacity:1.0; 
stroke:#000000; stroke-width:0.001000; stroke-opacity:1; 
stroke-linecap:round; stroke-linejoin:round;">
<circle cx="208628.212000" cy="290484.550000" r="50.000000" /> 
</g>
<g style="fill:#000000; fill-opacity:1.0; 
stroke:#000000; stroke-width:100.000000; stroke-opacity:1; 
stroke-linecap:round; stroke-linejoin:round;">
</g>
<g style="fill:#000000; fill-opacity:0.0; 
stroke:#000000; stroke-width:100.000000; stroke-opacity:1; 
stroke-linecap:round; stroke-linejoin:round;">
<path d="M200836 294125
L195010 295686
" />
<path d="M207722.352150 287103.810960 A2499.995000 2499.995000 0.0 0 0 206851.160949 285784.329065" />
<path d="M193949 297523
L195632 303801
" />
<path d="M184771.074009 270995.145449 A2121.327000 2121.327000 0.0 0 0 182302.984701 271245.089663" />
<path d="M150860 382056
L168246 377397
" />
<path d="M128990 300435
L131060 308162
" />
<path d="M72044.433552 325529.091085 A1500.030000 1500.030000 0.0 0 0 70983.788150 327366.262960" />
<path d="M202114.446749 364699.244797 A1500.003000 1500.003000 0.0 0 0 203175.109431 362862.122885" />
<path d="M125184 377030
L126219 380894
" />
<path d="M64562 371015
L80017 366874
" />
<path d="M125184.645659 377030.308752 A1500.009000 1500.009000 0.0 0 0 123347.522948 375969.651805" />
<path d="M88091 385416
L123347 375969
" />
<path d="M62725.110199 369954.939718 A1500.009000 1500.009000 0.0 0 0 64562.259994 371015.589976" />
<path d="M130050.766027 298598.358370 A1500.002000 1500.002000 0.0 0 0 128990.108852 300435.479040" />
<path d="M130000.002107 310000.007862 A1500.002000 1500.002000 0.0 0 0 131060.660398 308162.887893" />
<path d="M182302 271245
L153761 291971
" />
<path d="M194571 305639
L189741 306933
" />
<path d="M86254.131493 384355.880170 A1499.968000 1499.968000 0.0 0 0 88091.232106 385416.550395" />
<path d="M57160 349187
L62725 369954
" />
<path d="M152750.023930 292516.114738 A2500.021000 2500.021000 0.0 0 0 153761.649822 291971.806800" />
<path d="M188681 308770
L203175 362862
" />
<path d="M58221.196730 347350.424920 A1499.980000 1499.980000 0.0 0 0 57160.531076 349187.528980" />
<path d="M200836 294125
L207567 292321
" />
<path d="M126219.914703 380894.014615 A1500.003000 1500.003000 0.0 0 0 128057.033999 381954.675998" />
<path d="M189741.900969 306933.165616 A1499.999000 1499.999000 0.0 0 0 188681.238067 308770.277982" />
<path d="M184771 270995
L206851 285784
" />
<path d="M145348.963934 378874.231554 A1499.997000 1499.997000 0.0 0 0 143511.847938 377813.573767" />
<path d="M195010.523260 295686.311972 A1500.008000 1500.008000 0.0 0 0 193949.865588 297523.433110" />
<path d="M81854.206581 367935.145289 A1500.024000 1500.024000 0.0 0 0 80017.072065 366874.486244" />
<path d="M194571.524482 305639.068798 A1500.001000 1500.001000 0.0 0 0 195632.186749 303801.954067" />
<path d="M207567.557295 292321.661368 A1499.995000 1499.995000 0.0 0 0 208628.211734 290484.550071" />
<path d="M70983 327366
L74736 341372
" />
<path d="M152750 292516
L130050 298598
" />
<path d="M73676 343209
L58221 347350
" />
<path d="M229798.088689 314387.491180 A1500.000000 1500.000000 0.0 0 0 231847.134095 314936.530164" />
<path d="M250829 343814
L234329 315235
" />
<path d="M234329.180530 315235.574003 A1500.000000 1500.000000 0.0 0 0 232280.142954 314686.536921" />
<path d="M238344.582028 214190.380087 A1499.974000 1499.974000 0.0 0 0 240393.591090 214739.438156" />
<path d="M231847 314936
L232280 314686
" />
<path d="M285000 260000
L254999 208038
" />
<path d="M219847.130137 294151.924238 A1500.002000 1500.002000 0.0 0 0 219298.092006 296200.961997" />
<path d="M222445 292651
L219847 294151
" />
<path d="M214994 276746
L222994 290602
" />
<path d="M219298 296200
L220798 298799
" />
<path d="M327232 329148
L324200 330898
" />
<path d="M216577 228489
L201855 236989
" />
</g>
<g style="fill:#000000; fill-opacity:1.0; 
stroke:#000000; stroke-width:0.001000; stroke-opacity:1; 
stroke-linecap:round; stroke-linejoin:round;">
<circle cx="324200.957000" cy="330898.056000" r="50.000000" /> 
</g>
<g style="fill:#000000; fill-opacity:1.0; 
stroke:#000000; stroke-width:100.000000; stroke-opacity:1; 
stroke-linecap:round; stroke-linejoin:round;">
</g>
<g style="fill:#000000; fill-opacity:0.0; 
stroke:#000000; stroke-width:100.000000; stroke-opacity:1; 
stroke-linecap:round; stroke-linejoin:round;">
<path d="M318667 324313
L315651 319090
" />
<path d="M327232.045904 329148.057833 A2499.996000 2499.996000 0.0 0 0 328281.085962 327965.043984" />
<path d="M313602 318541
L307973 321791
" />
<path d="M336851.592541 302809.599341 A2121.327000 2121.327000 0.0 0 0 335971.378076 300490.295885" />
<path d="M220798 298799
L229798 314387
" />
<path d="M293977 256549
L287049 260549
" />
<path d="M255000.046796 208038.445249 A1500.032000 1500.032000 0.0 0 0 252950.957767 207489.436596" />
<path d="M250829.181921 343814.411046 A1499.999000 1499.999000 0.0 0 0 252878.219979 344363.449963" />
<path d="M219007 272697
L215543 274697
" />
<path d="M209126 212583
L217126 226440
" />
<path d="M219007.388912 272697.446043 A1500.010000 1500.010000 0.0 0 0 219556.422373 270648.402784" />
<path d="M201306 239038
L219556 270648
" />
<path d="M209675.948647 210534.923212 A1500.010000 1500.010000 0.0 0 0 209126.931751 212583.994144" />
<path d="M296026.275530 257098.076271 A1499.999000 1499.999000 0.0 0 0 293977.239021 256549.040037" />
<path d="M285000.000586 259999.999662 A1499.995000 1499.995000 0.0 0 0 287049.033778 260549.038615" />
<path d="M335971 300490
L308563 278285
" />
<path d="M305924 321242
L303424 316912
" />
<path d="M201855.475266 236989.457711 A1499.963000 1499.963000 0.0 0 0 201306.420433 239038.477750" />
<path d="M228295 199784
L209675 210534
" />
<path d="M307776.275293 277449.673408 A2500.021000 2500.021000 0.0 0 0 308563.864911 278285.952135" />
<path d="M301375 316363
L252878 344363
" />
<path d="M230344.537736 200334.000235 A1499.980000 1499.980000 0.0 0 0 228295.513227 199784.954393" />
<path d="M318667 324313
L322151 330349
" />
<path d="M215543.280454 274697.440055 A1500.003000 1500.003000 0.0 0 0 214994.243573 276746.479247" />
<path d="M303424.677829 316912.489253 A1500.000000 1500.000000 0.0 0 0 301375.642070 316363.448122" />
<path d="M336851 302809
L328281 327965
" />
<path d="M222445.204595 292651.924030 A1499.997000 1499.997000 0.0 0 0 222994.241048 290602.886972" />
<path d="M315651.922012 319090.688570 A1500.005000 1500.005000 0.0 0 0 313602.881869 318541.653774" />
<path d="M216577.898961 228489.453520 A1500.024000 1500.024000 0.0 0 0 217126.931266 226440.398847" />
<path d="M305924.675756 321242.611296 A1500.002000 1500.002000 0.0 0 0 307973.714247 321791.652427" />
<path d="M322151.920970 330349.018863 A1500.000000 1500.000000 0.0 0 0 324200.956863 330898.055762" />
<path d="M252950 207489
L240393 214739
" />
<path d="M307776 277449
L296026 257098
" />
<path d="M238344 214190
L230344 200333
" />
<path d="M163246.975982 277397.468933 A1499.999000 1499.999000 0.0 0 0 164307.637982 275560.345005" />
<path d="M197114 264699
L165238 273240
" />
<path d="M165238.894853 273240.272183 A1499.999000 1499.999000 0.0 0 0 164178.235134 275077.387964" />
<path d="M68675.993669 243209.271173 A1499.974000 1499.974000 0.0 0 0 69736.665994 241372.187002" />
<path d="M164307 275560
L164178 275077
" />
<path d="M125000 210000
L67044 225529
" />
<path d="M141125.423035 281772.007723 A1500.002000 1500.002000 0.0 0 0 142962.538874 282832.667532" />
<path d="M140348 278874
L141125 281772
" />
<path d="M123057 281954
L138511 277813
" />
<path d="M142962 282832
L145860 282056
" />
<path d="M202722 187103
L203628 190484
" />
<path d="M76854 267935
L81254 284355
" />
</g>
<g style="fill:#000000; fill-opacity:1.0; 
stroke:#000000; stroke-width:0.001000; stroke-opacity:1; 
stroke-linecap:round; stroke-linejoin:round;">
<circle cx="203628.217000" cy="190484.550000" r="50.000000" /> 
</g>
<g style="fill:#000000; fill-opacity:1.0; 
stroke:#000000; stroke-width:100.000000; stroke-opacity:1; 
stroke-linecap:round; stroke-linejoin:round;">
</g>
<g style="fill:#000000; fill-opacity:0.0; 
stroke:#000000; stroke-width:100.000000; stroke-opacity:1; 
stroke-linecap:round; stroke-linejoin:round;">
<path d="M195836 194125
L190010 195686
" />
<path d="M202722.352866 187103.810768 A2499.996000 2499.996000 0.0 0 0 201851.161081 185784.328897" />
<path d="M188949 197523
L190632 203801
" />
<path d="M179771.076942 170995.147565 A2121.327000 2121.327000 0.0 0 0 177302.986197 171245.090223" />
<path d="M145860 282056
L163246 277397
" />
<path d="M123990 200435
L126060 208162
" />
<path d="M67044.433419 225529.090586 A1500.032000 1500.032000 0.0 0 0 65983.787834 227366.263044" />
<path d="M197114.446232 264699.242865 A1500.001000 1500.001000 0.0 0 0 198175.107682 262862.124085" />
<path d="M120184 277030
L121219 280894
" />
<path d="M59562 271015
L75017 266874
" />
<path d="M120184.645659 277030.308752 A1500.009000 1500.009000 0.0 0 0 118347.522948 275969.651805" />
<path d="M83091 285416
L118347 275969
" />
<path d="M57725.108433 269954.942459 A1500.008000 1500.008000 0.0 0 0 59562.260034 271015.590126" />
<path d="M125050.766411 198598.359802 A1500.000000 1500.000000 0.0 0 0 123990.108918 200435.479022" />
<path d="M124999.999889 209999.999584 A1499.996000 1499.996000 0.0 0 0 126060.660267 208162.887928" />
<path d="M177302 171245
L148761 191971
" />
<path d="M189571 205639
L184741 206933
" />
<path d="M81254.134458 284355.877911 A1499.965000 1499.965000 0.0 0 0 83091.231896 285416.549613" />
<path d="M52160 249187
L57725 269954
" />
<path d="M147750.023930 192516.114738 A2500.021000 2500.021000 0.0 0 0 148761.649822 191971.806800" />
<path d="M183681 208770
L198175 262862
" />
<path d="M53221.196305 247350.426069 A1499.979000 1499.979000 0.0 0 0 52160.531609 249187.527105" />
<path d="M195836 194125
L202567 192321
" />
<path d="M121219.914953 280894.015548 A1500.003000 1500.003000 0.0 0 0 123057.033999 281954.675998" />
<path d="M184741.900969 206933.165616 A1499.999000 1499.999000 0.0 0 0 183681.238067 208770.277982" />
<path d="M179771 170995
L201851 185784
" />
<path d="M140348.964166 278874.232420 A1499.997000 1499.997000 0.0 0 0 138511.847938 277813.573767" />
<path d="M190010.523394 195686.312471 A1500.006000 1500.006000 0.0 0 0 188949.865904 197523.433026" />
<path d="M76854.206581 267935.145289 A1500.024000 1500.024000 0.0 0 0 75017.072065 266874.486244" />
<path d="M189571.524482 205639.068798 A1500.001000 1500.001000 0.0 0 0 190632.186749 203801.954067" />
<path d="M202567.557589 192321.666466 A1500.000000 1500.000000 0.0 0 0 203628.216899 190484.550027" />
<path d="M65983 227366
L69736 241372
" />
<path d="M147750 192516
L125050 198598
" />
<path d="M68676 243209
L53221 247350
" />
<path d="M310309.594481 136497.777186 A1499.994000 1499.994000 0.0 0 0 308260.554057 135948.739099" />
<path d="M289278 107070
L305778 135649
" />
<path d="M305778.506921 135649.692046 A1500.001000 1500.001000 0.0 0 0 307827.545113 136198.729195" />
<path d="M301763.102758 236694.886346 A1499.969000 1499.969000 0.0 0 0 299714.096812 236145.829674" />
<path d="M308260 135948
L307827 136198
" />
<path d="M255107 190885
L285107 242846
" />
<path d="M320260.557747 156733.337829 A1500.002000 1500.002000 0.0 0 0 320809.597110 154684.301936" />
<path d="M317662 158233
L320260 156733
" />
<path d="M325113 174138
L317113 160282
" />
<path d="M320809 154684
L319309 152086
" />
<path d="M212875 121737
L215906 119987
" />
<path d="M323529 222395
L338252 213895
" />
</g>
<g style="fill:#000000; fill-opacity:1.0; 
stroke:#000000; stroke-width:0.001000; stroke-opacity:1; 
stroke-linecap:round; stroke-linejoin:round;">
<circle cx="215906.732000" cy="119987.212000" r="50.000000" /> 
</g>
<g style="fill:#000000; fill-opacity:1.0; 
stroke:#000000; stroke-width:100.000000; stroke-opacity:1; 
stroke-linecap:round; stroke-linejoin:round;">
</g>
<g style="fill:#000000; fill-opacity:0.0; 
stroke:#000000; stroke-width:100.000000; stroke-opacity:1; 
stroke-linecap:round; stroke-linejoin:round;">
<path d="M221440 126571
L224455 131794
" />
<path d="M212875.645096 121737.207899 A2499.991000 2499.991000 0.0 0 0 211826.603407 122920.220174" />
<path d="M226504 132343
L232133 129093
" />
<path d="M203256.097941 148075.665592 A2121.327000 2121.327000 0.0 0 0 204136.312228 150394.966655" />
<path d="M319309 152086
L310309 136497
" />
<path d="M246130 194336
L253058 190336
" />
<path d="M285107.639307 242846.817001 A1500.034000 1500.034000 0.0 0 0 287156.730001 243395.832002" />
<path d="M289278.513775 107070.849088 A1500.006000 1500.006000 0.0 0 0 287229.465186 106521.811323" />
<path d="M321100 178187
L324564 176187
" />
<path d="M330980 238301
L322980 224444
" />
<path d="M321100.299588 178187.817091 A1500.011000 1500.011000 0.0 0 0 320551.265944 180236.862033" />
<path d="M338801 211846
L320551 180236
" />
<path d="M330431.740853 240350.341922 A1500.008000 1500.008000 0.0 0 0 330980.756901 238301.270057" />
<path d="M244081.405006 193787.189729 A1500.004000 1500.004000 0.0 0 0 246130.449180 194336.225311" />
<path d="M255107.693427 190885.261557 A1500.000000 1500.000000 0.0 0 0 253058.654204 190336.223354" />
<path d="M204136 150394
L231543 172599
" />
<path d="M234183 129642
L236683 133972
" />
<path d="M338252.217167 213895.809771 A1499.967000 1499.967000 0.0 0 0 338801.269915 211846.786049" />
<path d="M311812 251100
L330431 240350
" />
<path d="M232331.413841 173435.592092 A2500.020000 2500.020000 0.0 0 0 231543.823146 172599.312780" />
<path d="M238732 134521
L287229 106521
" />
<path d="M309763.148715 250551.263814 A1499.981000 1499.981000 0.0 0 0 311812.176206 251100.308357" />
<path d="M221440 126571
L217955 120536
" />
<path d="M324564.405113 176187.821463 A1500.000000 1500.000000 0.0 0 0 325113.443195 174138.785887" />
<path d="M236683.014037 133972.773247 A1499.998000 1499.998000 0.0 0 0 238732.046113 134521.816195" />
<path d="M203256 148075
L211826 122920
" />
<path d="M317662.483539 158233.336738 A1499.998000 1499.998000 0.0 0 0 317113.446952 160282.377028" />
<path d="M224455.766305 131794.573515 A1500.007000 1500.007000 0.0 0 0 226504.807082 132343.610141" />
<path d="M323529.790472 222395.812962 A1500.023000 1500.023000 0.0 0 0 322980.758734 224444.864153" />
<path d="M234183.006664 129642.654503 A1499.997000 1499.997000 0.0 0 0 232133.977137 129093.612238" />
<path d="M217955.762749 120536.250186 A1499.996000 1499.996000 0.0 0 0 215906.732088 119987.212153" />
<path d="M287156 243395
L299714 236145
" />
<path d="M232331 173435
L244081 193787
" />
<path d="M301763 236694
L309763 250551
" />
<path d="M179168 119829
L174768 103408
" />
<path d="M76251.147313 216769.424994 A2121.316000 2121.316000 0.0 0 0 78719.238726 216519.486691" />
<path d="M60185 193639
L66011 192078
" />
<path d="M130971.456196 189166.210001 A1499.997000 1499.997000 0.0 0 0 132032.114800 187329.096054" />
<path d="M113059 104931
L110161 105708
" />
<path d="M72340 178994
L57847 124902
" />
<path d="M78719 216519
L107260 195792
" />
<path d="M58907 123065
L90783 114524
" />
<path d="M114896.801649 105992.567094 A1500.000000 1500.000000 0.0 0 0 113059.685027 104931.907101" />
<path d="M90783.331397 114524.303750 A1499.999000 1499.999000 0.0 0 0 91843.990616 112687.187103" />
<path d="M92775.247143 110367.105533 A1499.998000 1499.998000 0.0 0 0 91714.583801 112204.228053" />
<path d="M110161 105708
L92775 110367
" />
<path d="M187346.221201 144555.269751 A1500.001000 1500.001000 0.0 0 0 186285.558068 146392.387982" />
<path d="M91714 112204
L91843 112687
" />
<path d="M108272 195248
L130971 189166
" />
<path d="M58907.778326 123065.331486 A1500.002000 1500.002000 0.0 0 0 57847.116785 124902.449058" />
<path d="M131022 177764
L188977 162235
" />
<path d="M196459 116748
L181005 120890
" />
<path d="M115673 108890
L114896 105992
" />
<path d="M132965 105809
L117510 109951
" />
<path d="M202801.032906 140414.163649 A1500.000000 1500.000000 0.0 0 0 203861.692649 138577.046094" />
<path d="M190038 160398
L186285 146392
" />
<path d="M53454.664027 195442.908102 A1500.002000 1500.002000 0.0 0 0 52394.004785 197280.025058" />
<path d="M53299.871252 200660.765932 A2500.000000 2500.000000 0.0 0 0 54171.063050 201980.245936" />
<path d="M188977.775071 162235.426534 A1499.998000 1499.998000 0.0 0 0 190038.432583 160398.311112" />
<path d="M60185 193639
L53454 195442
" />
<path d="M132032 187329
L129961 179601
" />
<path d="M66450.699161 182125.508600 A1499.998000 1499.998000 0.0 0 0 65390.037917 183962.623022" />
<path d="M108272.200385 195248.461435 A2500.000000 2500.000000 0.0 0 0 107260.573949 195792.767943" />
<path d="M71280.324040 180831.413149 A1500.000000 1500.000000 0.0 0 0 72340.986149 178994.296960" />
<path d="M172930 102348
L137674 111794
" />
<path d="M66450 182125
L71280 180831
" />
</g>
<g style="fill:#000000; fill-opacity:1.0; 
stroke:#000000; stroke-width:0.001000; stroke-opacity:1; 
stroke-linecap:round; stroke-linejoin:round;">
<circle cx="52394.005000" cy="197280.025000" r="50.000000" /> 
</g>
<g style="fill:#000000; fill-opacity:0.0; 
stroke:#000000; stroke-width:100.000000; stroke-opacity:1; 
stroke-linecap:round; stroke-linejoin:round;">
<path d="M135837.583569 110734.264847 A1500.003000 1500.003000 0.0 0 0 137674.701066 111794.923248" />
<path d="M53299 200660
L52394 197280
" />
<path d="M198297.082117 117809.643237 A1499.997000 1499.997000 0.0 0 0 196459.964072 116748.985267" />
<path d="M174768.115829 103408.689242 A1500.004000 1500.004000 0.0 0 0 172930.992876 102348.025537" />
<path d="M76251 216769
L54171 201980
" />
<path d="M187346 144555
L202801 140414
" />
<path d="M66011.700080 192078.259567 A1499.999000 1499.999000 0.0 0 0 67072.358299 190241.141920" />
<path d="M203861 138577
L198297 117809
" />
<path d="M179168.033734 119829.425607 A1499.998000 1499.998000 0.0 0 0 181005.152071 120890.089266" />
<path d="M134802.307499 106870.559402 A1500.001000 1500.001000 0.0 0 0 132965.190951 105809.898818" />
<path d="M115673.261133 108890.343696 A1499.997000 1499.997000 0.0 0 0 117510.374946 109951.001800" />
<path d="M135837 110734
L134802 106870
" />
<path d="M131022.222836 177764.570654 A1500.003000 1500.003000 0.0 0 0 129961.565002 179601.688999" />
<path d="M67072 190241
L65390 183962
" />
</g>
<g style="fill:#000000; fill-opacity:0.0; 
stroke:#000000; stroke-width:120.000000; stroke-opacity:1; 
stroke-linecap:round; stroke-linejoin:round;">
<path d="M110226 373946
L123073 370504
" />
<path d="M123073 370504
L119631 357657
" />
<path d="M119631 357657
L106784 361099
" />
<path d="M106784 361099
L110226 373946
" />
<path d="M175646 324453
L188492 321011
" />
<path d="M188492 321011
L185050 308164
" />
<path d="M185050 308164
L172203 311606
" />
<path d="M172203 311606
L175646 324453
" />
<path d="M167436 367223
L180282 363780
" />
<path d="M180282 363780
L176840 350934
" />
<path d="M176840 350934
L163993 354376
" />
<path d="M163993 354376
L167436 367223
" />
<path d="M180563 342805
L193410 339363
" />
<path d="M193410 339363
L189968 326516
" />
<path d="M189968 326516
L177121 329959
" />
<path d="M177121 329959
L180563 342805
" />
<path d="M82039 342158
L94885 338716
" />
<path d="M94885 338716
L91443 325869
" />
<path d="M91443 325869
L78596 329312
" />
<path d="M78596 329312
L82039 342158
" />
<path d="M157600 330517
L170447 327075
" />
<path d="M170447 327075
L167005 314228
" />
<path d="M167005 314228
L154158 317671
" />
<path d="M154158 317671
L157600 330517
" />
<path d="M125505 357558
L138352 354116
" />
<path d="M138352 354116
L134910 341269
" />
<path d="M134910 341269
L122063 344711
" />
<path d="M122063 344711
L125505 357558
" />
<path d="M68296 364282
L81143 360839
" />
<path d="M81143 360839
L77701 347992
" />
<path d="M77701 347992
L64854 351435
" />
<path d="M64854 351435
L68296 364282
" />
<path d="M120588 339206
L133435 335763
" />
<path d="M133435 335763
L129992 322916
" />
<path d="M129992 322916
L117146 326359
" />
<path d="M117146 326359
L120588 339206
" />
<path d="M175806 288574
L185210 297978
" />
<path d="M185210 297978
L194615 288574
" />
<path d="M194615 288574
L185210 279169
" />
<path d="M185210 279169
L175806 288574
" />
<path d="M130423 375911
L143270 372468
" />
<path d="M143270 372468
L139828 359622
" />
<path d="M139828 359622
L126981 363064
" />
<path d="M126981 363064
L130423 375911
" />
<path d="M100391 337241
L113238 333799
" />
<path d="M113238 333799
L109796 320952
" />
<path d="M109796 320952
L96949 324394
" />
<path d="M96949 324394
L100391 337241
" />
<path d="M105309 355594
L118156 352151
" />
<path d="M118156 352151
L114713 339304
" />
<path d="M114713 339304
L101866 342747
" />
<path d="M101866 342747
L105309 355594
" />
<path d="M145395 358376
L158242 354933
" />
<path d="M158242 354933
L154799 342087
" />
<path d="M154799 342087
L141952 345529
" />
<path d="M141952 345529
L145395 358376
" />
<path d="M140065 315546
L152912 312103
" />
<path d="M152912 312103
L149470 299257
" />
<path d="M149470 299257
L136623 302699
" />
<path d="M136623 302699
L140065 315546
" />
<path d="M185481 361158
L198328 357716
" />
<path d="M198328 357716
L194885 344869
" />
<path d="M194885 344869
L182039 348311
" />
<path d="M182039 348311
L185481 361158
" />
<path d="M162518 348870
L175365 345428
" />
<path d="M175365 345428
L171923 332581
" />
<path d="M171923 332581
L159076 336023
" />
<path d="M159076 336023
L162518 348870
" />
<path d="M91874 378864
L104721 375421
" />
<path d="M104721 375421
L101278 362575
" />
<path d="M101278 362575
L88431 366017
" />
<path d="M88431 366017
L91874 378864
" />
<path d="M86956 360511
L99803 357069
" />
<path d="M99803 357069
L96361 344222
" />
<path d="M96361 344222
L83514 347664
" />
<path d="M83514 347664
L86956 360511
" />
<path d="M150312 376728
L163159 373286
" />
<path d="M163159 373286
L159717 360439
" />
<path d="M159717 360439
L146870 363882
" />
<path d="M146870 363882
L150312 376728
" />
<path d="M140477 340023
L153324 336581
" />
<path d="M153324 336581
L149882 323734
" />
<path d="M149882 323734
L137035 327176
" />
<path d="M137035 327176
L140477 340023
" />
<path d="M162366 308659
L173884 302009
" />
<path d="M173884 302009
L167234 290491
" />
<path d="M167234 290491
L155716 297141
" />
<path d="M155716 297141
L162366 308659
" />
<path d="M218114 257451
L224764 268969
" />
<path d="M224764 268969
L236282 262319
" />
<path d="M236282 262319
L229632 250801
" />
<path d="M229632 250801
L218114 257451
" />
<path d="M282853 307831
L289503 319349
" />
<path d="M289503 319349
L301021 312699
" />
<path d="M301021 312699
L294371 301181
" />
<path d="M294371 301181
L282853 307831
" />
<path d="M239415 310970
L246065 322489
" />
<path d="M246065 322489
L257583 315839
" />
<path d="M257583 315839
L250933 304320
" />
<path d="M250933 304320
L239415 310970
" />
<path d="M266398 317331
L273048 328849
" />
<path d="M273048 328849
L284566 322199
" />
<path d="M284566 322199
L277916 310681
" />
<path d="M277916 310681
L266398 317331
" />
<path d="M241523 221996
L248173 233514
" />
<path d="M248173 233514
L259691 226864
" />
<path d="M259691 226864
L253041 215346
" />
<path d="M253041 215346
L241523 221996
" />
<path d="M272324 291970
L278974 303489
" />
<path d="M278974 303489
L290492 296839
" />
<path d="M290492 296839
L283842 285320
" />
<path d="M283842 285320
L272324 291970
" />
<path d="M237898 267968
L244548 279486
" />
<path d="M244548 279486
L256066 272836
" />
<path d="M256066 272836
L249416 261318
" />
<path d="M249416 261318
L237898 267968
" />
<path d="M216597 214448
L223247 225966
" />
<path d="M223247 225966
L234765 219316
" />
<path d="M234765 219316
L228115 207798
" />
<path d="M228115 207798
L216597 214448
" />
<path d="M254353 258468
L261003 269986
" />
<path d="M261003 269986
L272521 263336
" />
<path d="M272521 263336
L265871 251818
" />
<path d="M265871 251818
L254353 258468
" />
<path d="M317551 298700
L310901 310218
" />
<path d="M310901 310218
L322419 316868
" />
<path d="M322419 316868
L329069 305350
" />
<path d="M329069 305350
L317551 298700
" />
<path d="M221444 277468
L228094 288986
" />
<path d="M228094 288986
L239612 282336
" />
<path d="M239612 282336
L232962 270818
" />
<path d="M232962 270818
L221444 277468
" />
<path d="M251023 238451
L257673 249969
" />
<path d="M257673 249969
L269191 243319
" />
<path d="M269191 243319
L262541 231801
" />
<path d="M262541 231801
L251023 238451
" />
<path d="M234569 247951
L241219 259469
" />
<path d="M241219 259469
L252737 252819
" />
<path d="M252737 252819
L246087 241301
" />
<path d="M246087 241301
L234569 247951
" />
<path d="M242256 287391
L248906 298909
" />
<path d="M248906 298909
L260424 292259
" />
<path d="M260424 292259
L253774 280741
" />
<path d="M253774 280741
L242256 287391
" />
<path d="M282248 271158
L288898 282676
" />
<path d="M288898 282676
L300416 276026
" />
<path d="M300416 276026
L293766 264508
" />
<path d="M293766 264508
L282248 271158
" />
<path d="M249944 326831
L256594 338349
" />
<path d="M256594 338349
L268112 331699
" />
<path d="M268112 331699
L261462 320181
" />
<path d="M261462 320181
L249944 326831
" />
<path d="M255870 301470
L262520 312989
" />
<path d="M262520 312989
L274038 306339
" />
<path d="M274038 306339
L267388 294820
" />
<path d="M267388 294820
L255870 301470
" />
<path d="M208614 240996
L215264 252514
" />
<path d="M215264 252514
L226782 245864
" />
<path d="M226782 245864
L220132 234346
" />
<path d="M220132 234346
L208614 240996
" />
<path d="M225069 231496
L231719 243014
" />
<path d="M231719 243014
L243237 236364
" />
<path d="M243237 236364
L236587 224846
" />
<path d="M236587 224846
L225069 231496
" />
<path d="M225802 296891
L232452 308409
" />
<path d="M232452 308409
L243970 301759
" />
<path d="M243970 301759
L237320 290241
" />
<path d="M237320 290241
L225802 296891
" />
<path d="M258711 277891
L265361 289409
" />
<path d="M265361 289409
L276879 282759
" />
<path d="M276879 282759
L270229 271241
" />
<path d="M270229 271241
L258711 277891
" />
<path d="M294671 290916
L304076 300320
" />
<path d="M304076 300320
L313480 290916
" />
<path d="M313480 290916
L304076 281511
" />
<path d="M304076 281511
L294671 290916
" />
<path d="M105226 273946
L118073 270504
" />
<path d="M118073 270504
L114631 257657
" />
<path d="M114631 257657
L101784 261099
" />
<path d="M101784 261099
L105226 273946
" />
<path d="M170646 224453
L183492 221011
" />
<path d="M183492 221011
L180050 208164
" />
<path d="M180050 208164
L167203 211606
" />
<path d="M167203 211606
L170646 224453
" />
<path d="M162436 267223
L175282 263780
" />
<path d="M175282 263780
L171840 250934
" />
<path d="M171840 250934
L158993 254376
" />
<path d="M158993 254376
L162436 267223
" />
<path d="M175563 242805
L188410 239363
" />
<path d="M188410 239363
L184968 226516
" />
<path d="M184968 226516
L172121 229959
" />
<path d="M172121 229959
L175563 242805
" />
<path d="M77039 242158
L89885 238716
" />
<path d="M89885 238716
L86443 225869
" />
<path d="M86443 225869
L73596 229312
" />
<path d="M73596 229312
L77039 242158
" />
<path d="M152600 230517
L165447 227075
" />
<path d="M165447 227075
L162005 214228
" />
<path d="M162005 214228
L149158 217671
" />
<path d="M149158 217671
L152600 230517
" />
<path d="M120505 257558
L133352 254116
" />
<path d="M133352 254116
L129910 241269
" />
<path d="M129910 241269
L117063 244711
" />
<path d="M117063 244711
L120505 257558
" />
<path d="M63296 264282
L76143 260839
" />
<path d="M76143 260839
L72701 247992
" />
<path d="M72701 247992
L59854 251435
" />
<path d="M59854 251435
L63296 264282
" />
<path d="M115588 239206
L128435 235763
" />
<path d="M128435 235763
L124992 222916
" />
<path d="M124992 222916
L112146 226359
" />
<path d="M112146 226359
L115588 239206
" />
<path d="M170806 188574
L180210 197978
" />
<path d="M180210 197978
L189615 188574
" />
<path d="M189615 188574
L180210 179169
" />
<path d="M180210 179169
L170806 188574
" />
<path d="M125423 275911
L138270 272468
" />
<path d="M138270 272468
L134828 259622
" />
<path d="M134828 259622
L121981 263064
" />
<path d="M121981 263064
L125423 275911
" />
<path d="M95391 237241
L108238 233799
" />
<path d="M108238 233799
L104796 220952
" />
<path d="M104796 220952
L91949 224394
" />
<path d="M91949 224394
L95391 237241
" />
<path d="M100309 255594
L113156 252151
" />
<path d="M113156 252151
L109713 239304
" />
<path d="M109713 239304
L96866 242747
" />
<path d="M96866 242747
L100309 255594
" />
<path d="M140395 258376
L153242 254933
" />
<path d="M153242 254933
L149799 242087
" />
<path d="M149799 242087
L136952 245529
" />
<path d="M136952 245529
L140395 258376
" />
<path d="M135065 215546
L147912 212103
" />
<path d="M147912 212103
L144470 199257
" />
<path d="M144470 199257
L131623 202699
" />
<path d="M131623 202699
L135065 215546
" />
<path d="M180481 261158
L193328 257716
" />
<path d="M193328 257716
L189885 244869
" />
<path d="M189885 244869
L177038 248311
" />
<path d="M177038 248311
L180481 261158
" />
<path d="M157518 248870
L170365 245428
" />
<path d="M170365 245428
L166923 232581
" />
<path d="M166923 232581
L154076 236023
" />
<path d="M154076 236023
L157518 248870
" />
<path d="M86874 278864
L99721 275421
" />
<path d="M99721 275421
L96278 262575
" />
<path d="M96278 262575
L83431 266017
" />
<path d="M83431 266017
L86874 278864
" />
<path d="M81956 260511
L94803 257069
" />
<path d="M94803 257069
L91361 244222
" />
<path d="M91361 244222
L78514 247664
" />
<path d="M78514 247664
L81956 260511
" />
<path d="M145312 276728
L158159 273286
" />
<path d="M158159 273286
L154717 260439
" />
<path d="M154717 260439
L141870 263882
" />
<path d="M141870 263882
L145312 276728
" />
<path d="M135477 240023
L148324 236581
" />
<path d="M148324 236581
L144882 223734
" />
<path d="M144882 223734
L132035 227176
" />
<path d="M132035 227176
L135477 240023
" />
<path d="M157366 208659
L168884 202009
" />
<path d="M168884 202009
L162234 190491
" />
<path d="M162234 190491
L150716 197141
" />
<path d="M150716 197141
L157366 208659
" />
<path d="M321993 193434
L315343 181915
" />
<path d="M315343 181915
L303824 188565
" />
<path d="M303824 188565
L310474 200084
" />
<path d="M310474 200084
L321993 193434
" />
<path d="M257254 143053
L250604 131535
" />
<path d="M250604 131535
L239086 138185
" />
<path d="M239086 138185
L245736 149703
" />
<path d="M245736 149703
L257254 143053
" />
<path d="M300691 139914
L294041 128396
" />
<path d="M294041 128396
L282523 135046
" />
<path d="M282523 135046
L289173 146564
" />
<path d="M289173 146564
L300691 139914
" />
<path d="M273708 133553
L267058 122035
" />
<path d="M267058 122035
L255540 128685
" />
<path d="M255540 128685
L262190 140203
" />
<path d="M262190 140203
L273708 133553
" />
<path d="M298584 228888
L291934 217370
" />
<path d="M291934 217370
L280415 224020
" />
<path d="M280415 224020
L287065 235538
" />
<path d="M287065 235538
L298584 228888
" />
<path d="M267782 158914
L261132 147396
" />
<path d="M261132 147396
L249614 154046
" />
<path d="M249614 154046
L256264 165564
" />
<path d="M256264 165564
L267782 158914
" />
<path d="M302208 182917
L295558 171398
" />
<path d="M295558 171398
L284040 178048
" />
<path d="M284040 178048
L290690 189567
" />
<path d="M290690 189567
L302208 182917
" />
<path d="M323510 236436
L316860 224918
" />
<path d="M316860 224918
L305342 231568
" />
<path d="M305342 231568
L311992 243086
" />
<path d="M311992 243086
L323510 236436
" />
<path d="M285754 192417
L279104 180898
" />
<path d="M279104 180898
L267586 187548
" />
<path d="M267586 187548
L274236 199067
" />
<path d="M274236 199067
L285754 192417
" />
<path d="M222556 152185
L229206 140667
" />
<path d="M229206 140667
L217688 134017
" />
<path d="M217688 134017
L211038 145535
" />
<path d="M211038 145535
L222556 152185
" />
<path d="M318663 173417
L312013 161898
" />
<path d="M312013 161898
L300495 168548
" />
<path d="M300495 168548
L307145 180067
" />
<path d="M307145 180067
L318663 173417
" />
<path d="M289084 212434
L282434 200915
" />
<path d="M282434 200915
L270915 207565
" />
<path d="M270915 207565
L277565 219084
" />
<path d="M277565 219084
L289084 212434
" />
<path d="M305538 202934
L298888 191415
" />
<path d="M298888 191415
L287370 198065
" />
<path d="M287370 198065
L294020 209584
" />
<path d="M294020 209584
L305538 202934
" />
<path d="M297851 163493
L291201 151975
" />
<path d="M291201 151975
L279682 158625
" />
<path d="M279682 158625
L286332 170143
" />
<path d="M286332 170143
L297851 163493
" />
<path d="M257859 179726
L251209 168208
" />
<path d="M251209 168208
L239691 174858
" />
<path d="M239691 174858
L246341 186376
" />
<path d="M246341 186376
L257859 179726
" />
<path d="M290163 124053
L283513 112535
" />
<path d="M283513 112535
L271995 119185
" />
<path d="M271995 119185
L278645 130703
" />
<path d="M278645 130703
L290163 124053
" />
<path d="M284237 149414
L277587 137896
" />
<path d="M277587 137896
L266069 144546
" />
<path d="M266069 144546
L272719 156064
" />
<path d="M272719 156064
L284237 149414
" />
<path d="M331493 209888
L324843 198370
" />
<path d="M324843 198370
L313324 205020
" />
<path d="M313324 205020
L319974 216538
" />
<path d="M319974 216538
L331493 209888
" />
<path d="M315038 219388
L308388 207870
" />
<path d="M308388 207870
L296870 214520
" />
<path d="M296870 214520
L303520 226038
" />
<path d="M303520 226038
L315038 219388
" />
<path d="M314305 153993
L307655 142475
" />
<path d="M307655 142475
L296137 149125
" />
<path d="M296137 149125
L302787 160643
" />
<path d="M302787 160643
L314305 153993
" />
<path d="M281396 172993
L274746 161475
" />
<path d="M274746 161475
L263228 168125
" />
<path d="M263228 168125
L269878 179643
" />
<path d="M269878 179643
L281396 172993
" />
<path d="M245435 159968
L236031 150564
" />
<path d="M236031 150564
L226626 159968
" />
<path d="M226626 159968
L236031 169373
" />
<path d="M236031 169373
L245435 159968
" />
<path d="M150795 113817
L137948 117260
" />
<path d="M137948 117260
L141390 130107
" />
<path d="M141390 130107
L154237 126664
" />
<path d="M154237 126664
L150795 113817
" />
<path d="M140433 148558
L127587 152000
" />
<path d="M127587 152000
L131029 164847
" />
<path d="M131029 164847
L143876 161405
" />
<path d="M143876 161405
L140433 148558
" />
<path d="M85376 163311
L72529 166753
" />
<path d="M72529 166753
L75971 179600
" />
<path d="M75971 179600
L88818 176157
" />
<path d="M88818 176157
L85376 163311
" />
<path d="M169147 108900
L156301 112342
" />
<path d="M156301 112342
L159743 125189
" />
<path d="M159743 125189
L172590 121747
" />
<path d="M172590 121747
L169147 108900
" />
<path d="M98503 138893
L85656 142336
" />
<path d="M85656 142336
L89099 155183
" />
<path d="M89099 155183
L101946 151740
" />
<path d="M101946 151740
L98503 138893
" />
<path d="M178983 145605
L166136 149047
" />
<path d="M166136 149047
L169578 161894
" />
<path d="M169578 161894
L182425 158452
" />
<path d="M182425 158452
L178983 145605
" />
<path d="M160630 150523
L147783 153965
" />
<path d="M147783 153965
L151225 166812
" />
<path d="M151225 166812
L164072 163369
" />
<path d="M164072 163369
L160630 150523
" />
<path d="M135516 130205
L122669 133648
" />
<path d="M122669 133648
L126111 146495
" />
<path d="M126111 146495
L138958 143052
" />
<path d="M138958 143052
L135516 130205
" />
<path d="M75540 126606
L62694 130048
" />
<path d="M62694 130048
L66136 142895
" />
<path d="M66136 142895
L78983 139452
" />
<path d="M78983 139452
L75540 126606
" />
<path d="M174065 127253
L161218 130695
" />
<path d="M161218 130695
L164661 143542
" />
<path d="M164661 143542
L177507 140099
" />
<path d="M177507 140099
L174065 127253
" />
<path d="M110709 111035
L97862 114477
" />
<path d="M97862 114477
L101304 127324
" />
<path d="M101304 127324
L114151 123882
" />
<path d="M114151 123882
L110709 111035
" />
<path d="M103421 157246
L90574 160688
" />
<path d="M90574 160688
L94016 173535
" />
<path d="M94016 173535
L106863 170093
" />
<path d="M106863 170093
L103421 157246
" />
<path d="M115626 129388
L102780 132830
" />
<path d="M102780 132830
L106222 145677
" />
<path d="M106222 145677
L119069 142235
" />
<path d="M119069 142235
L115626 129388
" />
<path d="M120544 147740
L107697 151183
" />
<path d="M107697 151183
L111139 164029
" />
<path d="M111139 164029
L123986 160587
" />
<path d="M123986 160587
L120544 147740
" />
<path d="M80458 144958
L67611 148400
" />
<path d="M67611 148400
L71053 161247
" />
<path d="M71053 161247
L83900 157805
" />
<path d="M83900 157805
L80458 144958
" />
<path d="M85215 199190
L75811 189785
" />
<path d="M75811 189785
L66406 199190
" />
<path d="M66406 199190
L75811 208595
" />
<path d="M75811 208595
L85215 199190
" />
<path d="M192725 123482
L179878 126924
" />
<path d="M179878 126924
L183320 139771
" />
<path d="M183320 139771
L196167 136329
" />
<path d="M196167 136329
L192725 123482
" />
<path d="M130598 111853
L117751 115295
" />
<path d="M117751 115295
L121194 128142
" />
<path d="M121194 128142
L134040 124700
" />
<path d="M134040 124700
L130598 111853
" />
<path d="M98656 179105
L87137 185755
" />
<path d="M87137 185755
L93787 197273
" />
<path d="M93787 197273
L105306 190623
" />
<path d="M105306 190623
L98656 179105
" />
<path d="M155712 132170
L142866 135612
" />
<path d="M142866 135612
L146308 148459
" />
<path d="M146308 148459
L159155 145017
" />
<path d="M159155 145017
L155712 132170
" />
<path d="M93586 120541
L80739 123983
" />
<path d="M80739 123983
L84181 136830
" />
<path d="M84181 136830
L97028 133388
" />
<path d="M97028 133388
L93586 120541
" />
<path d="M120956 172218
L108109 175660
" />
<path d="M108109 175660
L111551 188507
" />
<path d="M111551 188507
L124398 185065
" />
<path d="M124398 185065
L120956 172218
" />
<g >
</g>
<g >
</g>
<g >
</g>
<g >
</g>
<g >
</g>
<g >
</g>
<g >
</g>
<g >
</g>
<g >
</g>
<g >
</g>
<g >
</g>
<g >
</g>
<g >
</g>
<g >
</g>
<g >
</g>
<g >
</g>
<g >
</g>
<g >
</g>
<g >
</g>
<g >
</g>
<g >
</g>
<g >
</g>
<g >
</g>
<g >
</g>
<g >
</g>
<g >
</g>
<g >
</g>
<g >
</g>
<g >
</g>
<g >
</g>
<g >
</g>
<g >
</g>
<g >
</g>
<g >
</g>
<g >
</g>
<g >
</g>
<g >
</g>
<g >
</g>
<g >
</g>
<g >
</g>
<g >
</g>
<g >
</g>
<g >
</g>
<g >
</g>
<g >
</g>
<g >
</g>
<g >
</g>
<g >
</g>
<g >
</g>
<g >
</g>
<g >
</g>
<g >
</g>
<g >
</g>
<g >
</g>
<g >
</g>
<g >
</g>
<g >
</g>
<g >
</g>
<g >
</g>
<g >
</g>
<g >
</g>
<g >
</g>
<g >
</g>
<g >
</g>
<g >
</g>
<g >
</g>
<g >
</g>
<g >
</g>
<g >
</g>
<g >
</g>
<g >
</g>
<g >
</g>
<g >
</g>
<g >
</g>
<g >
</g>
<g >
</g>
<g >
</g>
<g >
</g>
<g >
</g>
<g >
</g>
<g >
</g>
<g >
</g>
<g >
</g>
<g >
</g>
<g >
</g>
<g >
</g>
<g >
</g>
<g >
</g>
<g >
</g>
<g >
</g>
<g >
</g>
<g >
</g>
<g >
</g>
<g >
</g>
<g >
</g>
<g >
</g>
<g >
</g>
<g >
</g>
<g >
</g>
<g >
</g>
<g >
</g>
<g >
</g>
<g >
</g>
<g >
</g>
<g >
</g>
<g >
</g>
<g >
</g>
<g >
</g>
<g >
</g>
<g >
</g>
<g >
</g>
<g >
</g>
<g >
</g>
</g> 
</svg>
