<?xml version="1.0" standalone="no"?>
 <!DOCTYPE svg PUBLIC "-//W3C//DTD SVG 1.1//EN" 
 "http://www.w3.org/Graphics/SVG/1.1/DTD/svg11.dtd"> 
<svg
  xmlns:svg="http://www.w3.org/2000/svg"
  xmlns="http://www.w3.org/2000/svg"
  xmlns:xlink="http://www.w3.org/1999/xlink"
  version="1.1"
  width="29.700220cm" height="21.000720cm" viewBox="0 0 297002 210007">
<title>SVG Picture created as jantor-Edge_Cuts.svg date 2023/01/01 16:19:25 </title>
  <desc>Picture generated by PCBNEW </desc>
<g style="fill:#000000; fill-opacity:1.000000;stroke:#000000; stroke-opacity:1.000000;
stroke-linecap:round; stroke-linejoin:round;"
 transform="translate(0 0) scale(1 1)">
</g>
<g style="fill:#000000; fill-opacity:0.0; 
stroke:#000000; stroke-width:0.000000; stroke-opacity:1; 
stroke-linecap:round; stroke-linejoin:round;">
</g>
<g style="fill:#000000; fill-opacity:0.0; 
stroke:#000000; stroke-width:100.000000; stroke-opacity:1; 
stroke-linecap:round; stroke-linejoin:round;">
<path d="M391488 -86047
L377482 -89800
" />
<path d="M347639.304463 33165.427270 A1500.003000 1500.003000 0.0 0 0 345802.177319 34226.084086" />
</g>
<g style="fill:#000000; fill-opacity:1.0; 
stroke:#000000; stroke-width:0.001000; stroke-opacity:1; 
stroke-linecap:round; stroke-linejoin:round;">
<circle cx="340600.417000" cy="47843.779000" r="50.000000" /> 
</g>
<g style="fill:#000000; fill-opacity:1.0; 
stroke:#000000; stroke-width:100.000000; stroke-opacity:1; 
stroke-linecap:round; stroke-linejoin:round;">
</g>
<g style="fill:#000000; fill-opacity:0.0; 
stroke:#000000; stroke-width:100.000000; stroke-opacity:1; 
stroke-linecap:round; stroke-linejoin:round;">
<path d="M423356 9454
L414815 41330
" />
<path d="M432172 -9924
L432948 -12821
" />
<path d="M357049 28957
L355754 33787
" />
<path d="M412978.003992 42390.630440 A1500.008000 1500.008000 0.0 0 0 414815.115291 41330.009078" />
<path d="M335900 46066
L321111 23986
" />
<path d="M342087.674717 -7022.785138 A2500.196000 2500.196000 0.0 0 0 342631.981060 -8034.416984" />
<path d="M427929 -17272
L432070 -32727
" />
<path d="M412977 42390
L358886 27896
" />
<path d="M353917 34847
L347639 33165
" />
<path d="M342437 46783
L344241 40051
" />
<path d="M358278.756529 -29723.777242 A1500.020000 1500.020000 0.0 0 0 360115.871088 -30784.434976" />
<path d="M416990 -80767
L421131 -96222
" />
<path d="M353917.819983 34847.753793 A1499.909000 1499.909000 0.0 0 0 355754.937843 33787.083958" />
<path d="M321360.952692 21518.544614 A2121.342000 2121.342000 0.0 0 0 321111.014690 23986.640179" />
<path d="M427513 7462
L432172 -9924
" />
<path d="M375645 -88739
L360115 -30784
" />
<path d="M426085.522820 -37436.910512 A1500.008000 1500.008000 0.0 0 0 427146.183876 -35599.795539" />
<path d="M421131.463335 -96222.181910 A1500.037000 1500.037000 0.0 0 0 420070.802102 -98059.302379" />
<path d="M420070 -98059
L399303 -103623
" />
<path d="M391488.058211 -86047.776788 A1500.011000 1500.011000 0.0 0 0 393325.175560 -87108.437118" />
<path d="M427929.448433 -17272.592152 A1499.994000 1499.994000 0.0 0 0 428990.103013 -15435.477049" />
<path d="M416990.361943 -80767.370747 A1499.977000 1499.977000 0.0 0 0 418051.023970 -78930.250889" />
<path d="M431887 -14659
L428990 -15435
" />
<path d="M377482.129572 -89800.651404 A1500.033000 1500.033000 0.0 0 0 375645.016368 -88739.987901" />
<path d="M335900.198445 46066.720435 A2500.114000 2500.114000 0.0 0 0 337219.684898 46937.915379" />
<path d="M426085 -37436
L435532 -72693
" />
<path d="M399303.398223 -103623.908832 A1500.046000 1500.046000 0.0 0 0 397466.282959 -102563.245011" />
<path d="M425193 8393
L425676 8523
" />
<path d="M345802 34226
L344241 40051
" />
<path d="M434471 -74530
L418051 -78930
" />
<path d="M348714 -30733
L342631 -8034
" />
<path d="M432948.530232 -12821.900813 A1500.007000 1500.007000 0.0 0 0 431887.874097 -14659.013361" />
<path d="M340600 47843
L337219 46937
" />
<path d="M432070.551016 -32727.408728 A1499.998000 1499.998000 0.0 0 0 431009.887040 -34564.524150" />
<path d="M350551.345711 -31794.331922 A1500.030000 1500.030000 0.0 0 0 348714.229150 -30733.667960" />
<path d="M431009 -34564
L427146 -35599
" />
<path d="M342087 -7022
L321360 21518
" />
<path d="M358886.146002 27896.799723 A1499.970000 1499.970000 0.0 0 0 357049.032736 28957.463929" />
<path d="M358278 -29723
L350551 -31794
" />
<path d="M397466 -102563
L393325 -87108
" />
<path d="M425676.219238 8523.198379 A1500.058000 1500.058000 0.0 0 0 427513.343552 7462.532880" />
<path d="M425193.283475 8393.724310 A1500.050000 1500.050000 0.0 0 0 423356.134121 9454.455032" />
<path d="M435532.417093 -72693.208511 A1500.015000 1500.015000 0.0 0 0 434471.756033 -74530.334125" />
<path d="M340600.417275 47843.777975 A1499.971000 1499.971000 0.0 0 0 342437.540047 46783.116013" />
<path d="M299353 7484
L313359 11236
" />
<path d="M343202.594671 -111729.125502 A1500.003000 1500.003000 0.0 0 0 345039.722114 -112789.779970" />
</g>
<g style="fill:#000000; fill-opacity:1.0; 
stroke:#000000; stroke-width:0.001000; stroke-opacity:1; 
stroke-linecap:round; stroke-linejoin:round;">
<circle cx="350241.478000" cy="-126407.473000" r="50.000000" /> 
</g>
<g style="fill:#000000; fill-opacity:1.0; 
stroke:#000000; stroke-width:100.000000; stroke-opacity:1; 
stroke-linecap:round; stroke-linejoin:round;">
</g>
<g style="fill:#000000; fill-opacity:0.0; 
stroke:#000000; stroke-width:100.000000; stroke-opacity:1; 
stroke-linecap:round; stroke-linejoin:round;">
<path d="M267485 -88018
L276026 -119893
" />
<path d="M258669 -68639
L257893 -65741
" />
<path d="M333792 -107521
L335086 -112350
" />
<path d="M277863.892383 -120954.326108 A1500.007000 1500.007000 0.0 0 0 276026.784742 -119893.705069" />
<path d="M354941 -124630
L369730 -102550
" />
<path d="M348754.226093 -71540.913031 A2500.196000 2500.196000 0.0 0 0 348209.917190 -70529.278949" />
<path d="M262912 -61291
L258771 -45836
" />
<path d="M277863 -120954
L331955 -106460
" />
<path d="M336924 -113411
L343202 -111729
" />
<path d="M348404 -125346
L346600 -118615
" />
<path d="M332563.141614 -48839.921291 A1500.021000 1500.021000 0.0 0 0 330726.027312 -47779.259916" />
<path d="M273851 2203
L269710 17658
" />
<path d="M336924.078048 -113411.448178 A1499.907000 1499.907000 0.0 0 0 335086.960473 -112350.781873" />
<path d="M369480.942454 -100082.242144 A2121.343000 2121.343000 0.0 0 0 369730.884225 -102550.337130" />
<path d="M263328 -86026
L258669 -68639
" />
<path d="M315196 10176
L330726 -47779
" />
<path d="M264756.377095 -41126.788903 A1500.008000 1500.008000 0.0 0 0 263695.715124 -42963.900461" />
<path d="M269710.432714 17658.486459 A1500.037000 1500.037000 0.0 0 0 270771.096081 19495.603696" />
<path d="M270771 19495
L291538 25060
" />
<path d="M299353.840115 7484.077572 A1500.012000 1500.012000 0.0 0 0 297516.721657 8544.741908" />
<path d="M262912.450201 -61291.106214 A1499.994000 1499.994000 0.0 0 0 261851.794987 -63128.218951" />
<path d="M273851.539637 2203.675707 A1499.980000 1499.980000 0.0 0 0 272790.875056 366.550791" />
<path d="M258954 -63904
L261851 -63128
" />
<path d="M313359.768503 11236.953121 A1500.032000 1500.032000 0.0 0 0 315196.881282 10176.292076" />
<path d="M354941.697710 -124630.417203 A2500.116000 2500.116000 0.0 0 0 353622.215034 -125501.611128" />
<path d="M264756 -41126
L255309 -5870
" />
<path d="M291538.505428 25060.206669 A1500.042000 1500.042000 0.0 0 0 293375.612343 23999.548092" />
<path d="M265648 -86957
L265165 -87086
" />
<path d="M345039 -112789
L346600 -118615
" />
<path d="M256370 -4033
L272790 366
" />
<path d="M342127 -47830
L348209 -70529
" />
<path d="M257893.364321 -65741.795914 A1500.010000 1500.010000 0.0 0 0 258954.023877 -63904.681540" />
<path d="M350241 -126407
L353622 -125501
" />
<path d="M258771.351916 -45836.288487 A1499.996000 1499.996000 0.0 0 0 259832.009928 -43999.172733" />
<path d="M340290.549914 -46769.363679 A1500.031000 1500.031000 0.0 0 0 342127.670133 -47830.028964" />
<path d="M259832 -43999
L263695 -42963
" />
<path d="M348754 -71540
L369480 -100082
" />
<path d="M331955.748449 -106460.497674 A1499.970000 1499.970000 0.0 0 0 333792.865014 -107521.159996" />
<path d="M332563 -48839
L340290 -46769
" />
<path d="M293375 23999
L297516 8544
" />
<path d="M265165.680338 -87086.894528 A1500.059000 1500.059000 0.0 0 0 263328.556232 -86026.230938" />
<path d="M265648.618725 -86957.423791 A1500.048000 1500.048000 0.0 0 0 267485.763246 -88018.150934" />
<path d="M255309.481539 -5870.489588 A1500.013000 1500.013000 0.0 0 0 256370.142100 -4033.363374" />
<path d="M350241.479002 -126407.476740 A1499.972000 1499.972000 0.0 0 0 348404.357920 -125346.813021" />
<path d="M250937 -37500
L250937 -40500
" />
<path d="M237937.500000 -62500.000000 A1500.004000 1500.004000 0.0 0 0 239437.501000 -61000.004000" />
<path d="M245937.501000 17999.995000 A1500.002000 1500.002000 0.0 0 0 247437.502000 16499.999000" />
<path d="M249437.493000 -18000.005000 A1500.022000 1500.022000 0.0 0 0 250937.501000 -19500.014000" />
<path d="M174437 -37500
L166437 -37500
" />
<path d="M217937.515000 -102000.009000 A1499.983000 1499.983000 0.0 0 0 219437.506000 -100500.008000" />
<path d="M245937 17999
L189937 17999
" />
<path d="M166437.499000 -37500.010000 A1500.025000 1500.025000 0.0 0 0 164937.497000 -36000.002000" />
<path d="M188437 19499
L188437 24499
" />
<path d="M193437 -118000
L193437 -102000
" />
<path d="M243437 -61000
L239437 -61000
" />
<path d="M191937 -100500
L177437 -100500
" />
<path d="M186937 25999
L180437 25999
" />
<path d="M177437.499000 41999.965000 A1499.995000 1499.995000 0.0 0 0 178937.502000 40499.990000" />
<path d="M249437 -42000
L246437 -42000
" />
<path d="M236437 -100500
L219437 -100500
" />
<path d="M244937.496000 -59500.012000 A1500.000000 1500.000000 0.0 0 0 243437.499000 -61000.007000" />
<path d="M152040.123367 21551.307183 A2121.330000 2121.330000 0.0 0 0 152437.500172 23999.996828" />
<path d="M194937.502000 -119500.005999 A1500.047000 1500.047000 0.0 0 0 193437.501001 -118000.004000" />
<path d="M248937 -18000
L249437 -18000
" />
<path d="M174437.503000 -37499.998000 A1500.019000 1500.019000 0.0 0 0 175937.500000 -39000.000000" />
<path d="M178937 27499
L178937 33531
" />
<path d="M237937.508000 -99000.006000 A1500.006000 1500.006000 0.0 0 0 236437.498000 -100500.012000" />
<path d="M164673 -11381
L152040 21551
" />
<path d="M244937 -43500
L244937 -59500
" />
<path d="M164937 -36000
L164937 -12500
" />
<path d="M189937.499000 18000.000000 A1499.970000 1499.970000 0.0 0 0 188437.502000 19499.996000" />
<path d="M178937 40499
L178937 33531
" />
<path d="M244937.506000 -43500.008000 A1499.992000 1499.992000 0.0 0 0 246437.501000 -42000.009000" />
<path d="M250937 -19500
L250937 -37500
" />
</g>
<g style="fill:#000000; fill-opacity:1.0; 
stroke:#000000; stroke-width:0.001000; stroke-opacity:1; 
stroke-linecap:round; stroke-linejoin:round;">
<circle cx="177437.499000" cy="41999.992000" r="50.000000" /> 
</g>
<g style="fill:#000000; fill-opacity:0.0; 
stroke:#000000; stroke-width:100.000000; stroke-opacity:1; 
stroke-linecap:round; stroke-linejoin:round;">
<path d="M250937.501000 -40500.005000 A1500.007000 1500.007000 0.0 0 0 249437.495000 -42000.004000" />
<path d="M217937 -102000
L217937 -118000
" />
<path d="M191937.500000 -100500.007000 A1500.014000 1500.014000 0.0 0 0 193437.502000 -102000.011000" />
<path d="M237937 -62500
L237937 -99000
" />
<path d="M177437.496000 -100500.005999 A1500.039000 1500.039000 0.0 0 0 175937.498000 -99000.003000" />
<path d="M217937.502000 -118000.005000 A1500.036000 1500.036000 0.0 0 0 216437.498000 -119500.009000" />
<path d="M247437 -16500
L247437 16499
" />
<path d="M164673.562000 -11381.967500 A2500.265000 2500.265000 0.0 0 0 164937.495999 -12500.005000" />
<path d="M172437.499640 41499.994480 A2500.097000 2500.097000 0.0 0 0 173937.502000 41999.993000" />
<path d="M177437 41999
L173937 41999
" />
<path d="M248937.504000 -18000.004000 A1500.011000 1500.011000 0.0 0 0 247437.495000 -16500.003000" />
<path d="M186937.499000 26000.001997 A1499.909000 1499.909000 0.0 0 0 188437.501997 24499.992000" />
<path d="M175937 -99000
L175937 -39000
" />
<path d="M216437 -119500
L194937 -119500
" />
<path d="M172437 41499
L152437 23999
" />
<path d="M180437.504001 25999.970000 A1499.981000 1499.981000 0.0 0 0 178937.493001 27499.996000" />
<path d="M68625.006000 -60999.991000 A1500.014000 1500.014000 0.0 0 0 67124.997000 -59499.997000" />
<path d="M70625 -62499
L70624 -95500
" />
<path d="M73124.999000 -35499.997000 A1499.999000 1499.999000 0.0 0 0 71625.002000 -36999.996000" />
<path d="M69124.996000 -61000.008000 A1500.006000 1500.006000 0.0 0 0 70625.008000 -62499.998000" />
<path d="M126125.001000 21499.992001 A1500.045000 1500.045000 0.0 0 0 124625.003000 23000.008000" />
<path d="M67125 -41500
L67125 -38500
" />
<path d="M69124 -61000
L68625 -61000
" />
<path d="M142125 20000
L142125 -39999
" />
<path d="M68625 -37000
L71625 -36999
" />
<path d="M74624 -17999
L78625 -18000
" />
<path d="M73124 -35499
L73125 -19499
" />
<path d="M143624.995999 -41500.013999 A1500.043000 1500.043000 0.0 0 0 142125.003000 -39999.999000" />
<path d="M153388 -67618
L166022 -100551
" />
<path d="M72124.997000 -96999.984000 A1499.976000 1499.976000 0.0 0 0 70624.998000 -95500.002000" />
</g>
<g style="fill:#000000; fill-opacity:1.0; 
stroke:#000000; stroke-width:0.001000; stroke-opacity:1; 
stroke-linecap:round; stroke-linejoin:round;">
<circle cx="140625.002000" cy="-120999.996000" r="50.000000" /> 
</g>
<g style="fill:#000000; fill-opacity:1.0; 
stroke:#000000; stroke-width:100.000000; stroke-opacity:1; 
stroke-linecap:round; stroke-linejoin:round;">
</g>
<g style="fill:#000000; fill-opacity:0.0; 
stroke:#000000; stroke-width:100.000000; stroke-opacity:1; 
stroke-linecap:round; stroke-linejoin:round;">
<path d="M81625 21500
L98624 21500
" />
<path d="M145624.999840 -120499.987120 A2500.008000 2500.008000 0.0 0 0 144124.998000 -120999.997000" />
<path d="M166022.354150 -100551.324925 A2121.327000 2121.327000 0.0 0 0 165625.003207 -103000.000207" />
<path d="M124624 38999
L124625 23000
" />
<path d="M143624 -41499
L151625 -41499
" />
<path d="M67124 -59499
L67125 -41500
" />
<path d="M140625 -120999
L144124 -120999
" />
<path d="M140625.000000 21500.015999 A1500.057000 1500.057000 0.0 0 0 142125.000999 20000.001000" />
<path d="M100125 23000
L100124 38999
" />
<path d="M80125.002000 -16499.999000 A1500.007000 1500.007000 0.0 0 0 78625.004000 -18000.000000" />
<path d="M80125 -16499
L80124 20000
" />
<path d="M101625 40500
L123125 40500
" />
<path d="M100125.018000 38999.998000 A1500.008000 1500.008000 0.0 0 0 101625.002000 40500.000000" />
<path d="M151625.002000 -41499.994000 A1500.036000 1500.036000 0.0 0 0 153125.000000 -42999.998000" />
<path d="M139125 -106499
L139125 -112531
" />
<path d="M129625 -98499
L129624 -103499
" />
<path d="M80125.000000 20000.004000 A1500.003000 1500.003000 0.0 0 0 81625.003000 21500.006000" />
<path d="M153388.948790 -67618.025605 A2500.030000 2500.030000 0.0 0 0 153125.007000 -66499.997000" />
<path d="M72124 -96999
L128124 -97000
" />
<path d="M128124.999001 -96999.966000 A1500.031000 1500.031000 0.0 0 0 129625.005000 -98499.999000" />
<path d="M123125.004000 40499.965000 A1499.981000 1499.981000 0.0 0 0 124624.998000 38999.999000" />
<path d="M145625 -120499
L165625 -103000
" />
<path d="M139125 -119499
L139125 -112531
" />
<path d="M67125.009000 -38500.000000 A1499.994000 1499.994000 0.0 0 0 68625.001000 -37000.004000" />
<path d="M73124.991000 -19499.999000 A1500.009000 1500.009000 0.0 0 0 74624.999000 -17999.996000" />
<path d="M153125 -42999
L153125 -66499
" />
<path d="M137624.997000 -105000.009000 A1499.977000 1499.977000 0.0 0 0 139125.007000 -106499.997000" />
<path d="M100125.005000 23000.003000 A1500.001000 1500.001000 0.0 0 0 98624.998000 21500.000000" />
<path d="M131124.999000 -105000.029000 A1499.992000 1499.992000 0.0 0 0 129624.999001 -103499.993000" />
<path d="M140625.002000 -121000.000000 A1499.998000 1499.998000 0.0 0 0 139125.002000 -119499.998000" />
<path d="M126125 21500
L140625 21500
" />
<path d="M131124 -104999
L137624 -104999
" />
</g>
<g style="fill:#000000; fill-opacity:0.0; 
stroke:#000000; stroke-width:120.000000; stroke-opacity:1; 
stroke-linecap:round; stroke-linejoin:round;">
<path d="M358775 1581
L352125 13099
" />
<path d="M352125 13099
L340607 6449
" />
<path d="M340607 6449
L347257 -5068
" />
<path d="M347257 -5068
L358775 1581
" />
<path d="M405709 -55475
L402267 -42628
" />
<path d="M402267 -42628
L389420 -46070
" />
<path d="M389420 -46070
L392863 -58917
" />
<path d="M392863 -58917
L405709 -55475
" />
<path d="M387357 -60392
L383914 -47545
" />
<path d="M383914 -47545
L371068 -50988
" />
<path d="M371068 -50988
L374510 -63835
" />
<path d="M374510 -63835
L387357 -60392
" />
<path d="M426027 -30360
L422584 -17514
" />
<path d="M422584 -17514
L409738 -20956
" />
<path d="M409738 -20956
L413180 -33803
" />
<path d="M413180 -33803
L426027 -30360
" />
<path d="M410627 -73827
L407185 -60980
" />
<path d="M407185 -60980
L394338 -64423
" />
<path d="M394338 -64423
L397780 -77270
" />
<path d="M397780 -77270
L410627 -73827
" />
<path d="M365662 -20718
L362219 -7871
" />
<path d="M362219 -7871
L349372 -11313
" />
<path d="M349372 -11313
L352815 -24160
" />
<path d="M352815 -24160
L365662 -20718
" />
<path d="M424062 -50557
L420620 -37710
" />
<path d="M420620 -37710
L407773 -41153
" />
<path d="M407773 -41153
L411215 -53999
" />
<path d="M411215 -53999
L424062 -50557
" />
<path d="M390139 -20306
L386697 -7459
" />
<path d="M386697 -7459
L373850 -10902
" />
<path d="M373850 -10902
L377292 -23749
" />
<path d="M377292 -23749
L390139 -20306
" />
<path d="M417339 6651
L413896 19498
" />
<path d="M413896 19498
L401049 16056
" />
<path d="M401049 16056
L404492 3209
" />
<path d="M404492 3209
L417339 6651
" />
<path d="M414397 -92487
L410955 -79640
" />
<path d="M410955 -79640
L398108 -83083
" />
<path d="M398108 -83083
L401551 -95929
" />
<path d="M401551 -95929
L414397 -92487
" />
<path d="M428980 -68910
L425537 -56063
" />
<path d="M425537 -56063
L412690 -59505
" />
<path d="M412690 -59505
L416133 -72352
" />
<path d="M416133 -72352
L428980 -68910
" />
<path d="M380633 -3183
L377191 9663
" />
<path d="M377191 9663
L364344 6221
" />
<path d="M364344 6221
L367787 -6625
" />
<path d="M367787 -6625
L380633 -3183
" />
<path d="M426844 -10471
L423402 2375
" />
<path d="M423402 2375
L410555 -1067
" />
<path d="M410555 -1067
L413997 -13913
" />
<path d="M413997 -13913
L426844 -10471
" />
<path d="M374569 14861
L371126 27708
" />
<path d="M371126 27708
L358280 24266
" />
<path d="M358280 24266
L361722 11419
" />
<path d="M361722 11419
L374569 14861
" />
<path d="M398986 1734
L395544 14580
" />
<path d="M395544 14580
L382697 11138
" />
<path d="M382697 11138
L386139 -1708
" />
<path d="M386139 -1708
L398986 1734
" />
<path d="M392921 19779
L389479 32626
" />
<path d="M389479 32626
L376632 29183
" />
<path d="M376632 29183
L380075 16337
" />
<path d="M380075 16337
L392921 19779
" />
<path d="M407674 -35278
L404232 -22431
" />
<path d="M404232 -22431
L391385 -25873
" />
<path d="M391385 -25873
L394827 -38720
" />
<path d="M394827 -38720
L407674 -35278
" />
<path d="M408492 -15389
L405049 -2542
" />
<path d="M405049 -2542
L392203 -5984
" />
<path d="M392203 -5984
L395645 -18831
" />
<path d="M395645 -18831
L408492 -15389
" />
<path d="M411274 24696
L407832 37543
" />
<path d="M407832 37543
L394985 34101
" />
<path d="M394985 34101
L398427 21254
" />
<path d="M398427 21254
L411274 24696
" />
<path d="M389321 -40196
L385879 -27349
" />
<path d="M385879 -27349
L373032 -30791
" />
<path d="M373032 -30791
L376475 -43638
" />
<path d="M376475 -43638
L389321 -40196
" />
<path d="M392274 -78745
L388832 -65898
" />
<path d="M388832 -65898
L375985 -69340
" />
<path d="M375985 -69340
L379428 -82187
" />
<path d="M379428 -82187
L392274 -78745
" />
<path d="M338689 15021
L348094 24426
" />
<path d="M348094 24426
L338689 33830
" />
<path d="M338689 33830
L329285 24426
" />
<path d="M329285 24426
L338689 15021
" />
<path d="M332066 -80145
L338716 -91663
" />
<path d="M338716 -91663
L350234 -85013
" />
<path d="M350234 -85013
L343584 -73495
" />
<path d="M343584 -73495
L332066 -80145
" />
<path d="M285132 -23088
L288574 -35935
" />
<path d="M288574 -35935
L301421 -32493
" />
<path d="M301421 -32493
L297978 -19646
" />
<path d="M297978 -19646
L285132 -23088
" />
<path d="M303484 -18170
L306926 -31017
" />
<path d="M306926 -31017
L319773 -27575
" />
<path d="M319773 -27575
L316331 -14728
" />
<path d="M316331 -14728
L303484 -18170
" />
<path d="M264814 -48202
L268257 -61049
" />
<path d="M268257 -61049
L281103 -57607
" />
<path d="M281103 -57607
L277661 -44760
" />
<path d="M277661 -44760
L264814 -48202
" />
<path d="M280214 -4735
L283656 -17582
" />
<path d="M283656 -17582
L296503 -14140
" />
<path d="M296503 -14140
L293061 -1293
" />
<path d="M293061 -1293
L280214 -4735
" />
<path d="M325179 -57845
L328622 -70692
" />
<path d="M328622 -70692
L341468 -67249
" />
<path d="M341468 -67249
L338026 -54402
" />
<path d="M338026 -54402
L325179 -57845
" />
<path d="M266779 -28006
L270221 -40852
" />
<path d="M270221 -40852
L283068 -37410
" />
<path d="M283068 -37410
L279626 -24563
" />
<path d="M279626 -24563
L266779 -28006
" />
<path d="M300702 -58256
L304144 -71103
" />
<path d="M304144 -71103
L316991 -67661
" />
<path d="M316991 -67661
L313549 -54814
" />
<path d="M313549 -54814
L300702 -58256
" />
<path d="M273502 -85215
L276945 -98062
" />
<path d="M276945 -98062
L289791 -94619
" />
<path d="M289791 -94619
L286349 -81773
" />
<path d="M286349 -81773
L273502 -85215
" />
<path d="M276443 13923
L279886 1077
" />
<path d="M279886 1077
L292733 4519
" />
<path d="M292733 4519
L289290 17366
" />
<path d="M289290 17366
L276443 13923
" />
<path d="M261861 -9653
L265304 -22500
" />
<path d="M265304 -22500
L278150 -19058
" />
<path d="M278150 -19058
L274708 -6211
" />
<path d="M274708 -6211
L261861 -9653
" />
<path d="M310208 -75380
L313650 -88226
" />
<path d="M313650 -88226
L326497 -84784
" />
<path d="M326497 -84784
L323054 -71937
" />
<path d="M323054 -71937
L310208 -75380
" />
<path d="M263997 -68092
L267439 -80938
" />
<path d="M267439 -80938
L280286 -77496
" />
<path d="M280286 -77496
L276843 -64649
" />
<path d="M276843 -64649
L263997 -68092
" />
<path d="M316272 -93425
L319714 -106272
" />
<path d="M319714 -106272
L332561 -102829
" />
<path d="M332561 -102829
L329119 -89983
" />
<path d="M329119 -89983
L316272 -93425
" />
<path d="M291855 -80297
L295297 -93144
" />
<path d="M295297 -93144
L308144 -89702
" />
<path d="M308144 -89702
L304702 -76855
" />
<path d="M304702 -76855
L291855 -80297
" />
<path d="M297920 -98342
L301362 -111189
" />
<path d="M301362 -111189
L314209 -107747
" />
<path d="M314209 -107747
L310766 -94900
" />
<path d="M310766 -94900
L297920 -98342
" />
<path d="M283167 -43285
L286609 -56132
" />
<path d="M286609 -56132
L299456 -52689
" />
<path d="M299456 -52689
L296014 -39842
" />
<path d="M296014 -39842
L283167 -43285
" />
<path d="M282349 -63174
L285792 -76021
" />
<path d="M285792 -76021
L298638 -72579
" />
<path d="M298638 -72579
L295196 -59732
" />
<path d="M295196 -59732
L282349 -63174
" />
<path d="M279567 -103260
L283009 -116107
" />
<path d="M283009 -116107
L295856 -112665
" />
<path d="M295856 -112665
L292414 -99818
" />
<path d="M292414 -99818
L279567 -103260
" />
<path d="M301519 -38367
L304962 -51214
" />
<path d="M304962 -51214
L317809 -47772
" />
<path d="M317809 -47772
L314366 -34925
" />
<path d="M314366 -34925
L301519 -38367
" />
<path d="M298567 181
L302009 -12665
" />
<path d="M302009 -12665
L314856 -9222
" />
<path d="M314856 -9222
L311413 3623
" />
<path d="M311413 3623
L298567 181
" />
<path d="M352151 -93585
L342747 -102990
" />
<path d="M342747 -102990
L352151 -112394
" />
<path d="M352151 -112394
L361556 -102990
" />
<path d="M361556 -102990
L352151 -93585
" />
<path d="M239712 -55650
L226412 -55650
" />
<path d="M226412 -55650
L226412 -42350
" />
<path d="M226412 -42350
L239712 -42350
" />
<path d="M239712 -42350
L239712 -55650
" />
<path d="M194587 -93650
L181287 -93650
" />
<path d="M181287 -93650
L181287 -80350
" />
<path d="M181287 -80350
L194587 -80350
" />
<path d="M194587 -80350
L194587 -93650
" />
<path d="M221899 -17650
L208599 -17650
" />
<path d="M208599 -17650
L208599 -4350
" />
<path d="M208599 -4350
L221899 -4350
" />
<path d="M221899 -4350
L221899 -17650
" />
<path d="M232587 -93650
L219287 -93650
" />
<path d="M219287 -93650
L219287 -80350
" />
<path d="M219287 -80350
L232587 -80350
" />
<path d="M232587 -80350
L232587 -93650
" />
<path d="M202900 -17650
L189600 -17650
" />
<path d="M189600 -17650
L189600 -4350
" />
<path d="M189600 -4350
L202900 -4350
" />
<path d="M202900 -4350
L202900 -17650
" />
<path d="M194587 -74650
L181287 -74650
" />
<path d="M181287 -74650
L181287 -61350
" />
<path d="M181287 -61350
L194587 -61350
" />
<path d="M194587 -61350
L194587 -74650
" />
<path d="M245650 -36650
L232350 -36650
" />
<path d="M232350 -36650
L232350 -23350
" />
<path d="M232350 -23350
L245650 -23350
" />
<path d="M245650 -23350
L245650 -36650
" />
<path d="M201712 -55650
L188412 -55650
" />
<path d="M188412 -55650
L188412 -42350
" />
<path d="M188412 -42350
L201712 -42350
" />
<path d="M201712 -42350
L201712 -55650
" />
<path d="M239712 1349
L226412 1349
" />
<path d="M226412 1349
L226412 14649
" />
<path d="M226412 14649
L239712 14649
" />
<path d="M239712 14649
L239712 1349
" />
<path d="M240900 -17650
L227600 -17650
" />
<path d="M227600 -17650
L227600 -4350
" />
<path d="M227600 -4350
L240900 -4350
" />
<path d="M240900 -4350
L240900 -17650
" />
<path d="M183899 -30712
L170599 -30712
" />
<path d="M170599 -30712
L170599 -17412
" />
<path d="M170599 -17412
L183899 -17412
" />
<path d="M183899 -17412
L183899 -30712
" />
<path d="M226650 -36650
L213350 -36650
" />
<path d="M213350 -36650
L213350 -23350
" />
<path d="M213350 -23350
L226650 -23350
" />
<path d="M226650 -23350
L226650 -36650
" />
<path d="M232587 -74650
L219287 -74650
" />
<path d="M219287 -74650
L219287 -61350
" />
<path d="M219287 -61350
L232587 -61350
" />
<path d="M232587 -61350
L232587 -74650
" />
<path d="M213587 -93650
L200287 -93650
" />
<path d="M200287 -93650
L200287 -80350
" />
<path d="M200287 -80350
L213587 -80350
" />
<path d="M213587 -80350
L213587 -93650
" />
<path d="M183019 -7389
L179577 5457
" />
<path d="M179577 5457
L166730 2014
" />
<path d="M166730 2014
L170172 -10832
" />
<path d="M170172 -10832
L183019 -7389
" />
<path d="M212400 -112650
L199100 -112650
" />
<path d="M199100 -112650
L199100 -99350
" />
<path d="M199100 -99350
L212400 -99350
" />
<path d="M212400 -99350
L212400 -112650
" />
<path d="M220712 1349
L207412 1349
" />
<path d="M207412 1349
L207412 14649
" />
<path d="M207412 14649
L220712 14649
" />
<path d="M220712 14649
L220712 1349
" />
<path d="M167097 10790
L178615 17440
" />
<path d="M178615 17440
L171965 28959
" />
<path d="M171965 28959
L160447 22309
" />
<path d="M160447 22309
L167097 10790
" />
<path d="M213587 -74650
L200287 -74650
" />
<path d="M200287 -74650
L200287 -61350
" />
<path d="M200287 -61350
L213587 -61350
" />
<path d="M213587 -61350
L213587 -74650
" />
<path d="M201712 1349
L188412 1349
" />
<path d="M188412 1349
L188412 14649
" />
<path d="M188412 14649
L201712 14649
" />
<path d="M201712 14649
L201712 1349
" />
<path d="M220712 -55650
L207412 -55650
" />
<path d="M207412 -55650
L207412 -42350
" />
<path d="M207412 -42350
L220712 -42350
" />
<path d="M220712 -42350
L220712 -55650
" />
<path d="M207650 -36650
L194350 -36650
" />
<path d="M194350 -36650
L194350 -23350
" />
<path d="M194350 -23350
L207650 -23350
" />
<path d="M207650 -23350
L207650 -36650
" />
<path d="M85475 -4350
L98775 -4350
" />
<path d="M98775 -4350
L98775 -17650
" />
<path d="M98775 -17650
L85475 -17650
" />
<path d="M85475 -17650
L85475 -4350
" />
<path d="M91412 -42350
L104712 -42350
" />
<path d="M104712 -42350
L104712 -55650
" />
<path d="M104712 -55650
L91412 -55650
" />
<path d="M91412 -55650
L91412 -42350
" />
<path d="M116350 -80349
L129650 -80349
" />
<path d="M129650 -80349
L129650 -93649
" />
<path d="M129650 -93649
L116350 -93649
" />
<path d="M116350 -93649
L116350 -80349
" />
<path d="M77162 -61349
L90462 -61349
" />
<path d="M90462 -61349
L90462 -74649
" />
<path d="M90462 -74649
L77162 -74649
" />
<path d="M77162 -74649
L77162 -61349
" />
<path d="M96162 -61349
L109462 -61349
" />
<path d="M109462 -61349
L109462 -74649
" />
<path d="M109462 -74649
L96162 -74649
" />
<path d="M96162 -74649
L96162 -61349
" />
<path d="M104474 -4350
L117774 -4350
" />
<path d="M117774 -4350
L117774 -17650
" />
<path d="M117774 -17650
L104474 -17650
" />
<path d="M104474 -17650
L104474 -4350
" />
<path d="M72412 -42349
L85712 -42349
" />
<path d="M85712 -42349
L85712 -55649
" />
<path d="M85712 -55649
L72412 -55649
" />
<path d="M72412 -55649
L72412 -42349
" />
<path d="M123475 14650
L136775 14650
" />
<path d="M136775 14650
L136775 1350
" />
<path d="M136775 1350
L123475 1350
" />
<path d="M123475 1350
L123475 14650
" />
<path d="M97349 -23349
L110649 -23349
" />
<path d="M110649 -23349
L110649 -36649
" />
<path d="M110649 -36649
L97349 -36649
" />
<path d="M97349 -36649
L97349 -23349
" />
<path d="M105662 33650
L118962 33650
" />
<path d="M118962 33650
L118962 20350
" />
<path d="M118962 20350
L105662 20350
" />
<path d="M105662 20350
L105662 33650
" />
<path d="M134162 -48287
L147462 -48287
" />
<path d="M147462 -48287
L147462 -61587
" />
<path d="M147462 -61587
L134162 -61587
" />
<path d="M134162 -61587
L134162 -48287
" />
<path d="M150965 -89790
L139447 -96440
" />
<path d="M139447 -96440
L146097 -107959
" />
<path d="M146097 -107959
L157615 -101309
" />
<path d="M157615 -101309
L150965 -89790
" />
<path d="M78350 -23350
L91650 -23350
" />
<path d="M91650 -23350
L91650 -36650
" />
<path d="M91650 -36650
L78350 -36650
" />
<path d="M78350 -36650
L78350 -23350
" />
<path d="M123475 -4350
L136775 -4350
" />
<path d="M136775 -4350
L136775 -17650
" />
<path d="M136775 -17650
L123475 -17650
" />
<path d="M123475 -17650
L123475 -4350
" />
<path d="M97350 -80349
L110650 -80349
" />
<path d="M110650 -80349
L110650 -93649
" />
<path d="M110650 -93649
L97350 -93649
" />
<path d="M97350 -93649
L97350 -80349
" />
<path d="M116350 -23349
L129650 -23349
" />
<path d="M129650 -23349
L129650 -36649
" />
<path d="M129650 -36649
L116350 -36649
" />
<path d="M116350 -36649
L116350 -23349
" />
<path d="M115162 -61350
L128462 -61350
" />
<path d="M128462 -61350
L128462 -74650
" />
<path d="M128462 -74650
L115162 -74650
" />
<path d="M115162 -74650
L115162 -61350
" />
<path d="M110412 -42350
L123712 -42350
" />
<path d="M123712 -42350
L123712 -55650
" />
<path d="M123712 -55650
L110412 -55650
" />
<path d="M110412 -55650
L110412 -42350
" />
<path d="M104474 14650
L117774 14650
" />
<path d="M117774 14650
L117774 1350
" />
<path d="M117774 1350
L104474 1350
" />
<path d="M104474 1350
L104474 14650
" />
<path d="M78350 -80349
L91650 -80349
" />
<path d="M91650 -80349
L91650 -93649
" />
<path d="M91650 -93649
L78350 -93649
" />
<path d="M78350 -93649
L78350 -80349
" />
<path d="M85475 14649
L98775 14649
" />
<path d="M98775 14649
L98775 1349
" />
<path d="M98775 1349
L85475 1349
" />
<path d="M85475 1349
L85475 14649
" />
<path d="M135042 -71610
L138485 -84457
" />
<path d="M138485 -84457
L151332 -81014
" />
<path d="M151332 -81014
L147889 -68167
" />
<path d="M147889 -68167
L135042 -71610
" />
<g >
</g>
<g >
</g>
<g >
</g>
<g >
</g>
<g >
</g>
<g >
</g>
<g >
</g>
<g >
</g>
<g >
</g>
<g >
</g>
<g >
</g>
<g >
</g>
<g >
</g>
<g >
</g>
<g >
</g>
<g >
</g>
<g >
</g>
<g >
</g>
<g >
</g>
<g >
</g>
<g >
</g>
<g >
</g>
<g >
</g>
<g >
</g>
<g >
</g>
<g >
</g>
<g >
</g>
<g >
</g>
<g >
</g>
<g >
</g>
<g >
</g>
<g >
</g>
<g >
</g>
<g >
</g>
<g >
</g>
<g >
</g>
<g >
</g>
<g >
</g>
<g >
</g>
<g >
</g>
<g >
</g>
<g >
</g>
<g >
</g>
<g >
</g>
<g >
</g>
<g >
</g>
<g >
</g>
<g >
</g>
<g >
</g>
<g >
</g>
<g >
</g>
<g >
</g>
<g >
</g>
<g >
</g>
<g >
</g>
<g >
</g>
<g >
</g>
<g >
</g>
<g >
</g>
<g >
</g>
<g >
</g>
<g >
</g>
<g >
</g>
<g >
</g>
<g >
</g>
<g >
</g>
<g >
</g>
<g >
</g>
<g >
</g>
<g >
</g>
<g >
</g>
<g >
</g>
<g >
</g>
<g >
</g>
<g >
</g>
<g >
</g>
<g >
</g>
<g >
</g>
<g >
</g>
<g >
</g>
<g >
</g>
<g >
</g>
<g >
</g>
<g >
</g>
<g >
</g>
<g >
</g>
<g >
</g>
<g >
</g>
<g >
</g>
<g >
</g>
<g >
</g>
</g> 
</svg>
