<?xml version="1.0" standalone="no"?>
 <!DOCTYPE svg PUBLIC "-//W3C//DTD SVG 1.1//EN" 
 "http://www.w3.org/Graphics/SVG/1.1/DTD/svg11.dtd"> 
<svg
  xmlns:svg="http://www.w3.org/2000/svg"
  xmlns="http://www.w3.org/2000/svg"
  xmlns:xlink="http://www.w3.org/1999/xlink"
  version="1.1"
  width="29.700220cm" height="21.000720cm" viewBox="0 0 297002 210007">
<title>SVG Picture created as jantor-Edge_Cuts.svg date 2023/01/01 14:36:05 </title>
  <desc>Picture generated by PCBNEW </desc>
<g style="fill:#000000; fill-opacity:1.000000;stroke:#000000; stroke-opacity:1.000000;
stroke-linecap:round; stroke-linejoin:round;"
 transform="translate(0 0) scale(1 1)">
</g>
<g style="fill:#000000; fill-opacity:0.0; 
stroke:#000000; stroke-width:0.000000; stroke-opacity:1; 
stroke-linecap:round; stroke-linejoin:round;">
</g>
<g style="fill:#000000; fill-opacity:0.0; 
stroke:#000000; stroke-width:100.000000; stroke-opacity:1; 
stroke-linecap:round; stroke-linejoin:round;">
<path d="M70500 145500
L70500 141500
" />
<path d="M27500.000000 151500.000000 A1500.000000 1500.000000 0.0 0 0 29000.000000 153000.000000" />
<path d="M-16499.997000 88999.999000 A1499.996000 1499.996000 0.0 0 0 -15000.000000 90499.998000" />
<path d="M49999.998000 152999.998000 A1499.999000 1499.999000 0.0 0 0 51500.000000 151500.000000" />
<path d="M-8500 148000
L-8500 92000
" />
<path d="M27500 151000
L27500 151500
" />
</g>
<g style="fill:#000000; fill-opacity:1.0; 
stroke:#000000; stroke-width:0.001000; stroke-opacity:1; 
stroke-linecap:round; stroke-linejoin:round;">
<circle cx="-32500.002000" cy="79500.000000" r="50.000000" /> 
</g>
<g style="fill:#000000; fill-opacity:1.0; 
stroke:#000000; stroke-width:100.000000; stroke-opacity:1; 
stroke-linecap:round; stroke-linejoin:round;">
</g>
<g style="fill:#000000; fill-opacity:0.0; 
stroke:#000000; stroke-width:100.000000; stroke-opacity:1; 
stroke-linecap:round; stroke-linejoin:round;">
<path d="M26000 149499
L-7000 149500
" />
<path d="M27500.006000 151000.000000 A1500.004000 1500.004000 0.0 0 0 26000.001000 149499.998000" />
<path d="M110000.000000 94000.000000 A1499.999000 1499.999000 0.0 0 0 111500.000000 95499.998000" />
<path d="M108500 78000
L48500 78000
" />
<path d="M51500 151500
L51500 148500
" />
<path d="M53000 147000
L69000 147000
" />
<path d="M69000.001000 147000.000000 A1500.000000 1500.000000 0.0 0 0 70500.000000 145500.000000" />
<path d="M110000 94000
L110000 79500
" />
<path d="M46999 153000
L49999 152999
" />
<path d="M-16499.996000 82500.000000 A1500.002000 1500.002000 0.0 0 0 -17999.998000 80999.998000" />
<path d="M-17999 80999
L-24031 80999
" />
<path d="M-9999 90500
L-15000 90499
" />
<path d="M128999.999000 97000.001000 A1499.999000 1499.999000 0.0 0 0 127500.000000 95500.001000" />
<path d="M45500 67000
L21999 67000
" />
<path d="M-31999.999680 74500.000240 A2499.998000 2499.998000 0.0 0 0 -32500.000000 75999.998000" />
<path d="M-32000 74500
L-14500 54499
" />
<path d="M-12051.316361 54102.631722 A2121.322000 2121.322000 0.0 0 0 -14500.000171 54499.997829" />
<path d="M47000 76500
L47000 68500
" />
<path d="M110000.001000 79500.000000 A1499.999000 1499.999000 0.0 0 0 108500.000000 78000.000000" />
<path d="M-31000 81000
L-24031 80999
" />
<path d="M-8499.999000 148000.002000 A1500.000000 1500.000000 0.0 0 0 -7000.001000 149500.001000" />
<path d="M111499 120000
L127500 120000
" />
<path d="M46999.999000 68500.001000 A1499.999000 1499.999000 0.0 0 0 45500.002000 67000.001000" />
<path d="M-8500.000000 92000.000000 A1500.000000 1500.000000 0.0 0 0 -9999.998000 90500.000000" />
<path d="M110000 138499
L110000 121500
" />
<path d="M72000 140000
L108500 140000
" />
<path d="M127500.000000 120000.000000 A1500.000000 1500.000000 0.0 0 0 129000.000000 118500.000000" />
<path d="M108500.000000 140000.003000 A1500.003000 1500.003000 0.0 0 0 110000.001000 138499.998000" />
<path d="M29000 153000
L46999 153000
" />
<path d="M129000 118500
L129000 97000
" />
<path d="M20881 66736
L-12051 54102
" />
<path d="M72000.000000 140000.002000 A1499.999000 1499.999000 0.0 0 0 70500.000000 141500.000000" />
<path d="M20881.965222 66736.069555 A2500.004000 2500.004000 0.0 0 0 21999.999000 67000.002000" />
<path d="M-32500.002000 79500.000000 A1500.003000 1500.003000 0.0 0 0 -31000.000000 81000.001000" />
<path d="M111499.999000 120000.001000 A1499.998000 1499.998000 0.0 0 0 110000.000000 121500.000000" />
<path d="M127500 95500
L111500 95499
" />
<path d="M47000.000000 76500.000000 A1500.000000 1500.000000 0.0 0 0 48500.000000 78000.000000" />
<path d="M-16500 88999
L-16500 82500
" />
<path d="M-32500 79500
L-32500 75999
" />
<path d="M53000.000000 147000.001000 A1500.000000 1500.000000 0.0 0 0 51500.000000 148500.000000" />
<path d="M129000 48500
L129000 52000
" />
<path d="M43500.000000 -19000.000000 A1500.000000 1500.000000 0.0 0 0 45000.000000 -20500.000000" />
<path d="M113000 39000
L113000 45500
" />
<path d="M49500.000000 51500.000000 A1500.000000 1500.000000 0.0 0 0 48000.000000 50000.000000" />
<path d="M-31000 32500
L-15000 32500
" />
<path d="M-15000.000000 8000.000000 A1499.997000 1499.997000 0.0 0 0 -13500.000000 6500.000000" />
<path d="M129000.000000 48500.000000 A1500.000000 1500.000000 0.0 0 0 127500.000000 47000.000000" />
<path d="M75618.033989 61263.932023 A2500.000000 2500.000000 0.0 0 0 74500.000000 61000.000000" />
<path d="M24500.000000 -12000.000000 A1500.000000 1500.000000 0.0 0 0 26000.000000 -13500.000000" />
<path d="M75618 61263
L108551 73897
" />
<path d="M-32500 9500
L-32500 31000
" />
<path d="M-12000.000000 -12000.000000 A1500.002000 1500.002000 0.0 0 0 -13500.000000 -10500.000000" />
<path d="M-31000.000000 8000.000000 A1500.002000 1500.002000 0.0 0 0 -32500.000000 9500.000000" />
<path d="M24500 -12000
L-12000 -12000
" />
<path d="M-13500 -10500
L-13500 6500
" />
<path d="M105000.000000 36000.000000 A1500.000000 1500.000000 0.0 0 0 106500.000000 37500.000000" />
<path d="M49500.000000 59500.000000 A1500.000000 1500.000000 0.0 0 0 51000.000000 61000.000000" />
<path d="M-15000 8000
L-31000 8000
" />
<path d="M105000.000000 -20000.000000 A1500.000000 1500.000000 0.0 0 0 103500.000000 -21500.000000" />
<path d="M127500 47000
L120531 47000
" />
<path d="M-13500.000000 48500.000000 A1500.001000 1500.001000 0.0 0 0 -12000.000000 50000.000000" />
<path d="M49500 51500
L49500 59500
" />
<path d="M108551.316856 73897.366289 A2121.320000 2121.320000 0.0 0 0 110999.999757 73499.999757" />
<path d="M128500 53500
L111000 73500
" />
<path d="M128500.000000 53500.000000 A2500.000000 2500.000000 0.0 0 0 129000.000000 52000.000000" />
<path d="M51000 61000
L74500 61000
" />
<path d="M-32500.000000 31000.000000 A1500.001000 1500.001000 0.0 0 0 -31000.000000 32500.000000" />
<path d="M106500 37500
L111500 37500
" />
<path d="M114500 47000
L120531 47000
" />
<path d="M113000.000000 45500.000000 A1500.000000 1500.000000 0.0 0 0 114500.000000 47000.000000" />
<path d="M49500 -25000
L46500 -25000
" />
<path d="M-13500 34000
L-13500 48500
" />
<path d="M27500.000000 -19000.000000 A1500.000000 1500.000000 0.0 0 0 26000.000000 -17500.000000" />
<path d="M43500 -19000
L27500 -19000
" />
<path d="M45000 -23500
L45000 -20500
" />
<path d="M-12000 50000
L48000 50000
" />
<path d="M-13500.000000 34000.000000 A1500.001000 1500.001000 0.0 0 0 -15000.000000 32500.000000" />
<path d="M69000.000000 -23000.000000 A1500.000000 1500.000000 0.0 0 0 70500.000000 -21500.000000" />
<path d="M70500 -21500
L103500 -21500
" />
</g>
<g style="fill:#000000; fill-opacity:1.0; 
stroke:#000000; stroke-width:0.001000; stroke-opacity:1; 
stroke-linecap:round; stroke-linejoin:round;">
<circle cx="129000.000000" cy="48500.000000" r="50.000000" /> 
</g>
<g style="fill:#000000; fill-opacity:1.0; 
stroke:#000000; stroke-width:100.000000; stroke-opacity:1; 
stroke-linecap:round; stroke-linejoin:round;">
</g>
<g style="fill:#000000; fill-opacity:0.0; 
stroke:#000000; stroke-width:100.000000; stroke-opacity:1; 
stroke-linecap:round; stroke-linejoin:round;">
<path d="M69000 -23000
L69000 -23500
" />
<path d="M105000 -20000
L105000 36000
" />
<path d="M46500.000000 -25000.000000 A1500.000000 1500.000000 0.0 0 0 45000.000000 -23500.000000" />
<path d="M67500 -25000
L49500 -25000
" />
<path d="M113000.000000 39000.000000 A1500.000000 1500.000000 0.0 0 0 111500.000000 37500.000000" />
<path d="M69000.000000 -23500.000000 A1500.000000 1500.000000 0.0 0 0 67500.000000 -25000.000000" />
<path d="M26000 -17500
L26000 -13500
" />
</g>
<g style="fill:#000000; fill-opacity:0.0; 
stroke:#000000; stroke-width:120.000000; stroke-opacity:1; 
stroke-linecap:round; stroke-linejoin:round;">
<path d="M122150 114462
L108850 114462
" />
<path d="M108850 114462
L108850 101162
" />
<path d="M108850 101162
L122150 101162
" />
<path d="M122150 101162
L122150 114462
" />
<path d="M-1290 69159
L-7940 80677
" />
<path d="M-7940 80677
L-19459 74027
" />
<path d="M-19459 74027
L-12809 62509
" />
<path d="M-12809 62509
L-1290 69159
" />
<path d="M84150 115649
L70850 115649
" />
<path d="M70850 115649
L70850 102349
" />
<path d="M70850 102349
L84150 102349
" />
<path d="M84150 102349
L84150 115649
" />
<path d="M84150 134649
L70850 134649
" />
<path d="M70850 134649
L70850 121349
" />
<path d="M70850 121349
L84150 121349
" />
<path d="M84150 121349
L84150 134649
" />
<path d="M65150 103775
L51850 103775
" />
<path d="M51850 103775
L51850 90475
" />
<path d="M51850 90475
L65150 90475
" />
<path d="M65150 90475
L65150 103775
" />
<path d="M8150 103775
L-5150 103775
" />
<path d="M-5150 103775
L-5150 90475
" />
<path d="M-5150 90475
L8150 90475
" />
<path d="M8150 90475
L8150 103775
" />
<path d="M27150 142962
L13850 142962
" />
<path d="M13850 142962
L13850 129662
" />
<path d="M13850 129662
L27150 129662
" />
<path d="M27150 129662
L27150 142962
" />
<path d="M103150 134650
L89850 134650
" />
<path d="M89850 134650
L89850 121350
" />
<path d="M89850 121350
L103150 121350
" />
<path d="M103150 121350
L103150 134650
" />
<path d="M27150 123962
L13850 123962
" />
<path d="M13850 123962
L13850 110662
" />
<path d="M13850 110662
L27150 110662
" />
<path d="M27150 110662
L27150 123962
" />
<path d="M16889 85082
L4042 81639
" />
<path d="M4042 81639
L7485 68792
" />
<path d="M7485 68792
L20332 72235
" />
<path d="M20332 72235
L16889 85082
" />
<path d="M65149 141774
L51849 141774
" />
<path d="M51849 141774
L51849 128474
" />
<path d="M51849 128474
L65149 128474
" />
<path d="M65149 128474
L65149 141774
" />
<path d="M103150 96650
L89850 96650
" />
<path d="M89850 96650
L89850 83350
" />
<path d="M89850 83350
L103150 83350
" />
<path d="M103150 83350
L103150 96650
" />
<path d="M84150 96650
L70850 96650
" />
<path d="M70850 96650
L70850 83350
" />
<path d="M70850 83350
L84150 83350
" />
<path d="M84150 83350
L84150 96650
" />
<path d="M65149 122774
L51849 122774
" />
<path d="M51849 122774
L51849 109474
" />
<path d="M51849 109474
L65149 109474
" />
<path d="M65149 109474
L65149 122774
" />
<path d="M40212 85962
L26912 85962
" />
<path d="M26912 85962
L26912 72662
" />
<path d="M26912 72662
L40212 72662
" />
<path d="M40212 72662
L40212 85962
" />
<path d="M46149 147712
L32849 147712
" />
<path d="M32849 147712
L32849 134412
" />
<path d="M32849 134412
L46149 134412
" />
<path d="M46149 134412
L46149 147712
" />
<path d="M46150 128712
L32850 128712
" />
<path d="M32850 128712
L32850 115412
" />
<path d="M32850 115412
L46150 115412
" />
<path d="M46150 115412
L46150 128712
" />
<path d="M27149 104962
L13849 104962
" />
<path d="M13849 104962
L13849 91662
" />
<path d="M13849 91662
L27149 91662
" />
<path d="M27149 91662
L27149 104962
" />
<path d="M46150 109712
L32850 109712
" />
<path d="M32850 109712
L32850 96412
" />
<path d="M32850 96412
L46150 96412
" />
<path d="M46150 96412
L46150 109712
" />
<path d="M8150 122775
L-5149 122775
" />
<path d="M-5149 122775
L-5149 109475
" />
<path d="M-5149 109475
L8150 109475
" />
<path d="M8150 109475
L8150 122775
" />
<path d="M8150 141774
L-5150 141774
" />
<path d="M-5150 141774
L-5150 128474
" />
<path d="M-5150 128474
L8150 128474
" />
<path d="M8150 128474
L8150 141774
" />
<path d="M103150 115650
L89850 115650
" />
<path d="M89850 115650
L89850 102350
" />
<path d="M89850 102350
L103150 102350
" />
<path d="M103150 102350
L103150 115650
" />
<path d="M88350 5225
L101650 5225
" />
<path d="M101650 5225
L101650 18525
" />
<path d="M101650 18525
L88350 18525
" />
<path d="M88350 18525
L88350 5225
" />
<path d="M50350 18287
L63650 18287
" />
<path d="M63650 18287
L63650 31587
" />
<path d="M63650 31587
L50350 31587
" />
<path d="M50350 31587
L50350 18287
" />
<path d="M69350 23037
L82650 23037
" />
<path d="M82650 23037
L82650 36337
" />
<path d="M82650 36337
L69350 36337
" />
<path d="M69350 36337
L69350 23037
" />
<path d="M50350 -712
L63650 -712
" />
<path d="M63650 -712
L63650 12587
" />
<path d="M63650 12587
L50350 12587
" />
<path d="M50350 12587
L50350 -712
" />
<path d="M50350 -19712
L63650 -19712
" />
<path d="M63650 -19712
L63650 -6412
" />
<path d="M63650 -6412
L50350 -6412
" />
<path d="M50350 -6412
L50350 -19712
" />
<path d="M-6650 12350
L6650 12350
" />
<path d="M6650 12350
L6650 25650
" />
<path d="M6650 25650
L-6650 25650
" />
<path d="M-6650 25650
L-6650 12350
" />
<path d="M88350 -13775
L101650 -13775
" />
<path d="M101650 -13775
L101650 -475
" />
<path d="M101650 -475
L88350 -475
" />
<path d="M88350 -475
L88350 -13775
" />
<path d="M31350 5225
L44650 5225
" />
<path d="M44650 5225
L44650 18525
" />
<path d="M44650 18525
L31350 18525
" />
<path d="M31350 18525
L31350 5225
" />
<path d="M56287 42037
L69587 42037
" />
<path d="M69587 42037
L69587 55337
" />
<path d="M69587 55337
L56287 55337
" />
<path d="M56287 55337
L56287 42037
" />
<path d="M12350 12350
L25650 12350
" />
<path d="M25650 12350
L25650 25650
" />
<path d="M25650 25650
L12350 25650
" />
<path d="M12350 25650
L12350 12350
" />
<path d="M12350 31350
L25650 31350
" />
<path d="M25650 31350
L25650 44650
" />
<path d="M25650 44650
L12350 44650
" />
<path d="M12350 44650
L12350 31350
" />
<path d="M-6650 31350
L6650 31350
" />
<path d="M6650 31350
L6650 44650
" />
<path d="M6650 44650
L-6650 44650
" />
<path d="M-6650 44650
L-6650 31350
" />
<path d="M31350 -13775
L44650 -13775
" />
<path d="M44650 -13775
L44650 -475
" />
<path d="M44650 -475
L31350 -475
" />
<path d="M31350 -475
L31350 -13775
" />
<path d="M97790 58840
L104440 47322
" />
<path d="M104440 47322
L115959 53972
" />
<path d="M115959 53972
L109309 65490
" />
<path d="M109309 65490
L97790 58840
" />
<path d="M-25650 13537
L-12350 13537
" />
<path d="M-12350 13537
L-12350 26837
" />
<path d="M-12350 26837
L-25650 26837
" />
<path d="M-25650 26837
L-25650 13537
" />
<path d="M79610 42917
L92457 46360
" />
<path d="M92457 46360
L89014 59207
" />
<path d="M89014 59207
L76167 55764
" />
<path d="M76167 55764
L79610 42917
" />
<path d="M69350 4037
L82650 4037
" />
<path d="M82650 4037
L82650 17337
" />
<path d="M82650 17337
L69350 17337
" />
<path d="M69350 17337
L69350 4037
" />
<path d="M-6650 -6650
L6650 -6650
" />
<path d="M6650 -6650
L6650 6650
" />
<path d="M6650 6650
L-6650 6650
" />
<path d="M-6650 6650
L-6650 -6650
" />
<path d="M69350 -14962
L82650 -14962
" />
<path d="M82650 -14962
L82650 -1662
" />
<path d="M82650 -1662
L69350 -1662
" />
<path d="M69350 -1662
L69350 -14962
" />
<path d="M88350 24225
L101650 24225
" />
<path d="M101650 24225
L101650 37525
" />
<path d="M101650 37525
L88350 37525
" />
<path d="M88350 37525
L88350 24225
" />
<path d="M31350 24225
L44650 24225
" />
<path d="M44650 24225
L44650 37525
" />
<path d="M44650 37525
L31350 37525
" />
<path d="M31350 37525
L31350 24225
" />
<path d="M12350 -6650
L25650 -6650
" />
<path d="M25650 -6650
L25650 6650
" />
<path d="M25650 6650
L12350 6650
" />
<path d="M12350 6650
L12350 -6650
" />
<g >
</g>
<g >
</g>
<g >
</g>
<g >
</g>
<g >
</g>
<g >
</g>
<g >
</g>
<g >
</g>
<g >
</g>
<g >
</g>
<g >
</g>
<g >
</g>
<g >
</g>
<g >
</g>
<g >
</g>
<g >
</g>
<g >
</g>
<g >
</g>
<g >
</g>
<g >
</g>
<g >
</g>
<g >
</g>
<g >
</g>
<g >
</g>
<g >
</g>
<g >
</g>
<g >
</g>
<g >
</g>
<g >
</g>
<g >
</g>
<g >
</g>
<g >
</g>
<g >
</g>
<g >
</g>
<g >
</g>
<g >
</g>
<g >
</g>
<g >
</g>
<g >
</g>
<g >
</g>
<g >
</g>
<g >
</g>
<g >
</g>
<g >
</g>
<g >
</g>
<g >
</g>
<g >
</g>
</g> 
</svg>
