<?xml version="1.0" standalone="no"?>
 <!DOCTYPE svg PUBLIC "-//W3C//DTD SVG 1.1//EN" 
 "http://www.w3.org/Graphics/SVG/1.1/DTD/svg11.dtd"> 
<svg
  xmlns:svg="http://www.w3.org/2000/svg"
  xmlns="http://www.w3.org/2000/svg"
  xmlns:xlink="http://www.w3.org/1999/xlink"
  version="1.1"
  width="29.700220cm" height="21.000720cm" viewBox="0 0 297002200 210007200">
<title>SVG Picture created as jantor-Edge_Cuts.svg date 2023/01/01 11:47:35 </title>
  <desc>Picture generated by PCBNEW </desc>
<g style="fill:#000000; fill-opacity:1.000000;stroke:#000000; stroke-opacity:1.000000;
stroke-linecap:round; stroke-linejoin:round;"
 transform="translate(0 0) scale(1 1)">
</g>
<g style="fill:#000000; fill-opacity:0.0; 
stroke:#000000; stroke-width:0.000000; stroke-opacity:1; 
stroke-linecap:round; stroke-linejoin:round;">
</g>
<g style="fill:#000000; fill-opacity:0.0; 
stroke:#000000; stroke-width:100000.000000; stroke-opacity:1; 
stroke-linecap:round; stroke-linejoin:round;">
<path d="M131000000.424167 50500000.379462 A7867104.000000 7867104.000000 0.0 0 0 133000000.441804 45500000.013783" />
<path d="M133000000 -20000000
L133000000 45500000
" />
<path d="M26000000 -17500000
L26000000 -13500000
" />
<path d="M69000000.000000 -23500000.000000 A1500000.000000 1500000.000000 0.0 0 0 67500000.000000 -25000000.000000" />
<path d="M46500000.000000 -25000000.000000 A1500000.000000 1500000.000000 0.0 0 0 45000000.000000 -23500000.000000" />
<path d="M69000000 -23000000
L69000000 -23500000
" />
<path d="M70500000 -21500000
L131500000 -21500000
" />
<path d="M69000000.000000 -23000000.000000 A1500000.000000 1500000.000000 0.0 0 0 70500000.000000 -21500000.000000" />
<path d="M-13500000.000000 34000000.000000 A1500001.000000 1500001.000000 0.0 0 0 -15000000.000000 32500000.000000" />
<path d="M-12000000 50000000
L48000000 50000000
" />
<path d="M45000000 -23500000
L45000000 -20500000
" />
<path d="M43500000 -19000000
L27500000 -19000000
" />
<path d="M27500000.000000 -19000000.000000 A1500000.000000 1500000.000000 0.0 0 0 26000000.000000 -17500000.000000" />
<path d="M-13500000 34000000
L-13500000 48500000
" />
<path d="M49500000 -25000000
L46500000 -25000000
" />
<path d="M-32500000.000000 31000000.000000 A1500001.000000 1500001.000000 0.0 0 0 -31000000.000000 32500000.000000" />
<path d="M51000000 61000000
L74500000 61000000
" />
<path d="M131000000 50500000
L111000000 73500000
" />
<path d="M108551316.855594 73897366.288812 A2121320.000000 2121320.000000 0.0 0 0 110999999.757067 73499999.757067" />
<path d="M49500000 51500000
L49500000 59500000
" />
<path d="M-13500000.000000 48500000.000000 A1500001.000000 1500001.000000 0.0 0 0 -12000000.000000 50000000.000000" />
<path d="M133000000.000000 -20000000.000000 A1500000.000000 1500000.000000 0.0 0 0 131500000.000000 -21500000.000000" />
<path d="M-15000000 8000000
L-31000000 8000000
" />
<path d="M49500000.000000 59500000.000000 A1500000.000000 1500000.000000 0.0 0 0 51000000.000000 61000000.000000" />
<path d="M-13500000 -10500000
L-13500000 6500000
" />
<path d="M24500000 -12000000
L-12000000 -12000000
" />
<path d="M-31000000.000000 8000000.000001 A1500002.000000 1500002.000000 0.0 0 0 -32499999.999999 9500000.000000" />
<path d="M-12000000.000000 -11999999.999999 A1500002.000000 1500002.000000 0.0 0 0 -13499999.999999 -10500000.000000" />
<path d="M67500000 -25000000
L49500000 -25000000
" />
<path d="M-32500000 9500000
L-32500000 31000000
" />
<path d="M75618034 61263932
L108551317 73897366
" />
<path d="M24500000.000000 -12000000.000000 A1500000.000000 1500000.000000 0.0 0 0 26000000.000000 -13500000.000000" />
<path d="M75618033.988750 61263932.022500 A2500000.000000 2500000.000000 0.0 0 0 74500000.000000 61000000.000000" />
<path d="M49500000.000000 51500000.000000 A1500000.000000 1500000.000000 0.0 0 0 48000000.000000 50000000.000000" />
<path d="M-15000000.000000 7999999.999997 A1499997.000000 1499997.000000 0.0 0 0 -13500000.000003 6500000.000000" />
<path d="M43500000.000000 -19000000.000000 A1500000.000000 1500000.000000 0.0 0 0 45000000.000000 -20500000.000000" />
<path d="M-31000000 32500000
L-15000000 32500000
" />
<path d="M128843699.981051 -16031250.012638 A593600.000000 593600.000000 0.0 0 0 128250000.000001 -16624999.991577" />
<path d="M-27609374.999999 27015625.000000 A593749.000000 593749.000000 0.0 0 0 -27015625.000000 27609374.999999" />
<path d="M29984375.000000 -7421875.000001 A593749.000000 593749.000000 0.0 0 0 30578124.999999 -8015625.000000" />
<path d="M120531250 47203125
L109250000 66796875
" />
<path d="M74812500 56109375
L54921875 56109375
" />
<path d="M128250000 47203125
L120531250 47203125
" />
<path d="M64421875.000001 -17218750.000000 A593749.000000 593749.000000 0.0 0 0 65015625.000000 -16625000.000001" />
<path d="M49578125 -15140625
L49578125 -19890625
" />
<path d="M50171875 -20484375
L63828125 -20484375
" />
<path d="M64421875 -19890625
L64421875 -17218750
" />
<path d="M128250000.000000 47203050.000000 A593750.000000 593750.000000 0.0 0 0 128843749.995263 46609374.999999" />
<path d="M-27015625 12765625
L-9203125 12765625
" />
<path d="M27609375 44828125
L27609375 38890625
" />
<path d="M30578125 -8015625
L30578125 -13953125
" />
<path d="M-8015625.000000 -7421874.999999 A593749.000000 593749.000000 0.0 0 0 -8609374.999999 -6828125.000000" />
<path d="M64421874.999999 -19890625.000000 A593749.000000 593749.000000 0.0 0 0 63828125.000000 -20484374.999999" />
<path d="M31171875 -14546875
L48984375 -14546875
" />
<path d="M54328125.000001 55515625.000000 A593749.000000 593749.000000 0.0 0 0 54921875.000000 56109374.999999" />
<path d="M109250000 66796875
L74812500 56109375
" />
<path d="M128843750 -16031250
L128843750 46609375
" />
<path d="M-8609375 12171875
L-8609375 -6828125
" />
<path d="M28203125.000000 38296875.000001 A593749.000000 593749.000000 0.0 0 0 27609375.000001 38890625.000000" />
<path d="M-27015625 27609375
L-9203125 27609375
" />
<path d="M-8609375 44828125
L-8609375 28203125
" />
<path d="M48984375.000000 -14546875.000001 A593749.000000 593749.000000 0.0 0 0 49578124.999999 -15140625.000000" />
<path d="M31171875.000000 -14546874.999999 A593749.000000 593749.000000 0.0 0 0 30578125.000001 -13953125.000000" />
<path d="M53734375 38296875
L28203125 38296875
" />
<path d="M-8015625 45421875
L-3562500 45421875
" />
<path d="M-9203125.000000 12765624.999999 A593749.000000 593749.000000 0.0 0 0 -8609375.000001 12171875.000000" />
<path d="M54328125 55515625
L54328125 38890625
" />
<path d="M27015625.000000 45421874.999999 A593749.000000 593749.000000 0.0 0 0 27609374.999999 44828125.000000" />
<path d="M50171875.000000 -20484374.999999 A593749.000000 593749.000000 0.0 0 0 49578125.000001 -19890625.000000" />
<path d="M54328124.999999 38890625.000000 A593749.000000 593749.000000 0.0 0 0 53734375.000000 38296875.000001" />
<path d="M-8609375.000001 28203125.000000 A593749.000000 593749.000000 0.0 0 0 -9203125.000000 27609375.000001" />
<path d="M-27609375 13359375
L-27609375 27015625
" />
<path d="M-27015625.000000 12765625.000001 A593749.000000 593749.000000 0.0 0 0 -27609374.999999 13359375.000000" />
<path d="M-3562500 45421875
L27015625 45421875
" />
<path d="M-8609374.999999 44828125.000000 A593749.000000 593749.000000 0.0 0 0 -8015625.000000 45421874.999999" />
<path d="M-8015625 -7421875
L29984375 -7421875
" />
<path d="M128250000 -16625000
L65015625 -16625000
" />
<g >
</g>
<g >
</g>
<g >
</g>
</g> 
</svg>
