<?xml version="1.0" standalone="no"?>
 <!DOCTYPE svg PUBLIC "-//W3C//DTD SVG 1.1//EN" 
 "http://www.w3.org/Graphics/SVG/1.1/DTD/svg11.dtd"> 
<svg
  xmlns:svg="http://www.w3.org/2000/svg"
  xmlns="http://www.w3.org/2000/svg"
  xmlns:xlink="http://www.w3.org/1999/xlink"
  version="1.1"
  width="29.700220cm" height="21.000720cm" viewBox="0 0 297002200 210007200">
<title>SVG Picture created as jantor-Edge_Cuts.svg date 2022/12/31 21:32:06 </title>
  <desc>Picture generated by PCBNEW </desc>
<g style="fill:#000000; fill-opacity:1.000000;stroke:#000000; stroke-opacity:1.000000;
stroke-linecap:round; stroke-linejoin:round;"
 transform="translate(0 0) scale(1 1)">
</g>
<g style="fill:#000000; fill-opacity:0.0; 
stroke:#000000; stroke-width:0.000000; stroke-opacity:1; 
stroke-linecap:round; stroke-linejoin:round;">
</g>
<g style="fill:#000000; fill-opacity:0.0; 
stroke:#000000; stroke-width:100000.000000; stroke-opacity:1; 
stroke-linecap:round; stroke-linejoin:round;">
<path d="M128500000.000000 53500000.000000 A2500000.000000 2500000.000000 0.0 0 0 129000000.000000 52000000.000000" />
<path d="M75618033.988750 61263932.022500 A2500000.000000 2500000.000000 0.0 0 0 74500000.000000 61000000.000000" />
<path d="M108551316.855594 73897366.288812 A2121320.000000 2121320.000000 0.0 0 0 110999999.757067 73499999.757067" />
<path d="M129000000 48500000
L129000000 52000000
" />
<path d="M129000000.000000 48500000.000000 A1500001.000000 1500001.000000 0.0 0 0 127500000.000000 47000000.000000" />
<path d="M113000000.000000 45500000.000000 A1499999.000000 1499999.000000 0.0 0 0 114500000.000000 47000000.000000" />
<path d="M113000000.000000 39000000.000000 A1500001.000000 1500001.000000 0.0 0 0 111500000.000000 37500000.000000" />
<path d="M105000000.000000 36000000.000000 A1499999.000000 1499999.000000 0.0 0 0 106500000.000000 37500000.000000" />
<path d="M49500000.000000 59500000.000000 A1499999.000000 1499999.000000 0.0 0 0 51000000.000000 61000000.000000" />
<path d="M49500000.000000 51500000.000000 A1500001.000000 1500001.000000 0.0 0 0 48000000.000000 50000000.000000" />
<path d="M-13500000.000000 48500000.000000 A1499999.000000 1499999.000000 0.0 0 0 -12000000.000000 50000000.000000" />
<path d="M-32500000.000000 31000000.000000 A1499999.000000 1499999.000000 0.0 0 0 -31000000.000000 32500000.000000" />
<path d="M-13500000.000000 34000000.000000 A1500001.000000 1500001.000000 0.0 0 0 -15000000.000000 32500000.000000" />
<path d="M-31000000.000001 8000002.000000 A1499999.000000 1499999.000000 0.0 0 0 -32500000.000000 9500000.000000" />
<path d="M-14999999.999999 8000002.000000 A1500001.000000 1500001.000000 0.0 0 0 -13500000.000000 6500000.000000" />
<path d="M-12000000.000001 -11999998.000000 A1499999.000000 1499999.000000 0.0 0 0 -13500000.000000 -10500000.000000" />
<path d="M24500000.000001 -11999998.000000 A1500001.000000 1500001.000000 0.0 0 0 26000000.000000 -13500000.000000" />
<path d="M27499999.999999 -18999998.000000 A1499999.000000 1499999.000000 0.0 0 0 26000000.000000 -17500000.000000" />
<path d="M43500000.000001 -18999998.000000 A1500001.000000 1500001.000000 0.0 0 0 45000000.000000 -20500000.000000" />
<path d="M105000000.000000 -20000000.000000 A1500001.000000 1500001.000000 0.0 0 0 103500000.000000 -21500000.000000" />
<path d="M69000000.000000 -23000000.000000 A1499999.000000 1499999.000000 0.0 0 0 70500000.000000 -21500000.000000" />
<path d="M46499999.999999 -24999998.000000 A1499999.000000 1499999.000000 0.0 0 0 45000000.000000 -23500000.000000" />
<path d="M69000000.000000 -23500000.000000 A1500000.000000 1500000.000000 0.0 0 0 67500000.000000 -25000000.000000" />
<path d="M127500000 47000000
L120531250 47000000
" />
</g>
<g style="fill:#000000; fill-opacity:1.0; 
stroke:#000000; stroke-width:1.000000; stroke-opacity:1; 
stroke-linecap:round; stroke-linejoin:round;">
<circle cx="129000000.000000" cy="48500000.000000" r="50000.000000" /> 
</g>
<g style="fill:#000000; fill-opacity:1.0; 
stroke:#000000; stroke-width:100000.000000; stroke-opacity:1; 
stroke-linecap:round; stroke-linejoin:round;">
</g>
<g style="fill:#000000; fill-opacity:0.0; 
stroke:#000000; stroke-width:100000.000000; stroke-opacity:1; 
stroke-linecap:round; stroke-linejoin:round;">
<path d="M128500000 53500000
L111000000 73500000
" />
<path d="M114500000 47000000
L120531250 47000000
" />
<path d="M113000000 39000000
L113000000 45500000
" />
<path d="M106500000 37500000
L111500000 37500000
" />
<path d="M105000000 -20000000
L105000000 36000000
" />
<path d="M75618034 61263932
L108551317 73897366
" />
<path d="M51000000 61000000
L74500000 61000000
" />
<path d="M49500000 51500000
L49500000 59500000
" />
<path d="M-12000000 50000000
L48000000 50000000
" />
<path d="M-13500000 34000000
L-13500000 48500000
" />
<path d="M-31000000 32500000
L-15000000 32500000
" />
<path d="M-32500000 9500000
L-32500000 31000000
" />
<path d="M-15000000 8000000
L-31000000 8000000
" />
<path d="M-13500000 -10500000
L-13500000 6500000
" />
<path d="M24500000 -12000000
L-12000000 -12000000
" />
<path d="M26000000 -17500000
L26000000 -13500000
" />
<path d="M43500000 -19000000
L27500000 -19000000
" />
<path d="M45000000 -23500000
L45000000 -20500000
" />
<path d="M49500000 -25000000
L46500000 -25000000
" />
<path d="M67500000 -25000000
L49500000 -25000000
" />
<path d="M69000000 -23000000
L69000000 -23500000
" />
<path d="M70500000 -21500000
L103500000 -21500000
" />
</g>
<g style="fill:#000000; fill-opacity:0.0; 
stroke:#000000; stroke-width:120000.000000; stroke-opacity:1; 
stroke-linecap:round; stroke-linejoin:round;">
<path d="M97790931 58840319
L104440931 47322181
" />
<path d="M104440931 47322181
L115959069 53972181
" />
<path d="M115959069 53972181
L109309069 65490319
" />
<path d="M109309069 65490319
L97790931 58840319
" />
<path d="M31350000 -13775000
L44650000 -13775000
" />
<path d="M44650000 -13775000
L44650000 -475000
" />
<path d="M44650000 -475000
L31350000 -475000
" />
<path d="M31350000 -475000
L31350000 -13775000
" />
<path d="M50350000 -19712500
L63650000 -19712500
" />
<path d="M63650000 -19712500
L63650000 -6412500
" />
<path d="M63650000 -6412500
L50350000 -6412500
" />
<path d="M50350000 -6412500
L50350000 -19712500
" />
<path d="M88350000 5225000
L101650000 5225000
" />
<path d="M101650000 5225000
L101650000 18525000
" />
<path d="M101650000 18525000
L88350000 18525000
" />
<path d="M88350000 18525000
L88350000 5225000
" />
<path d="M50350000 18287500
L63650000 18287500
" />
<path d="M63650000 18287500
L63650000 31587500
" />
<path d="M63650000 31587500
L50350000 31587500
" />
<path d="M50350000 31587500
L50350000 18287500
" />
<path d="M69350000 23037500
L82650000 23037500
" />
<path d="M82650000 23037500
L82650000 36337500
" />
<path d="M82650000 36337500
L69350000 36337500
" />
<path d="M69350000 36337500
L69350000 23037500
" />
<path d="M50350000 -712500
L63650000 -712500
" />
<path d="M63650000 -712500
L63650000 12587500
" />
<path d="M63650000 12587500
L50350000 12587500
" />
<path d="M50350000 12587500
L50350000 -712500
" />
<path d="M-6650000 12350000
L6650000 12350000
" />
<path d="M6650000 12350000
L6650000 25650000
" />
<path d="M6650000 25650000
L-6650000 25650000
" />
<path d="M-6650000 25650000
L-6650000 12350000
" />
<path d="M88350000 -13775000
L101650000 -13775000
" />
<path d="M101650000 -13775000
L101650000 -475000
" />
<path d="M101650000 -475000
L88350000 -475000
" />
<path d="M88350000 -475000
L88350000 -13775000
" />
<path d="M31350000 5225000
L44650000 5225000
" />
<path d="M44650000 5225000
L44650000 18525000
" />
<path d="M44650000 18525000
L31350000 18525000
" />
<path d="M31350000 18525000
L31350000 5225000
" />
<path d="M56287500 42037500
L69587500 42037500
" />
<path d="M69587500 42037500
L69587500 55337500
" />
<path d="M69587500 55337500
L56287500 55337500
" />
<path d="M56287500 55337500
L56287500 42037500
" />
<path d="M12350000 12350000
L25650000 12350000
" />
<path d="M25650000 12350000
L25650000 25650000
" />
<path d="M25650000 25650000
L12350000 25650000
" />
<path d="M12350000 25650000
L12350000 12350000
" />
<path d="M12350000 31350000
L25650000 31350000
" />
<path d="M25650000 31350000
L25650000 44650000
" />
<path d="M25650000 44650000
L12350000 44650000
" />
<path d="M12350000 44650000
L12350000 31350000
" />
<path d="M-6650000 31350000
L6650000 31350000
" />
<path d="M6650000 31350000
L6650000 44650000
" />
<path d="M6650000 44650000
L-6650000 44650000
" />
<path d="M-6650000 44650000
L-6650000 31350000
" />
<path d="M-25650000 13537500
L-12350000 13537500
" />
<path d="M-12350000 13537500
L-12350000 26837500
" />
<path d="M-12350000 26837500
L-25650000 26837500
" />
<path d="M-25650000 26837500
L-25650000 13537500
" />
<path d="M79610240 42917947
L92457053 46360240
" />
<path d="M92457053 46360240
L89014760 59207053
" />
<path d="M89014760 59207053
L76167947 55764760
" />
<path d="M76167947 55764760
L79610240 42917947
" />
<path d="M69350000 4037500
L82650000 4037500
" />
<path d="M82650000 4037500
L82650000 17337500
" />
<path d="M82650000 17337500
L69350000 17337500
" />
<path d="M69350000 17337500
L69350000 4037500
" />
<path d="M-6650000 -6650000
L6650000 -6650000
" />
<path d="M6650000 -6650000
L6650000 6650000
" />
<path d="M6650000 6650000
L-6650000 6650000
" />
<path d="M-6650000 6650000
L-6650000 -6650000
" />
<path d="M69350000 -14962500
L82650000 -14962500
" />
<path d="M82650000 -14962500
L82650000 -1662500
" />
<path d="M82650000 -1662500
L69350000 -1662500
" />
<path d="M69350000 -1662500
L69350000 -14962500
" />
<path d="M88350000 24225000
L101650000 24225000
" />
<path d="M101650000 24225000
L101650000 37525000
" />
<path d="M101650000 37525000
L88350000 37525000
" />
<path d="M88350000 37525000
L88350000 24225000
" />
<path d="M31350000 24225000
L44650000 24225000
" />
<path d="M44650000 24225000
L44650000 37525000
" />
<path d="M44650000 37525000
L31350000 37525000
" />
<path d="M31350000 37525000
L31350000 24225000
" />
<path d="M12350000 -6650000
L25650000 -6650000
" />
<path d="M25650000 -6650000
L25650000 6650000
" />
<path d="M25650000 6650000
L12350000 6650000
" />
<path d="M12350000 6650000
L12350000 -6650000
" />
<g >
</g>
<g >
</g>
<g >
</g>
<g >
</g>
<g >
</g>
<g >
</g>
<g >
</g>
<g >
</g>
<g >
</g>
<g >
</g>
<g >
</g>
<g >
</g>
<g >
</g>
<g >
</g>
<g >
</g>
<g >
</g>
<g >
</g>
<g >
</g>
<g >
</g>
<g >
</g>
<g >
</g>
<g >
</g>
<g >
</g>
<g >
</g>
<g >
</g>
</g> 
</svg>
