<?xml version="1.0" standalone="no"?>
 <!DOCTYPE svg PUBLIC "-//W3C//DTD SVG 1.1//EN" 
 "http://www.w3.org/Graphics/SVG/1.1/DTD/svg11.dtd"> 
<svg
  xmlns:svg="http://www.w3.org/2000/svg"
  xmlns="http://www.w3.org/2000/svg"
  xmlns:xlink="http://www.w3.org/1999/xlink"
  version="1.1"
  width="29.700220cm" height="21.000720cm" viewBox="0 0 297002 210007">
<title>SVG Picture created as jantor-Edge_Cuts.svg date 2022/12/17 12:31:16 </title>
  <desc>Picture generated by PCBNEW </desc>
<g style="fill:#000000; fill-opacity:1.000000;stroke:#000000; stroke-opacity:1.000000;
stroke-linecap:round; stroke-linejoin:round;"
 transform="translate(0 0) scale(1 1)">
</g>
<g style="fill:#000000; fill-opacity:0.0; 
stroke:#000000; stroke-width:0.000000; stroke-opacity:1; 
stroke-linecap:round; stroke-linejoin:round;">
</g>
<g style="fill:#000000; fill-opacity:0.0; 
stroke:#000000; stroke-width:100.000000; stroke-opacity:1; 
stroke-linecap:round; stroke-linejoin:round;">
<path d="M2099 90117
L-48687 76000
" />
<path d="M-111625 64125
L-76000 64125
" />
<path d="M-17812.499998 -593.750000 A593.701000 593.701000 0.0 0 0 -17218.750000 -0.000002" />
<path d="M-131812 28500
L-131812 45125
" />
<path d="M-73625 57000
L-57000 57000
" />
<path d="M2099.295920 90117.562303 A6255.586000 6255.586000 0.0 0 0 8487.500273 88098.750230" />
<path d="M-111625.000000 7125.000000 A1187.501000 1187.501000 0.0 0 0 -112812.500000 8312.500000" />
<path d="M1187 58781
L21375 70656
" />
<path d="M8487 88098
L21375 70656
" />
<path d="M-38000 -5937
L-54625 -5937
" />
<path d="M-112812 47500
L-112812 62937
" />
<path d="M-73625.000000 0.000000 A1187.501000 1187.501000 0.0 0 0 -74812.500000 1187.500000" />
<path d="M-57000 0
L-73625 0
" />
<path d="M-112812.500000 47500.000000 A1187.501000 1187.501000 0.0 0 0 -114000.000000 46312.500000" />
<path d="M-130625 46312
L-114000 46312
" />
<path d="M-112812 26125
L-112812 8312
" />
<path d="M-55812 -1187
L-55812 -4750
" />
<path d="M1187.499999 1187.500000 A1187.465000 1187.465000 0.0 0 0 0.000000 0.000001" />
<path d="M-54625.000000 -5937.500000 A1187.501000 1187.501000 0.0 0 0 -55812.500000 -4750.000000" />
<path d="M-54716.408241 58217.969080 A1781.337000 1781.337000 0.0 0 0 -56406.250000 57000.000001" />
<path d="M-131812.500000 45125.000000 A1187.501000 1187.501000 0.0 0 0 -130625.000000 46312.500000" />
<path d="M-130625.000000 27312.500000 A1187.501000 1187.501000 0.0 0 0 -131812.500000 28500.000000" />
<path d="M1187 1187
L1187 58781
" />
<path d="M-76000 7125
L-111625 7125
" />
<path d="M-73625.000000 57000.000000 A1187.501000 1187.501000 0.0 0 0 -74812.500000 58187.500000" />
<path d="M-54716 58217
L-50343 74156
" />
<path d="M-57000 57000
L-56406 57000
" />
<path d="M-74812 5937
L-74812 1187
" />
<path d="M-112812.500000 62937.500000 A1187.501000 1187.501000 0.0 0 0 -111625.000000 64125.000000" />
<path d="M-74812 58187
L-74812 62937
" />
<path d="M-19000 -1187
L-35625 -1187
" />
<path d="M0 0
L-17218 0
" />
<path d="M-76000.000000 64125.000000 A1187.501000 1187.501000 0.0 0 0 -74812.500000 62937.500000" />
<path d="M-114000.000000 27312.500000 A1187.501000 1187.501000 0.0 0 0 -112812.500000 26125.000000" />
<path d="M-57000.000000 -0.000000 A1187.501000 1187.501000 0.0 0 0 -55812.500000 -1187.500000" />
<path d="M-36812.500000 -4750.000000 A1187.501000 1187.501000 0.0 0 0 -38000.000000 -5937.500000" />
<path d="M-19000 -1187
L-18406 -1187
" />
<path d="M-76000.000000 7125.000000 A1187.501000 1187.501000 0.0 0 0 -74812.500000 5937.500000" />
<path d="M-50343.382060 74156.066018 A2918.952000 2918.952000 0.0 0 0 -48687.500140 76000.000331" />
<path d="M-36812.500000 -2375.000000 A1187.501000 1187.501000 0.0 0 0 -35625.000000 -1187.500000" />
<path d="M-17812.500002 -593.750000 A593.701000 593.701000 0.0 0 0 -18406.250000 -1187.499998" />
<path d="M-114000 27312
L-130625 27312
" />
<path d="M-36812 -2375
L-36812 -4750
" />
</g>
<g style="fill:#000000; fill-opacity:0.0; 
stroke:#000000; stroke-width:120.000000; stroke-opacity:1; 
stroke-linecap:round; stroke-linejoin:round;">
<path d="M-15312 21500
L-1312 21500
" />
<path d="M-1312 21500
L-1312 35500
" />
<path d="M-1312 35500
L-15312 35500
" />
<path d="M-15312 35500
L-15312 21500
" />
<path d="M-53312 34562
L-39312 34562
" />
<path d="M-39312 34562
L-39312 48562
" />
<path d="M-39312 48562
L-53312 48562
" />
<path d="M-53312 48562
L-53312 34562
" />
<path d="M-34312 39312
L-20312 39312
" />
<path d="M-20312 39312
L-20312 53312
" />
<path d="M-20312 53312
L-34312 53312
" />
<path d="M-34312 53312
L-34312 39312
" />
<path d="M-53312 15562
L-39312 15562
" />
<path d="M-39312 15562
L-39312 29562
" />
<path d="M-39312 29562
L-53312 29562
" />
<path d="M-53312 29562
L-53312 15562
" />
<path d="M-53312 -3437
L-39312 -3437
" />
<path d="M-39312 -3437
L-39312 10562
" />
<path d="M-39312 10562
L-53312 10562
" />
<path d="M-53312 10562
L-53312 -3437
" />
<path d="M-110312 28625
L-96312 28625
" />
<path d="M-96312 28625
L-96312 42625
" />
<path d="M-96312 42625
L-110312 42625
" />
<path d="M-110312 42625
L-110312 28625
" />
<path d="M-15312 2500
L-1312 2500
" />
<path d="M-1312 2500
L-1312 16500
" />
<path d="M-1312 16500
L-15312 16500
" />
<path d="M-15312 16500
L-15312 2500
" />
<path d="M-72312 21500
L-58312 21500
" />
<path d="M-58312 21500
L-58312 35500
" />
<path d="M-58312 35500
L-72312 35500
" />
<path d="M-72312 35500
L-72312 21500
" />
<path d="M-47375 58312
L-33375 58312
" />
<path d="M-33375 58312
L-33375 72312
" />
<path d="M-33375 72312
L-47375 72312
" />
<path d="M-47375 72312
L-47375 58312
" />
<circle cx="-74812.500000" cy="26125.000000" r="1150.000000" /> 
<path d="M-91312 28625
L-77312 28625
" />
<path d="M-77312 28625
L-77312 42625
" />
<path d="M-77312 42625
L-91312 42625
" />
<path d="M-91312 42625
L-91312 28625
" />
<path d="M-91312 47625
L-77312 47625
" />
<path d="M-77312 47625
L-77312 61625
" />
<path d="M-77312 61625
L-91312 61625
" />
<path d="M-91312 61625
L-91312 47625
" />
<circle cx="-5937.500000" cy="64718.750000" r="1150.000000" /> 
<path d="M-110312 47625
L-96312 47625
" />
<path d="M-96312 47625
L-96312 61625
" />
<path d="M-96312 61625
L-110312 61625
" />
<path d="M-110312 61625
L-110312 47625
" />
<circle cx="-93812.500000" cy="26125.000000" r="1150.000000" /> 
<path d="M-72312 2500
L-58312 2500
" />
<path d="M-58312 2500
L-58312 16500
" />
<path d="M-58312 16500
L-72312 16500
" />
<path d="M-72312 16500
L-72312 2500
" />
<path d="M-5999 75593
L1000 63469
" />
<path d="M1000 63469
L13124 70469
" />
<path d="M13124 70469
L6124 82593
" />
<path d="M6124 82593
L-5999 75593
" />
<circle cx="-93812.500000" cy="45125.000000" r="1150.000000" /> 
<path d="M-129312 29812
L-115312 29812
" />
<path d="M-115312 29812
L-115312 43812
" />
<path d="M-115312 43812
L-129312 43812
" />
<path d="M-129312 43812
L-129312 29812
" />
<path d="M-23949 59114
L-10426 62737
" />
<path d="M-10426 62737
L-14050 76260
" />
<path d="M-14050 76260
L-27573 72637
" />
<path d="M-27573 72637
L-23949 59114
" />
<path d="M-34312 20312
L-20312 20312
" />
<path d="M-20312 20312
L-20312 34312
" />
<path d="M-20312 34312
L-34312 34312
" />
<path d="M-34312 34312
L-34312 20312
" />
<circle cx="-17812.500000" cy="17812.500000" r="1150.000000" /> 
<circle cx="-74812.500000" cy="45125.000000" r="1150.000000" /> 
<path d="M-110312 9625
L-96312 9625
" />
<path d="M-96312 9625
L-96312 23625
" />
<path d="M-96312 23625
L-110312 23625
" />
<path d="M-110312 23625
L-110312 9625
" />
<path d="M-34312 1312
L-20312 1312
" />
<path d="M-20312 1312
L-20312 15312
" />
<path d="M-20312 15312
L-34312 15312
" />
<path d="M-34312 15312
L-34312 1312
" />
<path d="M-15312 40500
L-1312 40500
" />
<path d="M-1312 40500
L-1312 54500
" />
<path d="M-1312 54500
L-15312 54500
" />
<path d="M-15312 54500
L-15312 40500
" />
<path d="M-72312 40500
L-58312 40500
" />
<path d="M-58312 40500
L-58312 54500
" />
<path d="M-58312 54500
L-72312 54500
" />
<path d="M-72312 54500
L-72312 40500
" />
<path d="M-91312 9625
L-77312 9625
" />
<path d="M-77312 9625
L-77312 23625
" />
<path d="M-77312 23625
L-91312 23625
" />
<path d="M-91312 23625
L-91312 9625
" />
<g >
</g>
<g >
</g>
<g >
</g>
<g >
</g>
<g >
</g>
<g >
</g>
<g >
</g>
<g >
</g>
<g >
</g>
<g >
</g>
<g >
</g>
<g >
</g>
<g >
</g>
<g >
</g>
<g >
</g>
<g >
</g>
<g >
</g>
<g >
</g>
<g >
</g>
<g >
</g>
<g >
</g>
<g >
</g>
<g >
</g>
<g >
</g>
<g >
</g>
<g >
</g>
<g >
</g>
<g >
</g>
<g >
</g>
<g >
</g>
<g >
</g>
</g> 
</svg>
