  0
SECTION
  2
HEADER
  9
$ANGBASE
  50
0.0
  9
$ANGDIR
  70
1
  9
$MEASUREMENT
  70
0
  0
ENDSEC
  0
SECTION
  2
TABLES
  0
TABLE
  2
LTYPE
  70
4
  0
LTYPE
  5
40F
  2
CONTINUOUS
  70
0
  3
Solid line
  72
65
  73
0
  40
0.0
  0
LTYPE
  5
410
  2
DASHDOT
 70
0
  3
Dash Dot ____ _ ____ _
 72
65
 73
4
 40
2.0
 49
1.25
 49
-0.25
 49
0.25
 49
-0.25
  0
LTYPE
  5
411
  2
DASHED
 70
0
  3
Dashed __ __ __ __ __
 72
65
 73
2
 40
0.75
 49
0.5
 49
-0.25
  0
LTYPE
  5
43B
  2
DOTTED
 70
0
  3
Dotted .  .  .  .
 72
65
 73
2
 40
0.2
 49
0.0
 49
-0.2
  0
ENDTAB
  0
TABLE
  2
STYLE
  70
4
  0
STYLE
  2
KICAD
  70
0
  40
0
  41
1
  42
1
  50
0
  71
0
  3
isocp.shx
  0
STYLE
  2
KICADB
  70
0
  40
0
  41
1
  42
1
  50
0
  71
0
  3
isocp.shx
  0
STYLE
  2
KICADI
  70
0
  40
0
  41
1
  42
1
  50
15
  71
0
  3
isocp.shx
  0
STYLE
  2
KICADBI
  70
0
  40
0
  41
1
  42
1
  50
15
  71
0
  3
isocp.shx
  0
ENDTAB
  0
TABLE
  2
LAYER
  70
1
  0
LAYER
  2
BLACK
  70
0
  62
7
  6
CONTINUOUS
  0
ENDTAB
  0
ENDSEC
  0
SECTION
  2
ENTITIES
0
LINE
8
BLACK
6
CONTINUOUS
10
-0.724655
20
0.0487204
11
-0.719016
21
0.0480854
0
LINE
8
BLACK
6
CONTINUOUS
10
-0.719016
20
0.0480854
11
-0.713659
21
0.0462111
0
LINE
8
BLACK
6
CONTINUOUS
10
-0.713659
20
0.0462111
11
-0.708853
21
0.0431917
0
LINE
8
BLACK
6
CONTINUOUS
10
-0.708853
20
0.0431917
11
-0.70484
21
0.0391785
0
LINE
8
BLACK
6
CONTINUOUS
10
-0.70484
20
0.0391785
11
-0.70182
21
0.0343728
0
LINE
8
BLACK
6
CONTINUOUS
10
-0.70182
20
0.0343728
11
-0.699946
21
0.0290157
0
LINE
8
BLACK
6
CONTINUOUS
10
-0.699946
20
0.0290157
11
-0.699311
21
0.0233758
0
LINE
8
BLACK
6
CONTINUOUS
10
-0.699311
20
0.0233758
11
-0.699418
21
0.0231188
0
LINE
8
BLACK
6
CONTINUOUS
10
-0.699418
20
0.0231188
11
-0.698907
21
0.018582
0
LINE
8
BLACK
6
CONTINUOUS
10
-0.698907
20
0.018582
11
-0.697314
21
0.0140285
0
LINE
8
BLACK
6
CONTINUOUS
10
-0.697314
20
0.0140285
11
-0.694747
21
0.00994366
0
LINE
8
BLACK
6
CONTINUOUS
10
-0.694747
20
0.00994366
11
-0.691336
21
0.00653248
0
LINE
8
BLACK
6
CONTINUOUS
10
-0.691336
20
0.00653248
11
-0.687251
21
0.00396598
0
LINE
8
BLACK
6
CONTINUOUS
10
-0.687251
20
0.00396598
11
-0.682698
21
0.00237287
0
LINE
8
BLACK
6
CONTINUOUS
10
-0.682698
20
0.00237287
11
-0.678161
21
0.00186201
0
LINE
8
BLACK
6
CONTINUOUS
10
-0.678161
20
0.00186201
11
-0.677904
21
0.0019685
0
LINE
8
BLACK
6
CONTINUOUS
10
-0.677904
20
0.0019685
11
-0.677904
21
0.00196846
0
LINE
8
BLACK
6
CONTINUOUS
10
-0.677904
20
0.00196846
11
-0.677904
21
0.0019685
0
LINE
8
BLACK
6
CONTINUOUS
10
-0.677904
20
0.0019685
11
0
21
0.0019685
0
LINE
8
BLACK
6
CONTINUOUS
10
0
20
0.0019685
11
0.00762157
21
0.00136886
0
LINE
8
BLACK
6
CONTINUOUS
10
0.00762157
20
0.00136886
11
0.0150556
21
-0.000415709
0
LINE
8
BLACK
6
CONTINUOUS
10
0.0150556
20
-0.000415709
11
0.0221189
21
-0.0033413
0
LINE
8
BLACK
6
CONTINUOUS
10
0.0221189
20
-0.0033413
11
0.0286375
21
-0.00733583
0
LINE
8
BLACK
6
CONTINUOUS
10
0.0286375
20
-0.00733583
11
0.034451
21
-0.012301
0
LINE
8
BLACK
6
CONTINUOUS
10
0.034451
20
-0.012301
11
0.0394161
21
-0.0181144
0
LINE
8
BLACK
6
CONTINUOUS
10
0.0394161
20
-0.0181144
11
0.0434107
21
-0.0246331
0
LINE
8
BLACK
6
CONTINUOUS
10
0.0434107
20
-0.0246331
11
0.0463363
21
-0.0316964
0
LINE
8
BLACK
6
CONTINUOUS
10
0.0463363
20
-0.0316964
11
0.0481208
21
-0.0391304
0
LINE
8
BLACK
6
CONTINUOUS
10
0.0481208
20
-0.0391304
11
0.0487205
21
-0.0467519
0
LINE
8
BLACK
6
CONTINUOUS
10
0.0487205
20
-0.0467519
11
0.0487205
21
-2.3131
0
LINE
8
BLACK
6
CONTINUOUS
10
0.0487205
20
-2.3131
11
0.842534
21
-2.78005
0
LINE
8
BLACK
6
CONTINUOUS
10
0.842534
20
-2.78005
11
0.842599
21
-2.78013
0
LINE
8
BLACK
6
CONTINUOUS
10
0.842599
20
-2.78013
11
0.842705
21
-2.78016
0
LINE
8
BLACK
6
CONTINUOUS
10
0.842705
20
-2.78016
11
0.843044
21
-2.78072
0
LINE
8
BLACK
6
CONTINUOUS
10
0.843044
20
-2.78072
11
0.843441
21
-2.78125
0
LINE
8
BLACK
6
CONTINUOUS
10
0.843441
20
-2.78125
11
0.843426
21
-2.78136
0
LINE
8
BLACK
6
CONTINUOUS
10
0.843426
20
-2.78136
11
0.843482
21
-2.78145
0
LINE
8
BLACK
6
CONTINUOUS
10
0.843482
20
-2.78145
11
0.843323
21
-2.78209
0
LINE
8
BLACK
6
CONTINUOUS
10
0.843323
20
-2.78209
11
0.843232
21
-2.78274
0
LINE
8
BLACK
6
CONTINUOUS
10
0.843232
20
-2.78274
11
0.843145
21
-2.78281
0
LINE
8
BLACK
6
CONTINUOUS
10
0.843145
20
-2.78281
11
0.843119
21
-2.78291
0
LINE
8
BLACK
6
CONTINUOUS
10
0.843119
20
-2.78291
11
0.335737
21
-3.46962
0
LINE
8
BLACK
6
CONTINUOUS
10
0.335737
20
-3.46962
11
0.33568
21
-3.46966
0
LINE
8
BLACK
6
CONTINUOUS
10
0.33568
20
-3.46966
11
0.33566
21
-3.46972
0
LINE
8
BLACK
6
CONTINUOUS
10
0.33566
20
-3.46972
11
0.323088
21
-3.48357
0
LINE
8
BLACK
6
CONTINUOUS
10
0.323088
20
-3.48357
11
0.30951
21
-3.49642
0
LINE
8
BLACK
6
CONTINUOUS
10
0.30951
20
-3.49642
11
0.295002
21
-3.50822
0
LINE
8
BLACK
6
CONTINUOUS
10
0.295002
20
-3.50822
11
0.279648
21
-3.5189
0
LINE
8
BLACK
6
CONTINUOUS
10
0.279648
20
-3.5189
11
0.263533
21
-3.52838
0
LINE
8
BLACK
6
CONTINUOUS
10
0.263533
20
-3.52838
11
0.24675
21
-3.53663
0
LINE
8
BLACK
6
CONTINUOUS
10
0.24675
20
-3.53663
11
0.229394
21
-3.54359
0
LINE
8
BLACK
6
CONTINUOUS
10
0.229394
20
-3.54359
11
0.211563
21
-3.54923
0
LINE
8
BLACK
6
CONTINUOUS
10
0.211563
20
-3.54923
11
0.193359
21
-3.55351
0
LINE
8
BLACK
6
CONTINUOUS
10
0.193359
20
-3.55351
11
0.174884
21
-3.5564
0
LINE
8
BLACK
6
CONTINUOUS
10
0.174884
20
-3.5564
11
0.156244
21
-3.5579
0
LINE
8
BLACK
6
CONTINUOUS
10
0.156244
20
-3.5579
11
0.137544
21
-3.55798
0
LINE
8
BLACK
6
CONTINUOUS
10
0.137544
20
-3.55798
11
0.11889
21
-3.55666
0
LINE
8
BLACK
6
CONTINUOUS
10
0.11889
20
-3.55666
11
0.100389
21
-3.55394
0
LINE
8
BLACK
6
CONTINUOUS
10
0.100389
20
-3.55394
11
0.0821453
21
-3.54984
0
LINE
8
BLACK
6
CONTINUOUS
10
0.0821453
20
-3.54984
11
0.0821453
21
-3.54984
0
LINE
8
BLACK
6
CONTINUOUS
10
0.0821453
20
-3.54984
11
0.082135
21
-3.54983
0
LINE
8
BLACK
6
CONTINUOUS
10
0.082135
20
-3.54983
11
0.0821222
21
-3.54983
0
LINE
8
BLACK
6
CONTINUOUS
10
0.0821222
20
-3.54983
11
-1.91736
21
-2.99402
0
LINE
8
BLACK
6
CONTINUOUS
10
-1.91736
20
-2.99402
11
-1.91746
21
-2.99394
0
LINE
8
BLACK
6
CONTINUOUS
10
-1.91746
20
-2.99394
11
-1.9176
21
-2.99394
0
LINE
8
BLACK
6
CONTINUOUS
10
-1.9176
20
-2.99394
11
-1.9176
21
-2.99394
0
LINE
8
BLACK
6
CONTINUOUS
10
-1.9176
20
-2.99394
11
-1.92785
21
-2.98899
0
LINE
8
BLACK
6
CONTINUOUS
10
-1.92785
20
-2.98899
11
-1.93758
21
-2.98307
0
LINE
8
BLACK
6
CONTINUOUS
10
-1.93758
20
-2.98307
11
-1.94668
21
-2.97624
0
LINE
8
BLACK
6
CONTINUOUS
10
-1.94668
20
-2.97624
11
-1.95507
21
-2.96855
0
LINE
8
BLACK
6
CONTINUOUS
10
-1.95507
20
-2.96855
11
-1.96268
21
-2.96008
0
LINE
8
BLACK
6
CONTINUOUS
10
-1.96268
20
-2.96008
11
-1.96942
21
-2.95091
0
LINE
8
BLACK
6
CONTINUOUS
10
-1.96942
20
-2.95091
11
-1.97525
21
-2.94113
0
LINE
8
BLACK
6
CONTINUOUS
10
-1.97525
20
-2.94113
11
-1.98009
21
-2.93082
0
LINE
8
BLACK
6
CONTINUOUS
10
-1.98009
20
-2.93082
11
-1.98391
21
-2.9201
0
LINE
8
BLACK
6
CONTINUOUS
10
-1.98391
20
-2.9201
11
-1.98391
21
-2.9201
0
LINE
8
BLACK
6
CONTINUOUS
10
-1.98391
20
-2.9201
11
-1.9839
21
-2.92007
0
LINE
8
BLACK
6
CONTINUOUS
10
-1.9839
20
-2.92007
11
-1.98392
21
-2.92005
0
LINE
8
BLACK
6
CONTINUOUS
10
-1.98392
20
-2.92005
11
-2.15609
21
-2.29257
0
LINE
8
BLACK
6
CONTINUOUS
10
-2.15609
20
-2.29257
11
-2.15605
21
-2.29225
0
LINE
8
BLACK
6
CONTINUOUS
10
-2.15605
20
-2.29225
11
-2.15951
21
-2.28386
0
LINE
8
BLACK
6
CONTINUOUS
10
-2.15951
20
-2.28386
11
-2.1643
21
-2.27568
0
LINE
8
BLACK
6
CONTINUOUS
10
-2.1643
20
-2.27568
11
-2.17017
21
-2.26825
0
LINE
8
BLACK
6
CONTINUOUS
10
-2.17017
20
-2.26825
11
-2.17702
21
-2.2617
0
LINE
8
BLACK
6
CONTINUOUS
10
-2.17702
20
-2.2617
11
-2.18471
21
-2.25616
0
LINE
8
BLACK
6
CONTINUOUS
10
-2.18471
20
-2.25616
11
-2.19309
21
-2.25173
0
LINE
8
BLACK
6
CONTINUOUS
10
-2.19309
20
-2.25173
11
-2.202
21
-2.24851
0
LINE
8
BLACK
6
CONTINUOUS
10
-2.202
20
-2.24851
11
-2.21127
21
-2.24655
0
LINE
8
BLACK
6
CONTINUOUS
10
-2.21127
20
-2.24655
11
-2.22037
21
-2.24592
0
LINE
8
BLACK
6
CONTINUOUS
10
-2.22037
20
-2.24592
11
-2.22072
21
-2.24606
0
LINE
8
BLACK
6
CONTINUOUS
10
-2.22072
20
-2.24606
11
-2.89862
21
-2.24606
0
LINE
8
BLACK
6
CONTINUOUS
10
-2.89862
20
-2.24606
11
-2.89896
21
-2.24592
0
LINE
8
BLACK
6
CONTINUOUS
10
-2.89896
20
-2.24592
11
-2.90643
21
-2.24657
0
LINE
8
BLACK
6
CONTINUOUS
10
-2.90643
20
-2.24657
11
-2.914
21
-2.2486
0
LINE
8
BLACK
6
CONTINUOUS
10
-2.914
20
-2.2486
11
-2.9211
21
-2.25191
0
LINE
8
BLACK
6
CONTINUOUS
10
-2.9211
20
-2.25191
11
-2.92752
21
-2.25641
0
LINE
8
BLACK
6
CONTINUOUS
10
-2.92752
20
-2.25641
11
-2.93306
21
-2.26195
0
LINE
8
BLACK
6
CONTINUOUS
10
-2.93306
20
-2.26195
11
-2.93755
21
-2.26837
0
LINE
8
BLACK
6
CONTINUOUS
10
-2.93755
20
-2.26837
11
-2.94087
21
-2.27547
0
LINE
8
BLACK
6
CONTINUOUS
10
-2.94087
20
-2.27547
11
-2.94289
21
-2.28304
0
LINE
8
BLACK
6
CONTINUOUS
10
-2.94289
20
-2.28304
11
-2.94355
21
-2.29051
0
LINE
8
BLACK
6
CONTINUOUS
10
-2.94355
20
-2.29051
11
-2.94341
21
-2.29085
0
LINE
8
BLACK
6
CONTINUOUS
10
-2.94341
20
-2.29085
11
-2.94341
21
-2.47785
0
LINE
8
BLACK
6
CONTINUOUS
10
-2.94341
20
-2.47785
11
-2.94401
21
-2.48548
0
LINE
8
BLACK
6
CONTINUOUS
10
-2.94401
20
-2.48548
11
-2.94579
21
-2.49291
0
LINE
8
BLACK
6
CONTINUOUS
10
-2.94579
20
-2.49291
11
-2.94872
21
-2.49997
0
LINE
8
BLACK
6
CONTINUOUS
10
-2.94872
20
-2.49997
11
-2.95271
21
-2.50649
0
LINE
8
BLACK
6
CONTINUOUS
10
-2.95271
20
-2.50649
11
-2.95768
21
-2.5123
0
LINE
8
BLACK
6
CONTINUOUS
10
-2.95768
20
-2.5123
11
-2.96349
21
-2.51727
0
LINE
8
BLACK
6
CONTINUOUS
10
-2.96349
20
-2.51727
11
-2.97001
21
-2.52126
0
LINE
8
BLACK
6
CONTINUOUS
10
-2.97001
20
-2.52126
11
-2.97707
21
-2.52419
0
LINE
8
BLACK
6
CONTINUOUS
10
-2.97707
20
-2.52419
11
-2.9845
21
-2.52597
0
LINE
8
BLACK
6
CONTINUOUS
10
-2.9845
20
-2.52597
11
-2.99213
21
-2.52657
0
LINE
8
BLACK
6
CONTINUOUS
10
-2.99213
20
-2.52657
11
-4.39469
21
-2.52657
0
LINE
8
BLACK
6
CONTINUOUS
10
-4.39469
20
-2.52657
11
-4.40231
21
-2.52597
0
LINE
8
BLACK
6
CONTINUOUS
10
-4.40231
20
-2.52597
11
-4.40974
21
-2.52419
0
LINE
8
BLACK
6
CONTINUOUS
10
-4.40974
20
-2.52419
11
-4.4168
21
-2.52126
0
LINE
8
BLACK
6
CONTINUOUS
10
-4.4168
20
-2.52126
11
-4.42332
21
-2.51727
0
LINE
8
BLACK
6
CONTINUOUS
10
-4.42332
20
-2.51727
11
-4.42914
21
-2.5123
0
LINE
8
BLACK
6
CONTINUOUS
10
-4.42914
20
-2.5123
11
-4.4341
21
-2.50649
0
LINE
8
BLACK
6
CONTINUOUS
10
-4.4341
20
-2.50649
11
-4.4381
21
-2.49997
0
LINE
8
BLACK
6
CONTINUOUS
10
-4.4381
20
-2.49997
11
-4.44102
21
-2.49291
0
LINE
8
BLACK
6
CONTINUOUS
10
-4.44102
20
-2.49291
11
-4.44281
21
-2.48548
0
LINE
8
BLACK
6
CONTINUOUS
10
-4.44281
20
-2.48548
11
-4.44341
21
-2.47785
0
LINE
8
BLACK
6
CONTINUOUS
10
-4.44341
20
-2.47785
11
-4.44341
21
-1.87008
0
LINE
8
BLACK
6
CONTINUOUS
10
-4.44341
20
-1.87008
11
-4.44326
21
-1.86974
0
LINE
8
BLACK
6
CONTINUOUS
10
-4.44326
20
-1.86974
11
-4.44392
21
-1.86227
0
LINE
8
BLACK
6
CONTINUOUS
10
-4.44392
20
-1.86227
11
-4.44595
21
-1.8547
0
LINE
8
BLACK
6
CONTINUOUS
10
-4.44595
20
-1.8547
11
-4.44926
21
-1.8476
0
LINE
8
BLACK
6
CONTINUOUS
10
-4.44926
20
-1.8476
11
-4.45375
21
-1.84118
0
LINE
8
BLACK
6
CONTINUOUS
10
-4.45375
20
-1.84118
11
-4.45929
21
-1.83564
0
LINE
8
BLACK
6
CONTINUOUS
10
-4.45929
20
-1.83564
11
-4.46571
21
-1.83115
0
LINE
8
BLACK
6
CONTINUOUS
10
-4.46571
20
-1.83115
11
-4.47281
21
-1.82784
0
LINE
8
BLACK
6
CONTINUOUS
10
-4.47281
20
-1.82784
11
-4.48038
21
-1.82581
0
LINE
8
BLACK
6
CONTINUOUS
10
-4.48038
20
-1.82581
11
-4.48785
21
-1.82515
0
LINE
8
BLACK
6
CONTINUOUS
10
-4.48785
20
-1.82515
11
-4.48819
21
-1.8253
0
LINE
8
BLACK
6
CONTINUOUS
10
-4.48819
20
-1.8253
11
-5.14272
21
-1.8253
0
LINE
8
BLACK
6
CONTINUOUS
10
-5.14272
20
-1.8253
11
-5.15034
21
-1.8247
0
LINE
8
BLACK
6
CONTINUOUS
10
-5.15034
20
-1.8247
11
-5.15777
21
-1.82291
0
LINE
8
BLACK
6
CONTINUOUS
10
-5.15777
20
-1.82291
11
-5.16484
21
-1.81999
0
LINE
8
BLACK
6
CONTINUOUS
10
-5.16484
20
-1.81999
11
-5.17135
21
-1.81599
0
LINE
8
BLACK
6
CONTINUOUS
10
-5.17135
20
-1.81599
11
-5.17717
21
-1.81103
0
LINE
8
BLACK
6
CONTINUOUS
10
-5.17717
20
-1.81103
11
-5.18213
21
-1.80521
0
LINE
8
BLACK
6
CONTINUOUS
10
-5.18213
20
-1.80521
11
-5.18613
21
-1.79869
0
LINE
8
BLACK
6
CONTINUOUS
10
-5.18613
20
-1.79869
11
-5.18905
21
-1.79163
0
LINE
8
BLACK
6
CONTINUOUS
10
-5.18905
20
-1.79163
11
-5.19084
21
-1.7842
0
LINE
8
BLACK
6
CONTINUOUS
10
-5.19084
20
-1.7842
11
-5.19144
21
-1.77657
0
LINE
8
BLACK
6
CONTINUOUS
10
-5.19144
20
-1.77657
11
-5.19144
21
-1.12205
0
LINE
8
BLACK
6
CONTINUOUS
10
-5.19144
20
-1.12205
11
-5.19084
21
-1.11443
0
LINE
8
BLACK
6
CONTINUOUS
10
-5.19084
20
-1.11443
11
-5.18905
21
-1.10699
0
LINE
8
BLACK
6
CONTINUOUS
10
-5.18905
20
-1.10699
11
-5.18613
21
-1.09993
0
LINE
8
BLACK
6
CONTINUOUS
10
-5.18613
20
-1.09993
11
-5.18213
21
-1.09341
0
LINE
8
BLACK
6
CONTINUOUS
10
-5.18213
20
-1.09341
11
-5.17717
21
-1.0876
0
LINE
8
BLACK
6
CONTINUOUS
10
-5.17717
20
-1.0876
11
-5.17135
21
-1.08263
0
LINE
8
BLACK
6
CONTINUOUS
10
-5.17135
20
-1.08263
11
-5.16484
21
-1.07864
0
LINE
8
BLACK
6
CONTINUOUS
10
-5.16484
20
-1.07864
11
-5.15777
21
-1.07571
0
LINE
8
BLACK
6
CONTINUOUS
10
-5.15777
20
-1.07571
11
-5.15034
21
-1.07393
0
LINE
8
BLACK
6
CONTINUOUS
10
-5.15034
20
-1.07393
11
-5.14272
21
-1.07333
0
LINE
8
BLACK
6
CONTINUOUS
10
-5.14272
20
-1.07333
11
-4.48819
21
-1.07333
0
LINE
8
BLACK
6
CONTINUOUS
10
-4.48819
20
-1.07333
11
-4.48785
21
-1.07347
0
LINE
8
BLACK
6
CONTINUOUS
10
-4.48785
20
-1.07347
11
-4.48038
21
-1.07281
0
LINE
8
BLACK
6
CONTINUOUS
10
-4.48038
20
-1.07281
11
-4.47281
21
-1.07079
0
LINE
8
BLACK
6
CONTINUOUS
10
-4.47281
20
-1.07079
11
-4.46571
21
-1.06748
0
LINE
8
BLACK
6
CONTINUOUS
10
-4.46571
20
-1.06748
11
-4.45929
21
-1.06298
0
LINE
8
BLACK
6
CONTINUOUS
10
-4.45929
20
-1.06298
11
-4.45375
21
-1.05744
0
LINE
8
BLACK
6
CONTINUOUS
10
-4.45375
20
-1.05744
11
-4.44926
21
-1.05102
0
LINE
8
BLACK
6
CONTINUOUS
10
-4.44926
20
-1.05102
11
-4.44595
21
-1.04392
0
LINE
8
BLACK
6
CONTINUOUS
10
-4.44595
20
-1.04392
11
-4.44392
21
-1.03635
0
LINE
8
BLACK
6
CONTINUOUS
10
-4.44392
20
-1.03635
11
-4.44326
21
-1.02888
0
LINE
8
BLACK
6
CONTINUOUS
10
-4.44326
20
-1.02888
11
-4.44341
21
-1.02854
0
LINE
8
BLACK
6
CONTINUOUS
10
-4.44341
20
-1.02854
11
-4.44341
21
-0.327264
0
LINE
8
BLACK
6
CONTINUOUS
10
-4.44341
20
-0.327264
11
-4.44281
21
-0.319642
0
LINE
8
BLACK
6
CONTINUOUS
10
-4.44281
20
-0.319642
11
-4.44102
21
-0.312208
0
LINE
8
BLACK
6
CONTINUOUS
10
-4.44102
20
-0.312208
11
-4.4381
21
-0.305145
0
LINE
8
BLACK
6
CONTINUOUS
10
-4.4381
20
-0.305145
11
-4.4341
21
-0.298627
0
LINE
8
BLACK
6
CONTINUOUS
10
-4.4341
20
-0.298627
11
-4.42914
21
-0.292813
0
LINE
8
BLACK
6
CONTINUOUS
10
-4.42914
20
-0.292813
11
-4.42332
21
-0.287848
0
LINE
8
BLACK
6
CONTINUOUS
10
-4.42332
20
-0.287848
11
-4.4168
21
-0.283854
0
LINE
8
BLACK
6
CONTINUOUS
10
-4.4168
20
-0.283854
11
-4.40974
21
-0.280928
0
LINE
8
BLACK
6
CONTINUOUS
10
-4.40974
20
-0.280928
11
-4.40231
21
-0.279143
0
LINE
8
BLACK
6
CONTINUOUS
10
-4.40231
20
-0.279143
11
-4.39469
21
-0.278543
0
LINE
8
BLACK
6
CONTINUOUS
10
-4.39469
20
-0.278543
11
-2.99213
21
-0.278543
0
LINE
8
BLACK
6
CONTINUOUS
10
-2.99213
20
-0.278543
11
-2.99179
21
-0.278685
0
LINE
8
BLACK
6
CONTINUOUS
10
-2.99179
20
-0.278685
11
-2.98432
21
-0.278031
0
LINE
8
BLACK
6
CONTINUOUS
10
-2.98432
20
-0.278031
11
-2.97675
21
-0.276003
0
LINE
8
BLACK
6
CONTINUOUS
10
-2.97675
20
-0.276003
11
-2.96965
21
-0.272692
0
LINE
8
BLACK
6
CONTINUOUS
10
-2.96965
20
-0.272692
11
-2.96323
21
-0.268197
0
LINE
8
BLACK
6
CONTINUOUS
10
-2.96323
20
-0.268197
11
-2.95769
21
-0.262656
0
LINE
8
BLACK
6
CONTINUOUS
10
-2.95769
20
-0.262656
11
-2.95319
21
-0.256237
0
LINE
8
BLACK
6
CONTINUOUS
10
-2.95319
20
-0.256237
11
-2.94988
21
-0.249135
0
LINE
8
BLACK
6
CONTINUOUS
10
-2.94988
20
-0.249135
11
-2.94785
21
-0.241566
0
LINE
8
BLACK
6
CONTINUOUS
10
-2.94785
20
-0.241566
11
-2.9472
21
-0.234101
0
LINE
8
BLACK
6
CONTINUOUS
10
-2.9472
20
-0.234101
11
-2.94734
21
-0.23376
0
LINE
8
BLACK
6
CONTINUOUS
10
-2.94734
20
-0.23376
11
-2.94734
21
-0.0467519
0
LINE
8
BLACK
6
CONTINUOUS
10
-2.94734
20
-0.0467519
11
-2.94674
21
-0.0391304
0
LINE
8
BLACK
6
CONTINUOUS
10
-2.94674
20
-0.0391304
11
-2.94496
21
-0.0316965
0
LINE
8
BLACK
6
CONTINUOUS
10
-2.94496
20
-0.0316965
11
-2.94203
21
-0.0246333
0
LINE
8
BLACK
6
CONTINUOUS
10
-2.94203
20
-0.0246333
11
-2.93804
21
-0.0181148
0
LINE
8
BLACK
6
CONTINUOUS
10
-2.93804
20
-0.0181148
11
-2.93307
21
-0.0123014
0
LINE
8
BLACK
6
CONTINUOUS
10
-2.93307
20
-0.0123014
11
-2.92726
21
-0.0073363
0
LINE
8
BLACK
6
CONTINUOUS
10
-2.92726
20
-0.0073363
11
-2.92074
21
-0.00334173
0
LINE
8
BLACK
6
CONTINUOUS
10
-2.92074
20
-0.00334173
11
-2.91368
21
-0.000416063
0
LINE
8
BLACK
6
CONTINUOUS
10
-2.91368
20
-0.000416063
11
-2.90624
21
0.00136866
0
LINE
8
BLACK
6
CONTINUOUS
10
-2.90624
20
0.00136866
11
-2.89862
21
0.0019685
0
LINE
8
BLACK
6
CONTINUOUS
10
-2.89862
20
0.0019685
11
-2.24409
21
0.0019685
0
LINE
8
BLACK
6
CONTINUOUS
10
-2.24409
20
0.0019685
11
-2.24375
21
0.00182728
0
LINE
8
BLACK
6
CONTINUOUS
10
-2.24375
20
0.00182728
11
-2.23629
21
0.00248039
0
LINE
8
BLACK
6
CONTINUOUS
10
-2.23629
20
0.00248039
11
-2.22872
21
0.00450854
0
LINE
8
BLACK
6
CONTINUOUS
10
-2.22872
20
0.00450854
11
-2.22162
21
0.00782024
0
LINE
8
BLACK
6
CONTINUOUS
10
-2.22162
20
0.00782024
11
-2.2152
21
0.0123148
0
LINE
8
BLACK
6
CONTINUOUS
10
-2.2152
20
0.0123148
11
-2.20966
21
0.0178557
0
LINE
8
BLACK
6
CONTINUOUS
10
-2.20966
20
0.0178557
11
-2.20516
21
0.0242747
0
LINE
8
BLACK
6
CONTINUOUS
10
-2.20516
20
0.0242747
11
-2.20185
21
0.0313766
0
LINE
8
BLACK
6
CONTINUOUS
10
-2.20185
20
0.0313766
11
-2.19982
21
0.0389457
0
LINE
8
BLACK
6
CONTINUOUS
10
-2.19982
20
0.0389457
11
-2.19917
21
0.046411
0
LINE
8
BLACK
6
CONTINUOUS
10
-2.19917
20
0.046411
11
-2.19931
21
0.046752
0
LINE
8
BLACK
6
CONTINUOUS
10
-2.19931
20
0.046752
11
-2.19931
21
0.187008
0
LINE
8
BLACK
6
CONTINUOUS
10
-2.19931
20
0.187008
11
-2.19871
21
0.194629
0
LINE
8
BLACK
6
CONTINUOUS
10
-2.19871
20
0.194629
11
-2.19693
21
0.202063
0
LINE
8
BLACK
6
CONTINUOUS
10
-2.19693
20
0.202063
11
-2.194
21
0.209126
0
LINE
8
BLACK
6
CONTINUOUS
10
-2.194
20
0.209126
11
-2.19001
21
0.215645
0
LINE
8
BLACK
6
CONTINUOUS
10
-2.19001
20
0.215645
11
-2.18504
21
0.221458
0
LINE
8
BLACK
6
CONTINUOUS
10
-2.18504
20
0.221458
11
-2.17923
21
0.226424
0
LINE
8
BLACK
6
CONTINUOUS
10
-2.17923
20
0.226424
11
-2.17271
21
0.230418
0
LINE
8
BLACK
6
CONTINUOUS
10
-2.17271
20
0.230418
11
-2.16565
21
0.233344
0
LINE
8
BLACK
6
CONTINUOUS
10
-2.16565
20
0.233344
11
-2.15821
21
0.235129
0
LINE
8
BLACK
6
CONTINUOUS
10
-2.15821
20
0.235129
11
-2.15059
21
0.235728
0
LINE
8
BLACK
6
CONTINUOUS
10
-2.15059
20
0.235728
11
-1.49606
21
0.235728
0
LINE
8
BLACK
6
CONTINUOUS
10
-1.49606
20
0.235728
11
-1.48844
21
0.235129
0
LINE
8
BLACK
6
CONTINUOUS
10
-1.48844
20
0.235129
11
-1.48101
21
0.233344
0
LINE
8
BLACK
6
CONTINUOUS
10
-1.48101
20
0.233344
11
-1.47394
21
0.230418
0
LINE
8
BLACK
6
CONTINUOUS
10
-1.47394
20
0.230418
11
-1.46743
21
0.226424
0
LINE
8
BLACK
6
CONTINUOUS
10
-1.46743
20
0.226424
11
-1.46161
21
0.221458
0
LINE
8
BLACK
6
CONTINUOUS
10
-1.46161
20
0.221458
11
-1.45665
21
0.215645
0
LINE
8
BLACK
6
CONTINUOUS
10
-1.45665
20
0.215645
11
-1.45265
21
0.209126
0
LINE
8
BLACK
6
CONTINUOUS
10
-1.45265
20
0.209126
11
-1.44973
21
0.202063
0
LINE
8
BLACK
6
CONTINUOUS
10
-1.44973
20
0.202063
11
-1.44794
21
0.194629
0
LINE
8
BLACK
6
CONTINUOUS
10
-1.44794
20
0.194629
11
-1.44734
21
0.187008
0
LINE
8
BLACK
6
CONTINUOUS
10
-1.44734
20
0.187008
11
-1.44734
21
0.0935039
0
LINE
8
BLACK
6
CONTINUOUS
10
-1.44734
20
0.0935039
11
-1.44748
21
0.093163
0
LINE
8
BLACK
6
CONTINUOUS
10
-1.44748
20
0.093163
11
-1.44683
21
0.0856977
0
LINE
8
BLACK
6
CONTINUOUS
10
-1.44683
20
0.0856977
11
-1.4448
21
0.0781286
0
LINE
8
BLACK
6
CONTINUOUS
10
-1.4448
20
0.0781286
11
-1.44149
21
0.0710267
0
LINE
8
BLACK
6
CONTINUOUS
10
-1.44149
20
0.0710267
11
-1.437
21
0.0646077
0
LINE
8
BLACK
6
CONTINUOUS
10
-1.437
20
0.0646077
11
-1.43146
21
0.0590668
0
LINE
8
BLACK
6
CONTINUOUS
10
-1.43146
20
0.0590668
11
-1.42504
21
0.0545722
0
LINE
8
BLACK
6
CONTINUOUS
10
-1.42504
20
0.0545722
11
-1.41793
21
0.0512605
0
LINE
8
BLACK
6
CONTINUOUS
10
-1.41793
20
0.0512605
11
-1.41037
21
0.0492324
0
LINE
8
BLACK
6
CONTINUOUS
10
-1.41037
20
0.0492324
11
-1.4029
21
0.0485793
0
LINE
8
BLACK
6
CONTINUOUS
10
-1.4029
20
0.0485793
11
-1.40256
21
0.0487205
0
LINE
8
BLACK
6
CONTINUOUS
10
-1.40256
20
0.0487205
11
-0.724656
21
0.0487205
0
LINE
8
BLACK
6
CONTINUOUS
10
-0.724656
20
0.0487205
11
-0.724655
21
0.0487204
0
LINE
8
BLACK
6
CONTINUOUS
10
-2.15093
20
0.231933
11
-2.1584
21
0.231279
0
LINE
8
BLACK
6
CONTINUOUS
10
-2.1584
20
0.231279
11
-2.16597
21
0.229251
0
LINE
8
BLACK
6
CONTINUOUS
10
-2.16597
20
0.229251
11
-2.17307
21
0.22594
0
LINE
8
BLACK
6
CONTINUOUS
10
-2.17307
20
0.22594
11
-2.17949
21
0.221445
0
LINE
8
BLACK
6
CONTINUOUS
10
-2.17949
20
0.221445
11
-2.18503
21
0.215904
0
LINE
8
BLACK
6
CONTINUOUS
10
-2.18503
20
0.215904
11
-2.18952
21
0.209485
0
LINE
8
BLACK
6
CONTINUOUS
10
-2.18952
20
0.209485
11
-2.19283
21
0.202383
0
LINE
8
BLACK
6
CONTINUOUS
10
-2.19283
20
0.202383
11
-2.19486
21
0.194814
0
LINE
8
BLACK
6
CONTINUOUS
10
-2.19486
20
0.194814
11
-2.19552
21
0.187349
0
LINE
8
BLACK
6
CONTINUOUS
10
-2.19552
20
0.187349
11
-2.19537
21
0.187008
0
LINE
8
BLACK
6
CONTINUOUS
10
-2.19537
20
0.187008
11
-2.19537
21
0.046752
0
LINE
8
BLACK
6
CONTINUOUS
10
-2.19537
20
0.046752
11
-2.19597
21
0.0391304
0
LINE
8
BLACK
6
CONTINUOUS
10
-2.19597
20
0.0391304
11
-2.19776
21
0.0316965
0
LINE
8
BLACK
6
CONTINUOUS
10
-2.19776
20
0.0316965
11
-2.20068
21
0.0246333
0
LINE
8
BLACK
6
CONTINUOUS
10
-2.20068
20
0.0246333
11
-2.20468
21
0.0181148
0
LINE
8
BLACK
6
CONTINUOUS
10
-2.20468
20
0.0181148
11
-2.20964
21
0.0123014
0
LINE
8
BLACK
6
CONTINUOUS
10
-2.20964
20
0.0123014
11
-2.21546
21
0.0073363
0
LINE
8
BLACK
6
CONTINUOUS
10
-2.21546
20
0.0073363
11
-2.22198
21
0.00334173
0
LINE
8
BLACK
6
CONTINUOUS
10
-2.22198
20
0.00334173
11
-2.22904
21
0.000416063
0
LINE
8
BLACK
6
CONTINUOUS
10
-2.22904
20
0.000416063
11
-2.23647
21
-0.00136866
0
LINE
8
BLACK
6
CONTINUOUS
10
-2.23647
20
-0.00136866
11
-2.24409
21
-0.0019685
0
LINE
8
BLACK
6
CONTINUOUS
10
-2.24409
20
-0.0019685
11
-2.89862
21
-0.0019685
0
LINE
8
BLACK
6
CONTINUOUS
10
-2.89862
20
-0.0019685
11
-2.89896
21
-0.00182728
0
LINE
8
BLACK
6
CONTINUOUS
10
-2.89896
20
-0.00182728
11
-2.90643
21
-0.00248039
0
LINE
8
BLACK
6
CONTINUOUS
10
-2.90643
20
-0.00248039
11
-2.914
21
-0.00450854
0
LINE
8
BLACK
6
CONTINUOUS
10
-2.914
20
-0.00450854
11
-2.9211
21
-0.00782024
0
LINE
8
BLACK
6
CONTINUOUS
10
-2.9211
20
-0.00782024
11
-2.92752
21
-0.0123148
0
LINE
8
BLACK
6
CONTINUOUS
10
-2.92752
20
-0.0123148
11
-2.93306
21
-0.0178557
0
LINE
8
BLACK
6
CONTINUOUS
10
-2.93306
20
-0.0178557
11
-2.93755
21
-0.0242747
0
LINE
8
BLACK
6
CONTINUOUS
10
-2.93755
20
-0.0242747
11
-2.94087
21
-0.0313766
0
LINE
8
BLACK
6
CONTINUOUS
10
-2.94087
20
-0.0313766
11
-2.94289
21
-0.0389457
0
LINE
8
BLACK
6
CONTINUOUS
10
-2.94289
20
-0.0389457
11
-2.94355
21
-0.046411
0
LINE
8
BLACK
6
CONTINUOUS
10
-2.94355
20
-0.046411
11
-2.94341
21
-0.046752
0
LINE
8
BLACK
6
CONTINUOUS
10
-2.94341
20
-0.046752
11
-2.94341
21
-0.23376
0
LINE
8
BLACK
6
CONTINUOUS
10
-2.94341
20
-0.23376
11
-2.94401
21
-0.241381
0
LINE
8
BLACK
6
CONTINUOUS
10
-2.94401
20
-0.241381
11
-2.94579
21
-0.248815
0
LINE
8
BLACK
6
CONTINUOUS
10
-2.94579
20
-0.248815
11
-2.94872
21
-0.255878
0
LINE
8
BLACK
6
CONTINUOUS
10
-2.94872
20
-0.255878
11
-2.95271
21
-0.262397
0
LINE
8
BLACK
6
CONTINUOUS
10
-2.95271
20
-0.262397
11
-2.95768
21
-0.26821
0
LINE
8
BLACK
6
CONTINUOUS
10
-2.95768
20
-0.26821
11
-2.96349
21
-0.273176
0
LINE
8
BLACK
6
CONTINUOUS
10
-2.96349
20
-0.273176
11
-2.97001
21
-0.27717
0
LINE
8
BLACK
6
CONTINUOUS
10
-2.97001
20
-0.27717
11
-2.97707
21
-0.280096
0
LINE
8
BLACK
6
CONTINUOUS
10
-2.97707
20
-0.280096
11
-2.9845
21
-0.28188
0
LINE
8
BLACK
6
CONTINUOUS
10
-2.9845
20
-0.28188
11
-2.99213
21
-0.28248
0
LINE
8
BLACK
6
CONTINUOUS
10
-2.99213
20
-0.28248
11
-4.39469
21
-0.28248
0
LINE
8
BLACK
6
CONTINUOUS
10
-4.39469
20
-0.28248
11
-4.39503
21
-0.282339
0
LINE
8
BLACK
6
CONTINUOUS
10
-4.39503
20
-0.282339
11
-4.40249
21
-0.282992
0
LINE
8
BLACK
6
CONTINUOUS
10
-4.40249
20
-0.282992
11
-4.41006
21
-0.28502
0
LINE
8
BLACK
6
CONTINUOUS
10
-4.41006
20
-0.28502
11
-4.41716
21
-0.288332
0
LINE
8
BLACK
6
CONTINUOUS
10
-4.41716
20
-0.288332
11
-4.42358
21
-0.292827
0
LINE
8
BLACK
6
CONTINUOUS
10
-4.42358
20
-0.292827
11
-4.42912
21
-0.298368
0
LINE
8
BLACK
6
CONTINUOUS
10
-4.42912
20
-0.298368
11
-4.43362
21
-0.304787
0
LINE
8
BLACK
6
CONTINUOUS
10
-4.43362
20
-0.304787
11
-4.43693
21
-0.311888
0
LINE
8
BLACK
6
CONTINUOUS
10
-4.43693
20
-0.311888
11
-4.43896
21
-0.319458
0
LINE
8
BLACK
6
CONTINUOUS
10
-4.43896
20
-0.319458
11
-4.43961
21
-0.326923
0
LINE
8
BLACK
6
CONTINUOUS
10
-4.43961
20
-0.326923
11
-4.43947
21
-0.327264
0
LINE
8
BLACK
6
CONTINUOUS
10
-4.43947
20
-0.327264
11
-4.43947
21
-1.02854
0
LINE
8
BLACK
6
CONTINUOUS
10
-4.43947
20
-1.02854
11
-4.44007
21
-1.03616
0
LINE
8
BLACK
6
CONTINUOUS
10
-4.44007
20
-1.03616
11
-4.44185
21
-1.0436
0
LINE
8
BLACK
6
CONTINUOUS
10
-4.44185
20
-1.0436
11
-4.44478
21
-1.05066
0
LINE
8
BLACK
6
CONTINUOUS
10
-4.44478
20
-1.05066
11
-4.44877
21
-1.05718
0
LINE
8
BLACK
6
CONTINUOUS
10
-4.44877
20
-1.05718
11
-4.45374
21
-1.06299
0
LINE
8
BLACK
6
CONTINUOUS
10
-4.45374
20
-1.06299
11
-4.45955
21
-1.06796
0
LINE
8
BLACK
6
CONTINUOUS
10
-4.45955
20
-1.06796
11
-4.46607
21
-1.07195
0
LINE
8
BLACK
6
CONTINUOUS
10
-4.46607
20
-1.07195
11
-4.47313
21
-1.07488
0
LINE
8
BLACK
6
CONTINUOUS
10
-4.47313
20
-1.07488
11
-4.48057
21
-1.07666
0
LINE
8
BLACK
6
CONTINUOUS
10
-4.48057
20
-1.07666
11
-4.48819
21
-1.07726
0
LINE
8
BLACK
6
CONTINUOUS
10
-4.48819
20
-1.07726
11
-5.14272
21
-1.07726
0
LINE
8
BLACK
6
CONTINUOUS
10
-5.14272
20
-1.07726
11
-5.14306
21
-1.07712
0
LINE
8
BLACK
6
CONTINUOUS
10
-5.14306
20
-1.07712
11
-5.15052
21
-1.07778
0
LINE
8
BLACK
6
CONTINUOUS
10
-5.15052
20
-1.07778
11
-5.15809
21
-1.0798
0
LINE
8
BLACK
6
CONTINUOUS
10
-5.15809
20
-1.0798
11
-5.16519
21
-1.08312
0
LINE
8
BLACK
6
CONTINUOUS
10
-5.16519
20
-1.08312
11
-5.17161
21
-1.08761
0
LINE
8
BLACK
6
CONTINUOUS
10
-5.17161
20
-1.08761
11
-5.17715
21
-1.09315
0
LINE
8
BLACK
6
CONTINUOUS
10
-5.17715
20
-1.09315
11
-5.18165
21
-1.09957
0
LINE
8
BLACK
6
CONTINUOUS
10
-5.18165
20
-1.09957
11
-5.18496
21
-1.10667
0
LINE
8
BLACK
6
CONTINUOUS
10
-5.18496
20
-1.10667
11
-5.18699
21
-1.11424
0
LINE
8
BLACK
6
CONTINUOUS
10
-5.18699
20
-1.11424
11
-5.18764
21
-1.12171
0
LINE
8
BLACK
6
CONTINUOUS
10
-5.18764
20
-1.12171
11
-5.1875
21
-1.12205
0
LINE
8
BLACK
6
CONTINUOUS
10
-5.1875
20
-1.12205
11
-5.1875
21
-1.77657
0
LINE
8
BLACK
6
CONTINUOUS
10
-5.1875
20
-1.77657
11
-5.18764
21
-1.77692
0
LINE
8
BLACK
6
CONTINUOUS
10
-5.18764
20
-1.77692
11
-5.18699
21
-1.78438
0
LINE
8
BLACK
6
CONTINUOUS
10
-5.18699
20
-1.78438
11
-5.18496
21
-1.79195
0
LINE
8
BLACK
6
CONTINUOUS
10
-5.18496
20
-1.79195
11
-5.18165
21
-1.79905
0
LINE
8
BLACK
6
CONTINUOUS
10
-5.18165
20
-1.79905
11
-5.17715
21
-1.80547
0
LINE
8
BLACK
6
CONTINUOUS
10
-5.17715
20
-1.80547
11
-5.17161
21
-1.81101
0
LINE
8
BLACK
6
CONTINUOUS
10
-5.17161
20
-1.81101
11
-5.16519
21
-1.81551
0
LINE
8
BLACK
6
CONTINUOUS
10
-5.16519
20
-1.81551
11
-5.15809
21
-1.81882
0
LINE
8
BLACK
6
CONTINUOUS
10
-5.15809
20
-1.81882
11
-5.15052
21
-1.82085
0
LINE
8
BLACK
6
CONTINUOUS
10
-5.15052
20
-1.82085
11
-5.14306
21
-1.8215
0
LINE
8
BLACK
6
CONTINUOUS
10
-5.14306
20
-1.8215
11
-5.14272
21
-1.82136
0
LINE
8
BLACK
6
CONTINUOUS
10
-5.14272
20
-1.82136
11
-4.48819
21
-1.82136
0
LINE
8
BLACK
6
CONTINUOUS
10
-4.48819
20
-1.82136
11
-4.48057
21
-1.82196
0
LINE
8
BLACK
6
CONTINUOUS
10
-4.48057
20
-1.82196
11
-4.47313
21
-1.82374
0
LINE
8
BLACK
6
CONTINUOUS
10
-4.47313
20
-1.82374
11
-4.46607
21
-1.82667
0
LINE
8
BLACK
6
CONTINUOUS
10
-4.46607
20
-1.82667
11
-4.45955
21
-1.83066
0
LINE
8
BLACK
6
CONTINUOUS
10
-4.45955
20
-1.83066
11
-4.45374
21
-1.83563
0
LINE
8
BLACK
6
CONTINUOUS
10
-4.45374
20
-1.83563
11
-4.44877
21
-1.84144
0
LINE
8
BLACK
6
CONTINUOUS
10
-4.44877
20
-1.84144
11
-4.44478
21
-1.84796
0
LINE
8
BLACK
6
CONTINUOUS
10
-4.44478
20
-1.84796
11
-4.44185
21
-1.85502
0
LINE
8
BLACK
6
CONTINUOUS
10
-4.44185
20
-1.85502
11
-4.44007
21
-1.86246
0
LINE
8
BLACK
6
CONTINUOUS
10
-4.44007
20
-1.86246
11
-4.43947
21
-1.87008
0
LINE
8
BLACK
6
CONTINUOUS
10
-4.43947
20
-1.87008
11
-4.43947
21
-2.47785
0
LINE
8
BLACK
6
CONTINUOUS
10
-4.43947
20
-2.47785
11
-4.43961
21
-2.4782
0
LINE
8
BLACK
6
CONTINUOUS
10
-4.43961
20
-2.4782
11
-4.43896
21
-2.48566
0
LINE
8
BLACK
6
CONTINUOUS
10
-4.43896
20
-2.48566
11
-4.43693
21
-2.49323
0
LINE
8
BLACK
6
CONTINUOUS
10
-4.43693
20
-2.49323
11
-4.43362
21
-2.50033
0
LINE
8
BLACK
6
CONTINUOUS
10
-4.43362
20
-2.50033
11
-4.42912
21
-2.50675
0
LINE
8
BLACK
6
CONTINUOUS
10
-4.42912
20
-2.50675
11
-4.42358
21
-2.51229
0
LINE
8
BLACK
6
CONTINUOUS
10
-4.42358
20
-2.51229
11
-4.41716
21
-2.51679
0
LINE
8
BLACK
6
CONTINUOUS
10
-4.41716
20
-2.51679
11
-4.41006
21
-2.5201
0
LINE
8
BLACK
6
CONTINUOUS
10
-4.41006
20
-2.5201
11
-4.40249
21
-2.52213
0
LINE
8
BLACK
6
CONTINUOUS
10
-4.40249
20
-2.52213
11
-4.39503
21
-2.52278
0
LINE
8
BLACK
6
CONTINUOUS
10
-4.39503
20
-2.52278
11
-4.39469
21
-2.52264
0
LINE
8
BLACK
6
CONTINUOUS
10
-4.39469
20
-2.52264
11
-2.99213
21
-2.52264
0
LINE
8
BLACK
6
CONTINUOUS
10
-2.99213
20
-2.52264
11
-2.99179
21
-2.52278
0
LINE
8
BLACK
6
CONTINUOUS
10
-2.99179
20
-2.52278
11
-2.98432
21
-2.52213
0
LINE
8
BLACK
6
CONTINUOUS
10
-2.98432
20
-2.52213
11
-2.97675
21
-2.5201
0
LINE
8
BLACK
6
CONTINUOUS
10
-2.97675
20
-2.5201
11
-2.96965
21
-2.51679
0
LINE
8
BLACK
6
CONTINUOUS
10
-2.96965
20
-2.51679
11
-2.96323
21
-2.51229
0
LINE
8
BLACK
6
CONTINUOUS
10
-2.96323
20
-2.51229
11
-2.95769
21
-2.50675
0
LINE
8
BLACK
6
CONTINUOUS
10
-2.95769
20
-2.50675
11
-2.95319
21
-2.50033
0
LINE
8
BLACK
6
CONTINUOUS
10
-2.95319
20
-2.50033
11
-2.94988
21
-2.49323
0
LINE
8
BLACK
6
CONTINUOUS
10
-2.94988
20
-2.49323
11
-2.94785
21
-2.48566
0
LINE
8
BLACK
6
CONTINUOUS
10
-2.94785
20
-2.48566
11
-2.9472
21
-2.4782
0
LINE
8
BLACK
6
CONTINUOUS
10
-2.9472
20
-2.4782
11
-2.94734
21
-2.47785
0
LINE
8
BLACK
6
CONTINUOUS
10
-2.94734
20
-2.47785
11
-2.94734
21
-2.29085
0
LINE
8
BLACK
6
CONTINUOUS
10
-2.94734
20
-2.29085
11
-2.94674
21
-2.28322
0
LINE
8
BLACK
6
CONTINUOUS
10
-2.94674
20
-2.28322
11
-2.94496
21
-2.27579
0
LINE
8
BLACK
6
CONTINUOUS
10
-2.94496
20
-2.27579
11
-2.94203
21
-2.26873
0
LINE
8
BLACK
6
CONTINUOUS
10
-2.94203
20
-2.26873
11
-2.93804
21
-2.26221
0
LINE
8
BLACK
6
CONTINUOUS
10
-2.93804
20
-2.26221
11
-2.93307
21
-2.2564
0
LINE
8
BLACK
6
CONTINUOUS
10
-2.93307
20
-2.2564
11
-2.92726
21
-2.25143
0
LINE
8
BLACK
6
CONTINUOUS
10
-2.92726
20
-2.25143
11
-2.92074
21
-2.24744
0
LINE
8
BLACK
6
CONTINUOUS
10
-2.92074
20
-2.24744
11
-2.91368
21
-2.24451
0
LINE
8
BLACK
6
CONTINUOUS
10
-2.91368
20
-2.24451
11
-2.90624
21
-2.24273
0
LINE
8
BLACK
6
CONTINUOUS
10
-2.90624
20
-2.24273
11
-2.89862
21
-2.24213
0
LINE
8
BLACK
6
CONTINUOUS
10
-2.89862
20
-2.24213
11
-2.22072
21
-2.24213
0
LINE
8
BLACK
6
CONTINUOUS
10
-2.22072
20
-2.24213
11
-2.21074
21
-2.24282
0
LINE
8
BLACK
6
CONTINUOUS
10
-2.21074
20
-2.24282
11
-2.20096
21
-2.24489
0
LINE
8
BLACK
6
CONTINUOUS
10
-2.20096
20
-2.24489
11
-2.19156
21
-2.24829
0
LINE
8
BLACK
6
CONTINUOUS
10
-2.19156
20
-2.24829
11
-2.18272
21
-2.25295
0
LINE
8
BLACK
6
CONTINUOUS
10
-2.18272
20
-2.25295
11
-2.17461
21
-2.2588
0
LINE
8
BLACK
6
CONTINUOUS
10
-2.17461
20
-2.2588
11
-2.16739
21
-2.26571
0
LINE
8
BLACK
6
CONTINUOUS
10
-2.16739
20
-2.26571
11
-2.16119
21
-2.27355
0
LINE
8
BLACK
6
CONTINUOUS
10
-2.16119
20
-2.27355
11
-2.15613
21
-2.28218
0
LINE
8
BLACK
6
CONTINUOUS
10
-2.15613
20
-2.28218
11
-2.15232
21
-2.29142
0
LINE
8
BLACK
6
CONTINUOUS
10
-2.15232
20
-2.29142
11
-2.15232
21
-2.29142
0
LINE
8
BLACK
6
CONTINUOUS
10
-2.15232
20
-2.29142
11
-2.15233
21
-2.29148
0
LINE
8
BLACK
6
CONTINUOUS
10
-2.15233
20
-2.29148
11
-2.15229
21
-2.29153
0
LINE
8
BLACK
6
CONTINUOUS
10
-2.15229
20
-2.29153
11
-1.98012
21
-2.91901
0
LINE
8
BLACK
6
CONTINUOUS
10
-1.98012
20
-2.91901
11
-1.98017
21
-2.91938
0
LINE
8
BLACK
6
CONTINUOUS
10
-1.98017
20
-2.91938
11
-1.97608
21
-2.93066
0
LINE
8
BLACK
6
CONTINUOUS
10
-1.97608
20
-2.93066
11
-1.9706
21
-2.94178
0
LINE
8
BLACK
6
CONTINUOUS
10
-1.9706
20
-2.94178
11
-1.96394
21
-2.95223
0
LINE
8
BLACK
6
CONTINUOUS
10
-1.96394
20
-2.95223
11
-1.95618
21
-2.96189
0
LINE
8
BLACK
6
CONTINUOUS
10
-1.95618
20
-2.96189
11
-1.9474
21
-2.97064
0
LINE
8
BLACK
6
CONTINUOUS
10
-1.9474
20
-2.97064
11
-1.93773
21
-2.97838
0
LINE
8
BLACK
6
CONTINUOUS
10
-1.93773
20
-2.97838
11
-1.92726
21
-2.98502
0
LINE
8
BLACK
6
CONTINUOUS
10
-1.92726
20
-2.98502
11
-1.91656
21
-2.99026
0
LINE
8
BLACK
6
CONTINUOUS
10
-1.91656
20
-2.99026
11
-1.9163
21
-2.99023
0
LINE
8
BLACK
6
CONTINUOUS
10
-1.9163
20
-2.99023
11
0.0831767
21
-3.54604
0
LINE
8
BLACK
6
CONTINUOUS
10
0.0831767
20
-3.54604
11
0.0834966
21
-3.54629
0
LINE
8
BLACK
6
CONTINUOUS
10
0.0834966
20
-3.54629
11
0.101076
21
-3.55024
0
LINE
8
BLACK
6
CONTINUOUS
10
0.101076
20
-3.55024
11
0.119297
21
-3.55292
0
LINE
8
BLACK
6
CONTINUOUS
10
0.119297
20
-3.55292
11
0.137668
21
-3.55422
0
LINE
8
BLACK
6
CONTINUOUS
10
0.137668
20
-3.55422
11
0.156084
21
-3.55414
0
LINE
8
BLACK
6
CONTINUOUS
10
0.156084
20
-3.55414
11
0.174442
21
-3.55266
0
LINE
8
BLACK
6
CONTINUOUS
10
0.174442
20
-3.55266
11
0.192637
21
-3.54981
0
LINE
8
BLACK
6
CONTINUOUS
10
0.192637
20
-3.54981
11
0.210566
21
-3.5456
0
LINE
8
BLACK
6
CONTINUOUS
10
0.210566
20
-3.5456
11
0.228126
21
-3.54005
0
LINE
8
BLACK
6
CONTINUOUS
10
0.228126
20
-3.54005
11
0.245219
21
-3.5332
0
LINE
8
BLACK
6
CONTINUOUS
10
0.245219
20
-3.5332
11
0.261748
21
-3.52507
0
LINE
8
BLACK
6
CONTINUOUS
10
0.261748
20
-3.52507
11
0.277618
21
-3.51573
0
LINE
8
BLACK
6
CONTINUOUS
10
0.277618
20
-3.51573
11
0.29274
21
-3.50522
0
LINE
8
BLACK
6
CONTINUOUS
10
0.29274
20
-3.50522
11
0.307028
21
-3.4936
0
LINE
8
BLACK
6
CONTINUOUS
10
0.307028
20
-3.4936
11
0.3204
21
-3.48093
0
LINE
8
BLACK
6
CONTINUOUS
10
0.3204
20
-3.48093
11
0.332486
21
-3.46763
0
LINE
8
BLACK
6
CONTINUOUS
10
0.332486
20
-3.46763
11
0.33257
21
-3.46728
0
LINE
8
BLACK
6
CONTINUOUS
10
0.33257
20
-3.46728
11
0.838653
21
-2.78233
0
LINE
8
BLACK
6
CONTINUOUS
10
0.838653
20
-2.78233
11
0.0457539
21
-2.31592
0
LINE
8
BLACK
6
CONTINUOUS
10
0.0457539
20
-2.31592
11
0.0455984
21
-2.31571
0
LINE
8
BLACK
6
CONTINUOUS
10
0.0455984
20
-2.31571
11
0.04536
21
-2.31561
0
LINE
8
BLACK
6
CONTINUOUS
10
0.04536
20
-2.31561
11
0.0451605
21
-2.31513
0
LINE
8
BLACK
6
CONTINUOUS
10
0.0451605
20
-2.31513
11
0.0448465
21
-2.31472
0
LINE
8
BLACK
6
CONTINUOUS
10
0.0448465
20
-2.31472
11
0.0448822
21
-2.31446
0
LINE
8
BLACK
6
CONTINUOUS
10
0.0448822
20
-2.31446
11
0.0447835
21
-2.31422
0
LINE
8
BLACK
6
CONTINUOUS
10
0.0447835
20
-2.31422
11
0.0447835
21
-0.046752
0
LINE
8
BLACK
6
CONTINUOUS
10
0.0447835
20
-0.046752
11
0.0449247
21
-0.0464109
0
LINE
8
BLACK
6
CONTINUOUS
10
0.0449247
20
-0.0464109
11
0.0442718
21
-0.0389456
0
LINE
8
BLACK
6
CONTINUOUS
10
0.0442718
20
-0.0389456
11
0.0422438
21
-0.0313764
0
LINE
8
BLACK
6
CONTINUOUS
10
0.0422438
20
-0.0313764
11
0.0389322
21
-0.0242744
0
LINE
8
BLACK
6
CONTINUOUS
10
0.0389322
20
-0.0242744
11
0.0344376
21
-0.0178554
0
LINE
8
BLACK
6
CONTINUOUS
10
0.0344376
20
-0.0178554
11
0.0288966
21
-0.0123144
0
LINE
8
BLACK
6
CONTINUOUS
10
0.0288966
20
-0.0123144
11
0.0224776
21
-0.0078198
0
LINE
8
BLACK
6
CONTINUOUS
10
0.0224776
20
-0.0078198
11
0.0153756
21
-0.00450819
0
LINE
8
BLACK
6
CONTINUOUS
10
0.0153756
20
-0.00450819
11
0.00780638
21
-0.0024802
0
LINE
8
BLACK
6
CONTINUOUS
10
0.00780638
20
-0.0024802
11
0.000341024
21
-0.00182724
0
LINE
8
BLACK
6
CONTINUOUS
10
0.000341024
20
-0.00182724
11
0.00017811
21
-0.00189472
0
LINE
8
BLACK
6
CONTINUOUS
10
0.00017811
20
-0.00189472
11
3.93701e-08
21
-0.0019685
0
LINE
8
BLACK
6
CONTINUOUS
10
3.93701e-08
20
-0.0019685
11
-0.677904
21
-0.0019685
0
LINE
8
BLACK
6
CONTINUOUS
10
-0.677904
20
-0.0019685
11
-0.677904
21
-0.00196846
0
LINE
8
BLACK
6
CONTINUOUS
10
-0.677904
20
-0.00196846
11
-0.683543
21
-0.00133346
0
LINE
8
BLACK
6
CONTINUOUS
10
-0.683543
20
-0.00133346
11
-0.6889
21
0.000540827
0
LINE
8
BLACK
6
CONTINUOUS
10
-0.6889
20
0.000540827
11
-0.693706
21
0.00356028
0
LINE
8
BLACK
6
CONTINUOUS
10
-0.693706
20
0.00356028
11
-0.697719
21
0.00757346
0
LINE
8
BLACK
6
CONTINUOUS
10
-0.697719
20
0.00757346
11
-0.700739
21
0.0123791
0
LINE
8
BLACK
6
CONTINUOUS
10
-0.700739
20
0.0123791
11
-0.702613
21
0.0177363
0
LINE
8
BLACK
6
CONTINUOUS
10
-0.702613
20
0.0177363
11
-0.703248
21
0.0233761
0
LINE
8
BLACK
6
CONTINUOUS
10
-0.703248
20
0.0233761
11
-0.703142
21
0.0236332
0
LINE
8
BLACK
6
CONTINUOUS
10
-0.703142
20
0.0236332
11
-0.703652
21
0.02817
0
LINE
8
BLACK
6
CONTINUOUS
10
-0.703652
20
0.02817
11
-0.705246
21
0.0327235
0
LINE
8
BLACK
6
CONTINUOUS
10
-0.705246
20
0.0327235
11
-0.707812
21
0.0368083
0
LINE
8
BLACK
6
CONTINUOUS
10
-0.707812
20
0.0368083
11
-0.711223
21
0.0402195
0
LINE
8
BLACK
6
CONTINUOUS
10
-0.711223
20
0.0402195
11
-0.715308
21
0.042786
0
LINE
8
BLACK
6
CONTINUOUS
10
-0.715308
20
0.042786
11
-0.719861
21
0.0443791
0
LINE
8
BLACK
6
CONTINUOUS
10
-0.719861
20
0.0443791
11
-0.724398
21
0.04489
0
LINE
8
BLACK
6
CONTINUOUS
10
-0.724398
20
0.04489
11
-0.724655
21
0.0447835
0
LINE
8
BLACK
6
CONTINUOUS
10
-0.724655
20
0.0447835
11
-0.724655
21
0.0447835
0
LINE
8
BLACK
6
CONTINUOUS
10
-0.724655
20
0.0447835
11
-0.724656
21
0.0447835
0
LINE
8
BLACK
6
CONTINUOUS
10
-0.724656
20
0.0447835
11
-1.40256
21
0.0447835
0
LINE
8
BLACK
6
CONTINUOUS
10
-1.40256
20
0.0447835
11
-1.41018
21
0.0453833
0
LINE
8
BLACK
6
CONTINUOUS
10
-1.41018
20
0.0453833
11
-1.41761
21
0.047168
0
LINE
8
BLACK
6
CONTINUOUS
10
-1.41761
20
0.047168
11
-1.42468
21
0.0500937
0
LINE
8
BLACK
6
CONTINUOUS
10
-1.42468
20
0.0500937
11
-1.4312
21
0.0540883
0
LINE
8
BLACK
6
CONTINUOUS
10
-1.4312
20
0.0540883
11
-1.43701
21
0.0590534
0
LINE
8
BLACK
6
CONTINUOUS
10
-1.43701
20
0.0590534
11
-1.44197
21
0.0648668
0
LINE
8
BLACK
6
CONTINUOUS
10
-1.44197
20
0.0648668
11
-1.44597
21
0.0713853
0
LINE
8
BLACK
6
CONTINUOUS
10
-1.44597
20
0.0713853
11
-1.44889
21
0.0784485
0
LINE
8
BLACK
6
CONTINUOUS
10
-1.44889
20
0.0784485
11
-1.45068
21
0.0858824
0
LINE
8
BLACK
6
CONTINUOUS
10
-1.45068
20
0.0858824
11
-1.45128
21
0.0935039
0
LINE
8
BLACK
6
CONTINUOUS
10
-1.45128
20
0.0935039
11
-1.45128
21
0.187008
0
LINE
8
BLACK
6
CONTINUOUS
10
-1.45128
20
0.187008
11
-1.45114
21
0.187349
0
LINE
8
BLACK
6
CONTINUOUS
10
-1.45114
20
0.187349
11
-1.45179
21
0.194814
0
LINE
8
BLACK
6
CONTINUOUS
10
-1.45179
20
0.194814
11
-1.45382
21
0.202383
0
LINE
8
BLACK
6
CONTINUOUS
10
-1.45382
20
0.202383
11
-1.45713
21
0.209485
0
LINE
8
BLACK
6
CONTINUOUS
10
-1.45713
20
0.209485
11
-1.46163
21
0.215904
0
LINE
8
BLACK
6
CONTINUOUS
10
-1.46163
20
0.215904
11
-1.46717
21
0.221445
0
LINE
8
BLACK
6
CONTINUOUS
10
-1.46717
20
0.221445
11
-1.47359
21
0.22594
0
LINE
8
BLACK
6
CONTINUOUS
10
-1.47359
20
0.22594
11
-1.48069
21
0.229251
0
LINE
8
BLACK
6
CONTINUOUS
10
-1.48069
20
0.229251
11
-1.48826
21
0.231279
0
LINE
8
BLACK
6
CONTINUOUS
10
-1.48826
20
0.231279
11
-1.49572
21
0.231933
0
LINE
8
BLACK
6
CONTINUOUS
10
-1.49572
20
0.231933
11
-1.49606
21
0.231791
0
LINE
8
BLACK
6
CONTINUOUS
10
-1.49606
20
0.231791
11
-2.15059
21
0.231791
0
LINE
8
BLACK
6
CONTINUOUS
10
-2.15059
20
0.231791
11
-2.15093
21
0.231933
0
LINE
8
BLACK
6
CONTINUOUS
10
0.239948
20
-3.25376
11
-0.237389
21
-2.97816
0
LINE
8
BLACK
6
CONTINUOUS
10
-0.237389
20
-2.97816
11
-0.238489
21
-2.97673
0
LINE
8
BLACK
6
CONTINUOUS
10
-0.238489
20
-2.97673
11
-0.238254
21
-2.97494
0
LINE
8
BLACK
6
CONTINUOUS
10
-0.238254
20
-2.97494
11
0.037337
21
-2.4976
0
LINE
8
BLACK
6
CONTINUOUS
10
0.037337
20
-2.4976
11
0.0387714
21
-2.4965
0
LINE
8
BLACK
6
CONTINUOUS
10
0.0387714
20
-2.4965
11
0.0405639
21
-2.49674
0
LINE
8
BLACK
6
CONTINUOUS
10
0.0405639
20
-2.49674
11
0.517901
21
-2.77233
0
LINE
8
BLACK
6
CONTINUOUS
10
0.517901
20
-2.77233
11
0.518564
21
-2.77319
0
LINE
8
BLACK
6
CONTINUOUS
10
0.518564
20
-2.77319
11
0.519001
21
-2.77376
0
LINE
8
BLACK
6
CONTINUOUS
10
0.519001
20
-2.77376
11
0.518765
21
-2.77555
0
LINE
8
BLACK
6
CONTINUOUS
10
0.518765
20
-2.77555
11
0.243175
21
-3.25289
0
LINE
8
BLACK
6
CONTINUOUS
10
0.243175
20
-3.25289
11
0.24174
21
-3.25399
0
LINE
8
BLACK
6
CONTINUOUS
10
0.24174
20
-3.25399
11
0.239948
21
-3.25376
0
LINE
8
BLACK
6
CONTINUOUS
10
0.239948
20
-3.25376
11
0.239948
21
-3.25376
0
LINE
8
BLACK
6
CONTINUOUS
10
-0.232981
20
-2.97525
11
0.240264
21
-3.24848
0
LINE
8
BLACK
6
CONTINUOUS
10
0.240264
20
-3.24848
11
0.513493
21
-2.77524
0
LINE
8
BLACK
6
CONTINUOUS
10
0.513493
20
-2.77524
11
0.0402474
21
-2.50201
0
LINE
8
BLACK
6
CONTINUOUS
10
0.0402474
20
-2.50201
11
-0.232981
21
-2.97525
0
LINE
8
BLACK
6
CONTINUOUS
10
-0.409892
20
-2.46771
11
-0.409892
21
-2.46771
0
LINE
8
BLACK
6
CONTINUOUS
10
-0.409892
20
-2.46771
11
-0.408458
21
-2.46881
0
LINE
8
BLACK
6
CONTINUOUS
10
-0.408458
20
-2.46881
11
-0.408222
21
-2.4706
0
LINE
8
BLACK
6
CONTINUOUS
10
-0.408222
20
-2.4706
11
-0.550878
21
-3.003
0
LINE
8
BLACK
6
CONTINUOUS
10
-0.550878
20
-3.003
11
-0.551978
21
-3.00444
0
LINE
8
BLACK
6
CONTINUOUS
10
-0.551978
20
-3.00444
11
-0.553771
21
-3.00467
0
LINE
8
BLACK
6
CONTINUOUS
10
-0.553771
20
-3.00467
11
-1.08617
21
-2.86202
0
LINE
8
BLACK
6
CONTINUOUS
10
-1.08617
20
-2.86202
11
-1.08761
21
-2.86092
0
LINE
8
BLACK
6
CONTINUOUS
10
-1.08761
20
-2.86092
11
-1.08784
21
-2.85912
0
LINE
8
BLACK
6
CONTINUOUS
10
-1.08784
20
-2.85912
11
-0.945185
21
-2.32672
0
LINE
8
BLACK
6
CONTINUOUS
10
-0.945185
20
-2.32672
11
-0.945185
21
-2.32672
0
LINE
8
BLACK
6
CONTINUOUS
10
-0.945185
20
-2.32672
11
-0.944085
21
-2.32529
0
LINE
8
BLACK
6
CONTINUOUS
10
-0.944085
20
-2.32529
11
-0.942292
21
-2.32505
0
LINE
8
BLACK
6
CONTINUOUS
10
-0.942292
20
-2.32505
11
-0.409892
21
-2.46771
0
LINE
8
BLACK
6
CONTINUOUS
10
-1.08267
20
-2.85806
11
-0.55483
21
-2.9995
0
LINE
8
BLACK
6
CONTINUOUS
10
-0.55483
20
-2.9995
11
-0.413396
21
-2.47166
0
LINE
8
BLACK
6
CONTINUOUS
10
-0.413396
20
-2.47166
11
-0.941233
21
-2.33023
0
LINE
8
BLACK
6
CONTINUOUS
10
-0.941233
20
-2.33023
11
-1.08267
21
-2.85806
0
LINE
8
BLACK
6
CONTINUOUS
10
-1.86683
20
-2.84862
11
-1.86752
21
-2.84695
0
LINE
8
BLACK
6
CONTINUOUS
10
-1.86752
20
-2.84695
11
-1.86752
21
-2.29577
0
LINE
8
BLACK
6
CONTINUOUS
10
-1.86752
20
-2.29577
11
-1.86683
21
-2.2941
0
LINE
8
BLACK
6
CONTINUOUS
10
-1.86683
20
-2.2941
11
-1.86516
21
-2.29341
0
LINE
8
BLACK
6
CONTINUOUS
10
-1.86516
20
-2.29341
11
-1.31398
21
-2.29341
0
LINE
8
BLACK
6
CONTINUOUS
10
-1.31398
20
-2.29341
11
-1.31231
21
-2.2941
0
LINE
8
BLACK
6
CONTINUOUS
10
-1.31231
20
-2.2941
11
-1.31161
21
-2.29577
0
LINE
8
BLACK
6
CONTINUOUS
10
-1.31161
20
-2.29577
11
-1.31161
21
-2.84695
0
LINE
8
BLACK
6
CONTINUOUS
10
-1.31161
20
-2.84695
11
-1.31231
21
-2.84862
0
LINE
8
BLACK
6
CONTINUOUS
10
-1.31231
20
-2.84862
11
-1.31398
21
-2.84931
0
LINE
8
BLACK
6
CONTINUOUS
10
-1.31398
20
-2.84931
11
-1.86516
21
-2.84931
0
LINE
8
BLACK
6
CONTINUOUS
10
-1.86516
20
-2.84931
11
-1.86683
21
-2.84862
0
LINE
8
BLACK
6
CONTINUOUS
10
-1.8628
20
-2.29813
11
-1.8628
21
-2.84459
0
LINE
8
BLACK
6
CONTINUOUS
10
-1.8628
20
-2.84459
11
-1.31634
21
-2.84459
0
LINE
8
BLACK
6
CONTINUOUS
10
-1.31634
20
-2.84459
11
-1.31634
21
-2.29813
0
LINE
8
BLACK
6
CONTINUOUS
10
-1.31634
20
-2.29813
11
-1.8628
21
-2.29813
0
LINE
8
BLACK
6
CONTINUOUS
10
-4.34468
20
-2.42785
11
-4.34537
21
-2.42618
0
LINE
8
BLACK
6
CONTINUOUS
10
-4.34537
20
-2.42618
11
-4.34537
21
-1.875
0
LINE
8
BLACK
6
CONTINUOUS
10
-4.34537
20
-1.875
11
-4.34468
21
-1.87333
0
LINE
8
BLACK
6
CONTINUOUS
10
-4.34468
20
-1.87333
11
-4.34301
21
-1.87264
0
LINE
8
BLACK
6
CONTINUOUS
10
-4.34301
20
-1.87264
11
-3.79183
21
-1.87264
0
LINE
8
BLACK
6
CONTINUOUS
10
-3.79183
20
-1.87264
11
-3.79016
21
-1.87333
0
LINE
8
BLACK
6
CONTINUOUS
10
-3.79016
20
-1.87333
11
-3.78947
21
-1.875
0
LINE
8
BLACK
6
CONTINUOUS
10
-3.78947
20
-1.875
11
-3.78947
21
-2.42618
0
LINE
8
BLACK
6
CONTINUOUS
10
-3.78947
20
-2.42618
11
-3.79016
21
-2.42785
0
LINE
8
BLACK
6
CONTINUOUS
10
-3.79016
20
-2.42785
11
-3.79183
21
-2.42854
0
LINE
8
BLACK
6
CONTINUOUS
10
-3.79183
20
-2.42854
11
-4.34301
21
-2.42854
0
LINE
8
BLACK
6
CONTINUOUS
10
-4.34301
20
-2.42854
11
-4.34468
21
-2.42785
0
LINE
8
BLACK
6
CONTINUOUS
10
-4.34065
20
-1.87736
11
-4.34065
21
-2.42382
0
LINE
8
BLACK
6
CONTINUOUS
10
-4.34065
20
-2.42382
11
-3.79419
21
-2.42382
0
LINE
8
BLACK
6
CONTINUOUS
10
-3.79419
20
-2.42382
11
-3.79419
21
-1.87736
0
LINE
8
BLACK
6
CONTINUOUS
10
-3.79419
20
-1.87736
11
-4.34065
21
-1.87736
0
LINE
8
BLACK
6
CONTINUOUS
10
-3.59665
20
-2.42785
11
-3.59734
21
-2.42618
0
LINE
8
BLACK
6
CONTINUOUS
10
-3.59734
20
-2.42618
11
-3.59734
21
-1.875
0
LINE
8
BLACK
6
CONTINUOUS
10
-3.59734
20
-1.875
11
-3.59665
21
-1.87333
0
LINE
8
BLACK
6
CONTINUOUS
10
-3.59665
20
-1.87333
11
-3.59498
21
-1.87264
0
LINE
8
BLACK
6
CONTINUOUS
10
-3.59498
20
-1.87264
11
-3.0438
21
-1.87264
0
LINE
8
BLACK
6
CONTINUOUS
10
-3.0438
20
-1.87264
11
-3.04213
21
-1.87333
0
LINE
8
BLACK
6
CONTINUOUS
10
-3.04213
20
-1.87333
11
-3.04144
21
-1.875
0
LINE
8
BLACK
6
CONTINUOUS
10
-3.04144
20
-1.875
11
-3.04144
21
-2.42618
0
LINE
8
BLACK
6
CONTINUOUS
10
-3.04144
20
-2.42618
11
-3.04213
21
-2.42785
0
LINE
8
BLACK
6
CONTINUOUS
10
-3.04213
20
-2.42785
11
-3.0438
21
-2.42854
0
LINE
8
BLACK
6
CONTINUOUS
10
-3.0438
20
-2.42854
11
-3.59498
21
-2.42854
0
LINE
8
BLACK
6
CONTINUOUS
10
-3.59498
20
-2.42854
11
-3.59665
21
-2.42785
0
LINE
8
BLACK
6
CONTINUOUS
10
-3.59262
20
-1.87736
11
-3.59262
21
-2.42382
0
LINE
8
BLACK
6
CONTINUOUS
10
-3.59262
20
-2.42382
11
-3.04616
21
-2.42382
0
LINE
8
BLACK
6
CONTINUOUS
10
-3.04616
20
-2.42382
11
-3.04616
21
-1.87736
0
LINE
8
BLACK
6
CONTINUOUS
10
-3.04616
20
-1.87736
11
-3.59262
21
-1.87736
0
LINE
8
BLACK
6
CONTINUOUS
10
-2.84862
20
-2.14734
11
-2.84931
21
-2.14567
0
LINE
8
BLACK
6
CONTINUOUS
10
-2.84931
20
-2.14567
11
-2.84931
21
-1.59449
0
LINE
8
BLACK
6
CONTINUOUS
10
-2.84931
20
-1.59449
11
-2.84862
21
-1.59282
0
LINE
8
BLACK
6
CONTINUOUS
10
-2.84862
20
-1.59282
11
-2.84695
21
-1.59213
0
LINE
8
BLACK
6
CONTINUOUS
10
-2.84695
20
-1.59213
11
-2.29577
21
-1.59213
0
LINE
8
BLACK
6
CONTINUOUS
10
-2.29577
20
-1.59213
11
-2.2941
21
-1.59282
0
LINE
8
BLACK
6
CONTINUOUS
10
-2.2941
20
-1.59282
11
-2.29341
21
-1.59449
0
LINE
8
BLACK
6
CONTINUOUS
10
-2.29341
20
-1.59449
11
-2.29341
21
-2.14567
0
LINE
8
BLACK
6
CONTINUOUS
10
-2.29341
20
-2.14567
11
-2.2941
21
-2.14734
0
LINE
8
BLACK
6
CONTINUOUS
10
-2.2941
20
-2.14734
11
-2.29577
21
-2.14803
0
LINE
8
BLACK
6
CONTINUOUS
10
-2.29577
20
-2.14803
11
-2.84695
21
-2.14803
0
LINE
8
BLACK
6
CONTINUOUS
10
-2.84695
20
-2.14803
11
-2.84862
21
-2.14734
0
LINE
8
BLACK
6
CONTINUOUS
10
-2.84459
20
-1.59685
11
-2.84459
21
-2.14331
0
LINE
8
BLACK
6
CONTINUOUS
10
-2.84459
20
-2.14331
11
-2.29813
21
-2.14331
0
LINE
8
BLACK
6
CONTINUOUS
10
-2.29813
20
-2.14331
11
-2.29813
21
-1.59685
0
LINE
8
BLACK
6
CONTINUOUS
10
-2.29813
20
-1.59685
11
-2.84459
21
-1.59685
0
LINE
8
BLACK
6
CONTINUOUS
10
-0.604525
20
-2.14734
11
-0.605217
21
-2.14567
0
LINE
8
BLACK
6
CONTINUOUS
10
-0.605217
20
-2.14567
11
-0.605217
21
-1.59449
0
LINE
8
BLACK
6
CONTINUOUS
10
-0.605217
20
-1.59449
11
-0.604525
21
-1.59282
0
LINE
8
BLACK
6
CONTINUOUS
10
-0.604525
20
-1.59282
11
-0.602854
21
-1.59213
0
LINE
8
BLACK
6
CONTINUOUS
10
-0.602854
20
-1.59213
11
-0.0516732
21
-1.59213
0
LINE
8
BLACK
6
CONTINUOUS
10
-0.0516732
20
-1.59213
11
-0.0500029
21
-1.59282
0
LINE
8
BLACK
6
CONTINUOUS
10
-0.0500029
20
-1.59282
11
-0.049311
21
-1.59449
0
LINE
8
BLACK
6
CONTINUOUS
10
-0.049311
20
-1.59449
11
-0.049311
21
-2.14567
0
LINE
8
BLACK
6
CONTINUOUS
10
-0.049311
20
-2.14567
11
-0.0500029
21
-2.14734
0
LINE
8
BLACK
6
CONTINUOUS
10
-0.0500029
20
-2.14734
11
-0.0516732
21
-2.14803
0
LINE
8
BLACK
6
CONTINUOUS
10
-0.0516732
20
-2.14803
11
-0.602854
21
-2.14803
0
LINE
8
BLACK
6
CONTINUOUS
10
-0.602854
20
-2.14803
11
-0.604525
21
-2.14734
0
LINE
8
BLACK
6
CONTINUOUS
10
-0.600492
20
-1.59685
11
-0.600492
21
-2.14331
0
LINE
8
BLACK
6
CONTINUOUS
10
-0.600492
20
-2.14331
11
-0.0540354
21
-2.14331
0
LINE
8
BLACK
6
CONTINUOUS
10
-0.0540354
20
-2.14331
11
-0.0540354
21
-1.59685
0
LINE
8
BLACK
6
CONTINUOUS
10
-0.0540354
20
-1.59685
11
-0.600492
21
-1.59685
0
LINE
8
BLACK
6
CONTINUOUS
10
-1.35256
20
-2.10059
11
-1.35325
21
-2.09892
0
LINE
8
BLACK
6
CONTINUOUS
10
-1.35325
20
-2.09892
11
-1.35325
21
-1.54774
0
LINE
8
BLACK
6
CONTINUOUS
10
-1.35325
20
-1.54774
11
-1.35256
21
-1.54607
0
LINE
8
BLACK
6
CONTINUOUS
10
-1.35256
20
-1.54607
11
-1.35089
21
-1.54537
0
LINE
8
BLACK
6
CONTINUOUS
10
-1.35089
20
-1.54537
11
-0.799705
21
-1.54537
0
LINE
8
BLACK
6
CONTINUOUS
10
-0.799705
20
-1.54537
11
-0.798034
21
-1.54607
0
LINE
8
BLACK
6
CONTINUOUS
10
-0.798034
20
-1.54607
11
-0.797343
21
-1.54774
0
LINE
8
BLACK
6
CONTINUOUS
10
-0.797343
20
-1.54774
11
-0.797343
21
-2.09892
0
LINE
8
BLACK
6
CONTINUOUS
10
-0.797343
20
-2.09892
11
-0.798034
21
-2.10059
0
LINE
8
BLACK
6
CONTINUOUS
10
-0.798034
20
-2.10059
11
-0.799705
21
-2.10128
0
LINE
8
BLACK
6
CONTINUOUS
10
-0.799705
20
-2.10128
11
-1.35089
21
-2.10128
0
LINE
8
BLACK
6
CONTINUOUS
10
-1.35089
20
-2.10128
11
-1.35256
21
-2.10059
0
LINE
8
BLACK
6
CONTINUOUS
10
-1.34852
20
-1.5501
11
-1.34852
21
-2.09656
0
LINE
8
BLACK
6
CONTINUOUS
10
-1.34852
20
-2.09656
11
-0.802067
21
-2.09656
0
LINE
8
BLACK
6
CONTINUOUS
10
-0.802067
20
-2.09656
11
-0.802067
21
-1.5501
0
LINE
8
BLACK
6
CONTINUOUS
10
-0.802067
20
-1.5501
11
-1.34852
21
-1.5501
0
LINE
8
BLACK
6
CONTINUOUS
10
-2.10059
20
-1.91358
11
-2.10128
21
-1.91191
0
LINE
8
BLACK
6
CONTINUOUS
10
-2.10128
20
-1.91191
11
-2.10128
21
-1.36073
0
LINE
8
BLACK
6
CONTINUOUS
10
-2.10128
20
-1.36073
11
-2.10059
21
-1.35906
0
LINE
8
BLACK
6
CONTINUOUS
10
-2.10059
20
-1.35906
11
-2.09892
21
-1.35837
0
LINE
8
BLACK
6
CONTINUOUS
10
-2.09892
20
-1.35837
11
-1.54774
21
-1.35837
0
LINE
8
BLACK
6
CONTINUOUS
10
-1.54774
20
-1.35837
11
-1.54607
21
-1.35906
0
LINE
8
BLACK
6
CONTINUOUS
10
-1.54607
20
-1.35906
11
-1.54537
21
-1.36073
0
LINE
8
BLACK
6
CONTINUOUS
10
-1.54537
20
-1.36073
11
-1.54537
21
-1.91191
0
LINE
8
BLACK
6
CONTINUOUS
10
-1.54537
20
-1.91191
11
-1.54607
21
-1.91358
0
LINE
8
BLACK
6
CONTINUOUS
10
-1.54607
20
-1.91358
11
-1.54774
21
-1.91427
0
LINE
8
BLACK
6
CONTINUOUS
10
-1.54774
20
-1.91427
11
-2.09892
21
-1.91427
0
LINE
8
BLACK
6
CONTINUOUS
10
-2.09892
20
-1.91427
11
-2.10059
21
-1.91358
0
LINE
8
BLACK
6
CONTINUOUS
10
-2.09656
20
-1.36309
11
-2.09656
21
-1.90955
0
LINE
8
BLACK
6
CONTINUOUS
10
-2.09656
20
-1.90955
11
-1.5501
21
-1.90955
0
LINE
8
BLACK
6
CONTINUOUS
10
-1.5501
20
-1.90955
11
-1.5501
21
-1.36309
0
LINE
8
BLACK
6
CONTINUOUS
10
-1.5501
20
-1.36309
11
-2.09656
21
-1.36309
0
LINE
8
BLACK
6
CONTINUOUS
10
-5.09271
20
-1.72657
11
-5.09341
21
-1.7249
0
LINE
8
BLACK
6
CONTINUOUS
10
-5.09341
20
-1.7249
11
-5.09341
21
-1.17372
0
LINE
8
BLACK
6
CONTINUOUS
10
-5.09341
20
-1.17372
11
-5.09271
21
-1.17205
0
LINE
8
BLACK
6
CONTINUOUS
10
-5.09271
20
-1.17205
11
-5.09104
21
-1.17136
0
LINE
8
BLACK
6
CONTINUOUS
10
-5.09104
20
-1.17136
11
-4.53986
21
-1.17136
0
LINE
8
BLACK
6
CONTINUOUS
10
-4.53986
20
-1.17136
11
-4.53819
21
-1.17205
0
LINE
8
BLACK
6
CONTINUOUS
10
-4.53819
20
-1.17205
11
-4.5375
21
-1.17372
0
LINE
8
BLACK
6
CONTINUOUS
10
-4.5375
20
-1.17372
11
-4.5375
21
-1.7249
0
LINE
8
BLACK
6
CONTINUOUS
10
-4.5375
20
-1.7249
11
-4.53819
21
-1.72657
0
LINE
8
BLACK
6
CONTINUOUS
10
-4.53819
20
-1.72657
11
-4.53986
21
-1.72726
0
LINE
8
BLACK
6
CONTINUOUS
10
-4.53986
20
-1.72726
11
-5.09104
21
-1.72726
0
LINE
8
BLACK
6
CONTINUOUS
10
-5.09104
20
-1.72726
11
-5.09271
21
-1.72657
0
LINE
8
BLACK
6
CONTINUOUS
10
-5.08868
20
-1.17608
11
-5.08868
21
-1.72254
0
LINE
8
BLACK
6
CONTINUOUS
10
-5.08868
20
-1.72254
11
-4.54222
21
-1.72254
0
LINE
8
BLACK
6
CONTINUOUS
10
-4.54222
20
-1.72254
11
-4.54222
21
-1.17608
0
LINE
8
BLACK
6
CONTINUOUS
10
-4.54222
20
-1.17608
11
-5.08868
21
-1.17608
0
LINE
8
BLACK
6
CONTINUOUS
10
-3.59665
20
-1.67982
11
-3.59734
21
-1.67815
0
LINE
8
BLACK
6
CONTINUOUS
10
-3.59734
20
-1.67815
11
-3.59734
21
-1.12697
0
LINE
8
BLACK
6
CONTINUOUS
10
-3.59734
20
-1.12697
11
-3.59665
21
-1.1253
0
LINE
8
BLACK
6
CONTINUOUS
10
-3.59665
20
-1.1253
11
-3.59498
21
-1.12461
0
LINE
8
BLACK
6
CONTINUOUS
10
-3.59498
20
-1.12461
11
-3.0438
21
-1.12461
0
LINE
8
BLACK
6
CONTINUOUS
10
-3.0438
20
-1.12461
11
-3.04213
21
-1.1253
0
LINE
8
BLACK
6
CONTINUOUS
10
-3.04213
20
-1.1253
11
-3.04144
21
-1.12697
0
LINE
8
BLACK
6
CONTINUOUS
10
-3.04144
20
-1.12697
11
-3.04144
21
-1.67815
0
LINE
8
BLACK
6
CONTINUOUS
10
-3.04144
20
-1.67815
11
-3.04213
21
-1.67982
0
LINE
8
BLACK
6
CONTINUOUS
10
-3.04213
20
-1.67982
11
-3.0438
21
-1.68051
0
LINE
8
BLACK
6
CONTINUOUS
10
-3.0438
20
-1.68051
11
-3.59498
21
-1.68051
0
LINE
8
BLACK
6
CONTINUOUS
10
-3.59498
20
-1.68051
11
-3.59665
21
-1.67982
0
LINE
8
BLACK
6
CONTINUOUS
10
-3.59262
20
-1.12933
11
-3.59262
21
-1.67579
0
LINE
8
BLACK
6
CONTINUOUS
10
-3.59262
20
-1.67579
11
-3.04616
21
-1.67579
0
LINE
8
BLACK
6
CONTINUOUS
10
-3.04616
20
-1.67579
11
-3.04616
21
-1.12933
0
LINE
8
BLACK
6
CONTINUOUS
10
-3.04616
20
-1.12933
11
-3.59262
21
-1.12933
0
LINE
8
BLACK
6
CONTINUOUS
10
-4.34468
20
-1.67982
11
-4.34537
21
-1.67815
0
LINE
8
BLACK
6
CONTINUOUS
10
-4.34537
20
-1.67815
11
-4.34537
21
-1.12697
0
LINE
8
BLACK
6
CONTINUOUS
10
-4.34537
20
-1.12697
11
-4.34468
21
-1.1253
0
LINE
8
BLACK
6
CONTINUOUS
10
-4.34468
20
-1.1253
11
-4.34301
21
-1.12461
0
LINE
8
BLACK
6
CONTINUOUS
10
-4.34301
20
-1.12461
11
-3.79183
21
-1.12461
0
LINE
8
BLACK
6
CONTINUOUS
10
-3.79183
20
-1.12461
11
-3.79016
21
-1.1253
0
LINE
8
BLACK
6
CONTINUOUS
10
-3.79016
20
-1.1253
11
-3.78947
21
-1.12697
0
LINE
8
BLACK
6
CONTINUOUS
10
-3.78947
20
-1.12697
11
-3.78947
21
-1.67815
0
LINE
8
BLACK
6
CONTINUOUS
10
-3.78947
20
-1.67815
11
-3.79016
21
-1.67982
0
LINE
8
BLACK
6
CONTINUOUS
10
-3.79016
20
-1.67982
11
-3.79183
21
-1.68051
0
LINE
8
BLACK
6
CONTINUOUS
10
-3.79183
20
-1.68051
11
-4.34301
21
-1.68051
0
LINE
8
BLACK
6
CONTINUOUS
10
-4.34301
20
-1.68051
11
-4.34468
21
-1.67982
0
LINE
8
BLACK
6
CONTINUOUS
10
-4.34065
20
-1.12933
11
-4.34065
21
-1.67579
0
LINE
8
BLACK
6
CONTINUOUS
10
-4.34065
20
-1.67579
11
-3.79419
21
-1.67579
0
LINE
8
BLACK
6
CONTINUOUS
10
-3.79419
20
-1.67579
11
-3.79419
21
-1.12933
0
LINE
8
BLACK
6
CONTINUOUS
10
-3.79419
20
-1.12933
11
-4.34065
21
-1.12933
0
LINE
8
BLACK
6
CONTINUOUS
10
-2.84862
20
-1.39931
11
-2.84931
21
-1.39764
0
LINE
8
BLACK
6
CONTINUOUS
10
-2.84931
20
-1.39764
11
-2.84931
21
-0.846457
0
LINE
8
BLACK
6
CONTINUOUS
10
-2.84931
20
-0.846457
11
-2.84862
21
-0.844786
0
LINE
8
BLACK
6
CONTINUOUS
10
-2.84862
20
-0.844786
11
-2.84695
21
-0.844094
0
LINE
8
BLACK
6
CONTINUOUS
10
-2.84695
20
-0.844094
11
-2.29577
21
-0.844094
0
LINE
8
BLACK
6
CONTINUOUS
10
-2.29577
20
-0.844094
11
-2.2941
21
-0.844786
0
LINE
8
BLACK
6
CONTINUOUS
10
-2.2941
20
-0.844786
11
-2.29341
21
-0.846457
0
LINE
8
BLACK
6
CONTINUOUS
10
-2.29341
20
-0.846457
11
-2.29341
21
-1.39764
0
LINE
8
BLACK
6
CONTINUOUS
10
-2.29341
20
-1.39764
11
-2.2941
21
-1.39931
0
LINE
8
BLACK
6
CONTINUOUS
10
-2.2941
20
-1.39931
11
-2.29577
21
-1.4
0
LINE
8
BLACK
6
CONTINUOUS
10
-2.29577
20
-1.4
11
-2.84695
21
-1.4
0
LINE
8
BLACK
6
CONTINUOUS
10
-2.84695
20
-1.4
11
-2.84862
21
-1.39931
0
LINE
8
BLACK
6
CONTINUOUS
10
-2.84459
20
-0.848819
11
-2.84459
21
-1.39528
0
LINE
8
BLACK
6
CONTINUOUS
10
-2.84459
20
-1.39528
11
-2.29813
21
-1.39528
0
LINE
8
BLACK
6
CONTINUOUS
10
-2.29813
20
-1.39528
11
-2.29813
21
-0.848819
0
LINE
8
BLACK
6
CONTINUOUS
10
-2.29813
20
-0.848819
11
-2.84459
21
-0.848819
0
LINE
8
BLACK
6
CONTINUOUS
10
-0.604525
20
-1.39931
11
-0.605217
21
-1.39764
0
LINE
8
BLACK
6
CONTINUOUS
10
-0.605217
20
-1.39764
11
-0.605217
21
-0.846457
0
LINE
8
BLACK
6
CONTINUOUS
10
-0.605217
20
-0.846457
11
-0.604525
21
-0.844786
0
LINE
8
BLACK
6
CONTINUOUS
10
-0.604525
20
-0.844786
11
-0.602854
21
-0.844094
0
LINE
8
BLACK
6
CONTINUOUS
10
-0.602854
20
-0.844094
11
-0.0516732
21
-0.844094
0
LINE
8
BLACK
6
CONTINUOUS
10
-0.0516732
20
-0.844094
11
-0.0500029
21
-0.844786
0
LINE
8
BLACK
6
CONTINUOUS
10
-0.0500029
20
-0.844786
11
-0.049311
21
-0.846457
0
LINE
8
BLACK
6
CONTINUOUS
10
-0.049311
20
-0.846457
11
-0.049311
21
-1.39764
0
LINE
8
BLACK
6
CONTINUOUS
10
-0.049311
20
-1.39764
11
-0.0500029
21
-1.39931
0
LINE
8
BLACK
6
CONTINUOUS
10
-0.0500029
20
-1.39931
11
-0.0516732
21
-1.4
0
LINE
8
BLACK
6
CONTINUOUS
10
-0.0516732
20
-1.4
11
-0.602854
21
-1.4
0
LINE
8
BLACK
6
CONTINUOUS
10
-0.602854
20
-1.4
11
-0.604525
21
-1.39931
0
LINE
8
BLACK
6
CONTINUOUS
10
-0.600492
20
-0.848819
11
-0.600492
21
-1.39528
0
LINE
8
BLACK
6
CONTINUOUS
10
-0.600492
20
-1.39528
11
-0.0540354
21
-1.39528
0
LINE
8
BLACK
6
CONTINUOUS
10
-0.0540354
20
-1.39528
11
-0.0540354
21
-0.848819
0
LINE
8
BLACK
6
CONTINUOUS
10
-0.0540354
20
-0.848819
11
-0.600492
21
-0.848819
0
LINE
8
BLACK
6
CONTINUOUS
10
-1.35256
20
-1.35256
11
-1.35325
21
-1.35089
0
LINE
8
BLACK
6
CONTINUOUS
10
-1.35325
20
-1.35089
11
-1.35325
21
-0.799705
0
LINE
8
BLACK
6
CONTINUOUS
10
-1.35325
20
-0.799705
11
-1.35256
21
-0.798034
0
LINE
8
BLACK
6
CONTINUOUS
10
-1.35256
20
-0.798034
11
-1.35089
21
-0.797343
0
LINE
8
BLACK
6
CONTINUOUS
10
-1.35089
20
-0.797343
11
-0.799705
21
-0.797343
0
LINE
8
BLACK
6
CONTINUOUS
10
-0.799705
20
-0.797343
11
-0.798034
21
-0.798034
0
LINE
8
BLACK
6
CONTINUOUS
10
-0.798034
20
-0.798034
11
-0.797343
21
-0.799705
0
LINE
8
BLACK
6
CONTINUOUS
10
-0.797343
20
-0.799705
11
-0.797343
21
-1.35089
0
LINE
8
BLACK
6
CONTINUOUS
10
-0.797343
20
-1.35089
11
-0.798034
21
-1.35256
0
LINE
8
BLACK
6
CONTINUOUS
10
-0.798034
20
-1.35256
11
-0.799705
21
-1.35325
0
LINE
8
BLACK
6
CONTINUOUS
10
-0.799705
20
-1.35325
11
-1.35089
21
-1.35325
0
LINE
8
BLACK
6
CONTINUOUS
10
-1.35089
20
-1.35325
11
-1.35256
21
-1.35256
0
LINE
8
BLACK
6
CONTINUOUS
10
-1.34852
20
-0.802067
11
-1.34852
21
-1.34852
0
LINE
8
BLACK
6
CONTINUOUS
10
-1.34852
20
-1.34852
11
-0.802067
21
-1.34852
0
LINE
8
BLACK
6
CONTINUOUS
10
-0.802067
20
-1.34852
11
-0.802067
21
-0.802067
0
LINE
8
BLACK
6
CONTINUOUS
10
-0.802067
20
-0.802067
11
-1.34852
21
-0.802067
0
LINE
8
BLACK
6
CONTINUOUS
10
-2.10059
20
-1.16555
11
-2.10128
21
-1.16388
0
LINE
8
BLACK
6
CONTINUOUS
10
-2.10128
20
-1.16388
11
-2.10128
21
-0.612697
0
LINE
8
BLACK
6
CONTINUOUS
10
-2.10128
20
-0.612697
11
-2.10059
21
-0.611027
0
LINE
8
BLACK
6
CONTINUOUS
10
-2.10059
20
-0.611027
11
-2.09892
21
-0.610335
0
LINE
8
BLACK
6
CONTINUOUS
10
-2.09892
20
-0.610335
11
-1.54774
21
-0.610335
0
LINE
8
BLACK
6
CONTINUOUS
10
-1.54774
20
-0.610335
11
-1.54607
21
-0.611027
0
LINE
8
BLACK
6
CONTINUOUS
10
-1.54607
20
-0.611027
11
-1.54537
21
-0.612697
0
LINE
8
BLACK
6
CONTINUOUS
10
-1.54537
20
-0.612697
11
-1.54537
21
-1.16388
0
LINE
8
BLACK
6
CONTINUOUS
10
-1.54537
20
-1.16388
11
-1.54607
21
-1.16555
0
LINE
8
BLACK
6
CONTINUOUS
10
-1.54607
20
-1.16555
11
-1.54774
21
-1.16624
0
LINE
8
BLACK
6
CONTINUOUS
10
-1.54774
20
-1.16624
11
-2.09892
21
-1.16624
0
LINE
8
BLACK
6
CONTINUOUS
10
-2.09892
20
-1.16624
11
-2.10059
21
-1.16555
0
LINE
8
BLACK
6
CONTINUOUS
10
-2.09656
20
-0.615059
11
-2.09656
21
-1.16152
0
LINE
8
BLACK
6
CONTINUOUS
10
-2.09656
20
-1.16152
11
-1.5501
21
-1.16152
0
LINE
8
BLACK
6
CONTINUOUS
10
-1.5501
20
-1.16152
11
-1.5501
21
-0.615059
0
LINE
8
BLACK
6
CONTINUOUS
10
-1.5501
20
-0.615059
11
-2.09656
21
-0.615059
0
LINE
8
BLACK
6
CONTINUOUS
10
-3.59665
20
-0.931788
11
-3.59734
21
-0.930118
0
LINE
8
BLACK
6
CONTINUOUS
10
-3.59734
20
-0.930118
11
-3.59734
21
-0.378937
0
LINE
8
BLACK
6
CONTINUOUS
10
-3.59734
20
-0.378937
11
-3.59665
21
-0.377267
0
LINE
8
BLACK
6
CONTINUOUS
10
-3.59665
20
-0.377267
11
-3.59498
21
-0.376575
0
LINE
8
BLACK
6
CONTINUOUS
10
-3.59498
20
-0.376575
11
-3.0438
21
-0.376575
0
LINE
8
BLACK
6
CONTINUOUS
10
-3.0438
20
-0.376575
11
-3.04213
21
-0.377267
0
LINE
8
BLACK
6
CONTINUOUS
10
-3.04213
20
-0.377267
11
-3.04144
21
-0.378937
0
LINE
8
BLACK
6
CONTINUOUS
10
-3.04144
20
-0.378937
11
-3.04144
21
-0.930118
0
LINE
8
BLACK
6
CONTINUOUS
10
-3.04144
20
-0.930118
11
-3.04213
21
-0.931788
0
LINE
8
BLACK
6
CONTINUOUS
10
-3.04213
20
-0.931788
11
-3.0438
21
-0.93248
0
LINE
8
BLACK
6
CONTINUOUS
10
-3.0438
20
-0.93248
11
-3.59498
21
-0.93248
0
LINE
8
BLACK
6
CONTINUOUS
10
-3.59498
20
-0.93248
11
-3.59665
21
-0.931788
0
LINE
8
BLACK
6
CONTINUOUS
10
-3.59262
20
-0.381299
11
-3.59262
21
-0.927756
0
LINE
8
BLACK
6
CONTINUOUS
10
-3.59262
20
-0.927756
11
-3.04616
21
-0.927756
0
LINE
8
BLACK
6
CONTINUOUS
10
-3.04616
20
-0.927756
11
-3.04616
21
-0.381299
0
LINE
8
BLACK
6
CONTINUOUS
10
-3.04616
20
-0.381299
11
-3.59262
21
-0.381299
0
LINE
8
BLACK
6
CONTINUOUS
10
-4.34468
20
-0.931788
11
-4.34537
21
-0.930118
0
LINE
8
BLACK
6
CONTINUOUS
10
-4.34537
20
-0.930118
11
-4.34537
21
-0.378937
0
LINE
8
BLACK
6
CONTINUOUS
10
-4.34537
20
-0.378937
11
-4.34468
21
-0.377267
0
LINE
8
BLACK
6
CONTINUOUS
10
-4.34468
20
-0.377267
11
-4.34301
21
-0.376575
0
LINE
8
BLACK
6
CONTINUOUS
10
-4.34301
20
-0.376575
11
-3.79183
21
-0.376575
0
LINE
8
BLACK
6
CONTINUOUS
10
-3.79183
20
-0.376575
11
-3.79016
21
-0.377267
0
LINE
8
BLACK
6
CONTINUOUS
10
-3.79016
20
-0.377267
11
-3.78947
21
-0.378937
0
LINE
8
BLACK
6
CONTINUOUS
10
-3.78947
20
-0.378937
11
-3.78947
21
-0.930118
0
LINE
8
BLACK
6
CONTINUOUS
10
-3.78947
20
-0.930118
11
-3.79016
21
-0.931788
0
LINE
8
BLACK
6
CONTINUOUS
10
-3.79016
20
-0.931788
11
-3.79183
21
-0.93248
0
LINE
8
BLACK
6
CONTINUOUS
10
-3.79183
20
-0.93248
11
-4.34301
21
-0.93248
0
LINE
8
BLACK
6
CONTINUOUS
10
-4.34301
20
-0.93248
11
-4.34468
21
-0.931788
0
LINE
8
BLACK
6
CONTINUOUS
10
-4.34065
20
-0.381299
11
-4.34065
21
-0.927756
0
LINE
8
BLACK
6
CONTINUOUS
10
-4.34065
20
-0.927756
11
-3.79419
21
-0.927756
0
LINE
8
BLACK
6
CONTINUOUS
10
-3.79419
20
-0.927756
11
-3.79419
21
-0.381299
0
LINE
8
BLACK
6
CONTINUOUS
10
-3.79419
20
-0.381299
11
-4.34065
21
-0.381299
0
LINE
8
BLACK
6
CONTINUOUS
10
-2.84862
20
-0.651277
11
-2.84931
21
-0.649606
0
LINE
8
BLACK
6
CONTINUOUS
10
-2.84931
20
-0.649606
11
-2.84931
21
-0.0984252
0
LINE
8
BLACK
6
CONTINUOUS
10
-2.84931
20
-0.0984252
11
-2.84862
21
-0.0967549
0
LINE
8
BLACK
6
CONTINUOUS
10
-2.84862
20
-0.0967549
11
-2.84695
21
-0.096063
0
LINE
8
BLACK
6
CONTINUOUS
10
-2.84695
20
-0.096063
11
-2.29577
21
-0.096063
0
LINE
8
BLACK
6
CONTINUOUS
10
-2.29577
20
-0.096063
11
-2.2941
21
-0.0967549
0
LINE
8
BLACK
6
CONTINUOUS
10
-2.2941
20
-0.0967549
11
-2.29341
21
-0.0984252
0
LINE
8
BLACK
6
CONTINUOUS
10
-2.29341
20
-0.0984252
11
-2.29341
21
-0.649606
0
LINE
8
BLACK
6
CONTINUOUS
10
-2.29341
20
-0.649606
11
-2.2941
21
-0.651277
0
LINE
8
BLACK
6
CONTINUOUS
10
-2.2941
20
-0.651277
11
-2.29577
21
-0.651969
0
LINE
8
BLACK
6
CONTINUOUS
10
-2.29577
20
-0.651969
11
-2.84695
21
-0.651969
0
LINE
8
BLACK
6
CONTINUOUS
10
-2.84695
20
-0.651969
11
-2.84862
21
-0.651277
0
LINE
8
BLACK
6
CONTINUOUS
10
-2.84459
20
-0.100787
11
-2.84459
21
-0.647244
0
LINE
8
BLACK
6
CONTINUOUS
10
-2.84459
20
-0.647244
11
-2.29813
21
-0.647244
0
LINE
8
BLACK
6
CONTINUOUS
10
-2.29813
20
-0.647244
11
-2.29813
21
-0.100787
0
LINE
8
BLACK
6
CONTINUOUS
10
-2.29813
20
-0.100787
11
-2.84459
21
-0.100787
0
LINE
8
BLACK
6
CONTINUOUS
10
-0.604525
20
-0.651277
11
-0.605217
21
-0.649606
0
LINE
8
BLACK
6
CONTINUOUS
10
-0.605217
20
-0.649606
11
-0.605217
21
-0.0984252
0
LINE
8
BLACK
6
CONTINUOUS
10
-0.605217
20
-0.0984252
11
-0.604525
21
-0.0967549
0
LINE
8
BLACK
6
CONTINUOUS
10
-0.604525
20
-0.0967549
11
-0.602854
21
-0.096063
0
LINE
8
BLACK
6
CONTINUOUS
10
-0.602854
20
-0.096063
11
-0.0516732
21
-0.096063
0
LINE
8
BLACK
6
CONTINUOUS
10
-0.0516732
20
-0.096063
11
-0.0500029
21
-0.0967549
0
LINE
8
BLACK
6
CONTINUOUS
10
-0.0500029
20
-0.0967549
11
-0.049311
21
-0.0984252
0
LINE
8
BLACK
6
CONTINUOUS
10
-0.049311
20
-0.0984252
11
-0.049311
21
-0.649606
0
LINE
8
BLACK
6
CONTINUOUS
10
-0.049311
20
-0.649606
11
-0.0500029
21
-0.651277
0
LINE
8
BLACK
6
CONTINUOUS
10
-0.0500029
20
-0.651277
11
-0.0516732
21
-0.651969
0
LINE
8
BLACK
6
CONTINUOUS
10
-0.0516732
20
-0.651969
11
-0.602854
21
-0.651969
0
LINE
8
BLACK
6
CONTINUOUS
10
-0.602854
20
-0.651969
11
-0.604525
21
-0.651277
0
LINE
8
BLACK
6
CONTINUOUS
10
-0.600492
20
-0.100787
11
-0.600492
21
-0.647244
0
LINE
8
BLACK
6
CONTINUOUS
10
-0.600492
20
-0.647244
11
-0.0540354
21
-0.647244
0
LINE
8
BLACK
6
CONTINUOUS
10
-0.0540354
20
-0.647244
11
-0.0540354
21
-0.100787
0
LINE
8
BLACK
6
CONTINUOUS
10
-0.0540354
20
-0.100787
11
-0.600492
21
-0.100787
0
LINE
8
BLACK
6
CONTINUOUS
10
-1.35256
20
-0.604525
11
-1.35325
21
-0.602854
0
LINE
8
BLACK
6
CONTINUOUS
10
-1.35325
20
-0.602854
11
-1.35325
21
-0.0516732
0
LINE
8
BLACK
6
CONTINUOUS
10
-1.35325
20
-0.0516732
11
-1.35256
21
-0.0500029
0
LINE
8
BLACK
6
CONTINUOUS
10
-1.35256
20
-0.0500029
11
-1.35089
21
-0.049311
0
LINE
8
BLACK
6
CONTINUOUS
10
-1.35089
20
-0.049311
11
-0.799705
21
-0.049311
0
LINE
8
BLACK
6
CONTINUOUS
10
-0.799705
20
-0.049311
11
-0.798034
21
-0.0500029
0
LINE
8
BLACK
6
CONTINUOUS
10
-0.798034
20
-0.0500029
11
-0.797343
21
-0.0516732
0
LINE
8
BLACK
6
CONTINUOUS
10
-0.797343
20
-0.0516732
11
-0.797343
21
-0.602854
0
LINE
8
BLACK
6
CONTINUOUS
10
-0.797343
20
-0.602854
11
-0.798034
21
-0.604525
0
LINE
8
BLACK
6
CONTINUOUS
10
-0.798034
20
-0.604525
11
-0.799705
21
-0.605217
0
LINE
8
BLACK
6
CONTINUOUS
10
-0.799705
20
-0.605217
11
-1.35089
21
-0.605217
0
LINE
8
BLACK
6
CONTINUOUS
10
-1.35089
20
-0.605217
11
-1.35256
21
-0.604525
0
LINE
8
BLACK
6
CONTINUOUS
10
-1.34852
20
-0.0540354
11
-1.34852
21
-0.600492
0
LINE
8
BLACK
6
CONTINUOUS
10
-1.34852
20
-0.600492
11
-0.802067
21
-0.600492
0
LINE
8
BLACK
6
CONTINUOUS
10
-0.802067
20
-0.600492
11
-0.802067
21
-0.0540354
0
LINE
8
BLACK
6
CONTINUOUS
10
-0.802067
20
-0.0540354
11
-1.34852
21
-0.0540354
0
LINE
8
BLACK
6
CONTINUOUS
10
-2.10059
20
-0.417517
11
-2.10128
21
-0.415846
0
LINE
8
BLACK
6
CONTINUOUS
10
-2.10128
20
-0.415846
11
-2.10128
21
0.135335
0
LINE
8
BLACK
6
CONTINUOUS
10
-2.10128
20
0.135335
11
-2.10059
21
0.137005
0
LINE
8
BLACK
6
CONTINUOUS
10
-2.10059
20
0.137005
11
-2.09892
21
0.137697
0
LINE
8
BLACK
6
CONTINUOUS
10
-2.09892
20
0.137697
11
-1.54774
21
0.137697
0
LINE
8
BLACK
6
CONTINUOUS
10
-1.54774
20
0.137697
11
-1.54607
21
0.137005
0
LINE
8
BLACK
6
CONTINUOUS
10
-1.54607
20
0.137005
11
-1.54537
21
0.135335
0
LINE
8
BLACK
6
CONTINUOUS
10
-1.54537
20
0.135335
11
-1.54537
21
-0.415846
0
LINE
8
BLACK
6
CONTINUOUS
10
-1.54537
20
-0.415846
11
-1.54607
21
-0.417517
0
LINE
8
BLACK
6
CONTINUOUS
10
-1.54607
20
-0.417517
11
-1.54774
21
-0.418209
0
LINE
8
BLACK
6
CONTINUOUS
10
-1.54774
20
-0.418209
11
-2.09892
21
-0.418209
0
LINE
8
BLACK
6
CONTINUOUS
10
-2.09892
20
-0.418209
11
-2.10059
21
-0.417517
0
LINE
8
BLACK
6
CONTINUOUS
10
-2.09656
20
0.132972
11
-2.09656
21
-0.413484
0
LINE
8
BLACK
6
CONTINUOUS
10
-2.09656
20
-0.413484
11
-1.5501
21
-0.413484
0
LINE
8
BLACK
6
CONTINUOUS
10
-1.5501
20
-0.413484
11
-1.5501
21
0.132972
0
LINE
8
BLACK
6
CONTINUOUS
10
-1.5501
20
0.132972
11
-2.09656
21
0.132972
0
LINE
8
BLACK
6
CONTINUOUS
10
-0.278525
20
-2.53169
11
-0.275015
21
-2.52416
0
LINE
8
BLACK
6
CONTINUOUS
10
-0.275015
20
-2.52416
11
-0.270253
21
-2.51736
0
LINE
8
BLACK
6
CONTINUOUS
10
-0.270253
20
-2.51736
11
-0.264381
21
-2.51149
0
LINE
8
BLACK
6
CONTINUOUS
10
-0.264381
20
-2.51149
11
-0.257579
21
-2.50673
0
LINE
8
BLACK
6
CONTINUOUS
10
-0.257579
20
-2.50673
11
-0.250053
21
-2.50322
0
LINE
8
BLACK
6
CONTINUOUS
10
-0.250053
20
-2.50322
11
-0.242032
21
-2.50107
0
LINE
8
BLACK
6
CONTINUOUS
10
-0.242032
20
-2.50107
11
-0.23376
21
-2.50034
0
LINE
8
BLACK
6
CONTINUOUS
10
-0.23376
20
-2.50034
11
-0.225488
21
-2.50107
0
LINE
8
BLACK
6
CONTINUOUS
10
-0.225488
20
-2.50107
11
-0.217467
21
-2.50322
0
LINE
8
BLACK
6
CONTINUOUS
10
-0.217467
20
-2.50322
11
-0.209941
21
-2.50673
0
LINE
8
BLACK
6
CONTINUOUS
10
-0.209941
20
-2.50673
11
-0.203139
21
-2.51149
0
LINE
8
BLACK
6
CONTINUOUS
10
-0.203139
20
-2.51149
11
-0.197267
21
-2.51736
0
LINE
8
BLACK
6
CONTINUOUS
10
-0.197267
20
-2.51736
11
-0.192504
21
-2.52416
0
LINE
8
BLACK
6
CONTINUOUS
10
-0.192504
20
-2.52416
11
-0.188995
21
-2.53169
0
LINE
8
BLACK
6
CONTINUOUS
10
-0.188995
20
-2.53169
11
-0.186846
21
-2.53971
0
LINE
8
BLACK
6
CONTINUOUS
10
-0.186846
20
-2.53971
11
-0.186122
21
-2.54798
0
LINE
8
BLACK
6
CONTINUOUS
10
-0.186122
20
-2.54798
11
-0.186846
21
-2.55625
0
LINE
8
BLACK
6
CONTINUOUS
10
-0.186846
20
-2.55625
11
-0.188995
21
-2.56428
0
LINE
8
BLACK
6
CONTINUOUS
10
-0.188995
20
-2.56428
11
-0.192504
21
-2.5718
0
LINE
8
BLACK
6
CONTINUOUS
10
-0.192504
20
-2.5718
11
-0.197267
21
-2.5786
0
LINE
8
BLACK
6
CONTINUOUS
10
-0.197267
20
-2.5786
11
-0.203139
21
-2.58447
0
LINE
8
BLACK
6
CONTINUOUS
10
-0.203139
20
-2.58447
11
-0.209941
21
-2.58924
0
LINE
8
BLACK
6
CONTINUOUS
10
-0.209941
20
-2.58924
11
-0.217467
21
-2.59275
0
LINE
8
BLACK
6
CONTINUOUS
10
-0.217467
20
-2.59275
11
-0.225488
21
-2.5949
0
LINE
8
BLACK
6
CONTINUOUS
10
-0.225488
20
-2.5949
11
-0.23376
21
-2.59562
0
LINE
8
BLACK
6
CONTINUOUS
10
-0.23376
20
-2.59562
11
-0.242032
21
-2.5949
0
LINE
8
BLACK
6
CONTINUOUS
10
-0.242032
20
-2.5949
11
-0.250053
21
-2.59275
0
LINE
8
BLACK
6
CONTINUOUS
10
-0.250053
20
-2.59275
11
-0.257579
21
-2.58924
0
LINE
8
BLACK
6
CONTINUOUS
10
-0.257579
20
-2.58924
11
-0.264381
21
-2.58447
0
LINE
8
BLACK
6
CONTINUOUS
10
-0.264381
20
-2.58447
11
-0.270253
21
-2.5786
0
LINE
8
BLACK
6
CONTINUOUS
10
-0.270253
20
-2.5786
11
-0.275015
21
-2.5718
0
LINE
8
BLACK
6
CONTINUOUS
10
-0.275015
20
-2.5718
11
-0.278525
21
-2.56428
0
LINE
8
BLACK
6
CONTINUOUS
10
-0.278525
20
-2.56428
11
-0.280674
21
-2.55625
0
LINE
8
BLACK
6
CONTINUOUS
10
-0.280674
20
-2.55625
11
-0.281398
21
-2.54798
0
LINE
8
BLACK
6
CONTINUOUS
10
-0.281398
20
-2.54798
11
-0.281299
21
-2.54685
0
LINE
8
BLACK
6
CONTINUOUS
10
-0.281299
20
-2.54685
11
-0.280674
21
-2.53971
0
LINE
8
BLACK
6
CONTINUOUS
10
-0.280674
20
-2.53971
11
-0.278525
21
-2.53169
0
LINE
8
BLACK
6
CONTINUOUS
10
-0.274385
20
-2.56237
11
-0.271083
21
-2.56953
0
LINE
8
BLACK
6
CONTINUOUS
10
-0.271083
20
-2.56953
11
-0.266531
21
-2.57597
0
LINE
8
BLACK
6
CONTINUOUS
10
-0.266531
20
-2.57597
11
-0.260882
21
-2.58148
0
LINE
8
BLACK
6
CONTINUOUS
10
-0.260882
20
-2.58148
11
-0.254324
21
-2.58586
0
LINE
8
BLACK
6
CONTINUOUS
10
-0.254324
20
-2.58586
11
-0.247078
21
-2.58897
0
LINE
8
BLACK
6
CONTINUOUS
10
-0.247078
20
-2.58897
11
-0.239385
21
-2.59071
0
LINE
8
BLACK
6
CONTINUOUS
10
-0.239385
20
-2.59071
11
-0.231504
21
-2.59102
0
LINE
8
BLACK
6
CONTINUOUS
10
-0.231504
20
-2.59102
11
-0.223699
21
-2.58989
0
LINE
8
BLACK
6
CONTINUOUS
10
-0.223699
20
-2.58989
11
-0.216231
21
-2.58735
0
LINE
8
BLACK
6
CONTINUOUS
10
-0.216231
20
-2.58735
11
-0.209349
21
-2.5835
0
LINE
8
BLACK
6
CONTINUOUS
10
-0.209349
20
-2.5835
11
-0.203285
21
-2.57846
0
LINE
8
BLACK
6
CONTINUOUS
10
-0.203285
20
-2.57846
11
-0.198242
21
-2.57239
0
LINE
8
BLACK
6
CONTINUOUS
10
-0.198242
20
-2.57239
11
-0.194389
21
-2.56551
0
LINE
8
BLACK
6
CONTINUOUS
10
-0.194389
20
-2.56551
11
-0.191853
21
-2.55804
0
LINE
8
BLACK
6
CONTINUOUS
10
-0.191853
20
-2.55804
11
-0.190722
21
-2.55024
0
LINE
8
BLACK
6
CONTINUOUS
10
-0.190722
20
-2.55024
11
-0.190663
21
-2.54798
0
LINE
8
BLACK
6
CONTINUOUS
10
-0.190663
20
-2.54798
11
-0.191384
21
-2.54013
0
LINE
8
BLACK
6
CONTINUOUS
10
-0.191384
20
-2.54013
11
-0.193525
21
-2.53254
0
LINE
8
BLACK
6
CONTINUOUS
10
-0.193525
20
-2.53254
11
-0.197013
21
-2.52546
0
LINE
8
BLACK
6
CONTINUOUS
10
-0.197013
20
-2.52546
11
-0.201732
21
-2.51914
0
LINE
8
BLACK
6
CONTINUOUS
10
-0.201732
20
-2.51914
11
-0.207524
21
-2.51379
0
LINE
8
BLACK
6
CONTINUOUS
10
-0.207524
20
-2.51379
11
-0.214194
21
-2.50958
0
LINE
8
BLACK
6
CONTINUOUS
10
-0.214194
20
-2.50958
11
-0.22152
21
-2.50666
0
LINE
8
BLACK
6
CONTINUOUS
10
-0.22152
20
-2.50666
11
-0.229255
21
-2.50512
0
LINE
8
BLACK
6
CONTINUOUS
10
-0.229255
20
-2.50512
11
-0.237141
21
-2.50502
0
LINE
8
BLACK
6
CONTINUOUS
10
-0.237141
20
-2.50502
11
-0.244914
21
-2.50635
0
LINE
8
BLACK
6
CONTINUOUS
10
-0.244914
20
-2.50635
11
-0.252314
21
-2.50908
0
LINE
8
BLACK
6
CONTINUOUS
10
-0.252314
20
-2.50908
11
-0.259092
21
-2.51312
0
LINE
8
BLACK
6
CONTINUOUS
10
-0.259092
20
-2.51312
11
-0.265021
21
-2.51832
0
LINE
8
BLACK
6
CONTINUOUS
10
-0.265021
20
-2.51832
11
-0.269904
21
-2.52451
0
LINE
8
BLACK
6
CONTINUOUS
10
-0.269904
20
-2.52451
11
-0.273576
21
-2.53149
0
LINE
8
BLACK
6
CONTINUOUS
10
-0.273576
20
-2.53149
11
-0.275915
21
-2.53902
0
LINE
8
BLACK
6
CONTINUOUS
10
-0.275915
20
-2.53902
11
-0.276842
21
-2.54685
0
LINE
8
BLACK
6
CONTINUOUS
10
-0.276842
20
-2.54685
11
-0.276326
21
-2.55472
0
LINE
8
BLACK
6
CONTINUOUS
10
-0.276326
20
-2.55472
11
-0.274385
21
-2.56237
0
LINE
8
BLACK
6
CONTINUOUS
10
-2.99014
20
-1.76028
11
-2.98663
21
-1.75276
0
LINE
8
BLACK
6
CONTINUOUS
10
-2.98663
20
-1.75276
11
-2.98187
21
-1.74595
0
LINE
8
BLACK
6
CONTINUOUS
10
-2.98187
20
-1.74595
11
-2.97599
21
-1.74008
0
LINE
8
BLACK
6
CONTINUOUS
10
-2.97599
20
-1.74008
11
-2.96919
21
-1.73532
0
LINE
8
BLACK
6
CONTINUOUS
10
-2.96919
20
-1.73532
11
-2.96167
21
-1.73181
0
LINE
8
BLACK
6
CONTINUOUS
10
-2.96167
20
-1.73181
11
-2.95365
21
-1.72966
0
LINE
8
BLACK
6
CONTINUOUS
10
-2.95365
20
-1.72966
11
-2.94537
21
-1.72894
0
LINE
8
BLACK
6
CONTINUOUS
10
-2.94537
20
-1.72894
11
-2.9371
21
-1.72966
0
LINE
8
BLACK
6
CONTINUOUS
10
-2.9371
20
-1.72966
11
-2.92908
21
-1.73181
0
LINE
8
BLACK
6
CONTINUOUS
10
-2.92908
20
-1.73181
11
-2.92156
21
-1.73532
0
LINE
8
BLACK
6
CONTINUOUS
10
-2.92156
20
-1.73532
11
-2.91475
21
-1.74008
0
LINE
8
BLACK
6
CONTINUOUS
10
-2.91475
20
-1.74008
11
-2.90888
21
-1.74595
0
LINE
8
BLACK
6
CONTINUOUS
10
-2.90888
20
-1.74595
11
-2.90412
21
-1.75276
0
LINE
8
BLACK
6
CONTINUOUS
10
-2.90412
20
-1.75276
11
-2.90061
21
-1.76028
0
LINE
8
BLACK
6
CONTINUOUS
10
-2.90061
20
-1.76028
11
-2.89846
21
-1.7683
0
LINE
8
BLACK
6
CONTINUOUS
10
-2.89846
20
-1.7683
11
-2.89774
21
-1.77657
0
LINE
8
BLACK
6
CONTINUOUS
10
-2.89774
20
-1.77657
11
-2.89846
21
-1.78485
0
LINE
8
BLACK
6
CONTINUOUS
10
-2.89846
20
-1.78485
11
-2.90061
21
-1.79287
0
LINE
8
BLACK
6
CONTINUOUS
10
-2.90061
20
-1.79287
11
-2.90412
21
-1.80039
0
LINE
8
BLACK
6
CONTINUOUS
10
-2.90412
20
-1.80039
11
-2.90888
21
-1.8072
0
LINE
8
BLACK
6
CONTINUOUS
10
-2.90888
20
-1.8072
11
-2.91475
21
-1.81307
0
LINE
8
BLACK
6
CONTINUOUS
10
-2.91475
20
-1.81307
11
-2.92156
21
-1.81783
0
LINE
8
BLACK
6
CONTINUOUS
10
-2.92156
20
-1.81783
11
-2.92908
21
-1.82134
0
LINE
8
BLACK
6
CONTINUOUS
10
-2.92908
20
-1.82134
11
-2.9371
21
-1.82349
0
LINE
8
BLACK
6
CONTINUOUS
10
-2.9371
20
-1.82349
11
-2.94537
21
-1.82421
0
LINE
8
BLACK
6
CONTINUOUS
10
-2.94537
20
-1.82421
11
-2.95365
21
-1.82349
0
LINE
8
BLACK
6
CONTINUOUS
10
-2.95365
20
-1.82349
11
-2.96167
21
-1.82134
0
LINE
8
BLACK
6
CONTINUOUS
10
-2.96167
20
-1.82134
11
-2.96919
21
-1.81783
0
LINE
8
BLACK
6
CONTINUOUS
10
-2.96919
20
-1.81783
11
-2.97599
21
-1.81307
0
LINE
8
BLACK
6
CONTINUOUS
10
-2.97599
20
-1.81307
11
-2.98187
21
-1.8072
0
LINE
8
BLACK
6
CONTINUOUS
10
-2.98187
20
-1.8072
11
-2.98663
21
-1.80039
0
LINE
8
BLACK
6
CONTINUOUS
10
-2.98663
20
-1.80039
11
-2.99014
21
-1.79287
0
LINE
8
BLACK
6
CONTINUOUS
10
-2.99014
20
-1.79287
11
-2.99229
21
-1.78485
0
LINE
8
BLACK
6
CONTINUOUS
10
-2.99229
20
-1.78485
11
-2.99301
21
-1.77657
0
LINE
8
BLACK
6
CONTINUOUS
10
-2.99301
20
-1.77657
11
-2.99291
21
-1.77545
0
LINE
8
BLACK
6
CONTINUOUS
10
-2.99291
20
-1.77545
11
-2.99229
21
-1.7683
0
LINE
8
BLACK
6
CONTINUOUS
10
-2.99229
20
-1.7683
11
-2.99014
21
-1.76028
0
LINE
8
BLACK
6
CONTINUOUS
10
-2.986
20
-1.79096
11
-2.9827
21
-1.79812
0
LINE
8
BLACK
6
CONTINUOUS
10
-2.9827
20
-1.79812
11
-2.97815
21
-1.80456
0
LINE
8
BLACK
6
CONTINUOUS
10
-2.97815
20
-1.80456
11
-2.9725
21
-1.81007
0
LINE
8
BLACK
6
CONTINUOUS
10
-2.9725
20
-1.81007
11
-2.96594
21
-1.81445
0
LINE
8
BLACK
6
CONTINUOUS
10
-2.96594
20
-1.81445
11
-2.95869
21
-1.81756
0
LINE
8
BLACK
6
CONTINUOUS
10
-2.95869
20
-1.81756
11
-2.951
21
-1.8193
0
LINE
8
BLACK
6
CONTINUOUS
10
-2.951
20
-1.8193
11
-2.94312
21
-1.81961
0
LINE
8
BLACK
6
CONTINUOUS
10
-2.94312
20
-1.81961
11
-2.93531
21
-1.81848
0
LINE
8
BLACK
6
CONTINUOUS
10
-2.93531
20
-1.81848
11
-2.92784
21
-1.81595
0
LINE
8
BLACK
6
CONTINUOUS
10
-2.92784
20
-1.81595
11
-2.92096
21
-1.81209
0
LINE
8
BLACK
6
CONTINUOUS
10
-2.92096
20
-1.81209
11
-2.9149
21
-1.80705
0
LINE
8
BLACK
6
CONTINUOUS
10
-2.9149
20
-1.80705
11
-2.90986
21
-1.80099
0
LINE
8
BLACK
6
CONTINUOUS
10
-2.90986
20
-1.80099
11
-2.906
21
-1.7941
0
LINE
8
BLACK
6
CONTINUOUS
10
-2.906
20
-1.7941
11
-2.90347
21
-1.78664
0
LINE
8
BLACK
6
CONTINUOUS
10
-2.90347
20
-1.78664
11
-2.90234
21
-1.77883
0
LINE
8
BLACK
6
CONTINUOUS
10
-2.90234
20
-1.77883
11
-2.90228
21
-1.77657
0
LINE
8
BLACK
6
CONTINUOUS
10
-2.90228
20
-1.77657
11
-2.903
21
-1.76872
0
LINE
8
BLACK
6
CONTINUOUS
10
-2.903
20
-1.76872
11
-2.90514
21
-1.76113
0
LINE
8
BLACK
6
CONTINUOUS
10
-2.90514
20
-1.76113
11
-2.90863
21
-1.75406
0
LINE
8
BLACK
6
CONTINUOUS
10
-2.90863
20
-1.75406
11
-2.91335
21
-1.74774
0
LINE
8
BLACK
6
CONTINUOUS
10
-2.91335
20
-1.74774
11
-2.91914
21
-1.74238
0
LINE
8
BLACK
6
CONTINUOUS
10
-2.91914
20
-1.74238
11
-2.92581
21
-1.73817
0
LINE
8
BLACK
6
CONTINUOUS
10
-2.92581
20
-1.73817
11
-2.93313
21
-1.73525
0
LINE
8
BLACK
6
CONTINUOUS
10
-2.93313
20
-1.73525
11
-2.94087
21
-1.73371
0
LINE
8
BLACK
6
CONTINUOUS
10
-2.94087
20
-1.73371
11
-2.94876
21
-1.73361
0
LINE
8
BLACK
6
CONTINUOUS
10
-2.94876
20
-1.73361
11
-2.95653
21
-1.73495
0
LINE
8
BLACK
6
CONTINUOUS
10
-2.95653
20
-1.73495
11
-2.96393
21
-1.73768
0
LINE
8
BLACK
6
CONTINUOUS
10
-2.96393
20
-1.73768
11
-2.97071
21
-1.74171
0
LINE
8
BLACK
6
CONTINUOUS
10
-2.97071
20
-1.74171
11
-2.97664
21
-1.74691
0
LINE
8
BLACK
6
CONTINUOUS
10
-2.97664
20
-1.74691
11
-2.98152
21
-1.7531
0
LINE
8
BLACK
6
CONTINUOUS
10
-2.98152
20
-1.7531
11
-2.98519
21
-1.76008
0
LINE
8
BLACK
6
CONTINUOUS
10
-2.98519
20
-1.76008
11
-2.98753
21
-1.76761
0
LINE
8
BLACK
6
CONTINUOUS
10
-2.98753
20
-1.76761
11
-2.98846
21
-1.77545
0
LINE
8
BLACK
6
CONTINUOUS
10
-2.98846
20
-1.77545
11
-2.98794
21
-1.78332
0
LINE
8
BLACK
6
CONTINUOUS
10
-2.98794
20
-1.78332
11
-2.986
21
-1.79096
0
LINE
8
BLACK
6
CONTINUOUS
10
-3.73817
20
-1.76028
11
-3.73466
21
-1.75276
0
LINE
8
BLACK
6
CONTINUOUS
10
-3.73466
20
-1.75276
11
-3.7299
21
-1.74595
0
LINE
8
BLACK
6
CONTINUOUS
10
-3.7299
20
-1.74595
11
-3.72403
21
-1.74008
0
LINE
8
BLACK
6
CONTINUOUS
10
-3.72403
20
-1.74008
11
-3.71722
21
-1.73532
0
LINE
8
BLACK
6
CONTINUOUS
10
-3.71722
20
-1.73532
11
-3.7097
21
-1.73181
0
LINE
8
BLACK
6
CONTINUOUS
10
-3.7097
20
-1.73181
11
-3.70168
21
-1.72966
0
LINE
8
BLACK
6
CONTINUOUS
10
-3.70168
20
-1.72966
11
-3.69341
21
-1.72894
0
LINE
8
BLACK
6
CONTINUOUS
10
-3.69341
20
-1.72894
11
-3.68513
21
-1.72966
0
LINE
8
BLACK
6
CONTINUOUS
10
-3.68513
20
-1.72966
11
-3.67711
21
-1.73181
0
LINE
8
BLACK
6
CONTINUOUS
10
-3.67711
20
-1.73181
11
-3.66959
21
-1.73532
0
LINE
8
BLACK
6
CONTINUOUS
10
-3.66959
20
-1.73532
11
-3.66278
21
-1.74008
0
LINE
8
BLACK
6
CONTINUOUS
10
-3.66278
20
-1.74008
11
-3.65691
21
-1.74595
0
LINE
8
BLACK
6
CONTINUOUS
10
-3.65691
20
-1.74595
11
-3.65215
21
-1.75276
0
LINE
8
BLACK
6
CONTINUOUS
10
-3.65215
20
-1.75276
11
-3.64864
21
-1.76028
0
LINE
8
BLACK
6
CONTINUOUS
10
-3.64864
20
-1.76028
11
-3.64649
21
-1.7683
0
LINE
8
BLACK
6
CONTINUOUS
10
-3.64649
20
-1.7683
11
-3.64577
21
-1.77657
0
LINE
8
BLACK
6
CONTINUOUS
10
-3.64577
20
-1.77657
11
-3.64649
21
-1.78485
0
LINE
8
BLACK
6
CONTINUOUS
10
-3.64649
20
-1.78485
11
-3.64864
21
-1.79287
0
LINE
8
BLACK
6
CONTINUOUS
10
-3.64864
20
-1.79287
11
-3.65215
21
-1.80039
0
LINE
8
BLACK
6
CONTINUOUS
10
-3.65215
20
-1.80039
11
-3.65691
21
-1.8072
0
LINE
8
BLACK
6
CONTINUOUS
10
-3.65691
20
-1.8072
11
-3.66278
21
-1.81307
0
LINE
8
BLACK
6
CONTINUOUS
10
-3.66278
20
-1.81307
11
-3.66959
21
-1.81783
0
LINE
8
BLACK
6
CONTINUOUS
10
-3.66959
20
-1.81783
11
-3.67711
21
-1.82134
0
LINE
8
BLACK
6
CONTINUOUS
10
-3.67711
20
-1.82134
11
-3.68513
21
-1.82349
0
LINE
8
BLACK
6
CONTINUOUS
10
-3.68513
20
-1.82349
11
-3.69341
21
-1.82421
0
LINE
8
BLACK
6
CONTINUOUS
10
-3.69341
20
-1.82421
11
-3.70168
21
-1.82349
0
LINE
8
BLACK
6
CONTINUOUS
10
-3.70168
20
-1.82349
11
-3.7097
21
-1.82134
0
LINE
8
BLACK
6
CONTINUOUS
10
-3.7097
20
-1.82134
11
-3.71722
21
-1.81783
0
LINE
8
BLACK
6
CONTINUOUS
10
-3.71722
20
-1.81783
11
-3.72403
21
-1.81307
0
LINE
8
BLACK
6
CONTINUOUS
10
-3.72403
20
-1.81307
11
-3.7299
21
-1.8072
0
LINE
8
BLACK
6
CONTINUOUS
10
-3.7299
20
-1.8072
11
-3.73466
21
-1.80039
0
LINE
8
BLACK
6
CONTINUOUS
10
-3.73466
20
-1.80039
11
-3.73817
21
-1.79287
0
LINE
8
BLACK
6
CONTINUOUS
10
-3.73817
20
-1.79287
11
-3.74032
21
-1.78485
0
LINE
8
BLACK
6
CONTINUOUS
10
-3.74032
20
-1.78485
11
-3.74104
21
-1.77657
0
LINE
8
BLACK
6
CONTINUOUS
10
-3.74104
20
-1.77657
11
-3.74094
21
-1.77545
0
LINE
8
BLACK
6
CONTINUOUS
10
-3.74094
20
-1.77545
11
-3.74032
21
-1.7683
0
LINE
8
BLACK
6
CONTINUOUS
10
-3.74032
20
-1.7683
11
-3.73817
21
-1.76028
0
LINE
8
BLACK
6
CONTINUOUS
10
-3.73403
20
-1.79096
11
-3.73073
21
-1.79812
0
LINE
8
BLACK
6
CONTINUOUS
10
-3.73073
20
-1.79812
11
-3.72618
21
-1.80456
0
LINE
8
BLACK
6
CONTINUOUS
10
-3.72618
20
-1.80456
11
-3.72053
21
-1.81007
0
LINE
8
BLACK
6
CONTINUOUS
10
-3.72053
20
-1.81007
11
-3.71397
21
-1.81445
0
LINE
8
BLACK
6
CONTINUOUS
10
-3.71397
20
-1.81445
11
-3.70672
21
-1.81756
0
LINE
8
BLACK
6
CONTINUOUS
10
-3.70672
20
-1.81756
11
-3.69903
21
-1.8193
0
LINE
8
BLACK
6
CONTINUOUS
10
-3.69903
20
-1.8193
11
-3.69115
21
-1.81961
0
LINE
8
BLACK
6
CONTINUOUS
10
-3.69115
20
-1.81961
11
-3.68334
21
-1.81848
0
LINE
8
BLACK
6
CONTINUOUS
10
-3.68334
20
-1.81848
11
-3.67588
21
-1.81595
0
LINE
8
BLACK
6
CONTINUOUS
10
-3.67588
20
-1.81595
11
-3.66899
21
-1.81209
0
LINE
8
BLACK
6
CONTINUOUS
10
-3.66899
20
-1.81209
11
-3.66293
21
-1.80705
0
LINE
8
BLACK
6
CONTINUOUS
10
-3.66293
20
-1.80705
11
-3.65789
21
-1.80099
0
LINE
8
BLACK
6
CONTINUOUS
10
-3.65789
20
-1.80099
11
-3.65403
21
-1.7941
0
LINE
8
BLACK
6
CONTINUOUS
10
-3.65403
20
-1.7941
11
-3.6515
21
-1.78664
0
LINE
8
BLACK
6
CONTINUOUS
10
-3.6515
20
-1.78664
11
-3.65037
21
-1.77883
0
LINE
8
BLACK
6
CONTINUOUS
10
-3.65037
20
-1.77883
11
-3.65031
21
-1.77657
0
LINE
8
BLACK
6
CONTINUOUS
10
-3.65031
20
-1.77657
11
-3.65103
21
-1.76872
0
LINE
8
BLACK
6
CONTINUOUS
10
-3.65103
20
-1.76872
11
-3.65317
21
-1.76113
0
LINE
8
BLACK
6
CONTINUOUS
10
-3.65317
20
-1.76113
11
-3.65666
21
-1.75406
0
LINE
8
BLACK
6
CONTINUOUS
10
-3.65666
20
-1.75406
11
-3.66138
21
-1.74774
0
LINE
8
BLACK
6
CONTINUOUS
10
-3.66138
20
-1.74774
11
-3.66717
21
-1.74238
0
LINE
8
BLACK
6
CONTINUOUS
10
-3.66717
20
-1.74238
11
-3.67384
21
-1.73817
0
LINE
8
BLACK
6
CONTINUOUS
10
-3.67384
20
-1.73817
11
-3.68117
21
-1.73525
0
LINE
8
BLACK
6
CONTINUOUS
10
-3.68117
20
-1.73525
11
-3.6889
21
-1.73371
0
LINE
8
BLACK
6
CONTINUOUS
10
-3.6889
20
-1.73371
11
-3.69679
21
-1.73361
0
LINE
8
BLACK
6
CONTINUOUS
10
-3.69679
20
-1.73361
11
-3.70456
21
-1.73495
0
LINE
8
BLACK
6
CONTINUOUS
10
-3.70456
20
-1.73495
11
-3.71196
21
-1.73768
0
LINE
8
BLACK
6
CONTINUOUS
10
-3.71196
20
-1.73768
11
-3.71874
21
-1.74171
0
LINE
8
BLACK
6
CONTINUOUS
10
-3.71874
20
-1.74171
11
-3.72467
21
-1.74691
0
LINE
8
BLACK
6
CONTINUOUS
10
-3.72467
20
-1.74691
11
-3.72955
21
-1.7531
0
LINE
8
BLACK
6
CONTINUOUS
10
-3.72955
20
-1.7531
11
-3.73322
21
-1.76008
0
LINE
8
BLACK
6
CONTINUOUS
10
-3.73322
20
-1.76008
11
-3.73556
21
-1.76761
0
LINE
8
BLACK
6
CONTINUOUS
10
-3.73556
20
-1.76761
11
-3.73649
21
-1.77545
0
LINE
8
BLACK
6
CONTINUOUS
10
-3.73649
20
-1.77545
11
-3.73597
21
-1.78332
0
LINE
8
BLACK
6
CONTINUOUS
10
-3.73597
20
-1.78332
11
-3.73403
21
-1.79096
0
LINE
8
BLACK
6
CONTINUOUS
10
-3.73817
20
-1.01225
11
-3.73466
21
-1.00472
0
LINE
8
BLACK
6
CONTINUOUS
10
-3.73466
20
-1.00472
11
-3.7299
21
-0.997922
0
LINE
8
BLACK
6
CONTINUOUS
10
-3.7299
20
-0.997922
11
-3.72403
21
-0.992051
0
LINE
8
BLACK
6
CONTINUOUS
10
-3.72403
20
-0.992051
11
-3.71722
21
-0.987288
0
LINE
8
BLACK
6
CONTINUOUS
10
-3.71722
20
-0.987288
11
-3.7097
21
-0.983778
0
LINE
8
BLACK
6
CONTINUOUS
10
-3.7097
20
-0.983778
11
-3.70168
21
-0.981629
0
LINE
8
BLACK
6
CONTINUOUS
10
-3.70168
20
-0.981629
11
-3.69341
21
-0.980906
0
LINE
8
BLACK
6
CONTINUOUS
10
-3.69341
20
-0.980906
11
-3.68513
21
-0.981629
0
LINE
8
BLACK
6
CONTINUOUS
10
-3.68513
20
-0.981629
11
-3.67711
21
-0.983778
0
LINE
8
BLACK
6
CONTINUOUS
10
-3.67711
20
-0.983778
11
-3.66959
21
-0.987288
0
LINE
8
BLACK
6
CONTINUOUS
10
-3.66959
20
-0.987288
11
-3.66278
21
-0.992051
0
LINE
8
BLACK
6
CONTINUOUS
10
-3.66278
20
-0.992051
11
-3.65691
21
-0.997922
0
LINE
8
BLACK
6
CONTINUOUS
10
-3.65691
20
-0.997922
11
-3.65215
21
-1.00472
0
LINE
8
BLACK
6
CONTINUOUS
10
-3.65215
20
-1.00472
11
-3.64864
21
-1.01225
0
LINE
8
BLACK
6
CONTINUOUS
10
-3.64864
20
-1.01225
11
-3.64649
21
-1.02027
0
LINE
8
BLACK
6
CONTINUOUS
10
-3.64649
20
-1.02027
11
-3.64577
21
-1.02854
0
LINE
8
BLACK
6
CONTINUOUS
10
-3.64577
20
-1.02854
11
-3.64649
21
-1.03682
0
LINE
8
BLACK
6
CONTINUOUS
10
-3.64649
20
-1.03682
11
-3.64864
21
-1.04484
0
LINE
8
BLACK
6
CONTINUOUS
10
-3.64864
20
-1.04484
11
-3.65215
21
-1.05236
0
LINE
8
BLACK
6
CONTINUOUS
10
-3.65215
20
-1.05236
11
-3.65691
21
-1.05916
0
LINE
8
BLACK
6
CONTINUOUS
10
-3.65691
20
-1.05916
11
-3.66278
21
-1.06504
0
LINE
8
BLACK
6
CONTINUOUS
10
-3.66278
20
-1.06504
11
-3.66959
21
-1.0698
0
LINE
8
BLACK
6
CONTINUOUS
10
-3.66959
20
-1.0698
11
-3.67711
21
-1.07331
0
LINE
8
BLACK
6
CONTINUOUS
10
-3.67711
20
-1.07331
11
-3.68513
21
-1.07546
0
LINE
8
BLACK
6
CONTINUOUS
10
-3.68513
20
-1.07546
11
-3.69341
21
-1.07618
0
LINE
8
BLACK
6
CONTINUOUS
10
-3.69341
20
-1.07618
11
-3.70168
21
-1.07546
0
LINE
8
BLACK
6
CONTINUOUS
10
-3.70168
20
-1.07546
11
-3.7097
21
-1.07331
0
LINE
8
BLACK
6
CONTINUOUS
10
-3.7097
20
-1.07331
11
-3.71722
21
-1.0698
0
LINE
8
BLACK
6
CONTINUOUS
10
-3.71722
20
-1.0698
11
-3.72403
21
-1.06504
0
LINE
8
BLACK
6
CONTINUOUS
10
-3.72403
20
-1.06504
11
-3.7299
21
-1.05916
0
LINE
8
BLACK
6
CONTINUOUS
10
-3.7299
20
-1.05916
11
-3.73466
21
-1.05236
0
LINE
8
BLACK
6
CONTINUOUS
10
-3.73466
20
-1.05236
11
-3.73817
21
-1.04484
0
LINE
8
BLACK
6
CONTINUOUS
10
-3.73817
20
-1.04484
11
-3.74032
21
-1.03682
0
LINE
8
BLACK
6
CONTINUOUS
10
-3.74032
20
-1.03682
11
-3.74104
21
-1.02854
0
LINE
8
BLACK
6
CONTINUOUS
10
-3.74104
20
-1.02854
11
-3.74094
21
-1.02742
0
LINE
8
BLACK
6
CONTINUOUS
10
-3.74094
20
-1.02742
11
-3.74032
21
-1.02027
0
LINE
8
BLACK
6
CONTINUOUS
10
-3.74032
20
-1.02027
11
-3.73817
21
-1.01225
0
LINE
8
BLACK
6
CONTINUOUS
10
-3.73403
20
-1.04293
11
-3.73073
21
-1.05009
0
LINE
8
BLACK
6
CONTINUOUS
10
-3.73073
20
-1.05009
11
-3.72618
21
-1.05653
0
LINE
8
BLACK
6
CONTINUOUS
10
-3.72618
20
-1.05653
11
-3.72053
21
-1.06204
0
LINE
8
BLACK
6
CONTINUOUS
10
-3.72053
20
-1.06204
11
-3.71397
21
-1.06642
0
LINE
8
BLACK
6
CONTINUOUS
10
-3.71397
20
-1.06642
11
-3.70672
21
-1.06953
0
LINE
8
BLACK
6
CONTINUOUS
10
-3.70672
20
-1.06953
11
-3.69903
21
-1.07127
0
LINE
8
BLACK
6
CONTINUOUS
10
-3.69903
20
-1.07127
11
-3.69115
21
-1.07158
0
LINE
8
BLACK
6
CONTINUOUS
10
-3.69115
20
-1.07158
11
-3.68334
21
-1.07045
0
LINE
8
BLACK
6
CONTINUOUS
10
-3.68334
20
-1.07045
11
-3.67588
21
-1.06791
0
LINE
8
BLACK
6
CONTINUOUS
10
-3.67588
20
-1.06791
11
-3.66899
21
-1.06406
0
LINE
8
BLACK
6
CONTINUOUS
10
-3.66899
20
-1.06406
11
-3.66293
21
-1.05902
0
LINE
8
BLACK
6
CONTINUOUS
10
-3.66293
20
-1.05902
11
-3.65789
21
-1.05295
0
LINE
8
BLACK
6
CONTINUOUS
10
-3.65789
20
-1.05295
11
-3.65403
21
-1.04607
0
LINE
8
BLACK
6
CONTINUOUS
10
-3.65403
20
-1.04607
11
-3.6515
21
-1.0386
0
LINE
8
BLACK
6
CONTINUOUS
10
-3.6515
20
-1.0386
11
-3.65037
21
-1.0308
0
LINE
8
BLACK
6
CONTINUOUS
10
-3.65037
20
-1.0308
11
-3.65031
21
-1.02854
0
LINE
8
BLACK
6
CONTINUOUS
10
-3.65031
20
-1.02854
11
-3.65103
21
-1.02069
0
LINE
8
BLACK
6
CONTINUOUS
10
-3.65103
20
-1.02069
11
-3.65317
21
-1.0131
0
LINE
8
BLACK
6
CONTINUOUS
10
-3.65317
20
-1.0131
11
-3.65666
21
-1.00603
0
LINE
8
BLACK
6
CONTINUOUS
10
-3.65666
20
-1.00603
11
-3.66138
21
-0.999706
0
LINE
8
BLACK
6
CONTINUOUS
10
-3.66138
20
-0.999706
11
-3.66717
21
-0.994352
0
LINE
8
BLACK
6
CONTINUOUS
10
-3.66717
20
-0.994352
11
-3.67384
21
-0.990143
0
LINE
8
BLACK
6
CONTINUOUS
10
-3.67384
20
-0.990143
11
-3.68117
21
-0.987221
0
LINE
8
BLACK
6
CONTINUOUS
10
-3.68117
20
-0.987221
11
-3.6889
21
-0.985682
0
LINE
8
BLACK
6
CONTINUOUS
10
-3.6889
20
-0.985682
11
-3.69679
21
-0.985579
0
LINE
8
BLACK
6
CONTINUOUS
10
-3.69679
20
-0.985579
11
-3.70456
21
-0.986915
0
LINE
8
BLACK
6
CONTINUOUS
10
-3.70456
20
-0.986915
11
-3.71196
21
-0.989644
0
LINE
8
BLACK
6
CONTINUOUS
10
-3.71196
20
-0.989644
11
-3.71874
21
-0.993677
0
LINE
8
BLACK
6
CONTINUOUS
10
-3.71874
20
-0.993677
11
-3.72467
21
-0.998877
0
LINE
8
BLACK
6
CONTINUOUS
10
-3.72467
20
-0.998877
11
-3.72955
21
-1.00507
0
LINE
8
BLACK
6
CONTINUOUS
10
-3.72955
20
-1.00507
11
-3.73322
21
-1.01205
0
LINE
8
BLACK
6
CONTINUOUS
10
-3.73322
20
-1.01205
11
-3.73556
21
-1.01958
0
LINE
8
BLACK
6
CONTINUOUS
10
-3.73556
20
-1.01958
11
-3.73649
21
-1.02742
0
LINE
8
BLACK
6
CONTINUOUS
10
-3.73649
20
-1.02742
11
-3.73597
21
-1.03529
0
LINE
8
BLACK
6
CONTINUOUS
10
-3.73597
20
-1.03529
11
-3.73403
21
-1.04293
0
LINE
8
BLACK
6
CONTINUOUS
10
-2.99014
20
-1.01225
11
-2.98663
21
-1.00472
0
LINE
8
BLACK
6
CONTINUOUS
10
-2.98663
20
-1.00472
11
-2.98187
21
-0.997922
0
LINE
8
BLACK
6
CONTINUOUS
10
-2.98187
20
-0.997922
11
-2.97599
21
-0.992051
0
LINE
8
BLACK
6
CONTINUOUS
10
-2.97599
20
-0.992051
11
-2.96919
21
-0.987288
0
LINE
8
BLACK
6
CONTINUOUS
10
-2.96919
20
-0.987288
11
-2.96167
21
-0.983778
0
LINE
8
BLACK
6
CONTINUOUS
10
-2.96167
20
-0.983778
11
-2.95365
21
-0.981629
0
LINE
8
BLACK
6
CONTINUOUS
10
-2.95365
20
-0.981629
11
-2.94537
21
-0.980906
0
LINE
8
BLACK
6
CONTINUOUS
10
-2.94537
20
-0.980906
11
-2.9371
21
-0.981629
0
LINE
8
BLACK
6
CONTINUOUS
10
-2.9371
20
-0.981629
11
-2.92908
21
-0.983778
0
LINE
8
BLACK
6
CONTINUOUS
10
-2.92908
20
-0.983778
11
-2.92156
21
-0.987288
0
LINE
8
BLACK
6
CONTINUOUS
10
-2.92156
20
-0.987288
11
-2.91475
21
-0.992051
0
LINE
8
BLACK
6
CONTINUOUS
10
-2.91475
20
-0.992051
11
-2.90888
21
-0.997922
0
LINE
8
BLACK
6
CONTINUOUS
10
-2.90888
20
-0.997922
11
-2.90412
21
-1.00472
0
LINE
8
BLACK
6
CONTINUOUS
10
-2.90412
20
-1.00472
11
-2.90061
21
-1.01225
0
LINE
8
BLACK
6
CONTINUOUS
10
-2.90061
20
-1.01225
11
-2.89846
21
-1.02027
0
LINE
8
BLACK
6
CONTINUOUS
10
-2.89846
20
-1.02027
11
-2.89774
21
-1.02854
0
LINE
8
BLACK
6
CONTINUOUS
10
-2.89774
20
-1.02854
11
-2.89846
21
-1.03682
0
LINE
8
BLACK
6
CONTINUOUS
10
-2.89846
20
-1.03682
11
-2.90061
21
-1.04484
0
LINE
8
BLACK
6
CONTINUOUS
10
-2.90061
20
-1.04484
11
-2.90412
21
-1.05236
0
LINE
8
BLACK
6
CONTINUOUS
10
-2.90412
20
-1.05236
11
-2.90888
21
-1.05916
0
LINE
8
BLACK
6
CONTINUOUS
10
-2.90888
20
-1.05916
11
-2.91475
21
-1.06504
0
LINE
8
BLACK
6
CONTINUOUS
10
-2.91475
20
-1.06504
11
-2.92156
21
-1.0698
0
LINE
8
BLACK
6
CONTINUOUS
10
-2.92156
20
-1.0698
11
-2.92908
21
-1.07331
0
LINE
8
BLACK
6
CONTINUOUS
10
-2.92908
20
-1.07331
11
-2.9371
21
-1.07546
0
LINE
8
BLACK
6
CONTINUOUS
10
-2.9371
20
-1.07546
11
-2.94537
21
-1.07618
0
LINE
8
BLACK
6
CONTINUOUS
10
-2.94537
20
-1.07618
11
-2.95365
21
-1.07546
0
LINE
8
BLACK
6
CONTINUOUS
10
-2.95365
20
-1.07546
11
-2.96167
21
-1.07331
0
LINE
8
BLACK
6
CONTINUOUS
10
-2.96167
20
-1.07331
11
-2.96919
21
-1.0698
0
LINE
8
BLACK
6
CONTINUOUS
10
-2.96919
20
-1.0698
11
-2.97599
21
-1.06504
0
LINE
8
BLACK
6
CONTINUOUS
10
-2.97599
20
-1.06504
11
-2.98187
21
-1.05916
0
LINE
8
BLACK
6
CONTINUOUS
10
-2.98187
20
-1.05916
11
-2.98663
21
-1.05236
0
LINE
8
BLACK
6
CONTINUOUS
10
-2.98663
20
-1.05236
11
-2.99014
21
-1.04484
0
LINE
8
BLACK
6
CONTINUOUS
10
-2.99014
20
-1.04484
11
-2.99229
21
-1.03682
0
LINE
8
BLACK
6
CONTINUOUS
10
-2.99229
20
-1.03682
11
-2.99301
21
-1.02854
0
LINE
8
BLACK
6
CONTINUOUS
10
-2.99301
20
-1.02854
11
-2.99291
21
-1.02742
0
LINE
8
BLACK
6
CONTINUOUS
10
-2.99291
20
-1.02742
11
-2.99229
21
-1.02027
0
LINE
8
BLACK
6
CONTINUOUS
10
-2.99229
20
-1.02027
11
-2.99014
21
-1.01225
0
LINE
8
BLACK
6
CONTINUOUS
10
-2.986
20
-1.04293
11
-2.9827
21
-1.05009
0
LINE
8
BLACK
6
CONTINUOUS
10
-2.9827
20
-1.05009
11
-2.97815
21
-1.05653
0
LINE
8
BLACK
6
CONTINUOUS
10
-2.97815
20
-1.05653
11
-2.9725
21
-1.06204
0
LINE
8
BLACK
6
CONTINUOUS
10
-2.9725
20
-1.06204
11
-2.96594
21
-1.06642
0
LINE
8
BLACK
6
CONTINUOUS
10
-2.96594
20
-1.06642
11
-2.95869
21
-1.06953
0
LINE
8
BLACK
6
CONTINUOUS
10
-2.95869
20
-1.06953
11
-2.951
21
-1.07127
0
LINE
8
BLACK
6
CONTINUOUS
10
-2.951
20
-1.07127
11
-2.94312
21
-1.07158
0
LINE
8
BLACK
6
CONTINUOUS
10
-2.94312
20
-1.07158
11
-2.93531
21
-1.07045
0
LINE
8
BLACK
6
CONTINUOUS
10
-2.93531
20
-1.07045
11
-2.92784
21
-1.06791
0
LINE
8
BLACK
6
CONTINUOUS
10
-2.92784
20
-1.06791
11
-2.92096
21
-1.06406
0
LINE
8
BLACK
6
CONTINUOUS
10
-2.92096
20
-1.06406
11
-2.9149
21
-1.05902
0
LINE
8
BLACK
6
CONTINUOUS
10
-2.9149
20
-1.05902
11
-2.90986
21
-1.05295
0
LINE
8
BLACK
6
CONTINUOUS
10
-2.90986
20
-1.05295
11
-2.906
21
-1.04607
0
LINE
8
BLACK
6
CONTINUOUS
10
-2.906
20
-1.04607
11
-2.90347
21
-1.0386
0
LINE
8
BLACK
6
CONTINUOUS
10
-2.90347
20
-1.0386
11
-2.90234
21
-1.0308
0
LINE
8
BLACK
6
CONTINUOUS
10
-2.90234
20
-1.0308
11
-2.90228
21
-1.02854
0
LINE
8
BLACK
6
CONTINUOUS
10
-2.90228
20
-1.02854
11
-2.903
21
-1.02069
0
LINE
8
BLACK
6
CONTINUOUS
10
-2.903
20
-1.02069
11
-2.90514
21
-1.0131
0
LINE
8
BLACK
6
CONTINUOUS
10
-2.90514
20
-1.0131
11
-2.90863
21
-1.00603
0
LINE
8
BLACK
6
CONTINUOUS
10
-2.90863
20
-1.00603
11
-2.91335
21
-0.999706
0
LINE
8
BLACK
6
CONTINUOUS
10
-2.91335
20
-0.999706
11
-2.91914
21
-0.994352
0
LINE
8
BLACK
6
CONTINUOUS
10
-2.91914
20
-0.994352
11
-2.92581
21
-0.990143
0
LINE
8
BLACK
6
CONTINUOUS
10
-2.92581
20
-0.990143
11
-2.93313
21
-0.987221
0
LINE
8
BLACK
6
CONTINUOUS
10
-2.93313
20
-0.987221
11
-2.94087
21
-0.985682
0
LINE
8
BLACK
6
CONTINUOUS
10
-2.94087
20
-0.985682
11
-2.94876
21
-0.985579
0
LINE
8
BLACK
6
CONTINUOUS
10
-2.94876
20
-0.985579
11
-2.95653
21
-0.986915
0
LINE
8
BLACK
6
CONTINUOUS
10
-2.95653
20
-0.986915
11
-2.96393
21
-0.989644
0
LINE
8
BLACK
6
CONTINUOUS
10
-2.96393
20
-0.989644
11
-2.97071
21
-0.993677
0
LINE
8
BLACK
6
CONTINUOUS
10
-2.97071
20
-0.993677
11
-2.97664
21
-0.998877
0
LINE
8
BLACK
6
CONTINUOUS
10
-2.97664
20
-0.998877
11
-2.98152
21
-1.00507
0
LINE
8
BLACK
6
CONTINUOUS
10
-2.98152
20
-1.00507
11
-2.98519
21
-1.01205
0
LINE
8
BLACK
6
CONTINUOUS
10
-2.98519
20
-1.01205
11
-2.98753
21
-1.01958
0
LINE
8
BLACK
6
CONTINUOUS
10
-2.98753
20
-1.01958
11
-2.98846
21
-1.02742
0
LINE
8
BLACK
6
CONTINUOUS
10
-2.98846
20
-1.02742
11
-2.98794
21
-1.03529
0
LINE
8
BLACK
6
CONTINUOUS
10
-2.98794
20
-1.03529
11
-2.986
21
-1.04293
0
LINE
8
BLACK
6
CONTINUOUS
10
-0.746044
20
-0.684986
11
-0.742535
21
-0.677461
0
LINE
8
BLACK
6
CONTINUOUS
10
-0.742535
20
-0.677461
11
-0.737772
21
-0.670659
0
LINE
8
BLACK
6
CONTINUOUS
10
-0.737772
20
-0.670659
11
-0.731901
21
-0.664787
0
LINE
8
BLACK
6
CONTINUOUS
10
-0.731901
20
-0.664787
11
-0.725098
21
-0.660024
0
LINE
8
BLACK
6
CONTINUOUS
10
-0.725098
20
-0.660024
11
-0.717573
21
-0.656515
0
LINE
8
BLACK
6
CONTINUOUS
10
-0.717573
20
-0.656515
11
-0.709552
21
-0.654365
0
LINE
8
BLACK
6
CONTINUOUS
10
-0.709552
20
-0.654365
11
-0.70128
21
-0.653642
0
LINE
8
BLACK
6
CONTINUOUS
10
-0.70128
20
-0.653642
11
-0.693007
21
-0.654365
0
LINE
8
BLACK
6
CONTINUOUS
10
-0.693007
20
-0.654365
11
-0.684986
21
-0.656515
0
LINE
8
BLACK
6
CONTINUOUS
10
-0.684986
20
-0.656515
11
-0.677461
21
-0.660024
0
LINE
8
BLACK
6
CONTINUOUS
10
-0.677461
20
-0.660024
11
-0.670659
21
-0.664787
0
LINE
8
BLACK
6
CONTINUOUS
10
-0.670659
20
-0.664787
11
-0.664787
21
-0.670659
0
LINE
8
BLACK
6
CONTINUOUS
10
-0.664787
20
-0.670659
11
-0.660024
21
-0.677461
0
LINE
8
BLACK
6
CONTINUOUS
10
-0.660024
20
-0.677461
11
-0.656515
21
-0.684986
0
LINE
8
BLACK
6
CONTINUOUS
10
-0.656515
20
-0.684986
11
-0.654365
21
-0.693007
0
LINE
8
BLACK
6
CONTINUOUS
10
-0.654365
20
-0.693007
11
-0.653642
21
-0.70128
0
LINE
8
BLACK
6
CONTINUOUS
10
-0.653642
20
-0.70128
11
-0.654365
21
-0.709552
0
LINE
8
BLACK
6
CONTINUOUS
10
-0.654365
20
-0.709552
11
-0.656515
21
-0.717573
0
LINE
8
BLACK
6
CONTINUOUS
10
-0.656515
20
-0.717573
11
-0.660024
21
-0.725098
0
LINE
8
BLACK
6
CONTINUOUS
10
-0.660024
20
-0.725098
11
-0.664787
21
-0.731901
0
LINE
8
BLACK
6
CONTINUOUS
10
-0.664787
20
-0.731901
11
-0.670659
21
-0.737772
0
LINE
8
BLACK
6
CONTINUOUS
10
-0.670659
20
-0.737772
11
-0.677461
21
-0.742535
0
LINE
8
BLACK
6
CONTINUOUS
10
-0.677461
20
-0.742535
11
-0.684986
21
-0.746044
0
LINE
8
BLACK
6
CONTINUOUS
10
-0.684986
20
-0.746044
11
-0.693007
21
-0.748194
0
LINE
8
BLACK
6
CONTINUOUS
10
-0.693007
20
-0.748194
11
-0.70128
21
-0.748917
0
LINE
8
BLACK
6
CONTINUOUS
10
-0.70128
20
-0.748917
11
-0.709552
21
-0.748194
0
LINE
8
BLACK
6
CONTINUOUS
10
-0.709552
20
-0.748194
11
-0.717573
21
-0.746044
0
LINE
8
BLACK
6
CONTINUOUS
10
-0.717573
20
-0.746044
11
-0.725098
21
-0.742535
0
LINE
8
BLACK
6
CONTINUOUS
10
-0.725098
20
-0.742535
11
-0.731901
21
-0.737772
0
LINE
8
BLACK
6
CONTINUOUS
10
-0.731901
20
-0.737772
11
-0.737772
21
-0.731901
0
LINE
8
BLACK
6
CONTINUOUS
10
-0.737772
20
-0.731901
11
-0.742535
21
-0.725098
0
LINE
8
BLACK
6
CONTINUOUS
10
-0.742535
20
-0.725098
11
-0.746044
21
-0.717573
0
LINE
8
BLACK
6
CONTINUOUS
10
-0.746044
20
-0.717573
11
-0.748194
21
-0.709552
0
LINE
8
BLACK
6
CONTINUOUS
10
-0.748194
20
-0.709552
11
-0.748917
21
-0.70128
0
LINE
8
BLACK
6
CONTINUOUS
10
-0.748917
20
-0.70128
11
-0.748819
21
-0.700151
0
LINE
8
BLACK
6
CONTINUOUS
10
-0.748819
20
-0.700151
11
-0.748194
21
-0.693007
0
LINE
8
BLACK
6
CONTINUOUS
10
-0.748194
20
-0.693007
11
-0.746044
21
-0.684986
0
LINE
8
BLACK
6
CONTINUOUS
10
-0.741905
20
-0.715666
11
-0.738603
21
-0.722828
0
LINE
8
BLACK
6
CONTINUOUS
10
-0.738603
20
-0.722828
11
-0.734051
21
-0.729269
0
LINE
8
BLACK
6
CONTINUOUS
10
-0.734051
20
-0.729269
11
-0.728401
21
-0.734772
0
LINE
8
BLACK
6
CONTINUOUS
10
-0.728401
20
-0.734772
11
-0.721844
21
-0.739154
0
LINE
8
BLACK
6
CONTINUOUS
10
-0.721844
20
-0.739154
11
-0.714597
21
-0.742267
0
LINE
8
BLACK
6
CONTINUOUS
10
-0.714597
20
-0.742267
11
-0.706905
21
-0.744008
0
LINE
8
BLACK
6
CONTINUOUS
10
-0.706905
20
-0.744008
11
-0.699024
21
-0.744318
0
LINE
8
BLACK
6
CONTINUOUS
10
-0.699024
20
-0.744318
11
-0.691219
21
-0.743186
0
LINE
8
BLACK
6
CONTINUOUS
10
-0.691219
20
-0.743186
11
-0.68375
21
-0.740651
0
LINE
8
BLACK
6
CONTINUOUS
10
-0.68375
20
-0.740651
11
-0.676869
21
-0.736797
0
LINE
8
BLACK
6
CONTINUOUS
10
-0.676869
20
-0.736797
11
-0.670805
21
-0.731754
0
LINE
8
BLACK
6
CONTINUOUS
10
-0.670805
20
-0.731754
11
-0.665762
21
-0.72569
0
LINE
8
BLACK
6
CONTINUOUS
10
-0.665762
20
-0.72569
11
-0.661908
21
-0.718809
0
LINE
8
BLACK
6
CONTINUOUS
10
-0.661908
20
-0.718809
11
-0.659373
21
-0.71134
0
LINE
8
BLACK
6
CONTINUOUS
10
-0.659373
20
-0.71134
11
-0.658241
21
-0.703535
0
LINE
8
BLACK
6
CONTINUOUS
10
-0.658241
20
-0.703535
11
-0.658182
21
-0.70128
0
LINE
8
BLACK
6
CONTINUOUS
10
-0.658182
20
-0.70128
11
-0.658904
21
-0.693426
0
LINE
8
BLACK
6
CONTINUOUS
10
-0.658904
20
-0.693426
11
-0.661045
21
-0.685835
0
LINE
8
BLACK
6
CONTINUOUS
10
-0.661045
20
-0.685835
11
-0.664533
21
-0.678761
0
LINE
8
BLACK
6
CONTINUOUS
10
-0.664533
20
-0.678761
11
-0.669252
21
-0.672442
0
LINE
8
BLACK
6
CONTINUOUS
10
-0.669252
20
-0.672442
11
-0.675044
21
-0.667088
0
LINE
8
BLACK
6
CONTINUOUS
10
-0.675044
20
-0.667088
11
-0.681714
21
-0.66288
0
LINE
8
BLACK
6
CONTINUOUS
10
-0.681714
20
-0.66288
11
-0.689039
21
-0.659957
0
LINE
8
BLACK
6
CONTINUOUS
10
-0.689039
20
-0.659957
11
-0.696775
21
-0.658418
0
LINE
8
BLACK
6
CONTINUOUS
10
-0.696775
20
-0.658418
11
-0.704661
21
-0.658315
0
LINE
8
BLACK
6
CONTINUOUS
10
-0.704661
20
-0.658315
11
-0.712434
21
-0.659651
0
LINE
8
BLACK
6
CONTINUOUS
10
-0.712434
20
-0.659651
11
-0.719833
21
-0.662381
0
LINE
8
BLACK
6
CONTINUOUS
10
-0.719833
20
-0.662381
11
-0.726611
21
-0.666413
0
LINE
8
BLACK
6
CONTINUOUS
10
-0.726611
20
-0.666413
11
-0.732541
21
-0.671613
0
LINE
8
BLACK
6
CONTINUOUS
10
-0.732541
20
-0.671613
11
-0.737424
21
-0.677807
0
LINE
8
BLACK
6
CONTINUOUS
10
-0.737424
20
-0.677807
11
-0.741096
21
-0.684787
0
LINE
8
BLACK
6
CONTINUOUS
10
-0.741096
20
-0.684787
11
-0.743435
21
-0.692319
0
LINE
8
BLACK
6
CONTINUOUS
10
-0.743435
20
-0.692319
11
-0.744362
21
-0.700151
0
LINE
8
BLACK
6
CONTINUOUS
10
-0.744362
20
-0.700151
11
-0.743846
21
-0.708021
0
LINE
8
BLACK
6
CONTINUOUS
10
-0.743846
20
-0.708021
11
-0.741905
21
-0.715666
  0
ENDSEC
  0
EOF
