<?xml version="1.0" standalone="no"?>
 <!DOCTYPE svg PUBLIC "-//W3C//DTD SVG 1.1//EN" 
 "http://www.w3.org/Graphics/SVG/1.1/DTD/svg11.dtd"> 
<svg
  xmlns:svg="http://www.w3.org/2000/svg"
  xmlns="http://www.w3.org/2000/svg"
  xmlns:xlink="http://www.w3.org/1999/xlink"
  version="1.1"
  width="297.002200mm" height="210.007200mm" viewBox="0.000000 0.000000 297.002200 210.007200">
<title>SVG Image created as jantor-Edge_Cuts.svg date 2024/02/03 19:54:55 </title>
  <desc>Image generated by PCBNEW </desc>
<g style="fill:#000000; fill-opacity:1.000000;stroke:#000000; stroke-opacity:1.000000;
stroke-linecap:round; stroke-linejoin:round;"
 transform="translate(0 0) scale(1 1)">
</g>
<g style="fill:#000000; fill-opacity:0.0; 
stroke:#000000; stroke-width:0.000000; stroke-opacity:1; 
stroke-linecap:round; stroke-linejoin:round;">
</g>
<g style="fill:#000000; fill-opacity:0.0; 
stroke:#000000; stroke-width:0.100000; stroke-opacity:1; 
stroke-linecap:round; stroke-linejoin:round;">
<path d="M64.421899 -17.218750 A0.593700 0.593700 0.0 0 0 65.015624 -16.625000" />
<path d="M127.500000 47.000000
L120.630000 47.000000
" />
<path d="M132.832050 48.554700
L111.000000 73.500000
" />
<path d="M65.015625 -16.625000
L128.500000 -16.625000
" />
<path d="M129.000000 -16.125000 A0.500000 0.500000 0.0 0 0 128.500000 -16.625000" />
<path d="M132.832049 48.554699 A1.000000 1.000000 0.0 0 0 131.999999 46.999999" />
<path d="M129.000000 35.500000 A2.500000 2.500000 0.0 0 0 134.000000 35.500000" />
<path d="M134.000000 -20.000000
L134.000000 35.500000
" />
<path d="M134.000000 -20.000000 A1.500000 1.500000 0.0 0 0 132.500000 -21.500000" />
<path d="M129.000000 -16.125000
L129.000000 35.500000
" />
<path d="M127.500000 47.000000
L132.000000 47.000000
" />
<path d="M69.000000 -23.000000
L69.000000 -23.500000
" />
<path d="M69.000000 -23.500000 A1.500001 1.500001 0.0 0 0 67.500000 -25.000000" />
<path d="M67.500000 -25.000000
L49.500000 -25.000000
" />
<path d="M70.500000 -21.500000
L132.500000 -21.500000
" />
<path d="M69.000000 -23.000000 A1.500000 1.500000 0.0 0 0 70.500000 -21.500000" />
<path d="M51.000000 61.000000
L74.500000 61.000000
" />
<path d="M108.551316 73.897365 A2.121320 2.121320 0.0 0 0 110.999999 73.499999" />
<path d="M75.618034 61.263932
L108.551317 73.897366
" />
<path d="M75.618034 61.263932 A2.500000 2.500000 0.0 0 0 74.500000 61.000000" />
<path d="M-27.609375 27.015625 A0.593749 0.593749 0.0 0 0 -27.015625 27.609375" />
<path d="M29.984375 -7.421875 A0.593725 0.593725 0.0 0 0 30.578125 -8.015625" />
<path d="M120.630000 47.000000
L109.250000 66.796875
" />
<path d="M74.812500 56.109375
L54.921875 56.109375
" />
<path d="M-12.000000 -12.000000 A1.500002 1.500002 0.0 0 0 -13.500000 -10.500000" />
<path d="M75.618034 61.263932
L108.551317 73.897366
" />
<path d="M49.578125 -15.140625
L49.578125 -19.890625
" />
<path d="M50.171875 -20.484375
L63.828125 -20.484375
" />
<path d="M64.421875 -19.890625
L64.421875 -17.218750
" />
<path d="M46.500000 -25.000000 A1.500000 1.500000 0.0 0 0 45.000000 -23.500000" />
<path d="M67.500000 -25.000000
L49.500000 -25.000000
" />
<path d="M-27.015625 12.765625
L-9.203125 12.765625
" />
<path d="M49.500000 51.500000 A1.500000 1.500000 0.0 0 0 48.000000 50.000000" />
<path d="M-13.500000 34.000000 A1.500001 1.500001 0.0 0 0 -15.000000 32.500000" />
<path d="M69.000000 -23.000000
L69.000000 -23.500000
" />
<path d="M27.609375 44.828125
L27.609375 38.890625
" />
<path d="M30.578125 -8.015625
L30.578125 -13.953125
" />
<path d="M-8.015625 -7.421875 A0.593749 0.593749 0.0 0 0 -8.609375 -6.828125" />
<path d="M64.421875 -19.890625 A0.593775 0.593775 0.0 0 0 63.828125 -20.484375" />
<path d="M31.171875 -14.546875
L48.984375 -14.546875
" />
<path d="M75.618034 61.263932 A2.500000 2.500000 0.0 0 0 74.500000 61.000000" />
<path d="M-12.000000 50.000000
L48.000000 50.000000
" />
<path d="M54.328125 55.515625 A0.593775 0.593775 0.0 0 0 54.921875 56.109375" />
<path d="M-13.500000 -10.500000
L-13.500000 6.500000
" />
<path d="M109.250000 66.796875
L74.812500 56.109375
" />
<path d="M-8.609375 12.171875
L-8.609375 -6.828125
" />
<path d="M51.000000 61.000000
L74.500000 61.000000
" />
<path d="M-32.500000 9.500000
L-32.500000 31.000000
" />
<path d="M28.203125 38.296875 A0.593725 0.593725 0.0 0 0 27.609375 38.890625" />
<path d="M-27.015625 27.609375
L-9.203125 27.609375
" />
<path d="M-8.609375 44.828125
L-8.609375 28.203125
" />
<path d="M48.984375 -14.546875 A0.593725 0.593725 0.0 0 0 49.578125 -15.140625" />
<path d="M31.171875 -14.546875 A0.593775 0.593775 0.0 0 0 30.578125 -13.953125" />
<path d="M24.500000 -12.000000
L-12.000000 -12.000000
" />
<path d="M53.734375 38.296875
L28.203125 38.296875
" />
<path d="M-8.015625 45.421875
L-3.562500 45.421875
" />
<path d="M-9.203125 12.765625 A0.593749 0.593749 0.0 0 0 -8.609375 12.171875" />
<path d="M54.328125 55.515625
L54.328125 38.890625
" />
<path d="M-13.500000 48.500000 A1.500001 1.500001 0.0 0 0 -12.000000 50.000000" />
<path d="M27.015625 45.421875 A0.593775 0.593775 0.0 0 0 27.609375 44.828125" />
<path d="M43.500000 -19.000000 A1.500000 1.500000 0.0 0 0 45.000000 -20.500000" />
<path d="M50.171875 -20.484375 A0.593775 0.593775 0.0 0 0 49.578125 -19.890625" />
<path d="M-15.000000 8.000000
L-31.000000 8.000000
" />
<path d="M43.500000 -19.000000
L27.500000 -19.000000
" />
<path d="M24.500000 -12.000000 A1.500000 1.500000 0.0 0 0 26.000000 -13.500000" />
<path d="M49.500000 -25.000000
L46.500000 -25.000000
" />
<path d="M-32.500000 31.000000 A1.500001 1.500001 0.0 0 0 -31.000000 32.500000" />
<path d="M54.328125 38.890625 A0.593725 0.593725 0.0 0 0 53.734375 38.296875" />
<path d="M-8.609375 28.203125 A0.593749 0.593749 0.0 0 0 -9.203125 27.609375" />
<path d="M49.500000 59.500000 A1.500000 1.500000 0.0 0 0 51.000000 61.000000" />
<path d="M69.000000 -23.500000 A1.500000 1.500000 0.0 0 0 67.500000 -25.000000" />
<path d="M27.500000 -19.000000 A1.500000 1.500000 0.0 0 0 26.000000 -17.500000" />
<path d="M-31.000000 32.500000
L-15.000000 32.500000
" />
<path d="M-31.000000 8.000000 A1.500002 1.500002 0.0 0 0 -32.500000 9.500000" />
<path d="M45.000000 -23.500000
L45.000000 -20.500000
" />
<path d="M69.000000 -23.000000 A1.500000 1.500000 0.0 0 0 70.500000 -21.500000" />
<path d="M49.500000 51.500000
L49.500000 59.500000
" />
<path d="M108.551316 73.897365 A2.121320 2.121320 0.0 0 0 110.999999 73.499999" />
<path d="M-27.609375 13.359375
L-27.609375 27.015625
" />
<path d="M26.000000 -17.500000
L26.000000 -13.500000
" />
<path d="M-27.015625 12.765625 A0.593749 0.593749 0.0 0 0 -27.609375 13.359375" />
<path d="M-15.000000 8.000000 A1.499997 1.499997 0.0 0 0 -13.500000 6.500000" />
<path d="M-13.500000 34.000000
L-13.500000 48.500000
" />
<path d="M-3.562500 45.421875
L27.015625 45.421875
" />
<path d="M-8.609375 44.828125 A0.593749 0.593749 0.0 0 0 -8.015625 45.421875" />
<path d="M-8.015625 -7.421875
L29.984375 -7.421875
" />
<g >
</g>
<g >
</g>
<g >
</g>
</g> 
</svg>
