G04 #@! TF.GenerationSoftware,KiCad,Pcbnew,(6.0.7-1)-1*
G04 #@! TF.CreationDate,2022-08-21T15:38:59+10:00*
G04 #@! TF.ProjectId,jantor,6a616e74-6f72-42e6-9b69-6361645f7063,rev?*
G04 #@! TF.SameCoordinates,Original*
G04 #@! TF.FileFunction,Soldermask,Top*
G04 #@! TF.FilePolarity,Negative*
%FSLAX46Y46*%
G04 Gerber Fmt 4.6, Leading zero omitted, Abs format (unit mm)*
G04 Created by KiCad (PCBNEW (6.0.7-1)-1) date 2022-08-21 15:38:59*
%MOMM*%
%LPD*%
G01*
G04 APERTURE LIST*
G04 Aperture macros list*
%AMRotRect*
0 Rectangle, with rotation*
0 The origin of the aperture is its center*
0 $1 length*
0 $2 width*
0 $3 Rotation angle, in degrees counterclockwise*
0 Add horizontal line*
21,1,$1,$2,0,0,$3*%
G04 Aperture macros list end*
%ADD10C,0.120000*%
%ADD11C,4.100000*%
%ADD12C,3.000000*%
%ADD13C,1.900000*%
%ADD14C,2.250000*%
%ADD15R,2.550000X2.500000*%
%ADD16C,0.800000*%
%ADD17O,2.000000X1.600000*%
%ADD18RotRect,2.550000X2.500000X345.000000*%
%ADD19RotRect,2.550000X2.500000X60.000000*%
%ADD20C,1.700000*%
%ADD21R,1.700000X1.700000*%
%ADD22C,5.000000*%
G04 APERTURE END LIST*
D10*
X244827500Y-90702500D02*
X247367500Y-90702500D01*
D11*
X153187500Y-54625000D03*
D12*
X150647500Y-59705000D03*
X155727500Y-59705000D03*
X149377500Y-57165000D03*
X156997500Y-57165000D03*
D13*
X148107500Y-54625000D03*
X158267500Y-54625000D03*
D14*
X156997500Y-52085000D03*
D15*
X146102500Y-57165000D03*
D14*
X150647500Y-49545000D03*
D15*
X159029500Y-59705000D03*
D13*
X177267500Y-85500000D03*
D12*
X168377500Y-88040000D03*
D13*
X167107500Y-85500000D03*
D12*
X175997500Y-88040000D03*
X174727500Y-90580000D03*
X169647500Y-90580000D03*
D11*
X172187500Y-85500000D03*
D15*
X165102500Y-88040000D03*
D14*
X175997500Y-82960000D03*
X169647500Y-80420000D03*
D15*
X178029500Y-90580000D03*
D12*
X232997500Y-88040000D03*
D11*
X229187500Y-85500000D03*
D12*
X231727500Y-90580000D03*
X225377500Y-88040000D03*
D13*
X234267500Y-85500000D03*
X224107500Y-85500000D03*
D12*
X226647500Y-90580000D03*
D14*
X232997500Y-82960000D03*
D15*
X222102500Y-88040000D03*
X235029500Y-90580000D03*
D14*
X226647500Y-80420000D03*
D12*
X213997500Y-48852500D03*
D11*
X210187500Y-46312500D03*
D12*
X212727500Y-51392500D03*
D13*
X205107500Y-46312500D03*
D12*
X206377500Y-48852500D03*
D13*
X215267500Y-46312500D03*
D12*
X207647500Y-51392500D03*
D15*
X203102500Y-48852500D03*
D14*
X213997500Y-43772500D03*
X207647500Y-41232500D03*
D15*
X216029500Y-51392500D03*
D12*
X130377500Y-57165000D03*
D11*
X134187500Y-54625000D03*
D12*
X131647500Y-59705000D03*
X137997500Y-57165000D03*
D13*
X129107500Y-54625000D03*
D12*
X136727500Y-59705000D03*
D13*
X139267500Y-54625000D03*
D15*
X127102500Y-57165000D03*
D14*
X137997500Y-52085000D03*
X131647500Y-49545000D03*
D15*
X140029500Y-59705000D03*
D16*
X257400000Y-98562500D03*
X264400000Y-98562500D03*
X264400000Y-96462500D03*
X257400000Y-96462500D03*
D17*
X254700000Y-98762500D03*
X254700000Y-96262500D03*
X255800000Y-100862500D03*
X255800000Y-94162500D03*
X262800000Y-100862500D03*
X259800000Y-94162500D03*
X262800000Y-94162500D03*
X259800000Y-100862500D03*
D12*
X207647500Y-70392500D03*
X206377500Y-67852500D03*
D11*
X210187500Y-65312500D03*
D12*
X213997500Y-67852500D03*
D13*
X205107500Y-65312500D03*
D12*
X212727500Y-70392500D03*
D13*
X215267500Y-65312500D03*
D14*
X213997500Y-62772500D03*
D15*
X203102500Y-67852500D03*
X216029500Y-70392500D03*
D14*
X207647500Y-60232500D03*
D12*
X219638651Y-111251804D03*
X214162422Y-107154851D03*
D11*
X218500000Y-105687500D03*
D12*
X214731748Y-109937003D03*
D13*
X213593097Y-104372699D03*
X223406903Y-107002301D03*
D12*
X221522777Y-109127052D03*
D14*
X222837578Y-104220149D03*
D18*
X210999015Y-106307219D03*
X222828138Y-112106424D03*
D14*
X217361349Y-100123196D03*
D13*
X120267500Y-74812500D03*
D12*
X112647500Y-79892500D03*
X111377500Y-77352500D03*
D11*
X115187500Y-74812500D03*
D12*
X117727500Y-79892500D03*
X118997500Y-77352500D03*
D13*
X110107500Y-74812500D03*
D14*
X118997500Y-72272500D03*
D15*
X108102500Y-77352500D03*
X121029500Y-79892500D03*
D14*
X112647500Y-69732500D03*
D13*
X238522500Y-115430659D03*
D12*
X245167205Y-109001693D03*
D11*
X241062500Y-111031250D03*
D12*
X246731909Y-111371545D03*
X241357205Y-115600807D03*
X244191909Y-115770955D03*
D13*
X243602500Y-106631841D03*
D19*
X239719705Y-118437040D03*
D14*
X240767795Y-106461693D03*
D19*
X248382909Y-108511930D03*
D14*
X235393091Y-110690955D03*
D13*
X177267500Y-47500000D03*
D11*
X172187500Y-47500000D03*
D12*
X168377500Y-50040000D03*
D13*
X167107500Y-47500000D03*
D12*
X169647500Y-52580000D03*
X175997500Y-50040000D03*
X174727500Y-52580000D03*
D14*
X175997500Y-44960000D03*
D15*
X165102500Y-50040000D03*
D14*
X169647500Y-42420000D03*
D15*
X178029500Y-52580000D03*
D12*
X137997500Y-95165000D03*
D13*
X139267500Y-92625000D03*
D11*
X134187500Y-92625000D03*
D13*
X129107500Y-92625000D03*
D12*
X130377500Y-95165000D03*
X136727500Y-97705000D03*
X131647500Y-97705000D03*
D14*
X137997500Y-90085000D03*
D15*
X127102500Y-95165000D03*
X140029500Y-97705000D03*
D14*
X131647500Y-87545000D03*
D11*
X153187500Y-92625000D03*
D13*
X148107500Y-92625000D03*
D12*
X155727500Y-97705000D03*
X150647500Y-97705000D03*
X156997500Y-95165000D03*
X149377500Y-95165000D03*
D13*
X158267500Y-92625000D03*
D14*
X156997500Y-90085000D03*
D15*
X146102500Y-95165000D03*
D14*
X150647500Y-87545000D03*
D15*
X159029500Y-97705000D03*
D14*
X150647500Y-68545000D03*
D15*
X159029500Y-78705000D03*
X146102500Y-76165000D03*
D14*
X156997500Y-71085000D03*
D12*
X149377500Y-76165000D03*
X155727500Y-78705000D03*
X150647500Y-78705000D03*
D13*
X148107500Y-73625000D03*
X158267500Y-73625000D03*
D11*
X153187500Y-73625000D03*
D12*
X156997500Y-76165000D03*
D13*
X202205000Y-103312500D03*
D12*
X200935000Y-105852500D03*
X199665000Y-108392500D03*
D13*
X192045000Y-103312500D03*
D12*
X194585000Y-108392500D03*
X193315000Y-105852500D03*
D11*
X197125000Y-103312500D03*
D14*
X200935000Y-100772500D03*
D15*
X190040000Y-105852500D03*
X202967000Y-108392500D03*
D14*
X194585000Y-98232500D03*
D12*
X175997500Y-69040000D03*
D11*
X172187500Y-66500000D03*
D12*
X168377500Y-69040000D03*
D13*
X177267500Y-66500000D03*
X167107500Y-66500000D03*
D12*
X169647500Y-71580000D03*
X174727500Y-71580000D03*
D15*
X165102500Y-69040000D03*
D14*
X175997500Y-63960000D03*
X169647500Y-61420000D03*
D15*
X178029500Y-71580000D03*
D13*
X224107500Y-47500000D03*
D12*
X232997500Y-50040000D03*
D11*
X229187500Y-47500000D03*
D12*
X225377500Y-50040000D03*
D13*
X234267500Y-47500000D03*
D12*
X226647500Y-52580000D03*
X231727500Y-52580000D03*
D15*
X222102500Y-50040000D03*
D14*
X232997500Y-44960000D03*
D15*
X235029500Y-52580000D03*
D14*
X226647500Y-42420000D03*
D12*
X136727500Y-78705000D03*
X130377500Y-76165000D03*
D13*
X129107500Y-73625000D03*
D11*
X134187500Y-73625000D03*
D12*
X131647500Y-78705000D03*
X137997500Y-76165000D03*
D13*
X139267500Y-73625000D03*
D15*
X127102500Y-76165000D03*
D14*
X137997500Y-71085000D03*
X131647500Y-68545000D03*
D15*
X140029500Y-78705000D03*
D12*
X188647500Y-46642500D03*
X187377500Y-44102500D03*
D11*
X191187500Y-41562500D03*
D13*
X186107500Y-41562500D03*
D12*
X194997500Y-44102500D03*
D13*
X196267500Y-41562500D03*
D12*
X193727500Y-46642500D03*
D15*
X184102500Y-44102500D03*
D14*
X194997500Y-39022500D03*
X188647500Y-36482500D03*
D15*
X197029500Y-46642500D03*
D13*
X196267500Y-60562500D03*
D11*
X191187500Y-60562500D03*
D12*
X193727500Y-65642500D03*
D13*
X186107500Y-60562500D03*
D12*
X188647500Y-65642500D03*
X187377500Y-63102500D03*
X194997500Y-63102500D03*
D15*
X184102500Y-63102500D03*
D14*
X194997500Y-58022500D03*
X188647500Y-55482500D03*
D15*
X197029500Y-65642500D03*
D12*
X187377500Y-82102500D03*
X194997500Y-82102500D03*
D11*
X191187500Y-79562500D03*
D12*
X193727500Y-84642500D03*
X188647500Y-84642500D03*
D13*
X196267500Y-79562500D03*
X186107500Y-79562500D03*
D15*
X184102500Y-82102500D03*
D14*
X194997500Y-77022500D03*
D15*
X197029500Y-84642500D03*
D14*
X188647500Y-74482500D03*
D20*
X258677500Y-41192500D03*
X246097500Y-41172500D03*
X258677500Y-43732500D03*
X246097500Y-43712500D03*
X246097500Y-46252500D03*
X258677500Y-46272500D03*
X246097500Y-48792500D03*
X258677500Y-48812500D03*
X258677500Y-51352500D03*
X246097500Y-51332500D03*
X258677500Y-53892500D03*
X246097500Y-53872500D03*
X258677500Y-56432500D03*
X246097500Y-56412500D03*
X258677500Y-58972500D03*
X246097500Y-58952500D03*
X246097500Y-61492500D03*
X258677500Y-61512500D03*
X246097500Y-64032500D03*
X258677500Y-64052500D03*
X258677500Y-66592500D03*
X246097500Y-66572500D03*
X258677500Y-69132500D03*
X246097500Y-69112500D03*
X246097500Y-71652500D03*
X258677500Y-71672500D03*
X258677500Y-74212500D03*
X246097500Y-74192500D03*
X258677500Y-76752500D03*
X246097500Y-76732500D03*
X246097500Y-79272500D03*
X258677500Y-79292500D03*
X246097500Y-81812500D03*
X258677500Y-81832500D03*
X246097500Y-84352500D03*
X258677500Y-84372500D03*
X246097500Y-86892500D03*
X258677500Y-86912500D03*
X246097500Y-89432500D03*
X258677500Y-89452500D03*
X243437500Y-89452500D03*
X261337500Y-89432500D03*
X243437500Y-86912500D03*
X261337500Y-86892500D03*
X261337500Y-84352500D03*
X243437500Y-84372500D03*
X243437500Y-81832500D03*
X261337500Y-81812500D03*
X243437500Y-79292500D03*
X261337500Y-79272500D03*
X243437500Y-76752500D03*
X261337500Y-76732500D03*
X243437500Y-74212500D03*
X261337500Y-74192500D03*
X261337500Y-71652500D03*
X243437500Y-71672500D03*
X261337500Y-69112500D03*
X243437500Y-69132500D03*
X243437500Y-66592500D03*
X261337500Y-66572500D03*
X243437500Y-64052500D03*
X261337500Y-64032500D03*
X261337500Y-61492500D03*
X243437500Y-61512500D03*
X261337500Y-58952500D03*
X243437500Y-58972500D03*
X261337500Y-56412500D03*
X243437500Y-56432500D03*
X243437500Y-53892500D03*
X261337500Y-53872500D03*
X243437500Y-51352500D03*
X261337500Y-51332500D03*
X243437500Y-48812500D03*
X261337500Y-48792500D03*
X261337500Y-46252500D03*
X243437500Y-46272500D03*
X261337500Y-43712500D03*
X243437500Y-43732500D03*
D21*
X243437500Y-41192500D03*
X261337500Y-41172500D03*
D11*
X229187500Y-66500000D03*
D12*
X225377500Y-69040000D03*
X226647500Y-71580000D03*
X232997500Y-69040000D03*
D13*
X234267500Y-66500000D03*
D12*
X231727500Y-71580000D03*
D13*
X224107500Y-66500000D03*
D15*
X222102500Y-69040000D03*
D14*
X232997500Y-63960000D03*
D15*
X235029500Y-71580000D03*
D14*
X226647500Y-61420000D03*
D12*
X213997500Y-86852500D03*
X206377500Y-86852500D03*
D13*
X205107500Y-84312500D03*
D12*
X212727500Y-89392500D03*
D13*
X215267500Y-84312500D03*
D12*
X207647500Y-89392500D03*
D11*
X210187500Y-84312500D03*
D15*
X203102500Y-86852500D03*
D14*
X213997500Y-81772500D03*
X207647500Y-79232500D03*
D15*
X216029500Y-89392500D03*
D22*
X162687500Y-64125000D03*
X143687500Y-64125000D03*
X231562500Y-102718750D03*
X219687500Y-59375000D03*
X143687500Y-83125000D03*
X162687500Y-83125000D03*
M02*
