M48
; DRILL file {KiCad (6.0.7-1)-1} date 2022 December 09, Friday 12:24:11
; FORMAT={-:-/ absolute / inch / decimal}
; #@! TF.CreationDate,2022-12-09T12:24:11+10:00
; #@! TF.GenerationSoftware,Kicad,Pcbnew,(6.0.7-1)-1
; #@! TF.FileFunction,NonPlated,1,2,NPTH
FMAT,2
INCH
; #@! TA.AperFunction,NonPlated,NPTH,ComponentDrill
T1C0.0315
; #@! TA.AperFunction,NonPlated,NPTH,ComponentDrill
T2C0.0748
; #@! TA.AperFunction,NonPlated,NPTH,ComponentDrill
T3C0.1181
; #@! TA.AperFunction,NonPlated,NPTH,ComponentDrill
T4C0.1614
%
G90
G05
T1
X0.9847Y-1.8755
X0.9847Y-1.9582
X1.2603Y-1.8755
X1.2603Y-1.9582
T2
X-4.6882Y-1.0753
X-4.2882Y-1.0753
X-3.9402Y-0.2805
X-3.9402Y-1.0285
X-3.9402Y-1.7766
X-3.5402Y-0.2805
X-3.5402Y-1.0285
X-3.5402Y-1.7766
X-3.1921Y-0.2805
X-3.1921Y-1.0285
X-3.1921Y-1.7766
X-2.7921Y-0.2805
X-2.7921Y-1.0285
X-2.7921Y-1.7766
X-2.4441Y0.0
X-2.4441Y-0.748
X-2.4441Y-1.4961
X-2.0441Y0.0
X-2.0441Y-0.748
X-2.0441Y-1.4961
X-1.6961Y0.2338
X-1.6961Y-0.5143
X-1.6961Y-1.2623
X-1.4623Y-2.1973
X-1.2961Y0.2338
X-1.2961Y-0.5143
X-1.2961Y-1.2623
X-1.0623Y-2.1973
X-0.948Y0.0468
X-0.948Y-0.7013
X-0.948Y-1.4493
X-0.614Y-2.2391
X-0.548Y0.0468
X-0.548Y-0.7013
X-0.548Y-1.4493
X-0.2276Y-2.3426
X-0.2Y0.0
X-0.2Y-0.748
X-0.2Y-1.4961
X0.2Y0.0
X0.2Y-0.748
X0.2Y-1.4961
X0.3675Y-2.6744
X0.5675Y-2.328
T3
X-4.6382Y-1.1753
X-4.5882Y-1.2753
X-4.3882Y-1.2753
X-4.3382Y-1.1753
X-3.8902Y-0.3805
X-3.8902Y-1.1285
X-3.8902Y-1.8766
X-3.8402Y-0.4805
X-3.8402Y-1.2285
X-3.8402Y-1.9766
X-3.6402Y-0.4805
X-3.6402Y-1.2285
X-3.6402Y-1.9766
X-3.5902Y-0.3805
X-3.5902Y-1.1285
X-3.5902Y-1.8766
X-3.1421Y-0.3805
X-3.1421Y-1.1285
X-3.1421Y-1.8766
X-3.0921Y-0.4805
X-3.0921Y-1.2285
X-3.0921Y-1.9766
X-2.8921Y-0.4805
X-2.8921Y-1.2285
X-2.8921Y-1.9766
X-2.8421Y-0.3805
X-2.8421Y-1.1285
X-2.8421Y-1.8766
X-2.3941Y-0.1
X-2.3941Y-0.848
X-2.3941Y-1.5961
X-2.3441Y-0.2
X-2.3441Y-0.948
X-2.3441Y-1.6961
X-2.1441Y-0.2
X-2.1441Y-0.948
X-2.1441Y-1.6961
X-2.0941Y-0.1
X-2.0941Y-0.848
X-2.0941Y-1.5961
X-1.6461Y0.1338
X-1.6461Y-0.6143
X-1.6461Y-1.3623
X-1.5961Y0.0338
X-1.5961Y-0.7143
X-1.5961Y-1.4623
X-1.4123Y-2.2973
X-1.3961Y0.0338
X-1.3961Y-0.7143
X-1.3961Y-1.4623
X-1.3623Y-2.3973
X-1.3461Y0.1338
X-1.3461Y-0.6143
X-1.3461Y-1.3623
X-1.1623Y-2.3973
X-1.1123Y-2.2973
X-0.898Y-0.0532
X-0.898Y-0.8013
X-0.898Y-1.5493
X-0.848Y-0.1532
X-0.848Y-0.9013
X-0.848Y-1.6493
X-0.648Y-0.1532
X-0.648Y-0.9013
X-0.648Y-1.6493
X-0.598Y-0.0532
X-0.598Y-0.8013
X-0.598Y-1.5493
X-0.5915Y-2.3486
X-0.5691Y-2.4581
X-0.3759Y-2.5099
X-0.3018Y-2.4263
X-0.15Y-0.1
X-0.15Y-0.848
X-0.15Y-1.5961
X-0.1Y-0.2
X-0.1Y-0.948
X-0.1Y-1.6961
X0.1Y-0.2
X0.1Y-0.948
X0.1Y-1.6961
X0.15Y-0.1
X0.15Y-0.848
X0.15Y-1.5961
X0.4791Y-2.6811
X0.5907Y-2.6878
X0.6291Y-2.4213
X0.6907Y-2.5146
T4
X-4.4882Y-1.0753
X-3.7402Y-0.2805
X-3.7402Y-1.0285
X-3.7402Y-1.7766
X-2.9921Y-0.2805
X-2.9921Y-1.0285
X-2.9921Y-1.7766
X-2.2441Y0.0
X-2.2441Y-0.748
X-2.2441Y-1.4961
X-1.4961Y0.2338
X-1.4961Y-0.5143
X-1.4961Y-1.2623
X-1.2623Y-2.1973
X-0.748Y0.0468
X-0.748Y-0.7013
X-0.748Y-1.4493
X-0.4208Y-2.2908
X0.0Y0.0
X0.0Y-0.748
X0.0Y-1.4961
X0.4675Y-2.5012
T0
M30
