G04 #@! TF.GenerationSoftware,KiCad,Pcbnew,(6.0.7-1)-1*
G04 #@! TF.CreationDate,2022-12-30T18:39:57+10:00*
G04 #@! TF.ProjectId,jantor,6a616e74-6f72-42e6-9b69-6361645f7063,rev?*
G04 #@! TF.SameCoordinates,Original*
G04 #@! TF.FileFunction,Legend,Top*
G04 #@! TF.FilePolarity,Positive*
%FSLAX46Y46*%
G04 Gerber Fmt 4.6, Leading zero omitted, Abs format (unit mm)*
G04 Created by KiCad (PCBNEW (6.0.7-1)-1) date 2022-12-30 18:39:57*
%MOMM*%
%LPD*%
G01*
G04 APERTURE LIST*
%ADD10C,0.150000*%
%ADD11C,0.500000*%
%ADD12C,0.400000*%
%ADD13C,3.000000*%
%ADD14C,0.800000*%
%ADD15C,3.500000*%
%ADD16C,0.300000*%
%ADD17C,1.000000*%
%ADD18C,0.120000*%
G04 APERTURE END LIST*
D10*
X7424107Y-51230714D02*
X7424107Y-52087857D01*
X7376488Y-52183095D01*
X7281250Y-52230714D01*
X7233630Y-52230714D01*
X7424107Y-50897380D02*
X7376488Y-50945000D01*
X7424107Y-50992619D01*
X7471726Y-50945000D01*
X7424107Y-50897380D01*
X7424107Y-50992619D01*
X8328869Y-51897380D02*
X8328869Y-51373571D01*
X8281250Y-51278333D01*
X8186011Y-51230714D01*
X7995535Y-51230714D01*
X7900297Y-51278333D01*
X8328869Y-51849761D02*
X8233630Y-51897380D01*
X7995535Y-51897380D01*
X7900297Y-51849761D01*
X7852678Y-51754523D01*
X7852678Y-51659285D01*
X7900297Y-51564047D01*
X7995535Y-51516428D01*
X8233630Y-51516428D01*
X8328869Y-51468809D01*
X8805059Y-51230714D02*
X8805059Y-51897380D01*
X8805059Y-51325952D02*
X8852678Y-51278333D01*
X8947916Y-51230714D01*
X9090773Y-51230714D01*
X9186011Y-51278333D01*
X9233630Y-51373571D01*
X9233630Y-51897380D01*
X9566964Y-51230714D02*
X9947916Y-51230714D01*
X9709821Y-50897380D02*
X9709821Y-51754523D01*
X9757440Y-51849761D01*
X9852678Y-51897380D01*
X9947916Y-51897380D01*
X10424107Y-51897380D02*
X10328869Y-51849761D01*
X10281250Y-51802142D01*
X10233630Y-51706904D01*
X10233630Y-51421190D01*
X10281250Y-51325952D01*
X10328869Y-51278333D01*
X10424107Y-51230714D01*
X10566964Y-51230714D01*
X10662202Y-51278333D01*
X10709821Y-51325952D01*
X10757440Y-51421190D01*
X10757440Y-51706904D01*
X10709821Y-51802142D01*
X10662202Y-51849761D01*
X10566964Y-51897380D01*
X10424107Y-51897380D01*
X11186011Y-51897380D02*
X11186011Y-51230714D01*
X11186011Y-51421190D02*
X11233630Y-51325952D01*
X11281250Y-51278333D01*
X11376488Y-51230714D01*
X11471726Y-51230714D01*
X12471726Y-51230714D02*
X12709821Y-51897380D01*
X12947916Y-51230714D01*
X13471726Y-51802142D02*
X13519345Y-51849761D01*
X13471726Y-51897380D01*
X13424107Y-51849761D01*
X13471726Y-51802142D01*
X13471726Y-51897380D01*
X13281250Y-50945000D02*
X13376488Y-50897380D01*
X13614583Y-50897380D01*
X13709821Y-50945000D01*
X13757440Y-51040238D01*
X13757440Y-51135476D01*
X13709821Y-51230714D01*
X13662202Y-51278333D01*
X13566964Y-51325952D01*
X13519345Y-51373571D01*
X13471726Y-51468809D01*
X13471726Y-51516428D01*
X14186011Y-51802142D02*
X14233630Y-51849761D01*
X14186011Y-51897380D01*
X14138392Y-51849761D01*
X14186011Y-51802142D01*
X14186011Y-51897380D01*
X15186011Y-51897380D02*
X14614583Y-51897380D01*
X14900297Y-51897380D02*
X14900297Y-50897380D01*
X14805059Y-51040238D01*
X14709821Y-51135476D01*
X14614583Y-51183095D01*
X5090773Y-53507380D02*
X5090773Y-52507380D01*
X5090773Y-53459761D02*
X4995535Y-53507380D01*
X4805059Y-53507380D01*
X4709821Y-53459761D01*
X4662202Y-53412142D01*
X4614583Y-53316904D01*
X4614583Y-53031190D01*
X4662202Y-52935952D01*
X4709821Y-52888333D01*
X4805059Y-52840714D01*
X4995535Y-52840714D01*
X5090773Y-52888333D01*
X5947916Y-53459761D02*
X5852678Y-53507380D01*
X5662202Y-53507380D01*
X5566964Y-53459761D01*
X5519345Y-53364523D01*
X5519345Y-52983571D01*
X5566964Y-52888333D01*
X5662202Y-52840714D01*
X5852678Y-52840714D01*
X5947916Y-52888333D01*
X5995535Y-52983571D01*
X5995535Y-53078809D01*
X5519345Y-53174047D01*
X6376488Y-53459761D02*
X6471726Y-53507380D01*
X6662202Y-53507380D01*
X6757440Y-53459761D01*
X6805059Y-53364523D01*
X6805059Y-53316904D01*
X6757440Y-53221666D01*
X6662202Y-53174047D01*
X6519345Y-53174047D01*
X6424107Y-53126428D01*
X6376488Y-53031190D01*
X6376488Y-52983571D01*
X6424107Y-52888333D01*
X6519345Y-52840714D01*
X6662202Y-52840714D01*
X6757440Y-52888333D01*
X7233630Y-53507380D02*
X7233630Y-52840714D01*
X7233630Y-52507380D02*
X7186011Y-52555000D01*
X7233630Y-52602619D01*
X7281250Y-52555000D01*
X7233630Y-52507380D01*
X7233630Y-52602619D01*
X8138392Y-52840714D02*
X8138392Y-53650238D01*
X8090773Y-53745476D01*
X8043154Y-53793095D01*
X7947916Y-53840714D01*
X7805059Y-53840714D01*
X7709821Y-53793095D01*
X8138392Y-53459761D02*
X8043154Y-53507380D01*
X7852678Y-53507380D01*
X7757440Y-53459761D01*
X7709821Y-53412142D01*
X7662202Y-53316904D01*
X7662202Y-53031190D01*
X7709821Y-52935952D01*
X7757440Y-52888333D01*
X7852678Y-52840714D01*
X8043154Y-52840714D01*
X8138392Y-52888333D01*
X8614583Y-52840714D02*
X8614583Y-53507380D01*
X8614583Y-52935952D02*
X8662202Y-52888333D01*
X8757440Y-52840714D01*
X8900297Y-52840714D01*
X8995535Y-52888333D01*
X9043154Y-52983571D01*
X9043154Y-53507380D01*
X9900297Y-53459761D02*
X9805059Y-53507380D01*
X9614583Y-53507380D01*
X9519345Y-53459761D01*
X9471726Y-53364523D01*
X9471726Y-52983571D01*
X9519345Y-52888333D01*
X9614583Y-52840714D01*
X9805059Y-52840714D01*
X9900297Y-52888333D01*
X9947916Y-52983571D01*
X9947916Y-53078809D01*
X9471726Y-53174047D01*
X10805059Y-53507380D02*
X10805059Y-52507380D01*
X10805059Y-53459761D02*
X10709821Y-53507380D01*
X10519345Y-53507380D01*
X10424107Y-53459761D01*
X10376488Y-53412142D01*
X10328869Y-53316904D01*
X10328869Y-53031190D01*
X10376488Y-52935952D01*
X10424107Y-52888333D01*
X10519345Y-52840714D01*
X10709821Y-52840714D01*
X10805059Y-52888333D01*
X12043154Y-53507380D02*
X12043154Y-52507380D01*
X12043154Y-52888333D02*
X12138392Y-52840714D01*
X12328869Y-52840714D01*
X12424107Y-52888333D01*
X12471726Y-52935952D01*
X12519345Y-53031190D01*
X12519345Y-53316904D01*
X12471726Y-53412142D01*
X12424107Y-53459761D01*
X12328869Y-53507380D01*
X12138392Y-53507380D01*
X12043154Y-53459761D01*
X12852678Y-52840714D02*
X13090773Y-53507380D01*
X13328869Y-52840714D02*
X13090773Y-53507380D01*
X12995535Y-53745476D01*
X12947916Y-53793095D01*
X12852678Y-53840714D01*
X14424107Y-53459761D02*
X14566964Y-53507380D01*
X14805059Y-53507380D01*
X14900297Y-53459761D01*
X14947916Y-53412142D01*
X14995535Y-53316904D01*
X14995535Y-53221666D01*
X14947916Y-53126428D01*
X14900297Y-53078809D01*
X14805059Y-53031190D01*
X14614583Y-52983571D01*
X14519345Y-52935952D01*
X14471726Y-52888333D01*
X14424107Y-52793095D01*
X14424107Y-52697857D01*
X14471726Y-52602619D01*
X14519345Y-52555000D01*
X14614583Y-52507380D01*
X14852678Y-52507380D01*
X14995535Y-52555000D01*
X15852678Y-53507380D02*
X15852678Y-52983571D01*
X15805059Y-52888333D01*
X15709821Y-52840714D01*
X15519345Y-52840714D01*
X15424107Y-52888333D01*
X15852678Y-53459761D02*
X15757440Y-53507380D01*
X15519345Y-53507380D01*
X15424107Y-53459761D01*
X15376488Y-53364523D01*
X15376488Y-53269285D01*
X15424107Y-53174047D01*
X15519345Y-53126428D01*
X15757440Y-53126428D01*
X15852678Y-53078809D01*
X16186011Y-52840714D02*
X16566964Y-52840714D01*
X16328869Y-52507380D02*
X16328869Y-53364523D01*
X16376488Y-53459761D01*
X16471726Y-53507380D01*
X16566964Y-53507380D01*
X17424107Y-53507380D02*
X16852678Y-53507380D01*
X17138392Y-53507380D02*
X17138392Y-52507380D01*
X17043154Y-52650238D01*
X16947916Y-52745476D01*
X16852678Y-52793095D01*
X17995535Y-53507380D02*
X17900297Y-53459761D01*
X17852678Y-53364523D01*
X17852678Y-52507380D01*
X-67261904Y-17577380D02*
X-67261904Y-16577380D01*
X-67261904Y-17053571D02*
X-66690476Y-17053571D01*
X-66690476Y-17577380D02*
X-66690476Y-16577380D01*
X-65785714Y-16577380D02*
X-65976190Y-16577380D01*
X-66071428Y-16625000D01*
X-66119047Y-16672619D01*
X-66214285Y-16815476D01*
X-66261904Y-17005952D01*
X-66261904Y-17386904D01*
X-66214285Y-17482142D01*
X-66166666Y-17529761D01*
X-66071428Y-17577380D01*
X-65880952Y-17577380D01*
X-65785714Y-17529761D01*
X-65738095Y-17482142D01*
X-65690476Y-17386904D01*
X-65690476Y-17148809D01*
X-65738095Y-17053571D01*
X-65785714Y-17005952D01*
X-65880952Y-16958333D01*
X-66071428Y-16958333D01*
X-66166666Y-17005952D01*
X-66214285Y-17053571D01*
X-66261904Y-17148809D01*
X21108095Y10888869D02*
X21108095Y10079345D01*
X21155714Y9984107D01*
X21203333Y9936488D01*
X21298571Y9888869D01*
X21489047Y9888869D01*
X21584285Y9936488D01*
X21631904Y9984107D01*
X21679523Y10079345D01*
X21679523Y10888869D01*
X22679523Y9888869D02*
X22108095Y9888869D01*
X22393809Y9888869D02*
X22393809Y10888869D01*
X22298571Y10746011D01*
X22203333Y10650773D01*
X22108095Y10603154D01*
X1613095Y-56171130D02*
X1613095Y-55171130D01*
X1613095Y-55647321D02*
X2184523Y-55647321D01*
X2184523Y-56171130D02*
X2184523Y-55171130D01*
X3089285Y-55504464D02*
X3089285Y-56171130D01*
X2851190Y-55123511D02*
X2613095Y-55837797D01*
X3232142Y-55837797D01*
X-86261904Y-17577380D02*
X-86261904Y-16577380D01*
X-86261904Y-17053571D02*
X-85690476Y-17053571D01*
X-85690476Y-17577380D02*
X-85690476Y-16577380D01*
X-84738095Y-16577380D02*
X-85214285Y-16577380D01*
X-85261904Y-17053571D01*
X-85214285Y-17005952D01*
X-85119047Y-16958333D01*
X-84880952Y-16958333D01*
X-84785714Y-17005952D01*
X-84738095Y-17053571D01*
X-84690476Y-17148809D01*
X-84690476Y-17386904D01*
X-84738095Y-17482142D01*
X-84785714Y-17529761D01*
X-84880952Y-17577380D01*
X-85119047Y-17577380D01*
X-85214285Y-17529761D01*
X-85261904Y-17482142D01*
X-86261904Y-36577380D02*
X-86261904Y-35577380D01*
X-86261904Y-36053571D02*
X-85690476Y-36053571D01*
X-85690476Y-36577380D02*
X-85690476Y-35577380D01*
X-85261904Y-35672619D02*
X-85214285Y-35625000D01*
X-85119047Y-35577380D01*
X-84880952Y-35577380D01*
X-84785714Y-35625000D01*
X-84738095Y-35672619D01*
X-84690476Y-35767857D01*
X-84690476Y-35863095D01*
X-84738095Y-36005952D01*
X-85309523Y-36577380D01*
X-84690476Y-36577380D01*
X37160119Y-48975595D02*
X36350595Y-48975595D01*
X36255357Y-49023214D01*
X36207738Y-49070833D01*
X36160119Y-49166071D01*
X36160119Y-49356547D01*
X36207738Y-49451785D01*
X36255357Y-49499404D01*
X36350595Y-49547023D01*
X37160119Y-49547023D01*
X37064880Y-49975595D02*
X37112500Y-50023214D01*
X37160119Y-50118452D01*
X37160119Y-50356547D01*
X37112500Y-50451785D01*
X37064880Y-50499404D01*
X36969642Y-50547023D01*
X36874404Y-50547023D01*
X36731547Y-50499404D01*
X36160119Y-49927976D01*
X36160119Y-50547023D01*
X-10261904Y-9264880D02*
X-10261904Y-8264880D01*
X-10261904Y-8741071D02*
X-9690476Y-8741071D01*
X-9690476Y-9264880D02*
X-9690476Y-8264880D01*
X-9309523Y-8264880D02*
X-8690476Y-8264880D01*
X-9023809Y-8645833D01*
X-8880952Y-8645833D01*
X-8785714Y-8693452D01*
X-8738095Y-8741071D01*
X-8690476Y-8836309D01*
X-8690476Y-9074404D01*
X-8738095Y-9169642D01*
X-8785714Y-9217261D01*
X-8880952Y-9264880D01*
X-9166666Y-9264880D01*
X-9261904Y-9217261D01*
X-9309523Y-9169642D01*
X-67261904Y-36577380D02*
X-67261904Y-35577380D01*
X-67261904Y-36053571D02*
X-66690476Y-36053571D01*
X-66690476Y-36577380D02*
X-66690476Y-35577380D01*
X-65690476Y-36577380D02*
X-66261904Y-36577380D01*
X-65976190Y-36577380D02*
X-65976190Y-35577380D01*
X-66071428Y-35720238D01*
X-66166666Y-35815476D01*
X-66261904Y-35863095D01*
D11*
X-5450000Y-20300000D02*
X-3000000Y-20300000D01*
X4200000Y-22250000D02*
X2900000Y-22300000D01*
D10*
X-400000Y-22000000D02*
X4400000Y-22000000D01*
X4400000Y-25600000D02*
X-3800001Y-25600000D01*
D12*
X4250000Y-25400000D02*
X3000000Y-25400000D01*
D13*
X-4170000Y-24100000D02*
X-4170000Y-21860000D01*
D14*
X-5300000Y-20600000D02*
X-5300000Y-22399999D01*
D10*
X4380000Y-23000000D02*
X4380000Y-25250000D01*
X-5900000Y-22950000D02*
X-5700000Y-22950000D01*
D15*
X2600000Y-23800000D02*
X-4100000Y-23800000D01*
D10*
X4400000Y-22000000D02*
X4400000Y-25600000D01*
D16*
X-5800000Y-23050000D02*
X-5800000Y-23700000D01*
D10*
X-5650000Y-20100000D02*
X-2620000Y-20100000D01*
X-5900000Y-23700000D02*
X-5900000Y-22950000D01*
D17*
X3900000Y-25000000D02*
X3900000Y-22500000D01*
D10*
X-5650000Y-24550000D02*
X-5650000Y-20100000D01*
X-2616318Y-20121471D02*
G75*
G03*
X-400000Y-22000000I2151317J291470D01*
G01*
X-5899999Y-23699999D02*
G75*
G03*
X-3800001Y-25600000I1999998J99997D01*
G01*
D17*
X-3016318Y-20521471D02*
G75*
G03*
X-800000Y-22400000I2151317J291470D01*
G01*
D10*
X-43900000Y-36762500D02*
X-43900000Y-36012500D01*
D11*
X-43450000Y-33362500D02*
X-41000000Y-33362500D01*
D16*
X-43800000Y-36112500D02*
X-43800000Y-36762500D01*
D10*
X-43900000Y-36012500D02*
X-43700000Y-36012500D01*
D11*
X-33800000Y-35312500D02*
X-35100000Y-35362500D01*
D10*
X-33600000Y-38662500D02*
X-41800001Y-38662500D01*
D13*
X-42170000Y-37162500D02*
X-42170000Y-34922500D01*
D10*
X-33600000Y-35062500D02*
X-33600000Y-38662500D01*
X-43650000Y-33162500D02*
X-40620000Y-33162500D01*
X-43650000Y-37612500D02*
X-43650000Y-33162500D01*
X-38400000Y-35062500D02*
X-33600000Y-35062500D01*
D12*
X-33750000Y-38462500D02*
X-35000000Y-38462500D01*
D14*
X-43300000Y-33662500D02*
X-43300000Y-35462499D01*
D17*
X-34100000Y-38062500D02*
X-34100000Y-35562500D01*
D10*
X-33620000Y-36062500D02*
X-33620000Y-38312500D01*
D15*
X-35400000Y-36862500D02*
X-42100000Y-36862500D01*
D10*
X-43899999Y-36762499D02*
G75*
G03*
X-41800001Y-38662500I1999998J99997D01*
G01*
D17*
X-41016318Y-33583971D02*
G75*
G03*
X-38800000Y-35462500I2151317J291470D01*
G01*
D10*
X-40616318Y-33183971D02*
G75*
G03*
X-38400000Y-35062500I2151317J291470D01*
G01*
X-14600000Y-39812500D02*
X-14600000Y-43412500D01*
D13*
X-23170000Y-41912500D02*
X-23170000Y-39672500D01*
D11*
X-24450000Y-38112500D02*
X-22000000Y-38112500D01*
D17*
X-15100000Y-42812500D02*
X-15100000Y-40312500D01*
D15*
X-16400000Y-41612500D02*
X-23100000Y-41612500D01*
D10*
X-19400000Y-39812500D02*
X-14600000Y-39812500D01*
X-24650000Y-37912500D02*
X-21620000Y-37912500D01*
D16*
X-24800000Y-40862500D02*
X-24800000Y-41512500D01*
D10*
X-24900000Y-41512500D02*
X-24900000Y-40762500D01*
X-14600000Y-43412500D02*
X-22800001Y-43412500D01*
X-14620000Y-40812500D02*
X-14620000Y-43062500D01*
D12*
X-14750000Y-43212500D02*
X-16000000Y-43212500D01*
D10*
X-24900000Y-40762500D02*
X-24700000Y-40762500D01*
X-24650000Y-42362500D02*
X-24650000Y-37912500D01*
D11*
X-14800000Y-40062500D02*
X-16100000Y-40112500D01*
D14*
X-24300000Y-38412500D02*
X-24300000Y-40212499D01*
D10*
X-21616318Y-37933971D02*
G75*
G03*
X-19400000Y-39812500I2151317J291470D01*
G01*
D17*
X-22016318Y-38333971D02*
G75*
G03*
X-19800000Y-40212500I2151317J291470D01*
G01*
D10*
X-24899999Y-41512499D02*
G75*
G03*
X-22800001Y-43412500I1999998J99997D01*
G01*
D17*
X-34100000Y-19062500D02*
X-34100000Y-16562500D01*
D10*
X-43900000Y-17012500D02*
X-43700000Y-17012500D01*
D16*
X-43800000Y-17112500D02*
X-43800000Y-17762500D01*
D11*
X-33800000Y-16312500D02*
X-35100000Y-16362500D01*
D10*
X-33600000Y-19662500D02*
X-41800001Y-19662500D01*
D14*
X-43300000Y-14662500D02*
X-43300000Y-16462499D01*
D12*
X-33750000Y-19462500D02*
X-35000000Y-19462500D01*
D10*
X-33620000Y-17062500D02*
X-33620000Y-19312500D01*
X-43650000Y-14162500D02*
X-40620000Y-14162500D01*
X-43650000Y-18612500D02*
X-43650000Y-14162500D01*
X-38400000Y-16062500D02*
X-33600000Y-16062500D01*
D13*
X-42170000Y-18162500D02*
X-42170000Y-15922500D01*
D11*
X-43450000Y-14362500D02*
X-41000000Y-14362500D01*
D15*
X-35400000Y-17862500D02*
X-42100000Y-17862500D01*
D10*
X-33600000Y-16062500D02*
X-33600000Y-19662500D01*
X-43900000Y-17762500D02*
X-43900000Y-17012500D01*
X-43899999Y-17762499D02*
G75*
G03*
X-41800001Y-19662500I1999998J99997D01*
G01*
X-40616318Y-14183971D02*
G75*
G03*
X-38400000Y-16062500I2151317J291470D01*
G01*
D17*
X-41016318Y-14583971D02*
G75*
G03*
X-38800000Y-16462500I2151317J291470D01*
G01*
D15*
X-35400000Y1137500D02*
X-42100000Y1137500D01*
D10*
X-43900000Y1237500D02*
X-43900000Y1987500D01*
X-43900000Y1987500D02*
X-43700000Y1987500D01*
X-33620000Y1937500D02*
X-33620000Y-312500D01*
D11*
X-43450000Y4637500D02*
X-41000000Y4637500D01*
X-33800000Y2687500D02*
X-35100000Y2637500D01*
D10*
X-33600000Y-662500D02*
X-41800001Y-662500D01*
D14*
X-43300000Y4337500D02*
X-43300000Y2537501D01*
D12*
X-33750000Y-462500D02*
X-35000000Y-462500D01*
D16*
X-43800000Y1887500D02*
X-43800000Y1237500D01*
D10*
X-38400000Y2937500D02*
X-33600000Y2937500D01*
X-43650000Y387500D02*
X-43650000Y4837500D01*
D13*
X-42170000Y837500D02*
X-42170000Y3077500D01*
D10*
X-33600000Y2937500D02*
X-33600000Y-662500D01*
D17*
X-34100000Y-62500D02*
X-34100000Y2437500D01*
D10*
X-43650000Y4837500D02*
X-40620000Y4837500D01*
X-43899999Y1237501D02*
G75*
G03*
X-41800001Y-662500I1999998J99997D01*
G01*
D17*
X-41016318Y4416029D02*
G75*
G03*
X-38800000Y2537500I2151317J291470D01*
G01*
D10*
X-40616318Y4816029D02*
G75*
G03*
X-38400000Y2937500I2151317J291470D01*
G01*
X-90600000Y-29125000D02*
X-90600000Y-32725000D01*
X-100650000Y-31675000D02*
X-100650000Y-27225000D01*
D17*
X-91100000Y-32125000D02*
X-91100000Y-29625000D01*
D10*
X-90600000Y-32725000D02*
X-98800001Y-32725000D01*
X-100900000Y-30075000D02*
X-100700000Y-30075000D01*
D14*
X-100300000Y-27725000D02*
X-100300000Y-29524999D01*
D10*
X-90620000Y-30125000D02*
X-90620000Y-32375000D01*
D11*
X-100450000Y-27425000D02*
X-98000000Y-27425000D01*
X-90800000Y-29375000D02*
X-92100000Y-29425000D01*
D13*
X-99170000Y-31225000D02*
X-99170000Y-28985000D01*
D10*
X-100900000Y-30825000D02*
X-100900000Y-30075000D01*
D16*
X-100800000Y-30175000D02*
X-100800000Y-30825000D01*
D15*
X-92400000Y-30925000D02*
X-99100000Y-30925000D01*
D10*
X-100650000Y-27225000D02*
X-97620000Y-27225000D01*
X-95400000Y-29125000D02*
X-90600000Y-29125000D01*
D12*
X-90750000Y-32525000D02*
X-92000000Y-32525000D01*
D10*
X-97616318Y-27246471D02*
G75*
G03*
X-95400000Y-29125000I2151317J291470D01*
G01*
D17*
X-98016318Y-27646471D02*
G75*
G03*
X-95800000Y-29525000I2151317J291470D01*
G01*
D10*
X-100899999Y-30824999D02*
G75*
G03*
X-98800001Y-32725000I1999998J99997D01*
G01*
D12*
X4250000Y-6400000D02*
X3000000Y-6400000D01*
D11*
X-5450000Y-1300000D02*
X-3000000Y-1300000D01*
D14*
X-5300000Y-1600000D02*
X-5300000Y-3399999D01*
D16*
X-5800000Y-4050000D02*
X-5800000Y-4700000D01*
D10*
X4380000Y-4000000D02*
X4380000Y-6250000D01*
D17*
X3900000Y-6000000D02*
X3900000Y-3500000D01*
D10*
X-5900000Y-4700000D02*
X-5900000Y-3950000D01*
D15*
X2600000Y-4800000D02*
X-4100000Y-4800000D01*
D10*
X-5900000Y-3950000D02*
X-5700000Y-3950000D01*
X-400000Y-3000000D02*
X4400000Y-3000000D01*
X4400000Y-3000000D02*
X4400000Y-6600000D01*
D11*
X4200000Y-3250000D02*
X2900000Y-3300000D01*
D10*
X-5650000Y-1100000D02*
X-2620000Y-1100000D01*
D13*
X-4170000Y-5100000D02*
X-4170000Y-2860000D01*
D10*
X4400000Y-6600000D02*
X-3800001Y-6600000D01*
X-5650000Y-5550000D02*
X-5650000Y-1100000D01*
X-2616318Y-1121471D02*
G75*
G03*
X-400000Y-3000000I2151317J291470D01*
G01*
X-5899999Y-4699999D02*
G75*
G03*
X-3800001Y-6600000I1999998J99997D01*
G01*
D17*
X-3016318Y-1521471D02*
G75*
G03*
X-800000Y-3400000I2151317J291470D01*
G01*
D10*
X-52600000Y-22000000D02*
X-52600000Y-25600000D01*
X-62900000Y-22950000D02*
X-62700000Y-22950000D01*
D17*
X-53100000Y-25000000D02*
X-53100000Y-22500000D01*
D16*
X-62800000Y-23050000D02*
X-62800000Y-23700000D01*
D13*
X-61170000Y-24100000D02*
X-61170000Y-21860000D01*
D10*
X-52600000Y-25600000D02*
X-60800001Y-25600000D01*
X-62900000Y-23700000D02*
X-62900000Y-22950000D01*
D15*
X-54400000Y-23800000D02*
X-61100000Y-23800000D01*
D10*
X-62650000Y-24550000D02*
X-62650000Y-20100000D01*
D11*
X-52800000Y-22250000D02*
X-54100000Y-22300000D01*
D14*
X-62300000Y-20600000D02*
X-62300000Y-22399999D01*
D10*
X-52620000Y-23000000D02*
X-52620000Y-25250000D01*
X-57400000Y-22000000D02*
X-52600000Y-22000000D01*
D11*
X-62450000Y-20300000D02*
X-60000000Y-20300000D01*
D12*
X-52750000Y-25400000D02*
X-54000000Y-25400000D01*
D10*
X-62650000Y-20100000D02*
X-59620000Y-20100000D01*
X-59616318Y-20121471D02*
G75*
G03*
X-57400000Y-22000000I2151317J291470D01*
G01*
D17*
X-60016318Y-20521471D02*
G75*
G03*
X-57800000Y-22400000I2151317J291470D01*
G01*
D10*
X-62899999Y-23699999D02*
G75*
G03*
X-60800001Y-25600000I1999998J99997D01*
G01*
X-37962500Y-59762500D02*
X-37762500Y-59762500D01*
D11*
X-37512500Y-57112500D02*
X-35062500Y-57112500D01*
D10*
X-27682500Y-59812500D02*
X-27682500Y-62062500D01*
D13*
X-36232500Y-60912500D02*
X-36232500Y-58672500D01*
D10*
X-27662500Y-58812500D02*
X-27662500Y-62412500D01*
X-32462500Y-58812500D02*
X-27662500Y-58812500D01*
D17*
X-28162500Y-61812500D02*
X-28162500Y-59312500D01*
D12*
X-27812500Y-62212500D02*
X-29062500Y-62212500D01*
D10*
X-37712500Y-61362500D02*
X-37712500Y-56912500D01*
D11*
X-27862500Y-59062500D02*
X-29162500Y-59112500D01*
D14*
X-37362500Y-57412500D02*
X-37362500Y-59212499D01*
D10*
X-27662500Y-62412500D02*
X-35862501Y-62412500D01*
D15*
X-29462500Y-60612500D02*
X-36162500Y-60612500D01*
D16*
X-37862500Y-59862500D02*
X-37862500Y-60512500D01*
D10*
X-37712500Y-56912500D02*
X-34682500Y-56912500D01*
X-37962500Y-60512500D02*
X-37962500Y-59762500D01*
D17*
X-35078818Y-57333971D02*
G75*
G03*
X-32862500Y-59212500I2151317J291470D01*
G01*
D10*
X-34678818Y-56933971D02*
G75*
G03*
X-32462500Y-58812500I2151317J291470D01*
G01*
X-37962499Y-60512499D02*
G75*
G03*
X-35862501Y-62412500I1999998J99997D01*
G01*
X-71600000Y-29125000D02*
X-71600000Y-32725000D01*
D13*
X-80170000Y-31225000D02*
X-80170000Y-28985000D01*
D15*
X-73400000Y-30925000D02*
X-80100000Y-30925000D01*
D10*
X-81650000Y-27225000D02*
X-78620000Y-27225000D01*
X-81900000Y-30825000D02*
X-81900000Y-30075000D01*
X-81650000Y-31675000D02*
X-81650000Y-27225000D01*
X-81900000Y-30075000D02*
X-81700000Y-30075000D01*
D11*
X-71800000Y-29375000D02*
X-73100000Y-29425000D01*
X-81450000Y-27425000D02*
X-79000000Y-27425000D01*
D16*
X-81800000Y-30175000D02*
X-81800000Y-30825000D01*
D10*
X-71620000Y-30125000D02*
X-71620000Y-32375000D01*
D14*
X-81300000Y-27725000D02*
X-81300000Y-29524999D01*
D12*
X-71750000Y-32525000D02*
X-73000000Y-32525000D01*
D17*
X-72100000Y-32125000D02*
X-72100000Y-29625000D01*
D10*
X-76400000Y-29125000D02*
X-71600000Y-29125000D01*
X-71600000Y-32725000D02*
X-79800001Y-32725000D01*
X-78616318Y-27246471D02*
G75*
G03*
X-76400000Y-29125000I2151317J291470D01*
G01*
D17*
X-79016318Y-27646471D02*
G75*
G03*
X-76800000Y-29525000I2151317J291470D01*
G01*
D10*
X-81899999Y-30824999D02*
G75*
G03*
X-79800001Y-32725000I1999998J99997D01*
G01*
D18*
X10495000Y-44173750D02*
X10495000Y8976250D01*
X28220000Y7801250D02*
X30760000Y7801250D01*
X12920000Y7861250D02*
X14250000Y7861250D01*
X33245000Y8976250D02*
X33245000Y-44173750D01*
X12920000Y-43058750D02*
X12920000Y5261250D01*
X15580000Y-43058750D02*
X12920000Y-43058750D01*
X12920000Y6531250D02*
X12920000Y7861250D01*
X15580000Y5261250D02*
X15580000Y-43058750D01*
X30760000Y-42998750D02*
X28220000Y-42998750D01*
X10495000Y8976250D02*
X33245000Y8976250D01*
X12920000Y5261250D02*
X15580000Y5261250D01*
X30760000Y7801250D02*
X30760000Y-42998750D01*
X33245000Y-44173750D02*
X10495000Y-44173750D01*
X28220000Y-42998750D02*
X28220000Y7801250D01*
D10*
X-71600000Y-48125000D02*
X-71600000Y-51725000D01*
X-81900000Y-49075000D02*
X-81700000Y-49075000D01*
X-71600000Y-51725000D02*
X-79800001Y-51725000D01*
X-81650000Y-50675000D02*
X-81650000Y-46225000D01*
D11*
X-71800000Y-48375000D02*
X-73100000Y-48425000D01*
D17*
X-72100000Y-51125000D02*
X-72100000Y-48625000D01*
D11*
X-81450000Y-46425000D02*
X-79000000Y-46425000D01*
D12*
X-71750000Y-51525000D02*
X-73000000Y-51525000D01*
D15*
X-73400000Y-49925000D02*
X-80100000Y-49925000D01*
D16*
X-81800000Y-49175000D02*
X-81800000Y-49825000D01*
D10*
X-71620000Y-49125000D02*
X-71620000Y-51375000D01*
D14*
X-81300000Y-46725000D02*
X-81300000Y-48524999D01*
D10*
X-81900000Y-49825000D02*
X-81900000Y-49075000D01*
X-81650000Y-46225000D02*
X-78620000Y-46225000D01*
D13*
X-80170000Y-50225000D02*
X-80170000Y-47985000D01*
D10*
X-76400000Y-48125000D02*
X-71600000Y-48125000D01*
X-78616318Y-46246471D02*
G75*
G03*
X-76400000Y-48125000I2151317J291470D01*
G01*
D17*
X-79016318Y-46646471D02*
G75*
G03*
X-76800000Y-48525000I2151317J291470D01*
G01*
D10*
X-81899999Y-49824999D02*
G75*
G03*
X-79800001Y-51725000I1999998J99997D01*
G01*
D11*
X-90800000Y-48375000D02*
X-92100000Y-48425000D01*
D10*
X-90600000Y-51725000D02*
X-98800001Y-51725000D01*
D12*
X-90750000Y-51525000D02*
X-92000000Y-51525000D01*
D11*
X-100450000Y-46425000D02*
X-98000000Y-46425000D01*
D13*
X-99170000Y-50225000D02*
X-99170000Y-47985000D01*
D10*
X-100900000Y-49825000D02*
X-100900000Y-49075000D01*
D14*
X-100300000Y-46725000D02*
X-100300000Y-48524999D01*
D10*
X-90600000Y-48125000D02*
X-90600000Y-51725000D01*
X-100650000Y-46225000D02*
X-97620000Y-46225000D01*
D15*
X-92400000Y-49925000D02*
X-99100000Y-49925000D01*
D10*
X-95400000Y-48125000D02*
X-90600000Y-48125000D01*
D16*
X-100800000Y-49175000D02*
X-100800000Y-49825000D01*
D17*
X-91100000Y-51125000D02*
X-91100000Y-48625000D01*
D10*
X-100650000Y-50675000D02*
X-100650000Y-46225000D01*
X-100900000Y-49075000D02*
X-100700000Y-49075000D01*
X-90620000Y-49125000D02*
X-90620000Y-51375000D01*
X-100899999Y-49824999D02*
G75*
G03*
X-98800001Y-51725000I1999998J99997D01*
G01*
X-97616318Y-46246471D02*
G75*
G03*
X-95400000Y-48125000I2151317J291470D01*
G01*
D17*
X-98016318Y-46646471D02*
G75*
G03*
X-95800000Y-48525000I2151317J291470D01*
G01*
D12*
X-52750000Y-6400000D02*
X-54000000Y-6400000D01*
D10*
X-62650000Y-1100000D02*
X-59620000Y-1100000D01*
D11*
X-52800000Y-3250000D02*
X-54100000Y-3300000D01*
X-62450000Y-1300000D02*
X-60000000Y-1300000D01*
D10*
X-52600000Y-3000000D02*
X-52600000Y-6600000D01*
X-52600000Y-6600000D02*
X-60800001Y-6600000D01*
X-62900000Y-4700000D02*
X-62900000Y-3950000D01*
X-57400000Y-3000000D02*
X-52600000Y-3000000D01*
X-52620000Y-4000000D02*
X-52620000Y-6250000D01*
D13*
X-61170000Y-5100000D02*
X-61170000Y-2860000D01*
D10*
X-62650000Y-5550000D02*
X-62650000Y-1100000D01*
D14*
X-62300000Y-1600000D02*
X-62300000Y-3399999D01*
D10*
X-62900000Y-3950000D02*
X-62700000Y-3950000D01*
D17*
X-53100000Y-6000000D02*
X-53100000Y-3500000D01*
D15*
X-54400000Y-4800000D02*
X-61100000Y-4800000D01*
D16*
X-62800000Y-4050000D02*
X-62800000Y-4700000D01*
D10*
X-59616318Y-1121471D02*
G75*
G03*
X-57400000Y-3000000I2151317J291470D01*
G01*
X-62899999Y-4699999D02*
G75*
G03*
X-60800001Y-6600000I1999998J99997D01*
G01*
D17*
X-60016318Y-1521471D02*
G75*
G03*
X-57800000Y-3400000I2151317J291470D01*
G01*
D10*
X10002628Y-68974294D02*
X11517628Y-66350237D01*
X16673076Y-61220738D02*
X19790768Y-63020738D01*
X13856441Y-71199294D02*
X10002628Y-68974294D01*
X12345800Y-70615800D02*
X12445800Y-70442595D01*
D17*
X19021152Y-63153751D02*
X16856089Y-61903751D01*
D10*
X17529102Y-61738059D02*
X19477659Y-62863059D01*
D11*
X10275833Y-68901088D02*
X11500833Y-66779326D01*
D10*
X12995319Y-70990800D02*
X12345800Y-70615800D01*
D14*
X10610641Y-68921185D02*
X12169486Y-69821184D01*
D11*
X16789583Y-61518943D02*
X16182884Y-62669776D01*
D12*
X19542563Y-63050642D02*
X18917563Y-64133174D01*
D10*
X14273076Y-65377660D02*
X16673076Y-61220738D01*
D15*
X17331922Y-63679584D02*
X13981922Y-69481954D01*
D10*
X19790768Y-63020738D02*
X15690767Y-70122147D01*
D16*
X12482403Y-70579197D02*
X13045319Y-70904197D01*
D13*
X14206730Y-69692576D02*
X12266833Y-68572576D01*
D10*
X12995319Y-70990798D02*
G75*
G03*
X15690767Y-70122147I913399J1782047D01*
G01*
X11538063Y-66357784D02*
G75*
G03*
X14273076Y-65377660I823238J2008831D01*
G01*
D17*
X11684474Y-66904193D02*
G75*
G03*
X14419486Y-65924070I823238J2008830D01*
G01*
D10*
X-114400000Y-30312500D02*
X-109600000Y-30312500D01*
D16*
X-119800000Y-31362500D02*
X-119800000Y-32012500D01*
D14*
X-119300000Y-28912500D02*
X-119300000Y-30712499D01*
D10*
X-109600000Y-30312500D02*
X-109600000Y-33912500D01*
X-109620000Y-31312500D02*
X-109620000Y-33562500D01*
D11*
X-109800000Y-30562500D02*
X-111100000Y-30612500D01*
D10*
X-119900000Y-31262500D02*
X-119700000Y-31262500D01*
X-119650000Y-32862500D02*
X-119650000Y-28412500D01*
D12*
X-109750000Y-33712500D02*
X-111000000Y-33712500D01*
D10*
X-119650000Y-28412500D02*
X-116620000Y-28412500D01*
D17*
X-110100000Y-33312500D02*
X-110100000Y-30812500D01*
D10*
X-109600000Y-33912500D02*
X-117800001Y-33912500D01*
D15*
X-111400000Y-32112500D02*
X-118100000Y-32112500D01*
D11*
X-119450000Y-28612500D02*
X-117000000Y-28612500D01*
D13*
X-118170000Y-32412500D02*
X-118170000Y-30172500D01*
D10*
X-119900000Y-32012500D02*
X-119900000Y-31262500D01*
X-116616318Y-28433971D02*
G75*
G03*
X-114400000Y-30312500I2151317J291470D01*
G01*
D17*
X-117016318Y-28833971D02*
G75*
G03*
X-114800000Y-30712500I2151317J291470D01*
G01*
D10*
X-119899999Y-32012499D02*
G75*
G03*
X-117800001Y-33912500I1999998J99997D01*
G01*
D15*
X-9418424Y-63496873D02*
X-15890127Y-61762786D01*
D10*
X-7213883Y-62224081D02*
X-8145632Y-65701414D01*
D12*
X-8238757Y-65469406D02*
X-9446164Y-65145882D01*
D14*
X-16221017Y-58361240D02*
X-16686891Y-60099906D01*
D10*
X-17602912Y-61200319D02*
X-17408798Y-60475875D01*
D16*
X-17338087Y-60598349D02*
X-17506319Y-61226201D01*
D10*
X-16429682Y-57787691D02*
X-13502927Y-58571913D01*
D17*
X-8473304Y-64992449D02*
X-7826256Y-62577635D01*
D11*
X-7471773Y-62413799D02*
X-8740418Y-62125630D01*
D10*
X-11850327Y-60981750D02*
X-7213883Y-62224081D01*
X-7492021Y-63184831D02*
X-8074364Y-65358164D01*
D11*
X-16288261Y-58032640D02*
X-13921742Y-58666746D01*
D10*
X-17408798Y-60475875D02*
X-17215612Y-60527638D01*
X-8145632Y-65701414D02*
X-16066225Y-63579098D01*
D13*
X-16035388Y-62034446D02*
X-15455633Y-59870772D01*
D10*
X-17581427Y-62086061D02*
X-16429682Y-57787691D01*
D17*
X-13994826Y-58876448D02*
G75*
G03*
X-12340225Y-61264593I2153452J-275263D01*
G01*
D10*
X-17602912Y-61200318D02*
G75*
G03*
X-16066225Y-63579098I1957732J-421048D01*
G01*
X-13504929Y-58593605D02*
G75*
G03*
X-11850327Y-60981750I2153452J-275263D01*
G01*
D17*
X-15100000Y-23812500D02*
X-15100000Y-21312500D01*
D10*
X-19400000Y-20812500D02*
X-14600000Y-20812500D01*
X-14620000Y-21812500D02*
X-14620000Y-24062500D01*
D14*
X-24300000Y-19412500D02*
X-24300000Y-21212499D01*
D13*
X-23170000Y-22912500D02*
X-23170000Y-20672500D01*
D16*
X-24800000Y-21862500D02*
X-24800000Y-22512500D01*
D10*
X-14600000Y-20812500D02*
X-14600000Y-24412500D01*
X-14600000Y-24412500D02*
X-22800001Y-24412500D01*
D11*
X-14800000Y-21062500D02*
X-16100000Y-21112500D01*
X-24450000Y-19112500D02*
X-22000000Y-19112500D01*
D10*
X-24900000Y-22512500D02*
X-24900000Y-21762500D01*
D12*
X-14750000Y-24212500D02*
X-16000000Y-24212500D01*
D10*
X-24650000Y-23362500D02*
X-24650000Y-18912500D01*
X-24650000Y-18912500D02*
X-21620000Y-18912500D01*
D15*
X-16400000Y-22612500D02*
X-23100000Y-22612500D01*
D10*
X-24900000Y-21762500D02*
X-24700000Y-21762500D01*
D17*
X-22016318Y-19333971D02*
G75*
G03*
X-19800000Y-21212500I2151317J291470D01*
G01*
D10*
X-21616318Y-18933971D02*
G75*
G03*
X-19400000Y-20812500I2151317J291470D01*
G01*
X-24899999Y-22512499D02*
G75*
G03*
X-22800001Y-24412500I1999998J99997D01*
G01*
X35612500Y-52537500D02*
X35612500Y-46937500D01*
X33612500Y-46687500D02*
X21512500Y-46687500D01*
X33612500Y-52537500D02*
X35612500Y-52537500D01*
X21512500Y-52787500D02*
X21512500Y-46687500D01*
X33612500Y-52787500D02*
X33612500Y-46687500D01*
X33612500Y-52787500D02*
X21512500Y-52787500D01*
X33612500Y-46937500D02*
X35612500Y-46937500D01*
D16*
X-100800000Y-11175000D02*
X-100800000Y-11825000D01*
D10*
X-90600000Y-10125000D02*
X-90600000Y-13725000D01*
D15*
X-92400000Y-11925000D02*
X-99100000Y-11925000D01*
D11*
X-90800000Y-10375000D02*
X-92100000Y-10425000D01*
D10*
X-100650000Y-8225000D02*
X-97620000Y-8225000D01*
X-90620000Y-11125000D02*
X-90620000Y-13375000D01*
X-100900000Y-11075000D02*
X-100700000Y-11075000D01*
D12*
X-90750000Y-13525000D02*
X-92000000Y-13525000D01*
D10*
X-95400000Y-10125000D02*
X-90600000Y-10125000D01*
X-100650000Y-12675000D02*
X-100650000Y-8225000D01*
X-90600000Y-13725000D02*
X-98800001Y-13725000D01*
D17*
X-91100000Y-13125000D02*
X-91100000Y-10625000D01*
D14*
X-100300000Y-8725000D02*
X-100300000Y-10524999D01*
D10*
X-100900000Y-11825000D02*
X-100900000Y-11075000D01*
D11*
X-100450000Y-8425000D02*
X-98000000Y-8425000D01*
D13*
X-99170000Y-12225000D02*
X-99170000Y-9985000D01*
D17*
X-98016318Y-8646471D02*
G75*
G03*
X-95800000Y-10525000I2151317J291470D01*
G01*
D10*
X-100899999Y-11824999D02*
G75*
G03*
X-98800001Y-13725000I1999998J99997D01*
G01*
X-97616318Y-8246471D02*
G75*
G03*
X-95400000Y-10125000I2151317J291470D01*
G01*
D14*
X-24300000Y-412500D02*
X-24300000Y-2212499D01*
D10*
X-24900000Y-2762500D02*
X-24700000Y-2762500D01*
X-24650000Y87500D02*
X-21620000Y87500D01*
X-24900000Y-3512500D02*
X-24900000Y-2762500D01*
D11*
X-14800000Y-2062500D02*
X-16100000Y-2112500D01*
X-24450000Y-112500D02*
X-22000000Y-112500D01*
D10*
X-19400000Y-1812500D02*
X-14600000Y-1812500D01*
X-14600000Y-5412500D02*
X-22800001Y-5412500D01*
D16*
X-24800000Y-2862500D02*
X-24800000Y-3512500D01*
D13*
X-23170000Y-3912500D02*
X-23170000Y-1672500D01*
D10*
X-24650000Y-4362500D02*
X-24650000Y87500D01*
X-14600000Y-1812500D02*
X-14600000Y-5412500D01*
D12*
X-14750000Y-5212500D02*
X-16000000Y-5212500D01*
D10*
X-14620000Y-2812500D02*
X-14620000Y-5062500D01*
D15*
X-16400000Y-3612500D02*
X-23100000Y-3612500D01*
D17*
X-15100000Y-4812500D02*
X-15100000Y-2312500D01*
D10*
X-21616318Y66029D02*
G75*
G03*
X-19400000Y-1812500I2151317J291470D01*
G01*
D17*
X-22016318Y-333971D02*
G75*
G03*
X-19800000Y-2212500I2151317J291470D01*
G01*
D10*
X-24899999Y-3512499D02*
G75*
G03*
X-22800001Y-5412500I1999998J99997D01*
G01*
D12*
X4250000Y-44400000D02*
X3000000Y-44400000D01*
D10*
X4400000Y-41000000D02*
X4400000Y-44600000D01*
X-400000Y-41000000D02*
X4400000Y-41000000D01*
D14*
X-5300000Y-39600000D02*
X-5300000Y-41399999D01*
D10*
X-5650000Y-39100000D02*
X-2620000Y-39100000D01*
X-5900000Y-42700000D02*
X-5900000Y-41950000D01*
D17*
X3900000Y-44000000D02*
X3900000Y-41500000D01*
D11*
X-5450000Y-39300000D02*
X-3000000Y-39300000D01*
D15*
X2600000Y-42800000D02*
X-4100000Y-42800000D01*
D11*
X4200000Y-41250000D02*
X2900000Y-41300000D01*
D10*
X-5650000Y-43550000D02*
X-5650000Y-39100000D01*
D13*
X-4170000Y-43100000D02*
X-4170000Y-40860000D01*
D10*
X4400000Y-44600000D02*
X-3800001Y-44600000D01*
X4380000Y-42000000D02*
X4380000Y-44250000D01*
D16*
X-5800000Y-42050000D02*
X-5800000Y-42700000D01*
D10*
X-5900000Y-41950000D02*
X-5700000Y-41950000D01*
D17*
X-3016318Y-39521471D02*
G75*
G03*
X-800000Y-41400000I2151317J291470D01*
G01*
D10*
X-2616318Y-39121471D02*
G75*
G03*
X-400000Y-41000000I2151317J291470D01*
G01*
X-5899999Y-42699999D02*
G75*
G03*
X-3800001Y-44600000I1999998J99997D01*
G01*
D11*
X-52800000Y-41250000D02*
X-54100000Y-41300000D01*
D17*
X-53100000Y-44000000D02*
X-53100000Y-41500000D01*
D10*
X-52600000Y-44600000D02*
X-60800001Y-44600000D01*
X-62650000Y-43550000D02*
X-62650000Y-39100000D01*
X-62900000Y-42700000D02*
X-62900000Y-41950000D01*
X-62900000Y-41950000D02*
X-62700000Y-41950000D01*
D13*
X-61170000Y-43100000D02*
X-61170000Y-40860000D01*
D10*
X-62650000Y-39100000D02*
X-59620000Y-39100000D01*
X-52620000Y-42000000D02*
X-52620000Y-44250000D01*
D11*
X-62450000Y-39300000D02*
X-60000000Y-39300000D01*
D14*
X-62300000Y-39600000D02*
X-62300000Y-41399999D01*
D15*
X-54400000Y-42800000D02*
X-61100000Y-42800000D01*
D12*
X-52750000Y-44400000D02*
X-54000000Y-44400000D01*
D10*
X-57400000Y-41000000D02*
X-52600000Y-41000000D01*
D16*
X-62800000Y-42050000D02*
X-62800000Y-42700000D01*
D10*
X-52600000Y-41000000D02*
X-52600000Y-44600000D01*
D17*
X-60016318Y-39521471D02*
G75*
G03*
X-57800000Y-41400000I2151317J291470D01*
G01*
D10*
X-59616318Y-39121471D02*
G75*
G03*
X-57400000Y-41000000I2151317J291470D01*
G01*
X-62899999Y-42699999D02*
G75*
G03*
X-60800001Y-44600000I1999998J99997D01*
G01*
D13*
X-80170000Y-12225000D02*
X-80170000Y-9985000D01*
D11*
X-81450000Y-8425000D02*
X-79000000Y-8425000D01*
D10*
X-81900000Y-11075000D02*
X-81700000Y-11075000D01*
X-81650000Y-12675000D02*
X-81650000Y-8225000D01*
D14*
X-81300000Y-8725000D02*
X-81300000Y-10524999D01*
D10*
X-71600000Y-13725000D02*
X-79800001Y-13725000D01*
D15*
X-73400000Y-11925000D02*
X-80100000Y-11925000D01*
D10*
X-81650000Y-8225000D02*
X-78620000Y-8225000D01*
D11*
X-71800000Y-10375000D02*
X-73100000Y-10425000D01*
D16*
X-81800000Y-11175000D02*
X-81800000Y-11825000D01*
D10*
X-71620000Y-11125000D02*
X-71620000Y-13375000D01*
X-76400000Y-10125000D02*
X-71600000Y-10125000D01*
D12*
X-71750000Y-13525000D02*
X-73000000Y-13525000D01*
D17*
X-72100000Y-13125000D02*
X-72100000Y-10625000D01*
D10*
X-81900000Y-11825000D02*
X-81900000Y-11075000D01*
X-71600000Y-10125000D02*
X-71600000Y-13725000D01*
X-81899999Y-11824999D02*
G75*
G03*
X-79800001Y-13725000I1999998J99997D01*
G01*
X-78616318Y-8246471D02*
G75*
G03*
X-76400000Y-10125000I2151317J291470D01*
G01*
D17*
X-79016318Y-8646471D02*
G75*
G03*
X-76800000Y-10525000I2151317J291470D01*
G01*
M02*
