  0
SECTION
  2
HEADER
  9
$ANGBASE
  50
0.0
  9
$ANGDIR
  70
1
  9
$MEASUREMENT
  70
0
  0
ENDSEC
  0
SECTION
  2
TABLES
  0
TABLE
  2
LTYPE
  70
4
  0
LTYPE
  5
40F
  2
CONTINUOUS
  70
0
  3
Solid line
  72
65
  73
0
  40
0.0
  0
LTYPE
  5
410
  2
DASHDOT
 70
0
  3
Dash Dot ____ _ ____ _
 72
65
 73
4
 40
2.0
 49
1.25
 49
-0.25
 49
0.25
 49
-0.25
  0
LTYPE
  5
411
  2
DASHED
 70
0
  3
Dashed __ __ __ __ __
 72
65
 73
2
 40
0.75
 49
0.5
 49
-0.25
  0
LTYPE
  5
43B
  2
DOTTED
 70
0
  3
Dotted .  .  .  .
 72
65
 73
2
 40
0.2
 49
0.0
 49
-0.2
  0
ENDTAB
  0
TABLE
  2
STYLE
  70
4
  0
STYLE
  2
KICAD
  70
0
  40
0
  41
1
  42
1
  50
0
  71
0
  3
isocp.shx
  0
STYLE
  2
KICADB
  70
0
  40
0
  41
1
  42
1
  50
0
  71
0
  3
isocp.shx
  0
STYLE
  2
KICADI
  70
0
  40
0
  41
1
  42
1
  50
15
  71
0
  3
isocp.shx
  0
STYLE
  2
KICADBI
  70
0
  40
0
  41
1
  42
1
  50
15
  71
0
  3
isocp.shx
  0
ENDTAB
  0
TABLE
  2
LAYER
  70
1
  0
LAYER
  2
BLACK
  70
0
  62
7
  6
CONTINUOUS
  0
ENDTAB
  0
ENDSEC
  0
SECTION
  2
ENTITIES
0
LINE
8
BLACK
6
CONTINUOUS
10
0.379743
20
-1.30734
11
0.385183
21
-1.30924
0
LINE
8
BLACK
6
CONTINUOUS
10
0.385183
20
-1.30924
11
0.390063
21
-1.31231
0
LINE
8
BLACK
6
CONTINUOUS
10
0.390063
20
-1.31231
11
0.394139
21
-1.31638
0
LINE
8
BLACK
6
CONTINUOUS
10
0.394139
20
-1.31638
11
0.397205
21
-1.32126
0
LINE
8
BLACK
6
CONTINUOUS
10
0.397205
20
-1.32126
11
0.399109
21
-1.3267
0
LINE
8
BLACK
6
CONTINUOUS
10
0.399109
20
-1.3267
11
0.399754
21
-1.33243
0
LINE
8
BLACK
6
CONTINUOUS
10
0.399754
20
-1.33243
11
0.399754
21
-1.65969
0
LINE
8
BLACK
6
CONTINUOUS
10
0.399754
20
-1.65969
11
0.399109
21
-1.66542
0
LINE
8
BLACK
6
CONTINUOUS
10
0.399109
20
-1.66542
11
0.397205
21
-1.67086
0
LINE
8
BLACK
6
CONTINUOUS
10
0.397205
20
-1.67086
11
0.394139
21
-1.67574
0
LINE
8
BLACK
6
CONTINUOUS
10
0.394139
20
-1.67574
11
0.390063
21
-1.67982
0
LINE
8
BLACK
6
CONTINUOUS
10
0.390063
20
-1.67982
11
0.385183
21
-1.68288
0
LINE
8
BLACK
6
CONTINUOUS
10
0.385183
20
-1.68288
11
0.379743
21
-1.68479
0
LINE
8
BLACK
6
CONTINUOUS
10
0.379743
20
-1.68479
11
0.374016
21
-1.68543
0
LINE
8
BLACK
6
CONTINUOUS
10
0.374016
20
-1.68543
11
0.368288
21
-1.68479
0
LINE
8
BLACK
6
CONTINUOUS
10
0.368288
20
-1.68479
11
0.362848
21
-1.68288
0
LINE
8
BLACK
6
CONTINUOUS
10
0.362848
20
-1.68288
11
0.357968
21
-1.67982
0
LINE
8
BLACK
6
CONTINUOUS
10
0.357968
20
-1.67982
11
0.353893
21
-1.67574
0
LINE
8
BLACK
6
CONTINUOUS
10
0.353893
20
-1.67574
11
0.350826
21
-1.67086
0
LINE
8
BLACK
6
CONTINUOUS
10
0.350826
20
-1.67086
11
0.348923
21
-1.66542
0
LINE
8
BLACK
6
CONTINUOUS
10
0.348923
20
-1.66542
11
0.348278
21
-1.65969
0
LINE
8
BLACK
6
CONTINUOUS
10
0.348278
20
-1.65969
11
0.348278
21
-1.33243
0
LINE
8
BLACK
6
CONTINUOUS
10
0.348278
20
-1.33243
11
0.348923
21
-1.3267
0
LINE
8
BLACK
6
CONTINUOUS
10
0.348923
20
-1.3267
11
0.350826
21
-1.32126
0
LINE
8
BLACK
6
CONTINUOUS
10
0.350826
20
-1.32126
11
0.353893
21
-1.31638
0
LINE
8
BLACK
6
CONTINUOUS
10
0.353893
20
-1.31638
11
0.357968
21
-1.31231
0
LINE
8
BLACK
6
CONTINUOUS
10
0.357968
20
-1.31231
11
0.362848
21
-1.30924
0
LINE
8
BLACK
6
CONTINUOUS
10
0.362848
20
-1.30924
11
0.368288
21
-1.30734
0
LINE
8
BLACK
6
CONTINUOUS
10
0.368288
20
-1.30734
11
0.374016
21
-1.30669
0
LINE
8
BLACK
6
CONTINUOUS
10
0.374016
20
-1.30669
11
0.379743
21
-1.30734
0
LINE
8
BLACK
6
CONTINUOUS
10
0.365905
20
-1.31285
11
0.361113
21
-1.31562
0
LINE
8
BLACK
6
CONTINUOUS
10
0.361113
20
-1.31562
11
0.357201
21
-1.31953
0
LINE
8
BLACK
6
CONTINUOUS
10
0.357201
20
-1.31953
11
0.354434
21
-1.32432
0
LINE
8
BLACK
6
CONTINUOUS
10
0.354434
20
-1.32432
11
0.353002
21
-1.32966
0
LINE
8
BLACK
6
CONTINUOUS
10
0.353002
20
-1.32966
11
0.353002
21
-1.33243
0
LINE
8
BLACK
6
CONTINUOUS
10
0.353002
20
-1.33243
11
0.353002
21
-1.65969
0
LINE
8
BLACK
6
CONTINUOUS
10
0.353002
20
-1.65969
11
0.353002
21
-1.66246
0
LINE
8
BLACK
6
CONTINUOUS
10
0.353002
20
-1.66246
11
0.354434
21
-1.66781
0
LINE
8
BLACK
6
CONTINUOUS
10
0.354434
20
-1.66781
11
0.357201
21
-1.6726
0
LINE
8
BLACK
6
CONTINUOUS
10
0.357201
20
-1.6726
11
0.361113
21
-1.67651
0
LINE
8
BLACK
6
CONTINUOUS
10
0.361113
20
-1.67651
11
0.365905
21
-1.67928
0
LINE
8
BLACK
6
CONTINUOUS
10
0.365905
20
-1.67928
11
0.371249
21
-1.68071
0
LINE
8
BLACK
6
CONTINUOUS
10
0.371249
20
-1.68071
11
0.376782
21
-1.68071
0
LINE
8
BLACK
6
CONTINUOUS
10
0.376782
20
-1.68071
11
0.382127
21
-1.67928
0
LINE
8
BLACK
6
CONTINUOUS
10
0.382127
20
-1.67928
11
0.386919
21
-1.67651
0
LINE
8
BLACK
6
CONTINUOUS
10
0.386919
20
-1.67651
11
0.390831
21
-1.6726
0
LINE
8
BLACK
6
CONTINUOUS
10
0.390831
20
-1.6726
11
0.393597
21
-1.66781
0
LINE
8
BLACK
6
CONTINUOUS
10
0.393597
20
-1.66781
11
0.39503
21
-1.66246
0
LINE
8
BLACK
6
CONTINUOUS
10
0.39503
20
-1.66246
11
0.39503
21
-1.65969
0
LINE
8
BLACK
6
CONTINUOUS
10
0.39503
20
-1.65969
11
0.39503
21
-1.65969
0
LINE
8
BLACK
6
CONTINUOUS
10
0.39503
20
-1.65969
11
0.39503
21
-1.33243
0
LINE
8
BLACK
6
CONTINUOUS
10
0.39503
20
-1.33243
11
0.39503
21
-1.32966
0
LINE
8
BLACK
6
CONTINUOUS
10
0.39503
20
-1.32966
11
0.393597
21
-1.32432
0
LINE
8
BLACK
6
CONTINUOUS
10
0.393597
20
-1.32432
11
0.390831
21
-1.31953
0
LINE
8
BLACK
6
CONTINUOUS
10
0.390831
20
-1.31953
11
0.386919
21
-1.31562
0
LINE
8
BLACK
6
CONTINUOUS
10
0.386919
20
-1.31562
11
0.382127
21
-1.31285
0
LINE
8
BLACK
6
CONTINUOUS
10
0.382127
20
-1.31285
11
0.376782
21
-1.31142
0
LINE
8
BLACK
6
CONTINUOUS
10
0.376782
20
-1.31142
11
0.371249
21
-1.31142
0
LINE
8
BLACK
6
CONTINUOUS
10
0.371249
20
-1.31142
11
0.365905
21
-1.31285
0
LINE
8
BLACK
6
CONTINUOUS
10
-0.3566
20
-0.606059
11
-0.35116
21
-0.607962
0
LINE
8
BLACK
6
CONTINUOUS
10
-0.35116
20
-0.607962
11
-0.34628
21
-0.611029
0
LINE
8
BLACK
6
CONTINUOUS
10
-0.34628
20
-0.611029
11
-0.342205
21
-0.615104
0
LINE
8
BLACK
6
CONTINUOUS
10
-0.342205
20
-0.615104
11
-0.339138
21
-0.619984
0
LINE
8
BLACK
6
CONTINUOUS
10
-0.339138
20
-0.619984
11
-0.337235
21
-0.625424
0
LINE
8
BLACK
6
CONTINUOUS
10
-0.337235
20
-0.625424
11
-0.33659
21
-0.631152
0
LINE
8
BLACK
6
CONTINUOUS
10
-0.33659
20
-0.631152
11
-0.33659
21
-0.958415
0
LINE
8
BLACK
6
CONTINUOUS
10
-0.33659
20
-0.958415
11
-0.337235
21
-0.964143
0
LINE
8
BLACK
6
CONTINUOUS
10
-0.337235
20
-0.964143
11
-0.339138
21
-0.969583
0
LINE
8
BLACK
6
CONTINUOUS
10
-0.339138
20
-0.969583
11
-0.342205
21
-0.974463
0
LINE
8
BLACK
6
CONTINUOUS
10
-0.342205
20
-0.974463
11
-0.34628
21
-0.978538
0
LINE
8
BLACK
6
CONTINUOUS
10
-0.34628
20
-0.978538
11
-0.35116
21
-0.981605
0
LINE
8
BLACK
6
CONTINUOUS
10
-0.35116
20
-0.981605
11
-0.3566
21
-0.983508
0
LINE
8
BLACK
6
CONTINUOUS
10
-0.3566
20
-0.983508
11
-0.362328
21
-0.984154
0
LINE
8
BLACK
6
CONTINUOUS
10
-0.362328
20
-0.984154
11
-0.368055
21
-0.983508
0
LINE
8
BLACK
6
CONTINUOUS
10
-0.368055
20
-0.983508
11
-0.373495
21
-0.981605
0
LINE
8
BLACK
6
CONTINUOUS
10
-0.373495
20
-0.981605
11
-0.378375
21
-0.978538
0
LINE
8
BLACK
6
CONTINUOUS
10
-0.378375
20
-0.978538
11
-0.382451
21
-0.974463
0
LINE
8
BLACK
6
CONTINUOUS
10
-0.382451
20
-0.974463
11
-0.385517
21
-0.969583
0
LINE
8
BLACK
6
CONTINUOUS
10
-0.385517
20
-0.969583
11
-0.387421
21
-0.964143
0
LINE
8
BLACK
6
CONTINUOUS
10
-0.387421
20
-0.964143
11
-0.388066
21
-0.958415
0
LINE
8
BLACK
6
CONTINUOUS
10
-0.388066
20
-0.958415
11
-0.388066
21
-0.631152
0
LINE
8
BLACK
6
CONTINUOUS
10
-0.388066
20
-0.631152
11
-0.387421
21
-0.625424
0
LINE
8
BLACK
6
CONTINUOUS
10
-0.387421
20
-0.625424
11
-0.385517
21
-0.619984
0
LINE
8
BLACK
6
CONTINUOUS
10
-0.385517
20
-0.619984
11
-0.382451
21
-0.615104
0
LINE
8
BLACK
6
CONTINUOUS
10
-0.382451
20
-0.615104
11
-0.378375
21
-0.611029
0
LINE
8
BLACK
6
CONTINUOUS
10
-0.378375
20
-0.611029
11
-0.373495
21
-0.607962
0
LINE
8
BLACK
6
CONTINUOUS
10
-0.373495
20
-0.607962
11
-0.368055
21
-0.606059
0
LINE
8
BLACK
6
CONTINUOUS
10
-0.368055
20
-0.606059
11
-0.362328
21
-0.605413
0
LINE
8
BLACK
6
CONTINUOUS
10
-0.362328
20
-0.605413
11
-0.3566
21
-0.606059
0
LINE
8
BLACK
6
CONTINUOUS
10
-0.370439
20
-0.61157
11
-0.375231
21
-0.614336
0
LINE
8
BLACK
6
CONTINUOUS
10
-0.375231
20
-0.614336
11
-0.379143
21
-0.618249
0
LINE
8
BLACK
6
CONTINUOUS
10
-0.379143
20
-0.618249
11
-0.381909
21
-0.623041
0
LINE
8
BLACK
6
CONTINUOUS
10
-0.381909
20
-0.623041
11
-0.383342
21
-0.628385
0
LINE
8
BLACK
6
CONTINUOUS
10
-0.383342
20
-0.628385
11
-0.383342
21
-0.631152
0
LINE
8
BLACK
6
CONTINUOUS
10
-0.383342
20
-0.631152
11
-0.383342
21
-0.958415
0
LINE
8
BLACK
6
CONTINUOUS
10
-0.383342
20
-0.958415
11
-0.383342
21
-0.961182
0
LINE
8
BLACK
6
CONTINUOUS
10
-0.383342
20
-0.961182
11
-0.381909
21
-0.966526
0
LINE
8
BLACK
6
CONTINUOUS
10
-0.381909
20
-0.966526
11
-0.379143
21
-0.971318
0
LINE
8
BLACK
6
CONTINUOUS
10
-0.379143
20
-0.971318
11
-0.375231
21
-0.975231
0
LINE
8
BLACK
6
CONTINUOUS
10
-0.375231
20
-0.975231
11
-0.370439
21
-0.977997
0
LINE
8
BLACK
6
CONTINUOUS
10
-0.370439
20
-0.977997
11
-0.365094
21
-0.979429
0
LINE
8
BLACK
6
CONTINUOUS
10
-0.365094
20
-0.979429
11
-0.359561
21
-0.979429
0
LINE
8
BLACK
6
CONTINUOUS
10
-0.359561
20
-0.979429
11
-0.354217
21
-0.977997
0
LINE
8
BLACK
6
CONTINUOUS
10
-0.354217
20
-0.977997
11
-0.349425
21
-0.975231
0
LINE
8
BLACK
6
CONTINUOUS
10
-0.349425
20
-0.975231
11
-0.345513
21
-0.971318
0
LINE
8
BLACK
6
CONTINUOUS
10
-0.345513
20
-0.971318
11
-0.342746
21
-0.966526
0
LINE
8
BLACK
6
CONTINUOUS
10
-0.342746
20
-0.966526
11
-0.341314
21
-0.961182
0
LINE
8
BLACK
6
CONTINUOUS
10
-0.341314
20
-0.961182
11
-0.341314
21
-0.958415
0
LINE
8
BLACK
6
CONTINUOUS
10
-0.341314
20
-0.958415
11
-0.341314
21
-0.631152
0
LINE
8
BLACK
6
CONTINUOUS
10
-0.341314
20
-0.631152
11
-0.341314
21
-0.628385
0
LINE
8
BLACK
6
CONTINUOUS
10
-0.341314
20
-0.628385
11
-0.342746
21
-0.623041
0
LINE
8
BLACK
6
CONTINUOUS
10
-0.342746
20
-0.623041
11
-0.345513
21
-0.618249
0
LINE
8
BLACK
6
CONTINUOUS
10
-0.345513
20
-0.618249
11
-0.349425
21
-0.614336
0
LINE
8
BLACK
6
CONTINUOUS
10
-0.349425
20
-0.614336
11
-0.354217
21
-0.61157
0
LINE
8
BLACK
6
CONTINUOUS
10
-0.354217
20
-0.61157
11
-0.359561
21
-0.610138
0
LINE
8
BLACK
6
CONTINUOUS
10
-0.359561
20
-0.610138
11
-0.365094
21
-0.610138
0
LINE
8
BLACK
6
CONTINUOUS
10
-0.365094
20
-0.610138
11
-0.370439
21
-0.61157
0
LINE
8
BLACK
6
CONTINUOUS
10
0.379743
20
-0.559307
11
0.385183
21
-0.56121
0
LINE
8
BLACK
6
CONTINUOUS
10
0.385183
20
-0.56121
11
0.390063
21
-0.564277
0
LINE
8
BLACK
6
CONTINUOUS
10
0.390063
20
-0.564277
11
0.394139
21
-0.568352
0
LINE
8
BLACK
6
CONTINUOUS
10
0.394139
20
-0.568352
11
0.397205
21
-0.573232
0
LINE
8
BLACK
6
CONTINUOUS
10
0.397205
20
-0.573232
11
0.399109
21
-0.578672
0
LINE
8
BLACK
6
CONTINUOUS
10
0.399109
20
-0.578672
11
0.399754
21
-0.5844
0
LINE
8
BLACK
6
CONTINUOUS
10
0.399754
20
-0.5844
11
0.399754
21
-0.911663
0
LINE
8
BLACK
6
CONTINUOUS
10
0.399754
20
-0.911663
11
0.399754
21
-0.911663
0
LINE
8
BLACK
6
CONTINUOUS
10
0.399754
20
-0.911663
11
0.399109
21
-0.917391
0
LINE
8
BLACK
6
CONTINUOUS
10
0.399109
20
-0.917391
11
0.397205
21
-0.922831
0
LINE
8
BLACK
6
CONTINUOUS
10
0.397205
20
-0.922831
11
0.394139
21
-0.927711
0
LINE
8
BLACK
6
CONTINUOUS
10
0.394139
20
-0.927711
11
0.390063
21
-0.931786
0
LINE
8
BLACK
6
CONTINUOUS
10
0.390063
20
-0.931786
11
0.385183
21
-0.934853
0
LINE
8
BLACK
6
CONTINUOUS
10
0.385183
20
-0.934853
11
0.379743
21
-0.936756
0
LINE
8
BLACK
6
CONTINUOUS
10
0.379743
20
-0.936756
11
0.374016
21
-0.937402
0
LINE
8
BLACK
6
CONTINUOUS
10
0.374016
20
-0.937402
11
0.368288
21
-0.936756
0
LINE
8
BLACK
6
CONTINUOUS
10
0.368288
20
-0.936756
11
0.362848
21
-0.934853
0
LINE
8
BLACK
6
CONTINUOUS
10
0.362848
20
-0.934853
11
0.357968
21
-0.931786
0
LINE
8
BLACK
6
CONTINUOUS
10
0.357968
20
-0.931786
11
0.353893
21
-0.927711
0
LINE
8
BLACK
6
CONTINUOUS
10
0.353893
20
-0.927711
11
0.350826
21
-0.922831
0
LINE
8
BLACK
6
CONTINUOUS
10
0.350826
20
-0.922831
11
0.348923
21
-0.917391
0
LINE
8
BLACK
6
CONTINUOUS
10
0.348923
20
-0.917391
11
0.348278
21
-0.911663
0
LINE
8
BLACK
6
CONTINUOUS
10
0.348278
20
-0.911663
11
0.348278
21
-0.911663
0
LINE
8
BLACK
6
CONTINUOUS
10
0.348278
20
-0.911663
11
0.348278
21
-0.5844
0
LINE
8
BLACK
6
CONTINUOUS
10
0.348278
20
-0.5844
11
0.348278
21
-0.5844
0
LINE
8
BLACK
6
CONTINUOUS
10
0.348278
20
-0.5844
11
0.348923
21
-0.578672
0
LINE
8
BLACK
6
CONTINUOUS
10
0.348923
20
-0.578672
11
0.350826
21
-0.573232
0
LINE
8
BLACK
6
CONTINUOUS
10
0.350826
20
-0.573232
11
0.353893
21
-0.568352
0
LINE
8
BLACK
6
CONTINUOUS
10
0.353893
20
-0.568352
11
0.357968
21
-0.564277
0
LINE
8
BLACK
6
CONTINUOUS
10
0.357968
20
-0.564277
11
0.362848
21
-0.56121
0
LINE
8
BLACK
6
CONTINUOUS
10
0.362848
20
-0.56121
11
0.368288
21
-0.559307
0
LINE
8
BLACK
6
CONTINUOUS
10
0.368288
20
-0.559307
11
0.374016
21
-0.558661
0
LINE
8
BLACK
6
CONTINUOUS
10
0.374016
20
-0.558661
11
0.379743
21
-0.559307
0
LINE
8
BLACK
6
CONTINUOUS
10
0.365905
20
-0.564818
11
0.361113
21
-0.567584
0
LINE
8
BLACK
6
CONTINUOUS
10
0.361113
20
-0.567584
11
0.357201
21
-0.571497
0
LINE
8
BLACK
6
CONTINUOUS
10
0.357201
20
-0.571497
11
0.354434
21
-0.576289
0
LINE
8
BLACK
6
CONTINUOUS
10
0.354434
20
-0.576289
11
0.353002
21
-0.581633
0
LINE
8
BLACK
6
CONTINUOUS
10
0.353002
20
-0.581633
11
0.353002
21
-0.5844
0
LINE
8
BLACK
6
CONTINUOUS
10
0.353002
20
-0.5844
11
0.353002
21
-0.911663
0
LINE
8
BLACK
6
CONTINUOUS
10
0.353002
20
-0.911663
11
0.353002
21
-0.91443
0
LINE
8
BLACK
6
CONTINUOUS
10
0.353002
20
-0.91443
11
0.354434
21
-0.919774
0
LINE
8
BLACK
6
CONTINUOUS
10
0.354434
20
-0.919774
11
0.357201
21
-0.924566
0
LINE
8
BLACK
6
CONTINUOUS
10
0.357201
20
-0.924566
11
0.361113
21
-0.928479
0
LINE
8
BLACK
6
CONTINUOUS
10
0.361113
20
-0.928479
11
0.365905
21
-0.931245
0
LINE
8
BLACK
6
CONTINUOUS
10
0.365905
20
-0.931245
11
0.371249
21
-0.932677
0
LINE
8
BLACK
6
CONTINUOUS
10
0.371249
20
-0.932677
11
0.376782
21
-0.932677
0
LINE
8
BLACK
6
CONTINUOUS
10
0.376782
20
-0.932677
11
0.382127
21
-0.931245
0
LINE
8
BLACK
6
CONTINUOUS
10
0.382127
20
-0.931245
11
0.386919
21
-0.928479
0
LINE
8
BLACK
6
CONTINUOUS
10
0.386919
20
-0.928479
11
0.390831
21
-0.924566
0
LINE
8
BLACK
6
CONTINUOUS
10
0.390831
20
-0.924566
11
0.393597
21
-0.919774
0
LINE
8
BLACK
6
CONTINUOUS
10
0.393597
20
-0.919774
11
0.39503
21
-0.91443
0
LINE
8
BLACK
6
CONTINUOUS
10
0.39503
20
-0.91443
11
0.39503
21
-0.911663
0
LINE
8
BLACK
6
CONTINUOUS
10
0.39503
20
-0.911663
11
0.39503
21
-0.911663
0
LINE
8
BLACK
6
CONTINUOUS
10
0.39503
20
-0.911663
11
0.39503
21
-0.5844
0
LINE
8
BLACK
6
CONTINUOUS
10
0.39503
20
-0.5844
11
0.39503
21
-0.581633
0
LINE
8
BLACK
6
CONTINUOUS
10
0.39503
20
-0.581633
11
0.393597
21
-0.576289
0
LINE
8
BLACK
6
CONTINUOUS
10
0.393597
20
-0.576289
11
0.390831
21
-0.571497
0
LINE
8
BLACK
6
CONTINUOUS
10
0.390831
20
-0.571497
11
0.386919
21
-0.567584
0
LINE
8
BLACK
6
CONTINUOUS
10
0.386919
20
-0.567584
11
0.382127
21
-0.564818
0
LINE
8
BLACK
6
CONTINUOUS
10
0.382127
20
-0.564818
11
0.376782
21
-0.563386
0
LINE
8
BLACK
6
CONTINUOUS
10
0.376782
20
-0.563386
11
0.371249
21
-0.563386
0
LINE
8
BLACK
6
CONTINUOUS
10
0.371249
20
-0.563386
11
0.365905
21
-0.564818
0
LINE
8
BLACK
6
CONTINUOUS
10
0.379743
20
0.188725
11
0.385183
21
0.186821
0
LINE
8
BLACK
6
CONTINUOUS
10
0.385183
20
0.186821
11
0.390063
21
0.183755
0
LINE
8
BLACK
6
CONTINUOUS
10
0.390063
20
0.183755
11
0.394139
21
0.179679
0
LINE
8
BLACK
6
CONTINUOUS
10
0.394139
20
0.179679
11
0.397205
21
0.174799
0
LINE
8
BLACK
6
CONTINUOUS
10
0.397205
20
0.174799
11
0.399109
21
0.169359
0
LINE
8
BLACK
6
CONTINUOUS
10
0.399109
20
0.169359
11
0.399754
21
0.163632
0
LINE
8
BLACK
6
CONTINUOUS
10
0.399754
20
0.163632
11
0.399754
21
-0.163632
0
LINE
8
BLACK
6
CONTINUOUS
10
0.399754
20
-0.163632
11
0.399109
21
-0.169359
0
LINE
8
BLACK
6
CONTINUOUS
10
0.399109
20
-0.169359
11
0.397205
21
-0.174799
0
LINE
8
BLACK
6
CONTINUOUS
10
0.397205
20
-0.174799
11
0.394139
21
-0.179679
0
LINE
8
BLACK
6
CONTINUOUS
10
0.394139
20
-0.179679
11
0.390063
21
-0.183755
0
LINE
8
BLACK
6
CONTINUOUS
10
0.390063
20
-0.183755
11
0.385183
21
-0.186821
0
LINE
8
BLACK
6
CONTINUOUS
10
0.385183
20
-0.186821
11
0.379743
21
-0.188725
0
LINE
8
BLACK
6
CONTINUOUS
10
0.379743
20
-0.188725
11
0.374016
21
-0.18937
0
LINE
8
BLACK
6
CONTINUOUS
10
0.374016
20
-0.18937
11
0.368288
21
-0.188725
0
LINE
8
BLACK
6
CONTINUOUS
10
0.368288
20
-0.188725
11
0.362848
21
-0.186821
0
LINE
8
BLACK
6
CONTINUOUS
10
0.362848
20
-0.186821
11
0.357968
21
-0.183755
0
LINE
8
BLACK
6
CONTINUOUS
10
0.357968
20
-0.183755
11
0.353893
21
-0.179679
0
LINE
8
BLACK
6
CONTINUOUS
10
0.353893
20
-0.179679
11
0.350826
21
-0.174799
0
LINE
8
BLACK
6
CONTINUOUS
10
0.350826
20
-0.174799
11
0.348923
21
-0.169359
0
LINE
8
BLACK
6
CONTINUOUS
10
0.348923
20
-0.169359
11
0.348278
21
-0.163632
0
LINE
8
BLACK
6
CONTINUOUS
10
0.348278
20
-0.163632
11
0.348278
21
0.163632
0
LINE
8
BLACK
6
CONTINUOUS
10
0.348278
20
0.163632
11
0.348923
21
0.169359
0
LINE
8
BLACK
6
CONTINUOUS
10
0.348923
20
0.169359
11
0.350826
21
0.174799
0
LINE
8
BLACK
6
CONTINUOUS
10
0.350826
20
0.174799
11
0.353893
21
0.179679
0
LINE
8
BLACK
6
CONTINUOUS
10
0.353893
20
0.179679
11
0.357968
21
0.183755
0
LINE
8
BLACK
6
CONTINUOUS
10
0.357968
20
0.183755
11
0.362848
21
0.186821
0
LINE
8
BLACK
6
CONTINUOUS
10
0.362848
20
0.186821
11
0.368288
21
0.188725
0
LINE
8
BLACK
6
CONTINUOUS
10
0.368288
20
0.188725
11
0.374016
21
0.18937
0
LINE
8
BLACK
6
CONTINUOUS
10
0.374016
20
0.18937
11
0.379743
21
0.188725
0
LINE
8
BLACK
6
CONTINUOUS
10
0.365905
20
0.183214
11
0.361113
21
0.180447
0
LINE
8
BLACK
6
CONTINUOUS
10
0.361113
20
0.180447
11
0.357201
21
0.176535
0
LINE
8
BLACK
6
CONTINUOUS
10
0.357201
20
0.176535
11
0.354434
21
0.171743
0
LINE
8
BLACK
6
CONTINUOUS
10
0.354434
20
0.171743
11
0.353002
21
0.166398
0
LINE
8
BLACK
6
CONTINUOUS
10
0.353002
20
0.166398
11
0.353002
21
0.163632
0
LINE
8
BLACK
6
CONTINUOUS
10
0.353002
20
0.163632
11
0.353002
21
-0.163632
0
LINE
8
BLACK
6
CONTINUOUS
10
0.353002
20
-0.163632
11
0.353002
21
-0.166398
0
LINE
8
BLACK
6
CONTINUOUS
10
0.353002
20
-0.166398
11
0.354434
21
-0.171743
0
LINE
8
BLACK
6
CONTINUOUS
10
0.354434
20
-0.171743
11
0.357201
21
-0.176535
0
LINE
8
BLACK
6
CONTINUOUS
10
0.357201
20
-0.176535
11
0.361113
21
-0.180447
0
LINE
8
BLACK
6
CONTINUOUS
10
0.361113
20
-0.180447
11
0.365905
21
-0.183214
0
LINE
8
BLACK
6
CONTINUOUS
10
0.365905
20
-0.183214
11
0.371249
21
-0.184646
0
LINE
8
BLACK
6
CONTINUOUS
10
0.371249
20
-0.184646
11
0.376782
21
-0.184646
0
LINE
8
BLACK
6
CONTINUOUS
10
0.376782
20
-0.184646
11
0.382127
21
-0.183214
0
LINE
8
BLACK
6
CONTINUOUS
10
0.382127
20
-0.183214
11
0.386919
21
-0.180447
0
LINE
8
BLACK
6
CONTINUOUS
10
0.386919
20
-0.180447
11
0.390831
21
-0.176535
0
LINE
8
BLACK
6
CONTINUOUS
10
0.390831
20
-0.176535
11
0.393597
21
-0.171743
0
LINE
8
BLACK
6
CONTINUOUS
10
0.393597
20
-0.171743
11
0.39503
21
-0.166398
0
LINE
8
BLACK
6
CONTINUOUS
10
0.39503
20
-0.166398
11
0.39503
21
-0.163632
0
LINE
8
BLACK
6
CONTINUOUS
10
0.39503
20
-0.163632
11
0.39503
21
0.163632
0
LINE
8
BLACK
6
CONTINUOUS
10
0.39503
20
0.163632
11
0.39503
21
0.166398
0
LINE
8
BLACK
6
CONTINUOUS
10
0.39503
20
0.166398
11
0.393597
21
0.171743
0
LINE
8
BLACK
6
CONTINUOUS
10
0.393597
20
0.171743
11
0.390831
21
0.176535
0
LINE
8
BLACK
6
CONTINUOUS
10
0.390831
20
0.176535
11
0.386919
21
0.180447
0
LINE
8
BLACK
6
CONTINUOUS
10
0.386919
20
0.180447
11
0.382127
21
0.183214
0
LINE
8
BLACK
6
CONTINUOUS
10
0.382127
20
0.183214
11
0.376782
21
0.184646
0
LINE
8
BLACK
6
CONTINUOUS
10
0.376782
20
0.184646
11
0.371249
21
0.184646
0
LINE
8
BLACK
6
CONTINUOUS
10
0.371249
20
0.184646
11
0.365905
21
0.183214
0
LINE
8
BLACK
6
CONTINUOUS
10
2.51292
20
0.80844
11
2.51292
21
0.80844
0
LINE
8
BLACK
6
CONTINUOUS
10
2.51292
20
0.80844
11
2.51856
21
0.807804
0
LINE
8
BLACK
6
CONTINUOUS
10
2.51856
20
0.807804
11
2.52391
21
0.80593
0
LINE
8
BLACK
6
CONTINUOUS
10
2.52391
20
0.80593
11
2.52872
21
0.80291
0
LINE
8
BLACK
6
CONTINUOUS
10
2.52872
20
0.80291
11
2.53273
21
0.798897
0
LINE
8
BLACK
6
CONTINUOUS
10
2.53273
20
0.798897
11
2.53575
21
0.794092
0
LINE
8
BLACK
6
CONTINUOUS
10
2.53575
20
0.794092
11
2.53763
21
0.788735
0
LINE
8
BLACK
6
CONTINUOUS
10
2.53763
20
0.788735
11
2.53826
21
0.783096
0
LINE
8
BLACK
6
CONTINUOUS
10
2.53826
20
0.783096
11
2.53826
21
0.783095
0
LINE
8
BLACK
6
CONTINUOUS
10
2.53826
20
0.783095
11
2.53826
21
0.783095
0
LINE
8
BLACK
6
CONTINUOUS
10
2.53826
20
0.783095
11
2.53826
21
0.677904
0
LINE
8
BLACK
6
CONTINUOUS
10
2.53826
20
0.677904
11
2.53826
21
0.677903
0
LINE
8
BLACK
6
CONTINUOUS
10
2.53826
20
0.677903
11
2.53826
21
0.677903
0
LINE
8
BLACK
6
CONTINUOUS
10
2.53826
20
0.677903
11
2.53826
21
0.677903
0
LINE
8
BLACK
6
CONTINUOUS
10
2.53826
20
0.677903
11
2.53826
21
0.675491
0
LINE
8
BLACK
6
CONTINUOUS
10
2.53826
20
0.675491
11
2.53934
21
0.670788
0
LINE
8
BLACK
6
CONTINUOUS
10
2.53934
20
0.670788
11
2.54143
21
0.666442
0
LINE
8
BLACK
6
CONTINUOUS
10
2.54143
20
0.666442
11
2.54444
21
0.66267
0
LINE
8
BLACK
6
CONTINUOUS
10
2.54444
20
0.66267
11
2.54821
21
0.659662
0
LINE
8
BLACK
6
CONTINUOUS
10
2.54821
20
0.659662
11
2.55256
21
0.657569
0
LINE
8
BLACK
6
CONTINUOUS
10
2.55256
20
0.657569
11
2.55726
21
0.656496
0
LINE
8
BLACK
6
CONTINUOUS
10
2.55726
20
0.656496
11
2.55967
21
0.656496
0
LINE
8
BLACK
6
CONTINUOUS
10
2.55967
20
0.656496
11
2.55967
21
0.656496
0
LINE
8
BLACK
6
CONTINUOUS
10
2.55967
20
0.656496
11
2.55967
21
0.656496
0
LINE
8
BLACK
6
CONTINUOUS
10
2.55967
20
0.656496
11
5.04921
21
0.656496
0
LINE
8
BLACK
6
CONTINUOUS
10
5.04921
20
0.656496
11
5.04921
21
0.656496
0
LINE
8
BLACK
6
CONTINUOUS
10
5.04921
20
0.656496
11
5.05485
21
0.655861
0
LINE
8
BLACK
6
CONTINUOUS
10
5.05485
20
0.655861
11
5.06021
21
0.653987
0
LINE
8
BLACK
6
CONTINUOUS
10
5.06021
20
0.653987
11
5.06502
21
0.650968
0
LINE
8
BLACK
6
CONTINUOUS
10
5.06502
20
0.650968
11
5.06903
21
0.646955
0
LINE
8
BLACK
6
CONTINUOUS
10
5.06903
20
0.646955
11
5.07205
21
0.642149
0
LINE
8
BLACK
6
CONTINUOUS
10
5.07205
20
0.642149
11
5.07392
21
0.636792
0
LINE
8
BLACK
6
CONTINUOUS
10
5.07392
20
0.636792
11
5.07456
21
0.631151
0
LINE
8
BLACK
6
CONTINUOUS
10
5.07456
20
0.631151
11
5.07456
21
0.631151
0
LINE
8
BLACK
6
CONTINUOUS
10
5.07456
20
0.631151
11
5.07456
21
-1.83501
0
LINE
8
BLACK
6
CONTINUOUS
10
5.07456
20
-1.83501
11
5.07456
21
-1.83502
0
LINE
8
BLACK
6
CONTINUOUS
10
5.07456
20
-1.83502
11
5.07456
21
-1.83502
0
LINE
8
BLACK
6
CONTINUOUS
10
5.07456
20
-1.83502
11
5.07392
21
-1.84065
0
LINE
8
BLACK
6
CONTINUOUS
10
5.07392
20
-1.84065
11
5.07205
21
-1.84601
0
LINE
8
BLACK
6
CONTINUOUS
10
5.07205
20
-1.84601
11
5.06903
21
-1.85081
0
LINE
8
BLACK
6
CONTINUOUS
10
5.06903
20
-1.85081
11
5.06501
21
-1.85483
0
LINE
8
BLACK
6
CONTINUOUS
10
5.06501
20
-1.85483
11
5.06021
21
-1.85785
0
LINE
8
BLACK
6
CONTINUOUS
10
5.06021
20
-1.85785
11
5.05485
21
-1.85972
0
LINE
8
BLACK
6
CONTINUOUS
10
5.05485
20
-1.85972
11
5.04922
21
-1.86036
0
LINE
8
BLACK
6
CONTINUOUS
10
5.04922
20
-1.86036
11
5.04921
21
-1.86036
0
LINE
8
BLACK
6
CONTINUOUS
10
5.04921
20
-1.86036
11
5.04921
21
-1.86036
0
LINE
8
BLACK
6
CONTINUOUS
10
5.04921
20
-1.86036
11
5.04921
21
-1.86036
0
LINE
8
BLACK
6
CONTINUOUS
10
5.04921
20
-1.86036
11
5.04921
21
-1.86036
0
LINE
8
BLACK
6
CONTINUOUS
10
5.04921
20
-1.86036
11
4.74646
21
-1.86036
0
LINE
8
BLACK
6
CONTINUOUS
10
4.74646
20
-1.86036
11
4.30289
21
-2.63078
0
LINE
8
BLACK
6
CONTINUOUS
10
4.30289
20
-2.63078
11
4.30245
21
-2.63112
0
LINE
8
BLACK
6
CONTINUOUS
10
4.30245
20
-2.63112
11
4.3021
21
-2.63154
0
LINE
8
BLACK
6
CONTINUOUS
10
4.3021
20
-2.63154
11
4.30187
21
-2.63156
0
LINE
8
BLACK
6
CONTINUOUS
10
4.30187
20
-2.63156
11
4.30169
21
-2.6317
0
LINE
8
BLACK
6
CONTINUOUS
10
4.30169
20
-2.6317
11
4.30115
21
-2.63163
0
LINE
8
BLACK
6
CONTINUOUS
10
4.30115
20
-2.63163
11
4.3006
21
-2.63168
0
LINE
8
BLACK
6
CONTINUOUS
10
4.3006
20
-2.63168
11
2.94508
21
-2.211
0
LINE
8
BLACK
6
CONTINUOUS
10
2.94508
20
-2.211
11
2.16228
21
-2.211
0
LINE
8
BLACK
6
CONTINUOUS
10
2.16228
20
-2.211
11
2.16228
21
-2.211
0
LINE
8
BLACK
6
CONTINUOUS
10
2.16228
20
-2.211
11
2.16228
21
-2.211
0
LINE
8
BLACK
6
CONTINUOUS
10
2.16228
20
-2.211
11
2.15664
21
-2.21036
0
LINE
8
BLACK
6
CONTINUOUS
10
2.15664
20
-2.21036
11
2.15128
21
-2.20849
0
LINE
8
BLACK
6
CONTINUOUS
10
2.15128
20
-2.20849
11
2.14648
21
-2.20547
0
LINE
8
BLACK
6
CONTINUOUS
10
2.14648
20
-2.20547
11
2.14246
21
-2.20146
0
LINE
8
BLACK
6
CONTINUOUS
10
2.14246
20
-2.20146
11
2.13944
21
-2.19665
0
LINE
8
BLACK
6
CONTINUOUS
10
2.13944
20
-2.19665
11
2.13757
21
-2.19129
0
LINE
8
BLACK
6
CONTINUOUS
10
2.13757
20
-2.19129
11
2.13693
21
-2.18565
0
LINE
8
BLACK
6
CONTINUOUS
10
2.13693
20
-2.18565
11
2.13693
21
-2.18565
0
LINE
8
BLACK
6
CONTINUOUS
10
2.13693
20
-2.18565
11
2.13693
21
-1.53113
0
LINE
8
BLACK
6
CONTINUOUS
10
2.13693
20
-1.53113
11
2.13693
21
-1.53113
0
LINE
8
BLACK
6
CONTINUOUS
10
2.13693
20
-1.53113
11
2.13693
21
-1.53113
0
LINE
8
BLACK
6
CONTINUOUS
10
2.13693
20
-1.53113
11
2.13693
21
-1.52871
0
LINE
8
BLACK
6
CONTINUOUS
10
2.13693
20
-1.52871
11
2.13586
21
-1.52401
0
LINE
8
BLACK
6
CONTINUOUS
10
2.13586
20
-1.52401
11
2.13377
21
-1.51967
0
LINE
8
BLACK
6
CONTINUOUS
10
2.13377
20
-1.51967
11
2.13076
21
-1.51589
0
LINE
8
BLACK
6
CONTINUOUS
10
2.13076
20
-1.51589
11
2.12699
21
-1.51289
0
LINE
8
BLACK
6
CONTINUOUS
10
2.12699
20
-1.51289
11
2.12264
21
-1.51079
0
LINE
8
BLACK
6
CONTINUOUS
10
2.12264
20
-1.51079
11
2.11794
21
-1.50972
0
LINE
8
BLACK
6
CONTINUOUS
10
2.11794
20
-1.50972
11
2.11553
21
-1.50972
0
LINE
8
BLACK
6
CONTINUOUS
10
2.11553
20
-1.50972
11
2.11553
21
-1.50972
0
LINE
8
BLACK
6
CONTINUOUS
10
2.11553
20
-1.50972
11
2.11553
21
-1.50972
0
LINE
8
BLACK
6
CONTINUOUS
10
2.11553
20
-1.50972
11
1.11036
21
-1.50972
0
LINE
8
BLACK
6
CONTINUOUS
10
1.11036
20
-1.50972
11
1.11036
21
-1.50972
0
LINE
8
BLACK
6
CONTINUOUS
10
1.11036
20
-1.50972
11
1.11036
21
-1.50972
0
LINE
8
BLACK
6
CONTINUOUS
10
1.11036
20
-1.50972
11
1.10795
21
-1.50972
0
LINE
8
BLACK
6
CONTINUOUS
10
1.10795
20
-1.50972
11
1.10324
21
-1.51079
0
LINE
8
BLACK
6
CONTINUOUS
10
1.10324
20
-1.51079
11
1.0989
21
-1.51289
0
LINE
8
BLACK
6
CONTINUOUS
10
1.0989
20
-1.51289
11
1.09513
21
-1.51589
0
LINE
8
BLACK
6
CONTINUOUS
10
1.09513
20
-1.51589
11
1.09212
21
-1.51967
0
LINE
8
BLACK
6
CONTINUOUS
10
1.09212
20
-1.51967
11
1.09003
21
-1.52401
0
LINE
8
BLACK
6
CONTINUOUS
10
1.09003
20
-1.52401
11
1.08895
21
-1.52871
0
LINE
8
BLACK
6
CONTINUOUS
10
1.08895
20
-1.52871
11
1.08895
21
-1.53113
0
LINE
8
BLACK
6
CONTINUOUS
10
1.08895
20
-1.53113
11
1.08895
21
-1.53113
0
LINE
8
BLACK
6
CONTINUOUS
10
1.08895
20
-1.53113
11
1.08895
21
-1.53113
0
LINE
8
BLACK
6
CONTINUOUS
10
1.08895
20
-1.53113
11
1.08895
21
-1.76489
0
LINE
8
BLACK
6
CONTINUOUS
10
1.08895
20
-1.76489
11
1.08895
21
-1.76489
0
LINE
8
BLACK
6
CONTINUOUS
10
1.08895
20
-1.76489
11
1.08895
21
-1.76489
0
LINE
8
BLACK
6
CONTINUOUS
10
1.08895
20
-1.76489
11
1.08832
21
-1.77053
0
LINE
8
BLACK
6
CONTINUOUS
10
1.08832
20
-1.77053
11
1.08644
21
-1.77588
0
LINE
8
BLACK
6
CONTINUOUS
10
1.08644
20
-1.77588
11
1.08342
21
-1.78069
0
LINE
8
BLACK
6
CONTINUOUS
10
1.08342
20
-1.78069
11
1.07941
21
-1.7847
0
LINE
8
BLACK
6
CONTINUOUS
10
1.07941
20
-1.7847
11
1.0746
21
-1.78772
0
LINE
8
BLACK
6
CONTINUOUS
10
1.0746
20
-1.78772
11
1.06925
21
-1.7896
0
LINE
8
BLACK
6
CONTINUOUS
10
1.06925
20
-1.7896
11
1.06361
21
-1.79023
0
LINE
8
BLACK
6
CONTINUOUS
10
1.06361
20
-1.79023
11
1.06361
21
-1.79023
0
LINE
8
BLACK
6
CONTINUOUS
10
1.06361
20
-1.79023
11
1.06361
21
-1.79023
0
LINE
8
BLACK
6
CONTINUOUS
10
1.06361
20
-1.79023
11
-0.140256
21
-1.79023
0
LINE
8
BLACK
6
CONTINUOUS
10
-0.140256
20
-1.79023
11
-0.315576
21
-1.79023
0
LINE
8
BLACK
6
CONTINUOUS
10
-0.315576
20
-1.79023
11
-0.321215
21
-1.7896
0
LINE
8
BLACK
6
CONTINUOUS
10
-0.321215
20
-1.7896
11
-0.326572
21
-1.78772
0
LINE
8
BLACK
6
CONTINUOUS
10
-0.326572
20
-1.78772
11
-0.331378
21
-1.7847
0
LINE
8
BLACK
6
CONTINUOUS
10
-0.331378
20
-1.7847
11
-0.335391
21
-1.78069
0
LINE
8
BLACK
6
CONTINUOUS
10
-0.335391
20
-1.78069
11
-0.33841
21
-1.77588
0
LINE
8
BLACK
6
CONTINUOUS
10
-0.33841
20
-1.77588
11
-0.340285
21
-1.77053
0
LINE
8
BLACK
6
CONTINUOUS
10
-0.340285
20
-1.77053
11
-0.34092
21
-1.76489
0
LINE
8
BLACK
6
CONTINUOUS
10
-0.34092
20
-1.76489
11
-0.34092
21
-1.11036
0
LINE
8
BLACK
6
CONTINUOUS
10
-0.34092
20
-1.11036
11
-0.34092
21
-1.11036
0
LINE
8
BLACK
6
CONTINUOUS
10
-0.34092
20
-1.11036
11
-0.34092
21
-1.10795
0
LINE
8
BLACK
6
CONTINUOUS
10
-0.34092
20
-1.10795
11
-0.341994
21
-1.10324
0
LINE
8
BLACK
6
CONTINUOUS
10
-0.341994
20
-1.10324
11
-0.344087
21
-1.0989
0
LINE
8
BLACK
6
CONTINUOUS
10
-0.344087
20
-1.0989
11
-0.347095
21
-1.09513
0
LINE
8
BLACK
6
CONTINUOUS
10
-0.347095
20
-1.09513
11
-0.350866
21
-1.09212
0
LINE
8
BLACK
6
CONTINUOUS
10
-0.350866
20
-1.09212
11
-0.355213
21
-1.09003
0
LINE
8
BLACK
6
CONTINUOUS
10
-0.355213
20
-1.09003
11
-0.359916
21
-1.08895
0
LINE
8
BLACK
6
CONTINUOUS
10
-0.359916
20
-1.08895
11
-0.362328
21
-1.08895
0
LINE
8
BLACK
6
CONTINUOUS
10
-0.362328
20
-1.08895
11
-1.06361
21
-1.08895
0
LINE
8
BLACK
6
CONTINUOUS
10
-1.06361
20
-1.08895
11
-1.06925
21
-1.08832
0
LINE
8
BLACK
6
CONTINUOUS
10
-1.06925
20
-1.08832
11
-1.0746
21
-1.08644
0
LINE
8
BLACK
6
CONTINUOUS
10
-1.0746
20
-1.08644
11
-1.07941
21
-1.08342
0
LINE
8
BLACK
6
CONTINUOUS
10
-1.07941
20
-1.08342
11
-1.08342
21
-1.07941
0
LINE
8
BLACK
6
CONTINUOUS
10
-1.08342
20
-1.07941
11
-1.08644
21
-1.0746
0
LINE
8
BLACK
6
CONTINUOUS
10
-1.08644
20
-1.0746
11
-1.08832
21
-1.06925
0
LINE
8
BLACK
6
CONTINUOUS
10
-1.08832
20
-1.06925
11
-1.08895
21
-1.06361
0
LINE
8
BLACK
6
CONTINUOUS
10
-1.08895
20
-1.06361
11
-1.08895
21
-1.06361
0
LINE
8
BLACK
6
CONTINUOUS
10
-1.08895
20
-1.06361
11
-1.08895
21
-0.52596
0
LINE
8
BLACK
6
CONTINUOUS
10
-1.08895
20
-0.52596
11
-1.08895
21
-0.52596
0
LINE
8
BLACK
6
CONTINUOUS
10
-1.08895
20
-0.52596
11
-1.08832
21
-0.52032
0
LINE
8
BLACK
6
CONTINUOUS
10
-1.08832
20
-0.52032
11
-1.08644
21
-0.514963
0
LINE
8
BLACK
6
CONTINUOUS
10
-1.08644
20
-0.514963
11
-1.08342
21
-0.510158
0
LINE
8
BLACK
6
CONTINUOUS
10
-1.08342
20
-0.510158
11
-1.07941
21
-0.506145
0
LINE
8
BLACK
6
CONTINUOUS
10
-1.07941
20
-0.506145
11
-1.0746
21
-0.503125
0
LINE
8
BLACK
6
CONTINUOUS
10
-1.0746
20
-0.503125
11
-1.06925
21
-0.501251
0
LINE
8
BLACK
6
CONTINUOUS
10
-1.06925
20
-0.501251
11
-1.06361
21
-0.500615
0
LINE
8
BLACK
6
CONTINUOUS
10
-1.06361
20
-0.500615
11
-0.362328
21
-0.500615
0
LINE
8
BLACK
6
CONTINUOUS
10
-0.362328
20
-0.500615
11
-0.359916
21
-0.500615
0
LINE
8
BLACK
6
CONTINUOUS
10
-0.359916
20
-0.500615
11
-0.355213
21
-0.499542
0
LINE
8
BLACK
6
CONTINUOUS
10
-0.355213
20
-0.499542
11
-0.350866
21
-0.497449
0
LINE
8
BLACK
6
CONTINUOUS
10
-0.350866
20
-0.497449
11
-0.347095
21
-0.494441
0
LINE
8
BLACK
6
CONTINUOUS
10
-0.347095
20
-0.494441
11
-0.344087
21
-0.490669
0
LINE
8
BLACK
6
CONTINUOUS
10
-0.344087
20
-0.490669
11
-0.341994
21
-0.486323
0
LINE
8
BLACK
6
CONTINUOUS
10
-0.341994
20
-0.486323
11
-0.34092
21
-0.48162
0
LINE
8
BLACK
6
CONTINUOUS
10
-0.34092
20
-0.48162
11
-0.34092
21
-0.479208
0
LINE
8
BLACK
6
CONTINUOUS
10
-0.34092
20
-0.479208
11
-0.34092
21
0.268824
0
LINE
8
BLACK
6
CONTINUOUS
10
-0.34092
20
0.268824
11
-0.340285
21
0.274464
0
LINE
8
BLACK
6
CONTINUOUS
10
-0.340285
20
0.274464
11
-0.33841
21
0.27982
0
LINE
8
BLACK
6
CONTINUOUS
10
-0.33841
20
0.27982
11
-0.335391
21
0.284626
0
LINE
8
BLACK
6
CONTINUOUS
10
-0.335391
20
0.284626
11
-0.331378
21
0.288639
0
LINE
8
BLACK
6
CONTINUOUS
10
-0.331378
20
0.288639
11
-0.326572
21
0.291658
0
LINE
8
BLACK
6
CONTINUOUS
10
-0.326572
20
0.291658
11
-0.321215
21
0.293533
0
LINE
8
BLACK
6
CONTINUOUS
10
-0.321215
20
0.293533
11
-0.315576
21
0.294168
0
LINE
8
BLACK
6
CONTINUOUS
10
-0.315576
20
0.294168
11
1.18049
21
0.294168
0
LINE
8
BLACK
6
CONTINUOUS
10
1.18049
20
0.294168
11
1.18049
21
0.294168
0
LINE
8
BLACK
6
CONTINUOUS
10
1.18049
20
0.294168
11
1.18049
21
0.294168
0
LINE
8
BLACK
6
CONTINUOUS
10
1.18049
20
0.294168
11
1.1829
21
0.294168
0
LINE
8
BLACK
6
CONTINUOUS
10
1.1829
20
0.294168
11
1.1876
21
0.295242
0
LINE
8
BLACK
6
CONTINUOUS
10
1.1876
20
0.295242
11
1.19195
21
0.297335
0
LINE
8
BLACK
6
CONTINUOUS
10
1.19195
20
0.297335
11
1.19572
21
0.300342
0
LINE
8
BLACK
6
CONTINUOUS
10
1.19572
20
0.300342
11
1.19873
21
0.304114
0
LINE
8
BLACK
6
CONTINUOUS
10
1.19873
20
0.304114
11
1.20082
21
0.30846
0
LINE
8
BLACK
6
CONTINUOUS
10
1.20082
20
0.30846
11
1.20189
21
0.313164
0
LINE
8
BLACK
6
CONTINUOUS
10
1.20189
20
0.313164
11
1.20189
21
0.315576
0
LINE
8
BLACK
6
CONTINUOUS
10
1.20189
20
0.315576
11
1.20189
21
0.315576
0
LINE
8
BLACK
6
CONTINUOUS
10
1.20189
20
0.315576
11
1.20189
21
0.315576
0
LINE
8
BLACK
6
CONTINUOUS
10
1.20189
20
0.315576
11
1.20189
21
0.549336
0
LINE
8
BLACK
6
CONTINUOUS
10
1.20189
20
0.549336
11
1.20189
21
0.549336
0
LINE
8
BLACK
6
CONTINUOUS
10
1.20189
20
0.549336
11
1.20253
21
0.554975
0
LINE
8
BLACK
6
CONTINUOUS
10
1.20253
20
0.554975
11
1.2044
21
0.560332
0
LINE
8
BLACK
6
CONTINUOUS
10
1.2044
20
0.560332
11
1.20742
21
0.565137
0
LINE
8
BLACK
6
CONTINUOUS
10
1.20742
20
0.565137
11
1.21144
21
0.56915
0
LINE
8
BLACK
6
CONTINUOUS
10
1.21144
20
0.56915
11
1.21624
21
0.57217
0
LINE
8
BLACK
6
CONTINUOUS
10
1.21624
20
0.57217
11
1.2216
21
0.574044
0
LINE
8
BLACK
6
CONTINUOUS
10
1.2216
20
0.574044
11
1.22724
21
0.57468
0
LINE
8
BLACK
6
CONTINUOUS
10
1.22724
20
0.57468
11
1.22724
21
0.57468
0
LINE
8
BLACK
6
CONTINUOUS
10
1.22724
20
0.57468
11
1.22724
21
0.57468
0
LINE
8
BLACK
6
CONTINUOUS
10
1.22724
20
0.57468
11
1.92852
21
0.57468
0
LINE
8
BLACK
6
CONTINUOUS
10
1.92852
20
0.57468
11
1.92852
21
0.57468
0
LINE
8
BLACK
6
CONTINUOUS
10
1.92852
20
0.57468
11
1.92852
21
0.57468
0
LINE
8
BLACK
6
CONTINUOUS
10
1.92852
20
0.57468
11
1.93093
21
0.57468
0
LINE
8
BLACK
6
CONTINUOUS
10
1.93093
20
0.57468
11
1.93563
21
0.575753
0
LINE
8
BLACK
6
CONTINUOUS
10
1.93563
20
0.575753
11
1.93998
21
0.577846
0
LINE
8
BLACK
6
CONTINUOUS
10
1.93998
20
0.577846
11
1.94375
21
0.580854
0
LINE
8
BLACK
6
CONTINUOUS
10
1.94375
20
0.580854
11
1.94676
21
0.584626
0
LINE
8
BLACK
6
CONTINUOUS
10
1.94676
20
0.584626
11
1.94885
21
0.588972
0
LINE
8
BLACK
6
CONTINUOUS
10
1.94885
20
0.588972
11
1.94993
21
0.593675
0
LINE
8
BLACK
6
CONTINUOUS
10
1.94993
20
0.593675
11
1.94993
21
0.596088
0
LINE
8
BLACK
6
CONTINUOUS
10
1.94993
20
0.596088
11
1.94993
21
0.596088
0
LINE
8
BLACK
6
CONTINUOUS
10
1.94993
20
0.596088
11
1.94993
21
0.596088
0
LINE
8
BLACK
6
CONTINUOUS
10
1.94993
20
0.596088
11
1.94993
21
0.783095
0
LINE
8
BLACK
6
CONTINUOUS
10
1.94993
20
0.783095
11
1.94993
21
0.783096
0
LINE
8
BLACK
6
CONTINUOUS
10
1.94993
20
0.783096
11
1.95056
21
0.788735
0
LINE
8
BLACK
6
CONTINUOUS
10
1.95056
20
0.788735
11
1.95244
21
0.794092
0
LINE
8
BLACK
6
CONTINUOUS
10
1.95244
20
0.794092
11
1.95546
21
0.798897
0
LINE
8
BLACK
6
CONTINUOUS
10
1.95546
20
0.798897
11
1.95947
21
0.80291
0
LINE
8
BLACK
6
CONTINUOUS
10
1.95947
20
0.80291
11
1.96427
21
0.80593
0
LINE
8
BLACK
6
CONTINUOUS
10
1.96427
20
0.80593
11
1.96963
21
0.807804
0
LINE
8
BLACK
6
CONTINUOUS
10
1.96963
20
0.807804
11
1.97527
21
0.80844
0
LINE
8
BLACK
6
CONTINUOUS
10
1.97527
20
0.80844
11
1.97527
21
0.80844
0
LINE
8
BLACK
6
CONTINUOUS
10
1.97527
20
0.80844
11
1.97527
21
0.80844
0
LINE
8
BLACK
6
CONTINUOUS
10
1.97527
20
0.80844
11
2.51292
21
0.80844
0
LINE
8
BLACK
6
CONTINUOUS
10
2.51292
20
0.80844
11
2.51292
21
0.80844
0
LINE
8
BLACK
6
CONTINUOUS
10
1.97527
20
0.804503
11
1.97286
21
0.804503
0
LINE
8
BLACK
6
CONTINUOUS
10
1.97286
20
0.804503
11
1.96816
21
0.803429
0
LINE
8
BLACK
6
CONTINUOUS
10
1.96816
20
0.803429
11
1.96381
21
0.801336
0
LINE
8
BLACK
6
CONTINUOUS
10
1.96381
20
0.801336
11
1.96004
21
0.798328
0
LINE
8
BLACK
6
CONTINUOUS
10
1.96004
20
0.798328
11
1.95703
21
0.794557
0
LINE
8
BLACK
6
CONTINUOUS
10
1.95703
20
0.794557
11
1.95494
21
0.79021
0
LINE
8
BLACK
6
CONTINUOUS
10
1.95494
20
0.79021
11
1.95386
21
0.785507
0
LINE
8
BLACK
6
CONTINUOUS
10
1.95386
20
0.785507
11
1.95386
21
0.783095
0
LINE
8
BLACK
6
CONTINUOUS
10
1.95386
20
0.783095
11
1.95386
21
0.596088
0
LINE
8
BLACK
6
CONTINUOUS
10
1.95386
20
0.596088
11
1.95323
21
0.590448
0
LINE
8
BLACK
6
CONTINUOUS
10
1.95323
20
0.590448
11
1.95135
21
0.585091
0
LINE
8
BLACK
6
CONTINUOUS
10
1.95135
20
0.585091
11
1.94833
21
0.580285
0
LINE
8
BLACK
6
CONTINUOUS
10
1.94833
20
0.580285
11
1.94432
21
0.576272
0
LINE
8
BLACK
6
CONTINUOUS
10
1.94432
20
0.576272
11
1.93952
21
0.573253
0
LINE
8
BLACK
6
CONTINUOUS
10
1.93952
20
0.573253
11
1.93416
21
0.571378
0
LINE
8
BLACK
6
CONTINUOUS
10
1.93416
20
0.571378
11
1.92852
21
0.570743
0
LINE
8
BLACK
6
CONTINUOUS
10
1.92852
20
0.570743
11
1.92852
21
0.570743
0
LINE
8
BLACK
6
CONTINUOUS
10
1.92852
20
0.570743
11
1.22724
21
0.570743
0
LINE
8
BLACK
6
CONTINUOUS
10
1.22724
20
0.570743
11
1.22483
21
0.570743
0
LINE
8
BLACK
6
CONTINUOUS
10
1.22483
20
0.570743
11
1.22012
21
0.569669
0
LINE
8
BLACK
6
CONTINUOUS
10
1.22012
20
0.569669
11
1.21578
21
0.567576
0
LINE
8
BLACK
6
CONTINUOUS
10
1.21578
20
0.567576
11
1.21201
21
0.564569
0
LINE
8
BLACK
6
CONTINUOUS
10
1.21201
20
0.564569
11
1.209
21
0.560797
0
LINE
8
BLACK
6
CONTINUOUS
10
1.209
20
0.560797
11
1.20691
21
0.556451
0
LINE
8
BLACK
6
CONTINUOUS
10
1.20691
20
0.556451
11
1.20583
21
0.551748
0
LINE
8
BLACK
6
CONTINUOUS
10
1.20583
20
0.551748
11
1.20583
21
0.549336
0
LINE
8
BLACK
6
CONTINUOUS
10
1.20583
20
0.549336
11
1.20583
21
0.315576
0
LINE
8
BLACK
6
CONTINUOUS
10
1.20583
20
0.315576
11
1.2052
21
0.309936
0
LINE
8
BLACK
6
CONTINUOUS
10
1.2052
20
0.309936
11
1.20332
21
0.304579
0
LINE
8
BLACK
6
CONTINUOUS
10
1.20332
20
0.304579
11
1.2003
21
0.299774
0
LINE
8
BLACK
6
CONTINUOUS
10
1.2003
20
0.299774
11
1.19629
21
0.29576
0
LINE
8
BLACK
6
CONTINUOUS
10
1.19629
20
0.29576
11
1.19148
21
0.292741
0
LINE
8
BLACK
6
CONTINUOUS
10
1.19148
20
0.292741
11
1.18613
21
0.290867
0
LINE
8
BLACK
6
CONTINUOUS
10
1.18613
20
0.290867
11
1.18049
21
0.290231
0
LINE
8
BLACK
6
CONTINUOUS
10
1.18049
20
0.290231
11
1.18049
21
0.290231
0
LINE
8
BLACK
6
CONTINUOUS
10
1.18049
20
0.290231
11
-0.315576
21
0.290231
0
LINE
8
BLACK
6
CONTINUOUS
10
-0.315576
20
0.290231
11
-0.317988
21
0.290231
0
LINE
8
BLACK
6
CONTINUOUS
10
-0.317988
20
0.290231
11
-0.322691
21
0.289158
0
LINE
8
BLACK
6
CONTINUOUS
10
-0.322691
20
0.289158
11
-0.327037
21
0.287065
0
LINE
8
BLACK
6
CONTINUOUS
10
-0.327037
20
0.287065
11
-0.330809
21
0.284057
0
LINE
8
BLACK
6
CONTINUOUS
10
-0.330809
20
0.284057
11
-0.333817
21
0.280285
0
LINE
8
BLACK
6
CONTINUOUS
10
-0.333817
20
0.280285
11
-0.33591
21
0.275939
0
LINE
8
BLACK
6
CONTINUOUS
10
-0.33591
20
0.275939
11
-0.336983
21
0.271236
0
LINE
8
BLACK
6
CONTINUOUS
10
-0.336983
20
0.271236
11
-0.336983
21
0.268824
0
LINE
8
BLACK
6
CONTINUOUS
10
-0.336983
20
0.268824
11
-0.336983
21
-0.479208
0
LINE
8
BLACK
6
CONTINUOUS
10
-0.336983
20
-0.479208
11
-0.337619
21
-0.484847
0
LINE
8
BLACK
6
CONTINUOUS
10
-0.337619
20
-0.484847
11
-0.339493
21
-0.490204
0
LINE
8
BLACK
6
CONTINUOUS
10
-0.339493
20
-0.490204
11
-0.342513
21
-0.49501
0
LINE
8
BLACK
6
CONTINUOUS
10
-0.342513
20
-0.49501
11
-0.346526
21
-0.499023
0
LINE
8
BLACK
6
CONTINUOUS
10
-0.346526
20
-0.499023
11
-0.351331
21
-0.502042
0
LINE
8
BLACK
6
CONTINUOUS
10
-0.351331
20
-0.502042
11
-0.356688
21
-0.503917
0
LINE
8
BLACK
6
CONTINUOUS
10
-0.356688
20
-0.503917
11
-0.362328
21
-0.504552
0
LINE
8
BLACK
6
CONTINUOUS
10
-0.362328
20
-0.504552
11
-1.06361
21
-0.504552
0
LINE
8
BLACK
6
CONTINUOUS
10
-1.06361
20
-0.504552
11
-1.06602
21
-0.504552
0
LINE
8
BLACK
6
CONTINUOUS
10
-1.06602
20
-0.504552
11
-1.07072
21
-0.505626
0
LINE
8
BLACK
6
CONTINUOUS
10
-1.07072
20
-0.505626
11
-1.07507
21
-0.507719
0
LINE
8
BLACK
6
CONTINUOUS
10
-1.07507
20
-0.507719
11
-1.07884
21
-0.510726
0
LINE
8
BLACK
6
CONTINUOUS
10
-1.07884
20
-0.510726
11
-1.08185
21
-0.514498
0
LINE
8
BLACK
6
CONTINUOUS
10
-1.08185
20
-0.514498
11
-1.08394
21
-0.518844
0
LINE
8
BLACK
6
CONTINUOUS
10
-1.08394
20
-0.518844
11
-1.08501
21
-0.523548
0
LINE
8
BLACK
6
CONTINUOUS
10
-1.08501
20
-0.523548
11
-1.08501
21
-0.52596
0
LINE
8
BLACK
6
CONTINUOUS
10
-1.08501
20
-0.52596
11
-1.08501
21
-1.06361
0
LINE
8
BLACK
6
CONTINUOUS
10
-1.08501
20
-1.06361
11
-1.08501
21
-1.06361
0
LINE
8
BLACK
6
CONTINUOUS
10
-1.08501
20
-1.06361
11
-1.08501
21
-1.06602
0
LINE
8
BLACK
6
CONTINUOUS
10
-1.08501
20
-1.06602
11
-1.08394
21
-1.07072
0
LINE
8
BLACK
6
CONTINUOUS
10
-1.08394
20
-1.07072
11
-1.08185
21
-1.07507
0
LINE
8
BLACK
6
CONTINUOUS
10
-1.08185
20
-1.07507
11
-1.07884
21
-1.07884
0
LINE
8
BLACK
6
CONTINUOUS
10
-1.07884
20
-1.07884
11
-1.07507
21
-1.08185
0
LINE
8
BLACK
6
CONTINUOUS
10
-1.07507
20
-1.08185
11
-1.07072
21
-1.08394
0
LINE
8
BLACK
6
CONTINUOUS
10
-1.07072
20
-1.08394
11
-1.06602
21
-1.08501
0
LINE
8
BLACK
6
CONTINUOUS
10
-1.06602
20
-1.08501
11
-1.06361
21
-1.08501
0
LINE
8
BLACK
6
CONTINUOUS
10
-1.06361
20
-1.08501
11
-0.362328
21
-1.08501
0
LINE
8
BLACK
6
CONTINUOUS
10
-0.362328
20
-1.08501
11
-0.356688
21
-1.08565
0
LINE
8
BLACK
6
CONTINUOUS
10
-0.356688
20
-1.08565
11
-0.351331
21
-1.08752
0
LINE
8
BLACK
6
CONTINUOUS
10
-0.351331
20
-1.08752
11
-0.346526
21
-1.09054
0
LINE
8
BLACK
6
CONTINUOUS
10
-0.346526
20
-1.09054
11
-0.342513
21
-1.09456
0
LINE
8
BLACK
6
CONTINUOUS
10
-0.342513
20
-1.09456
11
-0.339493
21
-1.09936
0
LINE
8
BLACK
6
CONTINUOUS
10
-0.339493
20
-1.09936
11
-0.337619
21
-1.10472
0
LINE
8
BLACK
6
CONTINUOUS
10
-0.337619
20
-1.10472
11
-0.336983
21
-1.11036
0
LINE
8
BLACK
6
CONTINUOUS
10
-0.336983
20
-1.11036
11
-0.336983
21
-1.76489
0
LINE
8
BLACK
6
CONTINUOUS
10
-0.336983
20
-1.76489
11
-0.336983
21
-1.7673
0
LINE
8
BLACK
6
CONTINUOUS
10
-0.336983
20
-1.7673
11
-0.33591
21
-1.772
0
LINE
8
BLACK
6
CONTINUOUS
10
-0.33591
20
-1.772
11
-0.333817
21
-1.77635
0
LINE
8
BLACK
6
CONTINUOUS
10
-0.333817
20
-1.77635
11
-0.330809
21
-1.78012
0
LINE
8
BLACK
6
CONTINUOUS
10
-0.330809
20
-1.78012
11
-0.327037
21
-1.78313
0
LINE
8
BLACK
6
CONTINUOUS
10
-0.327037
20
-1.78313
11
-0.322691
21
-1.78522
0
LINE
8
BLACK
6
CONTINUOUS
10
-0.322691
20
-1.78522
11
-0.317988
21
-1.78629
0
LINE
8
BLACK
6
CONTINUOUS
10
-0.317988
20
-1.78629
11
-0.315576
21
-1.78629
0
LINE
8
BLACK
6
CONTINUOUS
10
-0.315576
20
-1.78629
11
-0.140256
21
-1.78629
0
LINE
8
BLACK
6
CONTINUOUS
10
-0.140256
20
-1.78629
11
1.06361
21
-1.78629
0
LINE
8
BLACK
6
CONTINUOUS
10
1.06361
20
-1.78629
11
1.06602
21
-1.78629
0
LINE
8
BLACK
6
CONTINUOUS
10
1.06602
20
-1.78629
11
1.07072
21
-1.78522
0
LINE
8
BLACK
6
CONTINUOUS
10
1.07072
20
-1.78522
11
1.07507
21
-1.78313
0
LINE
8
BLACK
6
CONTINUOUS
10
1.07507
20
-1.78313
11
1.07884
21
-1.78012
0
LINE
8
BLACK
6
CONTINUOUS
10
1.07884
20
-1.78012
11
1.08185
21
-1.77635
0
LINE
8
BLACK
6
CONTINUOUS
10
1.08185
20
-1.77635
11
1.08394
21
-1.772
0
LINE
8
BLACK
6
CONTINUOUS
10
1.08394
20
-1.772
11
1.08501
21
-1.7673
0
LINE
8
BLACK
6
CONTINUOUS
10
1.08501
20
-1.7673
11
1.08501
21
-1.76489
0
LINE
8
BLACK
6
CONTINUOUS
10
1.08501
20
-1.76489
11
1.08501
21
-1.76489
0
LINE
8
BLACK
6
CONTINUOUS
10
1.08501
20
-1.76489
11
1.08501
21
-1.53113
0
LINE
8
BLACK
6
CONTINUOUS
10
1.08501
20
-1.53113
11
1.08501
21
-1.53113
0
LINE
8
BLACK
6
CONTINUOUS
10
1.08501
20
-1.53113
11
1.08565
21
-1.52549
0
LINE
8
BLACK
6
CONTINUOUS
10
1.08565
20
-1.52549
11
1.08752
21
-1.52013
0
LINE
8
BLACK
6
CONTINUOUS
10
1.08752
20
-1.52013
11
1.09054
21
-1.51532
0
LINE
8
BLACK
6
CONTINUOUS
10
1.09054
20
-1.51532
11
1.09456
21
-1.51131
0
LINE
8
BLACK
6
CONTINUOUS
10
1.09456
20
-1.51131
11
1.09936
21
-1.50829
0
LINE
8
BLACK
6
CONTINUOUS
10
1.09936
20
-1.50829
11
1.10472
21
-1.50642
0
LINE
8
BLACK
6
CONTINUOUS
10
1.10472
20
-1.50642
11
1.11036
21
-1.50578
0
LINE
8
BLACK
6
CONTINUOUS
10
1.11036
20
-1.50578
11
1.11036
21
-1.50578
0
LINE
8
BLACK
6
CONTINUOUS
10
1.11036
20
-1.50578
11
2.11553
21
-1.50578
0
LINE
8
BLACK
6
CONTINUOUS
10
2.11553
20
-1.50578
11
2.12117
21
-1.50642
0
LINE
8
BLACK
6
CONTINUOUS
10
2.12117
20
-1.50642
11
2.12652
21
-1.50829
0
LINE
8
BLACK
6
CONTINUOUS
10
2.12652
20
-1.50829
11
2.13133
21
-1.51131
0
LINE
8
BLACK
6
CONTINUOUS
10
2.13133
20
-1.51131
11
2.13534
21
-1.51532
0
LINE
8
BLACK
6
CONTINUOUS
10
2.13534
20
-1.51532
11
2.13836
21
-1.52013
0
LINE
8
BLACK
6
CONTINUOUS
10
2.13836
20
-1.52013
11
2.14024
21
-1.52549
0
LINE
8
BLACK
6
CONTINUOUS
10
2.14024
20
-1.52549
11
2.14087
21
-1.53113
0
LINE
8
BLACK
6
CONTINUOUS
10
2.14087
20
-1.53113
11
2.14087
21
-1.53113
0
LINE
8
BLACK
6
CONTINUOUS
10
2.14087
20
-1.53113
11
2.14087
21
-2.18565
0
LINE
8
BLACK
6
CONTINUOUS
10
2.14087
20
-2.18565
11
2.14087
21
-2.18807
0
LINE
8
BLACK
6
CONTINUOUS
10
2.14087
20
-2.18807
11
2.14194
21
-2.19277
0
LINE
8
BLACK
6
CONTINUOUS
10
2.14194
20
-2.19277
11
2.14404
21
-2.19712
0
LINE
8
BLACK
6
CONTINUOUS
10
2.14404
20
-2.19712
11
2.14705
21
-2.20089
0
LINE
8
BLACK
6
CONTINUOUS
10
2.14705
20
-2.20089
11
2.15082
21
-2.2039
0
LINE
8
BLACK
6
CONTINUOUS
10
2.15082
20
-2.2039
11
2.15516
21
-2.20599
0
LINE
8
BLACK
6
CONTINUOUS
10
2.15516
20
-2.20599
11
2.15987
21
-2.20706
0
LINE
8
BLACK
6
CONTINUOUS
10
2.15987
20
-2.20706
11
2.16228
21
-2.20706
0
LINE
8
BLACK
6
CONTINUOUS
10
2.16228
20
-2.20706
11
2.94537
21
-2.20706
0
LINE
8
BLACK
6
CONTINUOUS
10
2.94537
20
-2.20706
11
2.94565
21
-2.20718
0
LINE
8
BLACK
6
CONTINUOUS
10
2.94565
20
-2.20718
11
2.94596
21
-2.20715
0
LINE
8
BLACK
6
CONTINUOUS
10
2.94596
20
-2.20715
11
4.30026
21
-2.62745
0
LINE
8
BLACK
6
CONTINUOUS
10
4.30026
20
-2.62745
11
4.74362
21
-1.85741
0
LINE
8
BLACK
6
CONTINUOUS
10
4.74362
20
-1.85741
11
4.74383
21
-1.85725
0
LINE
8
BLACK
6
CONTINUOUS
10
4.74383
20
-1.85725
11
4.74393
21
-1.857
0
LINE
8
BLACK
6
CONTINUOUS
10
4.74393
20
-1.857
11
4.74441
21
-1.8568
0
LINE
8
BLACK
6
CONTINUOUS
10
4.74441
20
-1.8568
11
4.74481
21
-1.85649
0
LINE
8
BLACK
6
CONTINUOUS
10
4.74481
20
-1.85649
11
4.74508
21
-1.85652
0
LINE
8
BLACK
6
CONTINUOUS
10
4.74508
20
-1.85652
11
4.74532
21
-1.85642
0
LINE
8
BLACK
6
CONTINUOUS
10
4.74532
20
-1.85642
11
5.04921
21
-1.85642
0
LINE
8
BLACK
6
CONTINUOUS
10
5.04921
20
-1.85642
11
5.04921
21
-1.85642
0
LINE
8
BLACK
6
CONTINUOUS
10
5.04921
20
-1.85642
11
5.05162
21
-1.85642
0
LINE
8
BLACK
6
CONTINUOUS
10
5.05162
20
-1.85642
11
5.05633
21
-1.85535
0
LINE
8
BLACK
6
CONTINUOUS
10
5.05633
20
-1.85535
11
5.06067
21
-1.85325
0
LINE
8
BLACK
6
CONTINUOUS
10
5.06067
20
-1.85325
11
5.06444
21
-1.85024
0
LINE
8
BLACK
6
CONTINUOUS
10
5.06444
20
-1.85024
11
5.06745
21
-1.84647
0
LINE
8
BLACK
6
CONTINUOUS
10
5.06745
20
-1.84647
11
5.06955
21
-1.84213
0
LINE
8
BLACK
6
CONTINUOUS
10
5.06955
20
-1.84213
11
5.07062
21
-1.83743
0
LINE
8
BLACK
6
CONTINUOUS
10
5.07062
20
-1.83743
11
5.07062
21
-1.83501
0
LINE
8
BLACK
6
CONTINUOUS
10
5.07062
20
-1.83501
11
5.07062
21
-1.83501
0
LINE
8
BLACK
6
CONTINUOUS
10
5.07062
20
-1.83501
11
5.07062
21
0.631152
0
LINE
8
BLACK
6
CONTINUOUS
10
5.07062
20
0.631152
11
5.07062
21
0.631152
0
LINE
8
BLACK
6
CONTINUOUS
10
5.07062
20
0.631152
11
5.07062
21
0.631152
0
LINE
8
BLACK
6
CONTINUOUS
10
5.07062
20
0.631152
11
5.07062
21
0.631152
0
LINE
8
BLACK
6
CONTINUOUS
10
5.07062
20
0.631152
11
5.07062
21
0.631156
0
LINE
8
BLACK
6
CONTINUOUS
10
5.07062
20
0.631156
11
5.07062
21
0.633564
0
LINE
8
BLACK
6
CONTINUOUS
10
5.07062
20
0.633564
11
5.06955
21
0.638267
0
LINE
8
BLACK
6
CONTINUOUS
10
5.06955
20
0.638267
11
5.06746
21
0.642614
0
LINE
8
BLACK
6
CONTINUOUS
10
5.06746
20
0.642614
11
5.06445
21
0.646386
0
LINE
8
BLACK
6
CONTINUOUS
10
5.06445
20
0.646386
11
5.06068
21
0.649394
0
LINE
8
BLACK
6
CONTINUOUS
10
5.06068
20
0.649394
11
5.05633
21
0.651486
0
LINE
8
BLACK
6
CONTINUOUS
10
5.05633
20
0.651486
11
5.05163
21
0.652559
0
LINE
8
BLACK
6
CONTINUOUS
10
5.05163
20
0.652559
11
5.04921
21
0.652559
0
LINE
8
BLACK
6
CONTINUOUS
10
5.04921
20
0.652559
11
5.04921
21
0.652559
0
LINE
8
BLACK
6
CONTINUOUS
10
5.04921
20
0.652559
11
5.04921
21
0.652559
0
LINE
8
BLACK
6
CONTINUOUS
10
5.04921
20
0.652559
11
2.55967
21
0.652559
0
LINE
8
BLACK
6
CONTINUOUS
10
2.55967
20
0.652559
11
2.55967
21
0.652559
0
LINE
8
BLACK
6
CONTINUOUS
10
2.55967
20
0.652559
11
2.55967
21
0.652559
0
LINE
8
BLACK
6
CONTINUOUS
10
2.55967
20
0.652559
11
2.55403
21
0.653194
0
LINE
8
BLACK
6
CONTINUOUS
10
2.55403
20
0.653194
11
2.54867
21
0.655069
0
LINE
8
BLACK
6
CONTINUOUS
10
2.54867
20
0.655069
11
2.54387
21
0.658088
0
LINE
8
BLACK
6
CONTINUOUS
10
2.54387
20
0.658088
11
2.53986
21
0.662101
0
LINE
8
BLACK
6
CONTINUOUS
10
2.53986
20
0.662101
11
2.53684
21
0.666907
0
LINE
8
BLACK
6
CONTINUOUS
10
2.53684
20
0.666907
11
2.53496
21
0.672264
0
LINE
8
BLACK
6
CONTINUOUS
10
2.53496
20
0.672264
11
2.53433
21
0.6779
0
LINE
8
BLACK
6
CONTINUOUS
10
2.53433
20
0.6779
11
2.53433
21
0.677904
0
LINE
8
BLACK
6
CONTINUOUS
10
2.53433
20
0.677904
11
2.53433
21
0.783095
0
LINE
8
BLACK
6
CONTINUOUS
10
2.53433
20
0.783095
11
2.53433
21
0.785507
0
LINE
8
BLACK
6
CONTINUOUS
10
2.53433
20
0.785507
11
2.53325
21
0.79021
0
LINE
8
BLACK
6
CONTINUOUS
10
2.53325
20
0.79021
11
2.53116
21
0.794557
0
LINE
8
BLACK
6
CONTINUOUS
10
2.53116
20
0.794557
11
2.52815
21
0.798328
0
LINE
8
BLACK
6
CONTINUOUS
10
2.52815
20
0.798328
11
2.52438
21
0.801336
0
LINE
8
BLACK
6
CONTINUOUS
10
2.52438
20
0.801336
11
2.52003
21
0.803429
0
LINE
8
BLACK
6
CONTINUOUS
10
2.52003
20
0.803429
11
2.51533
21
0.804503
0
LINE
8
BLACK
6
CONTINUOUS
10
2.51533
20
0.804503
11
2.51292
21
0.804503
0
LINE
8
BLACK
6
CONTINUOUS
10
2.51292
20
0.804503
11
1.97527
21
0.804503
  0
ENDSEC
  0
EOF
