M48
; DRILL file {KiCad (6.0.7-1)-1} date 2022 August 21, Sunday 15:39:01
; FORMAT={-:-/ absolute / inch / decimal}
; #@! TF.CreationDate,2022-08-21T15:39:01+10:00
; #@! TF.GenerationSoftware,Kicad,Pcbnew,(6.0.7-1)-1
; #@! TF.FileFunction,Plated,1,2,PTH
FMAT,2
INCH
; #@! TA.AperFunction,Plated,PTH,ComponentDrill
T1C0.0354
; #@! TA.AperFunction,Plated,PTH,ComponentDrill
T2C0.0394
; #@! TA.AperFunction,Plated,PTH,ComponentDrill
T3C0.0579
; #@! TA.AperFunction,Plated,PTH,ComponentDrill
T4C0.1575
%
G90
G05
T2
X9.5842Y-1.6218
X9.5842Y-1.7218
X9.5842Y-1.8218
X9.5842Y-1.9218
X9.5842Y-2.0218
X9.5842Y-2.1218
X9.5842Y-2.2218
X9.5842Y-2.3218
X9.5842Y-2.4218
X9.5842Y-2.5218
X9.5842Y-2.6218
X9.5842Y-2.7218
X9.5842Y-2.8218
X9.5842Y-2.9218
X9.5842Y-3.0218
X9.5842Y-3.1218
X9.5842Y-3.2218
X9.5842Y-3.3218
X9.5842Y-3.4218
X9.5842Y-3.5218
X9.6889Y-1.621
X9.6889Y-1.721
X9.6889Y-1.821
X9.6889Y-1.921
X9.6889Y-2.021
X9.6889Y-2.121
X9.6889Y-2.221
X9.6889Y-2.321
X9.6889Y-2.421
X9.6889Y-2.521
X9.6889Y-2.621
X9.6889Y-2.721
X9.6889Y-2.821
X9.6889Y-2.921
X9.6889Y-3.021
X9.6889Y-3.121
X9.6889Y-3.221
X9.6889Y-3.321
X9.6889Y-3.421
X9.6889Y-3.521
X10.1842Y-1.6218
X10.1842Y-1.7218
X10.1842Y-1.8218
X10.1842Y-1.9218
X10.1842Y-2.0218
X10.1842Y-2.1218
X10.1842Y-2.2218
X10.1842Y-2.3218
X10.1842Y-2.4218
X10.1842Y-2.5218
X10.1842Y-2.6218
X10.1842Y-2.7218
X10.1842Y-2.8218
X10.1842Y-2.9218
X10.1842Y-3.0218
X10.1842Y-3.1218
X10.1842Y-3.2218
X10.1842Y-3.3218
X10.1842Y-3.4218
X10.1842Y-3.5218
X10.2889Y-1.621
X10.2889Y-1.721
X10.2889Y-1.821
X10.2889Y-1.921
X10.2889Y-2.021
X10.2889Y-2.121
X10.2889Y-2.221
X10.2889Y-2.321
X10.2889Y-2.421
X10.2889Y-2.521
X10.2889Y-2.621
X10.2889Y-2.721
X10.2889Y-2.821
X10.2889Y-2.921
X10.2889Y-3.021
X10.2889Y-3.121
X10.2889Y-3.221
X10.2889Y-3.321
X10.2889Y-3.421
X10.2889Y-3.521
T3
X4.3849Y-2.8454
X4.4349Y-2.7454
X4.6349Y-2.7454
X4.6849Y-2.8454
X5.133Y-2.0506
X5.133Y-2.7986
X5.133Y-3.5467
X5.183Y-1.9506
X5.183Y-2.6986
X5.183Y-3.4467
X5.383Y-1.9506
X5.383Y-2.6986
X5.383Y-3.4467
X5.433Y-2.0506
X5.433Y-2.7986
X5.433Y-3.5467
X5.881Y-2.0506
X5.881Y-2.7986
X5.881Y-3.5467
X5.931Y-1.9506
X5.931Y-2.6986
X5.931Y-3.4467
X6.131Y-1.9506
X6.131Y-2.6986
X6.131Y-3.4467
X6.181Y-2.0506
X6.181Y-2.7986
X6.181Y-3.5467
X6.629Y-1.7701
X6.629Y-2.5181
X6.629Y-3.2661
X6.679Y-1.6701
X6.679Y-2.4181
X6.679Y-3.1661
X6.879Y-1.6701
X6.879Y-2.4181
X6.879Y-3.1661
X6.929Y-1.7701
X6.929Y-2.5181
X6.929Y-3.2661
X7.3771Y-1.5363
X7.3771Y-2.2844
X7.3771Y-3.0324
X7.4271Y-1.4363
X7.4271Y-2.1844
X7.4271Y-2.9324
X7.6108Y-3.9674
X7.6271Y-1.4363
X7.6271Y-2.1844
X7.6271Y-2.9324
X7.6608Y-3.8674
X7.6771Y-1.5363
X7.6771Y-2.2844
X7.6771Y-3.0324
X7.8608Y-3.8674
X7.9108Y-3.9674
X8.1251Y-1.7233
X8.1251Y-2.4714
X8.1251Y-3.2194
X8.1751Y-1.6233
X8.1751Y-2.3714
X8.1751Y-3.1194
X8.3751Y-1.6233
X8.3751Y-2.3714
X8.3751Y-3.1194
X8.4251Y-1.7233
X8.4251Y-2.4714
X8.4251Y-3.2194
X8.4834Y-4.0255
X8.5575Y-3.9419
X8.7507Y-3.9936
X8.7731Y-4.1032
X8.8731Y-1.7701
X8.8731Y-2.5181
X8.8731Y-3.2661
X8.9231Y-1.6701
X8.9231Y-2.4181
X8.9231Y-3.1661
X9.1231Y-1.6701
X9.1231Y-2.4181
X9.1231Y-3.1661
X9.1731Y-1.7701
X9.1731Y-2.5181
X9.1731Y-3.2661
X9.2674Y-4.3579
X9.329Y-4.4512
X9.3674Y-4.1847
X9.479Y-4.1914
T4
X5.657Y-2.5246
X5.657Y-3.2726
X6.405Y-2.5246
X6.405Y-3.2726
X8.6491Y-2.3376
X9.1166Y-4.044
T1
G00X10.0354Y-3.7899
M15
G01X10.0197Y-3.7899
M16
G05
G00X10.0354Y-3.8883
M15
G01X10.0197Y-3.8883
M16
G05
G00X10.0787Y-3.7072
M15
G01X10.063Y-3.7072
M16
G05
G00X10.0787Y-3.971
M15
G01X10.063Y-3.971
M16
G05
G00X10.2362Y-3.7072
M15
G01X10.2205Y-3.7072
M16
G05
G00X10.2362Y-3.971
M15
G01X10.2205Y-3.971
M16
G05
G00X10.3543Y-3.7072
M15
G01X10.3386Y-3.7072
M16
G05
G00X10.3543Y-3.971
M15
G01X10.3386Y-3.971
M16
G05
T0
M30
