M48
; DRILL file {KiCad (6.0.7-1)-1} date 2022 August 21, Sunday 15:39:01
; FORMAT={-:-/ absolute / inch / decimal}
; #@! TF.CreationDate,2022-08-21T15:39:01+10:00
; #@! TF.GenerationSoftware,Kicad,Pcbnew,(6.0.7-1)-1
; #@! TF.FileFunction,NonPlated,1,2,NPTH
FMAT,2
INCH
; #@! TA.AperFunction,NonPlated,NPTH,ComponentDrill
T1C0.0315
; #@! TA.AperFunction,NonPlated,NPTH,ComponentDrill
T2C0.0748
; #@! TA.AperFunction,NonPlated,NPTH,ComponentDrill
T3C0.1181
; #@! TA.AperFunction,NonPlated,NPTH,ComponentDrill
T4C0.1614
%
G90
G05
T1
X10.1339Y-3.7977
X10.1339Y-3.8804
X10.4094Y-3.7977
X10.4094Y-3.8804
T2
X4.3349Y-2.9454
X4.7349Y-2.9454
X5.083Y-2.1506
X5.083Y-2.8986
X5.083Y-3.6467
X5.483Y-2.1506
X5.483Y-2.8986
X5.483Y-3.6467
X5.831Y-2.1506
X5.831Y-2.8986
X5.831Y-3.6467
X6.231Y-2.1506
X6.231Y-2.8986
X6.231Y-3.6467
X6.579Y-1.8701
X6.579Y-2.6181
X6.579Y-3.3661
X6.979Y-1.8701
X6.979Y-2.6181
X6.979Y-3.3661
X7.3271Y-1.6363
X7.3271Y-2.3844
X7.3271Y-3.1324
X7.5608Y-4.0674
X7.7271Y-1.6363
X7.7271Y-2.3844
X7.7271Y-3.1324
X7.9608Y-4.0674
X8.0751Y-1.8233
X8.0751Y-2.5714
X8.0751Y-3.3194
X8.4092Y-4.1092
X8.4751Y-1.8233
X8.4751Y-2.5714
X8.4751Y-3.3194
X8.7955Y-4.2127
X8.8231Y-1.8701
X8.8231Y-2.6181
X8.8231Y-3.3661
X9.2231Y-1.8701
X9.2231Y-2.6181
X9.2231Y-3.3661
X9.3906Y-4.5445
X9.5906Y-4.1981
T3
X4.3849Y-3.0454
X4.4349Y-3.1454
X4.6349Y-3.1454
X4.6849Y-3.0454
X5.133Y-2.2506
X5.133Y-2.9986
X5.133Y-3.7467
X5.183Y-2.3506
X5.183Y-3.0986
X5.183Y-3.8467
X5.383Y-2.3506
X5.383Y-3.0986
X5.383Y-3.8467
X5.433Y-2.2506
X5.433Y-2.9986
X5.433Y-3.7467
X5.881Y-2.2506
X5.881Y-2.9986
X5.881Y-3.7467
X5.931Y-2.3506
X5.931Y-3.0986
X5.931Y-3.8467
X6.131Y-2.3506
X6.131Y-3.0986
X6.131Y-3.8467
X6.181Y-2.2506
X6.181Y-2.9986
X6.181Y-3.7467
X6.629Y-1.9701
X6.629Y-2.7181
X6.629Y-3.4661
X6.679Y-2.0701
X6.679Y-2.8181
X6.679Y-3.5661
X6.879Y-2.0701
X6.879Y-2.8181
X6.879Y-3.5661
X6.929Y-1.9701
X6.929Y-2.7181
X6.929Y-3.4661
X7.3771Y-1.7363
X7.3771Y-2.4844
X7.3771Y-3.2324
X7.4271Y-1.8363
X7.4271Y-2.5844
X7.4271Y-3.3324
X7.6108Y-4.1674
X7.6271Y-1.8363
X7.6271Y-2.5844
X7.6271Y-3.3324
X7.6608Y-4.2674
X7.6771Y-1.7363
X7.6771Y-2.4844
X7.6771Y-3.2324
X7.8608Y-4.2674
X7.9108Y-4.1674
X8.1251Y-1.9233
X8.1251Y-2.6714
X8.1251Y-3.4194
X8.1751Y-2.0233
X8.1751Y-2.7714
X8.1751Y-3.5194
X8.3751Y-2.0233
X8.3751Y-2.7714
X8.3751Y-3.5194
X8.4251Y-1.9233
X8.4251Y-2.6714
X8.4251Y-3.4194
X8.4316Y-4.2187
X8.454Y-4.3282
X8.6472Y-4.38
X8.7214Y-4.2963
X8.8731Y-1.9701
X8.8731Y-2.7181
X8.8731Y-3.4661
X8.9231Y-2.0701
X8.9231Y-2.8181
X8.9231Y-3.5661
X9.1231Y-2.0701
X9.1231Y-2.8181
X9.1231Y-3.5661
X9.1731Y-1.9701
X9.1731Y-2.7181
X9.1731Y-3.4661
X9.5023Y-4.5512
X9.6139Y-4.5579
X9.6523Y-4.2914
X9.7139Y-4.3847
T4
X4.5349Y-2.9454
X5.283Y-2.1506
X5.283Y-2.8986
X5.283Y-3.6467
X6.031Y-2.1506
X6.031Y-2.8986
X6.031Y-3.6467
X6.779Y-1.8701
X6.779Y-2.6181
X6.779Y-3.3661
X7.5271Y-1.6363
X7.5271Y-2.3844
X7.5271Y-3.1324
X7.7608Y-4.0674
X8.2751Y-1.8233
X8.2751Y-2.5714
X8.2751Y-3.3194
X8.6024Y-4.1609
X9.0231Y-1.8701
X9.0231Y-2.6181
X9.0231Y-3.3661
X9.4906Y-4.3713
T0
M30
