G04 #@! TF.GenerationSoftware,KiCad,Pcbnew,(6.0.7-1)-1*
G04 #@! TF.CreationDate,2022-12-30T18:39:57+10:00*
G04 #@! TF.ProjectId,jantor,6a616e74-6f72-42e6-9b69-6361645f7063,rev?*
G04 #@! TF.SameCoordinates,Original*
G04 #@! TF.FileFunction,Paste,Bot*
G04 #@! TF.FilePolarity,Positive*
%FSLAX46Y46*%
G04 Gerber Fmt 4.6, Leading zero omitted, Abs format (unit mm)*
G04 Created by KiCad (PCBNEW (6.0.7-1)-1) date 2022-12-30 18:39:57*
%MOMM*%
%LPD*%
G01*
G04 APERTURE LIST*
G04 Aperture macros list*
%AMRotRect*
0 Rectangle, with rotation*
0 The origin of the aperture is its center*
0 $1 length*
0 $2 width*
0 $3 Rotation angle, in degrees counterclockwise*
0 Add horizontal line*
21,1,$1,$2,0,0,$3*%
%AMFreePoly0*
4,1,41,-0.253218,0.810169,-0.197182,0.777817,-0.085307,0.646873,0.004758,0.500071,0.070806,0.341010,0.111215,0.173590,0.124998,0.001914,0.124743,0.000958,0.125000,0.000000,0.111874,-0.169423,0.072810,-0.334802,0.008740,-0.492191,-0.078806,-0.637835,-0.187740,-0.768256,-0.243376,-0.801290,-0.308076,-0.802081,-0.364503,-0.770415,-0.397537,-0.714779,-0.398328,-0.650079,-0.366662,-0.593652,
-0.360216,-0.589825,-0.280449,-0.494322,-0.212600,-0.381448,-0.162946,-0.259471,-0.132672,-0.131302,-0.123060,-0.007240,-0.125000,0.000000,-0.124802,0.000738,-0.125002,0.001478,-0.122983,0.009067,-0.133057,0.134552,-0.164379,0.264322,-0.215574,0.387613,-0.285385,0.501402,-0.367161,0.597115,-0.373960,0.601041,-0.406312,0.657077,-0.406311,0.721782,-0.373959,0.777818,-0.317923,0.810170,
-0.253218,0.810169,-0.253218,0.810169,$1*%
G04 Aperture macros list end*
%ADD10R,2.550000X2.500000*%
%ADD11FreePoly0,180.000000*%
%ADD12FreePoly0,0.000000*%
%ADD13RotRect,2.550000X2.500000X60.000000*%
%ADD14RotRect,2.550000X2.500000X345.000000*%
G04 APERTURE END LIST*
D10*
X7085000Y-21540000D03*
X-5842000Y-24080000D03*
X-30915000Y-34602500D03*
X-43842000Y-37142500D03*
X-11915000Y-39352500D03*
X-24842000Y-41892500D03*
X-30915000Y-15602500D03*
X-43842000Y-18142500D03*
X-30915000Y3397500D03*
X-43842000Y857500D03*
X-87915000Y-28665000D03*
X-100842000Y-31205000D03*
X7085000Y-2540000D03*
X-5842000Y-5080000D03*
X-49915000Y-21540000D03*
X-62842000Y-24080000D03*
X-24977500Y-58352500D03*
X-37904500Y-60892500D03*
X-68915000Y-28665000D03*
X-81842000Y-31205000D03*
D11*
X13275000Y6531250D03*
D12*
X15225000Y6531250D03*
D11*
X13275000Y3991250D03*
D12*
X15225000Y3991250D03*
X15225000Y1451250D03*
D11*
X13275000Y1451250D03*
X13275000Y-1088750D03*
D12*
X15225000Y-1088750D03*
X15225000Y-3628750D03*
D11*
X13275000Y-3628750D03*
D12*
X15225000Y-6168750D03*
D11*
X13275000Y-6168750D03*
D12*
X15225000Y-8708750D03*
D11*
X13275000Y-8708750D03*
D12*
X15225000Y-11248750D03*
D11*
X13275000Y-11248750D03*
X13275000Y-13788750D03*
D12*
X15225000Y-13788750D03*
X15225000Y-16328750D03*
D11*
X13275000Y-16328750D03*
D12*
X15225000Y-18868750D03*
D11*
X13275000Y-18868750D03*
X13275000Y-21408750D03*
D12*
X15225000Y-21408750D03*
D11*
X13275000Y-23948750D03*
D12*
X15225000Y-23948750D03*
D11*
X13275000Y-26488750D03*
D12*
X15225000Y-26488750D03*
X15225000Y-29028750D03*
D11*
X13275000Y-29028750D03*
X13275000Y-31568750D03*
D12*
X15225000Y-31568750D03*
X15225000Y-34108750D03*
D11*
X13275000Y-34108750D03*
D12*
X15225000Y-36648750D03*
D11*
X13275000Y-36648750D03*
D12*
X15225000Y-39188750D03*
D11*
X13275000Y-39188750D03*
D12*
X15225000Y-41728750D03*
D11*
X13275000Y-41728750D03*
D12*
X30465000Y-41728750D03*
D11*
X28515000Y-41728750D03*
D12*
X30465000Y-39188750D03*
D11*
X28515000Y-39188750D03*
X28515000Y-36648750D03*
D12*
X30465000Y-36648750D03*
D11*
X28515000Y-34108750D03*
D12*
X30465000Y-34108750D03*
X30465000Y-31568750D03*
D11*
X28515000Y-31568750D03*
D12*
X30465000Y-29028750D03*
D11*
X28515000Y-29028750D03*
X28515000Y-26488750D03*
D12*
X30465000Y-26488750D03*
D11*
X28515000Y-23948750D03*
D12*
X30465000Y-23948750D03*
X30465000Y-21408750D03*
D11*
X28515000Y-21408750D03*
X28515000Y-18868750D03*
D12*
X30465000Y-18868750D03*
D11*
X28515000Y-16328750D03*
D12*
X30465000Y-16328750D03*
D11*
X28515000Y-13788750D03*
D12*
X30465000Y-13788750D03*
X30465000Y-11248750D03*
D11*
X28515000Y-11248750D03*
D12*
X30465000Y-8708750D03*
D11*
X28515000Y-8708750D03*
X28515000Y-6168750D03*
D12*
X30465000Y-6168750D03*
X30465000Y-3628750D03*
D11*
X28515000Y-3628750D03*
X28515000Y-1088750D03*
D12*
X30465000Y-1088750D03*
X30465000Y1451250D03*
D11*
X28515000Y1451250D03*
D12*
X30465000Y3991250D03*
D11*
X28515000Y3991250D03*
X28515000Y6531250D03*
D12*
X30465000Y6531250D03*
D10*
X-68915000Y-47665000D03*
X-81842000Y-50205000D03*
X-87915000Y-47665000D03*
X-100842000Y-50205000D03*
D12*
X20750000Y-44877500D03*
D11*
X18800000Y-44877500D03*
X18800000Y-47417500D03*
D12*
X20750000Y-47417500D03*
D11*
X18800000Y-49957500D03*
D12*
X20750000Y-49957500D03*
X20750000Y-52497500D03*
D11*
X18800000Y-52497500D03*
D10*
X-49915000Y-2540000D03*
X-62842000Y-5080000D03*
D13*
X17617205Y-58665460D03*
X13353409Y-71130570D03*
D10*
X-106915000Y-29852500D03*
X-119842000Y-32392500D03*
D14*
X-4501316Y-62474685D03*
X-17645239Y-61582382D03*
D10*
X-11915000Y-20352500D03*
X-24842000Y-22892500D03*
X-87915000Y-9665000D03*
X-100842000Y-12205000D03*
X-11915000Y-1352500D03*
X-24842000Y-3892500D03*
X7085000Y-40540000D03*
X-5842000Y-43080000D03*
X-49915000Y-40540000D03*
X-62842000Y-43080000D03*
X-68915000Y-9665000D03*
X-81842000Y-12205000D03*
M02*
