<?xml version="1.0" standalone="no"?>
 <!DOCTYPE svg PUBLIC "-//W3C//DTD SVG 1.1//EN" 
 "http://www.w3.org/Graphics/SVG/1.1/DTD/svg11.dtd"> 
<svg
  xmlns:svg="http://www.w3.org/2000/svg"
  xmlns="http://www.w3.org/2000/svg"
  xmlns:xlink="http://www.w3.org/1999/xlink"
  version="1.1"
  width="297.002200mm" height="210.007200mm" viewBox="0.000000 0.000000 297.002200 210.007200">
<title>SVG Image created as jantor-Edge_Cuts.svg date 2023/11/04 23:15:26 </title>
  <desc>Image generated by PCBNEW </desc>
<g style="fill:#000000; fill-opacity:1.000000;stroke:#000000; stroke-opacity:1.000000;
stroke-linecap:round; stroke-linejoin:round;"
 transform="translate(0 0) scale(1 1)">
</g>
<g style="fill:#000000; fill-opacity:0.0; 
stroke:#000000; stroke-width:0.000000; stroke-opacity:1; 
stroke-linecap:round; stroke-linejoin:round;">
</g>
<g style="fill:#000000; fill-opacity:0.0; 
stroke:#000000; stroke-width:0.100000; stroke-opacity:1; 
stroke-linecap:round; stroke-linejoin:round;">
<path d="M128.843800 -16.031250 A0.593700 0.593700 0.0 0 0 128.250000 -16.625000" />
<path d="M-27.609375 27.015625 A0.593749 0.593749 0.0 0 0 -27.015625 27.609375" />
<path d="M29.984375 -7.421875 A0.593725 0.593725 0.0 0 0 30.578125 -8.015625" />
<path d="M120.531250 47.203125
L109.250000 66.796875
" />
<path d="M74.812500 56.109375
L54.921875 56.109375
" />
<path d="M128.250000 47.203125
L120.531250 47.203125
" />
<path d="M64.421900 -17.218750 A0.593700 0.593700 0.0 0 0 65.015625 -16.625000" />
<path d="M49.578125 -15.140625
L49.578125 -19.890625
" />
<path d="M50.171875 -20.484375
L63.828125 -20.484375
" />
<path d="M64.421875 -19.890625
L64.421875 -17.218750
" />
<path d="M128.250000 47.203050 A0.593850 0.593850 0.0 0 0 128.843750 46.609375" />
<path d="M-27.015625 12.765625
L-9.203125 12.765625
" />
<path d="M27.609375 44.828125
L27.609375 38.890625
" />
<path d="M30.578125 -8.015625
L30.578125 -13.953125
" />
<path d="M-8.015625 -7.421875 A0.593749 0.593749 0.0 0 0 -8.609375 -6.828125" />
<path d="M64.421875 -19.890625 A0.593775 0.593775 0.0 0 0 63.828125 -20.484375" />
<path d="M31.171875 -14.546875
L48.984375 -14.546875
" />
<path d="M54.328125 55.515625 A0.593775 0.593775 0.0 0 0 54.921875 56.109375" />
<path d="M109.250000 66.796875
L74.812500 56.109375
" />
<path d="M128.843750 -16.031250
L128.843750 46.609375
" />
<path d="M-8.609375 12.171875
L-8.609375 -6.828125
" />
<path d="M28.203125 38.296875 A0.593725 0.593725 0.0 0 0 27.609375 38.890625" />
<path d="M-27.015625 27.609375
L-9.203125 27.609375
" />
<path d="M-8.609375 44.828125
L-8.609375 28.203125
" />
<path d="M48.984375 -14.546875 A0.593725 0.593725 0.0 0 0 49.578125 -15.140625" />
<path d="M31.171875 -14.546875 A0.593775 0.593775 0.0 0 0 30.578125 -13.953125" />
<path d="M53.734375 38.296875
L28.203125 38.296875
" />
<path d="M-8.015625 45.421875
L-3.562500 45.421875
" />
<path d="M-9.203125 12.765625 A0.593749 0.593749 0.0 0 0 -8.609375 12.171875" />
<path d="M54.328125 55.515625
L54.328125 38.890625
" />
<path d="M27.015625 45.421875 A0.593775 0.593775 0.0 0 0 27.609375 44.828125" />
<path d="M50.171875 -20.484375 A0.593775 0.593775 0.0 0 0 49.578125 -19.890625" />
<path d="M54.328125 38.890625 A0.593725 0.593725 0.0 0 0 53.734375 38.296875" />
<path d="M-8.609375 28.203125 A0.593749 0.593749 0.0 0 0 -9.203125 27.609375" />
<path d="M-27.609375 13.359375
L-27.609375 27.015625
" />
<path d="M-27.015625 12.765625 A0.593749 0.593749 0.0 0 0 -27.609375 13.359375" />
<path d="M-3.562500 45.421875
L27.015625 45.421875
" />
<path d="M-8.609375 44.828125 A0.593749 0.593749 0.0 0 0 -8.015625 45.421875" />
<path d="M-8.015625 -7.421875
L29.984375 -7.421875
" />
<path d="M128.250000 -16.625000
L65.015625 -16.625000
" />
</g>
<g style="fill:#000000; fill-opacity:0.0; 
stroke:#000000; stroke-width:0.120000; stroke-opacity:1; 
stroke-linecap:round; stroke-linejoin:round;">
<path d="M8.906250 23.156250
L8.906250 14.843750
" />
<path d="M10.093750 23.156250
L10.093750 14.843750
" />
<path d="M10.093750 14.843750 A0.593750 0.593750 0.0 0 0 8.906250 14.843750" />
<path d="M8.906250 23.156250 A0.593750 0.593750 0.0 0 0 10.093750 23.156250" />
<path d="M8.906250 4.156250
L8.906250 -4.156250
" />
<path d="M10.093750 4.156250
L10.093750 -4.156250
" />
<path d="M10.093750 -4.156250 A0.593750 0.593750 0.0 0 0 8.906250 -4.156250" />
<path d="M8.906250 4.156250 A0.593750 0.593750 0.0 0 0 10.093750 4.156250" />
<path d="M8.906250 42.156250
L8.906250 33.843750
" />
<path d="M10.093750 42.156250
L10.093750 33.843750
" />
<path d="M10.093750 33.843750 A0.593750 0.593750 0.0 0 0 8.906250 33.843750" />
<path d="M8.906250 42.156250 A0.593750 0.593750 0.0 0 0 10.093750 42.156250" />
<path d="M-9.796875 24.343750
L-9.796875 16.031250
" />
<path d="M-8.609375 24.343750
L-8.609375 16.031250
" />
<path d="M-8.609375 16.031250 A0.593750 0.593750 0.0 0 0 -9.796875 16.031250" />
<path d="M-9.796875 24.343750 A0.593750 0.593750 0.0 0 0 -8.609375 24.343750" />
<g >
</g>
<g >
</g>
<g >
</g>
<g >
</g>
<g >
</g>
<g >
</g>
<g >
</g>
<g >
</g>
<g >
</g>
<g >
</g>
<g >
</g>
<g >
</g>
<g >
</g>
<g >
</g>
<g >
</g>
<g >
</g>
<g >
</g>
<g >
</g>
<g >
</g>
<g >
</g>
<g >
</g>
<g >
</g>
<g >
</g>
<g >
</g>
<g >
</g>
<g >
</g>
<g >
</g>
<g >
</g>
<g >
</g>
<g >
</g>
<g >
</g>
<g >
</g>
<g >
</g>
<g >
</g>
<g >
</g>
<g >
</g>
<g >
</g>
<g >
</g>
<g >
</g>
<g >
</g>
</g> 
</svg>
