G04 #@! TF.GenerationSoftware,KiCad,Pcbnew,(6.0.7-1)-1*
G04 #@! TF.CreationDate,2022-08-21T15:38:58+10:00*
G04 #@! TF.ProjectId,jantor,6a616e74-6f72-42e6-9b69-6361645f7063,rev?*
G04 #@! TF.SameCoordinates,Original*
G04 #@! TF.FileFunction,Paste,Top*
G04 #@! TF.FilePolarity,Positive*
%FSLAX46Y46*%
G04 Gerber Fmt 4.6, Leading zero omitted, Abs format (unit mm)*
G04 Created by KiCad (PCBNEW (6.0.7-1)-1) date 2022-08-21 15:38:58*
%MOMM*%
%LPD*%
G01*
G04 APERTURE LIST*
G04 Aperture macros list*
%AMRotRect*
0 Rectangle, with rotation*
0 The origin of the aperture is its center*
0 $1 length*
0 $2 width*
0 $3 Rotation angle, in degrees counterclockwise*
0 Add horizontal line*
21,1,$1,$2,0,0,$3*%
G04 Aperture macros list end*
%ADD10R,2.550000X2.500000*%
%ADD11RotRect,2.550000X2.500000X345.000000*%
%ADD12RotRect,2.550000X2.500000X60.000000*%
G04 APERTURE END LIST*
D10*
X146102500Y-57165000D03*
X159029500Y-59705000D03*
X165102500Y-88040000D03*
X178029500Y-90580000D03*
X222102500Y-88040000D03*
X235029500Y-90580000D03*
X203102500Y-48852500D03*
X216029500Y-51392500D03*
X127102500Y-57165000D03*
X140029500Y-59705000D03*
X203102500Y-67852500D03*
X216029500Y-70392500D03*
D11*
X210999015Y-106307219D03*
X222828138Y-112106424D03*
D10*
X108102500Y-77352500D03*
X121029500Y-79892500D03*
D12*
X239719705Y-118437040D03*
X248382909Y-108511930D03*
D10*
X165102500Y-50040000D03*
X178029500Y-52580000D03*
X127102500Y-95165000D03*
X140029500Y-97705000D03*
X146102500Y-95165000D03*
X159029500Y-97705000D03*
X159029500Y-78705000D03*
X146102500Y-76165000D03*
X190040000Y-105852500D03*
X202967000Y-108392500D03*
X165102500Y-69040000D03*
X178029500Y-71580000D03*
X222102500Y-50040000D03*
X235029500Y-52580000D03*
X127102500Y-76165000D03*
X140029500Y-78705000D03*
X184102500Y-44102500D03*
X197029500Y-46642500D03*
X184102500Y-63102500D03*
X197029500Y-65642500D03*
X184102500Y-82102500D03*
X197029500Y-84642500D03*
X222102500Y-69040000D03*
X235029500Y-71580000D03*
X203102500Y-86852500D03*
X216029500Y-89392500D03*
M02*
