G04 #@! TF.GenerationSoftware,KiCad,Pcbnew,(6.0.7-1)-1*
G04 #@! TF.CreationDate,2022-12-09T12:24:08+10:00*
G04 #@! TF.ProjectId,jantor,6a616e74-6f72-42e6-9b69-6361645f7063,rev?*
G04 #@! TF.SameCoordinates,Original*
G04 #@! TF.FileFunction,Paste,Top*
G04 #@! TF.FilePolarity,Positive*
%FSLAX46Y46*%
G04 Gerber Fmt 4.6, Leading zero omitted, Abs format (unit mm)*
G04 Created by KiCad (PCBNEW (6.0.7-1)-1) date 2022-12-09 12:24:08*
%MOMM*%
%LPD*%
G01*
G04 APERTURE LIST*
G04 Aperture macros list*
%AMRotRect*
0 Rectangle, with rotation*
0 The origin of the aperture is its center*
0 $1 length*
0 $2 width*
0 $3 Rotation angle, in degrees counterclockwise*
0 Add horizontal line*
21,1,$1,$2,0,0,$3*%
%AMFreePoly0*
4,1,41,-0.243376,0.801290,-0.187740,0.768256,-0.078806,0.637835,0.008740,0.492191,0.072810,0.334802,0.111874,0.169423,0.125000,0.000000,0.124743,-0.000958,0.124998,-0.001914,0.111215,-0.173590,0.070806,-0.341010,0.004758,-0.500071,-0.085307,-0.646873,-0.197182,-0.777817,-0.253218,-0.810169,-0.317923,-0.810170,-0.373959,-0.777818,-0.406311,-0.721782,-0.406312,-0.657077,-0.373960,-0.601041,
-0.367161,-0.597115,-0.285385,-0.501402,-0.215574,-0.387613,-0.164379,-0.264322,-0.133057,-0.134552,-0.122983,-0.009067,-0.125002,-0.001478,-0.124802,-0.000738,-0.125000,0.000000,-0.123060,0.007240,-0.132672,0.131302,-0.162946,0.259471,-0.212600,0.381448,-0.280449,0.494322,-0.360216,0.589825,-0.366662,0.593652,-0.398328,0.650079,-0.397537,0.714779,-0.364503,0.770415,-0.308076,0.802081,
-0.243376,0.801290,-0.243376,0.801290,$1*%
G04 Aperture macros list end*
%ADD10R,2.550000X2.500000*%
%ADD11RotRect,2.550000X2.500000X60.000000*%
%ADD12RotRect,2.550000X2.500000X345.000000*%
%ADD13FreePoly0,180.000000*%
%ADD14FreePoly0,0.000000*%
G04 APERTURE END LIST*
D10*
X-7085000Y-21540000D03*
X5842000Y-24080000D03*
X-45085000Y-34602500D03*
X-32158000Y-37142500D03*
X-26085000Y-39352500D03*
X-13158000Y-41892500D03*
X-45085000Y-15602500D03*
X-32158000Y-18142500D03*
X-45085000Y3397500D03*
X-32158000Y857500D03*
X-102085000Y-28665000D03*
X-89158000Y-31205000D03*
X-7085000Y-2540000D03*
X5842000Y-5080000D03*
X-64085000Y-21540000D03*
X-51158000Y-24080000D03*
X-39147500Y-58352500D03*
X-26220500Y-60892500D03*
X-83085000Y-28665000D03*
X-70158000Y-31205000D03*
X-83085000Y-47665000D03*
X-70158000Y-50205000D03*
X-102085000Y-47665000D03*
X-89158000Y-50205000D03*
X-64085000Y-2540000D03*
X-51158000Y-5080000D03*
D11*
X10532205Y-70937040D03*
X19195409Y-61011930D03*
D10*
X-121085000Y-29852500D03*
X-108158000Y-32392500D03*
D12*
X-18188485Y-58807219D03*
X-6359362Y-64606424D03*
D10*
X-26085000Y-20352500D03*
X-13158000Y-22892500D03*
X-102085000Y-9665000D03*
X-89158000Y-12205000D03*
X-26085000Y-1352500D03*
X-13158000Y-3892500D03*
X-7085000Y-40540000D03*
X5842000Y-43080000D03*
X-64085000Y-40540000D03*
X-51158000Y-43080000D03*
X-83085000Y-9665000D03*
X-70158000Y-12205000D03*
D13*
X28515000Y6531250D03*
D14*
X30465000Y6531250D03*
X30465000Y3991250D03*
D13*
X28515000Y3991250D03*
D14*
X30465000Y1451250D03*
D13*
X28515000Y1451250D03*
X28515000Y-1088750D03*
D14*
X30465000Y-1088750D03*
D13*
X28515000Y-3628750D03*
D14*
X30465000Y-3628750D03*
D13*
X28515000Y-6168750D03*
D14*
X30465000Y-6168750D03*
D13*
X28515000Y-8708750D03*
D14*
X30465000Y-8708750D03*
X30465000Y-11248750D03*
D13*
X28515000Y-11248750D03*
X28515000Y-13788750D03*
D14*
X30465000Y-13788750D03*
D13*
X28515000Y-16328750D03*
D14*
X30465000Y-16328750D03*
D13*
X28515000Y-18868750D03*
D14*
X30465000Y-18868750D03*
D13*
X28515000Y-21408750D03*
D14*
X30465000Y-21408750D03*
X30465000Y-23948750D03*
D13*
X28515000Y-23948750D03*
X28515000Y-26488750D03*
D14*
X30465000Y-26488750D03*
X30465000Y-29028750D03*
D13*
X28515000Y-29028750D03*
D14*
X30465000Y-31568750D03*
D13*
X28515000Y-31568750D03*
X28515000Y-34108750D03*
D14*
X30465000Y-34108750D03*
X30465000Y-36648750D03*
D13*
X28515000Y-36648750D03*
D14*
X30465000Y-39188750D03*
D13*
X28515000Y-39188750D03*
X28515000Y-41728750D03*
D14*
X30465000Y-41728750D03*
X15225000Y-41728750D03*
D13*
X13275000Y-41728750D03*
D14*
X15225000Y-39188750D03*
D13*
X13275000Y-39188750D03*
X13275000Y-36648750D03*
D14*
X15225000Y-36648750D03*
X15225000Y-34108750D03*
D13*
X13275000Y-34108750D03*
D14*
X15225000Y-31568750D03*
D13*
X13275000Y-31568750D03*
X13275000Y-29028750D03*
D14*
X15225000Y-29028750D03*
X15225000Y-26488750D03*
D13*
X13275000Y-26488750D03*
X13275000Y-23948750D03*
D14*
X15225000Y-23948750D03*
D13*
X13275000Y-21408750D03*
D14*
X15225000Y-21408750D03*
D13*
X13275000Y-18868750D03*
D14*
X15225000Y-18868750D03*
D13*
X13275000Y-16328750D03*
D14*
X15225000Y-16328750D03*
X15225000Y-13788750D03*
D13*
X13275000Y-13788750D03*
X13275000Y-11248750D03*
D14*
X15225000Y-11248750D03*
D13*
X13275000Y-8708750D03*
D14*
X15225000Y-8708750D03*
X15225000Y-6168750D03*
D13*
X13275000Y-6168750D03*
D14*
X15225000Y-3628750D03*
D13*
X13275000Y-3628750D03*
D14*
X15225000Y-1088750D03*
D13*
X13275000Y-1088750D03*
D14*
X15225000Y1451250D03*
D13*
X13275000Y1451250D03*
D14*
X15225000Y3991250D03*
D13*
X13275000Y3991250D03*
D14*
X15225000Y6531250D03*
D13*
X13275000Y6531250D03*
X18800000Y-52497500D03*
D14*
X20750000Y-52497500D03*
D13*
X18800000Y-49957500D03*
D14*
X20750000Y-49957500D03*
D13*
X18800000Y-47417500D03*
D14*
X20750000Y-47417500D03*
D13*
X18800000Y-44877500D03*
D14*
X20750000Y-44877500D03*
M02*
