G04 #@! TF.GenerationSoftware,KiCad,Pcbnew,(6.0.7-1)-1*
G04 #@! TF.CreationDate,2022-08-21T15:38:59+10:00*
G04 #@! TF.ProjectId,jantor,6a616e74-6f72-42e6-9b69-6361645f7063,rev?*
G04 #@! TF.SameCoordinates,Original*
G04 #@! TF.FileFunction,Profile,NP*
%FSLAX46Y46*%
G04 Gerber Fmt 4.6, Leading zero omitted, Abs format (unit mm)*
G04 Created by KiCad (PCBNEW (6.0.7-1)-1) date 2022-08-21 15:38:59*
%MOMM*%
%LPD*%
G01*
G04 APERTURE LIST*
G04 #@! TA.AperFunction,Profile*
%ADD10C,0.100000*%
G04 #@! TD*
G04 #@! TA.AperFunction,Profile*
%ADD11C,0.120000*%
G04 #@! TD*
G04 APERTURE END LIST*
D10*
X265478278Y-104572029D02*
G75*
G03*
X266000000Y-103312500I-1619578J1408679D01*
G01*
X239599296Y-128117562D02*
X188812500Y-114000000D01*
X245812500Y-126468750D02*
X265478284Y-104572034D01*
X239599296Y-128117562D02*
G75*
G03*
X245812500Y-126468750I1661351J6270533D01*
G01*
X125875000Y-102125000D02*
X161500000Y-102125000D01*
X219687500Y-37406250D02*
G75*
G03*
X220281250Y-38000000I593700J-50D01*
G01*
X105687500Y-66500000D02*
X105687500Y-83125000D01*
X163875000Y-95000000D02*
X180500000Y-95000000D01*
X125875000Y-45125000D02*
G75*
G03*
X124687500Y-46312500I0J-1187500D01*
G01*
X199500000Y-32062500D02*
X182875000Y-32062500D01*
X124687500Y-85500000D02*
X124687500Y-100937500D01*
X163875000Y-38000000D02*
G75*
G03*
X162687500Y-39187500I0J-1187500D01*
G01*
X180500000Y-38000000D02*
X163875000Y-38000000D01*
X124687500Y-85500000D02*
G75*
G03*
X123500000Y-84312500I-1187500J0D01*
G01*
X106875000Y-84312500D02*
X123500000Y-84312500D01*
X124687500Y-64125000D02*
X124687500Y-46312500D01*
X181687500Y-36812500D02*
X181687500Y-33250000D01*
X266000000Y-39187500D02*
G75*
G03*
X264812500Y-38000000I-1187500J0D01*
G01*
X182875000Y-32062500D02*
G75*
G03*
X181687500Y-33250000I0J-1187500D01*
G01*
X182783579Y-96217973D02*
G75*
G03*
X181093750Y-95000000I-1689879J-563327D01*
G01*
X105687500Y-83125000D02*
G75*
G03*
X106875000Y-84312500I1187500J0D01*
G01*
X106875000Y-65312500D02*
G75*
G03*
X105687500Y-66500000I0J-1187500D01*
G01*
X266000000Y-39187500D02*
X266000000Y-103312500D01*
X161500000Y-45125000D02*
X125875000Y-45125000D01*
X163875000Y-95000000D02*
G75*
G03*
X162687500Y-96187500I0J-1187500D01*
G01*
X182783592Y-96217969D02*
X187156618Y-112156066D01*
X180500000Y-95000000D02*
X181093750Y-95000000D01*
X162687500Y-43937500D02*
X162687500Y-39187500D01*
X124687500Y-100937500D02*
G75*
G03*
X125875000Y-102125000I1187500J0D01*
G01*
X162687500Y-96187500D02*
X162687500Y-100937500D01*
X218500000Y-36812500D02*
X201875000Y-36812500D01*
X238687500Y-38000000D02*
X220875000Y-38000000D01*
X220875000Y-38000000D02*
X220281250Y-38000000D01*
X161500000Y-102125000D02*
G75*
G03*
X162687500Y-100937500I0J1187500D01*
G01*
X123500000Y-65312500D02*
G75*
G03*
X124687500Y-64125000I0J1187500D01*
G01*
X180500000Y-38000000D02*
G75*
G03*
X181687500Y-36812500I0J1187500D01*
G01*
X200687500Y-33250000D02*
G75*
G03*
X199500000Y-32062500I-1187500J0D01*
G01*
X218500000Y-36812500D02*
X219093750Y-36812500D01*
X161500000Y-45125000D02*
G75*
G03*
X162687500Y-43937500I0J1187500D01*
G01*
X187156595Y-112156073D02*
G75*
G03*
X188812500Y-114000000I2794405J843973D01*
G01*
X238687500Y-38000000D02*
X264812500Y-38000000D01*
X200687500Y-35625000D02*
G75*
G03*
X201875000Y-36812500I1187500J0D01*
G01*
X219687500Y-37406250D02*
G75*
G03*
X219093750Y-36812500I-593700J50D01*
G01*
X123500000Y-65312500D02*
X106875000Y-65312500D01*
X200687500Y-35625000D02*
X200687500Y-33250000D01*
D11*
X143093750Y-59968750D02*
X143093750Y-46906250D01*
X144281250Y-59968750D02*
X144281250Y-46906250D01*
X144281250Y-46906250D02*
G75*
G03*
X143093750Y-46906250I-593750J0D01*
G01*
X143093750Y-59968750D02*
G75*
G03*
X144281250Y-59968750I593750J0D01*
G01*
X143093750Y-100343750D02*
X143093750Y-87281250D01*
X144281250Y-100343750D02*
X144281250Y-87281250D01*
X144281250Y-87281250D02*
G75*
G03*
X143093750Y-87281250I-593750J0D01*
G01*
X143093750Y-100343750D02*
G75*
G03*
X144281250Y-100343750I593750J0D01*
G01*
X144281250Y-69468750D02*
G75*
G03*
X143093750Y-69468750I-593750J0D01*
G01*
X143093750Y-77781250D02*
G75*
G03*
X144281250Y-77781250I593750J0D01*
G01*
X143093750Y-77781250D02*
X143093750Y-69468750D01*
X144281250Y-77781250D02*
X144281250Y-69468750D01*
X124093750Y-81343750D02*
G75*
G03*
X125281250Y-81343750I593750J0D01*
G01*
X125281250Y-68281250D02*
G75*
G03*
X124093750Y-68281250I-593750J0D01*
G01*
X125281250Y-81343750D02*
X125281250Y-68281250D01*
X124093750Y-81343750D02*
X124093750Y-68281250D01*
M02*
