G04 #@! TF.GenerationSoftware,KiCad,Pcbnew,(6.0.7-1)-1*
G04 #@! TF.CreationDate,2022-12-09T12:24:09+10:00*
G04 #@! TF.ProjectId,jantor,6a616e74-6f72-42e6-9b69-6361645f7063,rev?*
G04 #@! TF.SameCoordinates,Original*
G04 #@! TF.FileFunction,Profile,NP*
%FSLAX46Y46*%
G04 Gerber Fmt 4.6, Leading zero omitted, Abs format (unit mm)*
G04 Created by KiCad (PCBNEW (6.0.7-1)-1) date 2022-12-09 12:24:09*
%MOMM*%
%LPD*%
G01*
G04 APERTURE LIST*
G04 #@! TA.AperFunction,Profile*
%ADD10C,0.100000*%
G04 #@! TD*
G04 #@! TA.AperFunction,Profile*
%ADD11C,0.120000*%
G04 #@! TD*
G04 APERTURE END LIST*
D10*
X33843700Y8906250D02*
G75*
G03*
X33250000Y9500000I-593600J150D01*
G01*
X-122609375Y-34140625D02*
G75*
G03*
X-122015625Y-34734375I593749J-1D01*
G01*
X-65015625Y296875D02*
G75*
G03*
X-64421875Y890625I1J593749D01*
G01*
X25531250Y-54328125D02*
X14250000Y-73921875D01*
X-20187500Y-63234375D02*
X-40078125Y-63234375D01*
X33250000Y-54328125D02*
X25531250Y-54328125D01*
X-30578125Y10093750D02*
G75*
G03*
X-29984375Y9500000I593749J-1D01*
G01*
X-45421875Y8015625D02*
X-45421875Y12765625D01*
X-44828125Y13359375D02*
X-31171875Y13359375D01*
X-30578125Y12765625D02*
X-30578125Y10093750D01*
X33250000Y-54328050D02*
G75*
G03*
X33843750Y-53734375I0J593750D01*
G01*
X-122015625Y-19890625D02*
X-104203125Y-19890625D01*
X-67390625Y-51953125D02*
X-67390625Y-46015625D01*
X-64421875Y890625D02*
X-64421875Y6828125D01*
X-103015625Y296875D02*
G75*
G03*
X-103609375Y-296875I-1J-593749D01*
G01*
X-30578125Y12765625D02*
G75*
G03*
X-31171875Y13359375I-593749J1D01*
G01*
X-63828125Y7421875D02*
X-46015625Y7421875D01*
X-40671875Y-62640625D02*
G75*
G03*
X-40078125Y-63234375I593749J-1D01*
G01*
X14250000Y-73921875D02*
X-20187500Y-63234375D01*
X33843750Y8906250D02*
X33843750Y-53734375D01*
X-103609375Y-19296875D02*
X-103609375Y-296875D01*
X-66796875Y-45421875D02*
G75*
G03*
X-67390625Y-46015625I-1J-593749D01*
G01*
X-122015625Y-34734375D02*
X-104203125Y-34734375D01*
X-103609375Y-51953125D02*
X-103609375Y-35328125D01*
X-46015625Y7421875D02*
G75*
G03*
X-45421875Y8015625I1J593749D01*
G01*
X-63828125Y7421875D02*
G75*
G03*
X-64421875Y6828125I-1J-593749D01*
G01*
X-41265625Y-45421875D02*
X-66796875Y-45421875D01*
X-103015625Y-52546875D02*
X-98562500Y-52546875D01*
X-104203125Y-19890625D02*
G75*
G03*
X-103609375Y-19296875I1J593749D01*
G01*
X-40671875Y-62640625D02*
X-40671875Y-46015625D01*
X-67984375Y-52546875D02*
G75*
G03*
X-67390625Y-51953125I1J593749D01*
G01*
X-44828125Y13359375D02*
G75*
G03*
X-45421875Y12765625I-1J-593749D01*
G01*
X-40671875Y-46015625D02*
G75*
G03*
X-41265625Y-45421875I-593749J1D01*
G01*
X-103609375Y-35328125D02*
G75*
G03*
X-104203125Y-34734375I-593749J1D01*
G01*
X-122609375Y-20484375D02*
X-122609375Y-34140625D01*
X-122015625Y-19890625D02*
G75*
G03*
X-122609375Y-20484375I-1J-593749D01*
G01*
X-98562500Y-52546875D02*
X-67984375Y-52546875D01*
X-103609375Y-51953125D02*
G75*
G03*
X-103015625Y-52546875I593749J-1D01*
G01*
X-103015625Y296875D02*
X-65015625Y296875D01*
X33250000Y9500000D02*
X-29984375Y9500000D01*
D11*
X-84906250Y-30281250D02*
X-84906250Y-21968750D01*
X-86093750Y-30281250D02*
X-86093750Y-21968750D01*
X-84906250Y-21968750D02*
G75*
G03*
X-86093750Y-21968750I-593750J0D01*
G01*
X-86093750Y-30281250D02*
G75*
G03*
X-84906250Y-30281250I593750J0D01*
G01*
X-86093750Y-11281250D02*
X-86093750Y-2968750D01*
X-84906250Y-11281250D02*
X-84906250Y-2968750D01*
X-84906250Y-2968750D02*
G75*
G03*
X-86093750Y-2968750I-593750J0D01*
G01*
X-86093750Y-11281250D02*
G75*
G03*
X-84906250Y-11281250I593750J0D01*
G01*
X-86093750Y-49281250D02*
X-86093750Y-40968750D01*
X-84906250Y-49281250D02*
X-84906250Y-40968750D01*
X-86093750Y-49281250D02*
G75*
G03*
X-84906250Y-49281250I593750J0D01*
G01*
X-84906250Y-40968750D02*
G75*
G03*
X-86093750Y-40968750I-593750J0D01*
G01*
X-104796875Y-31468750D02*
X-104796875Y-23156250D01*
X-103609375Y-31468750D02*
X-103609375Y-23156250D01*
X-104796875Y-31468750D02*
G75*
G03*
X-103609375Y-31468750I593750J0D01*
G01*
X-103609375Y-23156250D02*
G75*
G03*
X-104796875Y-23156250I-593750J0D01*
G01*
M02*
