G04 #@! TF.GenerationSoftware,KiCad,Pcbnew,(6.0.7-1)-1*
G04 #@! TF.CreationDate,2022-12-09T12:24:09+10:00*
G04 #@! TF.ProjectId,jantor,6a616e74-6f72-42e6-9b69-6361645f7063,rev?*
G04 #@! TF.SameCoordinates,Original*
G04 #@! TF.FileFunction,Soldermask,Top*
G04 #@! TF.FilePolarity,Negative*
%FSLAX46Y46*%
G04 Gerber Fmt 4.6, Leading zero omitted, Abs format (unit mm)*
G04 Created by KiCad (PCBNEW (6.0.7-1)-1) date 2022-12-09 12:24:09*
%MOMM*%
%LPD*%
G01*
G04 APERTURE LIST*
G04 Aperture macros list*
%AMRotRect*
0 Rectangle, with rotation*
0 The origin of the aperture is its center*
0 $1 length*
0 $2 width*
0 $3 Rotation angle, in degrees counterclockwise*
0 Add horizontal line*
21,1,$1,$2,0,0,$3*%
%AMFreePoly0*
4,1,41,-0.243376,0.801290,-0.187740,0.768256,-0.078806,0.637835,0.008740,0.492191,0.072810,0.334802,0.111874,0.169423,0.125000,0.000000,0.124743,-0.000958,0.124998,-0.001914,0.111215,-0.173590,0.070806,-0.341010,0.004758,-0.500071,-0.085307,-0.646873,-0.197182,-0.777817,-0.253218,-0.810169,-0.317923,-0.810170,-0.373959,-0.777818,-0.406311,-0.721782,-0.406312,-0.657077,-0.373960,-0.601041,
-0.367161,-0.597115,-0.285385,-0.501402,-0.215574,-0.387613,-0.164379,-0.264322,-0.133057,-0.134552,-0.122983,-0.009067,-0.125002,-0.001478,-0.124802,-0.000738,-0.125000,0.000000,-0.123060,0.007240,-0.132672,0.131302,-0.162946,0.259471,-0.212600,0.381448,-0.280449,0.494322,-0.360216,0.589825,-0.366662,0.593652,-0.398328,0.650079,-0.397537,0.714779,-0.364503,0.770415,-0.308076,0.802081,
-0.243376,0.801290,-0.243376,0.801290,$1*%
G04 Aperture macros list end*
%ADD10C,3.000000*%
%ADD11C,4.100000*%
%ADD12C,1.900000*%
%ADD13R,2.550000X2.500000*%
%ADD14C,2.250000*%
%ADD15C,5.000000*%
%ADD16C,1.300000*%
%ADD17RotRect,2.550000X2.500000X60.000000*%
%ADD18RotRect,2.550000X2.500000X345.000000*%
%ADD19C,0.800000*%
%ADD20O,2.000000X1.600000*%
%ADD21FreePoly0,180.000000*%
%ADD22FreePoly0,0.000000*%
G04 APERTURE END LIST*
D10*
X2540000Y-24080000D03*
D11*
X0Y-19000000D03*
D10*
X-2540000Y-24080000D03*
D12*
X-5080000Y-19000000D03*
X5080000Y-19000000D03*
D10*
X3810000Y-21540000D03*
X-3810000Y-21540000D03*
D13*
X-7085000Y-21540000D03*
D14*
X3810000Y-16460000D03*
X-2540000Y-13920000D03*
D13*
X5842000Y-24080000D03*
D10*
X-34190000Y-34602500D03*
X-40540000Y-37142500D03*
X-35460000Y-37142500D03*
D12*
X-32920000Y-32062500D03*
D11*
X-38000000Y-32062500D03*
D10*
X-41810000Y-34602500D03*
D12*
X-43080000Y-32062500D03*
D14*
X-34190000Y-29522500D03*
D13*
X-45085000Y-34602500D03*
X-32158000Y-37142500D03*
D14*
X-40540000Y-26982500D03*
D12*
X-13920000Y-36812500D03*
X-24080000Y-36812500D03*
D11*
X-19000000Y-36812500D03*
D10*
X-22810000Y-39352500D03*
X-21540000Y-41892500D03*
X-15190000Y-39352500D03*
X-16460000Y-41892500D03*
D14*
X-15190000Y-34272500D03*
D13*
X-26085000Y-39352500D03*
D14*
X-21540000Y-31732500D03*
D13*
X-13158000Y-41892500D03*
D12*
X-43080000Y-13062500D03*
D11*
X-38000000Y-13062500D03*
D10*
X-41810000Y-15602500D03*
D12*
X-32920000Y-13062500D03*
D10*
X-35460000Y-18142500D03*
X-40540000Y-18142500D03*
X-34190000Y-15602500D03*
D13*
X-45085000Y-15602500D03*
D14*
X-34190000Y-10522500D03*
D13*
X-32158000Y-18142500D03*
D14*
X-40540000Y-7982500D03*
D10*
X-41810000Y3397500D03*
X-35460000Y857500D03*
D12*
X-43080000Y5937500D03*
D10*
X-34190000Y3397500D03*
X-40540000Y857500D03*
D12*
X-32920000Y5937500D03*
D11*
X-38000000Y5937500D03*
D14*
X-34190000Y8477500D03*
D13*
X-45085000Y3397500D03*
X-32158000Y857500D03*
D14*
X-40540000Y11017500D03*
D12*
X-100080000Y-26125000D03*
X-89920000Y-26125000D03*
D10*
X-92460000Y-31205000D03*
X-98810000Y-28665000D03*
X-97540000Y-31205000D03*
D11*
X-95000000Y-26125000D03*
D10*
X-91190000Y-28665000D03*
D13*
X-102085000Y-28665000D03*
D14*
X-91190000Y-23585000D03*
X-97540000Y-21045000D03*
D13*
X-89158000Y-31205000D03*
D10*
X-2540000Y-5080000D03*
X-3810000Y-2540000D03*
D11*
X0Y0D03*
D10*
X3810000Y-2540000D03*
X2540000Y-5080000D03*
D12*
X5080000Y0D03*
X-5080000Y0D03*
D13*
X-7085000Y-2540000D03*
D14*
X3810000Y2540000D03*
D13*
X5842000Y-5080000D03*
D14*
X-2540000Y5080000D03*
D10*
X-60810000Y-21540000D03*
D12*
X-62080000Y-19000000D03*
X-51920000Y-19000000D03*
D10*
X-59540000Y-24080000D03*
X-53190000Y-21540000D03*
D11*
X-57000000Y-19000000D03*
D10*
X-54460000Y-24080000D03*
D14*
X-53190000Y-16460000D03*
D13*
X-64085000Y-21540000D03*
D14*
X-59540000Y-13920000D03*
D13*
X-51158000Y-24080000D03*
D10*
X-29522500Y-60892500D03*
D11*
X-32062500Y-55812500D03*
D12*
X-26982500Y-55812500D03*
D10*
X-35872500Y-58352500D03*
X-34602500Y-60892500D03*
X-28252500Y-58352500D03*
D12*
X-37142500Y-55812500D03*
D13*
X-39147500Y-58352500D03*
D14*
X-28252500Y-53272500D03*
X-34602500Y-50732500D03*
D13*
X-26220500Y-60892500D03*
D15*
X-66500000Y-16625000D03*
D10*
X-73460000Y-31205000D03*
D12*
X-81080000Y-26125000D03*
D10*
X-79810000Y-28665000D03*
X-78540000Y-31205000D03*
X-72190000Y-28665000D03*
D12*
X-70920000Y-26125000D03*
D11*
X-76000000Y-26125000D03*
D14*
X-72190000Y-23585000D03*
D13*
X-83085000Y-28665000D03*
X-70158000Y-31205000D03*
D14*
X-78540000Y-21045000D03*
D16*
X29490000Y-26488750D03*
X29490000Y-8708750D03*
X14250000Y-36648750D03*
X14250000Y1451250D03*
X29490000Y-13788750D03*
X29490000Y-41728750D03*
X14250000Y-26488750D03*
X14250000Y-23948750D03*
X14250000Y-31568750D03*
X14250000Y-34108750D03*
X14250000Y3991250D03*
X29490000Y-6168750D03*
X14250000Y-6168750D03*
X14250000Y-39188750D03*
X29490000Y1451250D03*
X29490000Y6531250D03*
X14250000Y-21408750D03*
X14250000Y-18868750D03*
X29490000Y-18868750D03*
X29490000Y-23948750D03*
X29490000Y-31568750D03*
X29490000Y-29028750D03*
X29490000Y-16328750D03*
X14250000Y-13788750D03*
X29490000Y-36648750D03*
X14250000Y-3628750D03*
X14250000Y-11248750D03*
X29490000Y-1088750D03*
X14250000Y6531250D03*
X29490000Y-39188750D03*
X14250000Y-41728750D03*
X14250000Y-16328750D03*
X29490000Y-3628750D03*
X14250000Y-1088750D03*
X29490000Y-34108750D03*
X14250000Y-8708750D03*
X29490000Y-11248750D03*
X14250000Y-29028750D03*
X29490000Y-21408750D03*
X29490000Y3991250D03*
D12*
X-81080000Y-45125000D03*
D10*
X-78540000Y-50205000D03*
X-73460000Y-50205000D03*
D11*
X-76000000Y-45125000D03*
D12*
X-70920000Y-45125000D03*
D10*
X-72190000Y-47665000D03*
X-79810000Y-47665000D03*
D13*
X-83085000Y-47665000D03*
D14*
X-72190000Y-42585000D03*
D13*
X-70158000Y-50205000D03*
D14*
X-78540000Y-40045000D03*
D15*
X2375000Y-55218750D03*
D12*
X-89920000Y-45125000D03*
D10*
X-91190000Y-47665000D03*
X-92460000Y-50205000D03*
D11*
X-95000000Y-45125000D03*
D10*
X-97540000Y-50205000D03*
D12*
X-100080000Y-45125000D03*
D10*
X-98810000Y-47665000D03*
D13*
X-102085000Y-47665000D03*
D14*
X-91190000Y-42585000D03*
D13*
X-89158000Y-50205000D03*
D14*
X-97540000Y-40045000D03*
D16*
X19775000Y-49957500D03*
X19775000Y-47417500D03*
X19775000Y-44877500D03*
X19775000Y-52497500D03*
D15*
X-85500000Y-16625000D03*
D10*
X-59540000Y-5080000D03*
X-54460000Y-5080000D03*
D12*
X-51920000Y0D03*
X-62080000Y0D03*
D10*
X-60810000Y-2540000D03*
D11*
X-57000000Y0D03*
D10*
X-53190000Y-2540000D03*
D14*
X-53190000Y2540000D03*
D13*
X-64085000Y-2540000D03*
D14*
X-59540000Y5080000D03*
D13*
X-51158000Y-5080000D03*
D10*
X17544409Y-63871545D03*
X15979705Y-61501693D03*
D11*
X11875000Y-63531250D03*
D12*
X9335000Y-67930659D03*
D10*
X12169705Y-68100807D03*
D12*
X14415000Y-59131841D03*
D10*
X15004409Y-68270955D03*
D14*
X11580295Y-58961693D03*
D17*
X10532205Y-70937040D03*
D14*
X6205591Y-63190955D03*
D17*
X19195409Y-61011930D03*
D15*
X-85500000Y-35625000D03*
D12*
X-108920000Y-27312500D03*
X-119080000Y-27312500D03*
D10*
X-117810000Y-29852500D03*
D11*
X-114000000Y-27312500D03*
D10*
X-116540000Y-32392500D03*
X-110190000Y-29852500D03*
X-111460000Y-32392500D03*
D13*
X-121085000Y-29852500D03*
D14*
X-110190000Y-24772500D03*
X-116540000Y-22232500D03*
D13*
X-108158000Y-32392500D03*
D12*
X-15594403Y-56872699D03*
D10*
X-7664723Y-61627052D03*
X-9548849Y-63751804D03*
X-15025078Y-59654851D03*
D11*
X-10687500Y-58187500D03*
D10*
X-14455752Y-62437003D03*
D12*
X-5780597Y-59502301D03*
D18*
X-18188485Y-58807219D03*
D14*
X-6349922Y-56720149D03*
D18*
X-6359362Y-64606424D03*
D14*
X-11826151Y-52623196D03*
D10*
X-16460000Y-22892500D03*
D12*
X-13920000Y-17812500D03*
D11*
X-19000000Y-17812500D03*
D10*
X-15190000Y-20352500D03*
X-21540000Y-22892500D03*
X-22810000Y-20352500D03*
D12*
X-24080000Y-17812500D03*
D14*
X-15190000Y-15272500D03*
D13*
X-26085000Y-20352500D03*
D14*
X-21540000Y-12732500D03*
D13*
X-13158000Y-22892500D03*
D19*
X25012500Y-49737500D03*
X32012500Y-49737500D03*
X25012500Y-47637500D03*
X32012500Y-47637500D03*
D20*
X22312500Y-47437500D03*
X22312500Y-49937500D03*
X23412500Y-52037500D03*
X23412500Y-45337500D03*
X30412500Y-52037500D03*
X27412500Y-45337500D03*
X27412500Y-52037500D03*
X30412500Y-45337500D03*
D15*
X-9500000Y-8312500D03*
X-66500000Y-35625000D03*
D10*
X-92460000Y-12205000D03*
D12*
X-100080000Y-7125000D03*
X-89920000Y-7125000D03*
D10*
X-91190000Y-9665000D03*
D11*
X-95000000Y-7125000D03*
D10*
X-97540000Y-12205000D03*
X-98810000Y-9665000D03*
D13*
X-102085000Y-9665000D03*
D14*
X-91190000Y-4585000D03*
X-97540000Y-2045000D03*
D13*
X-89158000Y-12205000D03*
D10*
X-15190000Y-1352500D03*
D11*
X-19000000Y1187500D03*
D10*
X-22810000Y-1352500D03*
D12*
X-24080000Y1187500D03*
D10*
X-16460000Y-3892500D03*
D12*
X-13920000Y1187500D03*
D10*
X-21540000Y-3892500D03*
D13*
X-26085000Y-1352500D03*
D14*
X-15190000Y3727500D03*
X-21540000Y6267500D03*
D13*
X-13158000Y-3892500D03*
D10*
X3810000Y-40540000D03*
X-2540000Y-43080000D03*
X-3810000Y-40540000D03*
D12*
X-5080000Y-38000000D03*
X5080000Y-38000000D03*
D10*
X2540000Y-43080000D03*
D11*
X0Y-38000000D03*
D13*
X-7085000Y-40540000D03*
D14*
X3810000Y-35460000D03*
D13*
X5842000Y-43080000D03*
D14*
X-2540000Y-32920000D03*
D10*
X-53190000Y-40540000D03*
D12*
X-62080000Y-38000000D03*
X-51920000Y-38000000D03*
D10*
X-59540000Y-43080000D03*
X-60810000Y-40540000D03*
X-54460000Y-43080000D03*
D11*
X-57000000Y-38000000D03*
D13*
X-64085000Y-40540000D03*
D14*
X-53190000Y-35460000D03*
D13*
X-51158000Y-43080000D03*
D14*
X-59540000Y-32920000D03*
D10*
X-72190000Y-9665000D03*
D12*
X-81080000Y-7125000D03*
D10*
X-79810000Y-9665000D03*
X-78540000Y-12205000D03*
D12*
X-70920000Y-7125000D03*
D10*
X-73460000Y-12205000D03*
D11*
X-76000000Y-7125000D03*
D14*
X-72190000Y-4585000D03*
D13*
X-83085000Y-9665000D03*
X-70158000Y-12205000D03*
D14*
X-78540000Y-2045000D03*
D21*
X28515000Y6531250D03*
D22*
X30465000Y6531250D03*
X30465000Y3991250D03*
D21*
X28515000Y3991250D03*
D22*
X30465000Y1451250D03*
D21*
X28515000Y1451250D03*
X28515000Y-1088750D03*
D22*
X30465000Y-1088750D03*
D21*
X28515000Y-3628750D03*
D22*
X30465000Y-3628750D03*
D21*
X28515000Y-6168750D03*
D22*
X30465000Y-6168750D03*
D21*
X28515000Y-8708750D03*
D22*
X30465000Y-8708750D03*
X30465000Y-11248750D03*
D21*
X28515000Y-11248750D03*
X28515000Y-13788750D03*
D22*
X30465000Y-13788750D03*
D21*
X28515000Y-16328750D03*
D22*
X30465000Y-16328750D03*
D21*
X28515000Y-18868750D03*
D22*
X30465000Y-18868750D03*
D21*
X28515000Y-21408750D03*
D22*
X30465000Y-21408750D03*
X30465000Y-23948750D03*
D21*
X28515000Y-23948750D03*
X28515000Y-26488750D03*
D22*
X30465000Y-26488750D03*
X30465000Y-29028750D03*
D21*
X28515000Y-29028750D03*
D22*
X30465000Y-31568750D03*
D21*
X28515000Y-31568750D03*
X28515000Y-34108750D03*
D22*
X30465000Y-34108750D03*
X30465000Y-36648750D03*
D21*
X28515000Y-36648750D03*
D22*
X30465000Y-39188750D03*
D21*
X28515000Y-39188750D03*
X28515000Y-41728750D03*
D22*
X30465000Y-41728750D03*
X15225000Y-41728750D03*
D21*
X13275000Y-41728750D03*
D22*
X15225000Y-39188750D03*
D21*
X13275000Y-39188750D03*
X13275000Y-36648750D03*
D22*
X15225000Y-36648750D03*
X15225000Y-34108750D03*
D21*
X13275000Y-34108750D03*
D22*
X15225000Y-31568750D03*
D21*
X13275000Y-31568750D03*
X13275000Y-29028750D03*
D22*
X15225000Y-29028750D03*
X15225000Y-26488750D03*
D21*
X13275000Y-26488750D03*
X13275000Y-23948750D03*
D22*
X15225000Y-23948750D03*
D21*
X13275000Y-21408750D03*
D22*
X15225000Y-21408750D03*
D21*
X13275000Y-18868750D03*
D22*
X15225000Y-18868750D03*
D21*
X13275000Y-16328750D03*
D22*
X15225000Y-16328750D03*
X15225000Y-13788750D03*
D21*
X13275000Y-13788750D03*
X13275000Y-11248750D03*
D22*
X15225000Y-11248750D03*
D21*
X13275000Y-8708750D03*
D22*
X15225000Y-8708750D03*
X15225000Y-6168750D03*
D21*
X13275000Y-6168750D03*
D22*
X15225000Y-3628750D03*
D21*
X13275000Y-3628750D03*
D22*
X15225000Y-1088750D03*
D21*
X13275000Y-1088750D03*
D22*
X15225000Y1451250D03*
D21*
X13275000Y1451250D03*
D22*
X15225000Y3991250D03*
D21*
X13275000Y3991250D03*
D22*
X15225000Y6531250D03*
D21*
X13275000Y6531250D03*
X18800000Y-52497500D03*
D22*
X20750000Y-52497500D03*
D21*
X18800000Y-49957500D03*
D22*
X20750000Y-49957500D03*
D21*
X18800000Y-47417500D03*
D22*
X20750000Y-47417500D03*
D21*
X18800000Y-44877500D03*
D22*
X20750000Y-44877500D03*
M02*
