M48
; DRILL file {KiCad (6.0.7-1)-1} date 2022 December 30, Friday 18:40:01
; FORMAT={-:-/ absolute / inch / decimal}
; #@! TF.CreationDate,2022-12-30T18:40:01+10:00
; #@! TF.GenerationSoftware,Kicad,Pcbnew,(6.0.7-1)-1
; #@! TF.FileFunction,Plated,1,2,PTH
FMAT,2
INCH
; #@! TA.AperFunction,Plated,PTH,ViaDrill
T1C0.0157
; #@! TA.AperFunction,Plated,PTH,ComponentDrill
T2C0.0335
; #@! TA.AperFunction,Plated,PTH,ComponentDrill
T3C0.0354
; #@! TA.AperFunction,Plated,PTH,ComponentDrill
T4C0.0579
; #@! TA.AperFunction,Plated,PTH,ComponentDrill
T5C0.1575
%
G90
G05
T1
X-3.2493Y-1.9753
X-2.5012Y-1.6948
X0.5026Y-0.8883
X0.512Y-0.0938
X0.636Y-0.6143
X0.636Y-0.7143
X0.636Y-0.8143
X0.636Y-0.9143
X0.636Y-1.0143
X0.636Y-1.1143
X0.661Y0.2571
X0.661Y0.1571
X0.661Y0.0571
X0.661Y-0.0429
X0.661Y-0.1429
X0.661Y-1.2429
X0.661Y-1.3429
X1.0519Y0.1169
X1.0608Y-0.7428
X1.061Y-0.2429
X1.061Y-0.3429
X1.061Y-0.4429
X1.061Y-0.5429
X1.061Y-0.6429
X1.061Y-0.8429
X1.061Y-0.9429
X1.061Y-1.0429
X1.061Y-1.1429
X1.086Y0.0857
X1.086Y-0.0143
X1.236Y0.0321
T2
X0.561Y0.2571
X0.561Y0.1571
X0.561Y0.0571
X0.561Y-0.0429
X0.561Y-0.1429
X0.561Y-0.2429
X0.561Y-0.3429
X0.561Y-0.4429
X0.561Y-0.5429
X0.561Y-0.6429
X0.561Y-0.7429
X0.561Y-0.8429
X0.561Y-0.9429
X0.561Y-1.0429
X0.561Y-1.1429
X0.561Y-1.2429
X0.561Y-1.3429
X0.561Y-1.4429
X0.561Y-1.5429
X0.561Y-1.6429
X0.7785Y-1.7668
X0.7785Y-1.8668
X0.7785Y-1.9668
X0.7785Y-2.0668
X1.161Y0.2571
X1.161Y0.1571
X1.161Y0.0571
X1.161Y-0.0429
X1.161Y-0.1429
X1.161Y-0.2429
X1.161Y-0.3429
X1.161Y-0.4429
X1.161Y-0.5429
X1.161Y-0.6429
X1.161Y-0.7429
X1.161Y-0.8429
X1.161Y-0.9429
X1.161Y-1.0429
X1.161Y-1.1429
X1.161Y-1.2429
X1.161Y-1.3429
X1.161Y-1.4429
X1.161Y-1.5429
X1.161Y-1.6429
T4
X-4.6382Y-0.9753
X-4.5882Y-0.8753
X-4.3882Y-0.8753
X-4.3382Y-0.9753
X-3.8902Y-0.1805
X-3.8902Y-0.9285
X-3.8902Y-1.6766
X-3.8402Y-0.0805
X-3.8402Y-0.8285
X-3.8402Y-1.5766
X-3.6402Y-0.0805
X-3.6402Y-0.8285
X-3.6402Y-1.5766
X-3.5902Y-0.1805
X-3.5902Y-0.9285
X-3.5902Y-1.6766
X-3.1421Y-0.1805
X-3.1421Y-0.9285
X-3.1421Y-1.6766
X-3.0921Y-0.0805
X-3.0921Y-0.8285
X-3.0921Y-1.5766
X-2.8921Y-0.0805
X-2.8921Y-0.8285
X-2.8921Y-1.5766
X-2.8421Y-0.1805
X-2.8421Y-0.9285
X-2.8421Y-1.6766
X-2.3941Y0.1
X-2.3941Y-0.648
X-2.3941Y-1.3961
X-2.3441Y0.2
X-2.3441Y-0.548
X-2.3441Y-1.2961
X-2.1441Y0.2
X-2.1441Y-0.548
X-2.1441Y-1.2961
X-2.0941Y0.1
X-2.0941Y-0.648
X-2.0941Y-1.3961
X-1.6461Y0.3338
X-1.6461Y-0.4143
X-1.6461Y-1.1623
X-1.5961Y0.4338
X-1.5961Y-0.3143
X-1.5961Y-1.0623
X-1.4123Y-2.0973
X-1.3961Y0.4338
X-1.3961Y-0.3143
X-1.3961Y-1.0623
X-1.3623Y-1.9973
X-1.3461Y0.3338
X-1.3461Y-0.4143
X-1.3461Y-1.1623
X-1.1623Y-1.9973
X-1.1123Y-2.0973
X-0.898Y0.1468
X-0.898Y-0.6013
X-0.898Y-1.3493
X-0.848Y0.2468
X-0.848Y-0.5013
X-0.848Y-1.2493
X-0.648Y0.2468
X-0.648Y-0.5013
X-0.648Y-1.2493
X-0.598Y0.1468
X-0.598Y-0.6013
X-0.598Y-1.3493
X-0.5398Y-2.1554
X-0.4656Y-2.0718
X-0.2724Y-2.1235
X-0.25Y-2.2331
X-0.15Y0.1
X-0.15Y-0.648
X-0.15Y-1.3961
X-0.1Y0.2
X-0.1Y-0.548
X-0.1Y-1.2961
X0.1Y0.2
X0.1Y-0.548
X0.1Y-1.2961
X0.15Y0.1
X0.15Y-0.648
X0.15Y-1.3961
X0.2443Y-2.4878
X0.3059Y-2.5811
X0.3443Y-2.3146
X0.4559Y-2.3213
T5
X-3.3661Y-0.6545
X-3.3661Y-1.4026
X-2.6181Y-0.6545
X-2.6181Y-1.4026
X-0.374Y-0.3273
X0.0935Y-2.174
T3
G00X0.8863Y-1.8676
M15
G01X0.8706Y-1.8676
M16
G05
G00X0.8863Y-1.966
M15
G01X0.8706Y-1.966
M16
G05
G00X0.9296Y-1.7849
M15
G01X0.9139Y-1.7849
M16
G05
G00X0.9296Y-2.0487
M15
G01X0.9139Y-2.0487
M16
G05
G00X1.0871Y-1.7849
M15
G01X1.0714Y-1.7849
M16
G05
G00X1.0871Y-2.0487
M15
G01X1.0714Y-2.0487
M16
G05
G00X1.2052Y-1.7849
M15
G01X1.1895Y-1.7849
M16
G05
G00X1.2052Y-2.0487
M15
G01X1.1895Y-2.0487
M16
G05
T0
M30
